<svg width="145" height="145" viewBox="0 0 145 145" fill="none" xmlns="http://www.w3.org/2000/svg">
<mask id="path-1-inside-1_367_23271" fill="white">
<path d="M27.3336 27.2086C33.3542 21.3615 39.4886 15.6567 46.2493 10.6636C51.2663 6.9582 56.5532 3.75136 62.508 1.75536C72.0756 -1.40411 81.0905 0.058864 89.7559 4.63195C95.5139 7.6712 100.799 11.4104 105.584 15.764C111.28 20.9429 116.89 26.236 122.286 31.7151C128.849 38.4181 134.911 45.5644 139.445 53.8694C143.466 61.2057 145.532 68.9601 143.929 77.4216C142.774 83.5288 140.05 88.9834 136.671 94.1542C131.043 102.767 124.02 110.186 116.798 117.433C110.977 123.252 104.971 128.856 98.3394 133.749C93.2939 137.483 87.9642 140.704 81.9808 142.7C72.4703 145.86 63.4696 144.382 54.8469 139.852C47.9345 136.231 41.8237 131.495 36.1278 126.231C31.3861 121.834 26.7302 117.323 22.2316 112.684C16.2809 106.564 10.7448 100.058 6.35222 92.6943C3.66546 88.2076 1.53576 83.4771 0.605719 78.2875C-0.845738 70.2037 1.01202 62.6829 4.80958 55.5286C7.87633 49.7309 11.7552 44.4592 16.0756 39.5715C19.7523 35.3841 23.5999 31.339 27.362 27.2371"/>
</mask>
<path d="M46.2493 10.6636L46.8437 11.4677L46.8438 11.4677L46.2493 10.6636ZM62.508 1.75536L62.1942 0.80604L62.19 0.807461L62.508 1.75536ZM89.7559 4.63195L90.223 3.74787L90.2229 3.74783L89.7559 4.63195ZM105.584 15.764L104.911 16.5034L104.911 16.5036L105.584 15.764ZM122.286 31.7151L123.001 31.0158L122.999 31.0137L122.286 31.7151ZM139.445 53.8694L138.567 54.3482L138.567 54.3498L139.445 53.8694ZM143.929 77.4216L142.946 77.2356L142.946 77.2359L143.929 77.4216ZM136.671 94.1542L135.833 93.6074L135.833 93.6075L136.671 94.1542ZM116.798 117.433L117.505 118.14L117.507 118.139L116.798 117.433ZM98.3394 133.749L97.7454 132.945L97.7442 132.946L98.3394 133.749ZM81.9808 142.7L82.2962 143.649L82.2974 143.649L81.9808 142.7ZM54.8469 139.852L55.3123 138.967L55.3113 138.967L54.8469 139.852ZM36.1278 126.231L35.4476 126.963L35.4488 126.965L36.1278 126.231ZM22.2316 112.684L22.9498 111.988L22.9488 111.987L22.2316 112.684ZM6.35222 92.6943L7.21134 92.1823L7.21046 92.1809L6.35222 92.6943ZM0.605719 78.2875L1.59027 78.1112L1.59022 78.1109L0.605719 78.2875ZM4.80958 55.5286L5.69314 55.9972L5.69381 55.9959L4.80958 55.5286ZM16.0756 39.5715L16.8252 40.2334L16.8274 40.231L16.0756 39.5715ZM28.0306 27.9256C34.0446 22.085 40.1395 16.4191 46.8437 11.4677L45.6549 9.85955C38.8378 14.8943 32.6638 20.6379 26.6366 26.4916L28.0306 27.9256ZM46.8438 11.4677C51.8155 7.79565 57.0075 4.65355 62.826 2.70326L62.19 0.807461C56.0988 2.84917 50.717 6.12076 45.6549 9.85956L46.8438 11.4677ZM62.8218 2.70467C72.0839 -0.353914 80.8163 1.04469 89.2889 5.51606L90.2229 3.74783C81.3648 -0.926964 72.0673 -2.4543 62.1942 0.806049L62.8218 2.70467ZM89.2889 5.51602C94.9702 8.51487 100.187 12.2049 104.911 16.5034L106.257 15.0247C101.412 10.6159 96.0575 6.82754 90.223 3.74787L89.2889 5.51602ZM104.911 16.5036C110.598 21.6745 116.194 26.9545 121.573 32.4164L122.999 31.0137C117.586 25.5176 111.962 20.2112 106.257 15.0245L104.911 16.5036ZM121.571 32.4143C128.104 39.0871 134.096 46.1581 138.567 54.3482L140.323 53.3906C135.727 44.9706 129.593 37.749 123.001 31.0158L121.571 32.4143ZM138.567 54.3498C142.513 61.5481 144.494 69.0654 142.946 77.2356L144.912 77.6076C146.57 68.8548 144.419 60.8634 140.322 53.389L138.567 54.3498ZM142.946 77.2359C141.824 83.1665 139.174 88.4964 135.833 93.6074L137.508 94.7009C140.927 89.4703 143.723 83.8911 144.912 77.6074L142.946 77.2359ZM135.833 93.6075C130.266 102.129 123.307 109.486 116.089 116.728L117.507 118.139C124.734 110.886 131.821 103.406 137.508 94.7008L135.833 93.6075ZM116.091 116.726C110.284 122.531 104.319 128.095 97.7454 132.945L98.9334 134.554C105.624 129.617 111.671 123.972 117.505 118.14L116.091 116.726ZM97.7442 132.946C92.7453 136.645 87.5109 139.802 81.6641 141.752L82.2974 143.649C88.4175 141.607 93.8425 138.321 98.9346 134.553L97.7442 132.946ZM81.6653 141.752C72.4624 144.809 63.7447 143.398 55.3123 138.967L54.3816 140.737C63.1946 145.367 72.4781 146.911 82.2962 143.649L81.6653 141.752ZM55.3113 138.967C48.5011 135.399 42.462 130.723 36.8069 125.496L35.4488 126.965C41.1853 132.267 47.3679 137.063 54.3826 140.738L55.3113 138.967ZM36.8081 125.498C32.0769 121.111 27.434 116.612 22.9498 111.988L21.5133 113.379C26.0264 118.034 30.6952 122.557 35.4476 126.963L36.8081 125.498ZM22.9488 111.987C17.0264 105.896 11.5485 99.4535 7.21134 92.1823L5.4931 93.2063C9.94103 100.663 15.5353 107.232 21.5144 113.38L22.9488 111.987ZM7.21046 92.1809C4.56166 87.7575 2.49199 83.1428 1.59027 78.1112L-0.378835 78.4638C0.579527 83.8114 2.76926 88.6576 5.49398 93.2078L7.21046 92.1809ZM1.59022 78.1109C0.188224 70.3026 1.97079 63.0098 5.69314 55.9972L3.92601 55.06C0.0532449 62.356 -1.8797 70.1048 -0.378774 78.4641L1.59022 78.1109ZM5.69381 55.9959C8.71502 50.2844 12.5436 45.0772 16.8252 40.2334L15.3261 38.9095C10.9669 43.8411 7.03764 49.1775 3.92534 55.0613L5.69381 55.9959ZM16.8274 40.231C20.4951 36.0538 24.3203 32.0331 28.0993 27.9127L26.6248 26.5615C22.8796 30.6449 19.0096 34.7144 15.3239 38.912L16.8274 40.231Z" fill="#5DA3DA" mask="url(#path-1-inside-1_367_23271)"/>
</svg>
