<svg width="80" height="80" viewBox="0 0 80 80" fill="none" xmlns="http://www.w3.org/2000/svg">
<path d="M77.86 21.1192C77.08 17.3782 75.86 13.7972 73.68 10.6164C70.64 6.21518 66.32 3.73451 61.28 2.27412C55.62 0.653679 49.78 0.17355 43.92 0.0935287C39.12 0.0335125 34.3 0.17355 29.5 0.393609C25.46 0.573658 21.46 1.25384 17.58 2.45416C11.74 4.25465 7.1 7.55554 4.28 13.117C2.52 16.578 1.6 20.299 1.04 24.12C0.26 29.2614 0.06 34.4428 0 39.6442C0.16 43.0851 0.24 46.546 0.46 49.9669C0.72 54.008 1.34 58.0091 2.54 61.8901C4.04 66.6914 6.52 70.7925 10.74 73.6933C13.46 75.5538 16.48 76.6941 19.66 77.4943C24.86 78.7947 30.18 79.2148 35.52 79.2948C39.56 79.3548 43.6 79.2948 47.64 79.1348C52.48 78.9547 57.28 78.3546 61.92 76.9142C67.74 75.1137 72.36 71.8328 75.16 66.2913C76.92 62.7904 77.86 59.0494 78.44 55.2084C79.2 50.167 79.38 45.0856 79.38 40.0043C79.38 33.6626 79.2 27.3609 77.88 21.1192H77.86ZM54.52 43.5452H43.5V54.5682H35.84V43.5452H24.84V35.8832H35.84V24.8602H43.5V35.8832H54.52V43.5452Z" fill="#595757"/>
</svg>
