<svg width="80" height="80" viewBox="0 0 80 80" fill="none" xmlns="http://www.w3.org/2000/svg">
<path d="M33.9997 37.9226V38.6426H45.2197V36.6226H33.6797C33.8797 37.0026 33.9997 37.4426 33.9997 37.9226Z" fill="#595757"/>
<path d="M54.0609 50.8062H45.9609V53.3862H54.0609V50.8062Z" fill="#595757"/>
<path d="M25.3008 49.0664H31.1808C31.9408 49.0664 32.6408 49.3665 33.1608 49.8666H45.2408V39.3638H25.3008V49.0664Z" fill="#595757"/>
<path d="M33.9997 51.9065V52.6265H45.2197V50.6265H33.6797C33.8797 51.0065 33.9997 51.4465 33.9997 51.9265V51.9065Z" fill="#595757"/>
<path d="M33.2808 37.9237C33.2808 36.7637 32.3408 35.8237 31.1808 35.8237H25.3008V38.6437H33.2808V37.9237Z" fill="#595757"/>
<path d="M31.1808 49.8057H25.3008V52.6257H33.2808V51.9057C33.2808 50.7457 32.3408 49.8057 31.1808 49.8057Z" fill="#595757"/>
<path d="M54.0609 47.5063H45.9609V50.0863H54.0609V47.5063Z" fill="#595757"/>
<path d="M54.0609 34.3018H45.9609V36.8818H54.0609V34.3018Z" fill="#595757"/>
<path d="M54.0609 31.002H45.9609V33.582H54.0609V31.002Z" fill="#595757"/>
<path d="M54.0609 44.2046H45.9609V46.7846H54.0609V44.2046Z" fill="#595757"/>
<path d="M77.86 21.1192C77.08 17.3782 75.86 13.7972 73.68 10.6164C70.64 6.21518 66.32 3.73451 61.28 2.27412C55.62 0.653679 49.78 0.17355 43.92 0.0935287C39.12 0.0335125 34.3 0.17355 29.5 0.393609C25.46 0.573658 21.46 1.25384 17.58 2.45416C11.74 4.25465 7.1 7.55554 4.28 13.117C2.52 16.578 1.6 20.299 1.04 24.12C0.26 29.2614 0.06 34.4428 0 39.6442C0.16 43.0851 0.24 46.546 0.46 49.9669C0.72 54.008 1.34 58.0091 2.54 61.8901C4.04 66.6914 6.52 70.7925 10.74 73.6933C13.46 75.5538 16.48 76.6941 19.66 77.4943C24.86 78.7947 30.18 79.2148 35.52 79.2948C39.56 79.3548 43.6 79.2948 47.64 79.1348C52.48 78.9547 57.28 78.3546 61.92 76.9142C67.74 75.1137 72.36 71.8328 75.16 66.2913C76.92 62.7904 77.86 59.0494 78.44 55.2084C79.2 50.167 79.38 45.0856 79.38 40.0043C79.38 33.6626 79.18 27.3609 77.88 21.1192H77.86ZM35.26 14.9775C38.94 14.9775 41.94 17.9583 41.94 21.6593C41.94 25.3603 38.96 28.3411 35.26 28.3411C31.56 28.3411 28.58 25.3603 28.58 21.6593C28.58 17.9583 31.56 14.9775 35.26 14.9775ZM54.78 56.0286H54.06V54.0881H45.96V56.0286H45.24V53.3479H25.3V56.0286H24.58V28.3211H25.3V35.0829H31.18C31.94 35.0829 32.64 35.403 33.16 35.9032H45.24V28.3211H45.96V30.2616H54.06V28.3211H54.78V56.0286Z" fill="#595757"/>
<path d="M54.0609 37.6035H45.9609V40.1835H54.0609V37.6035Z" fill="#595757"/>
<path d="M54.0609 40.9048H45.9609V43.4848H54.0609V40.9048Z" fill="#595757"/>
</svg>
