<svg width="80" height="80" viewBox="0 0 80 80" fill="none" xmlns="http://www.w3.org/2000/svg">
<path d="M77.88 21.1192C77.08 17.3782 75.88 13.7972 73.7 10.6164C70.66 6.21518 66.34 3.73451 61.3 2.27412C55.64 0.653679 49.8 0.17355 43.94 0.0935287C39.14 0.0335125 34.32 0.17355 29.52 0.393609C25.48 0.573658 21.5 1.25384 17.6 2.45416C11.76 4.25465 7.12 7.55554 4.3 13.117C2.54 16.578 1.62 20.299 1.04 24.12C0.26 29.2614 0.08 34.4428 0 39.6442C0.16 43.0851 0.24 46.546 0.46 49.9669C0.72 54.008 1.34 58.0091 2.54 61.8901C4.04 66.6914 6.52 70.7925 10.74 73.6933C13.46 75.5538 16.48 76.6941 19.66 77.4943C24.86 78.7947 30.18 79.2148 35.52 79.2948C39.56 79.3548 43.6 79.2948 47.64 79.1348C52.48 78.9547 57.28 78.3346 61.92 76.9142C67.74 75.1137 72.36 71.8328 75.16 66.2913C76.92 62.7904 77.86 59.0494 78.44 55.2084C79.2 50.167 79.38 45.0856 79.38 40.0043C79.38 33.6626 79.18 27.3609 77.88 21.1192ZM36.74 40.0043L29.42 52.6877L22.1 40.0043C18.84 34.3627 22.92 27.3209 29.42 27.3209C35.92 27.3209 40 34.3627 36.74 40.0043ZM50.94 52.2476C49.46 52.2476 48.26 51.0472 48.26 49.5668C48.26 48.0864 49.46 46.8661 50.94 46.8661C52.42 46.8661 53.62 48.0664 53.62 49.5668C53.62 51.0672 52.42 52.2476 50.94 52.2476ZM56.08 39.7042C53.64 41.5447 52.7 41.8848 52.7 44.1854H48.74C48.74 40.3844 50.14 39.4441 52.12 38.0237C53.52 37.0235 54.74 36.2433 54.74 34.2627C54.74 32.2822 53.28 31.0819 51.3 31.0819C48.9 31.0819 47.28 32.6023 47.24 35.143H43.06C43.16 30.8218 45.98 27.3409 51.28 27.3409C56.24 27.3409 59.18 30.3017 59.18 34.1227C59.18 37.3435 57.5 38.6439 56.1 39.7042H56.08Z" fill="#595757"/>
</svg>
