<svg width="80" height="80" viewBox="0 0 80 80" fill="none" xmlns="http://www.w3.org/2000/svg">
<path d="M77.86 21.2737C77.08 17.5327 75.86 13.9517 73.68 10.7709C70.64 6.36967 66.32 3.889 61.28 2.42861C55.62 0.808174 49.78 0.328045 43.92 0.248023C39.12 0.208013 34.3 0.34805 29.5 0.568109C25.46 0.748158 21.46 1.42834 17.58 2.62866C11.74 4.42915 7.1 7.73004 4.28 13.2915C2.52 16.7525 1.6 20.4735 1.04 24.2945C0.26 29.4359 0.06 34.6173 0 39.8187C0.16 43.2596 0.24 46.7205 0.46 50.1414C0.72 54.1825 1.34 58.1836 2.54 62.0646C4.04 66.8659 6.52 70.967 10.74 73.8678C13.46 75.7283 16.48 76.8686 19.66 77.6689C24.86 78.9692 30.18 79.3893 35.52 79.4693C39.56 79.5293 43.6 79.4693 47.64 79.3093C52.48 79.1292 57.28 78.5091 61.92 77.0887C67.74 75.2882 72.36 72.0073 75.16 66.4658C76.92 62.9649 77.86 59.2239 78.44 55.3829C79.2 50.3415 79.38 45.2601 79.38 40.1788C79.38 33.8371 79.2 27.5354 77.88 21.2937L77.86 21.2737ZM35.08 56.023C29.88 56.023 25.64 51.7819 25.64 46.5805C25.64 45.1201 25.98 43.7397 26.58 42.4794L26.76 45.4002C26.7 45.7803 26.68 46.1804 26.68 46.5805C26.68 51.2217 30.46 55.0028 35.1 55.0028C38.56 55.0028 41.74 52.8222 42.96 49.5813C43.06 49.3212 43.36 49.1812 43.62 49.2812C43.88 49.3812 44.02 49.6813 43.92 49.9414C42.54 53.5824 39 56.023 35.1 56.023H35.08ZM32.56 40.8189C32.82 40.7189 33.12 40.8189 33.22 41.099C33.24 41.159 33.26 41.219 33.26 41.2991C33.26 41.4991 33.14 41.6792 32.94 41.7792C30.94 42.5994 29.64 44.5399 29.64 46.7205C29.64 49.6613 32.04 52.062 34.98 52.062C37.18 52.062 39.18 50.6816 39.96 48.621C40.06 48.361 40.36 48.2209 40.62 48.321C40.82 48.401 40.94 48.601 40.94 48.8011C40.94 48.8611 40.94 48.9211 40.9 48.9811C39.96 51.4218 37.58 53.0622 34.96 53.0622C31.46 53.0622 28.62 50.2215 28.62 46.7005C28.62 44.1198 30.16 41.7992 32.56 40.8189ZM29.14 40.6189V39.2385C29.84 38.6784 30.62 38.1982 31.48 37.8381C31.74 37.7181 32.04 37.8381 32.14 38.1182C32.24 38.3783 32.14 38.6784 31.86 38.7784C30.8 39.2185 29.9 39.8587 29.12 40.6189H29.14ZM52.26 54.5426C52.26 54.5426 52.18 54.5426 52.14 54.5426C51.9 54.5426 51.7 54.3826 51.64 54.1425L49.62 45.2601C49.22 43.4596 47.46 42.2993 45.64 42.6194L36.62 44.2399L35.14 33.0568L28.18 36.7378V44.68C28.18 44.96 27.96 45.1801 27.68 45.1801C27.4 45.1801 27.18 44.96 27.18 44.68V36.1177L34.16 32.4167C31.52 32.2166 29.44 30.016 29.44 27.3353C29.44 24.5146 31.74 22.2139 34.56 22.2139C37.38 22.2139 39.68 24.5146 39.68 27.3353C39.68 29.6359 38.16 31.5564 36.06 32.2166L37.5 43.0395L45.46 41.5991C47.84 41.179 50.08 42.6794 50.62 45.0201L52.64 53.9025C52.7 54.1825 52.54 54.4426 52.26 54.5026V54.5426Z" fill="#595757"/>
</svg>
