<svg width="80" height="80" viewBox="0 0 80 80" fill="none" xmlns="http://www.w3.org/2000/svg">
<path d="M77.86 21.2737C77.08 17.5327 75.86 13.9517 73.68 10.7709C70.64 6.36967 66.32 3.889 61.28 2.42861C55.62 0.808174 49.78 0.328045 43.92 0.248023C39.12 0.208013 34.3 0.34805 29.5 0.568109C25.46 0.748158 21.46 1.42834 17.58 2.62866C11.74 4.42915 7.1 7.73004 4.28 13.2915C2.52 16.7525 1.6 20.4735 1.04 24.2945C0.26 29.4359 0.06 34.6173 0 39.8187C0.16 43.2596 0.24 46.7205 0.46 50.1414C0.72 54.1825 1.34 58.1836 2.54 62.0646C4.04 66.8659 6.52 70.967 10.74 73.8678C13.46 75.7283 16.48 76.8686 19.66 77.6689C24.86 78.9692 30.18 79.3893 35.52 79.4693C39.56 79.5293 43.6 79.4693 47.64 79.3093C52.48 79.1292 57.28 78.5091 61.92 77.0887C67.74 75.2882 72.36 72.0073 75.16 66.4658C76.92 62.9649 77.86 59.2239 78.44 55.3829C79.2 50.3415 79.38 45.2601 79.38 40.1788C79.38 33.8371 79.18 27.5354 77.88 21.2937L77.86 21.2737ZM22.3 36.0176C21.04 33.597 21.04 31.1963 22.52 28.8757C24.16 26.315 27.7 25.8349 29.98 27.8154C30.64 28.3756 31.16 29.0358 31.62 29.756C31.66 29.816 31.7 29.896 31.74 29.936C32.18 29.3759 32.6 28.8157 33.06 28.2956C33.82 27.4753 34.74 26.8552 35.86 26.6351C36.82 26.4551 37.72 26.6151 38.58 26.9752C38.24 27.3153 37.92 27.6754 37.66 28.0955C35.94 30.7962 35.84 33.757 37.38 36.6978C37.8 37.518 38.34 38.2182 38.88 38.8184C38.06 39.5386 37.18 40.1988 36.34 40.899C35.1 41.9192 33.86 42.9395 32.64 43.9798C32.32 44.2599 32.06 44.62 31.78 44.92C31.3 44.4399 30.86 43.8798 30.32 43.4396C28.72 42.1393 27.1 40.8589 25.48 39.5986C24.2 38.5983 23.06 37.478 22.3 36.0376V36.0176ZM39.68 53.5624C33.7 53.5624 28.86 53.0022 28.86 52.322C28.86 51.6418 33.7 51.0817 39.68 51.0817C45.66 51.0817 50.5 51.6418 50.5 52.322C50.5 53.0022 45.66 53.5624 39.68 53.5624ZM55.88 38.3183C54.9 39.2385 53.8 40.0387 52.76 40.899C51.52 41.9192 50.28 42.9395 49.06 43.9798C48.72 44.2599 48.48 44.62 48.2 44.92C47.72 44.4399 47.26 43.8798 46.74 43.4396C45.14 42.1393 43.52 40.8589 41.9 39.5786C40.62 38.5783 39.48 37.458 38.72 36.0176C37.46 33.597 37.46 31.1963 38.94 28.8757C39.9 27.3753 41.5 26.5951 43.14 26.5951C44.3 26.5951 45.46 26.9952 46.42 27.8154C47.08 28.3756 47.6 29.0358 48.06 29.756C48.1 29.816 48.14 29.896 48.18 29.936C48.62 29.3759 49.04 28.8157 49.5 28.2956C50.26 27.4553 51.18 26.8552 52.32 26.6351C52.6 26.5751 52.88 26.5551 53.14 26.5551C54 26.5551 54.82 26.8152 55.6 27.2353C57.82 28.4356 58.6 30.4161 58.58 32.7968C58.56 35.0174 57.5 36.8179 55.94 38.3183H55.88Z" fill="#595757"/>
</svg>
