<svg width="80" height="80" viewBox="0 0 80 80" fill="none" xmlns="http://www.w3.org/2000/svg">
<path d="M77.86 21.2737C77.06 17.5327 75.86 13.9517 73.68 10.7709C70.64 6.36967 66.32 3.889 61.28 2.42861C55.62 0.808174 49.78 0.328045 43.92 0.248023C39.12 0.208013 34.3 0.34805 29.5 0.568109C25.46 0.748158 21.46 1.42834 17.58 2.62866C11.74 4.42915 7.1 7.73004 4.28 13.2915C2.52 16.7525 1.6 20.4735 1.04 24.2945C0.26 29.4359 0.06 34.6173 0 39.8187C0.16 43.2596 0.24 46.7205 0.46 50.1414C0.72 54.1825 1.34 58.1836 2.54 62.0646C4.04 66.8659 6.52 70.967 10.74 73.8678C13.46 75.7283 16.48 76.8686 19.66 77.6689C24.86 78.9692 30.18 79.3893 35.52 79.4693C39.56 79.5293 43.6 79.4693 47.64 79.3093C52.48 79.1292 57.28 78.5091 61.92 77.0887C67.74 75.2882 72.36 72.0073 75.16 66.4658C76.92 62.9649 77.86 59.2239 78.44 55.3829C79.2 50.3415 79.38 45.2601 79.38 40.1788C79.38 33.8371 79.18 27.5354 77.88 21.2937L77.86 21.2737ZM26.32 37.198C25.88 37.198 25.6 36.7178 25.82 36.3177L34.16 18.4729L42.5 36.3177C42.72 36.7178 42.44 37.198 42 37.198H37.24V45.6802H31.1V37.198H26.34H26.32ZM40.08 56.7432H31.64V56.023H40.08V56.7432ZM46.54 51.3418H38.1V50.6216H46.54V51.3418ZM53 45.9403H44.56V45.2201H53V45.9403ZM59.46 40.5389H51.02V39.8187H59.46V40.5389Z" fill="#595757"/>
</svg>
