<svg width="127" height="128" viewBox="0 0 127 128" fill="none" xmlns="http://www.w3.org/2000/svg">
<g clip-path="url(#clip0_177_1171)">
<path d="M0 63.9092C0.120722 55.5214 0.422528 47.1538 1.66999 38.8468C2.59553 32.6823 4.06432 26.6795 6.86106 21.0606C11.3882 12.0665 18.7925 6.73062 28.1484 3.84036C34.3657 1.92026 40.7438 0.828836 47.2025 0.525662C54.8885 0.161853 62.5946 -0.0604741 70.2806 0.000160656C79.6567 0.101219 88.9926 0.869259 98.0669 3.53719C106.095 5.88173 113.036 9.90384 117.885 17.0183C121.386 22.1521 123.318 27.9326 124.586 33.9758C126.698 44.0412 126.98 54.2481 127 64.4751C127 72.7012 126.718 80.9072 125.491 89.0524C124.565 95.2574 123.077 101.301 120.26 106.94C115.773 115.893 108.369 121.209 99.0729 124.099C91.6283 126.424 83.9625 127.394 76.2161 127.697C69.7575 127.94 63.2787 128.041 56.82 127.94C48.289 127.818 39.778 127.131 31.4683 125.029C26.398 123.756 21.549 121.916 17.2231 118.905C10.4827 114.216 6.47877 107.586 4.10456 99.8454C2.173 93.5798 1.1871 87.1121 0.784696 80.604C0.422528 75.0458 0.281686 69.4674 0.0402408 63.9092" fill="#2D5AA8"/>
</g>
<defs>
<clipPath id="clip0_177_1171">
<rect width="127" height="128" fill="white"/>
</clipPath>
</defs>
</svg>
