<svg width="368" height="307" viewBox="0 0 368 307" fill="none" xmlns="http://www.w3.org/2000/svg">
<mask id="mask0_766_87" style="mask-type:alpha" maskUnits="userSpaceOnUse" x="0" y="0" width="368" height="307">
<rect width="368" height="307" fill="#D9D9D9"/>
</mask>
<g mask="url(#mask0_766_87)">
<path d="M86.4341 74.63L69.9141 34.1C67.6041 28.36 66.1341 25.91 61.3041 25.7V25H83.7741V25.7C76.3541 25.91 77.0541 28.78 79.2241 34.1L90.9141 63.22L101.064 36.83C104.214 28.78 105.054 25.91 96.3041 25.7V25H112.474V25.7C106.384 25.91 105.194 28.5 101.974 36.76L87.2041 74.63H86.4341ZM138.697 61.61H139.397C139.187 68.54 134.777 74.7 124.487 74.7C114.757 74.7 106.847 67.49 106.847 56.57C106.847 45.16 114.057 38.44 123.717 38.44C134.007 38.44 139.327 44.95 139.327 55.45H115.877V56.57C115.877 66.72 118.747 73.44 126.727 73.44C134.147 73.44 138.487 68.26 138.697 61.61ZM123.717 39.28C118.257 39.28 116.087 44.39 115.877 54.75H130.577C130.507 45.44 129.247 39.28 123.717 39.28ZM167.621 38.44C172.871 38.44 175.671 41.66 175.671 45.93C175.671 49.43 173.501 52.65 170.421 52.65C168.461 52.65 166.431 51.25 165.801 49.78C168.041 46.98 169.231 44.46 169.231 42.64C169.231 40.4 167.411 39.91 165.871 39.91C161.111 39.91 157.541 45.16 156.001 53V67.35C156.001 72.18 156.001 73.3 161.181 73.3V74H143.891V73.3C147.531 73.3 147.531 72.18 147.531 67.35V45.79C147.531 42.64 147.531 40.26 143.261 39.84V39.14H155.931L155.861 50.69C157.751 42.99 161.671 38.44 167.621 38.44ZM186.254 33.89C183.244 33.89 180.794 31.51 180.794 28.43C180.794 25.42 183.244 23.04 186.254 23.04C189.474 23.04 191.854 25.35 191.854 28.43C191.854 31.51 189.474 33.89 186.254 33.89ZM194.234 74H178.414V73.3C182.124 73.3 182.124 72.18 182.124 67.35V45.79C182.124 42.64 182.124 40.26 177.784 39.84V39.14H190.524V67.35C190.524 72.18 190.524 73.3 194.234 73.3V74ZM217.42 39.98L209.72 39.84V64.13C209.72 66.58 209.86 68.75 210.35 69.94C210.7 70.85 211.47 71.69 213.08 71.69C214.69 71.69 215.6 70.78 216.09 69.73C216.65 68.54 216.72 66.58 216.72 64.06V59.51H217.42V64.06C217.42 66.86 217.35 69.8 215.81 71.76C213.92 74.14 211.26 74.7 209.09 74.7C205.87 74.7 203.91 73.65 202.86 71.83C201.88 70.08 201.39 67.42 201.39 63.22V39.84H196.91V39.14H199.36C205.31 39.14 208.11 34.59 208.95 26.33H209.72V39.14L217.42 39V39.98ZM256.767 60.91H257.467V66.65C257.467 69.45 257.187 70.92 256.137 72.18C255.157 73.37 253.267 74.63 250.397 74.63C247.527 74.63 246.057 73.51 245.217 72.32C244.377 71.06 243.957 69.59 243.957 66.65V64.9C243.117 67.63 239.897 74.7 231.287 74.7C227.927 74.7 225.407 73.86 223.657 72.11C221.837 70.5 221.067 68.12 221.067 65.6C221.067 62.8 222.047 60.91 223.587 59.51C227.367 56.15 236.327 54.4 243.957 53V47.33C243.957 40.89 240.737 39.21 236.957 39.21C234.227 39.21 232.197 39.91 230.867 41.24C230.307 41.73 230.027 42.22 230.027 43.13C230.027 44.74 231.077 47.26 233.457 50.06C232.757 51.74 230.587 53 228.347 53C225.337 53 223.447 50.2 223.447 47.26C223.447 42.64 228.627 38.44 237.517 38.44C245.987 38.44 252.217 41.59 252.217 49.71V66.72C252.217 68.26 252.287 69.45 252.637 70.15C252.917 70.85 253.477 71.48 254.457 71.48C255.507 71.48 256.067 70.78 256.347 70.15C256.697 69.45 256.767 68.4 256.767 66.65V60.91ZM235.137 71.27C240.037 71.27 243.397 66.65 243.957 61.96V53.63C238.497 54.82 233.387 56.22 231.357 58.95C230.097 60.28 229.747 62.1 229.747 64.13C229.747 66.02 229.957 67.63 230.657 68.96C231.427 70.29 232.827 71.27 235.137 71.27ZM278.064 74.7C273.934 74.7 270.714 73.37 268.754 72.18C266.444 70.71 265.534 69.8 264.764 69.8C263.434 69.8 263.084 72.18 262.944 74.7H262.244L262.594 58.74H263.224C263.434 70.22 271.904 73.86 278.064 73.86C280.794 73.86 283.524 73.3 285.204 71.97C286.324 71.06 287.024 69.73 287.024 68.12C287.024 63.22 281.564 61.68 274.844 60C267.214 58.04 262.734 55.66 262.734 49.36C262.734 45.72 264.414 42.92 267.004 41.1C269.804 39.28 273.164 38.51 276.314 38.51C280.724 38.51 283.594 40.05 285.344 41.24C286.814 42.15 287.724 42.99 288.354 42.99C289.264 42.99 289.404 41.8 289.474 38.51H290.174L290.384 52.37H289.754C289.054 45.79 284.574 39.28 276.384 39.28C274.004 39.28 271.274 39.84 269.244 41.1C267.844 41.94 266.654 43.41 266.654 45.37C266.654 49.43 271.414 50.83 277.364 52.3C285.484 54.26 292.064 56.22 292.064 63.92C292.064 67.98 289.964 70.85 286.674 72.67C284.574 73.79 281.564 74.7 278.064 74.7Z" fill="#2D5AA8"/>
<ellipse cx="177.988" cy="107" rx="3.91731" ry="4" fill="#2D5AA8"/>
<path d="M177.799 107.202C177.926 107.147 177.963 107.012 177.882 106.9C177.801 106.788 177.632 106.743 177.506 106.798L177.799 107.202ZM126.8 128.927C126.768 129.045 126.861 129.174 127.007 129.214L129.4 129.867C129.547 129.907 129.692 129.844 129.724 129.726C129.757 129.608 129.664 129.48 129.517 129.44L127.39 128.859L127.857 127.15C127.889 127.032 127.796 126.904 127.65 126.864C127.503 126.824 127.358 126.887 127.325 127.005L126.8 128.927ZM177.506 106.798L126.919 128.798L127.213 129.202L177.799 107.202L177.506 106.798Z" fill="#2D5AA8"/>
<path d="M178.842 107.202C178.715 107.147 178.678 107.012 178.759 106.9C178.84 106.788 179.008 106.743 179.135 106.798L178.842 107.202ZM229.841 128.927C229.873 129.045 229.78 129.174 229.633 129.214L227.241 129.867C227.094 129.907 226.949 129.844 226.916 129.726C226.884 129.608 226.977 129.48 227.124 129.44L229.251 128.859L228.784 127.15C228.751 127.032 228.844 126.904 228.991 126.864C229.138 126.824 229.283 126.887 229.315 127.005L229.841 128.927ZM179.135 106.798L229.722 128.798L229.428 129.202L178.842 107.202L179.135 106.798Z" fill="#2D5AA8"/>
<path d="M179.25 107C179.25 106.862 179.138 106.75 179 106.75C178.862 106.75 178.75 106.862 178.75 107L179.25 107ZM178.823 221.177C178.921 221.274 179.079 221.274 179.177 221.177L180.768 219.586C180.865 219.488 180.865 219.33 180.768 219.232C180.67 219.135 180.512 219.135 180.414 219.232L179 220.646L177.586 219.232C177.488 219.135 177.33 219.135 177.232 219.232C177.135 219.33 177.135 219.488 177.232 219.586L178.823 221.177ZM178.75 107L178.75 221L179.25 221L179.25 107L178.75 107Z" fill="#2D5AA8"/>
<path d="M43.8199 149.224C41.1039 149.224 39.5639 148.02 39.4939 145.906H41.4819C41.6219 147.11 42.3079 147.586 43.7359 147.586C44.7719 147.586 45.6819 147.222 45.6819 146.298C45.6819 145.318 44.7299 145.122 43.2039 144.772C41.4119 144.366 39.7739 143.89 39.7739 141.804C39.7739 139.83 41.3839 138.808 43.6099 138.808C45.8639 138.808 47.3199 139.914 47.4739 141.93H45.5279C45.4159 140.922 44.6319 140.418 43.5959 140.418C42.5039 140.418 41.7899 140.88 41.7899 141.594C41.7899 142.406 42.4899 142.644 43.9739 142.966C46.0319 143.414 47.7119 143.904 47.7119 146.06C47.7119 148.09 46.0739 149.224 43.8199 149.224ZM52.1443 149.21C49.7643 149.21 48.4203 147.544 48.4203 145.402C48.4203 143.274 49.8623 141.622 51.9623 141.622C54.2723 141.622 55.5043 143.386 55.5043 145.948H50.2963C50.4363 147.054 51.0523 147.74 52.1303 147.74C52.8723 147.74 53.3063 147.404 53.5163 146.858H55.3923C55.1263 148.132 53.9923 149.21 52.1443 149.21ZM51.9903 143.092C50.9823 143.092 50.4923 143.694 50.3243 144.632H53.5163C53.4603 143.722 52.8583 143.092 51.9903 143.092ZM56.4135 149V138.99H58.3175V149H56.4135ZM59.1511 143.134V141.818H60.1311V141.174C60.1311 139.424 61.4891 138.808 63.3231 139.004V140.474C62.4271 140.432 62.0351 140.544 62.0351 141.286V141.818H63.3231V143.134H62.0351V149H60.1311V143.134H59.1511ZM63.9155 146.354V144.716H67.7095V146.354H63.9155ZM70.6336 141.818V142.966H70.6756C71.1096 142.154 71.5996 141.734 72.4396 141.734C72.6496 141.734 72.7756 141.748 72.8876 141.79V143.456H72.8456C71.5996 143.33 70.7036 143.988 70.7036 145.5V149H68.7996V141.818H70.6336ZM76.8767 149.21C74.4967 149.21 73.1527 147.544 73.1527 145.402C73.1527 143.274 74.5947 141.622 76.6947 141.622C79.0047 141.622 80.2367 143.386 80.2367 145.948H75.0287C75.1687 147.054 75.7847 147.74 76.8627 147.74C77.6047 147.74 78.0387 147.404 78.2487 146.858H80.1247C79.8587 148.132 78.7247 149.21 76.8767 149.21ZM76.7227 143.092C75.7147 143.092 75.2247 143.694 75.0567 144.632H78.2487C78.1927 143.722 77.5907 143.092 76.7227 143.092ZM81.146 149V138.99H83.05V149H81.146ZM84.3035 149V141.818H86.2075V149H84.3035ZM84.3035 140.698V138.99H86.2075V140.698H84.3035ZM91.9564 149C91.8444 148.86 91.7744 148.524 91.7324 148.202H91.7044C91.3404 148.748 90.8224 149.168 89.5904 149.168C88.1204 149.168 87.0844 148.398 87.0844 146.97C87.0844 145.388 88.3724 144.884 89.9684 144.66C91.1584 144.492 91.7044 144.394 91.7044 143.848C91.7044 143.33 91.2984 142.994 90.5004 142.994C89.6044 142.994 89.1704 143.316 89.1144 144.002H87.4204C87.4764 142.742 88.4144 141.636 90.5144 141.636C92.6704 141.636 93.5384 142.602 93.5384 144.282V147.936C93.5384 148.482 93.6224 148.804 93.7904 148.93V149H91.9564ZM90.0524 147.838C91.1444 147.838 91.7464 147.166 91.7464 146.466V145.388C91.4104 145.584 90.8924 145.696 90.4164 145.808C89.4224 146.032 88.9324 146.256 88.9324 146.928C88.9324 147.6 89.3804 147.838 90.0524 147.838ZM96.6108 141.818V142.798H96.6528C97.1428 142.028 97.8008 141.622 98.7808 141.622C100.265 141.622 101.259 142.742 101.259 144.31V149H99.3548V144.59C99.3548 143.82 98.9068 143.274 98.1088 143.274C97.2688 143.274 96.6528 143.946 96.6528 144.926V149H94.7488V141.818H96.6108ZM105.764 149.21C103.496 149.21 102.082 147.558 102.082 145.416C102.082 143.274 103.482 141.622 105.666 141.622C107.528 141.622 108.676 142.7 108.928 144.254H107.066C106.94 143.624 106.45 143.148 105.75 143.148C104.602 143.148 104.014 144.03 104.014 145.416C104.014 146.774 104.56 147.684 105.722 147.684C106.492 147.684 107.038 147.278 107.164 146.466H108.998C108.872 147.992 107.682 149.21 105.764 149.21ZM113.203 149.21C110.823 149.21 109.479 147.544 109.479 145.402C109.479 143.274 110.921 141.622 113.021 141.622C115.331 141.622 116.563 143.386 116.563 145.948H111.355C111.495 147.054 112.111 147.74 113.189 147.74C113.931 147.74 114.365 147.404 114.575 146.858H116.451C116.185 148.132 115.051 149.21 113.203 149.21ZM113.049 143.092C112.041 143.092 111.551 143.694 111.383 144.632H114.575C114.519 143.722 113.917 143.092 113.049 143.092Z" fill="#1A1A1A"/>
<path d="M248.21 149V138.99H250.24V149H248.21ZM253.499 141.818V142.798H253.541C254.031 142.028 254.689 141.622 255.669 141.622C257.153 141.622 258.147 142.742 258.147 144.31V149H256.243V144.59C256.243 143.82 255.795 143.274 254.997 143.274C254.157 143.274 253.541 143.946 253.541 144.926V149H251.637V141.818H253.499ZM261.183 141.818V142.798H261.225C261.715 142.028 262.373 141.622 263.353 141.622C264.837 141.622 265.831 142.742 265.831 144.31V149H263.927V144.59C263.927 143.82 263.479 143.274 262.681 143.274C261.841 143.274 261.225 143.946 261.225 144.926V149H259.321V141.818H261.183ZM270.407 149.21C268.181 149.21 266.655 147.558 266.655 145.416C266.655 143.274 268.181 141.622 270.407 141.622C272.633 141.622 274.159 143.274 274.159 145.416C274.159 147.558 272.633 149.21 270.407 149.21ZM270.407 147.754C271.569 147.754 272.227 146.816 272.227 145.416C272.227 144.016 271.569 143.064 270.407 143.064C269.231 143.064 268.587 144.016 268.587 145.416C268.587 146.816 269.231 147.754 270.407 147.754ZM276.743 149L274.251 141.818H276.183L277.331 145.542C277.541 146.228 277.653 146.69 277.653 146.69H277.681C277.681 146.69 277.779 146.228 277.989 145.542L279.165 141.818H281.069L278.563 149H276.743ZM286.033 149C285.921 148.86 285.851 148.524 285.809 148.202H285.781C285.417 148.748 284.899 149.168 283.667 149.168C282.197 149.168 281.161 148.398 281.161 146.97C281.161 145.388 282.449 144.884 284.045 144.66C285.235 144.492 285.781 144.394 285.781 143.848C285.781 143.33 285.375 142.994 284.577 142.994C283.681 142.994 283.247 143.316 283.191 144.002H281.497C281.553 142.742 282.491 141.636 284.591 141.636C286.747 141.636 287.615 142.602 287.615 144.282V147.936C287.615 148.482 287.699 148.804 287.867 148.93V149H286.033ZM284.129 147.838C285.221 147.838 285.823 147.166 285.823 146.466V145.388C285.487 145.584 284.969 145.696 284.493 145.808C283.499 146.032 283.009 146.256 283.009 146.928C283.009 147.6 283.457 147.838 284.129 147.838ZM288.268 143.078V141.818H289.262V139.578H291.124V141.818H292.356V143.078H291.124V146.886C291.124 147.418 291.418 147.6 291.838 147.6C292.076 147.6 292.398 147.586 292.398 147.586V148.986C292.398 148.986 291.964 149.014 291.208 149.014C290.284 149.014 289.262 148.65 289.262 147.292V143.078H288.268ZM293.337 149V141.818H295.241V149H293.337ZM293.337 140.698V138.99H295.241V140.698H293.337ZM299.87 149.21C297.644 149.21 296.118 147.558 296.118 145.416C296.118 143.274 297.644 141.622 299.87 141.622C302.096 141.622 303.622 143.274 303.622 145.416C303.622 147.558 302.096 149.21 299.87 149.21ZM299.87 147.754C301.032 147.754 301.69 146.816 301.69 145.416C301.69 144.016 301.032 143.064 299.87 143.064C298.694 143.064 298.05 144.016 298.05 145.416C298.05 146.816 298.694 147.754 299.87 147.754ZM306.369 141.818V142.798H306.411C306.901 142.028 307.559 141.622 308.539 141.622C310.023 141.622 311.017 142.742 311.017 144.31V149H309.113V144.59C309.113 143.82 308.665 143.274 307.867 143.274C307.027 143.274 306.411 143.946 306.411 144.926V149H304.507V141.818H306.369Z" fill="#1A1A1A"/>
<path d="M40.2876 173.422V163.412H44.9636C46.7276 163.412 47.9176 164.518 47.9176 166.156C47.9176 167.374 47.3856 168.242 46.1816 168.634V168.676C47.2036 169.04 47.5256 169.74 47.6236 171.224C47.7356 172.834 47.9036 173.24 48.0856 173.366V173.422H46.7276C46.5176 173.24 46.4756 172.862 46.3636 171.182C46.2656 169.712 45.6776 169.194 44.3336 169.194H41.5476V173.422H40.2876ZM41.5476 164.504V168.172H44.5156C45.9156 168.172 46.6156 167.472 46.6156 166.338C46.6156 165.12 46.0556 164.504 44.5856 164.504H41.5476ZM52.3054 173.618C50.0934 173.618 48.8054 171.91 48.8054 169.81C48.8054 167.71 50.1774 166.002 52.2354 166.002C54.4054 166.002 55.5674 167.682 55.5674 170.076H49.9674C50.0514 171.546 50.8494 172.666 52.3054 172.666C53.3554 172.666 54.0554 172.162 54.3074 171.182H55.4134C55.0774 172.736 53.9434 173.618 52.3054 173.618ZM52.2354 166.898C50.8914 166.898 50.1634 167.906 49.9954 169.222H54.3494C54.2794 167.78 53.5374 166.898 52.2354 166.898ZM60.5575 173.422V163.412H61.6915V173.422H60.5575ZM56.0775 167.108V166.184H57.0715V165.022C57.0715 163.776 57.7855 163.328 58.9895 163.328C59.2275 163.328 59.4095 163.342 59.5635 163.356V164.322C59.3675 164.308 59.3115 164.308 59.1995 164.308C58.4715 164.308 58.2055 164.49 58.2055 165.078V166.184H59.5495V167.108H58.2055V173.422H57.0715V167.108H56.0775ZM66.3738 173.618C64.1618 173.618 62.8738 171.91 62.8738 169.81C62.8738 167.71 64.2458 166.002 66.3038 166.002C68.4738 166.002 69.6358 167.682 69.6358 170.076H64.0358C64.1198 171.546 64.9178 172.666 66.3738 172.666C67.4238 172.666 68.1238 172.162 68.3758 171.182H69.4818C69.1458 172.736 68.0118 173.618 66.3738 173.618ZM66.3038 166.898C64.9598 166.898 64.2318 167.906 64.0638 169.222H68.4178C68.3478 167.78 67.6058 166.898 66.3038 166.898ZM73.8386 173.618C71.6826 173.618 70.3386 171.91 70.3386 169.81C70.3386 167.71 71.6826 166.002 73.8386 166.002C75.5466 166.002 76.6806 166.982 76.9326 168.522H75.7846C75.6166 167.542 74.9306 166.94 73.8386 166.94C72.2986 166.94 71.5006 168.214 71.5006 169.81C71.5006 171.406 72.2986 172.666 73.8386 172.666C75.0146 172.666 75.7146 171.994 75.8126 170.874H76.9326C76.7786 172.61 75.6446 173.618 73.8386 173.618ZM77.5424 167.108V166.184H78.5924V163.902H79.7264V166.184H81.1264V167.108H79.7264V171.812C79.7264 172.316 79.9924 172.484 80.4544 172.484C80.6784 172.484 80.9304 172.428 81.0564 172.386H81.0984V173.366C80.8324 173.422 80.5244 173.464 80.1884 173.464C79.2644 173.464 78.5924 173.086 78.5924 172.064V167.108H77.5424ZM82.2973 173.422V166.184H83.4313V173.422H82.2973ZM82.2973 164.812V163.412H83.4313V164.812H82.2973ZM88.071 173.618C85.915 173.618 84.571 171.91 84.571 169.81C84.571 167.71 85.915 166.002 88.071 166.002C90.241 166.002 91.557 167.71 91.557 169.81C91.557 171.91 90.241 173.618 88.071 173.618ZM88.071 172.666C89.611 172.666 90.395 171.406 90.395 169.81C90.395 168.214 89.611 166.94 88.071 166.94C86.531 166.94 85.733 168.214 85.733 169.81C85.733 171.406 86.531 172.666 88.071 172.666ZM93.822 166.184V167.136H93.85C94.368 166.45 95.096 166.016 96.146 166.016C97.658 166.016 98.582 166.842 98.582 168.34V173.422H97.448V168.438C97.448 167.5 96.832 166.968 95.81 166.968C94.662 166.968 93.822 167.78 93.822 168.97V173.422H92.688V166.184H93.822ZM105.407 173.618C103.251 173.618 101.907 171.91 101.907 169.81C101.907 167.71 103.251 166.002 105.407 166.002C107.577 166.002 108.893 167.71 108.893 169.81C108.893 171.91 107.577 173.618 105.407 173.618ZM105.407 172.666C106.947 172.666 107.731 171.406 107.731 169.81C107.731 168.214 106.947 166.94 105.407 166.94C103.867 166.94 103.069 168.214 103.069 169.81C103.069 171.406 103.867 172.666 105.407 172.666ZM111.158 166.184V167.136H111.186C111.704 166.45 112.432 166.016 113.482 166.016C114.994 166.016 115.918 166.842 115.918 168.34V173.422H114.784V168.438C114.784 167.5 114.168 166.968 113.146 166.968C111.998 166.968 111.158 167.78 111.158 168.97V173.422H110.024V166.184H111.158ZM36.9455 189.422H35.8115V188.428H35.7835C35.2655 189.128 34.6495 189.59 33.5995 189.59C32.1155 189.59 31.1635 188.694 31.1635 187.196V182.184H32.2975V187.168C32.2975 188.106 32.8995 188.652 33.9215 188.652C35.0695 188.652 35.8115 187.784 35.8115 186.636V182.184H36.9455V189.422ZM39.613 182.184V183.136H39.641C40.159 182.45 40.887 182.016 41.937 182.016C43.449 182.016 44.373 182.842 44.373 184.34V189.422H43.239V184.438C43.239 183.5 42.623 182.968 41.601 182.968C40.453 182.968 39.613 183.78 39.613 184.97V189.422H38.479V182.184H39.613ZM45.8755 189.422V182.184H47.0095V189.422H45.8755ZM45.8755 180.812V179.412H47.0095V180.812H45.8755ZM50.3472 189.422L47.8132 182.184H49.0312L50.5292 186.776C50.7392 187.42 51.0052 188.302 51.0052 188.302H51.0332C51.0332 188.302 51.2992 187.406 51.5092 186.776L53.0352 182.184H54.2112L51.6072 189.422H50.3472ZM57.9656 189.618C55.7536 189.618 54.4656 187.91 54.4656 185.81C54.4656 183.71 55.8376 182.002 57.8956 182.002C60.0656 182.002 61.2276 183.682 61.2276 186.076H55.6276C55.7116 187.546 56.5096 188.666 57.9656 188.666C59.0156 188.666 59.7156 188.162 59.9676 187.182H61.0736C60.7376 188.736 59.6036 189.618 57.9656 189.618ZM57.8956 182.898C56.5516 182.898 55.8236 183.906 55.6556 185.222H60.0096C59.9396 183.78 59.1976 182.898 57.8956 182.898ZM63.4704 182.184V183.388H63.4984C63.9324 182.688 64.6884 182.1 65.6544 182.1C65.8644 182.1 65.9764 182.128 66.1164 182.184V183.276H66.0744C65.9064 183.22 65.7944 183.206 65.5704 183.206C64.4504 183.206 63.4704 184.046 63.4704 185.404V189.422H62.3364V182.184H63.4704ZM69.8792 189.632C67.8912 189.632 66.7852 188.694 66.6732 187.07H67.8352C67.9892 188.33 68.8292 188.68 69.9072 188.68C71.0972 188.68 71.5872 188.162 71.5872 187.49C71.5872 186.678 71.0272 186.468 69.6972 186.188C68.2692 185.894 66.9952 185.6 66.9952 184.018C66.9952 182.814 67.9192 182.03 69.5992 182.03C71.3912 182.03 72.2732 182.884 72.4412 184.298H71.2792C71.1672 183.346 70.6492 182.926 69.5712 182.926C68.5352 182.926 68.1152 183.388 68.1152 183.962C68.1152 184.746 68.8152 184.9 70.0612 185.152C71.5172 185.446 72.7352 185.768 72.7352 187.434C72.7352 188.89 71.5452 189.632 69.8792 189.632ZM79.5731 189.492C78.8311 189.492 78.4391 189.156 78.3271 188.414H78.3131C77.8791 188.974 77.1371 189.562 75.9051 189.562C74.5331 189.562 73.4551 188.918 73.4551 187.546C73.4551 185.838 74.7991 185.488 76.6051 185.208C77.6271 185.054 78.3411 184.956 78.3411 184.172C78.3411 183.36 77.7531 182.898 76.7171 182.898C75.5411 182.898 74.9531 183.402 74.9111 184.494H73.8191C73.8611 183.094 74.7851 182.044 76.7031 182.044C78.2431 182.044 79.3771 182.618 79.3771 184.34V187.784C79.3771 188.372 79.5171 188.694 80.1471 188.554H80.1891V189.38C80.0491 189.436 79.8671 189.492 79.5731 189.492ZM76.1571 188.694C77.6691 188.694 78.3551 187.588 78.3551 186.748V185.516C77.9771 185.754 77.3191 185.936 76.7031 186.048C75.5691 186.258 74.6591 186.454 74.6591 187.518C74.6591 188.484 75.4151 188.694 76.1571 188.694ZM81.0679 189.422V179.412H82.2019V189.422H81.0679ZM87.1501 179.412V183.136H87.1781C87.6961 182.45 88.4241 182.016 89.4741 182.016C90.9861 182.016 91.9101 182.842 91.9101 184.34V189.422H90.7761V184.438C90.7761 183.5 90.1601 182.968 89.1381 182.968C87.9901 182.968 87.1501 183.78 87.1501 184.97V189.422H86.0161V179.412H87.1501ZM99.1526 189.422H98.0186V188.428H97.9906C97.4726 189.128 96.8566 189.59 95.8066 189.59C94.3226 189.59 93.3706 188.694 93.3706 187.196V182.184H94.5046V187.168C94.5046 188.106 95.1066 188.652 96.1286 188.652C97.2766 188.652 98.0186 187.784 98.0186 186.636V182.184H99.1526V189.422ZM100.686 189.422V182.184H101.82V183.22H101.848C102.296 182.52 103.066 182.016 103.976 182.016C104.858 182.016 105.558 182.464 105.866 183.304H105.894C106.356 182.478 107.224 182.016 108.106 182.016C109.394 182.016 110.304 182.842 110.304 184.34V189.422H109.17V184.396C109.17 183.5 108.568 182.968 107.84 182.968C106.902 182.968 106.062 183.78 106.062 184.914V189.422H104.928V184.396C104.928 183.5 104.424 182.968 103.682 182.968C102.8 182.968 101.82 183.78 101.82 184.914V189.422H100.686ZM117.485 189.492C116.743 189.492 116.351 189.156 116.239 188.414H116.225C115.791 188.974 115.049 189.562 113.817 189.562C112.445 189.562 111.367 188.918 111.367 187.546C111.367 185.838 112.711 185.488 114.517 185.208C115.539 185.054 116.253 184.956 116.253 184.172C116.253 183.36 115.665 182.898 114.629 182.898C113.453 182.898 112.865 183.402 112.823 184.494H111.731C111.773 183.094 112.697 182.044 114.615 182.044C116.155 182.044 117.289 182.618 117.289 184.34V187.784C117.289 188.372 117.429 188.694 118.059 188.554H118.101V189.38C117.961 189.436 117.779 189.492 117.485 189.492ZM114.069 188.694C115.581 188.694 116.267 187.588 116.267 186.748V185.516C115.889 185.754 115.231 185.936 114.615 186.048C113.481 186.258 112.571 186.454 112.571 187.518C112.571 188.484 113.327 188.694 114.069 188.694ZM120.072 182.184V183.136H120.1C120.618 182.45 121.346 182.016 122.396 182.016C123.908 182.016 124.832 182.842 124.832 184.34V189.422H123.698V184.438C123.698 183.5 123.082 182.968 122.06 182.968C120.912 182.968 120.072 183.78 120.072 184.97V189.422H118.938V182.184H120.072ZM61.7768 205.422L59.2428 198.184H60.4608L61.9588 202.776C62.1688 203.42 62.4348 204.302 62.4348 204.302H62.4628C62.4628 204.302 62.7288 203.406 62.9388 202.776L64.4648 198.184H65.6408L63.0368 205.422H61.7768ZM71.9169 205.492C71.1749 205.492 70.7829 205.156 70.6709 204.414H70.6569C70.2229 204.974 69.4809 205.562 68.2489 205.562C66.8769 205.562 65.7989 204.918 65.7989 203.546C65.7989 201.838 67.1429 201.488 68.9489 201.208C69.9709 201.054 70.6849 200.956 70.6849 200.172C70.6849 199.36 70.0969 198.898 69.0609 198.898C67.8849 198.898 67.2969 199.402 67.2549 200.494H66.1629C66.2049 199.094 67.1289 198.044 69.0469 198.044C70.5869 198.044 71.7209 198.618 71.7209 200.34V203.784C71.7209 204.372 71.8609 204.694 72.4909 204.554H72.5329V205.38C72.3929 205.436 72.2109 205.492 71.9169 205.492ZM68.5009 204.694C70.0129 204.694 70.6989 203.588 70.6989 202.748V201.516C70.3209 201.754 69.6629 201.936 69.0469 202.048C67.9129 202.258 67.0029 202.454 67.0029 203.518C67.0029 204.484 67.7589 204.694 68.5009 204.694ZM73.4116 205.422V195.412H74.5456V205.422H73.4116ZM81.8713 205.422H80.7373V204.428H80.7093C80.1913 205.128 79.5753 205.59 78.5253 205.59C77.0413 205.59 76.0893 204.694 76.0893 203.196V198.184H77.2233V203.168C77.2233 204.106 77.8253 204.652 78.8473 204.652C79.9953 204.652 80.7373 203.784 80.7373 202.636V198.184H81.8713V205.422ZM86.4988 205.618C84.2868 205.618 82.9988 203.91 82.9988 201.81C82.9988 199.71 84.3708 198.002 86.4288 198.002C88.5988 198.002 89.7608 199.682 89.7608 202.076H84.1608C84.2448 203.546 85.0428 204.666 86.4988 204.666C87.5488 204.666 88.2488 204.162 88.5008 203.182H89.6068C89.2708 204.736 88.1368 205.618 86.4988 205.618ZM86.4288 198.898C85.0848 198.898 84.3568 199.906 84.1888 201.222H88.5428C88.4728 199.78 87.7308 198.898 86.4288 198.898ZM93.6136 205.632C91.6256 205.632 90.5196 204.694 90.4076 203.07H91.5696C91.7236 204.33 92.5636 204.68 93.6416 204.68C94.8316 204.68 95.3216 204.162 95.3216 203.49C95.3216 202.678 94.7616 202.468 93.4316 202.188C92.0036 201.894 90.7296 201.6 90.7296 200.018C90.7296 198.814 91.6536 198.03 93.3336 198.03C95.1256 198.03 96.0076 198.884 96.1756 200.298H95.0136C94.9016 199.346 94.3836 198.926 93.3056 198.926C92.2696 198.926 91.8496 199.388 91.8496 199.962C91.8496 200.746 92.5496 200.9 93.7956 201.152C95.2516 201.446 96.4696 201.768 96.4696 203.434C96.4696 204.89 95.2796 205.632 93.6136 205.632Z" fill="#1A1A1A"/>
<path d="M227.654 173.576C225.47 173.576 223.818 172.61 223.818 170.188V163.412H225.078V170.062C225.078 171.77 226.044 172.498 227.696 172.498C229.278 172.498 230.23 171.77 230.23 170.062V163.412H231.49V170.188C231.49 172.61 229.796 173.576 227.654 173.576ZM234.167 166.184V167.136H234.195C234.713 166.45 235.441 166.016 236.491 166.016C238.003 166.016 238.927 166.842 238.927 168.34V173.422H237.793V168.438C237.793 167.5 237.177 166.968 236.155 166.968C235.007 166.968 234.167 167.78 234.167 168.97V173.422H233.033V166.184H234.167ZM243.229 173.632C241.255 173.632 240.023 172.148 240.023 169.824C240.023 167.416 241.409 166.016 243.201 166.016C244.223 166.016 245.007 166.52 245.469 167.206H245.497V163.412H246.631V173.422H245.497V172.54H245.469C244.923 173.24 244.251 173.632 243.229 173.632ZM243.271 172.68C244.881 172.68 245.567 171.476 245.567 169.838C245.567 168.158 244.755 166.982 243.257 166.982C241.885 166.982 241.185 168.214 241.185 169.838C241.185 171.476 241.885 172.68 243.271 172.68ZM251.261 173.618C249.049 173.618 247.761 171.91 247.761 169.81C247.761 167.71 249.133 166.002 251.191 166.002C253.361 166.002 254.523 167.682 254.523 170.076H248.923C249.007 171.546 249.805 172.666 251.261 172.666C252.311 172.666 253.011 172.162 253.263 171.182H254.369C254.033 172.736 252.899 173.618 251.261 173.618ZM251.191 166.898C249.847 166.898 249.119 167.906 248.951 169.222H253.305C253.235 167.78 252.493 166.898 251.191 166.898ZM256.766 166.184V167.388H256.794C257.228 166.688 257.984 166.1 258.95 166.1C259.16 166.1 259.272 166.128 259.412 166.184V167.276H259.37C259.202 167.22 259.09 167.206 258.866 167.206C257.746 167.206 256.766 168.046 256.766 169.404V173.422H255.632V166.184H256.766ZM263.175 173.632C261.187 173.632 260.081 172.694 259.969 171.07H261.131C261.285 172.33 262.125 172.68 263.203 172.68C264.393 172.68 264.883 172.162 264.883 171.49C264.883 170.678 264.323 170.468 262.993 170.188C261.565 169.894 260.291 169.6 260.291 168.018C260.291 166.814 261.215 166.03 262.895 166.03C264.687 166.03 265.569 166.884 265.737 168.298H264.575C264.463 167.346 263.945 166.926 262.867 166.926C261.831 166.926 261.411 167.388 261.411 167.962C261.411 168.746 262.111 168.9 263.357 169.152C264.813 169.446 266.031 169.768 266.031 171.434C266.031 172.89 264.841 173.632 263.175 173.632ZM266.518 167.108V166.184H267.568V163.902H268.702V166.184H270.102V167.108H268.702V171.812C268.702 172.316 268.968 172.484 269.43 172.484C269.654 172.484 269.906 172.428 270.032 172.386H270.074V173.366C269.808 173.422 269.5 173.464 269.164 173.464C268.24 173.464 267.568 173.086 267.568 172.064V167.108H266.518ZM276.957 173.492C276.215 173.492 275.823 173.156 275.711 172.414H275.697C275.263 172.974 274.521 173.562 273.289 173.562C271.917 173.562 270.839 172.918 270.839 171.546C270.839 169.838 272.183 169.488 273.989 169.208C275.011 169.054 275.725 168.956 275.725 168.172C275.725 167.36 275.137 166.898 274.101 166.898C272.925 166.898 272.337 167.402 272.295 168.494H271.203C271.245 167.094 272.169 166.044 274.087 166.044C275.627 166.044 276.761 166.618 276.761 168.34V171.784C276.761 172.372 276.901 172.694 277.531 172.554H277.573V173.38C277.433 173.436 277.251 173.492 276.957 173.492ZM273.541 172.694C275.053 172.694 275.739 171.588 275.739 170.748V169.516C275.361 169.754 274.703 169.936 274.087 170.048C272.953 170.258 272.043 170.454 272.043 171.518C272.043 172.484 272.799 172.694 273.541 172.694ZM279.544 166.184V167.136H279.572C280.09 166.45 280.818 166.016 281.868 166.016C283.38 166.016 284.304 166.842 284.304 168.34V173.422H283.17V168.438C283.17 167.5 282.554 166.968 281.532 166.968C280.384 166.968 279.544 167.78 279.544 168.97V173.422H278.41V166.184H279.544ZM288.606 173.632C286.632 173.632 285.4 172.148 285.4 169.824C285.4 167.416 286.786 166.016 288.578 166.016C289.6 166.016 290.384 166.52 290.846 167.206H290.874V163.412H292.008V173.422H290.874V172.54H290.846C290.3 173.24 289.628 173.632 288.606 173.632ZM288.648 172.68C290.258 172.68 290.944 171.476 290.944 169.838C290.944 168.158 290.132 166.982 288.634 166.982C287.262 166.982 286.562 168.214 286.562 169.838C286.562 171.476 287.262 172.68 288.648 172.68ZM293.544 173.422V166.184H294.678V173.422H293.544ZM293.544 164.812V163.412H294.678V164.812H293.544ZM297.358 166.184V167.136H297.386C297.904 166.45 298.632 166.016 299.682 166.016C301.194 166.016 302.118 166.842 302.118 168.34V173.422H300.984V168.438C300.984 167.5 300.368 166.968 299.346 166.968C298.198 166.968 297.358 167.78 297.358 168.97V173.422H296.224V166.184H297.358ZM306.505 175.83C304.629 175.83 303.565 175.074 303.439 173.828H304.489C304.601 174.626 305.357 174.934 306.477 174.934C307.807 174.934 308.549 174.332 308.549 173.072V172.05H308.521C307.989 172.736 307.415 173.17 306.379 173.17C304.503 173.17 303.215 171.672 303.215 169.586C303.215 167.332 304.629 166.016 306.309 166.016C307.359 166.016 308.031 166.422 308.521 167.108H308.549V166.184H309.683V173.03C309.683 174.934 308.423 175.83 306.505 175.83ZM306.435 172.218C308.101 172.218 308.633 171.056 308.633 169.53C308.633 167.948 307.961 166.968 306.421 166.968C305.063 166.968 304.377 168.032 304.377 169.6C304.377 171.182 305.091 172.218 306.435 172.218ZM319.135 173.492C318.393 173.492 318.001 173.156 317.889 172.414H317.875C317.441 172.974 316.699 173.562 315.467 173.562C314.095 173.562 313.017 172.918 313.017 171.546C313.017 169.838 314.361 169.488 316.167 169.208C317.189 169.054 317.903 168.956 317.903 168.172C317.903 167.36 317.315 166.898 316.279 166.898C315.103 166.898 314.515 167.402 314.473 168.494H313.381C313.423 167.094 314.347 166.044 316.265 166.044C317.805 166.044 318.939 166.618 318.939 168.34V171.784C318.939 172.372 319.079 172.694 319.709 172.554H319.751V173.38C319.611 173.436 319.429 173.492 319.135 173.492ZM315.719 172.694C317.231 172.694 317.917 171.588 317.917 170.748V169.516C317.539 169.754 316.881 169.936 316.265 170.048C315.131 170.258 314.221 170.454 314.221 171.518C314.221 172.484 314.977 172.694 315.719 172.694ZM321.721 166.184V167.136H321.749C322.267 166.45 322.995 166.016 324.045 166.016C325.557 166.016 326.481 166.842 326.481 168.34V173.422H325.347V168.438C325.347 167.5 324.731 166.968 323.709 166.968C322.561 166.968 321.721 167.78 321.721 168.97V173.422H320.587V166.184H321.721ZM330.784 173.632C328.81 173.632 327.578 172.148 327.578 169.824C327.578 167.416 328.964 166.016 330.756 166.016C331.778 166.016 332.562 166.52 333.024 167.206H333.052V163.412H334.186V173.422H333.052V172.54H333.024C332.478 173.24 331.806 173.632 330.784 173.632ZM330.826 172.68C332.436 172.68 333.122 171.476 333.122 169.838C333.122 168.158 332.31 166.982 330.812 166.982C329.44 166.982 328.74 168.214 328.74 169.838C328.74 171.476 329.44 172.68 330.826 172.68ZM221.613 189.492C220.871 189.492 220.479 189.156 220.367 188.414H220.353C219.919 188.974 219.177 189.562 217.945 189.562C216.573 189.562 215.495 188.918 215.495 187.546C215.495 185.838 216.839 185.488 218.645 185.208C219.667 185.054 220.381 184.956 220.381 184.172C220.381 183.36 219.793 182.898 218.757 182.898C217.581 182.898 216.993 183.402 216.951 184.494H215.859C215.901 183.094 216.825 182.044 218.743 182.044C220.283 182.044 221.417 182.618 221.417 184.34V187.784C221.417 188.372 221.557 188.694 222.187 188.554H222.229V189.38C222.089 189.436 221.907 189.492 221.613 189.492ZM218.197 188.694C219.709 188.694 220.395 187.588 220.395 186.748V185.516C220.017 185.754 219.359 185.936 218.743 186.048C217.609 186.258 216.699 186.454 216.699 187.518C216.699 188.484 217.455 188.694 218.197 188.694ZM224.2 182.184V183.136H224.228C224.746 182.45 225.474 182.016 226.524 182.016C228.036 182.016 228.96 182.842 228.96 184.34V189.422H227.826V184.438C227.826 183.5 227.21 182.968 226.188 182.968C225.04 182.968 224.2 183.78 224.2 184.97V189.422H223.066V182.184H224.2ZM236.146 189.492C235.404 189.492 235.012 189.156 234.9 188.414H234.886C234.452 188.974 233.71 189.562 232.478 189.562C231.106 189.562 230.028 188.918 230.028 187.546C230.028 185.838 231.372 185.488 233.178 185.208C234.2 185.054 234.914 184.956 234.914 184.172C234.914 183.36 234.326 182.898 233.29 182.898C232.114 182.898 231.526 183.402 231.484 184.494H230.392C230.434 183.094 231.358 182.044 233.276 182.044C234.816 182.044 235.95 182.618 235.95 184.34V187.784C235.95 188.372 236.09 188.694 236.72 188.554H236.762V189.38C236.622 189.436 236.44 189.492 236.146 189.492ZM232.73 188.694C234.242 188.694 234.928 187.588 234.928 186.748V185.516C234.55 185.754 233.892 185.936 233.276 186.048C232.142 186.258 231.232 186.454 231.232 187.518C231.232 188.484 231.988 188.694 232.73 188.694ZM237.641 189.422V179.412H238.775V189.422H237.641ZM241.285 191.816C240.851 191.816 240.571 191.788 240.263 191.662V190.654H240.319C240.473 190.738 240.711 190.808 241.089 190.808C241.565 190.808 241.887 190.626 242.167 189.926L242.447 189.212L239.619 182.184H240.851L242.559 186.692C242.783 187.294 243.049 188.106 243.049 188.106H243.077C243.077 188.106 243.329 187.294 243.553 186.692L245.205 182.184H246.409L243.315 190.01C242.727 191.508 242.167 191.816 241.285 191.816ZM246.78 189.422V188.526L250.812 183.22V183.178H247.018V182.184H252.394V182.856L248.236 188.344V188.386H252.548V189.422H246.78ZM253.664 189.422V182.184H254.798V189.422H253.664ZM253.664 180.812V179.412H254.798V180.812H253.664ZM257.477 182.184V183.136H257.505C258.023 182.45 258.751 182.016 259.801 182.016C261.313 182.016 262.237 182.842 262.237 184.34V189.422H261.103V184.438C261.103 183.5 260.487 182.968 259.465 182.968C258.317 182.968 257.477 183.78 257.477 184.97V189.422H256.343V182.184H257.477ZM266.624 191.83C264.748 191.83 263.684 191.074 263.558 189.828H264.608C264.72 190.626 265.476 190.934 266.596 190.934C267.926 190.934 268.668 190.332 268.668 189.072V188.05H268.64C268.108 188.736 267.534 189.17 266.498 189.17C264.622 189.17 263.334 187.672 263.334 185.586C263.334 183.332 264.748 182.016 266.428 182.016C267.478 182.016 268.15 182.422 268.64 183.108H268.668V182.184H269.802V189.03C269.802 190.934 268.542 191.83 266.624 191.83ZM266.554 188.218C268.22 188.218 268.752 187.056 268.752 185.53C268.752 183.948 268.08 182.968 266.54 182.968C265.182 182.968 264.496 184.032 264.496 185.6C264.496 187.182 265.21 188.218 266.554 188.218ZM273.57 189.422V182.184H274.704V183.22H274.732C275.18 182.52 275.95 182.016 276.86 182.016C277.742 182.016 278.442 182.464 278.75 183.304H278.778C279.24 182.478 280.108 182.016 280.99 182.016C282.278 182.016 283.188 182.842 283.188 184.34V189.422H282.054V184.396C282.054 183.5 281.452 182.968 280.724 182.968C279.786 182.968 278.946 183.78 278.946 184.914V189.422H277.812V184.396C277.812 183.5 277.308 182.968 276.566 182.968C275.684 182.968 274.704 183.78 274.704 184.914V189.422H273.57ZM290.369 189.492C289.627 189.492 289.235 189.156 289.123 188.414H289.109C288.675 188.974 287.933 189.562 286.701 189.562C285.329 189.562 284.251 188.918 284.251 187.546C284.251 185.838 285.595 185.488 287.401 185.208C288.423 185.054 289.137 184.956 289.137 184.172C289.137 183.36 288.549 182.898 287.513 182.898C286.337 182.898 285.749 183.402 285.707 184.494H284.615C284.657 183.094 285.581 182.044 287.499 182.044C289.039 182.044 290.173 182.618 290.173 184.34V187.784C290.173 188.372 290.313 188.694 290.943 188.554H290.985V189.38C290.845 189.436 290.663 189.492 290.369 189.492ZM286.953 188.694C288.465 188.694 289.151 187.588 289.151 186.748V185.516C288.773 185.754 288.115 185.936 287.499 186.048C286.365 186.258 285.455 186.454 285.455 187.518C285.455 188.484 286.211 188.694 286.953 188.694ZM291.29 191.48C291.038 191.48 290.842 191.452 290.66 191.424V190.5H290.688C290.828 190.528 290.954 190.542 291.08 190.542C291.57 190.542 291.822 190.332 291.822 189.842V182.184H292.956V189.898C292.956 191.242 292.214 191.48 291.29 191.48ZM291.822 180.812V179.412H292.956V180.812H291.822ZM297.595 189.618C295.439 189.618 294.095 187.91 294.095 185.81C294.095 183.71 295.439 182.002 297.595 182.002C299.765 182.002 301.081 183.71 301.081 185.81C301.081 187.91 299.765 189.618 297.595 189.618ZM297.595 188.666C299.135 188.666 299.919 187.406 299.919 185.81C299.919 184.214 299.135 182.94 297.595 182.94C296.055 182.94 295.257 184.214 295.257 185.81C295.257 187.406 296.055 188.666 297.595 188.666ZM303.346 182.184V183.388H303.374C303.808 182.688 304.564 182.1 305.53 182.1C305.74 182.1 305.852 182.128 305.992 182.184V183.276H305.95C305.782 183.22 305.67 183.206 305.446 183.206C304.326 183.206 303.346 184.046 303.346 185.404V189.422H302.212V182.184H303.346ZM311.984 189.632C309.996 189.632 308.89 188.694 308.778 187.07H309.94C310.094 188.33 310.934 188.68 312.012 188.68C313.202 188.68 313.692 188.162 313.692 187.49C313.692 186.678 313.132 186.468 311.802 186.188C310.374 185.894 309.1 185.6 309.1 184.018C309.1 182.814 310.024 182.03 311.704 182.03C313.496 182.03 314.378 182.884 314.546 184.298H313.384C313.272 183.346 312.754 182.926 311.676 182.926C310.64 182.926 310.22 183.388 310.22 183.962C310.22 184.746 310.92 184.9 312.166 185.152C313.622 185.446 314.84 185.768 314.84 187.434C314.84 188.89 313.65 189.632 311.984 189.632ZM319.156 189.618C317 189.618 315.656 187.91 315.656 185.81C315.656 183.71 317 182.002 319.156 182.002C321.326 182.002 322.642 183.71 322.642 185.81C322.642 187.91 321.326 189.618 319.156 189.618ZM319.156 188.666C320.696 188.666 321.48 187.406 321.48 185.81C321.48 184.214 320.696 182.94 319.156 182.94C317.616 182.94 316.818 184.214 316.818 185.81C316.818 187.406 317.616 188.666 319.156 188.666ZM326.867 189.618C324.711 189.618 323.367 187.91 323.367 185.81C323.367 183.71 324.711 182.002 326.867 182.002C328.575 182.002 329.709 182.982 329.961 184.522H328.813C328.645 183.542 327.959 182.94 326.867 182.94C325.327 182.94 324.529 184.214 324.529 185.81C324.529 187.406 325.327 188.666 326.867 188.666C328.043 188.666 328.743 187.994 328.841 186.874H329.961C329.807 188.61 328.673 189.618 326.867 189.618ZM331.033 189.422V182.184H332.167V189.422H331.033ZM331.033 180.812V179.412H332.167V180.812H331.033ZM339.396 189.492C338.654 189.492 338.262 189.156 338.15 188.414H338.136C337.702 188.974 336.96 189.562 335.728 189.562C334.356 189.562 333.278 188.918 333.278 187.546C333.278 185.838 334.622 185.488 336.428 185.208C337.45 185.054 338.164 184.956 338.164 184.172C338.164 183.36 337.576 182.898 336.54 182.898C335.364 182.898 334.776 183.402 334.734 184.494H333.642C333.684 183.094 334.608 182.044 336.526 182.044C338.066 182.044 339.2 182.618 339.2 184.34V187.784C339.2 188.372 339.34 188.694 339.97 188.554H340.012V189.38C339.872 189.436 339.69 189.492 339.396 189.492ZM335.98 188.694C337.492 188.694 338.178 187.588 338.178 186.748V185.516C337.8 185.754 337.142 185.936 336.526 186.048C335.392 186.258 334.482 186.454 334.482 187.518C334.482 188.484 335.238 188.694 335.98 188.694ZM340.891 189.422V179.412H342.025V189.422H340.891ZM261.033 205.422V198.184H262.167V205.422H261.033ZM261.033 196.812V195.412H262.167V196.812H261.033ZM266.456 205.632C264.468 205.632 263.362 204.694 263.25 203.07H264.412C264.566 204.33 265.406 204.68 266.484 204.68C267.674 204.68 268.164 204.162 268.164 203.49C268.164 202.678 267.604 202.468 266.274 202.188C264.846 201.894 263.572 201.6 263.572 200.018C263.572 198.814 264.496 198.03 266.176 198.03C267.968 198.03 268.85 198.884 269.018 200.298H267.856C267.744 199.346 267.226 198.926 266.148 198.926C265.112 198.926 264.692 199.388 264.692 199.962C264.692 200.746 265.392 200.9 266.638 201.152C268.094 201.446 269.312 201.768 269.312 203.434C269.312 204.89 268.122 205.632 266.456 205.632ZM273.142 205.632C271.154 205.632 270.048 204.694 269.936 203.07H271.098C271.252 204.33 272.092 204.68 273.17 204.68C274.36 204.68 274.85 204.162 274.85 203.49C274.85 202.678 274.29 202.468 272.96 202.188C271.532 201.894 270.258 201.6 270.258 200.018C270.258 198.814 271.182 198.03 272.862 198.03C274.654 198.03 275.536 198.884 275.704 200.298H274.542C274.43 199.346 273.912 198.926 272.834 198.926C271.798 198.926 271.378 199.388 271.378 199.962C271.378 200.746 272.078 200.9 273.324 201.152C274.78 201.446 275.998 201.768 275.998 203.434C275.998 204.89 274.808 205.632 273.142 205.632ZM282.823 205.422H281.689V204.428H281.661C281.143 205.128 280.527 205.59 279.477 205.59C277.993 205.59 277.041 204.694 277.041 203.196V198.184H278.175V203.168C278.175 204.106 278.777 204.652 279.799 204.652C280.947 204.652 281.689 203.784 281.689 202.636V198.184H282.823V205.422ZM287.451 205.618C285.239 205.618 283.951 203.91 283.951 201.81C283.951 199.71 285.323 198.002 287.381 198.002C289.551 198.002 290.713 199.682 290.713 202.076H285.113C285.197 203.546 285.995 204.666 287.451 204.666C288.501 204.666 289.201 204.162 289.453 203.182H290.559C290.223 204.736 289.089 205.618 287.451 205.618ZM287.381 198.898C286.037 198.898 285.309 199.906 285.141 201.222H289.495C289.425 199.78 288.683 198.898 287.381 198.898ZM294.566 205.632C292.578 205.632 291.472 204.694 291.36 203.07H292.522C292.676 204.33 293.516 204.68 294.594 204.68C295.784 204.68 296.274 204.162 296.274 203.49C296.274 202.678 295.714 202.468 294.384 202.188C292.956 201.894 291.682 201.6 291.682 200.018C291.682 198.814 292.606 198.03 294.286 198.03C296.078 198.03 296.96 198.884 297.128 200.298H295.966C295.854 199.346 295.336 198.926 294.258 198.926C293.222 198.926 292.802 199.388 292.802 199.962C292.802 200.746 293.502 200.9 294.748 201.152C296.204 201.446 297.422 201.768 297.422 203.434C297.422 204.89 296.232 205.632 294.566 205.632Z" fill="#1A1A1A"/>
<path d="M153.21 252V241.99H157.606C158.768 241.99 159.636 242.326 160.224 242.928C160.784 243.502 161.12 244.286 161.12 245.21C161.12 247.1 159.874 248.374 157.774 248.374H155.31V252H153.21ZM155.31 243.754V246.722H157.41C158.474 246.722 159.034 246.134 159.034 245.224C159.034 244.286 158.446 243.754 157.438 243.754H155.31ZM163.804 244.818V245.966H163.846C164.28 245.154 164.77 244.734 165.61 244.734C165.82 244.734 165.946 244.748 166.058 244.79V246.456H166.016C164.77 246.33 163.874 246.988 163.874 248.5V252H161.97V244.818H163.804ZM171.196 252C171.084 251.86 171.014 251.524 170.972 251.202H170.944C170.58 251.748 170.062 252.168 168.83 252.168C167.36 252.168 166.324 251.398 166.324 249.97C166.324 248.388 167.612 247.884 169.208 247.66C170.398 247.492 170.944 247.394 170.944 246.848C170.944 246.33 170.538 245.994 169.74 245.994C168.844 245.994 168.41 246.316 168.354 247.002H166.66C166.716 245.742 167.654 244.636 169.754 244.636C171.91 244.636 172.778 245.602 172.778 247.282V250.936C172.778 251.482 172.862 251.804 173.03 251.93V252H171.196ZM169.292 250.838C170.384 250.838 170.986 250.166 170.986 249.466V248.388C170.65 248.584 170.132 248.696 169.656 248.808C168.662 249.032 168.172 249.256 168.172 249.928C168.172 250.6 168.62 250.838 169.292 250.838ZM177.32 252.21C175.052 252.21 173.638 250.558 173.638 248.416C173.638 246.274 175.038 244.622 177.222 244.622C179.084 244.622 180.232 245.7 180.484 247.254H178.622C178.496 246.624 178.006 246.148 177.306 246.148C176.158 246.148 175.57 247.03 175.57 248.416C175.57 249.774 176.116 250.684 177.278 250.684C178.048 250.684 178.594 250.278 178.72 249.466H180.554C180.428 250.992 179.238 252.21 177.32 252.21ZM180.965 246.078V244.818H181.959V242.578H183.821V244.818H185.053V246.078H183.821V249.886C183.821 250.418 184.115 250.6 184.535 250.6C184.773 250.6 185.095 250.586 185.095 250.586V251.986C185.095 251.986 184.661 252.014 183.905 252.014C182.981 252.014 181.959 251.65 181.959 250.292V246.078H180.965ZM186.033 252V244.818H187.937V252H186.033ZM186.033 243.698V241.99H187.937V243.698H186.033ZM192.496 252.21C190.228 252.21 188.814 250.558 188.814 248.416C188.814 246.274 190.214 244.622 192.398 244.622C194.26 244.622 195.408 245.7 195.66 247.254H193.798C193.672 246.624 193.182 246.148 192.482 246.148C191.334 246.148 190.746 247.03 190.746 248.416C190.746 249.774 191.292 250.684 192.454 250.684C193.224 250.684 193.77 250.278 193.896 249.466H195.73C195.604 250.992 194.414 252.21 192.496 252.21ZM199.934 252.21C197.554 252.21 196.21 250.544 196.21 248.402C196.21 246.274 197.652 244.622 199.752 244.622C202.062 244.622 203.294 246.386 203.294 248.948H198.086C198.226 250.054 198.842 250.74 199.92 250.74C200.662 250.74 201.096 250.404 201.306 249.858H203.182C202.916 251.132 201.782 252.21 199.934 252.21ZM199.78 246.092C198.772 246.092 198.282 246.694 198.114 247.632H201.306C201.25 246.722 200.648 246.092 199.78 246.092Z" fill="#1A1A1A"/>
<path d="M121.04 276V265.99H127.83V267.096H122.3V270.218H126.906V271.282H122.3V276H121.04ZM128.965 276V268.762H130.099V276H128.965ZM128.965 267.39V265.99H130.099V267.39H128.965ZM132.779 268.762V269.714H132.807C133.325 269.028 134.053 268.594 135.103 268.594C136.615 268.594 137.539 269.42 137.539 270.918V276H136.405V271.016C136.405 270.078 135.789 269.546 134.767 269.546C133.619 269.546 132.779 270.358 132.779 271.548V276H131.645V268.762H132.779ZM141.841 276.21C139.867 276.21 138.635 274.726 138.635 272.402C138.635 269.994 140.021 268.594 141.813 268.594C142.835 268.594 143.619 269.098 144.081 269.784H144.109V265.99H145.243V276H144.109V275.118H144.081C143.535 275.818 142.863 276.21 141.841 276.21ZM141.883 275.258C143.493 275.258 144.179 274.054 144.179 272.416C144.179 270.736 143.367 269.56 141.869 269.56C140.497 269.56 139.797 270.792 139.797 272.416C139.797 274.054 140.497 275.258 141.883 275.258ZM146.78 276V268.762H147.914V276H146.78ZM146.78 267.39V265.99H147.914V267.39H146.78ZM150.593 268.762V269.714H150.621C151.139 269.028 151.867 268.594 152.917 268.594C154.429 268.594 155.353 269.42 155.353 270.918V276H154.219V271.016C154.219 270.078 153.603 269.546 152.581 269.546C151.433 269.546 150.593 270.358 150.593 271.548V276H149.459V268.762H150.593ZM159.74 278.408C157.864 278.408 156.8 277.652 156.674 276.406H157.724C157.836 277.204 158.592 277.512 159.712 277.512C161.042 277.512 161.784 276.91 161.784 275.65V274.628H161.756C161.224 275.314 160.65 275.748 159.614 275.748C157.738 275.748 156.45 274.25 156.45 272.164C156.45 269.91 157.864 268.594 159.544 268.594C160.594 268.594 161.266 269 161.756 269.686H161.784V268.762H162.918V275.608C162.918 277.512 161.658 278.408 159.74 278.408ZM159.67 274.796C161.336 274.796 161.868 273.634 161.868 272.108C161.868 270.526 161.196 269.546 159.656 269.546C158.298 269.546 157.612 270.61 157.612 272.178C157.612 273.76 158.326 274.796 159.67 274.796ZM169.43 276.21C167.442 276.21 166.336 275.272 166.224 273.648H167.386C167.54 274.908 168.38 275.258 169.458 275.258C170.648 275.258 171.138 274.74 171.138 274.068C171.138 273.256 170.578 273.046 169.248 272.766C167.82 272.472 166.546 272.178 166.546 270.596C166.546 269.392 167.47 268.608 169.15 268.608C170.942 268.608 171.824 269.462 171.992 270.876H170.83C170.718 269.924 170.2 269.504 169.122 269.504C168.086 269.504 167.666 269.966 167.666 270.54C167.666 271.324 168.366 271.478 169.612 271.73C171.068 272.024 172.286 272.346 172.286 274.012C172.286 275.468 171.096 276.21 169.43 276.21ZM176.602 276.196C174.446 276.196 173.102 274.488 173.102 272.388C173.102 270.288 174.446 268.58 176.602 268.58C178.772 268.58 180.088 270.288 180.088 272.388C180.088 274.488 178.772 276.196 176.602 276.196ZM176.602 275.244C178.142 275.244 178.926 273.984 178.926 272.388C178.926 270.792 178.142 269.518 176.602 269.518C175.062 269.518 174.264 270.792 174.264 272.388C174.264 273.984 175.062 275.244 176.602 275.244ZM181.261 276V265.99H182.395V276H181.261ZM189.721 276H188.587V275.006H188.559C188.041 275.706 187.425 276.168 186.375 276.168C184.891 276.168 183.939 275.272 183.939 273.774V268.762H185.073V273.746C185.073 274.684 185.675 275.23 186.697 275.23C187.845 275.23 188.587 274.362 188.587 273.214V268.762H189.721V276ZM190.792 269.686V268.762H191.842V266.48H192.976V268.762H194.376V269.686H192.976V274.39C192.976 274.894 193.242 275.062 193.704 275.062C193.928 275.062 194.18 275.006 194.306 274.964H194.348V275.944C194.082 276 193.774 276.042 193.438 276.042C192.514 276.042 191.842 275.664 191.842 274.642V269.686H190.792ZM195.547 276V268.762H196.681V276H195.547ZM195.547 267.39V265.99H196.681V267.39H195.547ZM201.321 276.196C199.165 276.196 197.821 274.488 197.821 272.388C197.821 270.288 199.165 268.58 201.321 268.58C203.491 268.58 204.807 270.288 204.807 272.388C204.807 274.488 203.491 276.196 201.321 276.196ZM201.321 275.244C202.861 275.244 203.645 273.984 203.645 272.388C203.645 270.792 202.861 269.518 201.321 269.518C199.781 269.518 198.983 270.792 198.983 272.388C198.983 273.984 199.781 275.244 201.321 275.244ZM207.072 268.762V269.714H207.1C207.618 269.028 208.346 268.594 209.396 268.594C210.908 268.594 211.832 269.42 211.832 270.918V276H210.698V271.016C210.698 270.078 210.082 269.546 209.06 269.546C207.912 269.546 207.072 270.358 207.072 271.548V276H205.938V268.762H207.072ZM216.078 276.21C214.09 276.21 212.984 275.272 212.872 273.648H214.034C214.188 274.908 215.028 275.258 216.106 275.258C217.296 275.258 217.786 274.74 217.786 274.068C217.786 273.256 217.226 273.046 215.896 272.766C214.468 272.472 213.194 272.178 213.194 270.596C213.194 269.392 214.118 268.608 215.798 268.608C217.59 268.608 218.472 269.462 218.64 270.876H217.478C217.366 269.924 216.848 269.504 215.77 269.504C214.734 269.504 214.314 269.966 214.314 270.54C214.314 271.324 215.014 271.478 216.26 271.73C217.716 272.024 218.934 272.346 218.934 274.012C218.934 275.468 217.744 276.21 216.078 276.21ZM221.787 269.686V268.762H222.781V267.6C222.781 266.354 223.495 265.906 224.699 265.906C224.937 265.906 225.119 265.92 225.273 265.934V266.9C225.077 266.886 225.021 266.886 224.909 266.886C224.181 266.886 223.915 267.068 223.915 267.656V268.762H225.259V269.686H223.915V276H222.781V269.686H221.787ZM229.253 276.196C227.097 276.196 225.753 274.488 225.753 272.388C225.753 270.288 227.097 268.58 229.253 268.58C231.423 268.58 232.739 270.288 232.739 272.388C232.739 274.488 231.423 276.196 229.253 276.196ZM229.253 275.244C230.793 275.244 231.577 273.984 231.577 272.388C231.577 270.792 230.793 269.518 229.253 269.518C227.713 269.518 226.915 270.792 226.915 272.388C226.915 273.984 227.713 275.244 229.253 275.244ZM235.004 268.762V269.966H235.032C235.466 269.266 236.222 268.678 237.188 268.678C237.398 268.678 237.51 268.706 237.65 268.762V269.854H237.608C237.44 269.798 237.328 269.784 237.104 269.784C235.984 269.784 235.004 270.624 235.004 271.982V276H233.87V268.762H235.004ZM122.703 284.762V285.966H122.731C123.165 285.266 123.921 284.678 124.887 284.678C125.097 284.678 125.209 284.706 125.349 284.762V285.854H125.307C125.139 285.798 125.027 285.784 124.803 285.784C123.683 285.784 122.703 286.624 122.703 287.982V292H121.569V284.762H122.703ZM129.188 292.196C126.976 292.196 125.688 290.488 125.688 288.388C125.688 286.288 127.06 284.58 129.118 284.58C131.288 284.58 132.45 286.26 132.45 288.654H126.85C126.934 290.124 127.732 291.244 129.188 291.244C130.238 291.244 130.938 290.74 131.19 289.76H132.296C131.96 291.314 130.826 292.196 129.188 292.196ZM129.118 285.476C127.774 285.476 127.046 286.484 126.878 287.8H131.232C131.162 286.358 130.42 285.476 129.118 285.476ZM139.243 292.07C138.501 292.07 138.109 291.734 137.997 290.992H137.983C137.549 291.552 136.807 292.14 135.575 292.14C134.203 292.14 133.125 291.496 133.125 290.124C133.125 288.416 134.469 288.066 136.275 287.786C137.297 287.632 138.011 287.534 138.011 286.75C138.011 285.938 137.423 285.476 136.387 285.476C135.211 285.476 134.623 285.98 134.581 287.072H133.489C133.531 285.672 134.455 284.622 136.373 284.622C137.913 284.622 139.047 285.196 139.047 286.918V290.362C139.047 290.95 139.187 291.272 139.817 291.132H139.859V291.958C139.719 292.014 139.537 292.07 139.243 292.07ZM135.827 291.272C137.339 291.272 138.025 290.166 138.025 289.326V288.094C137.647 288.332 136.989 288.514 136.373 288.626C135.239 288.836 134.329 289.032 134.329 290.096C134.329 291.062 135.085 291.272 135.827 291.272ZM140.738 292V281.99H141.872V292H140.738ZM148.43 292.21C146.442 292.21 145.336 291.272 145.224 289.648H146.386C146.54 290.908 147.38 291.258 148.458 291.258C149.648 291.258 150.138 290.74 150.138 290.068C150.138 289.256 149.578 289.046 148.248 288.766C146.82 288.472 145.546 288.178 145.546 286.596C145.546 285.392 146.47 284.608 148.15 284.608C149.942 284.608 150.824 285.462 150.992 286.876H149.83C149.718 285.924 149.2 285.504 148.122 285.504C147.086 285.504 146.666 285.966 146.666 286.54C146.666 287.324 147.366 287.478 148.612 287.73C150.068 288.024 151.286 288.346 151.286 290.012C151.286 291.468 150.096 292.21 148.43 292.21ZM155.602 292.196C153.446 292.196 152.102 290.488 152.102 288.388C152.102 286.288 153.446 284.58 155.602 284.58C157.772 284.58 159.088 286.288 159.088 288.388C159.088 290.488 157.772 292.196 155.602 292.196ZM155.602 291.244C157.142 291.244 157.926 289.984 157.926 288.388C157.926 286.792 157.142 285.518 155.602 285.518C154.062 285.518 153.264 286.792 153.264 288.388C153.264 289.984 154.062 291.244 155.602 291.244ZM163.313 292.196C161.157 292.196 159.813 290.488 159.813 288.388C159.813 286.288 161.157 284.58 163.313 284.58C165.021 284.58 166.155 285.56 166.407 287.1H165.259C165.091 286.12 164.405 285.518 163.313 285.518C161.773 285.518 160.975 286.792 160.975 288.388C160.975 289.984 161.773 291.244 163.313 291.244C164.489 291.244 165.189 290.572 165.287 289.452H166.407C166.253 291.188 165.119 292.196 163.313 292.196ZM167.479 292V284.762H168.613V292H167.479ZM167.479 283.39V281.99H168.613V283.39H167.479ZM175.843 292.07C175.101 292.07 174.709 291.734 174.597 290.992H174.583C174.149 291.552 173.407 292.14 172.175 292.14C170.803 292.14 169.725 291.496 169.725 290.124C169.725 288.416 171.069 288.066 172.875 287.786C173.897 287.632 174.611 287.534 174.611 286.75C174.611 285.938 174.023 285.476 172.987 285.476C171.811 285.476 171.223 285.98 171.181 287.072H170.089C170.131 285.672 171.055 284.622 172.973 284.622C174.513 284.622 175.647 285.196 175.647 286.918V290.362C175.647 290.95 175.787 291.272 176.417 291.132H176.459V291.958C176.319 292.014 176.137 292.07 175.843 292.07ZM172.427 291.272C173.939 291.272 174.625 290.166 174.625 289.326V288.094C174.247 288.332 173.589 288.514 172.973 288.626C171.839 288.836 170.929 289.032 170.929 290.096C170.929 291.062 171.685 291.272 172.427 291.272ZM177.337 292V281.99H178.471V292H177.337ZM182.286 294.324V284.762H183.42V285.784H183.448C183.994 285.042 184.722 284.594 185.772 284.594C187.606 284.594 188.88 285.994 188.88 288.402C188.88 290.726 187.69 292.21 185.73 292.21C184.75 292.21 184.05 291.916 183.448 291.146H183.42V294.324H182.286ZM185.646 291.258C187.032 291.258 187.718 290.054 187.718 288.416C187.718 286.792 187.032 285.56 185.66 285.56C184.078 285.56 183.35 286.848 183.35 288.416C183.35 289.984 183.98 291.258 185.646 291.258ZM191.144 284.762V285.966H191.172C191.606 285.266 192.362 284.678 193.328 284.678C193.538 284.678 193.65 284.706 193.79 284.762V285.854H193.748C193.58 285.798 193.468 285.784 193.244 285.784C192.124 285.784 191.144 286.624 191.144 287.982V292H190.01V284.762H191.144ZM197.63 292.196C195.474 292.196 194.13 290.488 194.13 288.388C194.13 286.288 195.474 284.58 197.63 284.58C199.8 284.58 201.116 286.288 201.116 288.388C201.116 290.488 199.8 292.196 197.63 292.196ZM197.63 291.244C199.17 291.244 199.954 289.984 199.954 288.388C199.954 286.792 199.17 285.518 197.63 285.518C196.09 285.518 195.292 286.792 195.292 288.388C195.292 289.984 196.09 291.244 197.63 291.244ZM205.691 292.21C204.711 292.21 203.997 291.86 203.409 291.048H203.381V292H202.247V281.99H203.381V285.798H203.409C203.955 285.056 204.683 284.594 205.733 284.594C207.567 284.594 208.813 285.994 208.813 288.402C208.813 290.726 207.651 292.21 205.691 292.21ZM205.607 291.258C206.993 291.258 207.651 290.054 207.651 288.416C207.651 286.792 206.993 285.56 205.621 285.56C204.039 285.56 203.311 286.848 203.311 288.416C203.311 290.04 204.067 291.258 205.607 291.258ZM209.986 292V281.99H211.12V292H209.986ZM215.8 292.196C213.588 292.196 212.3 290.488 212.3 288.388C212.3 286.288 213.672 284.58 215.73 284.58C217.9 284.58 219.062 286.26 219.062 288.654H213.462C213.546 290.124 214.344 291.244 215.8 291.244C216.85 291.244 217.55 290.74 217.802 289.76H218.908C218.572 291.314 217.438 292.196 215.8 292.196ZM215.73 285.476C214.386 285.476 213.658 286.484 213.49 287.8H217.844C217.774 286.358 217.032 285.476 215.73 285.476ZM220.17 292V284.762H221.304V285.798H221.332C221.78 285.098 222.55 284.594 223.46 284.594C224.342 284.594 225.042 285.042 225.35 285.882H225.378C225.84 285.056 226.708 284.594 227.59 284.594C228.878 284.594 229.788 285.42 229.788 286.918V292H228.654V286.974C228.654 286.078 228.052 285.546 227.324 285.546C226.386 285.546 225.546 286.358 225.546 287.492V292H224.412V286.974C224.412 286.078 223.908 285.546 223.166 285.546C222.284 285.546 221.304 286.358 221.304 287.492V292H220.17ZM234.03 292.21C232.042 292.21 230.936 291.272 230.824 289.648H231.986C232.14 290.908 232.98 291.258 234.058 291.258C235.248 291.258 235.738 290.74 235.738 290.068C235.738 289.256 235.178 289.046 233.848 288.766C232.42 288.472 231.146 288.178 231.146 286.596C231.146 285.392 232.07 284.608 233.75 284.608C235.542 284.608 236.424 285.462 236.592 286.876H235.43C235.318 285.924 234.8 285.504 233.722 285.504C232.686 285.504 232.266 285.966 232.266 286.54C232.266 287.324 232.966 287.478 234.212 287.73C235.668 288.024 236.886 288.346 236.886 290.012C236.886 291.468 235.696 292.21 234.03 292.21Z" fill="#1A1A1A"/>
</g>
</svg>
