<svg width="368" height="307" viewBox="0 0 368 307" fill="none" xmlns="http://www.w3.org/2000/svg">
<mask id="mask0_766_57" style="mask-type:alpha" maskUnits="userSpaceOnUse" x="0" y="0" width="368" height="307">
<rect width="368" height="307" fill="#D9D9D9"/>
</mask>
<g mask="url(#mask0_766_57)">
<path d="M90.4341 62.63L73.9141 22.1C71.6041 16.36 70.1341 13.91 65.3041 13.7V13H87.7741V13.7C80.3541 13.91 81.0541 16.78 83.2241 22.1L94.9141 51.22L105.064 24.83C108.214 16.78 109.054 13.91 100.304 13.7V13H116.474V13.7C110.384 13.91 109.194 16.5 105.974 24.76L91.2041 62.63H90.4341ZM142.697 49.61H143.397C143.187 56.54 138.777 62.7 128.487 62.7C118.757 62.7 110.847 55.49 110.847 44.57C110.847 33.16 118.057 26.44 127.717 26.44C138.007 26.44 143.327 32.95 143.327 43.45H119.877V44.57C119.877 54.72 122.747 61.44 130.727 61.44C138.147 61.44 142.487 56.26 142.697 49.61ZM127.717 27.28C122.257 27.28 120.087 32.39 119.877 42.75H134.577C134.507 33.44 133.247 27.28 127.717 27.28ZM171.621 26.44C176.871 26.44 179.671 29.66 179.671 33.93C179.671 37.43 177.501 40.65 174.421 40.65C172.461 40.65 170.431 39.25 169.801 37.78C172.041 34.98 173.231 32.46 173.231 30.64C173.231 28.4 171.411 27.91 169.871 27.91C165.111 27.91 161.541 33.16 160.001 41V55.35C160.001 60.18 160.001 61.3 165.181 61.3V62H147.891V61.3C151.531 61.3 151.531 60.18 151.531 55.35V33.79C151.531 30.64 151.531 28.26 147.261 27.84V27.14H159.931L159.861 38.69C161.751 30.99 165.671 26.44 171.621 26.44ZM190.254 21.89C187.244 21.89 184.794 19.51 184.794 16.43C184.794 13.42 187.244 11.04 190.254 11.04C193.474 11.04 195.854 13.35 195.854 16.43C195.854 19.51 193.474 21.89 190.254 21.89ZM198.234 62H182.414V61.3C186.124 61.3 186.124 60.18 186.124 55.35V33.79C186.124 30.64 186.124 28.26 181.784 27.84V27.14H194.524V55.35C194.524 60.18 194.524 61.3 198.234 61.3V62ZM221.42 27.98L213.72 27.84V52.13C213.72 54.58 213.86 56.75 214.35 57.94C214.7 58.85 215.47 59.69 217.08 59.69C218.69 59.69 219.6 58.78 220.09 57.73C220.65 56.54 220.72 54.58 220.72 52.06V47.51H221.42V52.06C221.42 54.86 221.35 57.8 219.81 59.76C217.92 62.14 215.26 62.7 213.09 62.7C209.87 62.7 207.91 61.65 206.86 59.83C205.88 58.08 205.39 55.42 205.39 51.22V27.84H200.91V27.14H203.36C209.31 27.14 212.11 22.59 212.95 14.33H213.72V27.14L221.42 27V27.98ZM260.767 48.91H261.467V54.65C261.467 57.45 261.187 58.92 260.137 60.18C259.157 61.37 257.267 62.63 254.397 62.63C251.527 62.63 250.057 61.51 249.217 60.32C248.377 59.06 247.957 57.59 247.957 54.65V52.9C247.117 55.63 243.897 62.7 235.287 62.7C231.927 62.7 229.407 61.86 227.657 60.11C225.837 58.5 225.067 56.12 225.067 53.6C225.067 50.8 226.047 48.91 227.587 47.51C231.367 44.15 240.327 42.4 247.957 41V35.33C247.957 28.89 244.737 27.21 240.957 27.21C238.227 27.21 236.197 27.91 234.867 29.24C234.307 29.73 234.027 30.22 234.027 31.13C234.027 32.74 235.077 35.26 237.457 38.06C236.757 39.74 234.587 41 232.347 41C229.337 41 227.447 38.2 227.447 35.26C227.447 30.64 232.627 26.44 241.517 26.44C249.987 26.44 256.217 29.59 256.217 37.71V54.72C256.217 56.26 256.287 57.45 256.637 58.15C256.917 58.85 257.477 59.48 258.457 59.48C259.507 59.48 260.067 58.78 260.347 58.15C260.697 57.45 260.767 56.4 260.767 54.65V48.91ZM239.137 59.27C244.037 59.27 247.397 54.65 247.957 49.96V41.63C242.497 42.82 237.387 44.22 235.357 46.95C234.097 48.28 233.747 50.1 233.747 52.13C233.747 54.02 233.957 55.63 234.657 56.96C235.427 58.29 236.827 59.27 239.137 59.27ZM282.064 62.7C277.934 62.7 274.714 61.37 272.754 60.18C270.444 58.71 269.534 57.8 268.764 57.8C267.434 57.8 267.084 60.18 266.944 62.7H266.244L266.594 46.74H267.224C267.434 58.22 275.904 61.86 282.064 61.86C284.794 61.86 287.524 61.3 289.204 59.97C290.324 59.06 291.024 57.73 291.024 56.12C291.024 51.22 285.564 49.68 278.844 48C271.214 46.04 266.734 43.66 266.734 37.36C266.734 33.72 268.414 30.92 271.004 29.1C273.804 27.28 277.164 26.51 280.314 26.51C284.724 26.51 287.594 28.05 289.344 29.24C290.814 30.15 291.724 30.99 292.354 30.99C293.264 30.99 293.404 29.8 293.474 26.51H294.174L294.384 40.37H293.754C293.054 33.79 288.574 27.28 280.384 27.28C278.004 27.28 275.274 27.84 273.244 29.1C271.844 29.94 270.654 31.41 270.654 33.37C270.654 37.43 275.414 38.83 281.364 40.3C289.484 42.26 296.064 44.22 296.064 51.92C296.064 55.98 293.964 58.85 290.674 60.67C288.574 61.79 285.564 62.7 282.064 62.7Z" fill="#2D5AA8"/>
<ellipse cx="181.988" cy="95" rx="3.91731" ry="4" fill="#2D5AA8"/>
<path d="M181.799 95.2024C181.926 95.1474 181.963 95.0121 181.882 94.9003C181.801 94.7885 181.632 94.7425 181.506 94.7976L181.799 95.2024ZM130.8 116.927C130.768 117.045 130.861 117.174 131.007 117.214L133.4 117.867C133.547 117.907 133.692 117.844 133.724 117.726C133.757 117.608 133.664 117.48 133.517 117.44L131.39 116.859L131.857 115.15C131.889 115.032 131.796 114.904 131.65 114.864C131.503 114.824 131.358 114.887 131.325 115.005L130.8 116.927ZM181.506 94.7976L130.919 116.798L131.213 117.202L181.799 95.2024L181.506 94.7976Z" fill="#2D5AA8"/>
<path d="M182.842 95.2024C182.715 95.1474 182.678 95.0121 182.759 94.9003C182.84 94.7885 183.008 94.7425 183.135 94.7976L182.842 95.2024ZM233.841 116.927C233.873 117.045 233.78 117.174 233.633 117.214L231.241 117.867C231.094 117.907 230.949 117.844 230.916 117.726C230.884 117.608 230.977 117.48 231.124 117.44L233.251 116.859L232.784 115.15C232.751 115.032 232.844 114.904 232.991 114.864C233.138 114.824 233.283 114.887 233.315 115.005L233.841 116.927ZM183.135 94.7976L233.722 116.798L233.428 117.202L182.842 95.2024L183.135 94.7976Z" fill="#2D5AA8"/>
<path d="M183.25 95C183.25 94.8619 183.138 94.75 183 94.75C182.862 94.75 182.75 94.8619 182.75 95L183.25 95ZM182.823 209.177C182.921 209.274 183.079 209.274 183.177 209.177L184.768 207.586C184.865 207.488 184.865 207.33 184.768 207.232C184.67 207.135 184.512 207.135 184.414 207.232L183 208.646L181.586 207.232C181.488 207.135 181.33 207.135 181.232 207.232C181.135 207.33 181.135 207.488 181.232 207.586L182.823 209.177ZM182.75 95L182.75 209L183.25 209L183.25 95L182.75 95Z" fill="#2D5AA8"/>
<path d="M74.3301 132.207C74.3164 134.107 75.3281 136.295 77.3789 137.238L76.4082 138.605C75.0205 137.97 74.0293 136.698 73.4824 135.201C72.9219 136.849 71.9033 138.243 70.4609 138.92L69.4492 137.539C71.5273 136.568 72.5664 134.258 72.5801 132.207V131.441H69.9414V130.02H76.832V131.441H74.3301V132.207ZM79.5527 128.816V133.561H81.3848V135.023H79.5527V141.258H77.8027V128.816H79.5527ZM92.2539 128.83V135.762H90.5039V128.83H92.2539ZM88.248 129.377V133.082H84.2012V134.107C86.2793 134.101 87.7422 134.066 89.4238 133.779L89.6426 135.174C87.7285 135.502 86.0605 135.543 83.5859 135.543H82.4922V131.756H86.5117V130.771H82.4785V129.377H88.248ZM85.6641 136.281V137.348H90.5176V136.281H92.2539V141.121H83.9277V136.281H85.6641ZM85.6641 139.727H90.5176V138.701H85.6641V139.727Z" fill="#1A1A1A"/>
<path d="M58.8628 162.967V171.854H57.7964V162.967H58.8628ZM59.2457 173.945V174.848H51.0152V170.951H52.0816V173.945H59.2457ZM52.3003 163.814C54.1187 163.814 55.4859 165.045 55.4859 166.795C55.4859 168.572 54.1187 169.789 52.3003 169.789C50.482 169.789 49.1148 168.572 49.1148 166.795C49.1148 165.045 50.482 163.814 52.3003 163.814ZM52.3003 164.758C51.0699 164.758 50.1539 165.605 50.1675 166.795C50.1539 168.012 51.0699 168.846 52.3003 168.846C53.5035 168.846 54.4332 168.012 54.4332 166.795C54.4332 165.605 53.5035 164.758 52.3003 164.758ZM72.0425 170.213V171.074H69.1167V175.107H68.0503V171.074H64.9058V175.107H63.8257V171.074H60.9136V170.213H72.0425ZM70.689 163.432V166.549H63.3609V168.066H70.9488V168.955H62.2808V165.715H69.5953V164.32H62.2535V163.432H70.689ZM87.6695 172.66V173.549H76.5406V172.66H81.5445V170.035H77.8531V163.814H78.9332V166.016H85.2496V163.814H86.3023V170.035H82.5972V172.66H87.6695ZM78.9332 169.16H85.2496V166.891H78.9332V169.16ZM98.7164 162.953V172.004H97.6363V168.477H95.5582V167.574H97.6363V166.166H95.5582V165.277H97.6363V162.953H98.7164ZM95.4624 163.951V164.826H94.2183V169.078C94.7857 169.044 95.3326 169.003 95.8589 168.941L95.9136 169.748C93.5484 170.117 90.773 170.158 88.8042 170.158L88.6675 169.242C89.1529 169.242 89.6792 169.235 90.2398 169.229V164.826H89.0093V163.951H95.4624ZM99.0445 173.945V174.848H90.8824V171.252H91.9624V173.945H99.0445ZM91.2789 169.201C91.9009 169.194 92.5435 169.174 93.1792 169.146V164.826H91.2789V169.201ZM104.964 165.195C104.964 166.781 106.181 168.285 107.959 168.9L107.398 169.748C106.024 169.256 104.964 168.237 104.445 166.986C103.919 168.388 102.797 169.509 101.355 170.035L100.794 169.188C102.585 168.545 103.884 166.918 103.884 165.209V164.676H101.136V163.801H107.685V164.676H104.964V165.195ZM110.816 170.883V175.107H109.736V171.771H102.64V170.883H110.816ZM110.816 162.953V170.24H109.736V167.041H107.302V166.139H109.736V162.953H110.816ZM46.1343 185.953V190.902H48.1031V191.805H46.1343V198.107H45.0679V185.953H46.1343ZM42.9898 187.266C42.9898 190.711 41.3765 193.842 37.4117 195.797L36.8101 194.949C39.9546 193.384 41.6636 191.046 41.9097 188.168H37.3707V187.266H42.9898ZM58.8492 185.953V198.107H57.7691V185.953H58.8492ZM53.3121 189.918C53.3121 191.955 54.7339 193.924 56.566 194.703L55.9644 195.537C54.563 194.915 53.3736 193.596 52.8062 191.982C52.2593 193.691 51.0767 195.093 49.6753 195.756L49.0738 194.922C50.8785 194.102 52.2593 192.051 52.2593 189.918V188.947H49.4019V188.072H52.2457V186.186H53.3121V188.072H56.1421V188.947H53.3121V189.918ZM71.3453 185.953V198.107H70.3062V185.953H71.3453ZM68.898 186.213V197.492H67.8726V191.586H66.314C66.1978 193.951 65.1929 195.428 63.689 195.428C62.1031 195.428 61.0777 193.787 61.0777 191.203C61.0777 188.619 62.1031 186.979 63.689 186.979C65.1656 186.979 66.1636 188.407 66.3003 190.697H67.8726V186.213H68.898ZM63.689 187.99C62.7046 187.99 62.0757 189.221 62.0894 191.203C62.0757 193.172 62.7046 194.416 63.689 194.402C64.6734 194.416 65.3023 193.172 65.3023 191.203C65.3023 189.221 64.6734 187.99 63.689 187.99ZM86.9312 185.953V198.107H85.9058V191.736H84.1148V197.479H83.1304V186.227H84.1148V190.848H85.9058V185.953H86.9312ZM81.5445 187.443V188.332H78.0582V194.184C79.733 194.177 80.8951 194.115 82.2417 193.842L82.3374 194.744C80.8746 195.045 79.6304 195.1 77.771 195.1H76.9917V187.443H81.5445ZM98.1421 185.967V189.973H99.9742V190.875H98.1421V195.072H97.0757V185.967H98.1421ZM95.9136 187.457V188.332H88.6675V187.457H91.7574V185.967H92.8238V187.457H95.9136ZM92.2906 189.002C94.0269 189.002 95.2027 189.891 95.2164 191.271C95.2027 192.639 94.0269 193.514 92.2906 193.514C90.5406 193.514 89.3511 192.639 89.3648 191.271C89.3511 189.891 90.5406 189.002 92.2906 189.002ZM92.2906 189.85C91.1421 189.85 90.3765 190.41 90.3902 191.271C90.3765 192.133 91.1421 192.68 92.2906 192.666C93.4253 192.68 94.191 192.133 94.2046 191.271C94.191 190.41 93.4253 189.85 92.2906 189.85ZM98.7027 196.945V197.848H90.5406V194.348H91.5933V196.945H98.7027ZM114.002 187.184V188.4C113.988 189.891 113.988 191.559 113.55 194.006L112.457 193.883C112.921 191.559 112.921 189.85 112.921 188.4V188.072H105.429V187.184H114.002ZM115.328 195.496V196.385H104.253V195.496H108.601V191.148H109.654V195.496H115.328ZM120.496 188.305C120.496 189.617 121.781 190.793 123.558 191.217L123.08 192.051C121.644 191.688 120.523 190.868 119.99 189.795C119.457 190.984 118.288 191.894 116.804 192.297L116.312 191.463C118.117 190.971 119.443 189.754 119.443 188.305V188.1H116.695V187.211H119.443V185.912H120.523V187.211H123.244V188.1H120.496V188.305ZM125.855 185.953V188.66H127.687V189.576H125.855V192.379H124.789V185.953H125.855ZM125.855 192.98V195.824H119.183V197.109H126.306V197.971H118.13V195.004H124.789V193.828H118.103V192.98H125.855Z" fill="#1A1A1A"/>
<path d="M280.674 128.816V135.119H278.938V128.816H280.674ZM280.688 135.652V139.029H274.07V139.795H281.029V141.176H272.361V137.73H278.951V137.006H272.334V135.652H280.688ZM275.041 130.047C275.027 131.551 275.93 133 277.967 133.588L277.119 134.928C275.69 134.511 274.706 133.649 274.152 132.549C273.578 133.752 272.56 134.709 271.076 135.146L270.215 133.779C272.293 133.164 273.223 131.592 273.223 130.047V129.09H275.041V130.047ZM286.949 131.742C286.949 133.137 287.865 134.572 289.889 135.188L289.055 136.541C287.66 136.145 286.676 135.29 286.115 134.203C285.562 135.379 284.57 136.302 283.135 136.746L282.287 135.379C284.311 134.777 285.213 133.26 285.213 131.742V131.646H282.711V130.279H285.213V128.898H286.977V130.279H289.465V131.646H286.949V131.742ZM292.855 128.83V138.059H291.119V133.861H289.055V132.453H291.119V128.83H292.855ZM293.156 139.645V141.039H284.598V137.266H286.348V139.645H293.156Z" fill="#1A1A1A"/>
<path d="M245.503 162.953V169.256H244.45V162.953H245.503ZM245.517 169.871V172.783H238.694V174.096H245.954V174.971H237.642V171.949H244.45V170.732H237.614V169.871H245.517ZM239.788 164.238C239.775 165.961 241.087 167.479 242.892 168.066L242.359 168.9C240.937 168.415 239.802 167.396 239.255 166.084C238.708 167.499 237.567 168.613 236.124 169.133L235.564 168.285C237.396 167.643 238.694 166.029 238.694 164.238V163.309H239.788V164.238ZM257.972 162.953V175.107H256.946V162.953H257.972ZM255.511 163.254V174.479H254.499V168.217H252.448V167.342H254.499V163.254H255.511ZM251.15 166.426C251.15 168.531 252.093 170.623 253.775 171.594L253.118 172.387C251.922 171.669 251.074 170.356 250.657 168.805C250.213 170.479 249.331 171.908 248.114 172.674L247.431 171.867C249.126 170.855 250.11 168.641 250.11 166.426V165.277H247.773V164.389H253.378V165.277H251.15V166.426ZM267.269 166.221C267.269 168.367 268.691 170.568 270.413 171.416L269.757 172.277C268.417 171.573 267.296 170.138 266.763 168.449C266.216 170.247 265.068 171.778 263.7 172.51L263.017 171.648C264.794 170.773 266.202 168.436 266.216 166.221V164.006H267.269V166.221ZM272.601 162.953V167.889H274.638V168.818H272.601V175.107H271.534V162.953H272.601ZM285.261 162.953V175.107H284.194V162.953H285.261ZM275.362 171.867C276.401 171.86 277.591 171.854 278.821 171.812V170.486C277.365 170.329 276.415 169.502 276.429 168.285C276.415 166.918 277.591 166.029 279.341 166.029C281.091 166.029 282.28 166.918 282.28 168.285C282.28 169.488 281.337 170.315 279.901 170.473V171.771C281.077 171.724 282.267 171.635 283.388 171.484L283.47 172.305C280.763 172.742 277.782 172.783 275.526 172.783L275.362 171.867ZM283.073 164.457V165.332H275.622V164.457H278.821V162.967H279.901V164.457H283.073ZM279.341 166.863C278.22 166.863 277.427 167.438 277.427 168.285C277.427 169.133 278.22 169.68 279.341 169.666C280.476 169.68 281.255 169.133 281.255 168.285C281.255 167.438 280.476 166.863 279.341 166.863ZM302.023 169.174V170.062H297.073V172.551H296.007V170.062H290.894V169.174H302.023ZM300.573 163.555V167.779H292.343V163.555H300.573ZM293.396 164.402V166.918H299.507V164.402H293.396ZM300.778 173.945V174.848H292.316V171.348H293.396V173.945H300.778ZM313.398 162.953V175.107H312.372V162.953H313.398ZM310.937 163.254V174.479H309.925V168.217H307.874V167.342H309.925V163.254H310.937ZM306.575 166.426C306.575 168.531 307.519 170.623 309.2 171.594L308.544 172.387C307.348 171.669 306.5 170.356 306.083 168.805C305.639 170.479 304.757 171.908 303.54 172.674L302.857 171.867C304.552 170.855 305.536 168.641 305.536 166.426V165.277H303.198V164.389H308.804V165.277H306.575V166.426ZM325.525 162.953V175.107H324.485V162.953H325.525ZM323.077 163.213V174.492H322.052V168.586H320.493C320.377 170.951 319.372 172.428 317.868 172.428C316.282 172.428 315.257 170.787 315.257 168.203C315.257 165.619 316.282 163.979 317.868 163.979C319.345 163.979 320.343 165.407 320.48 167.697H322.052V163.213H323.077ZM317.868 164.99C316.884 164.99 316.255 166.221 316.269 168.203C316.255 170.172 316.884 171.416 317.868 171.402C318.853 171.416 319.482 170.172 319.482 168.203C319.482 166.221 318.853 164.99 317.868 164.99ZM247.629 185.953V198.107H246.604V191.736H244.813V197.479H243.828V186.227H244.813V190.848H246.604V185.953H247.629ZM242.242 187.443V188.332H238.756V194.184C240.431 194.177 241.593 194.115 242.94 193.842L243.035 194.744C241.572 195.045 240.328 195.1 238.469 195.1H237.69V187.443H242.242ZM258.84 185.967V189.973H260.672V190.875H258.84V195.072H257.774V185.967H258.84ZM256.611 187.457V188.332H249.365V187.457H252.455V185.967H253.522V187.457H256.611ZM252.988 189.002C254.725 189.002 255.901 189.891 255.914 191.271C255.901 192.639 254.725 193.514 252.988 193.514C251.238 193.514 250.049 192.639 250.063 191.271C250.049 189.891 251.238 189.002 252.988 189.002ZM252.988 189.85C251.84 189.85 251.074 190.41 251.088 191.271C251.074 192.133 251.84 192.68 252.988 192.666C254.123 192.68 254.889 192.133 254.902 191.271C254.889 190.41 254.123 189.85 252.988 189.85ZM259.401 196.945V197.848H251.238V194.348H252.291V196.945H259.401ZM271.022 188.059V188.934H264.924V188.059H267.453V186.322H268.52V188.059H271.022ZM267.973 189.754C269.504 189.754 270.598 190.902 270.611 192.516C270.598 194.143 269.504 195.305 267.973 195.305C266.455 195.305 265.361 194.143 265.361 192.516C265.361 190.902 266.455 189.754 267.973 189.754ZM267.973 190.656C267.016 190.67 266.318 191.449 266.318 192.516C266.318 193.596 267.016 194.375 267.973 194.361C268.943 194.375 269.654 193.596 269.654 192.516C269.654 191.449 268.943 190.67 267.973 190.656ZM275.301 185.953V198.107H274.276V191.969H272.662V197.506H271.651V186.254H272.662V191.08H274.276V185.953H275.301ZM287.127 185.953V192.174H286.047V190.902H282.807V190.055H286.047V188.592H282.985C282.219 190.513 280.332 191.805 277.639 192.447L277.256 191.559C280.236 190.868 281.973 189.412 282.178 187.457H277.871V186.568H283.354C283.354 186.972 283.313 187.361 283.244 187.73H286.047V185.953H287.127ZM287.127 192.721V195.688H280.346V197.109H287.537V197.998H279.279V194.867H286.047V193.596H279.252V192.721H287.127ZM292.746 188.592C292.746 190.027 293.703 191.436 295.248 191.996L294.729 192.83C293.539 192.358 292.698 191.449 292.268 190.342C291.844 191.545 290.989 192.536 289.779 193.049L289.246 192.242C290.791 191.6 291.721 190.137 291.735 188.592V188.441H289.492V187.566H291.735V186.104H292.746V187.566H294.947V188.441H292.746V188.592ZM299.473 185.967V193.404H298.447V190.109H296.861V193.35H295.822V186.186H296.861V189.221H298.447V185.967H299.473ZM299.473 194.061V198.107H298.42V194.936H291.283V194.061H299.473ZM315.893 195.646V196.549H304.764V195.646H309.768V192.68H306.076V186.979H314.512V192.68H310.82V195.646H315.893ZM307.129 187.84V191.818H313.473V187.84H307.129ZM320.486 188.332C320.486 189.713 321.416 191.107 322.975 191.723L322.401 192.557C321.252 192.078 320.411 191.189 319.981 190.109C319.529 191.292 318.654 192.324 317.465 192.857L316.877 192.023C318.477 191.312 319.461 189.713 319.461 188.332V186.705H320.486V188.332ZM327.186 185.967V193.309H326.16V190.041H324.547V193.24H323.535V186.186H324.547V189.139H326.16V185.967H327.186ZM327.186 193.979V198.107H326.133V194.867H318.996V193.979H327.186Z" fill="#1A1A1A"/>
<path d="M177.215 232.883V234.25H170.297V232.883H172.977V231.707H174.713V232.883H177.215ZM173.824 234.701C175.506 234.701 176.764 235.699 176.777 237.094C176.764 238.461 175.506 239.459 173.824 239.459C172.156 239.459 170.898 238.461 170.912 237.094C170.898 235.699 172.156 234.701 173.824 234.701ZM173.824 236.014C173.059 236.014 172.525 236.424 172.539 237.094C172.525 237.736 173.059 238.133 173.824 238.133C174.576 238.133 175.15 237.736 175.15 237.094C175.15 236.424 174.576 236.014 173.824 236.014ZM180.756 231.816V239.719H179.02V238.406H177.324V236.998H179.02V235.986H177.352V234.605H179.02V231.816H180.756ZM180.756 240.307V244.258H179.02V241.688H172.211V240.307H180.756ZM192.787 231.83V240.908H191.037V231.83H192.787ZM193.115 242.645V244.039H184.447V240.033H186.211V242.645H193.115ZM187.141 233.717C187.127 235.357 188.002 236.971 190.053 237.627L189.164 238.994C187.763 238.529 186.792 237.6 186.238 236.41C185.685 237.688 184.687 238.714 183.23 239.213L182.328 237.832C184.42 237.135 185.322 235.398 185.322 233.717V232.514H187.141V233.717Z" fill="#1A1A1A"/>
<path d="M132.398 269.221C132.398 271.367 133.82 273.568 135.542 274.416L134.886 275.277C133.546 274.573 132.425 273.138 131.892 271.449C131.345 273.247 130.197 274.778 128.829 275.51L128.146 274.648C129.923 273.773 131.331 271.436 131.345 269.221V267.006H132.398V269.221ZM137.73 265.953V270.889H139.767V271.818H137.73V278.107H136.663V265.953H137.73ZM150.39 265.953V278.107H149.324V265.953H150.39ZM140.492 274.867C141.531 274.86 142.72 274.854 143.95 274.812V273.486C142.494 273.329 141.544 272.502 141.558 271.285C141.544 269.918 142.72 269.029 144.47 269.029C146.22 269.029 147.409 269.918 147.409 271.285C147.409 272.488 146.466 273.315 145.031 273.473V274.771C146.206 274.724 147.396 274.635 148.517 274.484L148.599 275.305C145.892 275.742 142.911 275.783 140.656 275.783L140.492 274.867ZM148.202 267.457V268.332H140.751V267.457H143.95V265.967H145.031V267.457H148.202ZM144.47 269.863C143.349 269.863 142.556 270.438 142.556 271.285C142.556 272.133 143.349 272.68 144.47 272.666C145.605 272.68 146.384 272.133 146.384 271.285C146.384 270.438 145.605 269.863 144.47 269.863ZM156.501 266.842C158.415 266.842 159.769 268.004 159.769 269.699C159.769 271.395 158.415 272.557 156.501 272.557C154.587 272.557 153.206 271.395 153.22 269.699C153.206 268.004 154.587 266.842 156.501 266.842ZM156.501 267.785C155.202 267.785 154.259 268.564 154.273 269.699C154.259 270.834 155.202 271.613 156.501 271.613C157.786 271.613 158.716 270.834 158.716 269.699C158.716 268.564 157.786 267.785 156.501 267.785ZM162.49 265.953V278.135H161.423V265.953H162.49ZM152.591 274.539C154.833 274.539 157.923 274.525 160.617 274.129L160.699 274.922C157.923 275.441 154.929 275.455 152.742 275.455L152.591 274.539ZM174.275 267.676C174.261 269.303 176.435 270.684 178.554 270.998L178.158 271.846C176.257 271.524 174.411 270.513 173.673 269.043C172.935 270.513 171.082 271.524 169.216 271.846L168.792 270.998C170.898 270.684 173.072 269.303 173.072 267.676V267.594H169.175V266.719H178.158V267.594H174.275V267.676ZM179.21 272.885V273.773H174.179V278.107H173.126V273.773H168.136V272.885H179.21ZM191.365 275.646V276.549H180.236V275.646H182.997V272.365C181.958 271.825 181.329 270.95 181.329 269.85C181.329 267.963 183.175 266.732 185.773 266.719C188.37 266.732 190.216 267.963 190.216 269.85C190.216 270.93 189.608 271.798 188.603 272.338V275.646H191.365ZM185.773 267.607C183.777 267.594 182.368 268.496 182.368 269.85C182.368 271.203 183.777 272.119 185.773 272.119C187.755 272.119 189.177 271.203 189.177 269.85C189.177 268.496 187.755 267.594 185.773 267.607ZM184.05 275.646H187.523V272.748C186.996 272.892 186.408 272.967 185.773 272.967C185.151 272.967 184.57 272.898 184.05 272.762V275.646ZM205.87 265.953V278.135H204.79V265.953H205.87ZM199.404 266.896C201.208 266.91 202.507 268.551 202.507 271.135C202.507 273.719 201.208 275.359 199.404 275.359C197.585 275.359 196.3 273.719 196.3 271.135C196.3 268.551 197.585 266.91 199.404 266.896ZM199.404 267.854C198.187 267.867 197.339 269.152 197.339 271.135C197.339 273.117 198.187 274.402 199.404 274.402C200.62 274.402 201.468 273.117 201.468 271.135C201.468 269.152 200.62 267.867 199.404 267.854ZM219.064 272.912V273.801H216.22V278.203H215.154V273.801H211.859V278.203H210.792V273.801H207.935V272.912H219.064ZM214.046 267.088C214.046 268.811 216.302 270.314 218.462 270.629L218.038 271.518C216.158 271.183 214.292 270.123 213.513 268.619C212.727 270.144 210.861 271.183 208.96 271.518L208.523 270.629C210.71 270.314 212.939 268.838 212.939 267.088V266.391H214.046V267.088ZM231.163 271.6V272.447H220.034V271.6H231.163ZM229.769 273.418V276.002H222.468V277.164H230.165V277.943H221.388V275.264H228.702V274.225H221.374V273.418H229.769ZM229.728 266.322V268.838H222.55V269.904H229.947V270.684H221.484V268.1H228.648V267.102H221.443V266.322H229.728ZM144.361 288.953V301.135H143.281V288.953H144.361ZM137.894 289.896C139.699 289.91 140.997 291.551 140.997 294.135C140.997 296.719 139.699 298.359 137.894 298.359C136.075 298.359 134.79 296.719 134.79 294.135C134.79 291.551 136.075 289.91 137.894 289.896ZM137.894 290.854C136.677 290.867 135.829 292.152 135.829 294.135C135.829 296.117 136.677 297.402 137.894 297.402C139.111 297.402 139.958 296.117 139.958 294.135C139.958 292.152 139.111 290.867 137.894 290.854ZM152.509 291.059V291.934H146.411V291.059H148.941V289.322H150.007V291.059H152.509ZM149.46 292.754C150.992 292.754 152.085 293.902 152.099 295.516C152.085 297.143 150.992 298.305 149.46 298.305C147.943 298.305 146.849 297.143 146.849 295.516C146.849 293.902 147.943 292.754 149.46 292.754ZM149.46 293.656C148.503 293.67 147.806 294.449 147.806 295.516C147.806 296.596 148.503 297.375 149.46 297.361C150.431 297.375 151.142 296.596 151.142 295.516C151.142 294.449 150.431 293.67 149.46 293.656ZM156.788 288.953V301.107H155.763V294.969H154.15V300.506H153.138V289.254H154.15V294.08H155.763V288.953H156.788ZM160.534 299.084L159.468 302.803H158.456L159.208 299.084H160.534ZM175.656 288.953V301.135H174.575V288.953H175.656ZM167.411 289.992V293.205H171.034V289.992H172.087V298.195H166.345V289.992H167.411ZM167.411 297.293H171.034V294.066H167.411V297.293ZM184.679 290.115V290.99H183.435V295.01C184.057 294.969 184.672 294.914 185.253 294.846L185.335 295.652C182.874 296.035 180.003 296.09 177.898 296.09L177.775 295.201C178.267 295.201 178.793 295.194 179.347 295.174V290.99H178.117V290.115H184.679ZM187.236 288.967V292.658H189.068V293.574H187.236V297.908H186.169V288.967H187.236ZM187.796 299.945V300.848H179.634V297.061H180.687V299.945H187.796ZM180.4 295.16C181.049 295.14 181.719 295.119 182.382 295.078V290.99H180.4V295.16ZM194.058 291.195C194.058 292.781 195.275 294.285 197.052 294.9L196.492 295.748C195.117 295.256 194.058 294.237 193.538 292.986C193.012 294.388 191.891 295.509 190.449 296.035L189.888 295.188C191.679 294.545 192.978 292.918 192.978 291.209V290.676H190.23V289.801H196.779V290.676H194.058V291.195ZM199.909 296.883V301.107H198.829V297.771H191.734V296.883H199.909ZM199.909 288.953V296.24H198.829V293.041H196.396V292.139H198.829V288.953H199.909ZM216.562 295.393V296.268H211.613V298.646H210.546V296.268H205.433V295.393H216.562ZM215.318 299.945V300.848H206.855V297.525H207.921V299.945H215.318ZM207.99 289.35V290.908H214.005V289.35H215.072V294.203H206.923V289.35H207.99ZM207.99 293.328H214.005V291.729H207.99V293.328ZM221.689 290.908C221.689 292.59 222.933 294.135 224.697 294.736L224.109 295.598C222.755 295.099 221.702 294.06 221.183 292.768C220.67 294.203 219.576 295.324 218.148 295.885L217.56 294.996C219.406 294.34 220.622 292.74 220.636 290.867V289.582H221.689V290.908ZM227.622 296.814V301.107H226.542V297.676H219.447V296.814H227.622ZM227.622 288.953V296.145H226.542V292.412H223.835V291.51H226.542V288.953H227.622Z" fill="#1A1A1A"/>
</g>
</svg>
