<svg width="354" height="265" viewBox="0 0 354 265" fill="none" xmlns="http://www.w3.org/2000/svg">
<g clip-path="url(#clip0_766_116)">
<mask id="path-1-inside-1_766_116" fill="white">
<path d="M132.473 129.191C138.376 123.345 144.392 117.642 151.021 112.65C155.941 108.945 161.125 105.739 166.965 103.744C176.347 100.585 185.187 102.048 193.684 106.62C199.33 109.658 204.513 113.396 209.205 117.749C214.791 122.927 220.292 128.218 225.583 133.696C232.019 140.397 237.964 147.542 242.409 155.845C246.353 163.18 248.378 170.932 246.806 179.391C245.673 185.497 243.003 190.95 239.689 196.12C234.171 204.731 227.284 212.148 220.202 219.393C214.494 225.21 208.605 230.813 202.101 235.705C197.153 239.438 191.927 242.659 186.06 244.654C176.734 247.813 167.908 246.336 159.452 241.807C152.674 238.186 146.682 233.452 141.096 228.188C136.447 223.793 131.881 219.283 127.47 214.645C121.634 208.527 116.206 202.023 111.898 194.66C109.264 190.175 107.175 185.445 106.263 180.257C104.84 172.175 106.662 164.656 110.386 157.504C113.393 151.708 117.196 146.437 121.433 141.551C125.038 137.364 128.811 133.32 132.501 129.219"/>
</mask>
<path d="M151.021 112.65L151.61 113.462L151.61 113.462L151.021 112.65ZM166.965 103.744L166.654 102.785L166.65 102.787L166.965 103.744ZM193.684 106.62L194.147 105.727L194.147 105.727L193.684 106.62ZM209.205 117.749L208.538 118.495L208.539 118.496L209.205 117.749ZM225.583 133.696L226.291 132.99L226.289 132.988L225.583 133.696ZM242.409 155.845L241.539 156.328L241.54 156.33L242.409 155.845ZM246.806 179.391L245.833 179.204L245.833 179.204L246.806 179.391ZM239.689 196.12L238.86 195.568L238.86 195.568L239.689 196.12ZM220.202 219.393L220.902 220.107L220.903 220.106L220.202 219.393ZM202.101 235.705L201.513 234.893L201.512 234.894L202.101 235.705ZM186.06 244.654L186.372 245.612L186.373 245.612L186.06 244.654ZM159.452 241.807L159.913 240.913L159.912 240.913L159.452 241.807ZM141.096 228.188L140.423 228.928L140.424 228.93L141.096 228.188ZM127.47 214.645L128.181 213.942L128.18 213.941L127.47 214.645ZM111.898 194.66L112.749 194.143L112.748 194.142L111.898 194.66ZM106.263 180.257L107.238 180.079L107.238 180.079L106.263 180.257ZM110.386 157.504L111.261 157.977L111.261 157.976L110.386 157.504ZM121.433 141.551L122.175 142.219L122.178 142.216L121.433 141.551ZM133.163 129.915C139.06 124.075 145.036 118.411 151.61 113.462L150.433 111.838C143.747 116.872 137.693 122.615 131.782 128.467L133.163 129.915ZM151.61 113.462C156.485 109.791 161.575 106.65 167.28 104.701L166.65 102.787C160.675 104.828 155.397 108.1 150.433 111.838L151.61 113.462ZM167.275 104.702C176.355 101.645 184.915 103.043 193.222 107.512L194.147 105.727C185.458 101.052 176.339 99.5247 166.654 102.785L167.275 104.702ZM193.222 107.512C198.792 110.51 203.907 114.199 208.538 118.495L209.872 117.003C205.12 112.594 199.869 108.806 194.147 105.727L193.222 107.512ZM208.539 118.496C214.116 123.665 219.603 128.944 224.877 134.404L226.289 132.988C220.981 127.493 215.466 122.188 209.872 117.002L208.539 118.496ZM224.875 134.402C231.282 141.073 237.156 148.141 241.539 156.328L243.278 155.362C238.771 146.943 232.756 139.722 226.291 132.99L224.875 134.402ZM241.54 156.33C245.409 163.525 247.35 171.038 245.833 179.204L247.78 179.579C249.406 170.826 247.296 162.834 243.278 155.36L241.54 156.33ZM245.833 179.204C244.733 185.131 242.135 190.459 238.86 195.568L240.518 196.672C243.871 191.442 246.614 185.863 247.78 179.579L245.833 179.204ZM238.86 195.568C233.401 204.086 226.577 211.441 219.5 218.681L220.903 220.106C227.991 212.855 234.941 205.376 240.518 196.672L238.86 195.568ZM219.501 218.68C213.807 224.483 207.958 230.045 201.513 234.893L202.689 236.517C209.251 231.582 215.181 225.938 220.902 220.107L219.501 218.68ZM201.512 234.894C196.61 238.592 191.478 241.747 185.746 243.697L186.373 245.612C192.376 243.57 197.697 240.284 202.691 236.516L201.512 234.894ZM185.747 243.696C176.726 246.752 168.18 245.341 159.913 240.913L158.991 242.7C167.635 247.33 176.742 248.874 186.372 245.612L185.747 243.696ZM159.912 240.913C153.235 237.346 147.314 232.672 141.769 227.447L140.424 228.93C146.049 234.231 152.113 239.026 158.992 242.701L159.912 240.913ZM141.77 227.448C137.131 223.063 132.578 218.566 128.181 213.942L126.758 215.347C131.184 220.001 135.762 224.523 140.423 228.928L141.77 227.448ZM128.18 213.941C122.373 207.852 117.002 201.412 112.749 194.143L111.047 195.177C115.41 202.633 120.896 209.201 126.759 215.348L128.18 213.941ZM112.748 194.142C110.151 189.72 108.122 185.108 107.238 180.079L105.288 180.435C106.228 185.783 108.376 190.629 111.048 195.179L112.748 194.142ZM107.238 180.079C105.864 172.275 107.611 164.986 111.261 157.977L109.511 157.031C105.712 164.326 103.816 172.075 105.288 180.435L107.238 180.079ZM111.261 157.976C114.223 152.266 117.977 147.061 122.175 142.219L120.691 140.882C116.416 145.813 112.562 151.149 109.51 157.032L111.261 157.976ZM122.178 142.216C125.774 138.04 129.525 134.021 133.231 129.901L131.77 128.537C128.098 132.619 124.303 136.688 120.689 140.885L122.178 142.216Z" fill="#2D5AA8" mask="url(#path-1-inside-1_766_116)"/>
<path d="M129.481 163.77C126.79 163.77 125.265 162.555 125.196 160.421H127.165C127.303 161.636 127.983 162.117 129.397 162.117C130.424 162.117 131.325 161.749 131.325 160.817C131.325 159.827 130.382 159.63 128.87 159.276C127.095 158.867 125.473 158.386 125.473 156.28C125.473 154.288 127.068 153.256 129.273 153.256C131.505 153.256 132.947 154.373 133.1 156.408H131.172C131.061 155.39 130.285 154.881 129.259 154.881C128.177 154.881 127.47 155.348 127.47 156.068C127.47 156.888 128.163 157.128 129.633 157.453C131.672 157.906 133.336 158.4 133.336 160.576C133.336 162.626 131.713 163.77 129.481 163.77ZM134.401 165.918V164.406H135.067C135.816 164.406 136.121 164.01 136.121 163.417C136.121 163.021 135.982 162.555 135.58 161.453L133.666 156.295H135.649L136.703 159.559C136.925 160.223 137.161 161.142 137.161 161.142H137.188C137.188 161.142 137.383 160.223 137.604 159.559L138.603 156.295H140.503L138.02 163.728C137.48 165.339 136.953 165.918 135.51 165.918H134.401ZM143.958 163.756C141.892 163.756 140.741 162.739 140.63 161.198H142.377C142.502 162.032 143.085 162.399 143.93 162.399C144.762 162.399 145.234 162.074 145.234 161.566C145.234 160.873 144.333 160.803 143.362 160.605C142.086 160.35 140.838 159.997 140.838 158.414C140.838 156.846 142.114 156.097 143.736 156.097C145.608 156.097 146.648 157.044 146.787 158.499H145.081C144.998 157.722 144.513 157.439 143.709 157.439C142.974 157.439 142.488 157.722 142.488 158.245C142.488 158.867 143.431 158.923 144.444 159.135C145.636 159.389 146.953 159.729 146.953 161.424C146.953 162.88 145.733 163.756 143.958 163.756ZM147.253 157.566V156.295H148.237V154.034H150.082V156.295H151.302V157.566H150.082V161.41C150.082 161.947 150.373 162.131 150.789 162.131C151.025 162.131 151.344 162.117 151.344 162.117V163.53C151.344 163.53 150.914 163.558 150.165 163.558C149.25 163.558 148.237 163.191 148.237 161.82V157.566H147.253ZM155.547 163.756C153.19 163.756 151.859 162.074 151.859 159.912C151.859 157.764 153.287 156.097 155.367 156.097C157.655 156.097 158.876 157.877 158.876 160.463H153.717C153.856 161.58 154.466 162.272 155.534 162.272C156.268 162.272 156.698 161.933 156.906 161.382H158.765C158.501 162.668 157.378 163.756 155.547 163.756ZM155.395 157.581C154.396 157.581 153.911 158.188 153.745 159.135H156.906C156.851 158.216 156.255 157.581 155.395 157.581ZM159.748 163.544V156.295H161.565V157.27H161.607C161.995 156.605 162.688 156.097 163.673 156.097C164.574 156.097 165.295 156.605 165.642 157.369H165.67C166.155 156.577 166.904 156.097 167.805 156.097C169.303 156.097 170.149 157.086 170.149 158.669V163.544H168.263V158.994C168.263 158.174 167.861 157.75 167.167 157.75C166.377 157.75 165.892 158.372 165.892 159.333V163.544H164.006V158.994C164.006 158.174 163.603 157.75 162.91 157.75C162.147 157.75 161.634 158.372 161.634 159.333V163.544H159.748ZM175.792 163.544C175.681 163.403 175.612 163.064 175.571 162.739H175.543C175.182 163.29 174.669 163.714 173.449 163.714C171.993 163.714 170.967 162.936 170.967 161.495C170.967 159.898 172.242 159.389 173.823 159.163C175.002 158.994 175.543 158.895 175.543 158.344C175.543 157.821 175.141 157.482 174.35 157.482C173.463 157.482 173.033 157.807 172.977 158.499H171.299C171.355 157.227 172.284 156.111 174.364 156.111C176.5 156.111 177.359 157.086 177.359 158.782V162.47C177.359 163.021 177.443 163.346 177.609 163.473V163.544H175.792ZM173.906 162.371C174.988 162.371 175.584 161.693 175.584 160.986V159.898C175.252 160.096 174.739 160.209 174.267 160.322C173.282 160.548 172.797 160.774 172.797 161.453C172.797 162.131 173.241 162.371 173.906 162.371ZM178.007 157.566V156.295H178.992V154.034H180.836V156.295H182.056V157.566H180.836V161.41C180.836 161.947 181.127 162.131 181.543 162.131C181.779 162.131 182.098 162.117 182.098 162.117V163.53C182.098 163.53 181.668 163.558 180.919 163.558C180.004 163.558 178.992 163.191 178.992 161.82V157.566H178.007ZM183.027 163.544V156.295H184.913V163.544H183.027ZM183.027 155.164V153.44H184.913V155.164H183.027ZM185.893 163.544V162.074L189.554 157.849V157.807H186.309V156.295H191.745V157.835L188.167 161.961V162.004H191.925V163.544H185.893ZM197.338 163.544C197.227 163.403 197.158 163.064 197.116 162.739H197.088C196.728 163.29 196.215 163.714 194.994 163.714C193.538 163.714 192.512 162.936 192.512 161.495C192.512 159.898 193.788 159.389 195.369 159.163C196.548 158.994 197.088 158.895 197.088 158.344C197.088 157.821 196.686 157.482 195.896 157.482C195.008 157.482 194.578 157.807 194.523 158.499H192.845C192.9 157.227 193.83 156.111 195.91 156.111C198.045 156.111 198.905 157.086 198.905 158.782V162.47C198.905 163.021 198.988 163.346 199.155 163.473V163.544H197.338ZM195.452 162.371C196.534 162.371 197.13 161.693 197.13 160.986V159.898C196.797 160.096 196.284 160.209 195.813 160.322C194.828 160.548 194.343 160.774 194.343 161.453C194.343 162.131 194.786 162.371 195.452 162.371ZM199.552 157.566V156.295H200.537V154.034H202.381V156.295H203.602V157.566H202.381V161.41C202.381 161.947 202.673 162.131 203.089 162.131C203.324 162.131 203.643 162.117 203.643 162.117V163.53C203.643 163.53 203.213 163.558 202.465 163.558C201.549 163.558 200.537 163.191 200.537 161.82V157.566H199.552ZM204.573 163.544V156.295H206.459V163.544H204.573ZM204.573 155.164V153.44H206.459V155.164H204.573ZM211.044 163.756C208.839 163.756 207.327 162.089 207.327 159.926C207.327 157.764 208.839 156.097 211.044 156.097C213.249 156.097 214.76 157.764 214.76 159.926C214.76 162.089 213.249 163.756 211.044 163.756ZM211.044 162.286C212.195 162.286 212.846 161.34 212.846 159.926C212.846 158.513 212.195 157.552 211.044 157.552C209.879 157.552 209.241 158.513 209.241 159.926C209.241 161.34 209.879 162.286 211.044 162.286ZM217.481 156.295V157.284H217.523C218.008 156.507 218.66 156.097 219.63 156.097C221.1 156.097 222.085 157.227 222.085 158.81V163.544H220.199V159.093C220.199 158.315 219.755 157.764 218.965 157.764C218.133 157.764 217.523 158.443 217.523 159.432V163.544H215.637V156.295H217.481ZM122.708 179.906C120.504 179.906 118.992 178.239 118.992 176.077C118.992 173.915 120.504 172.247 122.708 172.247C124.913 172.247 126.425 173.915 126.425 176.077C126.425 178.239 124.913 179.906 122.708 179.906ZM122.708 178.437C123.859 178.437 124.511 177.49 124.511 176.077C124.511 174.664 123.859 173.703 122.708 173.703C121.544 173.703 120.906 174.664 120.906 176.077C120.906 177.49 121.544 178.437 122.708 178.437ZM126.75 173.773V172.445H127.721V171.795C127.721 170.028 129.066 169.407 130.882 169.605V171.088C129.995 171.046 129.607 171.159 129.607 171.908V172.445H130.882V173.773H129.607V179.695H127.721V173.773H126.75ZM136.957 179.906C134.891 179.906 133.74 178.889 133.629 177.349H135.376C135.501 178.182 136.083 178.55 136.929 178.55C137.761 178.55 138.233 178.225 138.233 177.716C138.233 177.024 137.331 176.953 136.361 176.755C135.085 176.501 133.837 176.147 133.837 174.565C133.837 172.996 135.113 172.247 136.735 172.247C138.607 172.247 139.647 173.194 139.786 174.65H138.08C137.997 173.872 137.512 173.59 136.707 173.59C135.972 173.59 135.487 173.872 135.487 174.395C135.487 175.017 136.43 175.073 137.442 175.285C138.635 175.54 139.952 175.879 139.952 177.575C139.952 179.03 138.732 179.906 136.957 179.906ZM140.252 173.717V172.445H141.236V170.184H143.08V172.445H144.301V173.717H143.08V177.561C143.08 178.098 143.372 178.281 143.788 178.281C144.023 178.281 144.342 178.267 144.342 178.267V179.68C144.342 179.68 143.912 179.709 143.164 179.709C142.248 179.709 141.236 179.341 141.236 177.97V173.717H140.252ZM151.581 179.695H149.765V178.847H149.723C149.238 179.511 148.683 179.892 147.685 179.892C146.104 179.892 145.216 178.861 145.216 177.278V172.445H147.088V176.953C147.088 177.801 147.463 178.267 148.267 178.267C149.155 178.267 149.695 177.589 149.695 176.628V172.445H151.581V179.695ZM155.464 179.906C153.675 179.906 152.455 178.423 152.455 176.077C152.455 173.816 153.716 172.247 155.491 172.247C156.49 172.247 157.114 172.713 157.502 173.321H157.544V169.59H159.43V179.695H157.613V178.748H157.585C157.169 179.44 156.462 179.906 155.464 179.906ZM155.88 178.295C157.003 178.295 157.585 177.448 157.585 176.119C157.585 174.734 157.142 173.802 155.935 173.802C154.895 173.802 154.368 174.734 154.368 176.077C154.368 177.476 154.909 178.295 155.88 178.295ZM163.998 179.906C161.64 179.906 160.309 178.225 160.309 176.063C160.309 173.915 161.737 172.247 163.817 172.247C166.105 172.247 167.326 174.028 167.326 176.614H162.167C162.306 177.73 162.916 178.423 163.984 178.423C164.719 178.423 165.149 178.084 165.357 177.532H167.215C166.951 178.818 165.828 179.906 163.998 179.906ZM163.845 173.731C162.847 173.731 162.361 174.339 162.195 175.285H165.357C165.301 174.367 164.705 173.731 163.845 173.731ZM170.043 172.445V173.434H170.085C170.57 172.657 171.222 172.247 172.192 172.247C173.662 172.247 174.647 173.378 174.647 174.96V179.695H172.761V175.243C172.761 174.466 172.317 173.915 171.527 173.915C170.695 173.915 170.085 174.593 170.085 175.582V179.695H168.199V172.445H170.043ZM175.258 173.717V172.445H176.242V170.184H178.087V172.445H179.307V173.717H178.087V177.561C178.087 178.098 178.378 178.281 178.794 178.281C179.03 178.281 179.349 178.267 179.349 178.267V179.68C179.349 179.68 178.919 179.709 178.17 179.709C177.255 179.709 176.242 179.341 176.242 177.97V173.717H175.258ZM180.072 177.024V175.37H183.83V177.024H180.072ZM187.572 179.906C185.783 179.906 184.563 178.423 184.563 176.077C184.563 173.816 185.825 172.247 187.6 172.247C188.598 172.247 189.222 172.713 189.611 173.321H189.652V169.59H191.538V179.695H189.722V178.748H189.694C189.278 179.44 188.571 179.906 187.572 179.906ZM187.988 178.295C189.111 178.295 189.694 177.448 189.694 176.119C189.694 174.734 189.25 173.802 188.044 173.802C187.004 173.802 186.477 174.734 186.477 176.077C186.477 177.476 187.017 178.295 187.988 178.295ZM192.764 179.695V172.445H194.65V179.695H192.764ZM192.764 171.314V169.59H194.65V171.314H192.764ZM197.682 172.445V173.604H197.723C198.153 172.784 198.639 172.36 199.471 172.36C199.679 172.36 199.803 172.374 199.914 172.417V174.098H199.873C198.639 173.971 197.751 174.635 197.751 176.162V179.695H195.865V172.445H197.682ZM203.866 179.906C201.508 179.906 200.177 178.225 200.177 176.063C200.177 173.915 201.605 172.247 203.685 172.247C205.973 172.247 207.194 174.028 207.194 176.614H202.035C202.174 177.73 202.784 178.423 203.852 178.423C204.587 178.423 205.017 178.084 205.225 177.532H207.083C206.819 178.818 205.696 179.906 203.866 179.906ZM203.713 173.731C202.715 173.731 202.229 174.339 202.063 175.285H205.225C205.169 174.367 204.573 173.731 203.713 173.731ZM211.367 179.906C209.121 179.906 207.72 178.239 207.72 176.077C207.72 173.915 209.107 172.247 211.27 172.247C213.114 172.247 214.251 173.335 214.501 174.904H212.657C212.532 174.268 212.047 173.788 211.353 173.788C210.216 173.788 209.634 174.678 209.634 176.077C209.634 177.448 210.174 178.366 211.325 178.366C212.088 178.366 212.629 177.956 212.754 177.137H214.57C214.446 178.677 213.267 179.906 211.367 179.906ZM214.977 173.717V172.445H215.961V170.184H217.806V172.445H219.026V173.717H217.806V177.561C217.806 178.098 218.097 178.281 218.513 178.281C218.749 178.281 219.068 178.267 219.068 178.267V179.68C219.068 179.68 218.638 179.709 217.889 179.709C216.974 179.709 215.961 179.341 215.961 177.97V173.717H214.977ZM223.272 179.906C220.914 179.906 219.583 178.225 219.583 176.063C219.583 173.915 221.011 172.247 223.091 172.247C225.379 172.247 226.6 174.028 226.6 176.614H221.441C221.58 177.73 222.19 178.423 223.258 178.423C223.993 178.423 224.422 178.084 224.63 177.532H226.489C226.225 178.818 225.102 179.906 223.272 179.906ZM223.119 173.731C222.121 173.731 221.635 174.339 221.469 175.285H224.63C224.575 174.367 223.979 173.731 223.119 173.731ZM230.135 179.906C228.346 179.906 227.126 178.423 227.126 176.077C227.126 173.816 228.388 172.247 230.163 172.247C231.161 172.247 231.785 172.713 232.173 173.321H232.215V169.59H234.101V179.695H232.284V178.748H232.257C231.841 179.44 231.133 179.906 230.135 179.906ZM230.551 178.295C231.674 178.295 232.257 177.448 232.257 176.119C232.257 174.734 231.813 173.802 230.606 173.802C229.566 173.802 229.039 174.734 229.039 176.077C229.039 177.476 229.58 178.295 230.551 178.295ZM147.321 196.057C144.963 196.057 143.632 194.375 143.632 192.213C143.632 190.065 145.06 188.398 147.14 188.398C149.428 188.398 150.649 190.178 150.649 192.764H145.49C145.629 193.881 146.239 194.573 147.307 194.573C148.042 194.573 148.472 194.234 148.68 193.683H150.538C150.274 194.969 149.151 196.057 147.321 196.057ZM147.168 189.881C146.17 189.881 145.684 190.489 145.518 191.436H148.68C148.624 190.517 148.028 189.881 147.168 189.881ZM154.184 196.057C152.395 196.057 151.175 194.573 151.175 192.227C151.175 189.966 152.437 188.398 154.212 188.398C155.21 188.398 155.834 188.864 156.222 189.472H156.264V185.741H158.15V195.845H156.333V194.898H156.306C155.89 195.591 155.182 196.057 154.184 196.057ZM154.6 194.446C155.723 194.446 156.306 193.598 156.306 192.27C156.306 190.885 155.862 189.952 154.656 189.952C153.615 189.952 153.089 190.885 153.089 192.227C153.089 193.626 153.629 194.446 154.6 194.446ZM165.686 195.845H163.869V194.997H163.827C163.342 195.661 162.787 196.043 161.789 196.043C160.208 196.043 159.32 195.011 159.32 193.428V188.595H161.193V193.103C161.193 193.951 161.567 194.418 162.371 194.418C163.259 194.418 163.8 193.739 163.8 192.778V188.595H165.686V195.845ZM170.206 196.057C167.959 196.057 166.559 194.389 166.559 192.227C166.559 190.065 167.945 188.398 170.109 188.398C171.953 188.398 173.09 189.486 173.34 191.054H171.495C171.371 190.418 170.885 189.938 170.192 189.938C169.055 189.938 168.472 190.828 168.472 192.227C168.472 193.598 169.013 194.517 170.164 194.517C170.927 194.517 171.468 194.107 171.592 193.287H173.409C173.284 194.827 172.106 196.057 170.206 196.057ZM178.846 195.845C178.735 195.704 178.666 195.364 178.624 195.039H178.597C178.236 195.591 177.723 196.015 176.503 196.015C175.047 196.015 174.02 195.237 174.02 193.796C174.02 192.199 175.296 191.69 176.877 191.464C178.056 191.295 178.597 191.196 178.597 190.645C178.597 190.122 178.194 189.782 177.404 189.782C176.516 189.782 176.087 190.108 176.031 190.8H174.353C174.409 189.528 175.338 188.412 177.418 188.412C179.553 188.412 180.413 189.387 180.413 191.083V194.771C180.413 195.322 180.496 195.647 180.663 195.774V195.845H178.846ZM176.96 194.672C178.042 194.672 178.638 193.994 178.638 193.287V192.199C178.305 192.397 177.792 192.51 177.321 192.623C176.336 192.849 175.851 193.075 175.851 193.753C175.851 194.432 176.295 194.672 176.96 194.672ZM181.061 189.867V188.595H182.045V186.334H183.89V188.595H185.11V189.867H183.89V193.711C183.89 194.248 184.181 194.432 184.597 194.432C184.833 194.432 185.151 194.418 185.151 194.418V195.831C185.151 195.831 184.722 195.859 183.973 195.859C183.058 195.859 182.045 195.492 182.045 194.121V189.867H181.061ZM186.081 195.845V188.595H187.967V195.845H186.081ZM186.081 187.465V185.741H187.967V187.465H186.081ZM192.552 196.057C190.347 196.057 188.835 194.389 188.835 192.227C188.835 190.065 190.347 188.398 192.552 188.398C194.757 188.398 196.268 190.065 196.268 192.227C196.268 194.389 194.757 196.057 192.552 196.057ZM192.552 194.587C193.703 194.587 194.355 193.64 194.355 192.227C194.355 190.814 193.703 189.853 192.552 189.853C191.387 189.853 190.749 190.814 190.749 192.227C190.749 193.64 191.387 194.587 192.552 194.587ZM198.989 188.595V189.585H199.031C199.516 188.807 200.168 188.398 201.139 188.398C202.609 188.398 203.593 189.528 203.593 191.111V195.845H201.707V191.393C201.707 190.616 201.263 190.065 200.473 190.065C199.641 190.065 199.031 190.743 199.031 191.733V195.845H197.145V188.595H198.989ZM148.082 214.369V204.746H149.898V205.65H149.94C150.398 205.014 151.063 204.548 152.034 204.548C153.92 204.548 155.126 206.117 155.126 208.378C155.126 210.724 153.878 212.207 152.048 212.207C151.049 212.207 150.398 211.798 149.996 211.176H149.968V214.369H148.082ZM151.646 210.61C152.603 210.61 153.213 209.805 153.213 208.434C153.213 207.063 152.741 206.102 151.576 206.102C150.398 206.102 149.926 207.134 149.926 208.434C149.926 209.748 150.522 210.61 151.646 210.61ZM157.821 204.746V205.905H157.862C158.292 205.085 158.777 204.661 159.609 204.661C159.817 204.661 159.942 204.675 160.053 204.718V206.399H160.012C158.777 206.272 157.89 206.936 157.89 208.462V211.995H156.004V204.746H157.821ZM164.032 212.207C161.827 212.207 160.316 210.54 160.316 208.378C160.316 206.216 161.827 204.548 164.032 204.548C166.237 204.548 167.749 206.216 167.749 208.378C167.749 210.54 166.237 212.207 164.032 212.207ZM164.032 210.738C165.183 210.738 165.835 209.791 165.835 208.378C165.835 206.965 165.183 206.004 164.032 206.004C162.867 206.004 162.229 206.965 162.229 208.378C162.229 209.791 162.867 210.738 164.032 210.738ZM171.759 214.468C169.818 214.468 168.625 213.621 168.431 212.207H170.303C170.456 212.66 170.858 213.013 171.731 213.013C172.799 213.013 173.312 212.49 173.312 211.501V210.709H173.271C172.855 211.19 172.314 211.557 171.413 211.557C169.832 211.557 168.279 210.285 168.279 208.095C168.279 205.933 169.554 204.548 171.357 204.548C172.245 204.548 172.896 204.901 173.326 205.509H173.354V204.746H175.171V211.444C175.171 212.462 174.852 213.154 174.325 213.649C173.728 214.214 172.813 214.468 171.759 214.468ZM171.731 210.017C172.924 210.017 173.409 209.127 173.409 208.053C173.409 206.993 172.855 206.088 171.718 206.088C170.761 206.088 170.123 206.851 170.123 208.067C170.123 209.296 170.761 210.017 171.731 210.017ZM178.201 204.746V205.905H178.243C178.673 205.085 179.158 204.661 179.99 204.661C180.198 204.661 180.323 204.675 180.434 204.718V206.399H180.392C179.158 206.272 178.271 206.936 178.271 208.462V211.995H176.385V204.746H178.201ZM185.522 211.995C185.411 211.854 185.342 211.515 185.301 211.19H185.273C184.912 211.741 184.399 212.165 183.179 212.165C181.723 212.165 180.697 211.388 180.697 209.946C180.697 208.349 181.972 207.841 183.553 207.615C184.732 207.445 185.273 207.346 185.273 206.795C185.273 206.272 184.871 205.933 184.08 205.933C183.193 205.933 182.763 206.258 182.707 206.95H181.029C181.085 205.679 182.014 204.562 184.094 204.562C186.23 204.562 187.089 205.537 187.089 207.233V210.921C187.089 211.473 187.173 211.798 187.339 211.925V211.995H185.522ZM183.637 210.822C184.718 210.822 185.314 210.144 185.314 209.438V208.349C184.982 208.547 184.469 208.66 183.997 208.773C183.012 208.999 182.527 209.226 182.527 209.904C182.527 210.582 182.971 210.822 183.637 210.822ZM188.288 211.995V204.746H190.105V205.721H190.147C190.535 205.057 191.228 204.548 192.213 204.548C193.114 204.548 193.835 205.057 194.182 205.82H194.21C194.695 205.028 195.444 204.548 196.345 204.548C197.843 204.548 198.689 205.537 198.689 207.12V211.995H196.803V207.445C196.803 206.625 196.401 206.201 195.707 206.201C194.917 206.201 194.432 206.823 194.432 207.784V211.995H192.546V207.445C192.546 206.625 192.143 206.201 191.45 206.201C190.687 206.201 190.174 206.823 190.174 207.784V211.995H188.288ZM202.738 212.207C200.672 212.207 199.521 211.19 199.41 209.65H201.157C201.282 210.483 201.864 210.851 202.71 210.851C203.542 210.851 204.013 210.526 204.013 210.017C204.013 209.324 203.112 209.254 202.141 209.056C200.866 208.802 199.618 208.448 199.618 206.866C199.618 205.297 200.893 204.548 202.516 204.548C204.388 204.548 205.428 205.495 205.567 206.95H203.861C203.778 206.173 203.292 205.891 202.488 205.891C201.753 205.891 201.268 206.173 201.268 206.696C201.268 207.318 202.211 207.374 203.223 207.586C204.416 207.841 205.733 208.18 205.733 209.876C205.733 211.331 204.513 212.207 202.738 212.207Z" fill="#2D5AA8"/>
</g>
<g clip-path="url(#clip1_766_116)">
<mask id="path-4-inside-2_766_116" fill="white">
<path d="M44.6562 46.1907C50.5601 40.345 56.5755 34.6416 63.2051 29.6498C68.1247 25.9453 73.309 22.7392 79.1483 20.7437C88.5304 17.585 97.3704 19.0476 105.868 23.6196C111.514 26.6581 116.697 30.3964 121.389 34.749C126.974 39.9265 132.476 45.2184 137.767 50.6961C144.202 57.3974 150.147 64.542 154.593 72.845C158.536 80.1795 160.562 87.932 158.99 96.3914C157.857 102.497 155.186 107.95 151.873 113.12C146.354 121.731 139.468 129.148 132.385 136.393C126.677 142.21 120.788 147.813 114.285 152.705C109.337 156.438 104.111 159.659 98.2434 161.654C88.9174 164.813 80.0913 163.336 71.6359 158.807C64.8575 155.186 58.8652 150.452 53.2799 145.188C48.6301 140.793 44.0646 136.283 39.6532 131.645C33.8179 125.527 28.3892 119.023 24.0818 111.66C21.4472 107.175 19.3588 102.445 18.4468 97.2571C17.0235 89.1753 18.8452 81.6564 22.5691 74.5038C25.5764 68.7075 29.3801 63.437 33.6167 58.5505C37.222 54.3642 40.995 50.3201 44.6841 46.2192"/>
</mask>
<path d="M44.6562 46.1907C50.5601 40.345 56.5755 34.6416 63.2051 29.6498C68.1247 25.9453 73.309 22.7392 79.1483 20.7437C88.5304 17.585 97.3704 19.0476 105.868 23.6196C111.514 26.6581 116.697 30.3964 121.389 34.749C126.974 39.9265 132.476 45.2184 137.767 50.6961C144.202 57.3974 150.147 64.542 154.593 72.845C158.536 80.1795 160.562 87.932 158.99 96.3914C157.857 102.497 155.186 107.95 151.873 113.12C146.354 121.731 139.468 129.148 132.385 136.393C126.677 142.21 120.788 147.813 114.285 152.705C109.337 156.438 104.111 159.659 98.2434 161.654C88.9174 164.813 80.0913 163.336 71.6359 158.807C64.8575 155.186 58.8652 150.452 53.2799 145.188C48.6301 140.793 44.0646 136.283 39.6532 131.645C33.8179 125.527 28.3892 119.023 24.0818 111.66C21.4472 107.175 19.3588 102.445 18.4468 97.2571C17.0235 89.1753 18.8452 81.6564 22.5691 74.5038C25.5764 68.7075 29.3801 63.437 33.6167 58.5505C37.222 54.3642 40.995 50.3201 44.6841 46.2192" fill="white"/>
<path d="M63.2051 29.6498L63.7937 30.4616L63.7937 30.4616L63.2051 29.6498ZM79.1483 20.7437L78.8376 19.7852L78.8334 19.7867L79.1483 20.7437ZM105.868 23.6196L106.33 22.727L106.33 22.7269L105.868 23.6196ZM121.389 34.749L120.722 35.4954L120.722 35.4957L121.389 34.749ZM137.767 50.6961L138.475 49.99L138.473 49.988L137.767 50.6961ZM154.593 72.845L153.723 73.3284L153.724 73.33L154.593 72.845ZM158.99 96.3914L158.017 96.2036L158.017 96.2039L158.99 96.3914ZM151.873 113.12L151.043 112.568L151.043 112.568L151.873 113.12ZM132.385 136.393L133.086 137.107L133.087 137.106L132.385 136.393ZM114.285 152.705L113.697 151.893L113.695 151.894L114.285 152.705ZM98.2434 161.654L98.5558 162.612L98.557 162.612L98.2434 161.654ZM71.6359 158.807L72.0967 157.913L72.0957 157.913L71.6359 158.807ZM53.2799 145.188L52.6063 145.928L52.6074 145.93L53.2799 145.188ZM39.6532 131.645L40.3645 130.942L40.3635 130.941L39.6532 131.645ZM24.0818 111.66L24.9326 111.143L24.9317 111.142L24.0818 111.66ZM18.4468 97.2571L19.4218 97.0791L19.4217 97.0788L18.4468 97.2571ZM22.5691 74.5038L23.4441 74.9769L23.4448 74.9756L22.5691 74.5038ZM33.6167 58.5505L34.3589 59.2189L34.3611 59.2164L33.6167 58.5505ZM45.3465 46.9147C51.2437 41.0755 57.2201 35.4113 63.7937 30.4616L62.6164 28.838C55.9309 33.8719 49.8764 39.6145 43.966 45.4667L45.3465 46.9147ZM63.7937 30.4616C68.6686 26.7908 73.759 23.6501 79.4633 21.7007L78.8334 19.7867C72.8591 21.8283 67.5808 25.0998 62.6164 28.838L63.7937 30.4616ZM79.4591 21.7021C88.5386 18.6453 97.0988 20.0429 105.405 24.5122L106.33 22.7269C97.642 18.0523 88.5222 16.5247 78.8376 19.7852L79.4591 21.7021ZM105.405 24.5122C110.976 27.5099 116.09 31.1986 120.722 35.4954L122.056 34.0025C117.304 29.5942 112.052 25.8063 106.33 22.727L105.405 24.5122ZM120.722 35.4957C126.299 40.6652 131.786 45.9437 137.061 51.4042L138.473 49.988C133.165 44.493 127.649 39.1878 122.055 34.0022L120.722 35.4957ZM137.059 51.4021C143.465 58.0729 149.34 65.1414 153.723 73.3284L155.462 72.3615C150.955 63.9425 144.94 56.7219 138.475 49.99L137.059 51.4021ZM153.724 73.33C157.593 80.5252 159.534 88.0382 158.017 96.2036L159.963 96.5792C161.59 87.8257 159.48 79.8339 155.461 72.3599L153.724 73.33ZM158.017 96.2039C156.917 102.131 154.318 107.459 151.043 112.568L152.702 113.672C156.054 108.442 158.797 102.863 159.963 96.579L158.017 96.2039ZM151.043 112.568C145.585 121.086 138.761 128.441 131.684 135.681L133.087 137.106C140.175 129.855 147.124 122.376 152.702 113.672L151.043 112.568ZM131.685 135.68C125.99 141.483 120.142 147.045 113.697 151.893L114.873 153.517C121.435 148.582 127.364 142.938 133.086 137.107L131.685 135.68ZM113.695 151.894C108.794 155.592 103.662 158.747 97.9298 160.697L98.557 162.612C104.56 160.57 109.88 157.284 114.874 153.516L113.695 151.894ZM97.931 160.696C88.9096 163.752 80.3637 162.341 72.0967 157.913L71.175 159.7C79.819 164.33 88.9251 165.874 98.5558 162.612L97.931 160.696ZM72.0957 157.913C65.4187 154.346 59.4974 149.672 53.9524 144.447L52.6074 145.93C58.2331 151.231 64.2964 156.026 71.1761 159.701L72.0957 157.913ZM53.9535 144.448C49.3143 140.063 44.7616 135.566 40.3645 130.942L38.9419 132.347C43.3676 137.001 47.946 141.523 52.6063 145.928L53.9535 144.448ZM40.3635 130.941C34.5562 124.852 29.1852 118.412 24.9326 111.143L23.2311 112.177C27.5933 119.633 33.0796 126.201 38.9429 132.348L40.3635 130.941ZM24.9317 111.142C22.3347 106.72 20.3058 102.108 19.4218 97.0791L17.4718 97.4351C18.4119 102.783 20.5597 107.629 23.232 112.179L24.9317 111.142ZM19.4217 97.0788C18.0474 89.2751 19.7947 81.9864 23.4441 74.9769L21.6941 74.0307C17.8958 81.3263 15.9996 89.0754 17.4719 97.4354L19.4217 97.0788ZM23.4448 74.9756C26.4069 69.2663 30.1608 64.0611 34.3589 59.2189L32.8744 57.8822C28.5994 62.813 24.7458 68.1488 21.6935 74.032L23.4448 74.9756ZM34.3611 59.2164C37.9576 55.0404 41.7083 51.0209 45.4143 46.9013L43.954 45.537C40.2817 49.6193 36.4865 53.6881 32.8722 57.8847L34.3611 59.2164Z" fill="#2D5AA8" mask="url(#path-4-inside-2_766_116)"/>
</g>
<g clip-path="url(#clip2_766_116)">
<mask id="path-6-inside-3_766_116" fill="white">
<path d="M220.547 45.7688C226.451 39.9231 232.466 34.2197 239.096 29.2279C244.015 25.5234 249.2 22.3173 255.039 20.3218C264.421 17.1631 273.261 18.6257 281.758 23.1977C287.405 26.2362 292.588 29.9745 297.279 34.3271C302.865 39.5046 308.366 44.7965 313.657 50.2742C320.093 56.9755 326.038 64.1201 330.483 72.4231C334.427 79.7576 336.452 87.5101 334.881 95.9696C333.748 102.075 331.077 107.528 327.763 112.698C322.245 121.309 315.358 128.726 308.276 135.972C302.568 141.788 296.679 147.392 290.175 152.283C285.228 156.016 280.001 159.237 274.134 161.232C264.808 164.391 255.982 162.914 247.527 158.385C240.748 154.764 234.756 150.03 229.171 144.767C224.521 140.371 219.955 135.861 215.544 131.223C209.709 125.105 204.28 118.601 199.972 111.239C197.338 106.753 195.249 102.024 194.337 96.8352C192.914 88.7534 194.736 81.2345 198.46 74.0819C201.467 68.2857 205.271 63.0152 209.507 58.1287C213.113 53.9424 216.886 49.8982 220.575 45.7973"/>
</mask>
<path d="M220.547 45.7688C226.451 39.9231 232.466 34.2197 239.096 29.2279C244.015 25.5234 249.2 22.3173 255.039 20.3218C264.421 17.1631 273.261 18.6257 281.758 23.1977C287.405 26.2362 292.588 29.9745 297.279 34.3271C302.865 39.5046 308.366 44.7965 313.657 50.2742C320.093 56.9755 326.038 64.1201 330.483 72.4231C334.427 79.7576 336.452 87.5101 334.881 95.9696C333.748 102.075 331.077 107.528 327.763 112.698C322.245 121.309 315.358 128.726 308.276 135.972C302.568 141.788 296.679 147.392 290.175 152.283C285.228 156.016 280.001 159.237 274.134 161.232C264.808 164.391 255.982 162.914 247.527 158.385C240.748 154.764 234.756 150.03 229.171 144.767C224.521 140.371 219.955 135.861 215.544 131.223C209.709 125.105 204.28 118.601 199.972 111.239C197.338 106.753 195.249 102.024 194.337 96.8352C192.914 88.7534 194.736 81.2345 198.46 74.0819C201.467 68.2857 205.271 63.0152 209.507 58.1287C213.113 53.9424 216.886 49.8982 220.575 45.7973" fill="white"/>
<path d="M239.096 29.2279L239.684 30.0398L239.684 30.0397L239.096 29.2279ZM255.039 20.3218L254.728 19.3634L254.724 19.3648L255.039 20.3218ZM281.758 23.1977L282.221 22.3051L282.221 22.3051L281.758 23.1977ZM297.279 34.3271L296.613 35.0735L296.613 35.0738L297.279 34.3271ZM313.657 50.2742L314.365 49.5682L314.363 49.5661L313.657 50.2742ZM330.483 72.4231L329.614 72.9065L329.615 72.9081L330.483 72.4231ZM334.881 95.9696L333.907 95.7818L333.907 95.782L334.881 95.9696ZM327.763 112.698L326.934 112.146L326.934 112.146L327.763 112.698ZM308.276 135.972L308.976 136.685L308.978 136.684L308.276 135.972ZM290.175 152.283L289.587 151.471L289.586 151.472L290.175 152.283ZM274.134 161.232L274.446 162.19L274.448 162.19L274.134 161.232ZM247.527 158.385L247.987 157.491L247.986 157.491L247.527 158.385ZM229.171 144.767L228.497 145.507L228.498 145.508L229.171 144.767ZM215.544 131.223L216.255 130.52L216.254 130.519L215.544 131.223ZM199.972 111.239L200.823 110.722L200.822 110.72L199.972 111.239ZM194.337 96.8352L195.312 96.6572L195.312 96.6569L194.337 96.8352ZM198.46 74.0819L199.335 74.555L199.335 74.5537L198.46 74.0819ZM209.507 58.1287L210.25 58.797L210.252 58.7945L209.507 58.1287ZM221.237 46.4928C227.134 40.6536 233.111 34.9894 239.684 30.0398L238.507 28.4161C231.822 33.45 225.767 39.1926 219.857 45.0449L221.237 46.4928ZM239.684 30.0397C244.559 26.3689 249.65 23.2282 255.354 21.2788L254.724 19.3648C248.75 21.4065 243.471 24.6779 238.507 28.4161L239.684 30.0397ZM255.35 21.2803C264.429 18.2234 272.989 19.6211 281.296 24.0903L282.221 22.3051C273.533 17.6304 264.413 16.1028 254.728 19.3634L255.35 21.2803ZM281.296 24.0903C286.866 27.088 291.981 30.7767 296.613 35.0735L297.946 33.5806C293.194 29.1723 287.943 25.3844 282.221 22.3051L281.296 24.0903ZM296.613 35.0738C302.19 40.2433 307.677 45.5219 312.951 50.9823L314.363 49.5661C309.055 44.0711 303.54 38.7659 297.946 33.5804L296.613 35.0738ZM312.949 50.9802C319.356 57.651 325.231 64.7195 329.614 72.9065L331.353 71.9397C326.845 63.5207 320.83 56.3001 314.365 49.5682L312.949 50.9802ZM329.615 72.9081C333.483 80.1033 335.425 87.6164 333.907 95.7818L335.854 96.1574C337.48 87.4038 335.37 79.412 331.352 71.9381L329.615 72.9081ZM333.907 95.782C332.807 101.709 330.209 107.037 326.934 112.146L328.592 113.25C331.945 108.02 334.688 102.441 335.854 96.1571L333.907 95.782ZM326.934 112.146C321.475 120.664 314.651 128.019 307.574 135.259L308.978 136.684C316.065 129.433 323.015 121.954 328.593 113.25L326.934 112.146ZM307.576 135.258C301.881 141.061 296.032 146.623 289.587 151.471L290.764 153.095C297.325 148.16 303.255 142.516 308.976 136.685L307.576 135.258ZM289.586 151.472C284.684 155.17 279.552 158.325 273.82 160.275L274.448 162.19C280.45 160.148 285.771 156.862 290.765 153.095L289.586 151.472ZM273.822 160.274C264.8 163.33 256.254 161.92 247.987 157.491L247.066 159.278C255.71 163.908 264.816 165.452 274.446 162.19L273.822 160.274ZM247.986 157.491C241.309 153.924 235.388 149.251 229.843 144.025L228.498 145.508C234.124 150.809 240.187 155.604 247.067 159.279L247.986 157.491ZM229.844 144.026C225.205 139.641 220.652 135.144 216.255 130.52L214.833 131.925C219.258 136.579 223.837 141.101 228.497 145.507L229.844 144.026ZM216.254 130.519C210.447 124.431 205.076 117.99 200.823 110.722L199.122 111.755C203.484 119.211 208.97 125.779 214.834 131.926L216.254 130.519ZM200.822 110.72C198.225 106.298 196.196 101.686 195.312 96.6572L193.362 97.0132C194.302 102.361 196.45 107.207 199.123 111.757L200.822 110.72ZM195.312 96.6569C193.938 88.8532 195.685 81.5645 199.335 74.555L197.585 73.6088C193.786 80.9044 191.89 88.6536 193.363 97.0135L195.312 96.6569ZM199.335 74.5537C202.298 68.8444 206.051 63.6392 210.25 58.797L208.765 57.4603C204.49 62.3911 200.636 67.7269 197.584 73.6101L199.335 74.5537ZM210.252 58.7945C213.848 54.6185 217.599 50.599 221.305 46.4794L219.845 45.1152C216.172 49.1975 212.377 53.2662 208.763 57.4628L210.252 58.7945Z" fill="#2D5AA8" mask="url(#path-6-inside-3_766_116)"/>
<path d="M220.728 79.9265C217.802 79.9265 215.944 77.6937 215.944 74.6695C215.944 71.6453 217.802 69.3984 220.728 69.3984C223.654 69.3984 225.499 71.6453 225.499 74.6695C225.499 77.6937 223.654 79.9265 220.728 79.9265ZM220.742 78.2448C222.559 78.2448 223.446 76.6762 223.446 74.6695C223.446 72.6487 222.559 71.0801 220.742 71.0801C218.926 71.0801 217.996 72.6487 217.996 74.6695C217.996 76.6762 218.926 78.2448 220.742 78.2448ZM226.446 82.0745V72.4508H228.262V73.3552H228.304C228.762 72.7193 229.427 72.253 230.398 72.253C232.284 72.253 233.49 73.8216 233.49 76.0826C233.49 78.4285 232.242 79.9123 230.412 79.9123C229.413 79.9123 228.762 79.5025 228.359 78.8807H228.332V82.0745H226.446ZM230.01 78.3154C230.966 78.3154 231.577 77.5099 231.577 76.1392C231.577 74.7684 231.105 73.8075 229.94 73.8075C228.762 73.8075 228.29 74.8391 228.29 76.1392C228.29 77.4534 228.886 78.3154 230.01 78.3154ZM237.71 79.9123C235.352 79.9123 234.021 78.2307 234.021 76.0685C234.021 73.9205 235.45 72.253 237.53 72.253C239.818 72.253 241.038 74.0336 241.038 76.6197H235.879C236.018 77.736 236.628 78.4285 237.696 78.4285C238.431 78.4285 238.861 78.0893 239.069 77.5382H240.927C240.664 78.8242 239.54 79.9123 237.71 79.9123ZM237.557 73.7368C236.559 73.7368 236.074 74.3445 235.907 75.2913H239.069C239.013 74.3727 238.417 73.7368 237.557 73.7368ZM243.727 72.4508V73.6096H243.769C244.199 72.79 244.684 72.366 245.516 72.366C245.724 72.366 245.849 72.3802 245.96 72.4226V74.1042H245.918C244.684 73.977 243.797 74.6412 243.797 76.1674V79.7003H241.911V72.4508H243.727ZM251.048 79.7003C250.937 79.559 250.868 79.2199 250.827 78.8948H250.799C250.438 79.446 249.925 79.8699 248.705 79.8699C247.249 79.8699 246.223 79.0927 246.223 77.6513C246.223 76.0544 247.498 75.5456 249.079 75.3195C250.258 75.15 250.799 75.051 250.799 74.4999C250.799 73.977 250.397 73.6379 249.606 73.6379C248.719 73.6379 248.289 73.9629 248.233 74.6554H246.555C246.611 73.3835 247.54 72.2671 249.62 72.2671C251.756 72.2671 252.615 73.2422 252.615 74.938V78.6263C252.615 79.1775 252.699 79.5025 252.865 79.6297V79.7003H251.048ZM249.163 78.5274C250.244 78.5274 250.84 77.8491 250.84 77.1425V76.0544C250.508 76.2522 249.995 76.3653 249.523 76.4783C248.538 76.7044 248.053 76.9305 248.053 77.6089C248.053 78.2872 248.497 78.5274 249.163 78.5274ZM253.263 73.7227V72.4508H254.248V70.1898H256.092V72.4508H257.312V73.7227H256.092V77.5665C256.092 78.1035 256.383 78.2872 256.799 78.2872C257.035 78.2872 257.354 78.2731 257.354 78.2731V79.6862C257.354 79.6862 256.924 79.7145 256.175 79.7145C255.26 79.7145 254.248 79.3471 254.248 77.9763V73.7227H253.263ZM258.283 79.7003V72.4508H260.169V79.7003H258.283ZM258.283 71.3203V69.5962H260.169V71.3203H258.283ZM264.754 79.9123C262.549 79.9123 261.038 78.2448 261.038 76.0826C261.038 73.9205 262.549 72.253 264.754 72.253C266.959 72.253 268.471 73.9205 268.471 76.0826C268.471 78.2448 266.959 79.9123 264.754 79.9123ZM264.754 78.4426C265.905 78.4426 266.557 77.4958 266.557 76.0826C266.557 74.6695 265.905 73.7085 264.754 73.7085C263.589 73.7085 262.951 74.6695 262.951 76.0826C262.951 77.4958 263.589 78.4426 264.754 78.4426ZM271.192 72.4508V73.44H271.233C271.718 72.6628 272.37 72.253 273.341 72.253C274.811 72.253 275.795 73.3835 275.795 74.9663V79.7003H273.909V75.2489C273.909 74.4716 273.466 73.9205 272.675 73.9205C271.843 73.9205 271.233 74.5988 271.233 75.588V79.7003H269.347V72.4508H271.192ZM282.657 79.9123C280.452 79.9123 278.94 78.2448 278.94 76.0826C278.94 73.9205 280.452 72.253 282.657 72.253C284.862 72.253 286.373 73.9205 286.373 76.0826C286.373 78.2448 284.862 79.9123 282.657 79.9123ZM282.657 78.4426C283.808 78.4426 284.46 77.4958 284.46 76.0826C284.46 74.6695 283.808 73.7085 282.657 73.7085C281.492 73.7085 280.854 74.6695 280.854 76.0826C280.854 77.4958 281.492 78.4426 282.657 78.4426ZM286.698 73.7792V72.4508H287.669V71.8008C287.669 70.0343 289.014 69.4125 290.831 69.6104V71.0942C289.943 71.0518 289.555 71.1648 289.555 71.9138V72.4508H290.831V73.7792H289.555V79.7003H287.669V73.7792H286.698ZM293.605 73.7227V72.4508H294.589V70.1898H296.434V72.4508H297.654V73.7227H296.434V77.5665C296.434 78.1035 296.725 78.2872 297.141 78.2872C297.377 78.2872 297.696 78.2731 297.696 78.2731V79.6862C297.696 79.6862 297.266 79.7145 296.517 79.7145C295.602 79.7145 294.589 79.3471 294.589 77.9763V73.7227H293.605ZM300.511 69.5962V73.3976H300.553C301.066 72.6345 301.648 72.253 302.619 72.253C304.089 72.253 305.073 73.3835 305.073 74.9663V79.7003H303.188V75.2489C303.188 74.4716 302.744 73.9205 301.953 73.9205C301.121 73.9205 300.511 74.5988 300.511 75.588V79.7003H298.625V69.5962H300.511ZM309.578 79.9123C307.22 79.9123 305.889 78.2307 305.889 76.0685C305.889 73.9205 307.318 72.253 309.398 72.253C311.686 72.253 312.906 74.0336 312.906 76.6197H307.747C307.886 77.736 308.496 78.4285 309.564 78.4285C310.299 78.4285 310.729 78.0893 310.937 77.5382H312.795C312.532 78.8242 311.408 79.9123 309.578 79.9123ZM309.425 73.7368C308.427 73.7368 307.942 74.3445 307.775 75.2913H310.937C310.881 74.3727 310.285 73.7368 309.425 73.7368ZM230.983 95.8508L234.436 85.7467H236.516L240.01 95.8508H237.916L237.251 93.7028H233.673L233.021 95.8508H230.983ZM235.032 89.223L234.144 92.1342H236.765L235.878 89.223C235.711 88.686 235.476 87.6686 235.476 87.6686H235.448C235.448 87.6686 235.198 88.686 235.032 89.223ZM243.722 96.0627C241.475 96.0627 240.075 94.3952 240.075 92.2331C240.075 90.0709 241.461 88.4034 243.625 88.4034C245.469 88.4034 246.606 89.4915 246.856 91.0602H245.011C244.886 90.4242 244.401 89.9438 243.708 89.9438C242.571 89.9438 241.988 90.834 241.988 92.2331C241.988 93.6038 242.529 94.5224 243.68 94.5224C244.443 94.5224 244.984 94.1126 245.108 93.2929H246.925C246.8 94.8333 245.621 96.0627 243.722 96.0627ZM252.362 95.8508C252.251 95.7095 252.182 95.3703 252.14 95.0453H252.112C251.752 95.5964 251.239 96.0203 250.018 96.0203C248.562 96.0203 247.536 95.2431 247.536 93.8017C247.536 92.2048 248.812 91.6961 250.393 91.47C251.572 91.3004 252.112 91.2015 252.112 90.6503C252.112 90.1275 251.71 89.7883 250.92 89.7883C250.032 89.7883 249.602 90.1133 249.547 90.8058H247.869C247.925 89.5339 248.854 88.4175 250.934 88.4175C253.069 88.4175 253.929 89.3926 253.929 91.0884V94.7768C253.929 95.3279 254.012 95.6529 254.179 95.7801V95.8508H252.362ZM250.476 94.6778C251.558 94.6778 252.154 93.9995 252.154 93.2929V92.2048C251.821 92.4027 251.308 92.5157 250.837 92.6288C249.852 92.8549 249.367 93.081 249.367 93.7593C249.367 94.4376 249.81 94.6778 250.476 94.6778ZM257.79 96.0627C256.002 96.0627 254.781 94.5789 254.781 92.2331C254.781 89.972 256.043 88.4034 257.818 88.4034C258.817 88.4034 259.441 88.8697 259.829 89.4774H259.871V85.7467H261.756V95.8508H259.94V94.904H259.912C259.496 95.5964 258.789 96.0627 257.79 96.0627ZM258.206 94.4517C259.33 94.4517 259.912 93.6038 259.912 92.2755C259.912 90.8906 259.468 89.9579 258.262 89.9579C257.222 89.9579 256.695 90.8906 256.695 92.2331C256.695 93.6321 257.236 94.4517 258.206 94.4517ZM266.324 96.0627C263.967 96.0627 262.636 94.3811 262.636 92.2189C262.636 90.0709 264.064 88.4034 266.144 88.4034C268.432 88.4034 269.652 90.184 269.652 92.7701H264.494C264.633 93.8865 265.243 94.5789 266.311 94.5789C267.045 94.5789 267.475 94.2398 267.683 93.6886H269.542C269.278 94.9746 268.155 96.0627 266.324 96.0627ZM266.172 89.8872C265.173 89.8872 264.688 90.4949 264.522 91.4417H267.683C267.628 90.5231 267.032 89.8872 266.172 89.8872ZM270.525 95.8508V88.6012H272.342V89.5763H272.384C272.772 88.9121 273.465 88.4034 274.45 88.4034C275.351 88.4034 276.072 88.9121 276.419 89.6753H276.447C276.932 88.8839 277.681 88.4034 278.582 88.4034C280.08 88.4034 280.926 89.3926 280.926 90.9754V95.8508H279.04V91.3004C279.04 90.4808 278.638 90.0568 277.944 90.0568C277.154 90.0568 276.668 90.6786 276.668 91.6395V95.8508H274.783V91.3004C274.783 90.4808 274.38 90.0568 273.687 90.0568C272.924 90.0568 272.411 90.6786 272.411 91.6395V95.8508H270.525ZM282.09 95.8508V88.6012H283.976V95.8508H282.09ZM282.09 87.4707V85.7467H283.976V87.4707H282.09ZM288.492 96.0627C286.245 96.0627 284.845 94.3952 284.845 92.2331C284.845 90.0709 286.232 88.4034 288.395 88.4034C290.239 88.4034 291.376 89.4915 291.626 91.0602H289.781C289.657 90.4242 289.171 89.9438 288.478 89.9438C287.341 89.9438 286.758 90.834 286.758 92.2331C286.758 93.6038 287.299 94.5224 288.45 94.5224C289.213 94.5224 289.754 94.1126 289.879 93.2929H291.695C291.57 94.8333 290.392 96.0627 288.492 96.0627ZM216.594 112.001L220.047 101.897H222.127L225.622 112.001H223.528L222.862 109.853H219.284L218.633 112.001H216.594ZM220.643 105.373L219.756 108.285H222.377L221.489 105.373C221.323 104.836 221.087 103.819 221.087 103.819H221.059C221.059 103.819 220.81 104.836 220.643 105.373ZM228.695 112.213C226.906 112.213 225.686 110.729 225.686 108.383C225.686 106.122 226.948 104.554 228.723 104.554C229.721 104.554 230.345 105.02 230.734 105.628H230.775V101.897H232.661V112.001H230.845V111.054H230.817C230.401 111.747 229.694 112.213 228.695 112.213ZM229.111 110.602C230.234 110.602 230.817 109.754 230.817 108.426C230.817 107.041 230.373 106.108 229.167 106.108C228.127 106.108 227.6 107.041 227.6 108.383C227.6 109.783 228.141 110.602 229.111 110.602ZM235.773 112.001L233.305 104.752H235.218L236.356 108.511C236.564 109.203 236.674 109.669 236.674 109.669H236.702C236.702 109.669 236.799 109.203 237.007 108.511L238.172 104.752H240.058L237.576 112.001H235.773ZM240.699 112.001V104.752H242.585V112.001H240.699ZM240.699 103.621V101.897H242.585V103.621H240.699ZM246.684 112.213C244.618 112.213 243.467 111.196 243.356 109.655H245.103C245.228 110.489 245.811 110.857 246.657 110.857C247.489 110.857 247.96 110.532 247.96 110.023C247.96 109.33 247.059 109.26 246.088 109.062C244.812 108.807 243.564 108.454 243.564 106.871C243.564 105.303 244.84 104.554 246.462 104.554C248.335 104.554 249.375 105.501 249.513 106.956H247.808C247.724 106.179 247.239 105.896 246.435 105.896C245.7 105.896 245.214 106.179 245.214 106.702C245.214 107.324 246.157 107.38 247.17 107.592C248.362 107.846 249.68 108.186 249.68 109.881C249.68 111.337 248.459 112.213 246.684 112.213ZM250.53 112.001V104.752H252.416V112.001H250.53ZM250.53 103.621V101.897H252.416V103.621H250.53ZM255.476 104.752V105.741H255.517C256.003 104.964 256.655 104.554 257.625 104.554C259.095 104.554 260.08 105.684 260.08 107.267V112.001H258.194V107.55C258.194 106.772 257.75 106.221 256.96 106.221C256.128 106.221 255.517 106.9 255.517 107.889V112.001H253.632V104.752H255.476ZM264.376 114.474C262.435 114.474 261.242 113.626 261.048 112.213H262.92C263.073 112.665 263.475 113.019 264.348 113.019C265.416 113.019 265.929 112.496 265.929 111.507V110.715H265.888C265.472 111.196 264.931 111.563 264.03 111.563C262.449 111.563 260.896 110.291 260.896 108.101C260.896 105.939 262.171 104.554 263.974 104.554C264.862 104.554 265.513 104.907 265.943 105.515H265.971V104.752H267.788V111.45C267.788 112.468 267.469 113.16 266.942 113.655C266.345 114.22 265.43 114.474 264.376 114.474ZM264.348 110.023C265.541 110.023 266.026 109.132 266.026 108.058C266.026 106.999 265.472 106.094 264.335 106.094C263.378 106.094 262.74 106.857 262.74 108.073C262.74 109.302 263.378 110.023 264.348 110.023ZM275.824 112.213C273.037 112.213 271.054 110.023 271.054 106.984C271.054 103.989 272.884 101.699 275.81 101.699C278.251 101.699 279.693 103.183 279.901 105.105H277.904C277.724 104.087 276.975 103.423 275.81 103.423C273.98 103.423 273.106 104.978 273.106 106.984C273.106 109.048 274.16 110.532 275.824 110.532C277.003 110.532 277.835 109.811 277.96 108.751H279.929C279.873 109.641 279.499 110.503 278.833 111.139C278.154 111.789 277.197 112.213 275.824 112.213ZM284.22 112.213C281.863 112.213 280.532 110.532 280.532 108.369C280.532 106.221 281.96 104.554 284.04 104.554C286.328 104.554 287.548 106.334 287.548 108.921H282.39C282.528 110.037 283.139 110.729 284.206 110.729C284.941 110.729 285.371 110.39 285.579 109.839H287.437C287.174 111.125 286.051 112.213 284.22 112.213ZM284.068 106.038C283.069 106.038 282.584 106.645 282.418 107.592H285.579C285.524 106.674 284.928 106.038 284.068 106.038ZM290.266 104.752V105.741H290.307C290.793 104.964 291.444 104.554 292.415 104.554C293.885 104.554 294.869 105.684 294.869 107.267V112.001H292.984V107.55C292.984 106.772 292.54 106.221 291.749 106.221C290.917 106.221 290.307 106.9 290.307 107.889V112.001H288.421V104.752H290.266ZM295.481 106.024V104.752H296.465V102.491H298.309V104.752H299.53V106.024H298.309V109.867C298.309 110.404 298.601 110.588 299.017 110.588C299.252 110.588 299.571 110.574 299.571 110.574V111.987C299.571 111.987 299.141 112.015 298.393 112.015C297.477 112.015 296.465 111.648 296.465 110.277V106.024H295.481ZM303.775 112.213C301.418 112.213 300.086 110.532 300.086 108.369C300.086 106.221 301.515 104.554 303.595 104.554C305.883 104.554 307.103 106.334 307.103 108.921H301.945C302.083 110.037 302.693 110.729 303.761 110.729C304.496 110.729 304.926 110.39 305.134 109.839H306.992C306.729 111.125 305.606 112.213 303.775 112.213ZM303.623 106.038C302.624 106.038 302.139 106.645 301.972 107.592H305.134C305.079 106.674 304.482 106.038 303.623 106.038ZM309.793 104.752V105.91H309.834C310.264 105.091 310.75 104.667 311.582 104.667C311.79 104.667 311.914 104.681 312.025 104.723V106.405H311.984C310.75 106.278 309.862 106.942 309.862 108.468V112.001H307.976V104.752H309.793Z" fill="#2D5AA8"/>
</g>
<path d="M39.5737 80V69.99H43.4797C46.1537 69.99 47.8757 72.146 47.8757 75.1C47.8757 76.724 47.3297 78.152 46.2797 79.034C45.5377 79.65 44.5717 80 43.3117 80H39.5737ZM41.6037 78.25H43.1717C45.0757 78.25 45.8177 77.088 45.8177 75.1C45.8177 73.112 44.9497 71.726 43.2277 71.726H41.6037V78.25ZM52.2 80.21C49.82 80.21 48.476 78.544 48.476 76.402C48.476 74.274 49.918 72.622 52.018 72.622C54.328 72.622 55.56 74.386 55.56 76.948H50.352C50.492 78.054 51.108 78.74 52.186 78.74C52.928 78.74 53.362 78.404 53.572 77.858H55.448C55.182 79.132 54.048 80.21 52.2 80.21ZM52.046 74.092C51.038 74.092 50.548 74.694 50.38 75.632H53.572C53.516 74.722 52.914 74.092 52.046 74.092ZM58.2085 80L55.7165 72.818H57.6485L58.7965 76.542C59.0065 77.228 59.1185 77.69 59.1185 77.69H59.1465C59.1465 77.69 59.2445 77.228 59.4545 76.542L60.6305 72.818H62.5345L60.0285 80H58.2085ZM66.3504 80.21C63.9704 80.21 62.6264 78.544 62.6264 76.402C62.6264 74.274 64.0684 72.622 66.1684 72.622C68.4784 72.622 69.7104 74.386 69.7104 76.948H64.5024C64.6424 78.054 65.2584 78.74 66.3364 78.74C67.0784 78.74 67.5124 78.404 67.7224 77.858H69.5984C69.3324 79.132 68.1984 80.21 66.3504 80.21ZM66.1964 74.092C65.1884 74.092 64.6984 74.694 64.5304 75.632H67.7224C67.6664 74.722 67.0644 74.092 66.1964 74.092ZM70.6196 80V69.99H72.5236V80H70.6196ZM77.1791 80.21C74.9531 80.21 73.4271 78.558 73.4271 76.416C73.4271 74.274 74.9531 72.622 77.1791 72.622C79.4051 72.622 80.9311 74.274 80.9311 76.416C80.9311 78.558 79.4051 80.21 77.1791 80.21ZM77.1791 78.754C78.3411 78.754 78.9991 77.816 78.9991 76.416C78.9991 75.016 78.3411 74.064 77.1791 74.064C76.0031 74.064 75.3591 75.016 75.3591 76.416C75.3591 77.816 76.0031 78.754 77.1791 78.754ZM81.8162 82.352V72.818H83.6502V73.714H83.6922C84.1542 73.084 84.8262 72.622 85.8062 72.622C87.7102 72.622 88.9282 74.176 88.9282 76.416C88.9282 78.74 87.6682 80.21 85.8202 80.21C84.8122 80.21 84.1542 79.804 83.7482 79.188H83.7202V82.352H81.8162ZM85.4142 78.628C86.3802 78.628 86.9962 77.83 86.9962 76.472C86.9962 75.114 86.5202 74.162 85.3442 74.162C84.1542 74.162 83.6782 75.184 83.6782 76.472C83.6782 77.774 84.2802 78.628 85.4142 78.628ZM89.8142 80V72.818H91.6482V73.784H91.6902C92.0822 73.126 92.7822 72.622 93.7762 72.622C94.6862 72.622 95.4142 73.126 95.7642 73.882H95.7922C96.2822 73.098 97.0382 72.622 97.9482 72.622C99.4602 72.622 100.314 73.602 100.314 75.17V80H98.4102V75.492C98.4102 74.68 98.0042 74.26 97.3042 74.26C96.5062 74.26 96.0162 74.876 96.0162 75.828V80H94.1122V75.492C94.1122 74.68 93.7062 74.26 93.0062 74.26C92.2362 74.26 91.7182 74.876 91.7182 75.828V80H89.8142ZM104.864 80.21C102.484 80.21 101.14 78.544 101.14 76.402C101.14 74.274 102.582 72.622 104.682 72.622C106.992 72.622 108.224 74.386 108.224 76.948H103.016C103.156 78.054 103.772 78.74 104.85 78.74C105.592 78.74 106.026 78.404 106.236 77.858H108.112C107.846 79.132 106.712 80.21 104.864 80.21ZM104.71 74.092C103.702 74.092 103.212 74.694 103.044 75.632H106.236C106.18 74.722 105.578 74.092 104.71 74.092ZM110.967 72.818V73.798H111.009C111.499 73.028 112.157 72.622 113.137 72.622C114.621 72.622 115.615 73.742 115.615 75.31V80H113.711V75.59C113.711 74.82 113.263 74.274 112.465 74.274C111.625 74.274 111.009 74.946 111.009 75.926V80H109.105V72.818H110.967ZM116.232 74.078V72.818H117.226V70.578H119.088V72.818H120.32V74.078H119.088V77.886C119.088 78.418 119.382 78.6 119.802 78.6C120.04 78.6 120.362 78.586 120.362 78.586V79.986C120.362 79.986 119.928 80.014 119.172 80.014C118.248 80.014 117.226 79.65 117.226 78.292V74.078H116.232ZM127.054 80.21C124.828 80.21 123.302 78.558 123.302 76.416C123.302 74.274 124.828 72.622 127.054 72.622C129.28 72.622 130.806 74.274 130.806 76.416C130.806 78.558 129.28 80.21 127.054 80.21ZM127.054 78.754C128.216 78.754 128.874 77.816 128.874 76.416C128.874 75.016 128.216 74.064 127.054 74.064C125.878 74.064 125.234 75.016 125.234 76.416C125.234 77.816 125.878 78.754 127.054 78.754ZM131.134 74.134V72.818H132.114V72.174C132.114 70.424 133.472 69.808 135.306 70.004V71.474C134.41 71.432 134.018 71.544 134.018 72.286V72.818H135.306V74.134H134.018V80H132.114V74.134H131.134ZM35.4548 96.21C33.3688 96.21 32.2068 95.202 32.0948 93.676H33.8588C33.9848 94.502 34.5728 94.866 35.4268 94.866C36.2668 94.866 36.7428 94.544 36.7428 94.04C36.7428 93.354 35.8328 93.284 34.8528 93.088C33.5648 92.836 32.3048 92.486 32.3048 90.918C32.3048 89.364 33.5928 88.622 35.2308 88.622C37.1208 88.622 38.1708 89.56 38.3108 91.002H36.5888C36.5048 90.232 36.0148 89.952 35.2028 89.952C34.4608 89.952 33.9708 90.232 33.9708 90.75C33.9708 91.366 34.9228 91.422 35.9448 91.632C37.1488 91.884 38.4788 92.22 38.4788 93.9C38.4788 95.342 37.2468 96.21 35.4548 96.21ZM38.781 90.078V88.818H39.775V86.578H41.637V88.818H42.869V90.078H41.637V93.886C41.637 94.418 41.931 94.6 42.351 94.6C42.589 94.6 42.911 94.586 42.911 94.586V95.986C42.911 95.986 42.477 96.014 41.721 96.014C40.797 96.014 39.775 95.65 39.775 94.292V90.078H38.781ZM50.2194 96H48.3854V95.16H48.3434C47.8534 95.818 47.2934 96.196 46.2854 96.196C44.6894 96.196 43.7934 95.174 43.7934 93.606V88.818H45.6834V93.284C45.6834 94.124 46.0614 94.586 46.8734 94.586C47.7694 94.586 48.3154 93.914 48.3154 92.962V88.818H50.2194V96ZM54.139 96.21C52.333 96.21 51.101 94.74 51.101 92.416C51.101 90.176 52.375 88.622 54.167 88.622C55.175 88.622 55.805 89.084 56.197 89.686H56.239V85.99H58.143V96H56.309V95.062H56.281C55.861 95.748 55.147 96.21 54.139 96.21ZM54.559 94.614C55.693 94.614 56.281 93.774 56.281 92.458C56.281 91.086 55.833 90.162 54.615 90.162C53.565 90.162 53.033 91.086 53.033 92.416C53.033 93.802 53.579 94.614 54.559 94.614ZM62.7546 96.21C60.3746 96.21 59.0306 94.544 59.0306 92.402C59.0306 90.274 60.4726 88.622 62.5726 88.622C64.8826 88.622 66.1146 90.386 66.1146 92.948H60.9066C61.0466 94.054 61.6626 94.74 62.7406 94.74C63.4826 94.74 63.9166 94.404 64.1266 93.858H66.0026C65.7366 95.132 64.6026 96.21 62.7546 96.21ZM62.6006 90.092C61.5926 90.092 61.1026 90.694 60.9346 91.632H64.1266C64.0706 90.722 63.4686 90.092 62.6006 90.092ZM68.8579 88.818V89.798H68.8999C69.3899 89.028 70.0479 88.622 71.0279 88.622C72.5119 88.622 73.5059 89.742 73.5059 91.31V96H71.6019V91.59C71.6019 90.82 71.1539 90.274 70.3559 90.274C69.5159 90.274 68.8999 90.946 68.8999 91.926V96H66.9959V88.818H68.8579ZM74.1228 90.078V88.818H75.1168V86.578H76.9788V88.818H78.2108V90.078H76.9788V93.886C76.9788 94.418 77.2728 94.6 77.6928 94.6C77.9308 94.6 78.2528 94.586 78.2528 94.586V95.986C78.2528 95.986 77.8188 96.014 77.0628 96.014C76.1388 96.014 75.1168 95.65 75.1168 94.292V90.078H74.1228ZM78.9828 93.354V91.716H82.7768V93.354H78.9828ZM83.867 98.352V88.818H85.701V89.714H85.743C86.205 89.084 86.877 88.622 87.857 88.622C89.761 88.622 90.979 90.176 90.979 92.416C90.979 94.74 89.719 96.21 87.871 96.21C86.863 96.21 86.205 95.804 85.799 95.188H85.771V98.352H83.867ZM87.465 94.628C88.431 94.628 89.047 93.83 89.047 92.472C89.047 91.114 88.571 90.162 87.395 90.162C86.205 90.162 85.729 91.184 85.729 92.472C85.729 93.774 86.331 94.628 87.465 94.628ZM93.699 88.818V89.966H93.741C94.175 89.154 94.665 88.734 95.505 88.734C95.715 88.734 95.841 88.748 95.953 88.79V90.456H95.911C94.665 90.33 93.769 90.988 93.769 92.5V96H91.865V88.818H93.699ZM99.9701 96.21C97.7441 96.21 96.2181 94.558 96.2181 92.416C96.2181 90.274 97.7441 88.622 99.9701 88.622C102.196 88.622 103.722 90.274 103.722 92.416C103.722 94.558 102.196 96.21 99.9701 96.21ZM99.9701 94.754C101.132 94.754 101.79 93.816 101.79 92.416C101.79 91.016 101.132 90.064 99.9701 90.064C98.7941 90.064 98.1501 91.016 98.1501 92.416C98.1501 93.816 98.7941 94.754 99.9701 94.754ZM104.607 98.352V88.818H106.441V89.714H106.483C106.945 89.084 107.617 88.622 108.597 88.622C110.501 88.622 111.719 90.176 111.719 92.416C111.719 94.74 110.459 96.21 108.611 96.21C107.603 96.21 106.945 95.804 106.539 95.188H106.511V98.352H104.607ZM108.205 94.628C109.171 94.628 109.787 93.83 109.787 92.472C109.787 91.114 109.311 90.162 108.135 90.162C106.945 90.162 106.469 91.184 106.469 92.472C106.469 93.774 107.071 94.628 108.205 94.628ZM116.007 96.21C113.781 96.21 112.255 94.558 112.255 92.416C112.255 90.274 113.781 88.622 116.007 88.622C118.233 88.622 119.759 90.274 119.759 92.416C119.759 94.558 118.233 96.21 116.007 96.21ZM116.007 94.754C117.169 94.754 117.827 93.816 117.827 92.416C117.827 91.016 117.169 90.064 116.007 90.064C114.831 90.064 114.187 91.016 114.187 92.416C114.187 93.816 114.831 94.754 116.007 94.754ZM123.556 96.21C121.47 96.21 120.308 95.202 120.196 93.676H121.96C122.086 94.502 122.674 94.866 123.528 94.866C124.368 94.866 124.844 94.544 124.844 94.04C124.844 93.354 123.934 93.284 122.954 93.088C121.666 92.836 120.406 92.486 120.406 90.918C120.406 89.364 121.694 88.622 123.332 88.622C125.222 88.622 126.272 89.56 126.412 91.002H124.69C124.606 90.232 124.116 89.952 123.304 89.952C122.562 89.952 122.072 90.232 122.072 90.75C122.072 91.366 123.024 91.422 124.046 91.632C125.25 91.884 126.58 92.22 126.58 93.9C126.58 95.342 125.348 96.21 123.556 96.21ZM130.882 96.21C128.502 96.21 127.158 94.544 127.158 92.402C127.158 90.274 128.6 88.622 130.7 88.622C133.01 88.622 134.242 90.386 134.242 92.948H129.034C129.174 94.054 129.79 94.74 130.868 94.74C131.61 94.74 132.044 94.404 132.254 93.858H134.13C133.864 95.132 132.73 96.21 130.882 96.21ZM130.728 90.092C129.72 90.092 129.23 90.694 129.062 91.632H132.254C132.198 90.722 131.596 90.092 130.728 90.092ZM137.811 96.21C136.005 96.21 134.773 94.74 134.773 92.416C134.773 90.176 136.047 88.622 137.839 88.622C138.847 88.622 139.477 89.084 139.869 89.686H139.911V85.99H141.815V96H139.981V95.062H139.953C139.533 95.748 138.819 96.21 137.811 96.21ZM138.231 94.614C139.365 94.614 139.953 93.774 139.953 92.458C139.953 91.086 139.505 90.162 138.287 90.162C137.237 90.162 136.705 91.086 136.705 92.416C136.705 93.802 137.251 94.614 138.231 94.614ZM68.3386 112.21C66.0706 112.21 64.6566 110.558 64.6566 108.416C64.6566 106.274 66.0566 104.622 68.2406 104.622C70.1026 104.622 71.2506 105.7 71.5026 107.254H69.6406C69.5146 106.624 69.0246 106.148 68.3246 106.148C67.1766 106.148 66.5886 107.03 66.5886 108.416C66.5886 109.774 67.1346 110.684 68.2966 110.684C69.0666 110.684 69.6126 110.278 69.7386 109.466H71.5726C71.4466 110.992 70.2566 112.21 68.3386 112.21ZM75.8051 112.21C73.5791 112.21 72.0531 110.558 72.0531 108.416C72.0531 106.274 73.5791 104.622 75.8051 104.622C78.0311 104.622 79.5571 106.274 79.5571 108.416C79.5571 110.558 78.0311 112.21 75.8051 112.21ZM75.8051 110.754C76.9671 110.754 77.6251 109.816 77.6251 108.416C77.6251 107.016 76.9671 106.064 75.8051 106.064C74.6291 106.064 73.9851 107.016 73.9851 108.416C73.9851 109.816 74.6291 110.754 75.8051 110.754ZM86.8122 112H84.9782V111.16H84.9362C84.4462 111.818 83.8862 112.196 82.8782 112.196C81.2822 112.196 80.3862 111.174 80.3862 109.606V104.818H82.2762V109.284C82.2762 110.124 82.6542 110.586 83.4662 110.586C84.3622 110.586 84.9082 109.914 84.9082 108.962V104.818H86.8122V112ZM89.8777 104.818V105.966H89.9197C90.3537 105.154 90.8437 104.734 91.6837 104.734C91.8937 104.734 92.0197 104.748 92.1317 104.79V106.456H92.0897C90.8437 106.33 89.9477 106.988 89.9477 108.5V112H88.0437V104.818H89.8777ZM95.8639 112.21C93.7779 112.21 92.6159 111.202 92.5039 109.676H94.2679C94.3939 110.502 94.9819 110.866 95.8359 110.866C96.6759 110.866 97.1519 110.544 97.1519 110.04C97.1519 109.354 96.2419 109.284 95.2619 109.088C93.9739 108.836 92.7139 108.486 92.7139 106.918C92.7139 105.364 94.0019 104.622 95.6399 104.622C97.5299 104.622 98.5799 105.56 98.7199 107.002H96.9979C96.9139 106.232 96.4239 105.952 95.6119 105.952C94.8699 105.952 94.3799 106.232 94.3799 106.75C94.3799 107.366 95.3319 107.422 96.3539 107.632C97.5579 107.884 98.8879 108.22 98.8879 109.9C98.8879 111.342 97.6559 112.21 95.8639 112.21ZM103.189 112.21C100.809 112.21 99.4652 110.544 99.4652 108.402C99.4652 106.274 100.907 104.622 103.007 104.622C105.317 104.622 106.549 106.386 106.549 108.948H101.341C101.481 110.054 102.097 110.74 103.175 110.74C103.917 110.74 104.351 110.404 104.561 109.858H106.437C106.171 111.132 105.037 112.21 103.189 112.21ZM103.035 106.092C102.027 106.092 101.537 106.694 101.369 107.632H104.561C104.505 106.722 103.903 106.092 103.035 106.092ZM110.342 112.21C108.256 112.21 107.094 111.202 106.982 109.676H108.746C108.872 110.502 109.46 110.866 110.314 110.866C111.154 110.866 111.63 110.544 111.63 110.04C111.63 109.354 110.72 109.284 109.74 109.088C108.452 108.836 107.192 108.486 107.192 106.918C107.192 105.364 108.48 104.622 110.118 104.622C112.008 104.622 113.058 105.56 113.198 107.002H111.476C111.392 106.232 110.902 105.952 110.09 105.952C109.348 105.952 108.858 106.232 108.858 106.75C108.858 107.366 109.81 107.422 110.832 107.632C112.036 107.884 113.366 108.22 113.366 109.9C113.366 111.342 112.134 112.21 110.342 112.21Z" fill="#2D5AA8"/>
<defs>
<clipPath id="clip0_766_116">
<rect width="125.817" height="126.808" fill="white" transform="matrix(0.700396 0.713755 -0.700396 0.713755 176.816 84)"/>
</clipPath>
<clipPath id="clip1_766_116">
<rect width="125.817" height="126.808" fill="white" transform="matrix(0.700396 0.713755 -0.700396 0.713755 89 1)"/>
</clipPath>
<clipPath id="clip2_766_116">
<rect width="125.817" height="126.808" fill="white" transform="matrix(0.700396 0.713755 -0.700396 0.713755 264.891 0.578125)"/>
</clipPath>
</defs>
</svg>
