<svg width="368" height="307" viewBox="0 0 368 307" fill="none" xmlns="http://www.w3.org/2000/svg">
<mask id="mask0_766_43" style="mask-type:alpha" maskUnits="userSpaceOnUse" x="0" y="0" width="368" height="307">
<rect width="368" height="307" fill="#D9D9D9"/>
</mask>
<g mask="url(#mask0_766_43)">
</g>
<g clip-path="url(#clip0_766_43)">
<mask id="path-2-inside-1_766_43" fill="white">
<path d="M135.749 153.191C141.653 147.345 147.668 141.642 154.298 136.65C159.217 132.945 164.402 129.739 170.241 127.744C179.623 124.585 188.463 126.048 196.961 130.62C202.607 133.658 207.79 137.396 212.482 141.749C218.067 146.927 223.568 152.218 228.859 157.696C235.295 164.397 241.24 171.542 245.685 179.845C249.629 187.179 251.655 194.932 250.083 203.391C248.95 209.497 246.279 214.95 242.965 220.12C237.447 228.731 230.56 236.148 223.478 243.393C217.77 249.21 211.881 254.813 205.378 259.705C200.43 263.438 195.203 266.659 189.336 268.654C180.01 271.813 171.184 270.336 162.729 265.807C155.95 262.186 149.958 257.452 144.373 252.188C139.723 247.793 135.157 243.283 130.746 238.645C124.911 232.527 119.482 226.023 115.175 218.66C112.54 214.175 110.452 209.445 109.54 204.257C108.116 196.175 109.938 188.656 113.662 181.504C116.669 175.708 120.473 170.437 124.709 165.551C128.315 161.364 132.088 157.32 135.777 153.219"/>
</mask>
<path d="M154.298 136.65L154.886 137.462L154.886 137.462L154.298 136.65ZM170.241 127.744L169.93 126.785L169.926 126.787L170.241 127.744ZM196.961 130.62L197.423 129.727L197.423 129.727L196.961 130.62ZM212.482 141.749L211.815 142.495L211.815 142.496L212.482 141.749ZM228.859 157.696L229.567 156.99L229.565 156.988L228.859 157.696ZM245.685 179.845L244.816 180.328L244.817 180.33L245.685 179.845ZM250.083 203.391L249.109 203.204L249.109 203.204L250.083 203.391ZM242.965 220.12L242.136 219.568L242.136 219.568L242.965 220.12ZM223.478 243.393L224.178 244.107L224.18 244.106L223.478 243.393ZM205.378 259.705L204.789 258.893L204.788 258.894L205.378 259.705ZM189.336 268.654L189.649 269.612L189.65 269.612L189.336 268.654ZM162.729 265.807L163.19 264.913L163.188 264.913L162.729 265.807ZM144.373 252.188L143.699 252.928L143.7 252.929L144.373 252.188ZM130.746 238.645L131.457 237.942L131.456 237.941L130.746 238.645ZM115.175 218.66L116.025 218.143L116.025 218.142L115.175 218.66ZM109.54 204.257L110.515 204.079L110.515 204.079L109.54 204.257ZM113.662 181.504L114.537 181.977L114.538 181.976L113.662 181.504ZM124.709 165.551L125.452 166.219L125.454 166.216L124.709 165.551ZM136.439 153.915C142.336 148.075 148.313 142.411 154.886 137.462L153.709 135.838C147.024 140.872 140.969 146.615 135.059 152.467L136.439 153.915ZM154.886 137.462C159.761 133.791 164.852 130.65 170.556 128.701L169.926 126.787C163.952 128.828 158.674 132.1 153.709 135.838L154.886 137.462ZM170.552 128.702C179.631 125.645 188.192 127.043 196.498 131.512L197.423 129.727C188.735 125.052 179.615 123.525 169.93 126.785L170.552 128.702ZM196.498 131.512C202.068 134.51 207.183 138.199 211.815 142.495L213.148 141.003C208.396 136.594 203.145 132.806 197.423 129.727L196.498 131.512ZM211.815 142.496C217.392 147.665 222.879 152.944 228.154 158.404L229.565 156.988C224.258 151.493 218.742 146.188 213.148 141.002L211.815 142.496ZM228.152 158.402C234.558 165.073 240.433 172.141 244.816 180.328L246.555 179.362C242.048 170.943 236.032 163.722 229.567 156.99L228.152 158.402ZM244.817 180.33C248.685 187.525 250.627 195.038 249.109 203.204L251.056 203.579C252.683 194.826 250.573 186.834 246.554 179.36L244.817 180.33ZM249.109 203.204C248.01 209.131 245.411 214.459 242.136 219.568L243.795 220.672C247.147 215.442 249.89 209.863 251.056 203.579L249.109 203.204ZM242.136 219.568C236.677 228.086 229.853 235.441 222.776 242.681L224.18 244.106C231.267 236.855 238.217 229.376 243.795 220.672L242.136 219.568ZM222.778 242.68C217.083 248.483 211.234 254.045 204.789 258.893L205.966 260.517C212.527 255.582 218.457 249.938 224.178 244.107L222.778 242.68ZM204.788 258.894C199.887 262.592 194.755 265.747 189.023 267.697L189.65 269.612C195.652 267.57 200.973 264.284 205.967 260.516L204.788 258.894ZM189.024 267.696C180.002 270.752 171.456 269.341 163.19 264.913L162.268 266.7C170.912 271.33 180.018 272.874 189.649 269.612L189.024 267.696ZM163.188 264.913C156.511 261.346 150.59 256.672 145.045 251.447L143.7 252.929C149.326 258.231 155.389 263.026 162.269 266.701L163.188 264.913ZM145.046 251.448C140.407 247.063 135.854 242.566 131.457 237.942L130.035 239.347C134.46 244.001 139.039 248.523 143.699 252.928L145.046 251.448ZM131.456 237.941C125.649 231.852 120.278 225.412 116.025 218.143L114.324 219.177C118.686 226.633 124.172 233.201 130.036 239.348L131.456 237.941ZM116.025 218.142C113.427 213.72 111.399 209.108 110.515 204.079L108.565 204.435C109.505 209.783 111.652 214.629 114.325 219.179L116.025 218.142ZM110.515 204.079C109.14 196.275 110.887 188.986 114.537 181.977L112.787 181.031C108.989 188.326 107.092 196.075 108.565 204.435L110.515 204.079ZM114.538 181.976C117.5 176.266 121.254 171.061 125.452 166.219L123.967 164.882C119.692 169.813 115.839 175.149 112.786 181.032L114.538 181.976ZM125.454 166.216C129.05 162.04 132.801 158.021 136.507 153.901L135.047 152.537C131.374 156.619 127.579 160.688 123.965 164.885L125.454 166.216Z" fill="#2D5AA8" mask="url(#path-2-inside-1_766_43)"/>
<path d="M144.438 180.75V181.938H136.094V180.75H139.531V179.266H141.016V180.75H144.438ZM140.266 182.562C142.281 182.578 143.656 183.578 143.656 185.109C143.656 186.641 142.281 187.656 140.266 187.656C138.234 187.656 136.859 186.641 136.859 185.109C136.859 183.578 138.234 182.578 140.266 182.562ZM140.266 183.703C139.078 183.703 138.281 184.25 138.297 185.109C138.281 185.984 139.078 186.5 140.266 186.5C141.453 186.5 142.25 185.984 142.266 185.109C142.25 184.25 141.453 183.703 140.266 183.703ZM147.078 179.328V183.125H149.109V184.359H147.078V188.078H145.594V179.328H147.078ZM147.078 188.797V193.328H145.594V190H137.828V188.797H147.078ZM154.188 182.016C154.188 183.547 155.172 185.094 156.984 185.781L156.203 186.922C154.898 186.422 153.984 185.469 153.484 184.312C152.969 185.617 152.008 186.75 150.656 187.328L149.844 186.172C151.734 185.344 152.75 183.578 152.75 182.016V180.203H154.188V182.016ZM161.844 179.344V187.953H160.438V184.203H158.797V187.516H157.422V179.594H158.797V182.984H160.438V179.344H161.844ZM157.156 188.219C160.078 188.219 161.906 189.172 161.922 190.766C161.906 192.359 160.078 193.312 157.156 193.297C154.234 193.312 152.406 192.359 152.422 190.766C152.406 189.172 154.234 188.219 157.156 188.219ZM157.156 189.359C155.125 189.359 153.875 189.875 153.891 190.766C153.875 191.656 155.125 192.172 157.156 192.156C159.188 192.172 160.422 191.656 160.438 190.766C160.422 189.875 159.188 189.359 157.156 189.359ZM175.75 179.328V193.328H174.328V179.328H175.75ZM172.906 179.625V192.625H171.5V185.5H169.328V184.281H171.5V179.625H172.906ZM167.953 183.234C167.953 185.625 168.922 188.016 170.891 189.156L170 190.25C168.664 189.453 167.742 188.039 167.266 186.344C166.758 188.172 165.805 189.727 164.438 190.578L163.531 189.469C165.516 188.266 166.531 185.719 166.531 183.234V182.109H163.953V180.906H170.359V182.109H167.953V183.234ZM188.562 179.312V183.5H190.594V184.75H188.562V189.609H187.078V179.312H188.562ZM189.156 191.828V193.031H179.688V188.531H181.172V191.828H189.156ZM181.5 180.281C183.609 180.281 185.219 181.719 185.234 183.766C185.219 185.797 183.609 187.25 181.5 187.25C179.391 187.25 177.766 185.797 177.781 183.766C177.766 181.719 179.391 180.281 181.5 180.281ZM181.5 181.578C180.219 181.578 179.219 182.469 179.234 183.766C179.219 185.062 180.219 185.953 181.5 185.953C182.797 185.953 183.781 185.062 183.781 183.766C183.781 182.469 182.797 181.578 181.5 181.578ZM202.391 179.328V182.859H204.422V184.062H202.391V187.641H200.906V179.328H202.391ZM198.547 180.328C198.547 183.953 196.094 186.562 191.984 187.75L191.375 186.547C194.648 185.617 196.672 183.797 196.938 181.531H192V180.328H198.547ZM197.922 187.797C200.75 187.797 202.547 188.844 202.547 190.547C202.547 192.266 200.75 193.312 197.922 193.312C195.109 193.312 193.266 192.266 193.281 190.547C193.266 188.844 195.109 187.797 197.922 187.797ZM197.922 188.969C195.969 188.969 194.734 189.562 194.75 190.547C194.734 191.531 195.969 192.141 197.922 192.141C199.859 192.141 201.094 191.531 201.094 190.547C201.094 189.562 199.859 188.969 197.922 188.969ZM210.234 181.812C210.234 183.516 211.531 185.062 213.641 185.688L212.938 186.859C211.32 186.375 210.125 185.352 209.516 184.016C208.883 185.469 207.641 186.57 205.984 187.094L205.234 185.938C207.391 185.266 208.734 183.641 208.734 181.812V181.797H205.688V180.562H213.281V181.797H210.234V181.812ZM210.234 186.516V189.172C211.445 189.117 212.672 189.023 213.812 188.859L213.922 189.938C210.922 190.484 207.672 190.484 205.266 190.484L205.047 189.25C206.148 189.25 207.422 189.25 208.75 189.219V186.516H210.234ZM218.297 185.047V186.297H216.141V193.328H214.656V179.328H216.141V185.047H218.297ZM153.023 203.328V217.328H151.602V210.062H149.867V216.656H148.477V203.703H149.867V208.859H151.602V203.328H153.023ZM147.086 205.109C147.07 208.797 145.852 212.094 141.852 214.359L140.992 213.328C144.102 211.57 145.414 209.188 145.648 206.328H141.586V205.109H147.086ZM156.867 203.922V205.828H160.539V203.922H162.008V210.031H155.414V203.922H156.867ZM156.867 208.844H160.539V206.969H156.867V208.844ZM165.867 203.328V206.266H167.898V207.469H165.867V210.531H164.383V203.328H165.867ZM165.867 211.141V214.672H158.305V216H166.352V217.188H156.852V213.578H164.398V212.312H156.82V211.141H165.867ZM179.992 204.219V209.969H173.336V204.219H179.992ZM174.789 205.406V208.812H178.523V205.406H174.789ZM184.195 203.328V211.328H182.727V203.328H184.195ZM184.523 212.234V213.359H180.43C180.531 214.578 182.477 215.852 185.023 216.141L184.523 217.281C182.328 217.023 180.523 216.078 179.68 214.844C178.82 216.094 176.977 217.008 174.773 217.281L174.258 216.141C176.805 215.898 178.797 214.609 178.898 213.359H174.82V212.234H178.93V210.922H180.398V212.234H184.523ZM203.133 210.344V211.547H197.586V214.266H196.086V211.547H190.32V210.344H203.133ZM201.711 215.812V217.031H191.93V212.922H193.414V215.812H201.711ZM196.711 203.656C199.727 203.656 201.68 204.75 201.68 206.5C201.68 208.25 199.727 209.328 196.711 209.328C193.711 209.328 191.727 208.25 191.727 206.5C191.727 204.75 193.711 203.656 196.711 203.656ZM196.711 204.844C194.664 204.844 193.305 205.469 193.32 206.5C193.305 207.516 194.664 208.125 196.711 208.125C198.773 208.125 200.117 207.516 200.117 206.5C200.117 205.469 198.773 204.844 196.711 204.844ZM208.039 204.141C209.203 204.133 210.195 204.57 210.852 205.297H214.352V203.328H215.836V211.594H214.352V209.703H210.836C210.188 210.422 209.195 210.852 208.039 210.844C205.93 210.859 204.367 209.453 204.367 207.5C204.367 205.531 205.93 204.125 208.039 204.141ZM208.039 205.422C206.727 205.406 205.789 206.25 205.789 207.5C205.789 208.719 206.727 209.594 208.039 209.578C209.32 209.594 210.258 208.719 210.258 207.5C210.258 206.25 209.32 205.406 208.039 205.422ZM211.148 211.906C214.055 211.906 215.883 212.891 215.883 214.609C215.883 216.312 214.055 217.312 211.148 217.297C208.227 217.312 206.398 216.312 206.414 214.609C206.398 212.891 208.227 211.906 211.148 211.906ZM211.148 213.047C209.102 213.047 207.852 213.609 207.867 214.609C207.852 215.578 209.102 216.125 211.148 216.125C213.211 216.125 214.43 215.578 214.43 214.609C214.43 213.609 213.211 213.047 211.148 213.047ZM211.523 206.484C211.625 206.797 211.68 207.141 211.68 207.5C211.68 207.844 211.625 208.18 211.539 208.484H214.352V206.484H211.523Z" fill="#2D5AA8"/>
</g>
<g clip-path="url(#clip1_766_43)">
<mask id="path-5-inside-2_766_43" fill="white">
<path d="M49.3965 78.1907C55.3003 72.345 61.3157 66.6416 67.9453 61.6498C72.8649 57.9453 78.0493 54.7392 83.8886 52.7437C93.2706 49.585 102.111 51.0476 110.608 55.6196C116.254 58.6581 121.437 62.3964 126.129 66.749C131.715 71.9265 137.216 77.2184 142.507 82.6961C148.943 89.3974 154.888 96.542 159.333 104.845C163.276 112.179 165.302 119.932 163.73 128.391C162.597 134.497 159.927 139.95 156.613 145.12C151.095 153.731 144.208 161.148 137.126 168.393C131.418 174.21 125.528 179.813 119.025 184.705C114.077 188.438 108.851 191.659 102.984 193.654C93.6576 196.813 84.8316 195.336 76.3761 190.807C69.5978 187.186 63.6055 182.452 58.0201 177.188C53.3704 172.793 48.8048 168.283 44.3934 163.645C38.5581 157.527 33.1294 151.023 28.8221 143.66C26.1874 139.175 24.0991 134.445 23.1871 129.257C21.7638 121.175 23.5855 113.656 27.3094 106.504C30.3166 100.708 34.1203 95.437 38.3569 90.5505C41.9623 86.3642 45.7352 82.3201 49.4244 78.2192"/>
</mask>
<path d="M49.3965 78.1907C55.3003 72.345 61.3157 66.6416 67.9453 61.6498C72.8649 57.9453 78.0493 54.7392 83.8886 52.7437C93.2706 49.585 102.111 51.0476 110.608 55.6196C116.254 58.6581 121.437 62.3964 126.129 66.749C131.715 71.9265 137.216 77.2184 142.507 82.6961C148.943 89.3974 154.888 96.542 159.333 104.845C163.276 112.179 165.302 119.932 163.73 128.391C162.597 134.497 159.927 139.95 156.613 145.12C151.095 153.731 144.208 161.148 137.126 168.393C131.418 174.21 125.528 179.813 119.025 184.705C114.077 188.438 108.851 191.659 102.984 193.654C93.6576 196.813 84.8316 195.336 76.3761 190.807C69.5978 187.186 63.6055 182.452 58.0201 177.188C53.3704 172.793 48.8048 168.283 44.3934 163.645C38.5581 157.527 33.1294 151.023 28.8221 143.66C26.1874 139.175 24.0991 134.445 23.1871 129.257C21.7638 121.175 23.5855 113.656 27.3094 106.504C30.3166 100.708 34.1203 95.437 38.3569 90.5505C41.9623 86.3642 45.7352 82.3201 49.4244 78.2192" fill="white"/>
<path d="M67.9453 61.6498L68.5339 62.4616L68.5339 62.4616L67.9453 61.6498ZM83.8886 52.7437L83.5779 51.7852L83.5737 51.7867L83.8886 52.7437ZM110.608 55.6196L111.071 54.727L111.07 54.7269L110.608 55.6196ZM126.129 66.749L125.462 67.4954L125.463 67.4957L126.129 66.749ZM142.507 82.6961L143.215 81.99L143.213 81.988L142.507 82.6961ZM159.333 104.845L158.463 105.328L158.464 105.33L159.333 104.845ZM163.73 128.391L162.757 128.204L162.757 128.204L163.73 128.391ZM156.613 145.12L155.784 144.568L155.783 144.568L156.613 145.12ZM137.126 168.393L137.826 169.107L137.827 169.106L137.126 168.393ZM119.025 184.705L118.437 183.893L118.436 183.894L119.025 184.705ZM102.984 193.654L103.296 194.612L103.297 194.612L102.984 193.654ZM76.3761 190.807L76.837 189.913L76.8359 189.913L76.3761 190.807ZM58.0201 177.188L57.3465 177.928L57.3477 177.929L58.0201 177.188ZM44.3934 163.645L45.1047 162.942L45.1037 162.941L44.3934 163.645ZM28.8221 143.66L29.6729 143.143L29.672 143.142L28.8221 143.66ZM23.1871 129.257L24.162 129.079L24.162 129.079L23.1871 129.257ZM27.3094 106.504L28.1843 106.977L28.185 106.976L27.3094 106.504ZM38.3569 90.5505L39.0992 91.2189L39.1014 91.2164L38.3569 90.5505ZM50.0867 78.9147C55.9839 73.0755 61.9603 67.4113 68.5339 62.4616L67.3567 60.838C60.6712 65.8719 54.6166 71.6145 48.7062 77.4667L50.0867 78.9147ZM68.5339 62.4616C73.4088 58.7908 78.4992 55.6501 84.2035 53.7007L83.5737 51.7867C77.5993 53.8283 72.321 57.0998 67.3567 60.838L68.5339 62.4616ZM84.1993 53.7021C93.2788 50.6453 101.839 52.0429 110.146 56.5122L111.07 54.7269C102.382 50.0523 93.2624 48.5247 83.5779 51.7852L84.1993 53.7021ZM110.145 56.5122C115.716 59.5099 120.83 63.1986 125.462 67.4954L126.796 66.0025C122.044 61.5942 116.793 57.8063 111.071 54.727L110.145 56.5122ZM125.463 67.4957C131.039 72.6652 136.527 77.9437 141.801 83.4042L143.213 81.988C137.905 76.493 132.39 71.1878 126.796 66.0022L125.463 67.4957ZM141.799 83.4021C148.205 90.0729 154.08 97.1414 158.463 105.328L160.202 104.362C155.695 95.9425 149.68 88.7219 143.215 81.99L141.799 83.4021ZM158.464 105.33C162.333 112.525 164.274 120.038 162.757 128.204L164.703 128.579C166.33 119.826 164.22 111.834 160.201 104.36L158.464 105.33ZM162.757 128.204C161.657 134.131 159.059 139.459 155.784 144.568L157.442 145.672C160.794 140.442 163.537 134.863 164.703 128.579L162.757 128.204ZM155.783 144.568C150.325 153.086 143.501 160.441 136.424 167.681L137.827 169.106C144.915 161.855 151.864 154.376 157.442 145.672L155.783 144.568ZM136.425 167.68C130.731 173.483 124.882 179.045 118.437 183.893L119.613 185.517C126.175 180.582 132.105 174.938 137.826 169.107L136.425 167.68ZM118.436 183.894C113.534 187.592 108.402 190.747 102.67 192.697L103.297 194.612C109.3 192.57 114.621 189.284 119.614 185.516L118.436 183.894ZM102.671 192.696C93.6498 195.752 85.1039 194.341 76.837 189.913L75.9153 191.7C84.5592 196.33 93.6654 197.874 103.296 194.612L102.671 192.696ZM76.8359 189.913C70.1589 186.346 64.2376 181.672 58.6926 176.447L57.3477 177.929C62.9733 183.231 69.0366 188.026 75.9163 191.701L76.8359 189.913ZM58.6937 176.448C54.0545 172.063 49.5018 167.566 45.1047 162.942L43.6822 164.347C48.1078 169.001 52.6862 173.523 57.3465 177.928L58.6937 176.448ZM45.1037 162.941C39.2964 156.852 33.9254 150.412 29.6729 143.143L27.9713 144.177C32.3335 151.633 37.8198 158.201 43.6832 164.348L45.1037 162.941ZM29.672 143.142C27.0749 138.72 25.046 134.108 24.162 129.079L22.2121 129.435C23.1521 134.783 25.2999 139.629 27.9722 144.179L29.672 143.142ZM24.162 129.079C22.7877 121.275 24.5349 113.986 28.1843 106.977L26.4344 106.031C22.636 113.326 20.7398 121.075 22.2121 129.435L24.162 129.079ZM28.185 106.976C31.1472 101.266 34.901 96.0611 39.0992 91.2189L37.6146 89.8822C33.3396 94.813 29.4861 100.149 26.4337 106.032L28.185 106.976ZM39.1014 91.2164C42.6978 87.0404 46.4486 83.0209 50.1545 78.9013L48.6942 77.537C45.0219 81.6193 41.2267 85.6881 37.6124 89.8847L39.1014 91.2164Z" fill="#2D5AA8" mask="url(#path-5-inside-2_766_43)"/>
<path d="M58.4375 98.75V99.9375H50.0938V98.75H53.5312V97.2656H55.0156V98.75H58.4375ZM54.2656 100.562C56.2812 100.578 57.6562 101.578 57.6562 103.109C57.6562 104.641 56.2812 105.656 54.2656 105.656C52.2344 105.656 50.8594 104.641 50.8594 103.109C50.8594 101.578 52.2344 100.578 54.2656 100.562ZM54.2656 101.703C53.0781 101.703 52.2812 102.25 52.2969 103.109C52.2812 103.984 53.0781 104.5 54.2656 104.5C55.4531 104.5 56.25 103.984 56.2656 103.109C56.25 102.25 55.4531 101.703 54.2656 101.703ZM61.0781 97.3281V101.125H63.1094V102.359H61.0781V106.078H59.5938V97.3281H61.0781ZM61.0781 106.797V111.328H59.5938V108H51.8281V106.797H61.0781ZM68.1875 100.016C68.1875 101.547 69.1719 103.094 70.9844 103.781L70.2031 104.922C68.8984 104.422 67.9844 103.469 67.4844 102.312C66.9688 103.617 66.0078 104.75 64.6562 105.328L63.8438 104.172C65.7344 103.344 66.75 101.578 66.75 100.016V98.2031H68.1875V100.016ZM75.8438 97.3438V105.953H74.4375V102.203H72.7969V105.516H71.4219V97.5938H72.7969V100.984H74.4375V97.3438H75.8438ZM71.1562 106.219C74.0781 106.219 75.9062 107.172 75.9219 108.766C75.9062 110.359 74.0781 111.312 71.1562 111.297C68.2344 111.312 66.4062 110.359 66.4219 108.766C66.4062 107.172 68.2344 106.219 71.1562 106.219ZM71.1562 107.359C69.125 107.359 67.875 107.875 67.8906 108.766C67.875 109.656 69.125 110.172 71.1562 110.156C73.1875 110.172 74.4219 109.656 74.4375 108.766C74.4219 107.875 73.1875 107.359 71.1562 107.359ZM82.6094 101.453C82.6094 103.672 84.0625 106.141 86.1875 107.141L85.3438 108.297C83.7734 107.539 82.5312 105.961 81.9062 104.125C81.2578 106.133 79.9453 107.859 78.3438 108.656L77.4688 107.484C79.5938 106.469 81.1406 103.828 81.1406 101.453V99.9688H77.9844V98.7344H85.6562V99.9688H82.6094V101.453ZM88.6406 97.3281V102.875H90.8906V104.125H88.6406V111.328H87.1562V97.3281H88.6406ZM97.9375 97.4844C101.094 97.4844 102.938 98.3438 102.938 99.8906C102.938 101.453 101.094 102.312 97.9375 102.312C94.7812 102.312 92.9375 101.453 92.9375 99.8906C92.9375 98.3438 94.7812 97.4844 97.9375 97.4844ZM97.9375 98.5938C95.7031 98.6094 94.4688 99.0625 94.4844 99.8906C94.4688 100.766 95.7031 101.203 97.9375 101.203C100.172 101.203 101.406 100.766 101.406 99.8906C101.406 99.0625 100.172 98.6094 97.9375 98.5938ZM104.328 103.078V104.266H100.891V105.516H102.719V108.797H94.5625V110.047H103.109V111.188H93.1094V107.719H101.25V106.625H93.0938V105.516H94.9531V104.266H91.5625V103.078H104.328ZM96.4219 105.516H99.4062V104.266H96.4219V105.516ZM116.766 98.6719V100.172C116.75 101.938 116.75 103.781 116.25 106.453L114.797 106.297C115.281 103.766 115.281 101.891 115.281 100.172V99.875H106.703V98.6719H116.766ZM118.156 108.203V109.438H105.391V108.203H108.406V103.672H109.891V108.203H111.906V103.672H113.359V108.203H118.156ZM131.984 104V105.203H128.688V106.828H130.422V111.328H128.922V108H120.641V106.828H122.484V105.203H119.219V104H131.984ZM125.594 97.6406C128.656 97.625 130.594 98.6562 130.594 100.344C130.594 102.031 128.656 103.062 125.594 103.047C122.531 103.062 120.594 102.031 120.594 100.344C120.594 98.6562 122.531 97.625 125.594 97.6406ZM125.594 98.8125C123.438 98.7969 122.109 99.375 122.125 100.344C122.109 101.328 123.438 101.891 125.594 101.891C127.734 101.891 129.062 101.328 129.062 100.344C129.062 99.375 127.734 98.7969 125.594 98.8125ZM123.969 106.828H127.234V105.203H123.969V106.828ZM76.7188 132.328V133.578H63.9062V132.328H76.7188ZM75.5469 122.672V123.891H73.4062V128.562H75.5V129.75H65.0312V128.562H67.125V123.891H65V122.672H75.5469ZM68.5938 128.562H71.9531V123.891H68.5938V128.562ZM90.5469 132.406V133.656H77.7344V132.406H83.375V129.953H79.2969V125.5H87.5156V123.531H79.2656V122.312H88.9844V126.688H80.7656V128.734H89.3125V129.953H84.8438V132.406H90.5469ZM102.656 122.75V124.25C102.656 126.062 102.656 128.031 102.141 131.016L100.625 130.875C101.188 128.078 101.188 126.016 101.188 124.25V123.969H92.9375V122.75H102.656ZM104.328 132.109V133.344H91.5625V132.109H104.328ZM117.328 121.344V129.656H115.922V126.016H114.203V129.5H112.812V121.594H114.203V124.797H115.922V121.344H117.328ZM117.328 130.281V135.156H107.969V130.281H117.328ZM109.453 131.469V133.953H115.875V131.469H109.453ZM111.297 122.219V126.156H107.453V127.906C109.188 127.891 110.508 127.812 112.047 127.516L112.203 128.703C110.438 129.031 108.984 129.078 106.938 129.078H106.016V125.016H109.875V123.406H105.984V122.219H111.297ZM52.3125 149.625C52.3125 151.828 53.3281 154.078 55.2656 155.109L54.4375 156.203C53.0859 155.484 52.1406 154.141 51.6406 152.547C51.1328 154.258 50.1953 155.727 48.8438 156.531L47.9688 155.406C49.9062 154.281 50.9062 151.891 50.9219 149.625V149.062H48.3906V147.844H50.9219V145.828H52.3125V147.844H54.7969V149.062H52.3125V149.625ZM60.1406 145.328V159.328H58.7188V145.328H60.1406ZM57.2969 145.625V158.625H55.8906V152.016H53.875V150.781H55.8906V145.625H57.2969ZM73.9844 145.328V159.328H72.5781V145.328H73.9844ZM71.125 145.688V158.641H69.7188V153.875H67.3281V152.656H69.7188V150.375H67.5625C66.8828 152.727 65.3906 154.766 62.75 156.344L61.875 155.281C64.8438 153.516 66.2734 151.164 66.5312 148.281H62.5625V147.062H68C68 147.781 67.9453 148.477 67.8281 149.156H69.7188V145.688H71.125ZM86.75 145.328V151.188H88.8594V152.438H86.75V159.328H85.2656V145.328H86.75ZM75.6094 155.516C76.7109 155.516 77.9922 155.516 79.3281 155.469V154.047C77.75 153.828 76.7188 152.875 76.7344 151.516C76.7188 149.938 78.0781 148.891 80.0781 148.891C82.0625 148.891 83.4375 149.938 83.4531 151.516C83.4375 152.875 82.3906 153.836 80.8125 154.062V155.406C82.0547 155.359 83.3047 155.258 84.4688 155.094L84.5625 156.188C81.5312 156.734 78.25 156.75 75.8438 156.75L75.6094 155.516ZM84.2656 146.984V148.172H75.875V146.984H79.3281V145.359H80.8125V146.984H84.2656ZM80.0781 150.047C78.9062 150.047 78.125 150.625 78.125 151.516C78.125 152.406 78.9062 152.953 80.0781 152.953C81.25 152.953 82.0312 152.406 82.0312 151.516C82.0312 150.625 81.25 150.047 80.0781 150.047ZM100.906 146.219V151.969H94.25V146.219H100.906ZM95.7031 147.406V150.812H99.4375V147.406H95.7031ZM105.109 145.328V153.328H103.641V145.328H105.109ZM105.438 154.234V155.359H101.344C101.445 156.578 103.391 157.852 105.938 158.141L105.438 159.281C103.242 159.023 101.438 158.078 100.594 156.844C99.7344 158.094 97.8906 159.008 95.6875 159.281L95.1719 158.141C97.7188 157.898 99.7109 156.609 99.8125 155.359H95.7344V154.234H99.8438V152.922H101.312V154.234H105.438ZM122.266 145.344V149.5H124.266V150.719H122.266V154.766H120.781V145.344H122.266ZM111.156 153.203C112.242 153.203 113.5 153.203 114.812 153.156V152.219C113.219 152.055 112.203 151.305 112.219 150.172C112.203 148.891 113.531 148.094 115.547 148.109C117.547 148.094 118.875 148.891 118.875 150.172C118.875 151.297 117.875 152.047 116.297 152.219V153.109C117.547 153.047 118.812 152.945 119.984 152.781L120.109 153.844C117.094 154.375 113.781 154.391 111.312 154.391L111.156 153.203ZM122.266 155.422V159.328H120.781V156.578H112.906V155.422H122.266ZM119.594 146.531V147.641H111.516V146.531H114.812V145.219H116.297V146.531H119.594ZM115.547 149.125C114.344 149.109 113.625 149.5 113.625 150.172C113.625 150.828 114.344 151.25 115.547 151.25C116.734 151.25 117.453 150.828 117.453 150.172C117.453 149.5 116.734 149.109 115.547 149.125ZM137.094 145.328V159.328H135.672V152.094H133.859V158.609H132.5V145.609H133.859V150.875H135.672V145.328H137.094ZM130.797 147.016V148.219H127.031V154.703C128.75 154.688 130.047 154.609 131.547 154.328L131.656 155.547C129.969 155.891 128.531 155.953 126.484 155.969H125.547V147.016H130.797Z" fill="#2D5AA8"/>
</g>
<g clip-path="url(#clip2_766_43)">
<mask id="path-8-inside-3_766_43" fill="white">
<path d="M225.546 78.1907C231.45 72.345 237.465 66.6416 244.095 61.6498C249.014 57.9453 254.199 54.7392 260.038 52.7437C269.42 49.585 278.26 51.0476 286.757 55.6196C292.404 58.6581 297.587 62.3964 302.278 66.749C307.864 71.9265 313.365 77.2184 318.656 82.6961C325.092 89.3974 331.037 96.542 335.482 104.845C339.426 112.179 341.452 119.932 339.88 128.391C338.747 134.497 336.076 139.95 332.762 145.12C327.244 153.731 320.357 161.148 313.275 168.393C307.567 174.21 301.678 179.813 295.174 184.705C290.227 188.438 285 191.659 279.133 193.654C269.807 196.813 260.981 195.336 252.526 190.807C245.747 187.186 239.755 182.452 234.17 177.188C229.52 172.793 224.954 168.283 220.543 163.645C214.708 157.527 209.279 151.023 204.971 143.66C202.337 139.175 200.248 134.445 199.336 129.257C197.913 121.175 199.735 113.656 203.459 106.504C206.466 100.708 210.27 95.437 214.506 90.5505C218.112 86.3642 221.885 82.3201 225.574 78.2192"/>
</mask>
<path d="M225.546 78.1907C231.45 72.345 237.465 66.6416 244.095 61.6498C249.014 57.9453 254.199 54.7392 260.038 52.7437C269.42 49.585 278.26 51.0476 286.757 55.6196C292.404 58.6581 297.587 62.3964 302.278 66.749C307.864 71.9265 313.365 77.2184 318.656 82.6961C325.092 89.3974 331.037 96.542 335.482 104.845C339.426 112.179 341.452 119.932 339.88 128.391C338.747 134.497 336.076 139.95 332.762 145.12C327.244 153.731 320.357 161.148 313.275 168.393C307.567 174.21 301.678 179.813 295.174 184.705C290.227 188.438 285 191.659 279.133 193.654C269.807 196.813 260.981 195.336 252.526 190.807C245.747 187.186 239.755 182.452 234.17 177.188C229.52 172.793 224.954 168.283 220.543 163.645C214.708 157.527 209.279 151.023 204.971 143.66C202.337 139.175 200.248 134.445 199.336 129.257C197.913 121.175 199.735 113.656 203.459 106.504C206.466 100.708 210.27 95.437 214.506 90.5505C218.112 86.3642 221.885 82.3201 225.574 78.2192" fill="white"/>
<path d="M244.095 61.6498L244.683 62.4616L244.683 62.4616L244.095 61.6498ZM260.038 52.7437L259.727 51.7852L259.723 51.7867L260.038 52.7437ZM286.757 55.6196L287.22 54.727L287.22 54.7269L286.757 55.6196ZM302.278 66.749L301.612 67.4954L301.612 67.4957L302.278 66.749ZM318.656 82.6961L319.364 81.99L319.362 81.988L318.656 82.6961ZM335.482 104.845L334.613 105.328L334.614 105.33L335.482 104.845ZM339.88 128.391L338.906 128.204L338.906 128.204L339.88 128.391ZM332.762 145.12L331.933 144.568L331.933 144.568L332.762 145.12ZM313.275 168.393L313.975 169.107L313.977 169.106L313.275 168.393ZM295.174 184.705L294.586 183.893L294.585 183.894L295.174 184.705ZM279.133 193.654L279.445 194.612L279.447 194.612L279.133 193.654ZM252.526 190.807L252.986 189.913L252.985 189.913L252.526 190.807ZM234.17 177.188L233.496 177.928L233.497 177.929L234.17 177.188ZM220.543 163.645L221.254 162.942L221.253 162.941L220.543 163.645ZM204.971 143.66L205.822 143.143L205.821 143.142L204.971 143.66ZM199.336 129.257L200.311 129.079L200.311 129.079L199.336 129.257ZM203.459 106.504L204.334 106.977L204.334 106.976L203.459 106.504ZM214.506 90.5505L215.249 91.2189L215.251 91.2164L214.506 90.5505ZM226.236 78.9147C232.133 73.0755 238.11 67.4113 244.683 62.4616L243.506 60.838C236.821 65.8719 230.766 71.6145 224.856 77.4667L226.236 78.9147ZM244.683 62.4616C249.558 58.7908 254.649 55.6501 260.353 53.7007L259.723 51.7867C253.749 53.8283 248.47 57.0998 243.506 60.838L244.683 62.4616ZM260.349 53.7021C269.428 50.6453 277.988 52.0429 286.295 56.5122L287.22 54.7269C278.532 50.0523 269.412 48.5247 259.727 51.7852L260.349 53.7021ZM286.295 56.5122C291.865 59.5099 296.98 63.1986 301.612 67.4954L302.945 66.0025C298.193 61.5942 292.942 57.8063 287.22 54.727L286.295 56.5122ZM301.612 67.4957C307.189 72.6652 312.676 77.9437 317.95 83.4042L319.362 81.988C314.055 76.493 308.539 71.1878 302.945 66.0022L301.612 67.4957ZM317.948 83.4021C324.355 90.0729 330.23 97.1414 334.613 105.328L336.352 104.362C331.844 95.9425 325.829 88.7219 319.364 81.99L317.948 83.4021ZM334.614 105.33C338.482 112.525 340.424 120.038 338.906 128.204L340.853 128.579C342.479 119.826 340.369 111.834 336.351 104.36L334.614 105.33ZM338.906 128.204C337.806 134.131 335.208 139.459 331.933 144.568L333.591 145.672C336.944 140.442 339.687 134.863 340.853 128.579L338.906 128.204ZM331.933 144.568C326.474 153.086 319.65 160.441 312.573 167.681L313.977 169.106C321.064 161.855 328.014 154.376 333.592 145.672L331.933 144.568ZM312.575 167.68C306.88 173.483 301.031 179.045 294.586 183.893L295.763 185.517C302.324 180.582 308.254 174.938 313.975 169.107L312.575 167.68ZM294.585 183.894C289.683 187.592 284.551 190.747 278.819 192.697L279.447 194.612C285.449 192.57 290.77 189.284 295.764 185.516L294.585 183.894ZM278.821 192.696C269.799 195.752 261.253 194.341 252.986 189.913L252.065 191.7C260.709 196.33 269.815 197.874 279.445 194.612L278.821 192.696ZM252.985 189.913C246.308 186.346 240.387 181.672 234.842 176.447L233.497 177.929C239.123 183.231 245.186 188.026 252.066 191.701L252.985 189.913ZM234.843 176.448C230.204 172.063 225.651 167.566 221.254 162.942L219.832 164.347C224.257 169.001 228.836 173.523 233.496 177.928L234.843 176.448ZM221.253 162.941C215.446 156.852 210.075 150.412 205.822 143.143L204.121 144.177C208.483 151.633 213.969 158.201 219.833 164.348L221.253 162.941ZM205.821 143.142C203.224 138.72 201.195 134.108 200.311 129.079L198.361 129.435C199.302 134.783 201.449 139.629 204.122 144.179L205.821 143.142ZM200.311 129.079C198.937 121.275 200.684 113.986 204.334 106.977L202.584 106.031C198.785 113.326 196.889 121.075 198.362 129.435L200.311 129.079ZM204.334 106.976C207.297 101.266 211.05 96.0611 215.249 91.2189L213.764 89.8822C209.489 94.813 205.635 100.149 202.583 106.032L204.334 106.976ZM215.251 91.2164C218.847 87.0404 222.598 83.0209 226.304 78.9013L224.844 77.537C221.171 81.6193 217.376 85.6881 213.762 89.8847L215.251 91.2164Z" fill="#2D5AA8" mask="url(#path-8-inside-3_766_43)"/>
<path d="M254.068 104.394V114.74H252.598V109.425H249.951V108.211H252.598V104.394H254.068ZM254.44 116.996V118.21H245.061V113.81H246.531V116.996H254.44ZM247.475 107.249C247.475 109.015 248.729 110.782 250.818 111.491L250.06 112.69C248.504 112.13 247.351 110.995 246.748 109.599C246.144 111.152 244.929 112.406 243.281 113.005L242.522 111.791C244.658 111.05 245.974 109.189 245.974 107.249V106.697H242.971V105.466H250.447V106.697H247.475V107.249ZM262.456 113.258C265.459 113.258 267.347 114.22 267.363 115.876C267.347 117.516 265.459 118.494 262.456 118.478C259.485 118.494 257.581 117.516 257.581 115.876C257.581 114.22 259.485 113.258 262.456 113.258ZM262.456 114.393C260.352 114.393 259.036 114.945 259.052 115.876C259.036 116.791 260.352 117.327 262.456 117.327C264.577 117.327 265.892 116.791 265.908 115.876C265.892 114.945 264.577 114.393 262.456 114.393ZM267.254 105.072V106.255C267.254 107.391 267.254 108.558 266.867 110.009L265.428 109.851C265.799 108.408 265.799 107.367 265.799 106.271H257.69V105.072H267.254ZM268.833 110.876V112.091H256.219V110.876H261.28V108.227H262.72V110.876H268.833ZM281.462 104.378V111.649H279.992V108.022H277.066V106.807H279.992V104.378H281.462ZM281.462 112.311V115.829H273.863V117.138H281.942V118.336H272.423V114.693H280.007V113.494H272.392V112.311H281.462ZM274.776 106.066C274.776 107.864 276.045 109.536 278.134 110.214L277.361 111.381C275.836 110.845 274.683 109.78 274.079 108.432C273.468 109.946 272.276 111.136 270.644 111.712L269.854 110.513C272.021 109.804 273.306 108.053 273.321 106.066V104.836H274.776V106.066ZM295.515 104.378V118.51H294.122V104.378H295.515ZM292.682 104.741V117.816H291.29V113.005H288.922V111.775H291.29V109.473H289.154C288.481 111.846 287.003 113.904 284.387 115.497L283.52 114.425C286.461 112.643 287.877 110.269 288.132 107.359H284.201V106.129H289.587C289.587 106.854 289.533 107.556 289.417 108.242H291.29V104.741H292.682ZM231.983 132.768C231.983 135.133 233.5 137.578 235.635 138.509L234.831 139.676C233.198 138.942 231.898 137.389 231.255 135.496C230.613 137.515 229.305 139.234 227.696 140.038L226.845 138.856C228.934 137.862 230.482 135.197 230.497 132.768V131.269H227.324V130.023H235.14V131.269H231.983V132.768ZM238.359 128.604V142.735H236.889V128.604H238.359ZM252.103 128.62V139.329H250.632V137.972H247.846V136.916H250.632V128.62H252.103ZM252.443 141.221V142.436H242.43V138.288H243.884V141.221H252.443ZM240.51 135.07C243.08 135.055 246.531 135.023 249.487 134.644L249.58 135.717C248.396 135.914 247.15 136.048 245.927 136.127V138.887H244.457V136.206C243.111 136.269 241.818 136.277 240.696 136.269L240.51 135.07ZM245.045 129.156C247.073 129.156 248.481 130.15 248.481 131.648C248.481 133.146 247.073 134.108 245.045 134.108C242.987 134.108 241.594 133.146 241.594 131.648C241.594 130.15 242.987 129.156 245.045 129.156ZM245.045 130.276C243.807 130.26 242.971 130.796 242.987 131.648C242.971 132.484 243.807 133.004 245.045 133.004C246.237 133.004 247.073 132.484 247.088 131.648C247.073 130.796 246.237 130.26 245.045 130.276ZM266.093 128.604V139.203H264.701V128.604H266.093ZM263.339 128.856V138.793H261.93V133.304H259.903V132.074H261.93V128.856H263.339ZM266.496 141.221V142.436H256.9V137.909H258.355V141.221H266.496ZM258.463 131.601C258.463 133.257 259.377 134.928 261.141 135.717L260.321 136.868C259.098 136.301 258.239 135.283 257.782 134.061C257.272 135.425 256.351 136.6 255.059 137.231L254.238 136.08C256.065 135.197 257.04 133.272 257.04 131.601V129.582H258.463V131.601ZM279.527 128.604V142.767H278.072V135.055H275.318V133.824H278.072V128.604H279.527ZM275.085 129.866V131.08H270.086V133.824H274.497V135.023H270.086V138.177C272.408 138.17 274.018 138.114 275.859 137.783L276.014 138.998C274.002 139.329 272.253 139.408 269.684 139.423H268.601V129.866H275.085ZM298.208 135.685V136.9H292.713V139.644H291.228V136.9H285.517V135.685H298.208ZM296.799 141.206V142.436H287.111V138.288H288.581V141.206H296.799ZM291.847 128.935C294.834 128.935 296.768 130.039 296.768 131.806C296.768 133.572 294.834 134.66 291.847 134.66C288.875 134.66 286.91 133.572 286.91 131.806C286.91 130.039 288.875 128.935 291.847 128.935ZM291.847 130.134C289.819 130.134 288.473 130.765 288.488 131.806C288.473 132.831 289.819 133.446 291.847 133.446C293.89 133.446 295.221 132.831 295.221 131.806C295.221 130.765 293.89 130.134 291.847 130.134ZM303.067 129.424C304.22 129.416 305.203 129.858 305.853 130.591H309.32V128.604H310.79V136.947H309.32V135.039H305.838C305.195 135.764 304.213 136.198 303.067 136.19C300.978 136.206 299.43 134.786 299.43 132.815C299.43 130.828 300.978 129.408 303.067 129.424ZM303.067 130.717C301.767 130.702 300.839 131.553 300.839 132.815C300.839 134.045 301.767 134.928 303.067 134.913C304.336 134.928 305.265 134.045 305.265 132.815C305.265 131.553 304.336 130.702 303.067 130.717ZM306.147 137.263C309.026 137.263 310.837 138.256 310.837 139.991C310.837 141.71 309.026 142.72 306.147 142.704C303.253 142.72 301.442 141.71 301.458 139.991C301.442 138.256 303.253 137.263 306.147 137.263ZM306.147 138.414C304.12 138.414 302.882 138.982 302.897 139.991C302.882 140.969 304.12 141.521 306.147 141.521C308.19 141.521 309.397 140.969 309.397 139.991C309.397 138.982 308.19 138.414 306.147 138.414ZM306.519 131.79C306.619 132.105 306.673 132.452 306.673 132.815C306.673 133.162 306.619 133.501 306.534 133.809H309.32V131.79H306.519Z" fill="#2D5AA8"/>
</g>
<defs>
<clipPath id="clip0_766_43">
<rect width="125.817" height="126.808" fill="white" transform="matrix(0.700396 0.713755 -0.700396 0.713755 180.094 108)"/>
</clipPath>
<clipPath id="clip1_766_43">
<rect width="125.817" height="126.808" fill="white" transform="matrix(0.700396 0.713755 -0.700396 0.713755 93.7412 33)"/>
</clipPath>
<clipPath id="clip2_766_43">
<rect width="125.817" height="126.808" fill="white" transform="matrix(0.700396 0.713755 -0.700396 0.713755 269.891 33)"/>
</clipPath>
</defs>
</svg>
