<svg width="624" height="579" viewBox="0 0 624 579" fill="none" xmlns="http://www.w3.org/2000/svg">
<mask id="mask0_616_8" style="mask-type:alpha" maskUnits="userSpaceOnUse" x="0" y="0" width="624" height="579">
<rect width="624" height="579" fill="#D9D9D9"/>
</mask>
<g mask="url(#mask0_616_8)">
<path d="M305.084 268.216C327.552 268.216 345.264 282.156 345.264 305.444C345.264 330.864 321.484 344.64 299.508 344.64C274.088 344.64 264.74 327.912 264.74 315.12C264.74 306.592 270.316 298.72 278.352 298.72C284.256 298.72 289.012 302.492 290.324 308.56C284.256 313.48 276.384 321.68 276.384 328.24C276.384 330.864 277.368 333.652 279.008 335.62C283.108 340.704 291.472 342.672 298.852 342.672C316.236 342.672 323.124 329.552 323.124 305.444C323.124 282.32 318.368 270.676 301.148 270.676C287.864 270.676 275.728 279.204 272.612 291.668L270.152 291.012C270.972 289.044 271.792 287.076 272.776 285.272L280.32 228.2H282.124C292.128 231.808 312.792 238.532 325.912 238.532C328.864 238.532 334.44 238.204 337.392 235.908C339.688 233.94 340.672 230.988 341.492 226.56H343.132C340.508 251.816 335.26 254.932 315.58 254.932C299.836 254.932 290.324 253.948 278.844 253.128L275.072 281.828C281.796 272.972 292.62 268.216 305.084 268.216Z" fill="white"/>
<path d="M365.773 326.219V340.438H363.852V333.203H362.555V339.812H360.695V326.594H362.555V331.609H363.852V326.219H365.773ZM359.695 327.969C359.68 331.938 358.492 335.188 354.492 337.516L353.336 336.141C356.234 334.438 357.477 332.352 357.758 329.562H354.055V327.969H359.695Z" fill="white"/>
</g>
</svg>
