<svg width="624" height="579" viewBox="0 0 624 579" fill="none" xmlns="http://www.w3.org/2000/svg">
<mask id="mask0_616_8" style="mask-type:alpha" maskUnits="userSpaceOnUse" x="0" y="0" width="624" height="579">
<rect width="624" height="579" fill="#D9D9D9"/>
</mask>
<g mask="url(#mask0_616_8)">
<path d="M311.084 268.216C333.552 268.216 351.264 282.156 351.264 305.444C351.264 330.864 327.484 344.64 305.508 344.64C280.088 344.64 270.74 327.912 270.74 315.12C270.74 306.592 276.316 298.72 284.352 298.72C290.256 298.72 295.012 302.492 296.324 308.56C290.256 313.48 282.384 321.68 282.384 328.24C282.384 330.864 283.368 333.652 285.008 335.62C289.108 340.704 297.472 342.672 304.852 342.672C322.236 342.672 329.124 329.552 329.124 305.444C329.124 282.32 324.368 270.676 307.148 270.676C293.864 270.676 281.728 279.204 278.612 291.668L276.152 291.012C276.972 289.044 277.792 287.076 278.776 285.272L286.32 228.2H288.124C298.128 231.808 318.792 238.532 331.912 238.532C334.864 238.532 340.44 238.204 343.392 235.908C345.688 233.94 346.672 230.988 347.492 226.56H349.132C346.508 251.816 341.26 254.932 321.58 254.932C305.836 254.932 296.324 253.948 284.844 253.128L281.072 281.828C287.796 272.972 298.62 268.216 311.084 268.216Z" fill="white"/>
</g>
</svg>
