<svg width="624" height="579" viewBox="0 0 624 579" fill="none" xmlns="http://www.w3.org/2000/svg">
<mask id="mask0_616_8" style="mask-type:alpha" maskUnits="userSpaceOnUse" x="0" y="0" width="624" height="579">
<rect width="624" height="579" fill="#D9D9D9"/>
</mask>
<g mask="url(#mask0_616_8)">
<path d="M300.572 37.806L300.538 40.322C302.748 40.135 305.213 39.846 306.726 39.54V32.859C306.42 32.502 305.876 32.196 305.281 31.992L305.417 31.584C305.434 31.533 305.468 31.499 305.604 31.499C306.216 31.516 307.287 31.737 307.763 31.941C307.916 31.992 307.967 32.111 307.967 32.281L307.933 33.165V37.942L309.123 37.891L309.667 37.568C310.16 37.551 310.857 37.585 311.163 37.653C311.299 37.704 311.401 37.806 311.401 37.942C311.418 38.248 311.316 38.469 311.197 38.554C311.129 38.605 310.993 38.639 310.874 38.639L307.933 38.69V40.288C307.933 41.478 307.78 42.804 307.525 43.654H306.811C306.743 42.957 306.726 41.478 306.726 40.713V40.186C304.703 40.679 300.623 41.274 298.481 41.427C298.141 41.461 297.478 41.614 297.172 41.733C296.611 41.478 296.016 41.121 295.591 40.764C295.523 40.713 295.506 40.679 295.54 40.594L295.659 40.373C296.186 40.475 296.849 40.526 297.393 40.509C297.971 40.492 298.668 40.458 299.433 40.407L299.382 37.551C299.195 37.347 298.821 37.16 298.464 37.024L298.549 36.65C298.566 36.599 298.6 36.582 298.736 36.582C299.246 36.582 300.062 36.701 300.453 36.837C300.589 36.888 300.64 36.973 300.623 37.109L300.572 37.806ZM301.83 46.51C302.918 46.527 306.012 46.51 306.998 46.459L307.542 46.153C308.035 46.153 308.783 46.204 309.089 46.272C309.242 46.323 309.327 46.391 309.327 46.51C309.327 46.816 309.208 47.037 309.123 47.105C309.072 47.156 308.987 47.19 308.902 47.19L301.66 47.241C300.555 47.241 300.164 46.85 300.164 45.932V43.773C299.892 43.552 299.433 43.382 298.974 43.28L299.059 42.889C299.076 42.821 299.127 42.787 299.229 42.787C299.79 42.787 300.759 42.855 301.184 42.957C301.354 42.991 301.439 43.093 301.439 43.28L301.405 44.028V46.068C301.405 46.391 301.524 46.51 301.83 46.51ZM303.054 38.792L302.765 38.741C302.68 38.724 302.646 38.673 302.663 38.554C302.901 37.296 303.037 35.477 303.02 34.321C302.068 34.304 299.62 34.355 299.11 34.389C298.77 34.406 298.141 34.525 297.818 34.627C297.342 34.474 296.849 34.202 296.492 33.913C296.441 33.845 296.424 33.811 296.441 33.743L296.577 33.539C297.036 33.607 297.614 33.658 298.039 33.658C298.685 33.658 302.119 33.607 303.054 33.539L303.598 33.25C303.683 33.216 303.802 33.216 303.87 33.25C304.04 33.318 304.38 33.539 304.499 33.641C304.567 33.692 304.584 33.743 304.55 33.845L304.363 34.406C304.278 35.681 303.802 37.466 303.258 38.673C303.207 38.758 303.139 38.792 303.054 38.792ZM320.187 36.803C320.187 38.792 318.589 40.186 316.464 40.186C314.305 40.186 312.724 38.792 312.724 36.803C312.724 34.797 314.305 33.437 316.464 33.437C318.589 33.437 320.187 34.797 320.187 36.803ZM318.963 36.803C318.963 35.256 317.875 34.338 316.464 34.338C315.053 34.338 313.965 35.256 313.965 36.803C313.965 38.333 315.053 39.251 316.464 39.251C317.875 39.251 318.963 38.333 318.963 36.803ZM327.293 37.517L324.335 37.568V38.503C324.335 39.523 324.182 40.662 323.944 41.308H323.23C323.162 40.747 323.128 39.54 323.128 38.894V32.859C322.839 32.502 322.295 32.196 321.7 31.992L321.819 31.584C321.853 31.533 321.887 31.499 322.023 31.499C322.635 31.516 323.689 31.737 324.182 31.941C324.318 31.992 324.386 32.111 324.386 32.281L324.335 33.165V36.837L325.542 36.786L326.086 36.463C326.579 36.446 327.276 36.48 327.582 36.548C327.718 36.582 327.82 36.701 327.82 36.82C327.837 37.126 327.735 37.347 327.616 37.432C327.548 37.483 327.412 37.517 327.293 37.517ZM323.978 47.989H323.23C323.145 47.428 323.111 46.391 323.111 45.796V42.906C321.836 42.889 318.47 42.957 317.773 43.008C317.382 43.025 316.651 43.144 316.26 43.297C315.733 43.11 315.189 42.804 314.798 42.498C314.73 42.464 314.713 42.396 314.747 42.345L314.849 42.107C315.359 42.209 316.039 42.26 316.515 42.26C317.297 42.26 322.108 42.175 323.179 42.09L323.621 41.869C323.689 41.835 323.808 41.835 323.876 41.869C324.063 41.971 324.403 42.175 324.522 42.26C324.59 42.328 324.59 42.396 324.556 42.481L324.352 42.991L324.318 45.49C324.318 46.204 324.165 47.343 323.978 47.989Z" fill="white"/>
<path d="M481.668 134.623C481.668 136.408 480.121 137.7 478.013 137.7C475.922 137.7 474.375 136.408 474.375 134.623C474.375 132.889 475.922 131.682 478.013 131.682C480.121 131.682 481.668 132.889 481.668 134.623ZM480.376 134.623C480.376 133.331 479.373 132.515 478.013 132.515C476.67 132.515 475.667 133.331 475.667 134.623C475.667 135.898 476.67 136.697 478.013 136.697C479.373 136.697 480.376 135.898 480.376 134.623ZM475.718 123.675L476.245 123.42C476.738 123.437 477.469 123.539 477.775 123.641C477.877 123.675 477.962 123.777 477.962 123.862C477.962 124.168 477.758 124.406 477.622 124.474C477.299 124.44 476.466 124.423 476.075 124.423C475.514 124.423 472.267 124.491 471.723 124.542C471.4 124.559 470.771 124.678 470.482 124.78C470.006 124.627 469.462 124.304 469.122 124.015C469.071 123.964 469.054 123.913 469.071 123.862L469.19 123.658C469.649 123.76 470.329 123.794 470.72 123.794C471.349 123.811 475.055 123.726 475.718 123.675ZM478.642 127.993C479.101 127.993 480.036 127.959 480.648 127.925V125.868C480.274 125.868 479.747 125.885 479.509 125.919C479.203 125.953 478.761 126.055 478.489 126.157C478.03 125.987 477.656 125.766 477.35 125.511C477.282 125.443 477.282 125.409 477.299 125.358L477.401 125.188C477.792 125.222 478.251 125.239 478.659 125.239C479.135 125.256 480.036 125.222 480.648 125.188V122.859C480.342 122.502 479.815 122.196 479.22 121.992L479.339 121.584C479.356 121.533 479.407 121.499 479.543 121.499C480.155 121.516 481.209 121.737 481.702 121.941C481.838 121.992 481.906 122.111 481.906 122.281L481.855 123.165V129.013C481.855 129.88 481.702 131.223 481.464 131.988H480.75C480.682 131.376 480.648 130.05 480.648 129.404V128.622C480.257 128.605 479.713 128.622 479.492 128.656C479.186 128.69 478.744 128.792 478.455 128.911C478.013 128.741 477.639 128.503 477.333 128.248C477.265 128.197 477.265 128.146 477.282 128.095L477.384 127.942C477.758 127.976 478.234 127.993 478.642 127.993ZM470.669 130.22L471.451 130.203L471.179 126.582C471.009 126.344 470.703 126.123 470.329 125.953L470.465 125.596C470.482 125.545 470.533 125.511 470.635 125.528C471.111 125.579 471.791 125.732 472.131 125.902C472.267 125.953 472.301 126.021 472.301 126.174L472.284 126.803L472.471 130.135C473.304 130.084 474.222 130.016 475.106 129.914V126.004C474.936 125.817 474.596 125.613 474.222 125.511L474.324 125.137C474.341 125.069 474.392 125.052 474.511 125.052C474.97 125.069 475.701 125.137 476.075 125.256C476.211 125.29 476.262 125.375 476.262 125.511L476.228 126.174L476.109 129.812C476.857 129.71 477.52 129.625 478.03 129.523C478.098 129.506 478.166 129.523 478.183 129.591L478.234 129.897C478.234 129.982 478.2 130.016 478.132 130.033C476.636 130.441 473.542 130.968 471.791 131.121C471.434 131.138 470.754 131.325 470.448 131.444C469.887 131.206 469.309 130.866 468.867 130.526C468.799 130.458 468.782 130.407 468.816 130.356L468.935 130.101C469.479 130.203 470.125 130.237 470.669 130.22ZM497.203 134.725C497.203 136.544 495.639 137.819 493.548 137.819C491.44 137.819 489.893 136.544 489.893 134.725C489.893 132.991 491.44 131.784 493.548 131.784C495.639 131.784 497.203 132.991 497.203 134.725ZM495.911 134.725C495.911 133.433 494.891 132.617 493.548 132.617C492.188 132.617 491.202 133.433 491.202 134.725C491.202 136.034 492.188 136.833 493.548 136.833C494.891 136.833 495.911 136.034 495.911 134.725ZM487.615 122.621L487.734 122.485C489.162 122.757 490.556 122.808 491.678 122.808C491.814 122.808 491.882 122.859 491.916 122.961C491.967 123.114 491.95 123.437 491.865 123.556C491.814 123.641 491.746 123.658 491.644 123.658C490.828 123.658 489.655 123.675 488.958 123.726C488.822 123.743 488.754 123.743 488.652 123.675C488.312 123.488 487.904 123.131 487.632 122.774C487.598 122.723 487.598 122.672 487.615 122.621ZM500.212 127.874L497.254 127.908V128.843C497.254 129.931 497.101 131.206 496.863 132.005H496.149C496.081 131.342 496.047 129.965 496.047 129.234V122.859C495.758 122.502 495.214 122.196 494.619 121.992L494.755 121.584C494.772 121.533 494.806 121.499 494.942 121.499C495.554 121.516 496.608 121.737 497.101 121.941C497.254 121.992 497.305 122.111 497.305 122.281L497.254 123.165V127.177L498.461 127.126L499.005 126.803C499.498 126.786 500.195 126.82 500.501 126.888C500.637 126.922 500.739 127.041 500.739 127.177C500.756 127.483 500.654 127.704 500.535 127.772C500.467 127.84 500.331 127.874 500.212 127.874ZM485.405 131.852L485.252 131.665C485.201 131.614 485.184 131.563 485.252 131.512C488.193 129.897 490.59 127.704 491.899 125.63C490.896 125.647 488.754 125.698 488.295 125.749C487.955 125.766 487.326 125.868 487.003 125.97C486.561 125.8 486.102 125.511 485.779 125.239C485.728 125.188 485.711 125.137 485.728 125.086L485.83 124.899C486.255 124.967 486.816 125.001 487.207 125.001C487.853 125.001 491.321 124.967 492.154 124.899L492.698 124.627C492.783 124.593 492.902 124.593 493.004 124.627C493.208 124.695 493.599 124.882 493.735 124.984C493.82 125.035 493.82 125.12 493.769 125.188L493.412 125.681C492.936 126.463 492.29 127.262 491.525 128.01L493.072 129.098L493.905 129.336C494.177 129.625 494.5 130.067 494.653 130.322C494.755 130.475 494.789 130.611 494.772 130.713C494.721 130.9 494.466 131.053 494.279 131.036C494.194 131.019 494.024 130.934 493.922 130.832L490.913 128.571C489.417 129.88 487.547 131.036 485.558 131.835C485.49 131.869 485.439 131.886 485.405 131.852Z" fill="white"/>
<path d="M127.024 139.075C127.024 137.443 125.885 136.457 124.423 136.457C122.944 136.457 121.822 137.443 121.822 139.075C121.822 140.69 122.944 141.676 124.423 141.676C125.885 141.676 127.024 140.69 127.024 139.075ZM126.055 146.504V148C126.055 148.306 126.174 148.442 126.48 148.442C127.568 148.459 130.662 148.442 131.665 148.391L132.209 148.085C132.702 148.085 133.467 148.136 133.807 148.221C133.926 148.238 134.028 148.323 134.028 148.459C134.028 148.765 133.926 148.969 133.841 149.054C133.773 149.122 133.705 149.139 133.603 149.139L126.31 149.173C125.205 149.173 124.814 148.782 124.814 147.847V145.467C124.542 145.246 124.066 145.076 123.607 144.957L123.692 144.583C123.709 144.515 123.777 144.481 123.879 144.481C124.44 144.481 125.409 144.549 125.834 144.651C126.004 144.685 126.072 144.787 126.072 144.974L126.055 145.722V146.504ZM128.962 140.588C129.506 140.588 130.781 140.554 131.631 140.503V137.494C131.121 137.494 130.526 137.511 130.254 137.528C129.931 137.562 129.506 137.664 129.183 137.783C128.724 137.596 128.316 137.341 128.01 137.086C127.942 137.052 127.925 136.984 127.959 136.933L128.044 136.746C128.452 136.814 128.945 136.848 129.37 136.848C129.846 136.848 130.866 136.831 131.631 136.78V134.859C131.325 134.502 130.798 134.196 130.186 133.992L130.322 133.584C130.339 133.533 130.373 133.499 130.509 133.499C131.138 133.516 132.192 133.737 132.668 133.941C132.821 133.992 132.872 134.111 132.872 134.281L132.838 135.165V142.322C132.838 143.512 132.685 144.838 132.43 145.688H131.716C131.648 145.008 131.631 143.529 131.631 142.747V141.217C131.019 141.217 130.203 141.234 129.846 141.268C129.523 141.302 129.098 141.404 128.775 141.523C128.367 141.353 128.01 141.149 127.721 140.928C127.075 141.965 125.868 142.611 124.423 142.611C122.196 142.611 120.564 141.149 120.564 139.075C120.564 136.984 122.196 135.556 124.423 135.556C126.616 135.556 128.231 136.984 128.231 139.075C128.231 139.602 128.129 140.095 127.925 140.537C128.265 140.571 128.639 140.588 128.962 140.588ZM145.16 139.432C145.755 139.432 147.183 139.381 148.05 139.347V134.859C147.761 134.502 147.217 134.196 146.622 133.992L146.741 133.584C146.775 133.533 146.809 133.499 146.945 133.499C147.557 133.516 148.611 133.737 149.104 133.941C149.257 133.992 149.308 134.111 149.308 134.281L149.257 135.165V142.254C149.257 143.427 149.104 144.753 148.866 145.603H148.152C148.084 144.923 148.05 143.461 148.05 142.662V140.078C147.404 140.061 146.469 140.078 146.061 140.112C145.755 140.146 145.296 140.248 144.99 140.367C144.497 140.18 144.055 139.942 143.732 139.67C143.664 139.619 143.647 139.568 143.681 139.5L143.766 139.33C144.191 139.398 144.718 139.432 145.16 139.432ZM142.95 148.442C144.038 148.459 147.081 148.442 148.067 148.391L148.611 148.102C149.121 148.085 149.886 148.153 150.226 148.221C150.345 148.238 150.447 148.323 150.447 148.459C150.447 148.765 150.328 148.986 150.26 149.054C150.192 149.122 150.124 149.139 150.022 149.139L142.78 149.19C141.658 149.173 141.284 148.799 141.284 147.847V145.433C141.012 145.229 140.536 145.042 140.077 144.94L140.162 144.566C140.179 144.498 140.247 144.464 140.349 144.464C140.91 144.464 141.879 144.532 142.304 144.617C142.474 144.668 142.542 144.753 142.542 144.94L142.525 145.705V148C142.525 148.306 142.644 148.442 142.95 148.442ZM136.728 144.43L136.558 144.226C136.507 144.192 136.49 144.141 136.558 144.09C139.788 141.931 142.236 139.092 143.341 136.491C142.44 136.491 140.213 136.542 139.737 136.576C139.431 136.593 138.819 136.712 138.513 136.831C138.071 136.678 137.578 136.389 137.238 136.117C137.17 136.066 137.17 136.015 137.187 135.964L137.306 135.76C137.731 135.828 138.309 135.862 138.734 135.862C139.346 135.862 142.644 135.811 143.46 135.76L144.004 135.471C144.089 135.437 144.208 135.437 144.293 135.471C144.497 135.573 144.871 135.777 145.024 135.862C145.092 135.913 145.092 135.998 145.058 136.066L144.769 136.576C143.715 139.449 140.587 142.56 136.881 144.413C136.813 144.447 136.762 144.447 136.728 144.43Z" fill="white"/>
<path d="M128.311 433.836H127.614C127.563 433.122 127.512 431.456 127.512 430.708V418.859C127.223 418.502 126.679 418.196 126.067 417.992L126.203 417.584C126.22 417.533 126.254 417.499 126.39 417.499C127.002 417.516 128.073 417.737 128.566 417.941C128.719 417.992 128.77 418.111 128.77 418.281L128.719 419.182V430.283C128.719 431.269 128.566 432.867 128.311 433.836ZM123.534 426.101L124.367 426.526C124.656 426.934 125.03 427.546 125.183 427.903C125.285 428.141 125.302 428.311 125.251 428.43C125.149 428.634 124.826 428.753 124.639 428.668C124.537 428.634 124.367 428.464 124.248 428.328L120.899 424.537C119.845 426.203 118.366 427.801 116.513 429.161C116.445 429.195 116.394 429.195 116.326 429.161L116.122 428.991C116.088 428.94 116.088 428.906 116.156 428.821C118.587 426.492 120.372 423.551 120.933 421.086C120.78 420.763 120.338 420.372 119.896 420.134L120.1 419.777C120.134 419.726 120.185 419.692 120.287 419.709C120.882 419.828 121.851 420.168 122.191 420.406C122.327 420.474 122.395 420.593 122.395 420.729C122.395 420.848 122.378 421.001 122.361 421.103C122.157 421.987 121.817 422.905 121.324 423.806L123.534 426.101ZM136.74 417.635L136.859 417.482C138.508 417.754 140.293 417.788 141.602 417.788C141.755 417.788 141.823 417.839 141.857 417.941C141.925 418.077 141.908 418.434 141.823 418.553C141.772 418.638 141.67 418.655 141.568 418.655C140.548 418.672 139.052 418.706 138.219 418.774C138.049 418.774 137.981 418.774 137.879 418.723C137.505 418.519 137.063 418.145 136.757 417.771C136.723 417.703 136.723 417.669 136.74 417.635ZM144.747 426.441L145.359 426.186C145.971 426.203 146.872 426.305 147.263 426.441C147.382 426.475 147.484 426.577 147.484 426.713C147.484 427.002 147.28 427.257 147.127 427.342C146.668 427.291 145.665 427.257 145.155 427.257C143.965 427.24 136.179 427.342 135.278 427.393C134.853 427.427 133.986 427.58 133.578 427.716C132.966 427.529 132.337 427.172 131.912 426.832C131.861 426.798 131.844 426.747 131.861 426.679L131.98 426.441C132.541 426.543 133.34 426.611 133.867 426.611C134.904 426.628 143.557 426.526 144.747 426.441ZM143.438 431.201C143.438 432.782 141.874 433.904 139.63 433.904C137.386 433.904 135.822 432.782 135.822 431.201C135.822 429.671 137.386 428.6 139.63 428.6C141.874 428.6 143.438 429.671 143.438 431.201ZM142.18 431.201C142.18 430.062 141.126 429.348 139.63 429.348C138.134 429.348 137.08 430.062 137.08 431.201C137.08 432.323 138.134 433.037 139.63 433.037C141.126 433.037 142.18 432.323 142.18 431.201ZM143.098 419.624L143.659 419.369C144.169 419.386 144.917 419.471 145.257 419.59C145.359 419.624 145.427 419.709 145.427 419.811C145.427 420.083 145.24 420.338 145.121 420.389C144.764 420.355 143.863 420.338 143.472 420.338C142.605 420.338 137.25 420.406 136.434 420.457C136.094 420.474 135.431 420.61 135.108 420.729C134.598 420.576 134.02 420.253 133.629 419.947C133.578 419.913 133.561 419.862 133.595 419.811L133.697 419.607C134.207 419.692 134.955 419.76 135.363 419.76C136.179 419.777 142.163 419.692 143.098 419.624ZM143.234 423.228C143.234 424.622 141.67 425.489 139.63 425.489C137.59 425.489 136.026 424.622 136.026 423.228C136.026 421.817 137.59 420.984 139.63 420.984C141.67 420.984 143.234 421.817 143.234 423.228ZM142.027 423.228C142.027 422.259 140.973 421.732 139.63 421.732C138.287 421.732 137.233 422.259 137.233 423.228C137.233 424.197 138.287 424.724 139.63 424.724C140.973 424.724 142.027 424.197 142.027 423.228Z" fill="white"/>
<path d="M480.466 438.717H479.752C479.701 437.952 479.667 436.405 479.667 435.623V432.257C477.848 432.274 476.233 432.308 475.859 432.342C475.434 432.376 474.567 432.529 474.159 432.665C473.547 432.461 472.918 432.121 472.493 431.764C472.442 431.73 472.425 431.679 472.442 431.611L472.561 431.373C473.122 431.475 473.921 431.543 474.448 431.56C475.485 431.577 484.138 431.458 485.328 431.39L485.94 431.118C486.552 431.135 487.453 431.237 487.844 431.373C487.963 431.407 488.065 431.509 488.065 431.662C488.065 431.951 487.861 432.206 487.708 432.291C487.249 432.24 486.246 432.206 485.736 432.206L480.874 432.24V435.232C480.874 436.133 480.704 437.799 480.466 438.717ZM483.934 427.344L485.09 427.531C485.498 427.786 486.042 428.194 486.297 428.415C486.484 428.585 486.552 428.738 486.552 428.84C486.552 429.061 486.314 429.265 486.127 429.282C486.008 429.282 485.804 429.214 485.651 429.129L480.075 426.307C478.647 427.786 476.624 429.044 474.261 429.894C474.193 429.928 474.142 429.928 474.091 429.894L473.904 429.69C473.87 429.639 473.887 429.571 473.955 429.537C476.76 428.143 478.97 426.171 479.99 424.284C479.82 424.046 479.463 423.74 479.089 423.553L479.293 423.213C479.344 423.145 479.412 423.128 479.531 423.145C480.143 423.23 481.01 423.468 481.367 423.672C481.537 423.757 481.588 423.876 481.588 424.029C481.588 424.199 481.537 424.335 481.486 424.42C481.248 424.862 480.942 425.304 480.602 425.712L483.934 427.344ZM498.092 426.545C498.092 428.177 496.545 429.265 494.556 429.265C492.584 429.265 491.037 428.177 491.037 426.545C491.037 424.896 492.584 423.791 494.556 423.791C496.545 423.791 498.092 424.896 498.092 426.545ZM496.851 426.545C496.851 425.355 495.848 424.641 494.556 424.641C493.281 424.641 492.278 425.355 492.278 426.545C492.278 427.718 493.281 428.432 494.556 428.432C495.848 428.432 496.851 427.718 496.851 426.545ZM499.792 430.03L499.826 430.336C499.843 430.421 499.809 430.455 499.741 430.472C498.67 430.761 496.919 431.067 495.236 431.288V431.917C495.236 432.546 495.1 433.413 494.913 433.906H494.131C494.063 433.43 494.029 432.682 494.029 432.189V431.441C493.332 431.509 492.686 431.56 492.159 431.594C491.853 431.611 491.122 431.798 490.85 431.917C490.238 431.662 489.592 431.305 489.116 430.931C489.048 430.88 489.031 430.829 489.065 430.761L489.184 430.54C489.762 430.642 490.493 430.693 491.054 430.693C493.213 430.693 497.497 430.353 499.622 429.979C499.707 429.962 499.775 429.979 499.792 430.03ZM501.849 435.334H501.135C501.084 434.773 501.05 433.634 501.033 432.835C500.387 432.869 499.486 432.937 499.112 433.005C498.806 433.039 498.381 433.158 498.092 433.277C497.633 433.107 497.225 432.886 496.885 432.648C496.834 432.597 496.817 432.546 496.834 432.478L496.953 432.274C497.344 432.325 497.854 432.342 498.262 432.342C498.84 432.325 500.166 432.24 501.033 432.155V423.859C500.744 423.502 500.2 423.196 499.605 422.992L499.724 422.584C499.758 422.533 499.792 422.499 499.928 422.499C500.54 422.516 501.594 422.737 502.087 422.941C502.24 422.992 502.291 423.111 502.291 423.281L502.24 424.165V431.968C502.24 432.988 502.087 434.45 501.849 435.334ZM495.236 436.507V437.289C495.236 437.595 495.355 437.731 495.661 437.731C496.783 437.748 499.962 437.714 500.965 437.663L501.526 437.374C502.019 437.374 502.767 437.425 503.09 437.493C503.226 437.527 503.311 437.612 503.311 437.731C503.311 438.037 503.209 438.258 503.124 438.326C503.056 438.377 502.971 438.411 502.886 438.411L495.491 438.462C494.386 438.462 493.995 438.071 493.995 437.153V435.453C493.723 435.249 493.247 435.062 492.788 434.96L492.873 434.586C492.89 434.518 492.958 434.484 493.06 434.484C493.621 434.484 494.59 434.535 495.015 434.637C495.168 434.671 495.253 434.773 495.253 434.96L495.236 435.725V436.507Z" fill="white"/>
</g>
</svg>
