<svg width="624" height="579" viewBox="0 0 624 579" fill="none" xmlns="http://www.w3.org/2000/svg">
<mask id="mask0_616_8" style="mask-type:alpha" maskUnits="userSpaceOnUse" x="0" y="0" width="624" height="579">
<rect width="624" height="579" fill="#D9D9D9"/>
</mask>
<g mask="url(#mask0_616_8)">
<path d="M292.338 40.92V41.56C291.118 41.74 291.038 41.82 291.038 42.98V44.68C291.038 45.36 291.058 46 291.178 46.56C289.918 46.86 288.218 47.3 286.618 47.3C282.178 47.3 279.238 44.54 279.238 40.58C279.238 35.92 282.998 33.7 286.918 33.7C288.598 33.7 290.178 34.12 290.838 34.28C290.898 34.98 290.998 36.12 291.178 37.48L290.518 37.6C289.998 35.1 288.498 34.48 286.618 34.48C283.598 34.48 281.338 36.66 281.338 40.34C281.338 43.22 283.058 46.52 286.898 46.52C287.578 46.52 288.198 46.38 288.638 46.16C289.058 45.94 289.278 45.68 289.278 44.86V43.28C289.278 41.84 289.158 41.72 287.138 41.56V40.92H292.338ZM306.815 38.2V38.8C305.795 38.94 305.595 39.18 305.175 40.3C304.555 41.94 303.695 44.48 302.775 47.2H302.135C301.295 45 300.495 43.06 299.695 41.02C298.935 42.98 298.115 45 297.315 47.2H296.655C295.935 44.84 295.195 42.5 294.355 40.12C293.995 39.06 293.815 38.92 292.835 38.8V38.2H297.055V38.8C295.855 38.98 295.775 39.1 296.055 40C296.515 41.52 297.015 43.08 297.475 44.58H297.515C298.275 42.66 299.015 40.62 299.855 38.3H300.475C301.215 40.38 302.035 42.5 302.855 44.64H302.895C303.315 43.32 303.875 41.54 304.255 40.1C304.515 39.08 304.395 38.96 303.095 38.8V38.2H306.815ZM315.46 46.22L313.68 47.24C313.4 47.24 312.96 47.06 312.76 46.86C312.48 46.58 312.36 46.3 312.26 45.98C311.44 46.52 310.5 47.24 309.86 47.24C308.44 47.24 307.42 46.06 307.42 44.74C307.42 43.76 307.94 43.12 309.08 42.74C310.3 42.32 311.78 41.76 312.22 41.42V41.12C312.22 39.7 311.52 38.9 310.54 38.9C310.14 38.9 309.84 39.06 309.62 39.3C309.38 39.56 309.22 40 309.04 40.6C308.94 40.92 308.72 41.08 308.42 41.08C308.04 41.08 307.52 40.68 307.52 40.18C307.52 39.88 307.78 39.64 308.18 39.36C308.72 38.96 310.02 38.2 311.2 37.96C311.82 37.96 312.44 38.14 312.88 38.5C313.58 39.1 313.78 39.92 313.78 40.96V44.64C313.78 45.56 314.14 45.86 314.48 45.86C314.74 45.86 315.02 45.74 315.22 45.62L315.46 46.22ZM312.22 45.26V42.18C311.78 42.4 310.82 42.82 310.4 43.02C309.6 43.38 309.18 43.76 309.18 44.48C309.18 45.5 309.98 45.98 310.58 45.98C311.12 45.96 311.86 45.6 312.22 45.26ZM326.068 47H321.848V46.4C323.008 46.28 323.128 46.12 323.128 44.8V41.46C323.128 40.06 322.628 39.2 321.328 39.2C320.508 39.2 319.728 39.7 319.108 40.24V44.86C319.108 46.22 319.228 46.28 320.428 46.4V47H316.028V46.4C317.408 46.26 317.488 46.16 317.488 44.86V40.8C317.488 39.52 317.368 39.44 316.268 39.26V38.72C317.268 38.54 318.248 38.28 319.108 37.9V39.5C319.508 39.2 319.928 38.9 320.448 38.58C320.988 38.2 321.548 37.96 322.128 37.96C323.748 37.96 324.748 39.08 324.748 41.04V44.86C324.748 46.22 324.868 46.26 326.068 46.4V47ZM335.342 46.22L333.562 47.24C333.282 47.24 332.842 47.06 332.642 46.86C332.362 46.58 332.242 46.3 332.142 45.98C331.322 46.52 330.382 47.24 329.742 47.24C328.322 47.24 327.302 46.06 327.302 44.74C327.302 43.76 327.822 43.12 328.962 42.74C330.182 42.32 331.662 41.76 332.102 41.42V41.12C332.102 39.7 331.402 38.9 330.422 38.9C330.022 38.9 329.722 39.06 329.502 39.3C329.262 39.56 329.102 40 328.922 40.6C328.822 40.92 328.602 41.08 328.302 41.08C327.922 41.08 327.402 40.68 327.402 40.18C327.402 39.88 327.662 39.64 328.062 39.36C328.602 38.96 329.902 38.2 331.082 37.96C331.702 37.96 332.322 38.14 332.762 38.5C333.462 39.1 333.662 39.92 333.662 40.96V44.64C333.662 45.56 334.022 45.86 334.362 45.86C334.622 45.86 334.902 45.74 335.102 45.62L335.342 46.22ZM332.102 45.26V42.18C331.662 42.4 330.702 42.82 330.282 43.02C329.482 43.38 329.062 43.76 329.062 44.48C329.062 45.5 329.862 45.98 330.462 45.98C331.002 45.96 331.742 45.6 332.102 45.26ZM346.005 47L343.225 47.02C342.225 45.94 341.005 44.38 339.865 43.06C339.605 42.74 339.425 42.64 339.265 42.64C339.185 42.64 339.085 42.66 338.945 42.7V44.86C338.945 46.16 339.125 46.28 340.425 46.4V47H335.845V46.4C337.205 46.28 337.345 46.12 337.345 44.86V35.6C337.345 34.28 337.245 34.18 335.985 34.08V33.5C336.985 33.4 338.145 33.06 338.945 32.82V42.12C339.545 42 339.905 41.74 340.205 41.44C340.645 41 341.245 40.2 341.585 39.7C341.965 39.14 341.925 38.96 341.005 38.88V38.26L345.205 38.08V38.68C343.825 38.9 343.325 39.12 342.565 39.84C342.065 40.32 341.725 40.7 340.865 41.72C341.265 42.32 343.345 44.66 343.985 45.32C344.665 46 345.205 46.36 346.005 46.4V47Z" fill="white"/>
<path d="M91.6298 130.422V131.062C90.2498 131.222 89.9698 131.422 89.1498 132.742C88.2898 134.102 87.6298 135.242 86.6698 137.002C86.4098 137.462 86.3498 137.702 86.3498 138.202V140.862C86.3498 142.502 86.5098 142.662 88.3898 142.782V143.422H82.6098V142.782C84.4298 142.662 84.5898 142.522 84.5898 140.862V138.282C84.5898 137.882 84.5098 137.702 84.1698 137.082C83.4098 135.782 82.6898 134.502 81.6298 132.742C80.8498 131.422 80.5898 131.182 79.3698 131.062V130.422H84.2498V131.062C82.7898 131.262 82.8698 131.482 83.2498 132.182C84.0698 133.702 85.0498 135.262 85.9098 136.762C86.6698 135.422 87.6898 133.582 88.2498 132.362C88.6898 131.402 88.6698 131.222 87.0698 131.062V130.422H91.6298ZM97.2757 141.242L97.6357 141.742C96.3357 143.322 94.9557 143.662 94.2957 143.662C91.8357 143.662 90.3757 141.642 90.3757 139.382C90.3757 138.002 90.8957 136.742 91.6957 135.862C92.5357 134.922 93.6157 134.382 94.6757 134.382C96.3757 134.382 97.7357 135.882 97.7357 137.502C97.7357 137.942 97.6557 138.122 97.2757 138.202C96.9357 138.242 94.3757 138.442 91.9957 138.522C92.0357 141.142 93.5557 142.242 94.9557 142.242C95.7957 142.242 96.5557 141.922 97.2757 141.242ZM94.2157 135.182C93.2957 135.182 92.4157 136.022 92.0957 137.622C93.1957 137.622 94.3157 137.622 95.4757 137.582C95.8557 137.562 95.9757 137.462 95.9757 137.162C95.9757 136.102 95.2757 135.182 94.2157 135.182ZM103.585 134.382C106.065 134.382 107.965 136.382 107.965 138.882C107.965 142.142 105.565 143.662 103.585 143.662C100.785 143.662 99.1452 141.442 99.1452 139.222C99.1452 135.882 101.745 134.382 103.585 134.382ZM103.365 135.122C102.165 135.122 101.045 136.302 101.045 138.582C101.045 141.082 102.165 142.922 103.805 142.922C105.025 142.922 106.065 142.022 106.065 139.322C106.065 136.982 105.105 135.122 103.365 135.122ZM119.162 143.422H114.942V142.822C116.102 142.702 116.222 142.542 116.222 141.222V137.882C116.222 136.482 115.722 135.622 114.422 135.622C113.602 135.622 112.822 136.122 112.202 136.662V141.282C112.202 142.642 112.322 142.702 113.522 142.822V143.422H109.122V142.822C110.502 142.682 110.582 142.582 110.582 141.282V137.222C110.582 135.942 110.462 135.862 109.362 135.682V135.142C110.362 134.962 111.342 134.702 112.202 134.322V135.922C112.602 135.622 113.022 135.322 113.542 135.002C114.082 134.622 114.642 134.382 115.222 134.382C116.842 134.382 117.842 135.502 117.842 137.462V141.282C117.842 142.642 117.962 142.682 119.162 142.822V143.422ZM128.958 134.602L129.078 134.782C128.898 135.102 128.498 135.662 128.178 135.822L127.038 135.742C127.378 136.182 127.618 136.802 127.618 137.502C127.618 139.642 125.818 140.702 124.038 140.702C123.718 140.702 123.338 140.662 123.018 140.602C122.738 140.782 122.418 141.142 122.418 141.422C122.418 141.782 122.758 142.182 123.658 142.182C124.438 142.182 125.138 142.162 125.798 142.162C127.098 142.162 128.738 142.562 128.738 144.542C128.738 146.602 126.338 148.502 123.678 148.502C121.418 148.502 120.178 147.182 120.158 146.022C120.138 145.582 120.338 145.182 120.658 144.882C121.058 144.462 121.818 143.882 122.258 143.542C121.558 143.322 121.058 142.882 120.798 142.462C120.618 142.162 120.558 141.802 120.578 141.602C121.378 141.302 121.998 140.762 122.318 140.362C121.458 140.002 120.598 139.082 120.598 137.702C120.598 135.442 122.658 134.382 124.238 134.382C124.918 134.382 125.598 134.562 126.198 134.882C127.158 134.842 128.158 134.722 128.958 134.602ZM124.058 135.062C123.158 135.062 122.358 135.902 122.358 137.402C122.358 138.902 123.138 140.002 124.238 140.002C125.158 139.982 125.938 139.162 125.938 137.662C125.938 136.142 125.158 135.062 124.058 135.062ZM124.498 143.602C123.518 143.602 123.058 143.722 122.698 144.022C122.178 144.462 121.798 145.002 121.798 145.542C121.798 146.622 122.938 147.422 124.438 147.422C126.318 147.422 127.318 146.442 127.318 145.222C127.318 144.562 126.998 144.082 126.438 143.862C125.918 143.642 125.338 143.602 124.498 143.602ZM136.631 141.242L136.991 141.742C135.691 143.322 134.311 143.662 133.651 143.662C131.191 143.662 129.731 141.642 129.731 139.382C129.731 138.002 130.251 136.742 131.051 135.862C131.891 134.922 132.971 134.382 134.031 134.382C135.731 134.382 137.091 135.882 137.091 137.502C137.091 137.942 137.011 138.122 136.631 138.202C136.291 138.242 133.731 138.442 131.351 138.522C131.391 141.142 132.911 142.242 134.311 142.242C135.151 142.242 135.911 141.922 136.631 141.242ZM133.571 135.182C132.651 135.182 131.771 136.022 131.451 137.622C132.551 137.622 133.671 137.622 134.831 137.582C135.211 137.562 135.331 137.462 135.331 137.162C135.331 136.102 134.631 135.182 133.571 135.182ZM142.941 134.382C145.421 134.382 147.321 136.382 147.321 138.882C147.321 142.142 144.921 143.662 142.941 143.662C140.141 143.662 138.501 141.442 138.501 139.222C138.501 135.882 141.101 134.382 142.941 134.382ZM142.721 135.122C141.521 135.122 140.401 136.302 140.401 138.582C140.401 141.082 141.521 142.922 143.161 142.922C144.381 142.922 145.421 142.022 145.421 139.322C145.421 136.982 144.461 135.122 142.721 135.122ZM158.517 143.422H154.297V142.822C155.457 142.702 155.577 142.542 155.577 141.222V137.882C155.577 136.482 155.077 135.622 153.777 135.622C152.957 135.622 152.177 136.122 151.557 136.662V141.282C151.557 142.642 151.677 142.702 152.877 142.822V143.422H148.477V142.822C149.857 142.682 149.937 142.582 149.937 141.282V137.222C149.937 135.942 149.817 135.862 148.717 135.682V135.142C149.717 134.962 150.697 134.702 151.557 134.322V135.922C151.957 135.622 152.377 135.322 152.897 135.002C153.437 134.622 153.997 134.382 154.577 134.382C156.197 134.382 157.197 135.502 157.197 137.462V141.282C157.197 142.642 157.317 142.682 158.517 142.822V143.422Z" fill="white"/>
<path d="M91.8127 419.402L91.1127 419.522C90.7727 418.282 90.2927 416.862 88.5527 416.862C87.0127 416.862 86.3527 417.982 86.3527 419.002C86.3527 420.442 87.3127 421.142 88.8727 421.922C90.4527 422.702 92.3727 423.642 92.3727 425.902C92.3727 428.062 90.5727 429.722 87.8927 429.722C87.0527 429.722 86.3927 429.582 85.8927 429.402C85.4127 429.262 85.1127 429.102 84.9127 429.002C84.7527 428.542 84.4927 426.942 84.3527 425.862L85.0527 425.702C85.3527 426.922 86.2327 428.922 88.2927 428.922C89.7727 428.922 90.6727 428.022 90.6727 426.582C90.6727 425.102 89.5727 424.402 88.0527 423.622C86.7327 422.922 84.7327 421.942 84.7327 419.702C84.7327 417.742 86.2927 416.122 88.8927 416.122C89.7727 416.122 90.6127 416.302 91.4527 416.582C91.5327 417.302 91.6527 418.062 91.8127 419.402ZM95.7834 418.702C95.2234 418.702 94.7234 418.222 94.7234 417.642C94.7234 417.022 95.2234 416.542 95.8034 416.542C96.3834 416.542 96.8634 417.022 96.8634 417.642C96.8634 418.222 96.3834 418.702 95.7834 418.702ZM98.1634 429.422H93.6834V428.822C94.9634 428.702 95.1034 428.582 95.1034 427.242V423.182C95.1034 421.942 95.0634 421.862 93.8234 421.682V421.142C94.9034 420.962 95.8634 420.702 96.7234 420.342V427.242C96.7234 428.582 96.8634 428.702 98.1634 428.822V429.422ZM109.069 429.422H104.769V428.822C105.929 428.702 106.109 428.582 106.109 427.282V424.022C106.109 422.382 105.469 421.582 104.129 421.582C103.349 421.582 102.589 421.962 102.029 422.622V427.282C102.029 428.562 102.149 428.702 103.349 428.822V429.422H99.0089V428.822C100.229 428.702 100.429 428.602 100.429 427.302V417.942C100.429 416.682 100.369 416.602 99.0289 416.482V415.922C100.009 415.782 101.229 415.482 102.029 415.242V421.822C102.749 421.102 103.849 420.382 104.909 420.382C106.569 420.382 107.729 421.442 107.729 423.802V427.302C107.729 428.602 107.869 428.722 109.069 428.822V429.422ZM117.129 427.242L117.489 427.742C116.189 429.322 114.809 429.662 114.149 429.662C111.689 429.662 110.229 427.642 110.229 425.382C110.229 424.002 110.749 422.742 111.549 421.862C112.389 420.922 113.469 420.382 114.529 420.382C116.229 420.382 117.589 421.882 117.589 423.502C117.589 423.942 117.509 424.122 117.129 424.202C116.789 424.242 114.229 424.442 111.849 424.522C111.889 427.142 113.409 428.242 114.809 428.242C115.649 428.242 116.409 427.922 117.129 427.242ZM114.069 421.182C113.149 421.182 112.269 422.022 111.949 423.622C113.049 423.622 114.169 423.622 115.329 423.582C115.709 423.562 115.829 423.462 115.829 423.162C115.829 422.102 115.129 421.182 114.069 421.182ZM128.661 428.342V428.942C127.721 429.082 126.661 429.362 125.661 429.662L125.521 429.542V428.142C125.061 428.482 124.621 428.842 124.041 429.162C123.461 429.502 123.041 429.662 122.481 429.662C121.121 429.662 119.961 428.842 119.961 426.622V422.822C119.961 421.662 119.881 421.602 118.701 421.402V420.842C119.681 420.782 120.661 420.662 121.641 420.482C121.581 421.162 121.581 422.182 121.581 423.442V426.102C121.581 427.862 122.461 428.342 123.381 428.342C124.101 428.342 124.821 428.042 125.521 427.402V422.822C125.521 421.642 125.421 421.582 123.941 421.402V420.842C125.001 420.802 126.061 420.702 127.141 420.482V427.142C127.141 428.162 127.321 428.282 128.101 428.322L128.661 428.342ZM139.601 429.422H135.381V428.822C136.541 428.702 136.661 428.542 136.661 427.222V423.882C136.661 422.482 136.161 421.622 134.861 421.622C134.041 421.622 133.261 422.122 132.641 422.662V427.282C132.641 428.642 132.761 428.702 133.961 428.822V429.422H129.561V428.822C130.941 428.682 131.021 428.582 131.021 427.282V423.222C131.021 421.942 130.901 421.862 129.801 421.682V421.142C130.801 420.962 131.781 420.702 132.641 420.322V421.922C133.041 421.622 133.461 421.322 133.981 421.002C134.521 420.622 135.081 420.382 135.661 420.382C137.281 420.382 138.281 421.502 138.281 423.462V427.282C138.281 428.642 138.401 428.682 139.601 428.822V429.422ZM149.397 420.602L149.517 420.782C149.337 421.102 148.937 421.662 148.617 421.822L147.477 421.742C147.817 422.182 148.057 422.802 148.057 423.502C148.057 425.642 146.257 426.702 144.477 426.702C144.157 426.702 143.777 426.662 143.457 426.602C143.177 426.782 142.857 427.142 142.857 427.422C142.857 427.782 143.197 428.182 144.097 428.182C144.877 428.182 145.577 428.162 146.237 428.162C147.537 428.162 149.177 428.562 149.177 430.542C149.177 432.602 146.777 434.502 144.117 434.502C141.857 434.502 140.617 433.182 140.597 432.022C140.577 431.582 140.777 431.182 141.097 430.882C141.497 430.462 142.257 429.882 142.697 429.542C141.997 429.322 141.497 428.882 141.237 428.462C141.057 428.162 140.997 427.802 141.017 427.602C141.817 427.302 142.437 426.762 142.757 426.362C141.897 426.002 141.037 425.082 141.037 423.702C141.037 421.442 143.097 420.382 144.677 420.382C145.357 420.382 146.037 420.562 146.637 420.882C147.597 420.842 148.597 420.722 149.397 420.602ZM144.497 421.062C143.597 421.062 142.797 421.902 142.797 423.402C142.797 424.902 143.577 426.002 144.677 426.002C145.597 425.982 146.377 425.162 146.377 423.662C146.377 422.142 145.597 421.062 144.497 421.062ZM144.937 429.602C143.957 429.602 143.497 429.722 143.137 430.022C142.617 430.462 142.237 431.002 142.237 431.542C142.237 432.622 143.377 433.422 144.877 433.422C146.757 433.422 147.757 432.442 147.757 431.222C147.757 430.562 147.437 430.082 146.877 429.862C146.357 429.642 145.777 429.602 144.937 429.602Z" fill="white"/>
<path d="M479.752 428.402L479.052 428.522C478.712 427.282 478.232 425.862 476.492 425.862C474.952 425.862 474.292 426.982 474.292 428.002C474.292 429.442 475.252 430.142 476.812 430.922C478.392 431.702 480.312 432.642 480.312 434.902C480.312 437.062 478.512 438.722 475.832 438.722C474.992 438.722 474.332 438.582 473.832 438.402C473.352 438.262 473.052 438.102 472.852 438.002C472.692 437.542 472.432 435.942 472.292 434.862L472.992 434.702C473.292 435.922 474.172 437.922 476.232 437.922C477.712 437.922 478.612 437.022 478.612 435.582C478.612 434.102 477.512 433.402 475.992 432.622C474.672 431.922 472.672 430.942 472.672 428.702C472.672 426.742 474.232 425.122 476.832 425.122C477.712 425.122 478.552 425.302 479.392 425.582C479.472 426.302 479.592 427.062 479.752 428.402ZM491.366 437.342V437.942C490.426 438.082 489.366 438.362 488.366 438.662L488.226 438.542V437.142C487.766 437.482 487.326 437.842 486.746 438.162C486.166 438.502 485.746 438.662 485.186 438.662C483.826 438.662 482.666 437.842 482.666 435.622V431.822C482.666 430.662 482.586 430.602 481.406 430.402V429.842C482.386 429.782 483.366 429.662 484.346 429.482C484.286 430.162 484.286 431.182 484.286 432.442V435.102C484.286 436.862 485.166 437.342 486.086 437.342C486.806 437.342 487.526 437.042 488.226 436.402V431.822C488.226 430.642 488.126 430.582 486.646 430.402V429.842C487.706 429.802 488.766 429.702 489.846 429.482V436.142C489.846 437.162 490.026 437.282 490.806 437.322L491.366 437.342ZM505.69 429.622V430.222C504.67 430.362 504.47 430.602 504.05 431.722C503.43 433.362 502.57 435.902 501.65 438.622H501.01C500.17 436.422 499.37 434.482 498.57 432.442C497.81 434.402 496.99 436.422 496.19 438.622H495.53C494.81 436.262 494.07 433.922 493.23 431.542C492.87 430.482 492.69 430.342 491.71 430.222V429.622H495.93V430.222C494.73 430.402 494.65 430.522 494.93 431.422C495.39 432.942 495.89 434.502 496.35 436.002H496.39C497.15 434.082 497.89 432.042 498.73 429.722H499.35C500.09 431.802 500.91 433.922 501.73 436.062H501.77C502.19 434.742 502.75 432.962 503.13 431.522C503.39 430.502 503.27 430.382 501.97 430.222V429.622H505.69ZM510.538 429.382C513.018 429.382 514.918 431.382 514.918 433.882C514.918 437.142 512.518 438.662 510.538 438.662C507.738 438.662 506.098 436.442 506.098 434.222C506.098 430.882 508.698 429.382 510.538 429.382ZM510.318 430.122C509.118 430.122 507.998 431.302 507.998 433.582C507.998 436.082 509.118 437.922 510.758 437.922C511.978 437.922 513.018 437.022 513.018 434.322C513.018 431.982 512.058 430.122 510.318 430.122ZM526.115 438.422H521.895V437.822C523.055 437.702 523.175 437.542 523.175 436.222V432.882C523.175 431.482 522.675 430.622 521.375 430.622C520.555 430.622 519.775 431.122 519.155 431.662V436.282C519.155 437.642 519.275 437.702 520.475 437.822V438.422H516.075V437.822C517.455 437.682 517.535 437.582 517.535 436.282V432.222C517.535 430.942 517.415 430.862 516.315 430.682V430.142C517.315 429.962 518.295 429.702 519.155 429.322V430.922C519.555 430.622 519.975 430.322 520.495 430.002C521.035 429.622 521.595 429.382 522.175 429.382C523.795 429.382 524.795 430.502 524.795 432.462V436.282C524.795 437.642 524.915 437.682 526.115 437.822V438.422Z" fill="white"/>
<path d="M458.438 114.422H463.478C464.918 114.422 466.058 114.642 466.878 115.242C467.658 115.822 468.178 116.762 468.178 118.082C468.178 120.682 466.238 121.942 464.258 122.182C463.938 122.222 463.558 122.222 463.338 122.202L461.838 121.822V124.862C461.838 126.562 462.018 126.642 463.878 126.782V127.422H458.298V126.782C459.938 126.642 460.098 126.502 460.098 124.842V117.002C460.098 115.242 459.938 115.162 458.438 115.062V114.422ZM461.838 116.262V121.082C462.078 121.182 462.638 121.342 463.318 121.342C464.638 121.342 466.198 120.642 466.198 118.162C466.198 116.022 464.818 115.142 463.178 115.142C462.618 115.142 462.178 115.222 462.058 115.382C461.898 115.502 461.838 115.742 461.838 116.262ZM478.918 118.622V119.202C477.858 119.382 477.658 119.542 477.118 120.662C476.638 121.702 475.998 123.342 474.618 126.602C473.258 129.822 472.838 130.922 472.558 132.002C472.438 132.402 472.178 132.502 471.878 132.502C471.298 132.502 470.698 131.982 470.698 131.482C470.698 131.162 470.858 130.982 471.198 130.742C471.838 130.362 472.218 129.882 472.678 129.042C473.038 128.382 473.198 127.982 473.278 127.722C473.378 127.422 473.378 127.142 473.258 126.802C472.438 124.542 471.558 122.102 470.958 120.682C470.538 119.642 470.318 119.362 469.218 119.202V118.622H473.338L473.358 119.202C472.418 119.362 472.318 119.582 472.578 120.282L474.398 125.262C474.958 123.882 475.798 121.642 476.238 120.322C476.478 119.582 476.338 119.362 475.198 119.202V118.622H478.918ZM486.076 125.242L486.436 125.742C485.136 127.322 483.756 127.662 483.096 127.662C480.636 127.662 479.176 125.642 479.176 123.382C479.176 122.002 479.696 120.742 480.496 119.862C481.336 118.922 482.416 118.382 483.476 118.382C485.176 118.382 486.536 119.882 486.536 121.502C486.536 121.942 486.456 122.122 486.076 122.202C485.736 122.242 483.176 122.442 480.796 122.522C480.836 125.142 482.356 126.242 483.756 126.242C484.596 126.242 485.356 125.922 486.076 125.242ZM483.016 119.182C482.096 119.182 481.216 120.022 480.896 121.622C481.996 121.622 483.116 121.622 484.276 121.582C484.656 121.562 484.776 121.462 484.776 121.162C484.776 120.102 484.076 119.182 483.016 119.182ZM492.386 118.382C494.866 118.382 496.766 120.382 496.766 122.882C496.766 126.142 494.366 127.662 492.386 127.662C489.586 127.662 487.946 125.442 487.946 123.222C487.946 119.882 490.546 118.382 492.386 118.382ZM492.166 119.122C490.966 119.122 489.846 120.302 489.846 122.582C489.846 125.082 490.966 126.922 492.606 126.922C493.826 126.922 494.866 126.022 494.866 123.322C494.866 120.982 493.906 119.122 492.166 119.122ZM507.963 127.422H503.743V126.822C504.903 126.702 505.023 126.542 505.023 125.222V121.882C505.023 120.482 504.523 119.622 503.223 119.622C502.403 119.622 501.623 120.122 501.003 120.662V125.282C501.003 126.642 501.123 126.702 502.323 126.822V127.422H497.923V126.822C499.303 126.682 499.383 126.582 499.383 125.282V121.222C499.383 119.942 499.263 119.862 498.163 119.682V119.142C499.163 118.962 500.143 118.702 501.003 118.322V119.922C501.403 119.622 501.823 119.322 502.343 119.002C502.883 118.622 503.443 118.382 504.023 118.382C505.643 118.382 506.643 119.502 506.643 121.462V125.282C506.643 126.642 506.763 126.682 507.963 126.822V127.422ZM517.758 118.602L517.878 118.782C517.698 119.102 517.298 119.662 516.978 119.822L515.838 119.742C516.178 120.182 516.418 120.802 516.418 121.502C516.418 123.642 514.618 124.702 512.838 124.702C512.518 124.702 512.138 124.662 511.818 124.602C511.538 124.782 511.218 125.142 511.218 125.422C511.218 125.782 511.558 126.182 512.458 126.182C513.238 126.182 513.938 126.162 514.598 126.162C515.898 126.162 517.538 126.562 517.538 128.542C517.538 130.602 515.138 132.502 512.478 132.502C510.218 132.502 508.978 131.182 508.958 130.022C508.938 129.582 509.138 129.182 509.458 128.882C509.858 128.462 510.618 127.882 511.058 127.542C510.358 127.322 509.858 126.882 509.598 126.462C509.418 126.162 509.358 125.802 509.378 125.602C510.178 125.302 510.798 124.762 511.118 124.362C510.258 124.002 509.398 123.082 509.398 121.702C509.398 119.442 511.458 118.382 513.038 118.382C513.718 118.382 514.398 118.562 514.998 118.882C515.958 118.842 516.958 118.722 517.758 118.602ZM512.858 119.062C511.958 119.062 511.158 119.902 511.158 121.402C511.158 122.902 511.938 124.002 513.038 124.002C513.958 123.982 514.738 123.162 514.738 121.662C514.738 120.142 513.958 119.062 512.858 119.062ZM513.298 127.602C512.318 127.602 511.858 127.722 511.498 128.022C510.978 128.462 510.598 129.002 510.598 129.542C510.598 130.622 511.738 131.422 513.238 131.422C515.118 131.422 516.118 130.442 516.118 129.222C516.118 128.562 515.798 128.082 515.238 127.862C514.718 127.642 514.138 127.602 513.298 127.602ZM525.672 125.142L526.052 125.622C525.172 126.782 523.812 127.662 522.612 127.662C520.032 127.662 518.532 125.602 518.532 123.442C518.532 121.882 519.232 120.542 520.572 119.522C521.612 118.722 522.852 118.382 523.632 118.382C524.472 118.382 525.132 118.642 525.452 118.902C525.732 119.142 525.792 119.302 525.792 119.522C525.792 119.982 525.312 120.442 525.092 120.442C524.972 120.442 524.872 120.382 524.712 120.222C524.072 119.662 523.372 119.402 522.672 119.402C521.352 119.402 520.212 120.542 520.212 122.602C520.212 125.342 522.092 126.242 523.232 126.242C524.072 126.242 524.732 126.002 525.672 125.142ZM536.727 127.422H532.427V126.822C533.587 126.702 533.767 126.582 533.767 125.282V122.022C533.767 120.382 533.127 119.582 531.787 119.582C531.007 119.582 530.247 119.962 529.687 120.622V125.282C529.687 126.562 529.807 126.702 531.007 126.822V127.422H526.667V126.822C527.887 126.702 528.087 126.602 528.087 125.302V115.942C528.087 114.682 528.027 114.602 526.687 114.482V113.922C527.667 113.782 528.887 113.482 529.687 113.242V119.822C530.407 119.102 531.507 118.382 532.567 118.382C534.227 118.382 535.387 119.442 535.387 121.802V125.302C535.387 126.602 535.527 126.722 536.727 126.822V127.422ZM545.967 126.642L544.187 127.662C543.907 127.662 543.467 127.482 543.267 127.282C542.987 127.002 542.867 126.722 542.767 126.402C541.947 126.942 541.007 127.662 540.367 127.662C538.947 127.662 537.927 126.482 537.927 125.162C537.927 124.182 538.447 123.542 539.587 123.162C540.807 122.742 542.287 122.182 542.727 121.842V121.542C542.727 120.122 542.027 119.322 541.047 119.322C540.647 119.322 540.347 119.482 540.127 119.722C539.887 119.982 539.727 120.422 539.547 121.022C539.447 121.342 539.227 121.502 538.927 121.502C538.547 121.502 538.027 121.102 538.027 120.602C538.027 120.302 538.287 120.062 538.687 119.782C539.227 119.382 540.527 118.622 541.707 118.382C542.327 118.382 542.947 118.562 543.387 118.922C544.087 119.522 544.287 120.342 544.287 121.382V125.062C544.287 125.982 544.647 126.282 544.987 126.282C545.247 126.282 545.527 126.162 545.727 126.042L545.967 126.642ZM542.727 125.682V122.602C542.287 122.822 541.327 123.242 540.907 123.442C540.107 123.802 539.687 124.182 539.687 124.902C539.687 125.922 540.487 126.402 541.087 126.402C541.627 126.382 542.367 126.022 542.727 125.682ZM556.576 127.422H552.356V126.822C553.516 126.702 553.636 126.542 553.636 125.222V121.882C553.636 120.482 553.136 119.622 551.836 119.622C551.016 119.622 550.236 120.122 549.616 120.662V125.282C549.616 126.642 549.736 126.702 550.936 126.822V127.422H546.536V126.822C547.916 126.682 547.996 126.582 547.996 125.282V121.222C547.996 119.942 547.876 119.862 546.776 119.682V119.142C547.776 118.962 548.756 118.702 549.616 118.322V119.922C550.016 119.622 550.436 119.322 550.956 119.002C551.496 118.622 552.056 118.382 552.636 118.382C554.256 118.382 555.256 119.502 555.256 121.462V125.282C555.256 126.642 555.376 126.682 556.576 126.822V127.422ZM566.372 118.602L566.492 118.782C566.312 119.102 565.912 119.662 565.592 119.822L564.452 119.742C564.792 120.182 565.032 120.802 565.032 121.502C565.032 123.642 563.232 124.702 561.452 124.702C561.132 124.702 560.752 124.662 560.432 124.602C560.152 124.782 559.832 125.142 559.832 125.422C559.832 125.782 560.172 126.182 561.072 126.182C561.852 126.182 562.552 126.162 563.212 126.162C564.512 126.162 566.152 126.562 566.152 128.542C566.152 130.602 563.752 132.502 561.092 132.502C558.832 132.502 557.592 131.182 557.572 130.022C557.552 129.582 557.752 129.182 558.072 128.882C558.472 128.462 559.232 127.882 559.672 127.542C558.972 127.322 558.472 126.882 558.212 126.462C558.032 126.162 557.972 125.802 557.992 125.602C558.792 125.302 559.412 124.762 559.732 124.362C558.872 124.002 558.012 123.082 558.012 121.702C558.012 119.442 560.072 118.382 561.652 118.382C562.332 118.382 563.012 118.562 563.612 118.882C564.572 118.842 565.572 118.722 566.372 118.602ZM561.472 119.062C560.572 119.062 559.772 119.902 559.772 121.402C559.772 122.902 560.552 124.002 561.652 124.002C562.572 123.982 563.352 123.162 563.352 121.662C563.352 120.142 562.572 119.062 561.472 119.062ZM561.912 127.602C560.932 127.602 560.472 127.722 560.112 128.022C559.592 128.462 559.212 129.002 559.212 129.542C559.212 130.622 560.352 131.422 561.852 131.422C563.732 131.422 564.732 130.442 564.732 129.222C564.732 128.562 564.412 128.082 563.852 127.862C563.332 127.642 562.752 127.602 561.912 127.602Z" fill="white"/>
</g>
</svg>
