<svg width="1000" height="1000" viewBox="0 0 1000 1000" fill="none" xmlns="http://www.w3.org/2000/svg">
<mask id="mask0_1038_604" style="mask-type:alpha" maskUnits="userSpaceOnUse" x="0" y="0" width="1000" height="1000">
<rect width="1000" height="1000" fill="#D9D9D9"/>
</mask>
<g mask="url(#mask0_1038_604)">
<g clip-path="url(#clip0_1038_604)">
<path d="M751.04 405.945H723.418V472.277H751.04V405.945Z" fill="#68C4F0"/>
<path d="M647.279 346.937L624.251 350.976L634.029 406.713L657.057 402.673L647.279 346.937Z" fill="white"/>
<path d="M652.667 268.108L562.236 277.82L565.919 312.112L656.35 302.4L652.667 268.108Z" fill="white"/>
<path d="M629.138 196.953L560.555 204.319L564.238 238.611L632.821 231.245L629.138 196.953Z" fill="white"/>
<path d="M639.923 234.994L573.156 242.165L576.195 270.457L642.962 263.286L639.923 234.994Z" fill="white"/>
<path d="M686.633 199.373L683.926 231.677L720.854 234.771L723.561 202.467L686.633 199.373Z" fill="white"/>
<path d="M714.805 208.104L713.557 223.004L750.485 226.098L751.734 211.198L714.805 208.104Z" fill="white"/>
<path d="M724.821 215.521L723.043 236.741L761.897 239.996L763.675 218.777L724.821 215.521Z" fill="white"/>
<path d="M749.052 208.013L723.264 200.033L721.983 215.286L763.689 218.786L749.052 208.013Z" fill="white"/>
<path d="M674.743 197.075L673.396 213.161L692.641 214.774L693.989 198.688L674.743 197.075Z" fill="white"/>
<path d="M638.166 341.586L628.955 343.202L638.733 398.939L647.944 397.323L638.166 341.586Z" fill="white"/>
<path d="M703.015 252.552L701.925 270.221L771.841 274.534L772.931 256.865L703.015 252.552Z" fill="white"/>
<path d="M773.937 237.666L771.518 276.882L789.494 277.991L791.914 238.775L773.937 237.666Z" fill="white"/>
<path d="M736.718 268.555L735.929 281.348L748.721 282.137L749.511 269.345L736.718 268.555Z" fill="white"/>
<path d="M744.219 251.037L743.43 263.829L750.885 264.289L751.674 251.497L744.219 251.037Z" fill="white"/>
<path d="M714.2 262.394L713.411 275.187L723.689 275.821L724.478 263.028L714.2 262.394Z" fill="white"/>
<path d="M785.951 255.845L785.102 269.658L803.086 270.764L803.935 256.952L785.951 255.845Z" fill="white"/>
<path d="M776.099 242.054L775.892 245.45L793.869 246.549L794.077 243.154L776.099 242.054Z" fill="white"/>
<path d="M689.958 335.007H670.435V363.861H689.958V335.007Z" fill="white"/>
<path d="M687.606 340.236H668.713V352.57H687.606V340.236Z" fill="white"/>
<path d="M741.632 388.221H735.122V412.266H741.632V388.221Z" fill="#68C4F0"/>
<path d="M774.56 342.854H753.105V388.228H774.56V342.854Z" fill="white"/>
<path d="M771.843 343.792L757.703 383.727V338.353H767.867L771.843 343.792Z" fill="white"/>
<path d="M683.294 358.898H679.136V382.943H683.294V358.898Z" fill="white"/>
<path d="M840.822 713.735H813.872V754.608H840.822V713.735Z" fill="#68C4F0"/>
<path d="M723.411 615.875H634.861V645.982H723.411V615.875Z" fill="#68C4F0"/>
<path d="M750.805 564.316L726.279 572.641L748.454 637.965L772.979 629.64L750.805 564.316Z" fill="#68C4F0"/>
<path d="M806.424 678.994H756.318V703.613H806.424V678.994Z" fill="#68C4F0"/>
<path d="M840.821 733.251H758.2V757.87H840.821V733.251Z" fill="#68C4F0"/>
<path d="M772.705 639.871H754.673V696.795H772.705V639.871Z" fill="#68C4F0"/>
<path d="M755.801 613.613L701.897 631.911L705.849 643.55L759.752 625.253L755.801 613.613Z" fill="#68C4F0"/>
<path d="M664.142 731.228H672.493V735.869H684.946V731.228H693.5V721.547H698.428V710.725H660.418V721.547H664.142V731.228Z" fill="#68C4F0"/>
<path d="M626.993 658.323V681.633H628.407V718.852H629.87V729.1H663.512V722.177H659.788V716.969H641.315V681.633H716.957V716.969H699.058V722.177H694.13V729.1H727.933V718.852H729.865V681.633H730.81V658.323H626.993Z" fill="#68C4F0"/>
<path d="M720.17 484.408V527.22L724.09 561.093H753.105V527.22H763.689V484.408H720.17Z" fill="#68C4F0"/>
<path d="M599.602 595.092L589.249 605.13L581.094 621.517V638.296L587.443 653.822L597.873 665.19L620.217 650.609C620.217 650.609 625.705 646.297 625.705 641.747V619.949C625.705 619.949 626.489 615.245 621.078 611.325C615.667 607.405 599.595 595.092 599.595 595.092" fill="#68C4F0"/>
<path d="M534.39 229.363H488.911V301.813H534.39V229.363Z" fill="white"/>
<path d="M492.796 250.069H472.916V309.66H492.796V250.069Z" fill="white"/>
<path d="M468.114 240.234H425.561V314.462H468.114V240.234Z" fill="white"/>
<path d="M460.112 272.28H393.409V314.469H460.112V272.28Z" fill="white"/>
<path d="M527.487 217.799H503.022V277.39H527.487V217.799Z" fill="white"/>
<path d="M543.489 245.54H523.413V277.383H543.489V245.54Z" fill="white"/>
<path d="M558.855 269.095H546.311V309.653H558.855V269.095Z" fill="white"/>
<path d="M607.575 463.289H614.715V439.139H607.575V437.417H564.924V465.641H607.575V463.289ZM617.298 498.807H614.708V490.89H612.279V480.46H571.126L556.832 472.207L559.324 468.098V434.512L556.692 429.696L610.06 398.882L596.942 376.16L546.521 405.273L500.307 378.589L487.189 401.311L522.077 421.45L520.376 425.909H506.684V434.113H505.27V432.384H497.64V470.863H504.591V469.036H506.992V477.296H519.802L523.295 482.595L487.959 503L496.401 517.623H489.408L487.994 520.444H483.129V539.89H489.954V543.418H498.655L527.586 558.86V561.079L542.643 569.836H559.891V578.152H616.976V553.855H608.59V546.708H618.705V516.013H617.291V498.8L617.298 498.807ZM624.907 460.783H617.298V481.72H624.907V460.783Z" fill="white"/>
<path d="M293.666 252.176H254.613V301.813H293.666V252.176Z" fill="#68C4F0"/>
<path d="M172.334 342.852L144.621 349.638L151.408 377.351L179.121 370.565L172.334 342.852Z" fill="white"/>
<path d="M180.05 358.675L151.623 365.637L166.093 424.728L194.521 417.766L180.05 358.675Z" fill="white"/>
<path d="M193.659 363.883L163.94 371.161L175.624 418.87L205.343 411.592L193.659 363.883Z" fill="white"/>
<path d="M214.88 425.463L174.099 435.45L180.535 461.735L221.316 451.749L214.88 425.463Z" fill="white"/>
<path d="M325.349 236.524H296.18V287.176H325.349V236.524Z" fill="#68C4F0"/>
<path d="M326.923 285.293H299.791V313.524H326.923V285.293Z" fill="#68C4F0"/>
<path d="M304.496 255.501H290.223V286.868H304.496V255.501Z" fill="#68C4F0"/>
<path d="M330.214 268.36H322.843V279.861H330.214V268.36Z" fill="#68C4F0"/>
<path d="M385.871 278.58H334.89V309.212H385.871V278.58Z" fill="#68C4F0"/>
<path d="M371.794 271.678H323.389V276.382H371.794V271.678Z" fill="#68C4F0"/>
<path d="M358.305 275.864H350.675V281.506H358.305V275.864Z" fill="#68C4F0"/>
<path d="M363.114 242.614L337.291 245.12V232.576H363.114V242.614Z" fill="#68C4F0"/>
<path d="M407.528 231.661L373.151 233.751L375.427 271.167L409.803 269.077L407.528 231.661Z" fill="#68C4F0"/>
<path d="M395.992 418.909H377.491V478.269H395.992V418.909Z" fill="white"/>
<path d="M395.992 484.044H377.491V516.02H395.992V484.044Z" fill="white"/>
<path d="M394.739 473.873H386.738V488.93H394.739V473.873Z" fill="white"/>
<path d="M385.627 553.866L371.887 559.582L389.169 601.12L402.909 595.403L385.627 553.866Z" fill="white"/>
<path d="M318.651 564.33L307.252 573.898L360.875 637.78L372.273 628.213L318.651 564.33Z" fill="white"/>
<path d="M480.858 592.46L461.578 608.644L567.654 735.015L586.934 718.831L480.858 592.46Z" fill="white"/>
<path d="M556.251 667.393L529.642 689.728L549.691 713.614L576.3 691.278L556.251 667.393Z" fill="white"/>
<path d="M510.638 578.243L465.684 615.973L438.363 583.423C438.363 583.423 445.944 575.66 461.001 565.244C476.058 554.828 497.226 566.343 497.226 566.343L510.645 578.243H510.638Z" fill="white"/>
<path d="M496.308 579.498L461.57 608.656L526.471 685.975L561.209 656.816L496.308 579.498Z" fill="white"/>
<path d="M499.727 576.64L461.574 608.665L522.303 681.014L560.456 648.988L499.727 576.64Z" fill="white"/>
<path d="M293.066 583.219L281.667 592.787L314.943 632.43L326.342 622.862L293.066 583.219Z" fill="white"/>
<path d="M315.014 635.477L305.042 643.848L329.74 673.272L339.713 664.901L315.014 635.477Z" fill="white"/>
<path d="M309.371 630.13L303.408 635.134L323.953 659.618L329.916 654.614L309.371 630.13Z" fill="white"/>
<path d="M349.651 637.157L320.157 661.914L329.721 673.307L359.214 648.55L349.651 637.157Z" fill="white"/>
<path d="M381.844 601.003L351.471 626.498L360.895 637.725L391.268 612.23L381.844 601.003Z" fill="white"/>
<path d="M414.768 574.273L383.391 587.328L389.142 601.152L420.52 588.098L414.768 574.273Z" fill="white"/>
<path d="M304.335 548.206V492.689H296.18H257.106H248.951V539.631H239.858H230.128V488.93H207.868V546.953H197.697V562.843H218.998V612.606H205.67V608.063H171.797V609.477V626.564V635.503H195.478V632.136H212.411V637.148H231.549V613.866H239.858V576.227H271.638V557.299H296.18V548.206H304.335Z" fill="white"/>
<path d="M607.575 463.289H614.715V439.139H607.575V437.417H564.924V465.641H607.575V463.289ZM617.298 498.807H614.708V490.89H612.279V480.46H571.126L556.832 472.207L559.324 468.098V434.512L556.692 429.696L610.06 398.882L596.942 376.16L546.521 405.273L500.307 378.589L487.189 401.311L522.077 421.45L520.376 425.909H506.684V434.113H505.27V432.384H497.64V470.863H504.591V469.036H506.992V477.296H519.802L523.295 482.595L487.959 503L496.401 517.623H489.408L487.994 520.444H483.129V539.89H489.954V543.418H498.655L527.586 558.86V561.079L542.643 569.836H559.891V578.152H616.976V553.855H608.59V546.708H618.705V516.013H617.291V498.8L617.298 498.807ZM624.907 460.783H617.298V481.72H624.907V460.783Z" stroke="#68C4F0" stroke-width="0.7" stroke-miterlimit="10"/>
<path d="M304.335 548.206V492.689H296.18H257.106H248.951V539.631H239.858H230.128V488.93H207.868V546.953H197.697V562.843H218.998V612.606H205.67V608.063H171.797V609.477V626.564V635.503H195.478V632.136H212.411V637.148H231.549V613.866H239.858V576.227H271.638V557.299H296.18V548.206H304.335Z" stroke="#68C4F0" stroke-width="0.7" stroke-miterlimit="10"/>
<path d="M305.483 750.555H257.183V778.31H305.483V750.555Z" fill="white"/>
<path d="M550.434 598.445L639.705 578.425L642.68 573.462L641.007 546.729L634.546 540.737L626.125 412.287L611.992 317.339M462.493 327.776L469.381 411.328L476.479 434.113L474.575 547.541M275.663 340.705L293.093 334.909L571.245 323.205L656.449 310.969L686.626 261.003C686.626 261.003 691.687 245.008 678.772 238.001C665.85 230.994 657.184 227.585 655.721 200.068C654.265 172.558 653.635 167.021 653.635 167.021M264.141 352.241L296.313 446.034L337.368 487.201L353.034 522.768C353.034 522.768 361.385 537.615 376.211 538.658C391.037 539.701 474.407 547.492 474.407 547.492C474.407 547.492 541.81 567.617 557.476 612.62C573.135 657.623 599.238 738.536 599.238 738.536V804.602M264.141 352.241L259.92 336.477M264.141 352.241L275.67 340.705L259.927 336.477H259.92M259.92 336.477L180.673 251.469" stroke="#DCDDDD" stroke-miterlimit="10"/>
<path d="M591.545 754.608H567.99V773.368H591.545V754.608Z" fill="white"/>
<path d="M172.042 721.96L178.916 793.843L123.413 799.835L125.702 829.081L163.943 825.203V830.138L193.714 827.492V817.454L202.52 817.279L192.832 719.314L186.315 720.371L186.14 717.55L171.867 720.728L172.042 721.96Z" fill="#68C4F0"/>
<path d="M101.683 688H229.683" stroke="#231815" stroke-width="0.5" stroke-miterlimit="10" stroke-dasharray="1 1"/>
<path d="M229.715 687.814V843.41" stroke="#231815" stroke-width="0.5" stroke-miterlimit="10" stroke-dasharray="1 1"/>
<path d="M749.786 357.064H728.534V381.109H749.786V357.064Z" fill="#68C4F0"/>
<path d="M691.834 375.313H672.311V415.458H691.834V375.313Z" fill="#68C4F0"/>
<path d="M747.484 375.313H691.841V393.555H747.484V375.313Z" fill="#68C4F0"/>
<path d="M545.292 759.422L548.778 749.412H550.878L554.406 759.422H552.292L551.62 757.294H548.008L547.35 759.422H545.292ZM549.38 752.856L548.484 755.74H551.13L550.234 752.856C550.066 752.324 549.828 751.316 549.828 751.316H549.8C549.8 751.316 549.548 752.324 549.38 752.856Z" fill="#1A1A1A"/>
<path d="M557.509 759.632C555.703 759.632 554.471 758.162 554.471 755.838C554.471 753.598 555.745 752.044 557.537 752.044C558.545 752.044 559.175 752.506 559.567 753.108H559.609V749.412H561.513V759.422H559.679V758.484H559.651C559.231 759.17 558.517 759.632 557.509 759.632ZM557.929 758.036C559.063 758.036 559.651 757.196 559.651 755.88C559.651 754.508 559.203 753.584 557.985 753.584C556.935 753.584 556.403 754.508 556.403 755.838C556.403 757.224 556.949 758.036 557.929 758.036Z" fill="#1A1A1A"/>
<path d="M562.751 759.422V752.24H564.585V753.206H564.627C565.019 752.548 565.719 752.044 566.713 752.044C567.623 752.044 568.351 752.548 568.701 753.304H568.729C569.219 752.52 569.975 752.044 570.885 752.044C572.397 752.044 573.251 753.024 573.251 754.592V759.422H571.347V754.914C571.347 754.102 570.941 753.682 570.241 753.682C569.443 753.682 568.953 754.298 568.953 755.25V759.422H567.049V754.914C567.049 754.102 566.643 753.682 565.943 753.682C565.173 753.682 564.655 754.298 564.655 755.25V759.422H562.751Z" fill="#1A1A1A"/>
<path d="M574.427 759.422V752.24H576.331V759.422H574.427ZM574.427 751.12V749.412H576.331V751.12H574.427Z" fill="#1A1A1A"/>
<path d="M579.419 752.24V753.22H579.461C579.951 752.45 580.609 752.044 581.589 752.044C583.073 752.044 584.067 753.164 584.067 754.732V759.422H582.163V755.012C582.163 754.242 581.715 753.696 580.917 753.696C580.077 753.696 579.461 754.368 579.461 755.348V759.422H577.557V752.24H579.419Z" fill="#1A1A1A"/>
<path d="M585.241 759.422V752.24H587.145V759.422H585.241ZM585.241 751.12V749.412H587.145V751.12H585.241Z" fill="#1A1A1A"/>
<path d="M591.284 759.632C589.198 759.632 588.036 758.624 587.924 757.098H589.688C589.814 757.924 590.402 758.288 591.256 758.288C592.096 758.288 592.572 757.966 592.572 757.462C592.572 756.776 591.662 756.706 590.682 756.51C589.394 756.258 588.134 755.908 588.134 754.34C588.134 752.786 589.422 752.044 591.06 752.044C592.95 752.044 594 752.982 594.14 754.424H592.418C592.334 753.654 591.844 753.374 591.032 753.374C590.29 753.374 589.8 753.654 589.8 754.172C589.8 754.788 590.752 754.844 591.774 755.054C592.978 755.306 594.308 755.642 594.308 757.322C594.308 758.764 593.076 759.632 591.284 759.632Z" fill="#1A1A1A"/>
<path d="M594.61 753.5V752.24H595.604V750H597.466V752.24H598.698V753.5H597.466V757.308C597.466 757.84 597.76 758.022 598.18 758.022C598.418 758.022 598.74 758.008 598.74 758.008V759.408C598.74 759.408 598.306 759.436 597.55 759.436C596.626 759.436 595.604 759.072 595.604 757.714V753.5H594.61Z" fill="#1A1A1A"/>
<path d="M601.512 752.24V753.388H601.554C601.988 752.576 602.478 752.156 603.318 752.156C603.528 752.156 603.654 752.17 603.766 752.212V753.878H603.724C602.478 753.752 601.582 754.41 601.582 755.922V759.422H599.678V752.24H601.512Z" fill="#1A1A1A"/>
<path d="M608.904 759.422C608.792 759.282 608.722 758.946 608.68 758.624H608.652C608.288 759.17 607.77 759.59 606.538 759.59C605.068 759.59 604.032 758.82 604.032 757.392C604.032 755.81 605.32 755.306 606.916 755.082C608.106 754.914 608.652 754.816 608.652 754.27C608.652 753.752 608.246 753.416 607.448 753.416C606.552 753.416 606.118 753.738 606.062 754.424H604.368C604.424 753.164 605.362 752.058 607.462 752.058C609.618 752.058 610.486 753.024 610.486 754.704V758.358C610.486 758.904 610.57 759.226 610.738 759.352V759.422H608.904ZM607 758.26C608.092 758.26 608.694 757.588 608.694 756.888V755.81C608.358 756.006 607.84 756.118 607.364 756.23C606.37 756.454 605.88 756.678 605.88 757.35C605.88 758.022 606.328 758.26 607 758.26Z" fill="#1A1A1A"/>
<path d="M611.139 753.5V752.24H612.133V750H613.995V752.24H615.227V753.5H613.995V757.308C613.995 757.84 614.289 758.022 614.709 758.022C614.947 758.022 615.269 758.008 615.269 758.008V759.408C615.269 759.408 614.835 759.436 614.079 759.436C613.155 759.436 612.133 759.072 612.133 757.714V753.5H611.139Z" fill="#1A1A1A"/>
<path d="M616.208 759.422V752.24H618.112V759.422H616.208ZM616.208 751.12V749.412H618.112V751.12H616.208Z" fill="#1A1A1A"/>
<path d="M622.741 759.632C620.515 759.632 618.989 757.98 618.989 755.838C618.989 753.696 620.515 752.044 622.741 752.044C624.967 752.044 626.493 753.696 626.493 755.838C626.493 757.98 624.967 759.632 622.741 759.632ZM622.741 758.176C623.903 758.176 624.561 757.238 624.561 755.838C624.561 754.438 623.903 753.486 622.741 753.486C621.565 753.486 620.921 754.438 620.921 755.838C620.921 757.238 621.565 758.176 622.741 758.176Z" fill="#1A1A1A"/>
<path d="M629.24 752.24V753.22H629.282C629.772 752.45 630.43 752.044 631.41 752.044C632.894 752.044 633.888 753.164 633.888 754.732V759.422H631.984V755.012C631.984 754.242 631.536 753.696 630.738 753.696C629.898 753.696 629.282 754.368 629.282 755.348V759.422H627.378V752.24H629.24Z" fill="#1A1A1A"/>
<path d="M637.567 759.422V749.412H642.047C643.125 749.412 643.951 749.678 644.469 750.14C645.015 750.63 645.267 751.232 645.267 752.016C645.267 753.038 644.637 753.696 643.699 754.018V754.06C644.805 754.382 645.561 755.306 645.561 756.538C645.561 757.476 645.267 758.12 644.679 758.624C644.105 759.128 643.223 759.422 642.159 759.422H637.567ZM639.597 754.942V757.742H641.935C642.915 757.742 643.503 757.196 643.503 756.384C643.503 755.432 642.803 754.942 641.879 754.942H639.597ZM639.597 753.444H641.795C642.677 753.444 643.279 753.024 643.279 752.24C643.279 751.498 642.733 751.064 641.837 751.064H639.597V753.444Z" fill="#1A1A1A"/>
<path d="M652.97 759.422H651.136V758.582H651.094C650.604 759.24 650.044 759.618 649.036 759.618C647.44 759.618 646.544 758.596 646.544 757.028V752.24H648.434V756.706C648.434 757.546 648.812 758.008 649.624 758.008C650.52 758.008 651.066 757.336 651.066 756.384V752.24H652.97V759.422Z" fill="#1A1A1A"/>
<path d="M654.202 759.422V752.24H656.106V759.422H654.202ZM654.202 751.12V749.412H656.106V751.12H654.202Z" fill="#1A1A1A"/>
<path d="M657.361 759.422V749.412H659.265V759.422H657.361Z" fill="#1A1A1A"/>
<path d="M663.206 759.632C661.4 759.632 660.168 758.162 660.168 755.838C660.168 753.598 661.442 752.044 663.234 752.044C664.242 752.044 664.872 752.506 665.264 753.108H665.306V749.412H667.21V759.422H665.376V758.484H665.348C664.928 759.17 664.214 759.632 663.206 759.632ZM663.626 758.036C664.76 758.036 665.348 757.196 665.348 755.88C665.348 754.508 664.9 753.584 663.682 753.584C662.632 753.584 662.1 754.508 662.1 755.838C662.1 757.224 662.646 758.036 663.626 758.036Z" fill="#1A1A1A"/>
<path d="M668.448 759.422V752.24H670.352V759.422H668.448ZM668.448 751.12V749.412H670.352V751.12H668.448Z" fill="#1A1A1A"/>
<path d="M673.441 752.24V753.22H673.483C673.973 752.45 674.631 752.044 675.611 752.044C677.095 752.044 678.089 753.164 678.089 754.732V759.422H676.185V755.012C676.185 754.242 675.737 753.696 674.939 753.696C674.099 753.696 673.483 754.368 673.483 755.348V759.422H671.579V752.24H673.441Z" fill="#1A1A1A"/>
<path d="M682.426 761.872C680.466 761.872 679.262 761.032 679.066 759.632H680.956C681.11 760.08 681.516 760.43 682.398 760.43C683.476 760.43 683.994 759.912 683.994 758.932V758.148H683.952C683.532 758.624 682.986 758.988 682.076 758.988C680.48 758.988 678.912 757.728 678.912 755.558C678.912 753.416 680.2 752.044 682.02 752.044C682.916 752.044 683.574 752.394 684.008 752.996H684.036V752.24H685.87V758.876C685.87 759.884 685.548 760.57 685.016 761.06C684.414 761.62 683.49 761.872 682.426 761.872ZM682.398 757.462C683.602 757.462 684.092 756.58 684.092 755.516C684.092 754.466 683.532 753.57 682.384 753.57C681.418 753.57 680.774 754.326 680.774 755.53C680.774 756.748 681.418 757.462 682.398 757.462Z" fill="#1A1A1A"/>
<path d="M560.795 777.256V764.866H561.957V777.256H560.795Z" fill="#1A1A1A"/>
<path d="M565.96 775.422V765.412H570.552C572.484 765.412 573.772 766.532 573.772 768.198C573.772 769.374 573.226 770.27 571.938 770.62V770.662C572.862 770.928 573.338 771.46 573.464 772.678C573.604 774.092 573.548 775.17 573.898 775.324V775.422H571.952C571.7 775.31 571.672 774.19 571.588 773.112C571.504 772.02 570.888 771.404 569.628 771.404H567.99V775.422H565.96ZM567.99 767.05V769.836H570.146C571.252 769.836 571.798 769.262 571.798 768.464C571.798 767.652 571.28 767.05 570.202 767.05H567.99Z" fill="#1A1A1A"/>
<path d="M578.231 775.632C575.851 775.632 574.507 773.966 574.507 771.824C574.507 769.696 575.949 768.044 578.049 768.044C580.359 768.044 581.591 769.808 581.591 772.37H576.383C576.523 773.476 577.139 774.162 578.217 774.162C578.959 774.162 579.393 773.826 579.603 773.28H581.479C581.213 774.554 580.079 775.632 578.231 775.632ZM578.077 769.514C577.069 769.514 576.579 770.116 576.411 771.054H579.603C579.547 770.144 578.945 769.514 578.077 769.514Z" fill="#1A1A1A"/>
<path d="M585.384 775.632C583.298 775.632 582.136 774.624 582.024 773.098H583.788C583.914 773.924 584.502 774.288 585.356 774.288C586.196 774.288 586.672 773.966 586.672 773.462C586.672 772.776 585.762 772.706 584.782 772.51C583.494 772.258 582.234 771.908 582.234 770.34C582.234 768.786 583.522 768.044 585.16 768.044C587.05 768.044 588.1 768.982 588.24 770.424H586.518C586.434 769.654 585.944 769.374 585.132 769.374C584.39 769.374 583.9 769.654 583.9 770.172C583.9 770.788 584.852 770.844 585.874 771.054C587.078 771.306 588.408 771.642 588.408 773.322C588.408 774.764 587.176 775.632 585.384 775.632Z" fill="#1A1A1A"/>
<path d="M592.71 775.632C590.33 775.632 588.986 773.966 588.986 771.824C588.986 769.696 590.428 768.044 592.528 768.044C594.838 768.044 596.07 769.808 596.07 772.37H590.862C591.002 773.476 591.618 774.162 592.696 774.162C593.438 774.162 593.872 773.826 594.082 773.28H595.958C595.692 774.554 594.558 775.632 592.71 775.632ZM592.556 769.514C591.548 769.514 591.058 770.116 590.89 771.054H594.082C594.026 770.144 593.424 769.514 592.556 769.514Z" fill="#1A1A1A"/>
<path d="M601.473 775.422C601.361 775.282 601.291 774.946 601.249 774.624H601.221C600.857 775.17 600.339 775.59 599.107 775.59C597.637 775.59 596.601 774.82 596.601 773.392C596.601 771.81 597.889 771.306 599.485 771.082C600.675 770.914 601.221 770.816 601.221 770.27C601.221 769.752 600.815 769.416 600.017 769.416C599.121 769.416 598.687 769.738 598.631 770.424H596.937C596.993 769.164 597.931 768.058 600.031 768.058C602.187 768.058 603.055 769.024 603.055 770.704V774.358C603.055 774.904 603.139 775.226 603.307 775.352V775.422H601.473ZM599.569 774.26C600.661 774.26 601.263 773.588 601.263 772.888V771.81C600.927 772.006 600.409 772.118 599.933 772.23C598.939 772.454 598.449 772.678 598.449 773.35C598.449 774.022 598.897 774.26 599.569 774.26Z" fill="#1A1A1A"/>
<path d="M606.099 768.24V769.388H606.141C606.575 768.576 607.065 768.156 607.905 768.156C608.115 768.156 608.241 768.17 608.353 768.212V769.878H608.311C607.065 769.752 606.169 770.41 606.169 771.922V775.422H604.265V768.24H606.099Z" fill="#1A1A1A"/>
<path d="M612.301 775.632C610.033 775.632 608.619 773.98 608.619 771.838C608.619 769.696 610.019 768.044 612.203 768.044C614.065 768.044 615.213 769.122 615.465 770.676H613.603C613.477 770.046 612.987 769.57 612.287 769.57C611.139 769.57 610.551 770.452 610.551 771.838C610.551 773.196 611.097 774.106 612.259 774.106C613.029 774.106 613.575 773.7 613.701 772.888H615.535C615.409 774.414 614.219 775.632 612.301 775.632Z" fill="#1A1A1A"/>
<path d="M618.269 765.412V769.178H618.311C618.829 768.422 619.417 768.044 620.397 768.044C621.881 768.044 622.875 769.164 622.875 770.732V775.422H620.971V771.012C620.971 770.242 620.523 769.696 619.725 769.696C618.885 769.696 618.269 770.368 618.269 771.348V775.422H616.365V765.412H618.269Z" fill="#1A1A1A"/>
<path d="M626.554 775.422V765.412H631.034C632.112 765.412 632.938 765.678 633.456 766.14C634.002 766.63 634.254 767.232 634.254 768.016C634.254 769.038 633.624 769.696 632.686 770.018V770.06C633.792 770.382 634.548 771.306 634.548 772.538C634.548 773.476 634.254 774.12 633.666 774.624C633.092 775.128 632.21 775.422 631.146 775.422H626.554ZM628.584 770.942V773.742H630.922C631.902 773.742 632.49 773.196 632.49 772.384C632.49 771.432 631.79 770.942 630.866 770.942H628.584ZM628.584 769.444H630.782C631.664 769.444 632.266 769.024 632.266 768.24C632.266 767.498 631.72 767.064 630.824 767.064H628.584V769.444Z" fill="#1A1A1A"/>
<path d="M641.958 775.422H640.124V774.582H640.082C639.592 775.24 639.032 775.618 638.024 775.618C636.428 775.618 635.532 774.596 635.532 773.028V768.24H637.422V772.706C637.422 773.546 637.8 774.008 638.612 774.008C639.508 774.008 640.054 773.336 640.054 772.384V768.24H641.958V775.422Z" fill="#1A1A1A"/>
<path d="M643.189 775.422V768.24H645.093V775.422H643.189ZM643.189 767.12V765.412H645.093V767.12H643.189Z" fill="#1A1A1A"/>
<path d="M646.348 775.422V765.412H648.252V775.422H646.348Z" fill="#1A1A1A"/>
<path d="M652.194 775.632C650.388 775.632 649.156 774.162 649.156 771.838C649.156 769.598 650.43 768.044 652.222 768.044C653.23 768.044 653.86 768.506 654.252 769.108H654.294V765.412H656.198V775.422H654.364V774.484H654.336C653.916 775.17 653.202 775.632 652.194 775.632ZM652.614 774.036C653.748 774.036 654.336 773.196 654.336 771.88C654.336 770.508 653.888 769.584 652.67 769.584C651.62 769.584 651.088 770.508 651.088 771.838C651.088 773.224 651.634 774.036 652.614 774.036Z" fill="#1A1A1A"/>
<path d="M657.435 775.422V768.24H659.339V775.422H657.435ZM657.435 767.12V765.412H659.339V767.12H657.435Z" fill="#1A1A1A"/>
<path d="M662.428 768.24V769.22H662.47C662.96 768.45 663.618 768.044 664.598 768.044C666.082 768.044 667.076 769.164 667.076 770.732V775.422H665.172V771.012C665.172 770.242 664.724 769.696 663.926 769.696C663.086 769.696 662.47 770.368 662.47 771.348V775.422H660.566V768.24H662.428Z" fill="#1A1A1A"/>
<path d="M671.414 777.872C669.454 777.872 668.25 777.032 668.054 775.632H669.944C670.098 776.08 670.504 776.43 671.386 776.43C672.464 776.43 672.982 775.912 672.982 774.932V774.148H672.94C672.52 774.624 671.974 774.988 671.064 774.988C669.468 774.988 667.9 773.728 667.9 771.558C667.9 769.416 669.188 768.044 671.008 768.044C671.904 768.044 672.562 768.394 672.996 768.996H673.024V768.24H674.858V774.876C674.858 775.884 674.536 776.57 674.004 777.06C673.402 777.62 672.478 777.872 671.414 777.872ZM671.386 773.462C672.59 773.462 673.08 772.58 673.08 771.516C673.08 770.466 672.52 769.57 671.372 769.57C670.406 769.57 669.762 770.326 669.762 771.53C669.762 772.748 670.406 773.462 671.386 773.462Z" fill="#1A1A1A"/>
</g>
<path d="M275.759 200.645C273.043 200.645 271.503 199.441 271.433 197.327H273.421C273.561 198.531 274.247 199.007 275.675 199.007C276.711 199.007 277.621 198.643 277.621 197.719C277.621 196.739 276.669 196.543 275.143 196.193C273.351 195.787 271.713 195.311 271.713 193.225C271.713 191.251 273.323 190.229 275.549 190.229C277.803 190.229 279.259 191.335 279.413 193.351H277.467C277.355 192.343 276.571 191.839 275.535 191.839C274.443 191.839 273.729 192.301 273.729 193.015C273.729 193.827 274.429 194.065 275.913 194.387C277.971 194.835 279.651 195.325 279.651 197.481C279.651 199.511 278.013 200.645 275.759 200.645Z" fill="#1A1A1A"/>
<path d="M284.042 200.631C281.774 200.631 280.36 198.979 280.36 196.837C280.36 194.695 281.76 193.043 283.944 193.043C285.806 193.043 286.954 194.121 287.206 195.675H285.344C285.218 195.045 284.728 194.569 284.028 194.569C282.88 194.569 282.292 195.451 282.292 196.837C282.292 198.195 282.838 199.105 284 199.105C284.77 199.105 285.316 198.699 285.442 197.887H287.276C287.15 199.413 285.96 200.631 284.042 200.631Z" fill="#1A1A1A"/>
<path d="M290.01 190.411V194.177H290.052C290.57 193.421 291.158 193.043 292.138 193.043C293.622 193.043 294.616 194.163 294.616 195.731V200.421H292.712V196.011C292.712 195.241 292.264 194.695 291.466 194.695C290.626 194.695 290.01 195.367 290.01 196.347V200.421H288.106V190.411H290.01Z" fill="#1A1A1A"/>
<path d="M299.192 200.631C296.966 200.631 295.44 198.979 295.44 196.837C295.44 194.695 296.966 193.043 299.192 193.043C301.418 193.043 302.944 194.695 302.944 196.837C302.944 198.979 301.418 200.631 299.192 200.631ZM299.192 199.175C300.354 199.175 301.012 198.237 301.012 196.837C301.012 195.437 300.354 194.485 299.192 194.485C298.016 194.485 297.372 195.437 297.372 196.837C297.372 198.237 298.016 199.175 299.192 199.175Z" fill="#1A1A1A"/>
<path d="M307.231 200.631C305.005 200.631 303.479 198.979 303.479 196.837C303.479 194.695 305.005 193.043 307.231 193.043C309.457 193.043 310.983 194.695 310.983 196.837C310.983 198.979 309.457 200.631 307.231 200.631ZM307.231 199.175C308.393 199.175 309.051 198.237 309.051 196.837C309.051 195.437 308.393 194.485 307.231 194.485C306.055 194.485 305.411 195.437 305.411 196.837C305.411 198.237 306.055 199.175 307.231 199.175Z" fill="#1A1A1A"/>
<path d="M311.896 200.421V190.411H313.8V200.421H311.896Z" fill="#1A1A1A"/>
<path d="M320.807 200.631C318.581 200.631 317.055 198.979 317.055 196.837C317.055 194.695 318.581 193.043 320.807 193.043C323.033 193.043 324.559 194.695 324.559 196.837C324.559 198.979 323.033 200.631 320.807 200.631ZM320.807 199.175C321.969 199.175 322.627 198.237 322.627 196.837C322.627 195.437 321.969 194.485 320.807 194.485C319.631 194.485 318.987 195.437 318.987 196.837C318.987 198.237 319.631 199.175 320.807 199.175Z" fill="#1A1A1A"/>
<path d="M324.887 194.555V193.239H325.867V192.595C325.867 190.845 327.225 190.229 329.059 190.425V191.895C328.163 191.853 327.771 191.965 327.771 192.707V193.239H329.059V194.555H327.771V200.421H325.867V194.555H324.887Z" fill="#1A1A1A"/>
<path d="M332.434 200.421V190.411H336.34C339.014 190.411 340.736 192.567 340.736 195.521C340.736 197.145 340.19 198.573 339.14 199.455C338.398 200.071 337.432 200.421 336.172 200.421H332.434ZM334.464 198.671H336.032C337.936 198.671 338.678 197.509 338.678 195.521C338.678 193.533 337.81 192.147 336.088 192.147H334.464V198.671Z" fill="#1A1A1A"/>
<path d="M345.06 200.631C342.68 200.631 341.336 198.965 341.336 196.823C341.336 194.695 342.778 193.043 344.878 193.043C347.188 193.043 348.42 194.807 348.42 197.369H343.212C343.352 198.475 343.968 199.161 345.046 199.161C345.788 199.161 346.222 198.825 346.432 198.279H348.308C348.042 199.553 346.908 200.631 345.06 200.631ZM344.906 194.513C343.898 194.513 343.408 195.115 343.24 196.053H346.432C346.376 195.143 345.774 194.513 344.906 194.513Z" fill="#1A1A1A"/>
<path d="M351.163 193.239V194.219H351.205C351.695 193.449 352.353 193.043 353.333 193.043C354.817 193.043 355.811 194.163 355.811 195.731V200.421H353.907V196.011C353.907 195.241 353.459 194.695 352.661 194.695C351.821 194.695 351.205 195.367 351.205 196.347V200.421H349.301V193.239H351.163Z" fill="#1A1A1A"/>
<path d="M356.428 194.499V193.239H357.422V190.999H359.284V193.239H360.516V194.499H359.284V198.307C359.284 198.839 359.578 199.021 359.998 199.021C360.236 199.021 360.558 199.007 360.558 199.007V200.407C360.558 200.407 360.124 200.435 359.368 200.435C358.444 200.435 357.422 200.071 357.422 198.713V194.499H356.428Z" fill="#1A1A1A"/>
<path d="M361.497 200.421V193.239H363.401V200.421H361.497ZM361.497 192.119V190.411H363.401V192.119H361.497Z" fill="#1A1A1A"/>
<path d="M367.54 200.631C365.454 200.631 364.292 199.623 364.18 198.097H365.944C366.07 198.923 366.658 199.287 367.512 199.287C368.352 199.287 368.828 198.965 368.828 198.461C368.828 197.775 367.918 197.705 366.938 197.509C365.65 197.257 364.39 196.907 364.39 195.339C364.39 193.785 365.678 193.043 367.316 193.043C369.206 193.043 370.256 193.981 370.396 195.423H368.674C368.59 194.653 368.1 194.373 367.288 194.373C366.546 194.373 366.056 194.653 366.056 195.171C366.056 195.787 367.008 195.843 368.03 196.053C369.234 196.305 370.564 196.641 370.564 198.321C370.564 199.763 369.332 200.631 367.54 200.631Z" fill="#1A1A1A"/>
<path d="M370.866 194.499V193.239H371.86V190.999H373.722V193.239H374.954V194.499H373.722V198.307C373.722 198.839 374.016 199.021 374.436 199.021C374.674 199.021 374.996 199.007 374.996 199.007V200.407C374.996 200.407 374.562 200.435 373.806 200.435C372.882 200.435 371.86 200.071 371.86 198.713V194.499H370.866Z" fill="#1A1A1A"/>
<path d="M377.768 193.239V194.387H377.81C378.244 193.575 378.734 193.155 379.574 193.155C379.784 193.155 379.91 193.169 380.022 193.211V194.877H379.98C378.734 194.751 377.838 195.409 377.838 196.921V200.421H375.934V193.239H377.768Z" fill="#1A1A1A"/>
<path d="M381.065 202.773V201.275H381.737C382.493 201.275 382.801 200.883 382.801 200.295C382.801 199.903 382.661 199.441 382.255 198.349L380.323 193.239H382.325L383.389 196.473C383.613 197.131 383.851 198.041 383.851 198.041H383.879C383.879 198.041 384.075 197.131 384.299 196.473L385.307 193.239H387.225L384.719 200.603C384.173 202.199 383.641 202.773 382.185 202.773H381.065Z" fill="#1A1A1A"/>
<path d="M765.34 440.228C762.526 440.228 760.524 438.058 760.524 435.048C760.524 432.08 762.372 429.812 765.326 429.812C767.79 429.812 769.246 431.282 769.456 433.186H767.44C767.258 432.178 766.502 431.52 765.326 431.52C763.478 431.52 762.596 433.06 762.596 435.048C762.596 437.092 763.66 438.562 765.34 438.562C766.53 438.562 767.37 437.848 767.496 436.798H769.484C769.428 437.68 769.05 438.534 768.378 439.164C767.692 439.808 766.726 440.228 765.34 440.228Z" fill="#1A1A1A"/>
<path d="M773.845 440.228C771.619 440.228 770.093 438.576 770.093 436.434C770.093 434.292 771.619 432.64 773.845 432.64C776.071 432.64 777.597 434.292 777.597 436.434C777.597 438.576 776.071 440.228 773.845 440.228ZM773.845 438.772C775.007 438.772 775.665 437.834 775.665 436.434C775.665 435.034 775.007 434.082 773.845 434.082C772.669 434.082 772.025 435.034 772.025 436.434C772.025 437.834 772.669 438.772 773.845 438.772Z" fill="#1A1A1A"/>
<path d="M778.51 440.018V430.008H780.414V440.018H778.51Z" fill="#1A1A1A"/>
<path d="M781.696 440.018V430.008H783.6V440.018H781.696Z" fill="#1A1A1A"/>
<path d="M788.227 440.228C785.847 440.228 784.503 438.562 784.503 436.42C784.503 434.292 785.945 432.64 788.045 432.64C790.355 432.64 791.587 434.404 791.587 436.966H786.379C786.519 438.072 787.135 438.758 788.213 438.758C788.955 438.758 789.389 438.422 789.599 437.876H791.475C791.209 439.15 790.075 440.228 788.227 440.228ZM788.073 434.11C787.065 434.11 786.575 434.712 786.407 435.65H789.599C789.543 434.74 788.941 434.11 788.073 434.11Z" fill="#1A1A1A"/>
<path d="M795.632 442.468C793.672 442.468 792.468 441.628 792.272 440.228H794.162C794.316 440.676 794.722 441.026 795.604 441.026C796.682 441.026 797.201 440.508 797.201 439.528V438.744H797.158C796.738 439.22 796.192 439.584 795.282 439.584C793.686 439.584 792.118 438.324 792.118 436.154C792.118 434.012 793.406 432.64 795.227 432.64C796.122 432.64 796.78 432.99 797.214 433.592H797.242V432.836H799.076V439.472C799.076 440.48 798.754 441.166 798.222 441.656C797.62 442.216 796.696 442.468 795.632 442.468ZM795.604 438.058C796.808 438.058 797.298 437.176 797.298 436.112C797.298 435.062 796.738 434.166 795.59 434.166C794.624 434.166 793.98 434.922 793.98 436.126C793.98 437.344 794.625 438.058 795.604 438.058Z" fill="#1A1A1A"/>
<path d="M803.676 440.228C801.296 440.228 799.952 438.562 799.952 436.42C799.952 434.292 801.394 432.64 803.494 432.64C805.804 432.64 807.036 434.404 807.036 436.966H801.828C801.969 438.072 802.584 438.758 803.662 438.758C804.404 438.758 804.838 438.422 805.048 437.876H806.924C806.658 439.15 805.524 440.228 803.676 440.228ZM803.522 434.11C802.514 434.11 802.024 434.712 801.856 435.65H805.048C804.992 434.74 804.39 434.11 803.522 434.11Z" fill="#1A1A1A"/>
<path d="M813.671 440.228C811.445 440.228 809.919 438.576 809.919 436.434C809.919 434.292 811.445 432.64 813.671 432.64C815.897 432.64 817.423 434.292 817.423 436.434C817.423 438.576 815.897 440.228 813.671 440.228ZM813.671 438.772C814.833 438.772 815.491 437.834 815.491 436.434C815.491 435.034 814.833 434.082 813.671 434.082C812.495 434.082 811.851 435.034 811.851 436.434C811.851 437.834 812.495 438.772 813.671 438.772Z" fill="#1A1A1A"/>
<path d="M817.752 434.152V432.836H818.732V432.192C818.732 430.442 820.09 429.826 821.924 430.022V431.492C821.028 431.45 820.636 431.562 820.636 432.304V432.836H821.924V434.152H820.636V440.018H818.732V434.152H817.752Z" fill="#1A1A1A"/>
<path d="M768.177 456.018V446.008H770.235L773.567 451.594C773.889 452.14 774.267 452.994 774.267 452.994H774.295C774.295 452.994 774.239 451.958 774.239 451.258V446.008H776.241V456.018H774.281L770.865 450.488C770.543 449.956 770.151 449.102 770.151 449.102H770.123C770.123 449.102 770.179 450.152 770.179 450.852V456.018H768.177Z" fill="#1A1A1A"/>
<path d="M783.991 456.018H782.157V455.178H782.115C781.625 455.836 781.065 456.214 780.057 456.214C778.461 456.214 777.565 455.192 777.565 453.624V448.836H779.455V453.302C779.455 454.142 779.833 454.604 780.645 454.604C781.541 454.604 782.087 453.932 782.087 452.98V448.836H783.991V456.018Z" fill="#1A1A1A"/>
<path d="M787.056 448.836V449.984H787.098C787.532 449.172 788.022 448.752 788.862 448.752C789.072 448.752 789.198 448.766 789.31 448.808V450.474H789.268C788.022 450.348 787.126 451.006 787.126 452.518V456.018H785.222V448.836H787.056Z" fill="#1A1A1A"/>
<path d="M793.043 456.228C790.957 456.228 789.795 455.22 789.683 453.694H791.447C791.573 454.52 792.161 454.884 793.015 454.884C793.855 454.884 794.331 454.562 794.331 454.058C794.331 453.372 793.421 453.302 792.441 453.106C791.153 452.854 789.893 452.504 789.893 450.936C789.893 449.382 791.181 448.64 792.819 448.64C794.709 448.64 795.759 449.578 795.899 451.02H794.177C794.093 450.25 793.603 449.97 792.791 449.97C792.049 449.97 791.559 450.25 791.559 450.768C791.559 451.384 792.511 451.44 793.533 451.65C794.737 451.902 796.067 452.238 796.067 453.918C796.067 455.36 794.835 456.228 793.043 456.228Z" fill="#1A1A1A"/>
<path d="M796.926 456.018V448.836H798.83V456.018H796.926ZM796.926 447.716V446.008H798.83V447.716H796.926Z" fill="#1A1A1A"/>
<path d="M801.918 448.836V449.816H801.96C802.45 449.046 803.108 448.64 804.088 448.64C805.572 448.64 806.566 449.76 806.566 451.328V456.018H804.662V451.608C804.662 450.838 804.214 450.292 803.416 450.292C802.576 450.292 801.96 450.964 801.96 451.944V456.018H800.056V448.836H801.918Z" fill="#1A1A1A"/>
<path d="M810.904 458.468C808.944 458.468 807.74 457.628 807.544 456.228H809.434C809.588 456.676 809.994 457.026 810.876 457.026C811.954 457.026 812.472 456.508 812.472 455.528V454.744H812.43C812.01 455.22 811.464 455.584 810.554 455.584C808.958 455.584 807.39 454.324 807.39 452.154C807.39 450.012 808.678 448.64 810.498 448.64C811.394 448.64 812.052 448.99 812.486 449.592H812.514V448.836H814.348V455.472C814.348 456.48 814.026 457.166 813.494 457.656C812.892 458.216 811.968 458.468 810.904 458.468ZM810.876 454.058C812.08 454.058 812.57 453.176 812.57 452.112C812.57 451.062 812.01 450.166 810.862 450.166C809.896 450.166 809.252 450.922 809.252 452.126C809.252 453.344 809.896 454.058 810.876 454.058Z" fill="#1A1A1A"/>
<path d="M760.811 505.421V495.411H763.667L765.081 500.438C765.431 501.698 765.711 503.139 765.711 503.139H765.739C765.739 503.139 766.005 501.698 766.355 500.438L767.769 495.411H770.667V505.421H768.777V499.681C768.777 498.869 768.861 497.609 768.861 497.609H768.833C768.833 497.609 768.609 498.785 768.399 499.513L766.677 505.421H764.731L763.051 499.513C762.841 498.785 762.617 497.609 762.617 497.609H762.589C762.589 497.609 762.673 498.869 762.673 499.681V505.421H760.811Z" fill="#1A1A1A"/>
<path d="M775.433 505.632C773.053 505.632 771.709 503.965 771.709 501.823C771.709 499.695 773.151 498.043 775.251 498.043C777.561 498.043 778.793 499.807 778.793 502.37H773.585C773.725 503.475 774.341 504.161 775.419 504.161C776.161 504.161 776.595 503.825 776.805 503.279H778.681C778.415 504.553 777.281 505.632 775.433 505.632ZM775.279 499.513C774.271 499.513 773.781 500.116 773.613 501.053H776.805C776.749 500.143 776.147 499.513 775.279 499.513Z" fill="#1A1A1A"/>
<path d="M782.363 505.632C780.557 505.632 779.325 504.161 779.325 501.837C779.325 499.598 780.599 498.043 782.391 498.043C783.398 498.043 784.029 498.505 784.421 499.107H784.463V495.411H786.367V505.421H784.533V504.483H784.505C784.085 505.169 783.371 505.632 782.363 505.632ZM782.783 504.035C783.917 504.035 784.505 503.195 784.505 501.879C784.505 500.507 784.057 499.583 782.839 499.583C781.789 499.583 781.257 500.508 781.257 501.837C781.257 503.223 781.803 504.035 782.783 504.035Z" fill="#1A1A1A"/>
<path d="M787.604 505.421V498.24H789.508V505.421H787.604ZM787.604 497.12V495.411H789.508V497.12H787.604Z" fill="#1A1A1A"/>
<path d="M794.067 505.632C791.799 505.632 790.385 503.979 790.385 501.837C790.385 499.695 791.785 498.043 793.969 498.043C795.831 498.043 796.979 499.122 797.231 500.676H795.369C795.243 500.046 794.753 499.569 794.053 499.569C792.905 499.569 792.317 500.452 792.317 501.837C792.317 503.195 792.863 504.105 794.025 504.105C794.795 504.105 795.341 503.699 795.467 502.887H797.301C797.175 504.413 795.985 505.632 794.067 505.632Z" fill="#1A1A1A"/>
<path d="M802.79 505.421C802.678 505.281 802.608 504.945 802.566 504.624H802.538C802.174 505.169 801.656 505.59 800.424 505.59C798.954 505.59 797.918 504.819 797.918 503.391C797.918 501.809 799.206 501.305 800.802 501.081C801.992 500.913 802.538 500.815 802.538 500.27C802.538 499.751 802.132 499.415 801.334 499.415C800.438 499.415 800.004 499.737 799.948 500.423H798.254C798.31 499.163 799.248 498.057 801.348 498.057C803.504 498.057 804.372 499.023 804.372 500.703V504.357C804.372 504.903 804.456 505.225 804.624 505.352V505.421H802.79ZM800.886 504.259C801.978 504.259 802.58 503.587 802.58 502.887V501.809C802.244 502.005 801.726 502.117 801.25 502.229C800.256 502.453 799.766 502.677 799.766 503.349C799.766 504.021 800.214 504.259 800.886 504.259Z" fill="#1A1A1A"/>
<path d="M805.611 505.421V495.411H807.515V505.421H805.611Z" fill="#1A1A1A"/>
<path d="M815.152 505.646C812.436 505.646 810.896 504.441 810.826 502.327H812.814C812.954 503.531 813.64 504.008 815.068 504.008C816.104 504.008 817.014 503.643 817.014 502.719C817.014 501.739 816.062 501.543 814.536 501.193C812.744 500.787 811.106 500.311 811.106 498.225C811.106 496.251 812.716 495.229 814.942 495.229C817.196 495.229 818.652 496.336 818.806 498.352H816.86C816.748 497.344 815.964 496.839 814.928 496.839C813.836 496.839 813.122 497.302 813.122 498.016C813.122 498.828 813.822 499.065 815.306 499.387C817.364 499.835 819.044 500.326 819.044 502.482C819.044 504.512 817.406 505.646 815.152 505.646Z" fill="#1A1A1A"/>
<path d="M823.434 505.632C821.166 505.632 819.752 503.979 819.752 501.837C819.752 499.695 821.152 498.043 823.336 498.043C825.198 498.043 826.346 499.122 826.598 500.676H824.736C824.61 500.046 824.12 499.569 823.42 499.569C822.272 499.569 821.684 500.452 821.684 501.837C821.684 503.195 822.23 504.105 823.392 504.105C824.162 504.105 824.708 503.699 824.834 502.887H826.668C826.542 504.413 825.352 505.632 823.434 505.632Z" fill="#1A1A1A"/>
<path d="M827.499 505.421V498.24H829.403V505.421H827.499ZM827.499 497.12V495.411H829.403V497.12H827.499Z" fill="#1A1A1A"/>
<path d="M834.004 505.632C831.624 505.632 830.28 503.965 830.28 501.823C830.28 499.695 831.722 498.043 833.822 498.043C836.132 498.043 837.364 499.807 837.364 502.37H832.156C832.296 503.475 832.912 504.161 833.99 504.161C834.732 504.161 835.166 503.825 835.376 503.279H837.252C836.986 504.553 835.852 505.632 834.004 505.632ZM833.85 499.513C832.842 499.513 832.352 500.116 832.184 501.053H835.376C835.32 500.143 834.718 499.513 833.85 499.513Z" fill="#1A1A1A"/>
<path d="M840.107 498.24V499.219H840.149C840.639 498.449 841.297 498.043 842.277 498.043C843.761 498.043 844.755 499.164 844.755 500.732V505.421H842.851V501.012C842.851 500.242 842.403 499.695 841.605 499.695C840.765 499.695 840.149 500.367 840.149 501.348V505.421H838.245V498.24H840.107Z" fill="#1A1A1A"/>
<path d="M849.26 505.632C846.992 505.632 845.578 503.979 845.578 501.837C845.578 499.695 846.978 498.043 849.162 498.043C851.024 498.043 852.172 499.122 852.424 500.676H850.562C850.436 500.046 849.946 499.569 849.246 499.569C848.098 499.569 847.51 500.452 847.51 501.837C847.51 503.195 848.056 504.105 849.218 504.105C849.988 504.105 850.534 503.699 850.66 502.887H852.494C852.368 504.413 851.178 505.632 849.26 505.632Z" fill="#1A1A1A"/>
<path d="M856.699 505.632C854.319 505.632 852.975 503.965 852.975 501.823C852.975 499.695 854.417 498.043 856.517 498.043C858.827 498.043 860.059 499.807 860.059 502.37H854.851C854.991 503.475 855.607 504.161 856.685 504.161C857.427 504.161 857.861 503.825 858.071 503.279H859.947C859.681 504.553 858.547 505.632 856.699 505.632ZM856.545 499.513C855.537 499.513 855.047 500.116 854.879 501.053H858.071C858.015 500.143 857.413 499.513 856.545 499.513Z" fill="#1A1A1A"/>
<path d="M786.111 521.421V511.411H790.591C791.669 511.411 792.495 511.677 793.013 512.139C793.559 512.629 793.811 513.232 793.811 514.016C793.811 515.038 793.181 515.695 792.243 516.017V516.059C793.349 516.381 794.105 517.306 794.105 518.538C794.105 519.475 793.811 520.12 793.223 520.624C792.649 521.128 791.767 521.421 790.703 521.421H786.111ZM788.141 516.941V519.741H790.479C791.459 519.741 792.047 519.195 792.047 518.383C792.047 517.431 791.347 516.941 790.423 516.941H788.141ZM788.141 515.443H790.339C791.221 515.443 791.823 515.023 791.823 514.24C791.823 513.497 791.277 513.064 790.381 513.064H788.141V515.443Z" fill="#1A1A1A"/>
<path d="M801.514 521.421H799.68V520.581H799.638C799.148 521.239 798.588 521.617 797.58 521.617C795.984 521.617 795.088 520.595 795.088 519.027V514.24H796.978V518.706C796.978 519.546 797.356 520.008 798.168 520.008C799.064 520.008 799.61 519.335 799.61 518.383V514.24H801.514V521.421Z" fill="#1A1A1A"/>
<path d="M802.746 521.421V514.24H804.65V521.421H802.746ZM802.746 513.12V511.411H804.65V513.12H802.746Z" fill="#1A1A1A"/>
<path d="M805.905 521.421V511.411H807.809V521.421H805.905Z" fill="#1A1A1A"/>
<path d="M811.75 521.632C809.944 521.632 808.712 520.161 808.712 517.837C808.712 515.598 809.986 514.043 811.778 514.043C812.786 514.043 813.416 514.505 813.808 515.107H813.85V511.411H815.754V521.421H813.92V520.483H813.892C813.472 521.169 812.758 521.632 811.75 521.632ZM812.17 520.035C813.304 520.035 813.892 519.195 813.892 517.879C813.892 516.507 813.444 515.583 812.226 515.583C811.176 515.583 810.644 516.508 810.644 517.837C810.644 519.223 811.19 520.035 812.17 520.035Z" fill="#1A1A1A"/>
<path d="M816.992 521.421V514.24H818.896V521.421H816.992ZM816.992 513.12V511.411H818.896V513.12H816.992Z" fill="#1A1A1A"/>
<path d="M821.985 514.24V515.219H822.027C822.517 514.449 823.175 514.043 824.155 514.043C825.639 514.043 826.633 515.164 826.633 516.732V521.421H824.729V517.012C824.729 516.242 824.281 515.695 823.483 515.695C822.643 515.695 822.027 516.367 822.027 517.348V521.421H820.123V514.24H821.985Z" fill="#1A1A1A"/>
<path d="M830.97 523.871C829.01 523.871 827.806 523.031 827.61 521.632H829.5C829.654 522.079 830.06 522.43 830.942 522.43C832.02 522.43 832.538 521.911 832.538 520.931V520.147H832.496C832.076 520.624 831.53 520.987 830.62 520.987C829.024 520.987 827.456 519.728 827.456 517.557C827.456 515.415 828.744 514.043 830.564 514.043C831.46 514.043 832.118 514.393 832.552 514.995H832.58V514.24H834.414V520.875C834.414 521.883 834.092 522.569 833.56 523.059C832.958 523.619 832.034 523.871 830.97 523.871ZM830.942 519.461C832.146 519.461 832.636 518.579 832.636 517.516C832.636 516.466 832.076 515.569 830.928 515.569C829.962 515.569 829.318 516.325 829.318 517.529C829.318 518.747 829.962 519.461 830.942 519.461Z" fill="#1A1A1A"/>
<path d="M762.86 576.421V566.411H764.89V576.421H762.86Z" fill="#1A1A1A"/>
<path d="M768.15 569.24V570.219H768.192C768.682 569.449 769.34 569.043 770.32 569.043C771.804 569.043 772.798 570.164 772.798 571.732V576.421H770.894V572.012C770.894 571.242 770.446 570.695 769.648 570.695C768.808 570.695 768.192 571.367 768.192 572.348V576.421H766.288V569.24H768.15Z" fill="#1A1A1A"/>
<path d="M773.415 570.499V569.24H774.409V566.999H776.271V569.24H777.503V570.499H776.271V574.307C776.271 574.84 776.565 575.021 776.985 575.021C777.223 575.021 777.545 575.008 777.545 575.008V576.408C777.545 576.408 777.111 576.435 776.355 576.435C775.431 576.435 774.409 576.072 774.409 574.714V570.499H773.415Z" fill="#1A1A1A"/>
<path d="M781.789 576.632C779.409 576.632 778.065 574.965 778.065 572.823C778.065 570.695 779.507 569.043 781.607 569.043C783.917 569.043 785.149 570.807 785.149 573.37H779.941C780.081 574.475 780.697 575.161 781.775 575.161C782.517 575.161 782.951 574.825 783.161 574.279H785.037C784.771 575.553 783.637 576.632 781.789 576.632ZM781.635 570.513C780.627 570.513 780.137 571.116 779.969 572.053H783.161C783.105 571.143 782.503 570.513 781.635 570.513Z" fill="#1A1A1A"/>
<path d="M789.194 578.871C787.234 578.871 786.03 578.031 785.834 576.632H787.724C787.878 577.079 788.284 577.43 789.166 577.43C790.244 577.43 790.762 576.911 790.762 575.931V575.147H790.72C790.3 575.624 789.754 575.987 788.844 575.987C787.248 575.987 785.68 574.728 785.68 572.557C785.68 570.415 786.968 569.043 788.788 569.043C789.684 569.043 790.342 569.393 790.776 569.995H790.804V569.24H792.638V575.875C792.638 576.883 792.316 577.569 791.784 578.059C791.182 578.619 790.258 578.871 789.194 578.871ZM789.166 574.461C790.37 574.461 790.86 573.579 790.86 572.516C790.86 571.466 790.3 570.569 789.152 570.569C788.186 570.569 787.542 571.325 787.542 572.529C787.542 573.747 788.186 574.461 789.166 574.461Z" fill="#1A1A1A"/>
<path d="M795.698 569.24V570.387H795.74C796.174 569.575 796.664 569.155 797.504 569.155C797.714 569.155 797.84 569.169 797.952 569.211V570.878H797.91C796.664 570.751 795.768 571.409 795.768 572.921V576.421H793.864V569.24H795.698Z" fill="#1A1A1A"/>
<path d="M803.089 576.421C802.977 576.281 802.907 575.945 802.865 575.624H802.837C802.473 576.169 801.955 576.59 800.723 576.59C799.253 576.59 798.217 575.819 798.217 574.391C798.217 572.809 799.505 572.305 801.101 572.081C802.291 571.913 802.837 571.815 802.837 571.27C802.837 570.751 802.431 570.415 801.633 570.415C800.737 570.415 800.303 570.737 800.247 571.423H798.553C798.609 570.163 799.547 569.057 801.647 569.057C803.803 569.057 804.671 570.023 804.671 571.703V575.357C804.671 575.903 804.755 576.225 804.923 576.352V576.421H803.089ZM801.185 575.259C802.277 575.259 802.879 574.587 802.879 573.887V572.809C802.543 573.005 802.025 573.117 801.549 573.229C800.555 573.453 800.065 573.677 800.065 574.349C800.065 575.021 800.513 575.259 801.185 575.259Z" fill="#1A1A1A"/>
<path d="M805.325 570.499V569.24H806.319V566.999H808.181V569.24H809.413V570.499H808.181V574.307C808.181 574.84 808.475 575.021 808.895 575.021C809.133 575.021 809.455 575.008 809.455 575.008V576.408C809.455 576.408 809.021 576.435 808.265 576.435C807.341 576.435 806.319 576.072 806.319 574.714V570.499H805.325Z" fill="#1A1A1A"/>
<path d="M810.393 576.421V569.24H812.297V576.421H810.393ZM810.393 568.12V566.411H812.297V568.12H810.393Z" fill="#1A1A1A"/>
<path d="M815.428 576.421L812.936 569.24H814.868L816.016 572.964C816.226 573.65 816.338 574.111 816.338 574.111H816.366C816.366 574.111 816.464 573.65 816.674 572.964L817.85 569.24H819.754L817.248 576.421H815.428Z" fill="#1A1A1A"/>
<path d="M823.57 576.632C821.19 576.632 819.846 574.965 819.846 572.823C819.846 570.695 821.288 569.043 823.388 569.043C825.698 569.043 826.93 570.807 826.93 573.37H821.722C821.862 574.475 822.478 575.161 823.556 575.161C824.298 575.161 824.732 574.825 824.942 574.279H826.818C826.552 575.553 825.418 576.632 823.57 576.632ZM823.416 570.513C822.408 570.513 821.918 571.116 821.75 572.053H824.942C824.886 571.143 824.284 570.513 823.416 570.513Z" fill="#1A1A1A"/>
<path d="M830.317 576.421V566.411H834.797C835.875 566.411 836.701 566.677 837.219 567.139C837.765 567.629 838.017 568.232 838.017 569.016C838.017 570.038 837.387 570.695 836.449 571.017V571.059C837.555 571.381 838.311 572.306 838.311 573.538C838.311 574.475 838.017 575.12 837.429 575.624C836.855 576.128 835.973 576.421 834.909 576.421H830.317ZM832.347 571.941V574.741H834.685C835.665 574.741 836.253 574.195 836.253 573.383C836.253 572.431 835.553 571.941 834.629 571.941H832.347ZM832.347 570.443H834.545C835.427 570.443 836.029 570.023 836.029 569.24C836.029 568.497 835.483 568.064 834.587 568.064H832.347V570.443Z" fill="#1A1A1A"/>
<path d="M839.35 576.421V569.24H841.254V576.421H839.35ZM839.35 568.12V566.411H841.254V568.12H839.35Z" fill="#1A1A1A"/>
<path d="M845.883 576.632C843.657 576.632 842.131 574.979 842.131 572.837C842.131 570.695 843.657 569.043 845.883 569.043C848.109 569.043 849.635 570.695 849.635 572.837C849.635 574.979 848.109 576.632 845.883 576.632ZM845.883 575.176C847.045 575.176 847.703 574.237 847.703 572.837C847.703 571.438 847.045 570.486 845.883 570.486C844.707 570.486 844.063 571.438 844.063 572.837C844.063 574.237 844.707 575.176 845.883 575.176Z" fill="#1A1A1A"/>
<path d="M850.52 576.421V569.24H852.354V570.206H852.396C852.788 569.548 853.488 569.043 854.482 569.043C855.392 569.043 856.12 569.547 856.47 570.303H856.498C856.988 569.52 857.744 569.043 858.654 569.043C860.166 569.043 861.02 570.023 861.02 571.591V576.421H859.116V571.913C859.116 571.101 858.71 570.681 858.01 570.681C857.212 570.681 856.722 571.297 856.722 572.249V576.421H854.818V571.913C854.818 571.101 854.412 570.681 853.712 570.681C852.942 570.681 852.424 571.297 852.424 572.249V576.421H850.52Z" fill="#1A1A1A"/>
<path d="M865.57 576.632C863.19 576.632 861.846 574.965 861.846 572.823C861.846 570.695 863.288 569.043 865.388 569.043C867.698 569.043 868.93 570.807 868.93 573.37H863.722C863.862 574.475 864.478 575.161 865.556 575.161C866.298 575.161 866.732 574.825 866.942 574.279H868.818C868.552 575.553 867.418 576.632 865.57 576.632ZM865.416 570.513C864.408 570.513 863.918 571.116 863.75 572.053H866.942C866.886 571.143 866.284 570.513 865.416 570.513Z" fill="#1A1A1A"/>
<path d="M872.499 576.632C870.693 576.632 869.461 575.161 869.461 572.837C869.461 570.598 870.735 569.043 872.527 569.043C873.535 569.043 874.165 569.505 874.557 570.107H874.599V566.411H876.503V576.421H874.669V575.483H874.641C874.221 576.169 873.507 576.632 872.499 576.632ZM872.919 575.035C874.053 575.035 874.641 574.195 874.641 572.879C874.641 571.507 874.193 570.583 872.975 570.583C871.925 570.583 871.393 571.508 871.393 572.837C871.393 574.223 871.939 575.035 872.919 575.035Z" fill="#1A1A1A"/>
<path d="M877.741 576.421V569.24H879.645V576.421H877.741ZM877.741 568.12V566.411H879.645V568.12H877.741Z" fill="#1A1A1A"/>
<path d="M884.204 576.632C881.936 576.632 880.522 574.979 880.522 572.837C880.522 570.695 881.922 569.043 884.106 569.043C885.968 569.043 887.116 570.122 887.368 571.676H885.506C885.38 571.046 884.89 570.569 884.19 570.569C883.042 570.569 882.454 571.452 882.454 572.837C882.454 574.195 883 575.105 884.162 575.105C884.932 575.105 885.478 574.699 885.604 573.887H887.438C887.312 575.413 886.122 576.632 884.204 576.632Z" fill="#1A1A1A"/>
<path d="M892.927 576.421C892.815 576.281 892.745 575.945 892.703 575.624H892.675C892.311 576.169 891.793 576.59 890.561 576.59C889.091 576.59 888.055 575.819 888.055 574.391C888.055 572.809 889.343 572.305 890.939 572.081C892.129 571.913 892.675 571.815 892.675 571.27C892.675 570.751 892.269 570.415 891.471 570.415C890.575 570.415 890.141 570.737 890.085 571.423H888.391C888.447 570.163 889.385 569.057 891.485 569.057C893.641 569.057 894.509 570.023 894.509 571.703V575.357C894.509 575.903 894.593 576.225 894.761 576.352V576.421H892.927ZM891.023 575.259C892.115 575.259 892.717 574.587 892.717 573.887V572.809C892.381 573.005 891.863 573.117 891.387 573.229C890.393 573.453 889.903 573.677 889.903 574.349C889.903 575.021 890.351 575.259 891.023 575.259Z" fill="#1A1A1A"/>
<path d="M895.747 576.421V566.411H897.651V576.421H895.747Z" fill="#1A1A1A"/>
<path d="M796.821 592.421V582.411H804.185V584.12H798.851V586.359H803.527V588.025H798.851V590.727H804.227V592.421H796.821Z" fill="#1A1A1A"/>
<path d="M807.886 592.632C806.08 592.632 804.848 591.161 804.848 588.837C804.848 586.598 806.122 585.043 807.914 585.043C808.922 585.043 809.552 585.505 809.944 586.107H809.986V582.411H811.89V592.421H810.056V591.483H810.028C809.608 592.169 808.894 592.632 807.886 592.632ZM808.306 591.035C809.44 591.035 810.028 590.195 810.028 588.879C810.028 587.507 809.58 586.583 808.362 586.583C807.312 586.583 806.78 587.508 806.78 588.837C806.78 590.223 807.326 591.035 808.306 591.035Z" fill="#1A1A1A"/>
<path d="M819.498 592.421H817.664V591.581H817.622C817.132 592.239 816.572 592.617 815.564 592.617C813.968 592.617 813.072 591.595 813.072 590.027V585.24H814.962V589.706C814.962 590.546 815.34 591.008 816.152 591.008C817.048 591.008 817.594 590.335 817.594 589.383V585.24H819.498V592.421Z" fill="#1A1A1A"/>
<path d="M824.061 592.632C821.793 592.632 820.379 590.979 820.379 588.837C820.379 586.695 821.779 585.043 823.963 585.043C825.825 585.043 826.973 586.122 827.225 587.676H825.363C825.237 587.046 824.747 586.569 824.047 586.569C822.899 586.569 822.311 587.452 822.311 588.837C822.311 590.195 822.857 591.105 824.019 591.105C824.789 591.105 825.335 590.699 825.461 589.887H827.295C827.169 591.413 825.979 592.632 824.061 592.632Z" fill="#1A1A1A"/>
<path d="M832.784 592.421C832.672 592.281 832.602 591.945 832.56 591.624H832.532C832.168 592.169 831.65 592.59 830.418 592.59C828.948 592.59 827.912 591.819 827.912 590.391C827.912 588.809 829.2 588.305 830.796 588.081C831.986 587.913 832.532 587.815 832.532 587.27C832.532 586.751 832.126 586.415 831.328 586.415C830.432 586.415 829.998 586.737 829.942 587.423H828.248C828.304 586.163 829.242 585.057 831.342 585.057C833.498 585.057 834.366 586.023 834.366 587.703V591.357C834.366 591.903 834.45 592.225 834.618 592.352V592.421H832.784ZM830.88 591.259C831.972 591.259 832.574 590.587 832.574 589.887V588.809C832.238 589.005 831.72 589.117 831.244 589.229C830.25 589.453 829.76 589.677 829.76 590.349C829.76 591.021 830.208 591.259 830.88 591.259Z" fill="#1A1A1A"/>
<path d="M835.02 586.499V585.24H836.014V582.999H837.876V585.24H839.108V586.499H837.876V590.307C837.876 590.84 838.17 591.021 838.59 591.021C838.828 591.021 839.15 591.008 839.15 591.008V592.408C839.15 592.408 838.716 592.435 837.96 592.435C837.036 592.435 836.014 592.072 836.014 590.714V586.499H835.02Z" fill="#1A1A1A"/>
<path d="M840.089 592.421V585.24H841.993V592.421H840.089ZM840.089 584.12V582.411H841.993V584.12H840.089Z" fill="#1A1A1A"/>
<path d="M846.621 592.632C844.395 592.632 842.869 590.979 842.869 588.837C842.869 586.695 844.395 585.043 846.621 585.043C848.847 585.043 850.373 586.695 850.373 588.837C850.373 590.979 848.847 592.632 846.621 592.632ZM846.621 591.176C847.783 591.176 848.441 590.237 848.441 588.837C848.441 587.438 847.783 586.486 846.621 586.486C845.445 586.486 844.801 587.438 844.801 588.837C844.801 590.237 845.445 591.176 846.621 591.176Z" fill="#1A1A1A"/>
<path d="M853.121 585.24V586.219H853.163C853.653 585.449 854.311 585.043 855.291 585.043C856.775 585.043 857.768 586.164 857.768 587.732V592.421H855.865V588.012C855.865 587.242 855.417 586.695 854.619 586.695C853.779 586.695 853.163 587.367 853.163 588.348V592.421H851.259V585.24H853.121Z" fill="#1A1A1A"/>
<path d="M775.814 608.421V598.411H780.406C782.338 598.411 783.626 599.531 783.626 601.197C783.626 602.373 783.08 603.27 781.792 603.62V603.661C782.716 603.927 783.192 604.46 783.318 605.677C783.458 607.091 783.402 608.169 783.752 608.323V608.421H781.806C781.554 608.309 781.526 607.189 781.442 606.111C781.358 605.019 780.742 604.404 779.482 604.404H777.844V608.421H775.814ZM777.844 600.049V602.835H780C781.106 602.835 781.652 602.262 781.652 601.464C781.652 600.651 781.134 600.049 780.056 600.049H777.844Z" fill="#1A1A1A"/>
<path d="M788.085 608.632C785.705 608.632 784.361 606.965 784.361 604.823C784.361 602.695 785.803 601.043 787.903 601.043C790.213 601.043 791.445 602.807 791.445 605.37H786.237C786.377 606.475 786.993 607.161 788.071 607.161C788.813 607.161 789.247 606.825 789.457 606.279H791.333C791.067 607.553 789.933 608.632 788.085 608.632ZM787.931 602.513C786.923 602.513 786.433 603.116 786.265 604.053H789.457C789.401 603.143 788.799 602.513 787.931 602.513Z" fill="#1A1A1A"/>
<path d="M795.238 608.632C793.152 608.632 791.99 607.624 791.878 606.098H793.642C793.768 606.923 794.356 607.288 795.21 607.288C796.05 607.288 796.526 606.965 796.526 606.461C796.526 605.775 795.616 605.706 794.636 605.509C793.348 605.257 792.088 604.907 792.088 603.339C792.088 601.785 793.376 601.043 795.014 601.043C796.904 601.043 797.954 601.982 798.094 603.423H796.372C796.288 602.654 795.798 602.374 794.986 602.374C794.244 602.374 793.754 602.653 793.754 603.171C793.754 603.787 794.706 603.844 795.728 604.053C796.932 604.306 798.262 604.642 798.262 606.322C798.262 607.763 797.03 608.632 795.238 608.632Z" fill="#1A1A1A"/>
<path d="M802.563 608.632C800.183 608.632 798.839 606.965 798.839 604.823C798.839 602.695 800.281 601.043 802.381 601.043C804.691 601.043 805.923 602.807 805.923 605.37H800.715C800.855 606.475 801.471 607.161 802.549 607.161C803.291 607.161 803.725 606.825 803.935 606.279H805.811C805.545 607.553 804.411 608.632 802.563 608.632ZM802.409 602.513C801.401 602.513 800.911 603.116 800.743 604.053H803.935C803.879 603.143 803.277 602.513 802.409 602.513Z" fill="#1A1A1A"/>
<path d="M811.326 608.421C811.214 608.281 811.144 607.945 811.102 607.624H811.074C810.71 608.169 810.192 608.59 808.96 608.59C807.49 608.59 806.454 607.819 806.454 606.391C806.454 604.809 807.742 604.305 809.338 604.081C810.528 603.913 811.074 603.815 811.074 603.27C811.074 602.751 810.668 602.415 809.87 602.415C808.974 602.415 808.54 602.737 808.484 603.423H806.79C806.846 602.163 807.784 601.057 809.884 601.057C812.04 601.057 812.908 602.023 812.908 603.703V607.357C812.908 607.903 812.992 608.225 813.16 608.352V608.421H811.326ZM809.422 607.259C810.514 607.259 811.116 606.587 811.116 605.887V604.809C810.78 605.005 810.262 605.117 809.786 605.229C808.792 605.453 808.302 605.677 808.302 606.349C808.302 607.021 808.75 607.259 809.422 607.259Z" fill="#1A1A1A"/>
<path d="M815.953 601.24V602.387H815.995C816.429 601.575 816.919 601.155 817.759 601.155C817.969 601.155 818.095 601.169 818.207 601.211V602.878H818.165C816.919 602.751 816.023 603.409 816.023 604.921V608.421H814.119V601.24H815.953Z" fill="#1A1A1A"/>
<path d="M822.154 608.632C819.886 608.632 818.472 606.979 818.472 604.837C818.472 602.695 819.872 601.043 822.056 601.043C823.918 601.043 825.066 602.122 825.318 603.676H823.456C823.33 603.046 822.84 602.569 822.14 602.569C820.992 602.569 820.404 603.452 820.404 604.837C820.404 606.195 820.95 607.105 822.112 607.105C822.882 607.105 823.428 606.699 823.554 605.887H825.388C825.262 607.413 824.072 608.632 822.154 608.632Z" fill="#1A1A1A"/>
<path d="M828.122 598.411V602.177H828.164C828.682 601.421 829.271 601.043 830.25 601.043C831.734 601.043 832.728 602.164 832.728 603.732V608.421H830.824V604.012C830.824 603.242 830.376 602.695 829.578 602.695C828.738 602.695 828.122 603.367 828.122 604.348V608.421H826.219V598.411H828.122Z" fill="#1A1A1A"/>
<path d="M836.408 608.421V598.411H840.888C841.966 598.411 842.792 598.677 843.31 599.139C843.856 599.629 844.108 600.232 844.108 601.016C844.108 602.038 843.478 602.695 842.54 603.017V603.059C843.646 603.381 844.402 604.306 844.402 605.538C844.402 606.475 844.108 607.12 843.52 607.624C842.946 608.128 842.064 608.421 841 608.421H836.408ZM838.438 603.941V606.741H840.776C841.756 606.741 842.344 606.195 842.344 605.383C842.344 604.431 841.644 603.941 840.72 603.941H838.438ZM838.438 602.443H840.636C841.518 602.443 842.12 602.023 842.12 601.24C842.12 600.497 841.574 600.064 840.678 600.064H838.438V602.443Z" fill="#1A1A1A"/>
<path d="M851.811 608.421H849.977V607.581H849.935C849.445 608.239 848.885 608.617 847.877 608.617C846.281 608.617 845.385 607.595 845.385 606.027V601.24H847.275V605.706C847.275 606.546 847.653 607.008 848.465 607.008C849.361 607.008 849.907 606.335 849.907 605.383V601.24H851.811V608.421Z" fill="#1A1A1A"/>
<path d="M853.043 608.421V601.24H854.947V608.421H853.043ZM853.043 600.12V598.411H854.947V600.12H853.043Z" fill="#1A1A1A"/>
<path d="M856.202 608.421V598.411H858.106V608.421H856.202Z" fill="#1A1A1A"/>
<path d="M862.047 608.632C860.241 608.632 859.009 607.161 859.009 604.837C859.009 602.598 860.283 601.043 862.075 601.043C863.083 601.043 863.713 601.505 864.105 602.107H864.147V598.411H866.051V608.421H864.217V607.483H864.189C863.769 608.169 863.055 608.632 862.047 608.632ZM862.467 607.035C863.601 607.035 864.189 606.195 864.189 604.879C864.189 603.507 863.741 602.583 862.523 602.583C861.473 602.583 860.941 603.508 860.941 604.837C860.941 606.223 861.487 607.035 862.467 607.035Z" fill="#1A1A1A"/>
<path d="M867.289 608.421V601.24H869.193V608.421H867.289ZM867.289 600.12V598.411H869.193V600.12H867.289Z" fill="#1A1A1A"/>
<path d="M872.282 601.24V602.219H872.324C872.814 601.449 873.472 601.043 874.452 601.043C875.936 601.043 876.93 602.164 876.93 603.732V608.421H875.026V604.012C875.026 603.242 874.578 602.695 873.78 602.695C872.94 602.695 872.324 603.367 872.324 604.348V608.421H870.42V601.24H872.282Z" fill="#1A1A1A"/>
<path d="M881.267 610.871C879.307 610.871 878.103 610.031 877.907 608.632H879.797C879.951 609.079 880.357 609.43 881.239 609.43C882.317 609.43 882.835 608.911 882.835 607.931V607.147H882.793C882.373 607.624 881.827 607.987 880.917 607.987C879.321 607.987 877.753 606.728 877.753 604.557C877.753 602.415 879.041 601.043 880.861 601.043C881.757 601.043 882.415 601.393 882.849 601.995H882.877V601.24H884.711V607.875C884.711 608.883 884.389 609.569 883.857 610.059C883.255 610.619 882.331 610.871 881.267 610.871ZM881.239 606.461C882.443 606.461 882.933 605.579 882.933 604.516C882.933 603.466 882.373 602.569 881.225 602.569C880.259 602.569 879.615 603.325 879.615 604.529C879.615 605.747 880.259 606.461 881.239 606.461Z" fill="#1A1A1A"/>
<path d="M501.453 635.421V625.411H504.309L505.723 630.438C506.073 631.698 506.353 633.139 506.353 633.139H506.381C506.381 633.139 506.647 631.698 506.997 630.438L508.411 625.411H511.309V635.421H509.419V629.681C509.419 628.869 509.503 627.609 509.503 627.609H509.475C509.475 627.609 509.251 628.785 509.041 629.513L507.319 635.421H505.373L503.693 629.513C503.483 628.785 503.259 627.609 503.259 627.609H503.231C503.231 627.609 503.315 628.869 503.315 629.681V635.421H501.453Z" fill="#1A1A1A"/>
<path d="M516.075 635.632C513.695 635.632 512.351 633.965 512.351 631.823C512.351 629.695 513.793 628.043 515.893 628.043C518.203 628.043 519.435 629.807 519.435 632.37H514.227C514.367 633.475 514.983 634.161 516.061 634.161C516.803 634.161 517.237 633.825 517.447 633.279H519.323C519.057 634.553 517.923 635.632 516.075 635.632ZM515.921 629.513C514.913 629.513 514.423 630.116 514.255 631.053H517.447C517.391 630.143 516.789 629.513 515.921 629.513Z" fill="#1A1A1A"/>
<path d="M523.004 635.632C521.198 635.632 519.966 634.161 519.966 631.837C519.966 629.598 521.24 628.043 523.032 628.043C524.04 628.043 524.67 628.505 525.062 629.107H525.104V625.411H527.008V635.421H525.174V634.483H525.146C524.726 635.169 524.012 635.632 523.004 635.632ZM523.424 634.035C524.558 634.035 525.146 633.195 525.146 631.879C525.146 630.507 524.698 629.583 523.48 629.583C522.43 629.583 521.898 630.508 521.898 631.837C521.898 633.223 522.444 634.035 523.424 634.035Z" fill="#1A1A1A"/>
<path d="M528.246 635.421V628.24H530.15V635.421H528.246ZM528.246 627.12V625.411H530.15V627.12H528.246Z" fill="#1A1A1A"/>
<path d="M534.709 635.632C532.441 635.632 531.027 633.979 531.027 631.837C531.027 629.695 532.427 628.043 534.611 628.043C536.473 628.043 537.621 629.122 537.873 630.676H536.011C535.885 630.046 535.395 629.569 534.695 629.569C533.547 629.569 532.959 630.452 532.959 631.837C532.959 633.195 533.505 634.105 534.667 634.105C535.437 634.105 535.983 633.699 536.109 632.887H537.943C537.817 634.413 536.627 635.632 534.709 635.632Z" fill="#1A1A1A"/>
<path d="M543.432 635.421C543.32 635.281 543.25 634.945 543.208 634.624H543.18C542.816 635.169 542.298 635.59 541.066 635.59C539.596 635.59 538.56 634.819 538.56 633.391C538.56 631.809 539.848 631.305 541.444 631.081C542.634 630.913 543.18 630.815 543.18 630.27C543.18 629.751 542.774 629.415 541.976 629.415C541.08 629.415 540.646 629.737 540.59 630.423H538.896C538.952 629.163 539.89 628.057 541.99 628.057C544.146 628.057 545.014 629.023 545.014 630.703V634.357C545.014 634.903 545.098 635.225 545.266 635.352V635.421H543.432ZM541.528 634.259C542.62 634.259 543.222 633.587 543.222 632.887V631.809C542.886 632.005 542.368 632.117 541.892 632.229C540.898 632.453 540.408 632.677 540.408 633.349C540.408 634.021 540.856 634.259 541.528 634.259Z" fill="#1A1A1A"/>
<path d="M546.252 635.421V625.411H548.156V635.421H546.252Z" fill="#1A1A1A"/>
<path d="M551.915 635.421V625.411H553.945V633.727H558.649V635.421H551.915Z" fill="#1A1A1A"/>
<path d="M559.65 635.421V628.24H561.554V635.421H559.65ZM559.65 627.12V625.411H561.554V627.12H559.65Z" fill="#1A1A1A"/>
<path d="M566.785 635.632C565.777 635.632 565.063 635.197 564.643 634.525H564.615V635.421H562.781V625.411H564.685V629.107H564.727C565.119 628.505 565.735 628.043 566.729 628.043C568.535 628.043 569.823 629.598 569.823 631.837C569.823 634.161 568.591 635.632 566.785 635.632ZM566.365 634.035C567.345 634.035 567.891 633.223 567.891 631.837C567.891 630.508 567.359 629.583 566.295 629.583C565.091 629.583 564.643 630.549 564.643 631.879C564.643 633.195 565.301 634.035 566.365 634.035Z" fill="#1A1A1A"/>
<path d="M572.545 628.24V629.387H572.587C573.021 628.575 573.511 628.155 574.351 628.155C574.561 628.155 574.687 628.169 574.799 628.211V629.878H574.757C573.511 629.751 572.615 630.409 572.615 631.921V635.421H570.711V628.24H572.545Z" fill="#1A1A1A"/>
<path d="M579.936 635.421C579.824 635.281 579.754 634.945 579.712 634.624H579.684C579.32 635.169 578.802 635.59 577.57 635.59C576.1 635.59 575.064 634.819 575.064 633.391C575.064 631.809 576.352 631.305 577.948 631.081C579.138 630.913 579.684 630.815 579.684 630.27C579.684 629.751 579.278 629.415 578.48 629.415C577.584 629.415 577.15 629.737 577.094 630.423H575.4C575.456 629.163 576.394 628.057 578.494 628.057C580.65 628.057 581.518 629.023 581.518 630.703V634.357C581.518 634.903 581.602 635.225 581.77 635.352V635.421H579.936ZM578.032 634.259C579.124 634.259 579.726 633.587 579.726 632.887V631.809C579.39 632.005 578.872 632.117 578.396 632.229C577.402 632.453 576.912 632.677 576.912 633.349C576.912 634.021 577.36 634.259 578.032 634.259Z" fill="#1A1A1A"/>
<path d="M584.562 628.24V629.387H584.604C585.038 628.575 585.528 628.155 586.368 628.155C586.578 628.155 586.704 628.169 586.816 628.211V629.878H586.774C585.528 629.751 584.632 630.409 584.632 631.921V635.421H582.728V628.24H584.562Z" fill="#1A1A1A"/>
<path d="M587.859 637.773V636.275H588.531C589.287 636.275 589.595 635.884 589.595 635.296C589.595 634.904 589.455 634.441 589.049 633.349L587.117 628.24H589.119L590.183 631.473C590.407 632.131 590.645 633.042 590.645 633.042H590.673C590.673 633.042 590.869 632.131 591.093 631.473L592.101 628.24H594.019L591.513 635.603C590.967 637.199 590.435 637.773 588.979 637.773H587.859Z" fill="#1A1A1A"/>
<path d="M800.815 655.421V645.411H808.179V647.12H802.845V649.359H807.521V651.025H802.845V653.727H808.221V655.421H800.815Z" fill="#1A1A1A"/>
<path d="M811.88 655.632C810.074 655.632 808.842 654.161 808.842 651.837C808.842 649.598 810.116 648.043 811.908 648.043C812.916 648.043 813.546 648.505 813.938 649.107H813.98V645.411H815.884V655.421H814.05V654.483H814.022C813.602 655.169 812.888 655.632 811.88 655.632ZM812.3 654.035C813.434 654.035 814.022 653.195 814.022 651.879C814.022 650.507 813.574 649.583 812.356 649.583C811.306 649.583 810.774 650.508 810.774 651.837C810.774 653.223 811.32 654.035 812.3 654.035Z" fill="#1A1A1A"/>
<path d="M823.492 655.421H821.658V654.581H821.616C821.126 655.239 820.566 655.617 819.558 655.617C817.962 655.617 817.066 654.595 817.066 653.027V648.24H818.956V652.706C818.956 653.546 819.334 654.008 820.146 654.008C821.042 654.008 821.588 653.335 821.588 652.383V648.24H823.492V655.421Z" fill="#1A1A1A"/>
<path d="M828.055 655.632C825.787 655.632 824.373 653.979 824.373 651.837C824.373 649.695 825.773 648.043 827.957 648.043C829.819 648.043 830.967 649.122 831.219 650.676H829.357C829.231 650.046 828.741 649.569 828.041 649.569C826.893 649.569 826.305 650.452 826.305 651.837C826.305 653.195 826.851 654.105 828.013 654.105C828.783 654.105 829.329 653.699 829.455 652.887H831.289C831.163 654.413 829.973 655.632 828.055 655.632Z" fill="#1A1A1A"/>
<path d="M836.779 655.421C836.667 655.281 836.597 654.945 836.555 654.624H836.527C836.163 655.169 835.645 655.59 834.413 655.59C832.943 655.59 831.907 654.819 831.907 653.391C831.907 651.809 833.195 651.305 834.791 651.081C835.981 650.913 836.527 650.815 836.527 650.27C836.527 649.751 836.121 649.415 835.323 649.415C834.427 649.415 833.993 649.737 833.937 650.423H832.243C832.299 649.163 833.237 648.057 835.337 648.057C837.493 648.057 838.361 649.023 838.361 650.703V654.357C838.361 654.903 838.445 655.225 838.613 655.352V655.421H836.779ZM834.875 654.259C835.967 654.259 836.569 653.587 836.569 652.887V651.809C836.233 652.005 835.715 652.117 835.239 652.229C834.245 652.453 833.755 652.677 833.755 653.349C833.755 654.021 834.203 654.259 834.875 654.259Z" fill="#1A1A1A"/>
<path d="M839.014 649.499V648.24H840.008V645.999H841.87V648.24H843.102V649.499H841.87V653.307C841.87 653.84 842.164 654.021 842.584 654.021C842.822 654.021 843.144 654.008 843.144 654.008V655.408C843.144 655.408 842.71 655.435 841.954 655.435C841.03 655.435 840.008 655.072 840.008 653.714V649.499H839.014Z" fill="#1A1A1A"/>
<path d="M844.083 655.421V648.24H845.987V655.421H844.083ZM844.083 647.12V645.411H845.987V647.12H844.083Z" fill="#1A1A1A"/>
<path d="M850.616 655.632C848.39 655.632 846.864 653.979 846.864 651.837C846.864 649.695 848.39 648.043 850.616 648.043C852.842 648.043 854.368 649.695 854.368 651.837C854.368 653.979 852.842 655.632 850.616 655.632ZM850.616 654.176C851.778 654.176 852.436 653.237 852.436 651.837C852.436 650.438 851.778 649.486 850.616 649.486C849.44 649.486 848.796 650.438 848.796 651.837C848.796 653.237 849.44 654.176 850.616 654.176Z" fill="#1A1A1A"/>
<path d="M857.115 648.24V649.219H857.157C857.647 648.449 858.305 648.043 859.285 648.043C860.769 648.043 861.763 649.164 861.763 650.732V655.421H859.859V651.012C859.859 650.242 859.411 649.695 858.613 649.695C857.773 649.695 857.157 650.367 857.157 651.348V655.421H855.253V648.24H857.115Z" fill="#1A1A1A"/>
<path d="M807.111 671.421V661.411H811.591C812.669 661.411 813.495 661.677 814.013 662.139C814.559 662.629 814.811 663.232 814.811 664.016C814.811 665.038 814.181 665.695 813.243 666.017V666.059C814.349 666.381 815.105 667.306 815.105 668.538C815.105 669.475 814.811 670.12 814.223 670.624C813.649 671.128 812.767 671.421 811.703 671.421H807.111ZM809.141 666.941V669.741H811.479C812.459 669.741 813.047 669.195 813.047 668.383C813.047 667.431 812.347 666.941 811.423 666.941H809.141ZM809.141 665.443H811.339C812.221 665.443 812.823 665.023 812.823 664.24C812.823 663.497 812.277 663.064 811.381 663.064H809.141V665.443Z" fill="#1A1A1A"/>
<path d="M822.514 671.421H820.68V670.581H820.638C820.148 671.239 819.588 671.617 818.58 671.617C816.984 671.617 816.088 670.595 816.088 669.027V664.24H817.978V668.706C817.978 669.546 818.356 670.008 819.168 670.008C820.064 670.008 820.61 669.335 820.61 668.383V664.24H822.514V671.421Z" fill="#1A1A1A"/>
<path d="M823.746 671.421V664.24H825.65V671.421H823.746ZM823.746 663.12V661.411H825.65V663.12H823.746Z" fill="#1A1A1A"/>
<path d="M826.905 671.421V661.411H828.809V671.421H826.905Z" fill="#1A1A1A"/>
<path d="M832.75 671.632C830.944 671.632 829.712 670.161 829.712 667.837C829.712 665.598 830.986 664.043 832.778 664.043C833.786 664.043 834.416 664.505 834.808 665.107H834.85V661.411H836.754V671.421H834.92V670.483H834.892C834.472 671.169 833.758 671.632 832.75 671.632ZM833.17 670.035C834.304 670.035 834.892 669.195 834.892 667.879C834.892 666.507 834.444 665.583 833.226 665.583C832.176 665.583 831.644 666.508 831.644 667.837C831.644 669.223 832.19 670.035 833.17 670.035Z" fill="#1A1A1A"/>
<path d="M837.992 671.421V664.24H839.896V671.421H837.992ZM837.992 663.12V661.411H839.896V663.12H837.992Z" fill="#1A1A1A"/>
<path d="M842.985 664.24V665.219H843.027C843.517 664.449 844.175 664.043 845.155 664.043C846.639 664.043 847.633 665.164 847.633 666.732V671.421H845.729V667.012C845.729 666.242 845.281 665.695 844.483 665.695C843.643 665.695 843.027 666.367 843.027 667.348V671.421H841.123V664.24H842.985Z" fill="#1A1A1A"/>
<path d="M851.97 673.871C850.01 673.871 848.806 673.031 848.61 671.632H850.5C850.654 672.079 851.06 672.43 851.942 672.43C853.02 672.43 853.538 671.911 853.538 670.931V670.147H853.496C853.076 670.624 852.53 670.987 851.62 670.987C850.024 670.987 848.456 669.728 848.456 667.557C848.456 665.415 849.744 664.043 851.564 664.043C852.46 664.043 853.118 664.393 853.552 664.995H853.58V664.24H855.414V670.875C855.414 671.883 855.092 672.569 854.56 673.059C853.958 673.619 853.034 673.871 851.97 673.871ZM851.942 669.461C853.146 669.461 853.636 668.579 853.636 667.516C853.636 666.466 853.076 665.569 851.928 665.569C850.962 665.569 850.318 666.325 850.318 667.529C850.318 668.747 850.962 669.461 851.942 669.461Z" fill="#1A1A1A"/>
<path d="M744.595 789.646C741.879 789.646 740.339 788.442 740.269 786.328H742.257C742.397 787.531 743.083 788.008 744.511 788.008C745.547 788.008 746.457 787.643 746.457 786.719C746.457 785.74 745.505 785.543 743.979 785.193C742.187 784.787 740.549 784.311 740.549 782.225C740.549 780.251 742.159 779.229 744.385 779.229C746.639 779.229 748.095 780.336 748.249 782.352H746.303C746.191 781.344 745.407 780.839 744.371 780.839C743.279 780.839 742.565 781.302 742.565 782.016C742.565 782.828 743.265 783.065 744.749 783.388C746.807 783.836 748.487 784.326 748.487 786.482C748.487 788.512 746.849 789.646 744.595 789.646Z" fill="#1A1A1A"/>
<path d="M749.057 783.5V782.24H750.051V780H751.913V782.24H753.145V783.5H751.913V787.307C751.913 787.839 752.207 788.021 752.627 788.021C752.865 788.021 753.187 788.008 753.187 788.008V789.407C753.187 789.407 752.753 789.435 751.997 789.435C751.073 789.435 750.051 789.071 750.051 787.714V783.5H749.057Z" fill="#1A1A1A"/>
<path d="M760.496 789.422H758.662V788.581H758.62C758.13 789.24 757.57 789.617 756.562 789.617C754.966 789.617 754.07 788.595 754.07 787.027V782.24H755.96V786.706C755.96 787.546 756.338 788.008 757.15 788.008C758.046 788.008 758.592 787.336 758.592 786.383V782.24H760.496V789.422Z" fill="#1A1A1A"/>
<path d="M764.415 789.631C762.609 789.631 761.377 788.161 761.377 785.837C761.377 783.597 762.651 782.044 764.443 782.044C765.451 782.044 766.081 782.505 766.473 783.107H766.515V779.411H768.419V789.422H766.585V788.484H766.557C766.137 789.169 765.423 789.631 764.415 789.631ZM764.835 788.036C765.969 788.036 766.557 787.195 766.557 785.88C766.557 784.508 766.109 783.583 764.891 783.583C763.841 783.583 763.309 784.507 763.309 785.837C763.309 787.223 763.855 788.036 764.835 788.036Z" fill="#1A1A1A"/>
<path d="M773.031 789.631C770.651 789.631 769.307 787.966 769.307 785.823C769.307 783.695 770.749 782.044 772.849 782.044C775.159 782.044 776.391 783.807 776.391 786.37H771.183C771.323 787.476 771.939 788.161 773.017 788.161C773.759 788.161 774.193 787.826 774.403 787.279H776.279C776.013 788.553 774.879 789.631 773.031 789.631ZM772.877 783.513C771.869 783.513 771.379 784.115 771.211 785.053H774.403C774.347 784.143 773.745 783.513 772.877 783.513Z" fill="#1A1A1A"/>
<path d="M779.134 782.24V783.219H779.176C779.666 782.449 780.324 782.044 781.304 782.044C782.788 782.044 783.782 783.164 783.782 784.732V789.422H781.878V785.011C781.878 784.241 781.43 783.695 780.632 783.695C779.792 783.695 779.176 784.367 779.176 785.347V789.422H777.272V782.24H779.134Z" fill="#1A1A1A"/>
<path d="M784.399 783.5V782.24H785.393V780H787.255V782.24H788.487V783.5H787.255V787.307C787.255 787.839 787.549 788.021 787.969 788.021C788.207 788.021 788.529 788.008 788.529 788.008V789.407C788.529 789.407 788.095 789.435 787.339 789.435C786.415 789.435 785.393 789.071 785.393 787.714V783.5H784.399Z" fill="#1A1A1A"/>
<path d="M791.973 789.422V779.411H794.003V783.331H797.937V779.411H799.967V789.422H797.937V785.011H794.003V789.422H791.973Z" fill="#1A1A1A"/>
<path d="M805.87 789.422C805.758 789.281 805.688 788.945 805.646 788.623H805.618C805.254 789.169 804.736 789.589 803.504 789.589C802.034 789.589 800.998 788.819 800.998 787.391C800.998 785.81 802.286 785.305 803.882 785.081C805.072 784.913 805.618 784.815 805.618 784.269C805.618 783.751 805.212 783.415 804.414 783.415C803.518 783.415 803.084 783.738 803.028 784.424H801.334C801.39 783.164 802.328 782.057 804.428 782.057C806.584 782.057 807.452 783.023 807.452 784.703V788.357C807.452 788.904 807.536 789.226 807.704 789.352V789.422H805.87ZM803.966 788.26C805.058 788.26 805.66 787.588 805.66 786.888V785.81C805.324 786.005 804.806 786.117 804.33 786.229C803.336 786.453 802.846 786.677 802.846 787.349C802.846 788.021 803.294 788.26 803.966 788.26Z" fill="#1A1A1A"/>
<path d="M808.691 789.422V779.411H810.595V789.422H808.691Z" fill="#1A1A1A"/>
<path d="M811.876 789.422V779.411H813.78V789.422H811.876Z" fill="#1A1A1A"/>
<path d="M128.331 518.263C125.615 518.263 124.075 517.059 124.005 514.945H125.993C126.133 516.149 126.819 516.625 128.247 516.625C129.283 516.625 130.193 516.261 130.193 515.337C130.193 514.357 129.241 514.161 127.715 513.811C125.923 513.405 124.285 512.929 124.285 510.843C124.285 508.869 125.895 507.847 128.121 507.847C130.375 507.847 131.831 508.953 131.985 510.969H130.039C129.927 509.961 129.143 509.457 128.107 509.457C127.015 509.457 126.301 509.919 126.301 510.633C126.301 511.445 127.001 511.683 128.485 512.005C130.543 512.453 132.223 512.943 132.223 515.099C132.223 517.129 130.585 518.263 128.331 518.263Z" fill="#1A1A1A"/>
<path d="M133.435 518.039V508.029H135.493L138.825 513.615C139.147 514.161 139.525 515.015 139.525 515.015H139.553C139.553 515.015 139.497 513.979 139.497 513.279V508.029H141.499V518.039H139.539L136.123 512.509C135.801 511.977 135.409 511.123 135.409 511.123H135.381C135.381 511.123 135.437 512.173 135.437 512.873V518.039H133.435Z" fill="#1A1A1A"/>
<path d="M146.897 518.207C144.307 518.207 142.949 516.989 142.949 514.819V508.029H144.979V514.819C144.979 515.855 145.497 516.583 146.855 516.583C148.143 516.583 148.745 515.827 148.745 514.791V508.029H150.775V514.819C150.775 516.961 149.459 518.207 146.897 518.207Z" fill="#1A1A1A"/>
<path d="M154.585 518.039V508.029H158.491C161.165 508.029 162.887 510.185 162.887 513.139C162.887 514.763 162.341 516.191 161.291 517.073C160.549 517.689 159.583 518.039 158.323 518.039H154.585ZM156.615 516.289H158.183C160.087 516.289 160.829 515.127 160.829 513.139C160.829 511.151 159.961 509.765 158.239 509.765H156.615V516.289Z" fill="#1A1A1A"/>
<path d="M167.212 518.249C164.832 518.249 163.488 516.583 163.488 514.441C163.488 512.313 164.93 510.661 167.03 510.661C169.34 510.661 170.572 512.425 170.572 514.987H165.364C165.504 516.093 166.12 516.779 167.198 516.779C167.94 516.779 168.374 516.443 168.584 515.897H170.46C170.194 517.171 169.06 518.249 167.212 518.249ZM167.058 512.131C166.05 512.131 165.56 512.733 165.392 513.671H168.584C168.528 512.761 167.926 512.131 167.058 512.131Z" fill="#1A1A1A"/>
<path d="M173.315 510.857V511.837H173.357C173.847 511.067 174.505 510.661 175.485 510.661C176.969 510.661 177.963 511.781 177.963 513.349V518.039H176.059V513.629C176.059 512.859 175.611 512.313 174.813 512.313C173.973 512.313 173.357 512.985 173.357 513.965V518.039H171.453V510.857H173.315Z" fill="#1A1A1A"/>
<path d="M178.58 512.117V510.857H179.574V508.617H181.436V510.857H182.668V512.117H181.436V515.925C181.436 516.457 181.73 516.639 182.15 516.639C182.388 516.639 182.71 516.625 182.71 516.625V518.025C182.71 518.025 182.276 518.053 181.52 518.053C180.596 518.053 179.574 517.689 179.574 516.331V512.117H178.58Z" fill="#1A1A1A"/>
<path d="M188.239 518.039C188.127 517.899 188.057 517.563 188.015 517.241H187.987C187.623 517.787 187.105 518.207 185.873 518.207C184.403 518.207 183.367 517.437 183.367 516.009C183.367 514.427 184.655 513.923 186.251 513.699C187.441 513.531 187.987 513.433 187.987 512.887C187.987 512.369 187.581 512.033 186.783 512.033C185.887 512.033 185.453 512.355 185.397 513.041H183.703C183.759 511.781 184.697 510.675 186.797 510.675C188.953 510.675 189.821 511.641 189.821 513.321V516.975C189.821 517.521 189.905 517.843 190.073 517.969V518.039H188.239ZM186.335 516.877C187.427 516.877 188.029 516.205 188.029 515.505V514.427C187.693 514.623 187.175 514.735 186.699 514.847C185.705 515.071 185.215 515.295 185.215 515.967C185.215 516.639 185.663 516.877 186.335 516.877Z" fill="#1A1A1A"/>
<path d="M191.059 518.039V508.029H192.963V518.039H191.059Z" fill="#1A1A1A"/>
<path d="M124.453 534.039V524.029H126.483V527.949H130.417V524.029H132.447V534.039H130.417V529.629H126.483V534.039H124.453Z" fill="#1A1A1A"/>
<path d="M137.23 534.249C135.004 534.249 133.478 532.597 133.478 530.455C133.478 528.313 135.004 526.661 137.23 526.661C139.456 526.661 140.982 528.313 140.982 530.455C140.982 532.597 139.456 534.249 137.23 534.249ZM137.23 532.793C138.392 532.793 139.05 531.855 139.05 530.455C139.05 529.055 138.392 528.103 137.23 528.103C136.054 528.103 135.41 529.055 135.41 530.455C135.41 531.855 136.054 532.793 137.23 532.793Z" fill="#1A1A1A"/>
<path d="M144.779 534.249C142.693 534.249 141.531 533.241 141.419 531.715H143.183C143.309 532.541 143.897 532.905 144.751 532.905C145.591 532.905 146.067 532.583 146.067 532.079C146.067 531.393 145.157 531.323 144.177 531.127C142.889 530.875 141.629 530.525 141.629 528.957C141.629 527.403 142.917 526.661 144.555 526.661C146.445 526.661 147.495 527.599 147.635 529.041H145.913C145.829 528.271 145.339 527.991 144.527 527.991C143.785 527.991 143.295 528.271 143.295 528.789C143.295 529.405 144.247 529.461 145.269 529.671C146.473 529.923 147.803 530.259 147.803 531.939C147.803 533.381 146.571 534.249 144.779 534.249Z" fill="#1A1A1A"/>
<path d="M148.662 536.391V526.857H150.496V527.753H150.538C151 527.123 151.672 526.661 152.652 526.661C154.556 526.661 155.774 528.215 155.774 530.455C155.774 532.779 154.514 534.249 152.666 534.249C151.658 534.249 151 533.843 150.594 533.227H150.566V536.391H148.662ZM152.26 532.667C153.226 532.667 153.842 531.869 153.842 530.511C153.842 529.153 153.366 528.201 152.19 528.201C151 528.201 150.524 529.223 150.524 530.511C150.524 531.813 151.126 532.667 152.26 532.667Z" fill="#1A1A1A"/>
<path d="M156.66 534.039V526.857H158.564V534.039H156.66ZM156.66 525.737V524.029H158.564V525.737H156.66Z" fill="#1A1A1A"/>
<path d="M159.371 528.117V526.857H160.365V524.617H162.227V526.857H163.459V528.117H162.227V531.925C162.227 532.457 162.521 532.639 162.941 532.639C163.179 532.639 163.501 532.625 163.501 532.625V534.025C163.501 534.025 163.067 534.053 162.311 534.053C161.387 534.053 160.365 533.689 160.365 532.331V528.117H159.371Z" fill="#1A1A1A"/>
<path d="M169.03 534.039C168.918 533.899 168.848 533.563 168.806 533.241H168.778C168.414 533.787 167.896 534.207 166.664 534.207C165.194 534.207 164.158 533.437 164.158 532.009C164.158 530.427 165.446 529.923 167.042 529.699C168.232 529.531 168.778 529.433 168.778 528.887C168.778 528.369 168.372 528.033 167.574 528.033C166.678 528.033 166.244 528.355 166.188 529.041H164.494C164.55 527.781 165.488 526.675 167.588 526.675C169.744 526.675 170.612 527.641 170.612 529.321V532.975C170.612 533.521 170.696 533.843 170.864 533.969V534.039H169.03ZM167.126 532.877C168.218 532.877 168.82 532.205 168.82 531.505V530.427C168.484 530.623 167.966 530.735 167.49 530.847C166.496 531.071 166.006 531.295 166.006 531.967C166.006 532.639 166.454 532.877 167.126 532.877Z" fill="#1A1A1A"/>
<path d="M171.85 534.039V524.029H173.754V534.039H171.85Z" fill="#1A1A1A"/>
<path d="M125.321 762.422L125.251 761.078H125.223C124.537 762.226 123.599 762.631 122.409 762.631C120.897 762.631 119.721 762.085 118.895 761.175C118.069 760.251 117.593 758.964 117.593 757.451C117.593 755.785 118.181 754.329 119.231 753.363C120.043 752.621 121.107 752.216 122.451 752.216C124.971 752.216 126.413 753.601 126.735 755.561H124.747C124.523 754.595 123.781 753.896 122.493 753.896C120.603 753.896 119.665 755.464 119.665 757.451C119.665 759.495 120.743 760.993 122.465 760.993C124.019 760.993 125.041 759.831 125.041 758.725V758.669H122.633V757.102H126.847V762.422H125.321Z" fill="#1A1A1A"/>
<path d="M128.14 762.422V752.411H130.044V762.422H128.14Z" fill="#1A1A1A"/>
<path d="M134.7 762.631C132.474 762.631 130.948 760.979 130.948 758.837C130.948 756.695 132.474 755.044 134.7 755.044C136.926 755.044 138.452 756.695 138.452 758.837C138.452 760.979 136.926 762.631 134.7 762.631ZM134.7 761.175C135.862 761.175 136.52 760.237 136.52 758.837C136.52 757.437 135.862 756.485 134.7 756.485C133.524 756.485 132.88 757.437 132.88 758.837C132.88 760.237 133.524 761.175 134.7 761.175Z" fill="#1A1A1A"/>
<path d="M143.341 762.631C142.333 762.631 141.619 762.198 141.199 761.526H141.171V762.422H139.337V752.411H141.241V756.107H141.283C141.675 755.505 142.291 755.044 143.285 755.044C145.091 755.044 146.379 756.597 146.379 758.837C146.379 761.161 145.147 762.631 143.341 762.631ZM142.921 761.036C143.901 761.036 144.447 760.223 144.447 758.837C144.447 757.507 143.915 756.583 142.851 756.583C141.647 756.583 141.199 757.549 141.199 758.88C141.199 760.195 141.857 761.036 142.921 761.036Z" fill="#1A1A1A"/>
<path d="M151.788 762.422C151.676 762.281 151.606 761.945 151.564 761.623H151.536C151.172 762.169 150.654 762.589 149.422 762.589C147.952 762.589 146.916 761.819 146.916 760.391C146.916 758.81 148.204 758.305 149.8 758.081C150.99 757.913 151.536 757.815 151.536 757.269C151.536 756.751 151.13 756.415 150.332 756.415C149.436 756.415 149.002 756.738 148.946 757.424H147.252C147.308 756.164 148.246 755.057 150.346 755.057C152.502 755.057 153.37 756.023 153.37 757.703V761.357C153.37 761.904 153.454 762.226 153.622 762.352V762.422H151.788ZM149.884 761.26C150.976 761.26 151.578 760.588 151.578 759.888V758.81C151.242 759.005 150.724 759.117 150.248 759.229C149.254 759.453 148.764 759.677 148.764 760.349C148.764 761.021 149.212 761.26 149.884 761.26Z" fill="#1A1A1A"/>
<path d="M154.609 762.422V752.411H156.513V762.422H154.609Z" fill="#1A1A1A"/>
<path d="M121.382 778.631C118.568 778.631 116.566 776.461 116.566 773.451C116.566 770.483 118.414 768.216 121.368 768.216C123.832 768.216 125.288 769.685 125.498 771.589H123.482C123.3 770.581 122.544 769.923 121.368 769.923C119.52 769.923 118.638 771.464 118.638 773.451C118.638 775.495 119.702 776.966 121.382 776.966C122.572 776.966 123.412 776.251 123.538 775.201H125.526C125.47 776.083 125.092 776.938 124.42 777.568C123.734 778.211 122.768 778.631 121.382 778.631Z" fill="#1A1A1A"/>
<path d="M129.859 778.631C127.479 778.631 126.135 776.966 126.135 774.823C126.135 772.695 127.577 771.044 129.677 771.044C131.987 771.044 133.219 772.807 133.219 775.37H128.011C128.151 776.476 128.767 777.161 129.845 777.161C130.587 777.161 131.021 776.826 131.231 776.279H133.107C132.841 777.553 131.707 778.631 129.859 778.631ZM129.705 772.513C128.697 772.513 128.207 773.115 128.039 774.053H131.231C131.175 773.143 130.573 772.513 129.705 772.513Z" fill="#1A1A1A"/>
<path d="M135.962 771.24V772.219H136.004C136.494 771.449 137.152 771.044 138.132 771.044C139.616 771.044 140.61 772.164 140.61 773.732V778.422H138.706V774.011C138.706 773.241 138.258 772.695 137.46 772.695C136.62 772.695 136.004 773.367 136.004 774.347V778.422H134.1V771.24H135.962Z" fill="#1A1A1A"/>
<path d="M141.227 772.5V771.24H142.221V769H144.083V771.24H145.315V772.5H144.083V776.307C144.083 776.839 144.377 777.021 144.797 777.021C145.035 777.021 145.357 777.008 145.357 777.008V778.407C145.357 778.407 144.923 778.435 144.167 778.435C143.243 778.435 142.221 778.071 142.221 776.714V772.5H141.227Z" fill="#1A1A1A"/>
<path d="M149.601 778.631C147.221 778.631 145.877 776.966 145.877 774.823C145.877 772.695 147.319 771.044 149.419 771.044C151.729 771.044 152.961 772.807 152.961 775.37H147.753C147.893 776.476 148.509 777.161 149.587 777.161C150.329 777.161 150.763 776.826 150.973 776.279H152.849C152.583 777.553 151.449 778.631 149.601 778.631ZM149.447 772.513C148.439 772.513 147.949 773.115 147.781 774.053H150.973C150.917 773.143 150.315 772.513 149.447 772.513Z" fill="#1A1A1A"/>
<path d="M155.676 771.24V772.388H155.718C156.153 771.576 156.643 771.156 157.483 771.156C157.693 771.156 157.819 771.169 157.931 771.211V772.878H157.889C156.643 772.752 155.747 773.409 155.747 774.922V778.422H153.842V771.24H155.676Z" fill="#1A1A1A"/>
<path d="M511.331 519.263C508.615 519.263 507.075 518.059 507.005 515.945H508.993C509.133 517.149 509.819 517.625 511.247 517.625C512.283 517.625 513.193 517.261 513.193 516.337C513.193 515.357 512.241 515.161 510.715 514.811C508.923 514.405 507.285 513.929 507.285 511.843C507.285 509.869 508.895 508.847 511.121 508.847C513.375 508.847 514.831 509.953 514.985 511.969H513.039C512.927 510.961 512.143 510.457 511.107 510.457C510.015 510.457 509.301 510.919 509.301 511.633C509.301 512.445 510.001 512.683 511.485 513.005C513.543 513.453 515.223 513.943 515.223 516.099C515.223 518.129 513.585 519.263 511.331 519.263Z" fill="#1A1A1A"/>
<path d="M516.435 519.039V509.029H518.493L521.825 514.615C522.147 515.161 522.525 516.015 522.525 516.015H522.553C522.553 516.015 522.497 514.979 522.497 514.279V509.029H524.499V519.039H522.539L519.123 513.509C518.801 512.977 518.409 512.123 518.409 512.123H518.381C518.381 512.123 518.437 513.173 518.437 513.873V519.039H516.435Z" fill="#1A1A1A"/>
<path d="M529.897 519.207C527.307 519.207 525.949 517.989 525.949 515.819V509.029H527.979V515.819C527.979 516.855 528.497 517.583 529.855 517.583C531.143 517.583 531.745 516.827 531.745 515.791V509.029H533.775V515.819C533.775 517.961 532.459 519.207 529.897 519.207Z" fill="#1A1A1A"/>
<path d="M537.585 519.039V509.029H539.615V512.949H543.549V509.029H545.579V519.039H543.549V514.629H539.615V519.039H537.585Z" fill="#1A1A1A"/>
<path d="M550.363 519.249C548.137 519.249 546.611 517.597 546.611 515.455C546.611 513.313 548.137 511.661 550.363 511.661C552.589 511.661 554.115 513.313 554.115 515.455C554.115 517.597 552.589 519.249 550.363 519.249ZM550.363 517.793C551.525 517.793 552.183 516.855 552.183 515.455C552.183 514.055 551.525 513.103 550.363 513.103C549.187 513.103 548.543 514.055 548.543 515.455C548.543 516.855 549.187 517.793 550.363 517.793Z" fill="#1A1A1A"/>
<path d="M557.912 519.249C555.826 519.249 554.664 518.241 554.552 516.715H556.316C556.442 517.541 557.03 517.905 557.884 517.905C558.724 517.905 559.2 517.583 559.2 517.079C559.2 516.393 558.29 516.323 557.31 516.127C556.022 515.875 554.762 515.525 554.762 513.957C554.762 512.403 556.05 511.661 557.688 511.661C559.578 511.661 560.628 512.599 560.768 514.041H559.046C558.962 513.271 558.472 512.991 557.66 512.991C556.918 512.991 556.428 513.271 556.428 513.789C556.428 514.405 557.38 514.461 558.402 514.671C559.606 514.923 560.936 515.259 560.936 516.939C560.936 518.381 559.704 519.249 557.912 519.249Z" fill="#1A1A1A"/>
<path d="M561.795 521.391V511.857H563.629V512.753H563.671C564.133 512.123 564.805 511.661 565.785 511.661C567.689 511.661 568.907 513.215 568.907 515.455C568.907 517.779 567.647 519.249 565.799 519.249C564.791 519.249 564.133 518.843 563.727 518.227H563.699V521.391H561.795ZM565.393 517.667C566.359 517.667 566.975 516.869 566.975 515.511C566.975 514.153 566.499 513.201 565.323 513.201C564.133 513.201 563.657 514.223 563.657 515.511C563.657 516.813 564.259 517.667 565.393 517.667Z" fill="#1A1A1A"/>
<path d="M569.793 519.039V511.857H571.697V519.039H569.793ZM569.793 510.737V509.029H571.697V510.737H569.793Z" fill="#1A1A1A"/>
<path d="M572.504 513.117V511.857H573.498V509.617H575.36V511.857H576.592V513.117H575.36V516.925C575.36 517.457 575.654 517.639 576.074 517.639C576.312 517.639 576.634 517.625 576.634 517.625V519.025C576.634 519.025 576.2 519.053 575.444 519.053C574.52 519.053 573.498 518.689 573.498 517.331V513.117H572.504Z" fill="#1A1A1A"/>
<path d="M582.162 519.039C582.05 518.899 581.98 518.563 581.938 518.241H581.91C581.546 518.787 581.028 519.207 579.796 519.207C578.326 519.207 577.29 518.437 577.29 517.009C577.29 515.427 578.578 514.923 580.174 514.699C581.364 514.531 581.91 514.433 581.91 513.887C581.91 513.369 581.504 513.033 580.706 513.033C579.81 513.033 579.376 513.355 579.32 514.041H577.626C577.682 512.781 578.62 511.675 580.72 511.675C582.876 511.675 583.744 512.641 583.744 514.321V517.975C583.744 518.521 583.828 518.843 583.996 518.969V519.039H582.162ZM580.258 517.877C581.35 517.877 581.952 517.205 581.952 516.505V515.427C581.616 515.623 581.098 515.735 580.622 515.847C579.628 516.071 579.138 516.295 579.138 516.967C579.138 517.639 579.586 517.877 580.258 517.877Z" fill="#1A1A1A"/>
<path d="M584.983 519.039V509.029H586.887V519.039H584.983Z" fill="#1A1A1A"/>
</g>
<defs>
<clipPath id="clip0_1038_604">
<rect width="738.815" height="676.41" fill="white" transform="translate(102 167)"/>
</clipPath>
</defs>
</svg>
