<svg width="332" height="246" viewBox="0 0 332 246" fill="none" xmlns="http://www.w3.org/2000/svg">
<mask id="mask0_814_2801" style="mask-type:alpha" maskUnits="userSpaceOnUse" x="0" y="0" width="332" height="246">
<rect width="332" height="246" fill="#D9D9D9"/>
</mask>
<g mask="url(#mask0_814_2801)">
<path d="M256.59 14.8619L247.245 11.9702L246.781 17.4974L261.894 18.7657L256.59 14.8619Z" fill="white"/>
<path d="M229.66 10.8981L229.172 16.7271L236.146 17.3114L236.634 11.4825L229.66 10.8981Z" fill="white"/>
<path d="M257.306 86.5864H247.297V110.623H257.306V86.5864Z" fill="#68C4F0"/>
<path d="M219.704 65.2036L211.359 66.6675L214.903 86.8648L223.247 85.4009L219.704 65.2036Z" fill="white"/>
<path d="M221.66 36.6383L188.891 40.1577L190.225 52.584L222.995 49.0646L221.66 36.6383Z" fill="white"/>
<path d="M213.134 10.8543L188.281 13.5234L189.616 25.9497L214.468 23.2806L213.134 10.8543Z" fill="white"/>
<path d="M217.046 24.6389L192.852 27.2373L193.953 37.4896L218.147 34.8911L217.046 24.6389Z" fill="white"/>
<path d="M233.965 11.7306L232.984 23.4365L246.366 24.5579L247.347 12.852L233.965 11.7306Z" fill="white"/>
<path d="M244.179 14.8947L243.727 20.2939L257.108 21.4153L257.561 16.0161L244.179 14.8947Z" fill="white"/>
<path d="M247.808 17.5826L247.164 25.272L261.243 26.4518L261.888 18.7624L247.808 17.5826Z" fill="white"/>
<path d="M216.408 63.2645L213.07 63.8501L216.613 84.0474L219.951 83.4618L216.408 63.2645Z" fill="white"/>
<path d="M239.903 31.0014L239.508 37.4043L264.843 38.9672L265.238 32.5643L239.903 31.0014Z" fill="white"/>
<path d="M265.603 25.607L264.727 39.8179L271.241 40.2197L272.117 26.0089L265.603 25.607Z" fill="white"/>
<path d="M252.122 36.8004L251.836 41.436L256.472 41.722L256.758 37.0863L252.122 36.8004Z" fill="white"/>
<path d="M254.833 30.4522L254.547 35.0879L257.248 35.2545L257.534 30.6189L254.833 30.4522Z" fill="white"/>
<path d="M243.958 34.5679L243.672 39.2036L247.396 39.4334L247.682 34.7977L243.958 34.5679Z" fill="white"/>
<path d="M269.956 32.1948L269.648 37.2002L276.165 37.6011L276.473 32.5957L269.956 32.1948Z" fill="white"/>
<path d="M266.388 27.1973L266.312 28.4277L272.827 28.8262L272.902 27.5957L266.388 27.1973Z" fill="white"/>
<path d="M235.176 60.8804H228.102V71.3362H235.176V60.8804Z" fill="white"/>
<path d="M234.323 62.7754H227.477V67.2449H234.323V62.7754Z" fill="white"/>
<path d="M253.898 80.1636H251.539V88.8767H253.898V80.1636Z" fill="#68C4F0"/>
<path d="M265.829 63.7241H258.055V80.1663H265.829V63.7241Z" fill="white"/>
<path d="M264.843 64.0642L259.719 78.5354V62.0933H263.402L264.843 64.0642Z" fill="white"/>
<path d="M232.757 69.5381H231.25V78.2512H232.757V69.5381Z" fill="white"/>
<path d="M289.844 198.12H280.078V212.931H289.844V198.12Z" fill="#68C4F0"/>
<path d="M247.299 162.658H215.211V173.568H247.299V162.658Z" fill="#68C4F0"/>
<path d="M257.223 143.975L248.336 146.992L256.371 170.663L265.259 167.646L257.223 143.975Z" fill="#68C4F0"/>
<path d="M277.376 185.531H259.219V194.452H277.376V185.531Z" fill="#68C4F0"/>
<path d="M289.846 205.192H259.906V214.113H289.846V205.192Z" fill="#68C4F0"/>
<path d="M265.159 171.354H258.625V191.981H265.159V171.354Z" fill="#68C4F0"/>
<path d="M259.033 161.839L239.5 168.469L240.932 172.687L260.465 166.057L259.033 161.839Z" fill="#68C4F0"/>
<path d="M225.81 204.458H228.837V206.14H233.349V204.458H236.449V200.95H238.235V197.029H224.461V200.95H225.81V204.458Z" fill="#68C4F0"/>
<path d="M212.352 178.04V186.487H212.864V199.974H213.394V203.687H225.585V201.179H224.235V199.292H217.541V186.487H244.952V199.292H238.466V201.179H236.68V203.687H248.929V199.974H249.629V186.487H249.972V178.04H212.352Z" fill="#68C4F0"/>
<path d="M246.125 115.019V130.533L247.545 142.807H258.06V130.533H261.895V115.019H246.125Z" fill="#68C4F0"/>
<path d="M202.433 155.127L198.682 158.764L195.727 164.703V170.783L198.027 176.409L201.807 180.528L209.904 175.245C209.904 175.245 211.892 173.682 211.892 172.033V164.134C211.892 164.134 212.176 162.43 210.216 161.009C208.255 159.589 202.431 155.127 202.431 155.127" fill="#68C4F0"/>
<path d="M178.801 22.5981H162.32V48.8518H178.801V22.5981Z" fill="white"/>
<path d="M163.727 30.1016H156.523V51.6955H163.727V30.1016Z" fill="white"/>
<path d="M154.787 26.5376H139.367V53.4355H154.787V26.5376Z" fill="white"/>
<path d="M151.882 38.1499H127.711V53.4379H151.882V38.1499Z" fill="white"/>
<path d="M176.303 18.4077H167.438V40.0016H176.303V18.4077Z" fill="white"/>
<path d="M182.095 28.4604H174.82V39.9994H182.095V28.4604Z" fill="white"/>
<path d="M187.671 36.9961H183.125V51.6931H187.671V36.9961Z" fill="white"/>
<path d="M205.322 107.366H207.909V98.6146H205.322V97.9906H189.867V108.218H205.322V107.366ZM208.845 120.236H207.907V117.368H207.027V113.588H192.114L186.934 110.597L187.837 109.108V96.9379L186.884 95.1928L206.222 84.0267L201.469 75.793L183.198 86.3426L166.451 76.6732L161.698 84.9069L174.34 92.2047L173.724 93.8205H168.762V96.7933H168.25V96.1668H165.485V110.11H168.004V109.448H168.874V112.442H173.516L174.781 114.362L161.977 121.756L165.036 127.055H162.502L161.989 128.077H160.227V135.124H162.7V136.402H165.853L176.336 141.998V142.802L181.793 145.975H188.043V148.989H208.729V140.184H205.69V137.594H209.355V126.471H208.843V120.234L208.845 120.236ZM211.603 106.458H208.845V114.045H211.603V106.458Z" fill="white"/>
<path d="M91.5735 30.8652H77.4219V48.8521H91.5735V30.8652Z" fill="#68C4F0"/>
<path d="M47.6049 63.7234L37.5625 66.1826L40.0217 76.225L50.0641 73.7658L47.6049 63.7234Z" fill="white"/>
<path d="M50.4026 69.4574L40.1016 71.98L45.3452 93.3927L55.6463 90.8702L50.4026 69.4574Z" fill="white"/>
<path d="M55.3317 71.3442L44.5625 73.9814L48.7961 91.2698L59.5653 88.6326L55.3317 71.3442Z" fill="white"/>
<path d="M63.02 93.659L48.2422 97.2778L50.5747 106.803L65.3525 103.184L63.02 93.659Z" fill="white"/>
<path d="M103.054 25.1934H92.4844V43.5481H103.054V25.1934Z" fill="#68C4F0"/>
<path d="M103.621 42.8657H93.7891V53.0958H103.621V42.8657Z" fill="#68C4F0"/>
<path d="M95.4924 32.0698H90.3203V43.4363H95.4924V32.0698Z" fill="#68C4F0"/>
<path d="M104.812 36.7295H102.141V40.8971H104.812V36.7295Z" fill="#68C4F0"/>
<path d="M124.982 40.4331H106.508V51.5332H124.982V40.4331Z" fill="#68C4F0"/>
<path d="M119.884 37.9321H102.344V39.6367H119.884V37.9321Z" fill="#68C4F0"/>
<path d="M114.991 39.4492H112.227V41.4937H114.991V39.4492Z" fill="#68C4F0"/>
<path d="M116.732 27.4002L107.375 28.3083V23.7627H116.732V27.4002Z" fill="#68C4F0"/>
<path d="M132.832 23.4309L120.375 24.1885L121.2 37.7468L133.656 36.9893L132.832 23.4309Z" fill="#68C4F0"/>
<path d="M128.649 91.2842H121.945V112.794H128.649V91.2842Z" fill="white"/>
<path d="M128.649 114.887H121.945V126.474H128.649V114.887Z" fill="white"/>
<path d="M128.196 111.201H125.297V116.657H128.196V111.201Z" fill="white"/>
<path d="M124.893 140.188L119.914 142.26L126.176 157.312L131.155 155.24L124.893 140.188Z" fill="white"/>
<path d="M100.623 143.98L96.4922 147.447L115.923 170.596L120.054 167.129L100.623 143.98Z" fill="white"/>
<path d="M159.401 154.174L152.414 160.038L190.853 205.831L197.839 199.967L159.401 154.174Z" fill="white"/>
<path d="M186.72 181.327L177.078 189.42L184.343 198.076L193.986 189.982L186.72 181.327Z" fill="white"/>
<path d="M170.198 149.022L153.908 162.694L144.008 150.899C144.008 150.899 146.755 148.086 152.211 144.311C157.667 140.537 165.338 144.709 165.338 144.709L170.201 149.022H170.198Z" fill="white"/>
<path d="M165.002 149.476L152.414 160.042L175.932 188.06L188.52 177.494L165.002 149.476Z" fill="white"/>
<path d="M166.239 148.441L152.414 160.046L174.42 186.263L188.246 174.658L166.239 148.441Z" fill="white"/>
<path d="M91.3493 150.825L87.2188 154.292L99.2771 168.657L103.408 165.19L91.3493 150.825Z" fill="white"/>
<path d="M99.3012 169.762L95.6875 172.795L104.637 183.457L108.251 180.424L99.3012 169.762Z" fill="white"/>
<path d="M97.2623 167.824L95.1016 169.637L102.546 178.51L104.707 176.696L97.2623 167.824Z" fill="white"/>
<path d="M111.859 170.37L101.172 179.341L104.637 183.47L115.325 174.499L111.859 170.37Z" fill="white"/>
<path d="M123.522 157.269L112.516 166.508L115.931 170.576L126.937 161.338L123.522 157.269Z" fill="white"/>
<path d="M135.456 147.583L124.086 152.314L126.17 157.323L137.54 152.593L135.456 147.583Z" fill="white"/>
<path d="M95.4339 138.138V118.02H92.4788H78.3196H75.3645V135.03H72.0694H68.5436V116.658H60.4773V137.683H56.7916V143.441H64.5104V161.474H59.6808V159.828H47.4062V160.34V166.532V169.771H55.9875V168.551H62.1235V170.367H69.0585V161.931H72.0694V148.291H83.5855V141.433H92.4788V138.138H95.4339Z" fill="white"/>
<path d="M205.322 107.366H207.909V98.6146H205.322V97.9906H189.867V108.218H205.322V107.366ZM208.845 120.236H207.907V117.368H207.027V113.588H192.114L186.934 110.597L187.837 109.108V96.9379L186.884 95.1928L206.222 84.0267L201.469 75.793L183.198 86.3426L166.451 76.6732L161.698 84.9069L174.34 92.2047L173.724 93.8205H168.762V96.7933H168.25V96.1668H165.485V110.11H168.004V109.448H168.874V112.442H173.516L174.781 114.362L161.977 121.756L165.036 127.055H162.502L161.989 128.077H160.227V135.124H162.7V136.402H165.853L176.336 141.998V142.802L181.793 145.975H188.043V148.989H208.729V140.184H205.69V137.594H209.355V126.471H208.843V120.234L208.845 120.236ZM211.603 106.458H208.845V114.045H211.603V106.458Z" stroke="#68C4F0" stroke-width="0.7" stroke-miterlimit="10"/>
<path d="M95.4339 138.138V118.02H92.4788H78.3196H75.3645V135.03H72.0694H68.5436V116.658H60.4773V137.683H56.7916V143.441H64.5104V161.474H59.6808V159.828H47.4062V160.34V166.532V169.771H55.9875V168.551H62.1235V170.367H69.0585V161.931H72.0694V148.291H83.5855V141.433H92.4788V138.138H95.4339Z" stroke="#68C4F0" stroke-width="0.7" stroke-miterlimit="10"/>
<path d="M95.854 211.462H78.3516V221.52H95.854V211.462Z" fill="white"/>
<path d="M184.615 156.342L216.964 149.088L218.042 147.289L217.436 137.602L215.095 135.431L212.043 88.8846L206.922 54.4784M152.748 58.2604L155.244 88.5371L157.816 96.7937L157.126 137.896M85.0464 62.9455L91.3625 60.8452L192.156 56.604L223.031 52.1701L233.967 34.064C233.967 34.064 235.801 28.2679 231.121 25.7288C226.438 23.1896 223.298 21.9543 222.768 11.983C222.24 2.01425 222.012 0.0078125 222.012 0.0078125M80.8712 67.1258L92.5293 101.113L107.406 116.031L113.083 128.919C113.083 128.919 116.109 134.3 121.482 134.678C126.854 135.055 157.065 137.879 157.065 137.879C157.065 137.879 181.49 145.171 187.167 161.479C192.841 177.787 202.3 207.107 202.3 207.107V231.047M80.8712 67.1258L79.3417 61.4134M80.8712 67.1258L85.049 62.9455L79.3442 61.4134H79.3417M79.3417 61.4134L50.625 30.6091" stroke="#DCDDDD" stroke-miterlimit="10"/>
<path d="M199.512 212.931H190.977V219.729H199.512V212.931Z" fill="white"/>
<path d="M47.4966 201.1L49.9876 227.148L29.875 229.319L30.7045 239.917L44.5618 238.512V240.3L55.3499 239.342V235.704L58.5409 235.641L55.0303 200.141L52.6687 200.524L52.6053 199.502L47.4332 200.654L47.4966 201.1Z" fill="#68C4F0"/>
<path d="M22 188.794H68.3832" stroke="#231815" stroke-width="0.5" stroke-miterlimit="10" stroke-dasharray="1 1"/>
<path d="M68.3984 188.727V245.11" stroke="#231815" stroke-width="0.5" stroke-miterlimit="10" stroke-dasharray="1 1"/>
<path d="M256.849 68.873H249.148V77.5862H256.849V68.873Z" fill="#68C4F0"/>
<path d="M235.856 75.4863H228.781V90.0336H235.856V75.4863Z" fill="#68C4F0"/>
<path d="M256.023 75.4863H235.859V82.0967H256.023V75.4863Z" fill="#68C4F0"/>
<path d="M85.0772 12.1919C84.093 12.1919 83.5349 11.7556 83.5096 10.9896H84.23C84.2807 11.4259 84.5293 11.5984 85.0467 11.5984C85.4222 11.5984 85.7519 11.4665 85.7519 11.1316C85.7519 10.7765 85.4069 10.7055 84.854 10.5786C84.2046 10.4315 83.611 10.259 83.611 9.50314C83.611 8.78782 84.1945 8.41748 85.0011 8.41748C85.8179 8.41748 86.3455 8.81826 86.4013 9.5488H85.6961C85.6555 9.18353 85.3714 9.00089 84.996 9.00089C84.6003 9.00089 84.3416 9.16831 84.3416 9.42704C84.3416 9.72128 84.5952 9.80753 85.133 9.92421C85.8787 10.0866 86.4875 10.2641 86.4875 11.0454C86.4875 11.781 85.894 12.1919 85.0772 12.1919Z" fill="#1A1A1A"/>
<path d="M88.0785 12.1868C87.2566 12.1868 86.7442 11.5882 86.7442 10.812C86.7442 10.0358 87.2515 9.43719 88.043 9.43719C88.7177 9.43719 89.1337 9.82782 89.225 10.3909H88.5503C88.5046 10.1626 88.3271 9.99016 88.0734 9.99016C87.6574 9.99016 87.4443 10.3098 87.4443 10.812C87.4443 11.3041 87.6422 11.6339 88.0633 11.6339C88.3423 11.6339 88.5401 11.4867 88.5858 11.1925H89.2504C89.2047 11.7455 88.7735 12.1868 88.0785 12.1868Z" fill="#1A1A1A"/>
<path d="M90.2413 8.48343V9.84811H90.2565C90.4442 9.57416 90.6573 9.43719 91.0124 9.43719C91.5501 9.43719 91.9103 9.84304 91.9103 10.4112V12.1107H91.2204V10.5127C91.2204 10.2337 91.058 10.0358 90.7689 10.0358C90.4645 10.0358 90.2413 10.2793 90.2413 10.6345V12.1107H89.5513V8.48343H90.2413Z" fill="#1A1A1A"/>
<path d="M93.5684 12.1868C92.7618 12.1868 92.2088 11.5882 92.2088 10.812C92.2088 10.0358 92.7618 9.43719 93.5684 9.43719C94.375 9.43719 94.928 10.0358 94.928 10.812C94.928 11.5882 94.375 12.1868 93.5684 12.1868ZM93.5684 11.6592C93.9895 11.6592 94.2279 11.3193 94.2279 10.812C94.2279 10.3047 93.9895 9.95972 93.5684 9.95972C93.1422 9.95972 92.9089 10.3047 92.9089 10.812C92.9089 11.3193 93.1422 11.6592 93.5684 11.6592Z" fill="#1A1A1A"/>
<path d="M96.4815 12.1868C95.6749 12.1868 95.1219 11.5882 95.1219 10.812C95.1219 10.0358 95.6749 9.43719 96.4815 9.43719C97.2881 9.43719 97.8411 10.0358 97.8411 10.812C97.8411 11.5882 97.2881 12.1868 96.4815 12.1868ZM96.4815 11.6592C96.9026 11.6592 97.141 11.3193 97.141 10.812C97.141 10.3047 96.9026 9.95972 96.4815 9.95972C96.0554 9.95972 95.822 10.3047 95.822 10.812C95.822 11.3193 96.0554 11.6592 96.4815 11.6592Z" fill="#1A1A1A"/>
<path d="M98.172 12.1107V8.48343H98.8619V12.1107H98.172Z" fill="#1A1A1A"/>
<path d="M101.401 12.1868C100.594 12.1868 100.041 11.5882 100.041 10.812C100.041 10.0358 100.594 9.43719 101.401 9.43719C102.208 9.43719 102.761 10.0358 102.761 10.812C102.761 11.5882 102.208 12.1868 101.401 12.1868ZM101.401 11.6592C101.822 11.6592 102.061 11.3193 102.061 10.812C102.061 10.3047 101.822 9.95972 101.401 9.95972C100.975 9.95972 100.742 10.3047 100.742 10.812C100.742 11.3193 100.975 11.6592 101.401 11.6592Z" fill="#1A1A1A"/>
<path d="M102.88 9.98509V9.50821H103.235V9.27485C103.235 8.6407 103.727 8.41748 104.391 8.4885V9.02119C104.067 9.00597 103.925 9.04655 103.925 9.31543V9.50821H104.391V9.98509H103.925V12.1107H103.235V9.98509H102.88Z" fill="#1A1A1A"/>
<path d="M105.614 12.1107V8.48343H107.03C107.999 8.48343 108.623 9.2647 108.623 10.3351C108.623 10.9236 108.425 11.4411 108.044 11.7607C107.776 11.9839 107.425 12.1107 106.969 12.1107H105.614ZM106.35 11.4766H106.918C107.608 11.4766 107.877 11.0555 107.877 10.3351C107.877 9.61475 107.562 9.1125 106.938 9.1125H106.35V11.4766Z" fill="#1A1A1A"/>
<path d="M110.19 12.1868C109.327 12.1868 108.84 11.5831 108.84 10.8069C108.84 10.0358 109.363 9.43719 110.124 9.43719C110.961 9.43719 111.407 10.0764 111.407 11.0048H109.52C109.571 11.4056 109.794 11.6542 110.185 11.6542C110.454 11.6542 110.611 11.5324 110.687 11.3346H111.367C111.27 11.7962 110.859 12.1868 110.19 12.1868ZM110.134 9.96987C109.769 9.96987 109.591 10.188 109.53 10.5279H110.687C110.667 10.1982 110.448 9.96987 110.134 9.96987Z" fill="#1A1A1A"/>
<path d="M112.401 9.50821V9.86333H112.417C112.594 9.58431 112.833 9.43719 113.188 9.43719C113.725 9.43719 114.086 9.84304 114.086 10.4112V12.1107H113.396V10.5127C113.396 10.2337 113.233 10.0358 112.944 10.0358C112.64 10.0358 112.417 10.2793 112.417 10.6345V12.1107H111.727V9.50821H112.401Z" fill="#1A1A1A"/>
<path d="M114.309 9.9648V9.50821H114.669V8.6965H115.344V9.50821H115.791V9.9648H115.344V11.3447C115.344 11.5375 115.451 11.6034 115.603 11.6034C115.689 11.6034 115.806 11.5984 115.806 11.5984V12.1057C115.806 12.1057 115.648 12.1158 115.375 12.1158C115.04 12.1158 114.669 11.9839 114.669 11.4918V9.9648H114.309Z" fill="#1A1A1A"/>
<path d="M116.146 12.1107V9.50821H116.836V12.1107H116.146ZM116.146 9.10236V8.48343H116.836V9.10236H116.146Z" fill="#1A1A1A"/>
<path d="M118.336 12.1868C117.58 12.1868 117.159 11.8216 117.118 11.2686H117.757C117.803 11.5679 118.016 11.6998 118.325 11.6998C118.63 11.6998 118.802 11.5831 118.802 11.4005C118.802 11.1519 118.473 11.1266 118.117 11.0555C117.651 10.9642 117.194 10.8374 117.194 10.2692C117.194 9.70606 117.661 9.43719 118.254 9.43719C118.939 9.43719 119.32 9.77709 119.37 10.2996H118.746C118.716 10.0206 118.538 9.91914 118.244 9.91914C117.975 9.91914 117.798 10.0206 117.798 10.2083C117.798 10.4315 118.143 10.4518 118.513 10.5279C118.949 10.6192 119.431 10.741 119.431 11.3498C119.431 11.8723 118.985 12.1868 118.336 12.1868Z" fill="#1A1A1A"/>
<path d="M119.541 9.9648V9.50821H119.901V8.6965H120.576V9.50821H121.022V9.9648H120.576V11.3447C120.576 11.5375 120.682 11.6034 120.835 11.6034C120.921 11.6034 121.037 11.5984 121.037 11.5984V12.1057C121.037 12.1057 120.88 12.1158 120.606 12.1158C120.271 12.1158 119.901 11.9839 119.901 11.4918V9.9648H119.541Z" fill="#1A1A1A"/>
<path d="M122.042 9.50821V9.92421H122.057C122.215 9.62997 122.392 9.47777 122.697 9.47777C122.773 9.47777 122.818 9.48285 122.859 9.49806V10.1018H122.844C122.392 10.0561 122.067 10.2946 122.067 10.8425V12.1107H121.378V9.50821H122.042Z" fill="#1A1A1A"/>
<path d="M123.237 12.963V12.4202H123.48C123.754 12.4202 123.866 12.2782 123.866 12.0651C123.866 11.923 123.815 11.7556 123.668 11.3599L122.968 9.50821H123.693L124.079 10.6801C124.16 10.9186 124.246 11.2483 124.246 11.2483H124.256C124.256 11.2483 124.327 10.9186 124.409 10.6801L124.774 9.50821H125.469L124.561 12.1767C124.363 12.755 124.17 12.963 123.643 12.963H123.237Z" fill="#1A1A1A"/>
<path d="M262.486 99.0093C261.466 99.0093 260.741 98.2229 260.741 97.1322C260.741 96.0567 261.411 95.2348 262.481 95.2348C263.374 95.2348 263.902 95.7675 263.978 96.4575H263.247C263.181 96.0922 262.907 95.8537 262.481 95.8537C261.811 95.8537 261.492 96.4118 261.492 97.1322C261.492 97.8729 261.877 98.4055 262.486 98.4055C262.917 98.4055 263.222 98.1468 263.267 97.7663H263.988C263.968 98.0859 263.831 98.3954 263.587 98.6237C263.338 98.8571 262.988 99.0093 262.486 99.0093Z" fill="#1A1A1A"/>
<path d="M265.568 99.0093C264.761 99.0093 264.208 98.4106 264.208 97.6344C264.208 96.8582 264.761 96.2596 265.568 96.2596C266.375 96.2596 266.928 96.8582 266.928 97.6344C266.928 98.4106 266.375 99.0093 265.568 99.0093ZM265.568 98.4816C265.989 98.4816 266.228 98.1417 266.228 97.6344C266.228 97.1271 265.989 96.7821 265.568 96.7821C265.142 96.7821 264.909 97.1271 264.909 97.6344C264.909 98.1417 265.142 98.4816 265.568 98.4816Z" fill="#1A1A1A"/>
<path d="M267.258 98.9332V95.3058H267.948V98.9332H267.258Z" fill="#1A1A1A"/>
<path d="M268.413 98.9332V95.3058H269.103V98.9332H268.413Z" fill="#1A1A1A"/>
<path d="M270.78 99.0093C269.917 99.0093 269.43 98.4055 269.43 97.6293C269.43 96.8582 269.953 96.2596 270.714 96.2596C271.551 96.2596 271.997 96.8988 271.997 97.8272H270.11C270.161 98.228 270.384 98.4766 270.775 98.4766C271.043 98.4766 271.201 98.3548 271.277 98.157H271.957C271.86 98.6186 271.449 99.0093 270.78 99.0093ZM270.724 96.7923C270.359 96.7923 270.181 97.0104 270.12 97.3503H271.277C271.257 97.0206 271.038 96.7923 270.724 96.7923Z" fill="#1A1A1A"/>
<path d="M273.463 99.821C272.753 99.821 272.317 99.5166 272.246 99.0093H272.93C272.986 99.1716 273.133 99.2984 273.453 99.2984C273.844 99.2984 274.031 99.1107 274.031 98.7556V98.4715H274.016C273.864 98.644 273.666 98.7759 273.336 98.7759C272.758 98.7759 272.19 98.3193 272.19 97.533C272.19 96.7568 272.656 96.2596 273.316 96.2596C273.641 96.2596 273.879 96.3864 274.036 96.6046H274.047V96.3306H274.711V98.7353C274.711 99.1006 274.594 99.3492 274.402 99.5267C274.183 99.7296 273.849 99.821 273.463 99.821ZM273.453 98.2229C273.889 98.2229 274.067 97.9033 274.067 97.5177C274.067 97.1373 273.864 96.8126 273.448 96.8126C273.098 96.8126 272.864 97.0865 272.864 97.5228C272.864 97.9642 273.098 98.2229 273.453 98.2229Z" fill="#1A1A1A"/>
<path d="M276.378 99.0093C275.516 99.0093 275.029 98.4055 275.029 97.6293C275.029 96.8582 275.551 96.2596 276.312 96.2596C277.149 96.2596 277.596 96.8988 277.596 97.8272H275.708C275.759 98.228 275.982 98.4766 276.373 98.4766C276.642 98.4766 276.799 98.3548 276.875 98.157H277.555C277.459 98.6186 277.048 99.0093 276.378 99.0093ZM276.322 96.7923C275.957 96.7923 275.779 97.0104 275.718 97.3503H276.875C276.855 97.0206 276.637 96.7923 276.322 96.7923Z" fill="#1A1A1A"/>
<path d="M280 99.0093C279.193 99.0093 278.64 98.4106 278.64 97.6344C278.64 96.8582 279.193 96.2596 280 96.2596C280.806 96.2596 281.359 96.8582 281.359 97.6344C281.359 98.4106 280.806 99.0093 280 99.0093ZM280 98.4816C280.421 98.4816 280.659 98.1417 280.659 97.6344C280.659 97.1271 280.421 96.7821 280 96.7821C279.574 96.7821 279.34 97.1271 279.34 97.6344C279.34 98.1417 279.574 98.4816 280 98.4816Z" fill="#1A1A1A"/>
<path d="M281.478 96.8075V96.3306H281.834V96.0973C281.834 95.4631 282.326 95.2399 282.99 95.3109V95.8436C282.665 95.8284 282.523 95.869 282.523 96.1378V96.3306H282.99V96.8075H282.523V98.9332H281.834V96.8075H281.478Z" fill="#1A1A1A"/>
<path d="M263.514 104.731V101.104H264.26L265.467 103.128C265.584 103.326 265.721 103.635 265.721 103.635H265.731C265.731 103.635 265.711 103.26 265.711 103.006V101.104H266.436V104.731H265.726L264.488 102.727C264.372 102.534 264.229 102.225 264.229 102.225H264.219C264.219 102.225 264.24 102.605 264.24 102.859V104.731H263.514Z" fill="#1A1A1A"/>
<path d="M269.245 104.731H268.58V104.427H268.565C268.387 104.665 268.184 104.802 267.819 104.802C267.241 104.802 266.916 104.432 266.916 103.864V102.129H267.601V103.747C267.601 104.051 267.738 104.219 268.032 104.219C268.357 104.219 268.555 103.975 268.555 103.63V102.129H269.245V104.731Z" fill="#1A1A1A"/>
<path d="M270.355 102.129V102.545H270.371C270.528 102.25 270.705 102.098 271.01 102.098C271.086 102.098 271.132 102.103 271.172 102.118V102.722H271.157C270.705 102.676 270.381 102.915 270.381 103.463V104.731H269.691V102.129H270.355Z" fill="#1A1A1A"/>
<path d="M272.525 104.807C271.769 104.807 271.348 104.442 271.307 103.889H271.946C271.992 104.188 272.205 104.32 272.514 104.32C272.819 104.32 272.991 104.203 272.991 104.021C272.991 103.772 272.662 103.747 272.306 103.676C271.84 103.585 271.383 103.458 271.383 102.889C271.383 102.326 271.85 102.057 272.443 102.057C273.128 102.057 273.509 102.397 273.56 102.92H272.936C272.905 102.641 272.728 102.539 272.433 102.539C272.164 102.539 271.987 102.641 271.987 102.829C271.987 103.052 272.332 103.072 272.702 103.148C273.138 103.24 273.62 103.361 273.62 103.97C273.62 104.493 273.174 104.807 272.525 104.807Z" fill="#1A1A1A"/>
<path d="M273.932 104.731V102.129H274.622V104.731H273.932ZM273.932 101.723V101.104H274.622V101.723H273.932Z" fill="#1A1A1A"/>
<path d="M275.741 102.129V102.484H275.756C275.934 102.205 276.172 102.057 276.527 102.057C277.065 102.057 277.425 102.463 277.425 103.032V104.731H276.735V103.133C276.735 102.854 276.573 102.656 276.284 102.656C275.979 102.656 275.756 102.9 275.756 103.255V104.731H275.066V102.129H275.741Z" fill="#1A1A1A"/>
<path d="M278.997 105.619C278.287 105.619 277.85 105.314 277.779 104.807H278.464C278.52 104.969 278.667 105.096 278.987 105.096C279.378 105.096 279.565 104.909 279.565 104.553V104.269H279.55C279.398 104.442 279.2 104.574 278.87 104.574C278.292 104.574 277.724 104.117 277.724 103.331C277.724 102.555 278.19 102.057 278.85 102.057C279.175 102.057 279.413 102.184 279.57 102.402H279.58V102.129H280.245V104.533C280.245 104.898 280.128 105.147 279.936 105.325C279.717 105.528 279.383 105.619 278.997 105.619ZM278.987 104.021C279.423 104.021 279.601 103.701 279.601 103.316C279.601 102.935 279.398 102.61 278.982 102.61C278.632 102.61 278.398 102.884 278.398 103.321C278.398 103.762 278.632 104.021 278.987 104.021Z" fill="#1A1A1A"/>
<path d="M260.845 122.633V119.006H261.88L262.392 120.827C262.519 121.284 262.62 121.806 262.62 121.806H262.631C262.631 121.806 262.727 121.284 262.854 120.827L263.366 119.006H264.416V122.633H263.731V120.553C263.731 120.259 263.762 119.802 263.762 119.802H263.752C263.752 119.802 263.671 120.229 263.594 120.492L262.971 122.633H262.265L261.657 120.492C261.58 120.229 261.499 119.802 261.499 119.802H261.489C261.489 119.802 261.52 120.259 261.52 120.553V122.633H260.845Z" fill="#1A1A1A"/>
<path d="M266.144 122.709C265.281 122.709 264.794 122.106 264.794 121.329C264.794 120.558 265.317 119.96 266.078 119.96C266.915 119.96 267.361 120.599 267.361 121.527H265.474C265.525 121.928 265.748 122.177 266.138 122.177C266.407 122.177 266.565 122.055 266.641 121.857H267.321C267.224 122.319 266.813 122.709 266.144 122.709ZM266.088 120.492C265.722 120.492 265.545 120.711 265.484 121.05H266.641C266.62 120.721 266.402 120.492 266.088 120.492Z" fill="#1A1A1A"/>
<path d="M268.654 122.709C268 122.709 267.554 122.177 267.554 121.335C267.554 120.523 268.015 119.96 268.665 119.96C269.03 119.96 269.258 120.127 269.4 120.345H269.415V119.006H270.105V122.633H269.441V122.293H269.431C269.278 122.542 269.02 122.709 268.654 122.709ZM268.807 122.131C269.218 122.131 269.431 121.827 269.431 121.35C269.431 120.853 269.268 120.518 268.827 120.518C268.446 120.518 268.254 120.853 268.254 121.335C268.254 121.837 268.452 122.131 268.807 122.131Z" fill="#1A1A1A"/>
<path d="M270.554 122.633V120.031H271.244V122.633H270.554ZM270.554 119.625V119.006H271.244V119.625H270.554Z" fill="#1A1A1A"/>
<path d="M272.896 122.709C272.074 122.709 271.562 122.111 271.562 121.335C271.562 120.558 272.069 119.96 272.86 119.96C273.535 119.96 273.951 120.35 274.042 120.913H273.368C273.322 120.685 273.144 120.513 272.891 120.513C272.475 120.513 272.262 120.832 272.262 121.335C272.262 121.827 272.46 122.156 272.881 122.156C273.16 122.156 273.358 122.009 273.403 121.715H274.068C274.022 122.268 273.591 122.709 272.896 122.709Z" fill="#1A1A1A"/>
<path d="M276.057 122.633C276.016 122.583 275.991 122.461 275.976 122.344H275.966C275.834 122.542 275.646 122.694 275.199 122.694C274.667 122.694 274.291 122.415 274.291 121.898C274.291 121.324 274.758 121.142 275.336 121.061C275.768 121 275.966 120.964 275.966 120.766C275.966 120.579 275.818 120.457 275.529 120.457C275.205 120.457 275.047 120.574 275.027 120.822H274.413C274.433 120.366 274.773 119.965 275.534 119.965C276.316 119.965 276.63 120.315 276.63 120.924V122.248C276.63 122.446 276.661 122.562 276.721 122.608V122.633H276.057ZM275.367 122.212C275.763 122.212 275.981 121.969 275.981 121.715V121.324C275.859 121.395 275.671 121.436 275.499 121.477C275.139 121.558 274.961 121.639 274.961 121.882C274.961 122.126 275.123 122.212 275.367 122.212Z" fill="#1A1A1A"/>
<path d="M277.079 122.633V119.006H277.769V122.633H277.079Z" fill="#1A1A1A"/>
<path d="M280.536 122.714C279.552 122.714 278.994 122.278 278.969 121.512H279.689C279.74 121.948 279.988 122.121 280.506 122.121C280.881 122.121 281.211 121.989 281.211 121.654C281.211 121.299 280.866 121.228 280.313 121.101C279.664 120.954 279.07 120.782 279.07 120.026C279.07 119.31 279.654 118.94 280.46 118.94C281.277 118.94 281.805 119.341 281.86 120.071H281.155C281.115 119.706 280.831 119.523 280.455 119.523C280.059 119.523 279.801 119.691 279.801 119.95C279.801 120.244 280.054 120.33 280.592 120.447C281.338 120.609 281.947 120.787 281.947 121.568C281.947 122.304 281.353 122.714 280.536 122.714Z" fill="#1A1A1A"/>
<path d="M283.538 122.709C282.716 122.709 282.203 122.111 282.203 121.335C282.203 120.558 282.711 119.96 283.502 119.96C284.177 119.96 284.593 120.35 284.684 120.913H284.009C283.964 120.685 283.786 120.513 283.533 120.513C283.117 120.513 282.903 120.832 282.903 121.335C282.903 121.827 283.101 122.156 283.522 122.156C283.801 122.156 283.999 122.009 284.045 121.715H284.71C284.664 122.268 284.233 122.709 283.538 122.709Z" fill="#1A1A1A"/>
<path d="M285.01 122.633V120.031H285.7V122.633H285.01ZM285.01 119.625V119.006H285.7V119.625H285.01Z" fill="#1A1A1A"/>
<path d="M287.368 122.709C286.505 122.709 286.018 122.106 286.018 121.329C286.018 120.558 286.541 119.96 287.302 119.96C288.139 119.96 288.585 120.599 288.585 121.527H286.698C286.749 121.928 286.972 122.177 287.363 122.177C287.631 122.177 287.789 122.055 287.865 121.857H288.545C288.448 122.319 288.037 122.709 287.368 122.709ZM287.312 120.492C286.947 120.492 286.769 120.711 286.708 121.05H287.865C287.844 120.721 287.626 120.492 287.312 120.492Z" fill="#1A1A1A"/>
<path d="M289.579 120.031V120.386H289.594C289.772 120.107 290.01 119.96 290.366 119.96C290.903 119.96 291.264 120.366 291.264 120.934V122.633H290.574V121.035C290.574 120.756 290.411 120.558 290.122 120.558C289.818 120.558 289.594 120.802 289.594 121.157V122.633H288.905V120.031H289.579Z" fill="#1A1A1A"/>
<path d="M292.896 122.709C292.074 122.709 291.562 122.111 291.562 121.335C291.562 120.558 292.069 119.96 292.861 119.96C293.535 119.96 293.951 120.35 294.043 120.913H293.368C293.322 120.685 293.145 120.513 292.891 120.513C292.475 120.513 292.262 120.832 292.262 121.335C292.262 121.827 292.46 122.156 292.881 122.156C293.16 122.156 293.358 122.009 293.404 121.715H294.068C294.022 122.268 293.591 122.709 292.896 122.709Z" fill="#1A1A1A"/>
<path d="M295.592 122.709C294.729 122.709 294.242 122.106 294.242 121.329C294.242 120.558 294.765 119.96 295.526 119.96C296.363 119.96 296.809 120.599 296.809 121.527H294.922C294.973 121.928 295.196 122.177 295.587 122.177C295.855 122.177 296.013 122.055 296.089 121.857H296.769C296.672 122.319 296.261 122.709 295.592 122.709ZM295.536 120.492C295.171 120.492 294.993 120.711 294.932 121.05H296.089C296.069 120.721 295.85 120.492 295.536 120.492Z" fill="#1A1A1A"/>
<path d="M270.013 128.431V124.804H271.636C272.027 124.804 272.326 124.9 272.514 125.068C272.712 125.245 272.803 125.463 272.803 125.747C272.803 126.118 272.575 126.356 272.235 126.473V126.488C272.636 126.605 272.91 126.94 272.91 127.386C272.91 127.726 272.803 127.959 272.59 128.142C272.382 128.325 272.062 128.431 271.677 128.431H270.013ZM270.748 126.808V127.822H271.596C271.951 127.822 272.164 127.625 272.164 127.33C272.164 126.985 271.91 126.808 271.575 126.808H270.748ZM270.748 126.265H271.545C271.864 126.265 272.083 126.113 272.083 125.829C272.083 125.56 271.885 125.403 271.56 125.403H270.748V126.265Z" fill="#1A1A1A"/>
<path d="M275.594 128.431H274.93V128.127H274.915C274.737 128.365 274.534 128.502 274.169 128.502C273.591 128.502 273.266 128.132 273.266 127.564V125.829H273.951V127.447C273.951 127.751 274.088 127.919 274.382 127.919C274.707 127.919 274.905 127.675 274.905 127.33V125.829H275.594V128.431Z" fill="#1A1A1A"/>
<path d="M276.041 128.431V125.829H276.731V128.431H276.041ZM276.041 125.423V124.804H276.731V125.423H276.041Z" fill="#1A1A1A"/>
<path d="M277.185 128.431V124.804H277.875V128.431H277.185Z" fill="#1A1A1A"/>
<path d="M279.304 128.507C278.649 128.507 278.203 127.975 278.203 127.132C278.203 126.321 278.664 125.758 279.314 125.758C279.679 125.758 279.907 125.925 280.049 126.143H280.065V124.804H280.755V128.431H280.09V128.091H280.08C279.928 128.34 279.669 128.507 279.304 128.507ZM279.456 127.929C279.867 127.929 280.08 127.625 280.08 127.148C280.08 126.651 279.918 126.316 279.476 126.316C279.096 126.316 278.903 126.651 278.903 127.132C278.903 127.635 279.101 127.929 279.456 127.929Z" fill="#1A1A1A"/>
<path d="M281.203 128.431V125.829H281.893V128.431H281.203ZM281.203 125.423V124.804H281.893V125.423H281.203Z" fill="#1A1A1A"/>
<path d="M283.012 125.829V126.184H283.028C283.205 125.905 283.444 125.758 283.799 125.758C284.336 125.758 284.697 126.163 284.697 126.732V128.431H284.007V126.833C284.007 126.554 283.844 126.356 283.555 126.356C283.251 126.356 283.028 126.6 283.028 126.955V128.431H282.338V125.829H283.012Z" fill="#1A1A1A"/>
<path d="M286.268 129.319C285.558 129.319 285.122 129.015 285.051 128.507H285.736C285.792 128.67 285.939 128.796 286.258 128.796C286.649 128.796 286.837 128.609 286.837 128.254V127.97H286.821C286.669 128.142 286.471 128.274 286.142 128.274C285.563 128.274 284.995 127.817 284.995 127.031C284.995 126.255 285.462 125.758 286.121 125.758C286.446 125.758 286.684 125.884 286.842 126.103H286.852V125.829H287.516V128.233C287.516 128.599 287.4 128.847 287.207 129.025C286.989 129.228 286.654 129.319 286.268 129.319ZM286.258 127.721C286.695 127.721 286.872 127.401 286.872 127.016C286.872 126.635 286.669 126.311 286.253 126.311C285.903 126.311 285.67 126.585 285.67 127.021C285.67 127.462 285.903 127.721 286.258 127.721Z" fill="#1A1A1A"/>
<path d="M261.587 148.361V144.734H262.323V148.361H261.587Z" fill="#1A1A1A"/>
<path d="M263.504 145.759V146.114H263.519C263.697 145.835 263.935 145.688 264.291 145.688C264.828 145.688 265.189 146.094 265.189 146.662V148.361H264.499V146.763C264.499 146.484 264.336 146.287 264.047 146.287C263.743 146.287 263.519 146.53 263.519 146.885V148.361H262.83V145.759H263.504Z" fill="#1A1A1A"/>
<path d="M265.412 146.216V145.759H265.772V144.947H266.447V145.759H266.893V146.216H266.447V147.595C266.447 147.788 266.554 147.854 266.706 147.854C266.792 147.854 266.909 147.849 266.909 147.849V148.356C266.909 148.356 266.751 148.367 266.477 148.367C266.143 148.367 265.772 148.235 265.772 147.743V146.216H265.412Z" fill="#1A1A1A"/>
<path d="M268.447 148.438C267.584 148.438 267.097 147.834 267.097 147.058C267.097 146.287 267.62 145.688 268.381 145.688C269.218 145.688 269.664 146.327 269.664 147.256H267.777C267.828 147.656 268.051 147.905 268.441 147.905C268.71 147.905 268.868 147.783 268.944 147.585H269.624C269.527 148.047 269.116 148.438 268.447 148.438ZM268.391 146.221C268.025 146.221 267.848 146.439 267.787 146.779H268.944C268.923 146.449 268.705 146.221 268.391 146.221Z" fill="#1A1A1A"/>
<path d="M271.13 149.249C270.42 149.249 269.983 148.945 269.912 148.438H270.597C270.653 148.6 270.8 148.727 271.12 148.727C271.51 148.727 271.698 148.539 271.698 148.184V147.9H271.683C271.531 148.072 271.333 148.204 271.003 148.204C270.425 148.204 269.857 147.748 269.857 146.961C269.857 146.185 270.323 145.688 270.983 145.688C271.308 145.688 271.546 145.815 271.703 146.033H271.713V145.759H272.378V148.164C272.378 148.529 272.261 148.777 272.069 148.955C271.85 149.158 271.516 149.249 271.13 149.249ZM271.12 147.651C271.556 147.651 271.734 147.332 271.734 146.946C271.734 146.566 271.531 146.241 271.115 146.241C270.765 146.241 270.531 146.515 270.531 146.951C270.531 147.393 270.765 147.651 271.12 147.651Z" fill="#1A1A1A"/>
<path d="M273.487 145.759V146.175H273.502C273.659 145.881 273.837 145.729 274.141 145.729C274.217 145.729 274.263 145.734 274.304 145.749V146.353H274.288C273.837 146.307 273.512 146.545 273.512 147.093V148.361H272.822V145.759H273.487Z" fill="#1A1A1A"/>
<path d="M276.165 148.361C276.125 148.311 276.099 148.189 276.084 148.072H276.074C275.942 148.27 275.754 148.422 275.308 148.422C274.775 148.422 274.4 148.143 274.4 147.626C274.4 147.053 274.866 146.87 275.445 146.789C275.876 146.728 276.074 146.692 276.074 146.495C276.074 146.307 275.927 146.185 275.638 146.185C275.313 146.185 275.156 146.302 275.135 146.55H274.521C274.542 146.094 274.882 145.693 275.643 145.693C276.424 145.693 276.738 146.043 276.738 146.652V147.976C276.738 148.174 276.769 148.29 276.83 148.336V148.361H276.165ZM275.475 147.94C275.871 147.94 276.089 147.697 276.089 147.443V147.053C275.967 147.124 275.78 147.164 275.607 147.205C275.247 147.286 275.069 147.367 275.069 147.611C275.069 147.854 275.232 147.94 275.475 147.94Z" fill="#1A1A1A"/>
<path d="M276.975 146.216V145.759H277.336V144.947H278.01V145.759H278.457V146.216H278.01V147.595C278.01 147.788 278.117 147.854 278.269 147.854C278.355 147.854 278.472 147.849 278.472 147.849V148.356C278.472 148.356 278.315 148.367 278.041 148.367C277.706 148.367 277.336 148.235 277.336 147.743V146.216H276.975Z" fill="#1A1A1A"/>
<path d="M278.812 148.361V145.759H279.502V148.361H278.812ZM278.812 145.353V144.734H279.502V145.353H278.812Z" fill="#1A1A1A"/>
<path d="M280.636 148.361L279.733 145.759H280.434L280.85 147.108C280.926 147.357 280.966 147.524 280.966 147.524H280.976C280.976 147.524 281.012 147.357 281.088 147.108L281.514 145.759H282.204L281.296 148.361H280.636Z" fill="#1A1A1A"/>
<path d="M283.587 148.438C282.724 148.438 282.237 147.834 282.237 147.058C282.237 146.287 282.76 145.688 283.521 145.688C284.358 145.688 284.804 146.327 284.804 147.256H282.917C282.968 147.656 283.191 147.905 283.582 147.905C283.851 147.905 284.008 147.783 284.084 147.585H284.764C284.667 148.047 284.256 148.438 283.587 148.438ZM283.531 146.221C283.166 146.221 282.988 146.439 282.927 146.779H284.084C284.064 146.449 283.846 146.221 283.531 146.221Z" fill="#1A1A1A"/>
<path d="M286.032 148.361V144.734H287.655C288.046 144.734 288.345 144.831 288.533 144.998C288.731 145.176 288.822 145.394 288.822 145.678C288.822 146.048 288.594 146.287 288.254 146.403V146.418C288.654 146.535 288.928 146.87 288.928 147.316C288.928 147.656 288.822 147.89 288.609 148.072C288.401 148.255 288.081 148.361 287.696 148.361H286.032ZM286.767 146.738V147.753H287.614C287.97 147.753 288.183 147.555 288.183 147.261C288.183 146.916 287.929 146.738 287.594 146.738H286.767ZM286.767 146.195H287.564C287.883 146.195 288.101 146.043 288.101 145.759C288.101 145.49 287.904 145.333 287.579 145.333H286.767V146.195Z" fill="#1A1A1A"/>
<path d="M289.305 148.361V145.759H289.995V148.361H289.305ZM289.305 145.353V144.734H289.995V145.353H289.305Z" fill="#1A1A1A"/>
<path d="M291.672 148.438C290.866 148.438 290.313 147.839 290.313 147.063C290.313 146.287 290.866 145.688 291.672 145.688C292.479 145.688 293.032 146.287 293.032 147.063C293.032 147.839 292.479 148.438 291.672 148.438ZM291.672 147.91C292.093 147.91 292.332 147.57 292.332 147.063C292.332 146.555 292.093 146.21 291.672 146.21C291.246 146.21 291.013 146.555 291.013 147.063C291.013 147.57 291.246 147.91 291.672 147.91Z" fill="#1A1A1A"/>
<path d="M293.353 148.361V145.759H294.017V146.109H294.033C294.175 145.871 294.428 145.688 294.788 145.688C295.118 145.688 295.382 145.871 295.509 146.145H295.519C295.697 145.86 295.97 145.688 296.3 145.688C296.848 145.688 297.158 146.043 297.158 146.611V148.361H296.468V146.728C296.468 146.434 296.321 146.281 296.067 146.281C295.778 146.281 295.6 146.505 295.6 146.85V148.361H294.91V146.728C294.91 146.434 294.763 146.281 294.509 146.281C294.23 146.281 294.043 146.505 294.043 146.85V148.361H293.353Z" fill="#1A1A1A"/>
<path d="M298.806 148.438C297.944 148.438 297.457 147.834 297.457 147.058C297.457 146.287 297.979 145.688 298.74 145.688C299.577 145.688 300.024 146.327 300.024 147.256H298.137C298.187 147.656 298.411 147.905 298.801 147.905C299.07 147.905 299.227 147.783 299.303 147.585H299.983C299.887 148.047 299.476 148.438 298.806 148.438ZM298.75 146.221C298.385 146.221 298.208 146.439 298.147 146.779H299.303C299.283 146.449 299.065 146.221 298.75 146.221Z" fill="#1A1A1A"/>
<path d="M301.317 148.438C300.663 148.438 300.216 147.905 300.216 147.063C300.216 146.251 300.678 145.688 301.327 145.688C301.693 145.688 301.921 145.855 302.063 146.073H302.078V144.734H302.768V148.361H302.104V148.022H302.093C301.941 148.27 301.682 148.438 301.317 148.438ZM301.469 147.859C301.88 147.859 302.093 147.555 302.093 147.078C302.093 146.581 301.931 146.246 301.49 146.246C301.109 146.246 300.916 146.581 300.916 147.063C300.916 147.565 301.114 147.859 301.469 147.859Z" fill="#1A1A1A"/>
<path d="M303.217 148.361V145.759H303.907V148.361H303.217ZM303.217 145.353V144.734H303.907V145.353H303.217Z" fill="#1A1A1A"/>
<path d="M305.559 148.438C304.737 148.438 304.224 147.839 304.224 147.063C304.224 146.287 304.732 145.688 305.523 145.688C306.198 145.688 306.614 146.079 306.705 146.642H306.03C305.985 146.413 305.807 146.241 305.554 146.241C305.138 146.241 304.924 146.561 304.924 147.063C304.924 147.555 305.122 147.885 305.543 147.885C305.822 147.885 306.02 147.737 306.066 147.443H306.73C306.685 147.996 306.254 148.438 305.559 148.438Z" fill="#1A1A1A"/>
<path d="M308.72 148.361C308.679 148.311 308.654 148.189 308.638 148.072H308.628C308.496 148.27 308.309 148.422 307.862 148.422C307.33 148.422 306.954 148.143 306.954 147.626C306.954 147.053 307.421 146.87 307.999 146.789C308.43 146.728 308.628 146.692 308.628 146.495C308.628 146.307 308.481 146.185 308.192 146.185C307.867 146.185 307.71 146.302 307.69 146.55H307.076C307.096 146.094 307.436 145.693 308.197 145.693C308.978 145.693 309.293 146.043 309.293 146.652V147.976C309.293 148.174 309.323 148.29 309.384 148.336V148.361H308.72ZM308.03 147.94C308.425 147.94 308.644 147.697 308.644 147.443V147.053C308.522 147.124 308.334 147.164 308.162 147.205C307.801 147.286 307.624 147.367 307.624 147.611C307.624 147.854 307.786 147.94 308.03 147.94Z" fill="#1A1A1A"/>
<path d="M309.742 148.361V144.734H310.432V148.361H309.742Z" fill="#1A1A1A"/>
<path d="M273.894 154.159V150.532H276.562V151.151H274.629V151.963H276.324V152.566H274.629V153.546H276.577V154.159H273.894Z" fill="#1A1A1A"/>
<path d="M277.903 154.235C277.249 154.235 276.803 153.703 276.803 152.861C276.803 152.049 277.264 151.486 277.914 151.486C278.279 151.486 278.507 151.653 278.649 151.871H278.664V150.532H279.354V154.159H278.69V153.819H278.68C278.527 154.068 278.269 154.235 277.903 154.235ZM278.056 153.657C278.467 153.657 278.68 153.353 278.68 152.876C278.68 152.379 278.517 152.044 278.076 152.044C277.695 152.044 277.503 152.379 277.503 152.861C277.503 153.363 277.7 153.657 278.056 153.657Z" fill="#1A1A1A"/>
<path d="M282.111 154.159H281.447V153.855H281.431C281.254 154.093 281.051 154.23 280.686 154.23C280.107 154.23 279.783 153.86 279.783 153.292V151.557H280.467V153.175C280.467 153.48 280.604 153.647 280.899 153.647C281.223 153.647 281.421 153.403 281.421 153.059V151.557H282.111V154.159Z" fill="#1A1A1A"/>
<path d="M283.765 154.235C282.943 154.235 282.431 153.637 282.431 152.861C282.431 152.084 282.938 151.486 283.729 151.486C284.404 151.486 284.82 151.876 284.911 152.44H284.237C284.191 152.211 284.013 152.039 283.76 152.039C283.344 152.039 283.131 152.358 283.131 152.861C283.131 153.353 283.329 153.683 283.75 153.683C284.029 153.683 284.226 153.535 284.272 153.241H284.937C284.891 153.794 284.46 154.235 283.765 154.235Z" fill="#1A1A1A"/>
<path d="M286.926 154.159C286.885 154.109 286.86 153.987 286.845 153.87H286.835C286.703 154.068 286.515 154.22 286.068 154.22C285.536 154.22 285.16 153.941 285.16 153.424C285.16 152.851 285.627 152.668 286.205 152.587C286.637 152.526 286.835 152.49 286.835 152.292C286.835 152.105 286.687 151.983 286.398 151.983C286.074 151.983 285.916 152.1 285.896 152.348H285.282C285.302 151.892 285.642 151.491 286.403 151.491C287.185 151.491 287.499 151.841 287.499 152.45V153.774C287.499 153.972 287.53 154.088 287.59 154.134V154.159H286.926ZM286.236 153.738C286.632 153.738 286.85 153.495 286.85 153.241V152.851C286.728 152.922 286.54 152.962 286.368 153.003C286.008 153.084 285.83 153.165 285.83 153.409C285.83 153.652 285.992 153.738 286.236 153.738Z" fill="#1A1A1A"/>
<path d="M287.736 152.013V151.557H288.096V150.745H288.771V151.557H289.217V152.013H288.771V153.393C288.771 153.586 288.877 153.652 289.03 153.652C289.116 153.652 289.233 153.647 289.233 153.647V154.154C289.233 154.154 289.075 154.164 288.801 154.164C288.466 154.164 288.096 154.033 288.096 153.54V152.013H287.736Z" fill="#1A1A1A"/>
<path d="M289.573 154.159V151.557H290.263V154.159H289.573ZM289.573 151.151V150.532H290.263V151.151H289.573Z" fill="#1A1A1A"/>
<path d="M291.94 154.235C291.133 154.235 290.58 153.637 290.58 152.861C290.58 152.084 291.133 151.486 291.94 151.486C292.747 151.486 293.3 152.084 293.3 152.861C293.3 153.637 292.747 154.235 291.94 154.235ZM291.94 153.708C292.361 153.708 292.599 153.368 292.599 152.861C292.599 152.353 292.361 152.008 291.94 152.008C291.514 152.008 291.28 152.353 291.28 152.861C291.28 153.368 291.514 153.708 291.94 153.708Z" fill="#1A1A1A"/>
<path d="M294.295 151.557V151.912H294.31C294.488 151.633 294.726 151.486 295.081 151.486C295.619 151.486 295.979 151.892 295.979 152.46V154.159H295.289V152.561C295.289 152.282 295.127 152.084 294.838 152.084C294.533 152.084 294.31 152.328 294.31 152.683V154.159H293.62V151.557H294.295Z" fill="#1A1A1A"/>
<path d="M266.281 159.957V156.33H267.945C268.646 156.33 269.112 156.736 269.112 157.34C269.112 157.766 268.914 158.09 268.448 158.217V158.232C268.783 158.329 268.955 158.522 269.001 158.963C269.051 159.475 269.031 159.866 269.158 159.922V159.957H268.453C268.361 159.917 268.351 159.511 268.321 159.12C268.29 158.725 268.067 158.501 267.611 158.501H267.017V159.957H266.281ZM267.017 156.924V157.933H267.798C268.199 157.933 268.397 157.725 268.397 157.436C268.397 157.142 268.209 156.924 267.819 156.924H267.017Z" fill="#1A1A1A"/>
<path d="M270.728 160.033C269.866 160.033 269.379 159.43 269.379 158.653C269.379 157.882 269.901 157.284 270.662 157.284C271.499 157.284 271.946 157.923 271.946 158.851H270.058C270.109 159.252 270.332 159.501 270.723 159.501C270.992 159.501 271.149 159.379 271.225 159.181H271.905C271.809 159.643 271.398 160.033 270.728 160.033ZM270.672 157.816C270.307 157.816 270.129 158.035 270.068 158.374H271.225C271.205 158.045 270.987 157.816 270.672 157.816Z" fill="#1A1A1A"/>
<path d="M273.32 160.033C272.564 160.033 272.143 159.668 272.103 159.115H272.742C272.787 159.414 273.001 159.546 273.31 159.546C273.614 159.546 273.787 159.43 273.787 159.247C273.787 158.998 273.457 158.973 273.102 158.902C272.635 158.811 272.179 158.684 272.179 158.116C272.179 157.553 272.645 157.284 273.239 157.284C273.924 157.284 274.304 157.624 274.355 158.146H273.731C273.701 157.867 273.523 157.766 273.229 157.766C272.96 157.766 272.782 157.867 272.782 158.055C272.782 158.278 273.127 158.298 273.498 158.374C273.934 158.466 274.416 158.588 274.416 159.196C274.416 159.719 273.969 160.033 273.32 160.033Z" fill="#1A1A1A"/>
<path d="M275.975 160.033C275.112 160.033 274.625 159.43 274.625 158.653C274.625 157.882 275.148 157.284 275.909 157.284C276.746 157.284 277.192 157.923 277.192 158.851H275.305C275.356 159.252 275.579 159.501 275.969 159.501C276.238 159.501 276.396 159.379 276.472 159.181H277.152C277.055 159.643 276.644 160.033 275.975 160.033ZM275.919 157.816C275.553 157.816 275.376 158.035 275.315 158.374H276.472C276.451 158.045 276.233 157.816 275.919 157.816Z" fill="#1A1A1A"/>
<path d="M279.15 159.957C279.11 159.907 279.084 159.785 279.069 159.668H279.059C278.927 159.866 278.739 160.018 278.293 160.018C277.76 160.018 277.385 159.739 277.385 159.222C277.385 158.648 277.851 158.466 278.43 158.385C278.861 158.324 279.059 158.288 279.059 158.09C279.059 157.903 278.912 157.781 278.622 157.781C278.298 157.781 278.141 157.898 278.12 158.146H277.506C277.527 157.69 277.867 157.289 278.628 157.289C279.409 157.289 279.723 157.639 279.723 158.248V159.572C279.723 159.77 279.754 159.886 279.815 159.932V159.957H279.15ZM278.46 159.536C278.856 159.536 279.074 159.293 279.074 159.039V158.648C278.952 158.719 278.765 158.76 278.592 158.801C278.232 158.882 278.054 158.963 278.054 159.206C278.054 159.45 278.217 159.536 278.46 159.536Z" fill="#1A1A1A"/>
<path d="M280.827 157.355V157.771H280.842C280.999 157.477 281.177 157.324 281.481 157.324C281.557 157.324 281.603 157.329 281.643 157.345V157.948H281.628C281.177 157.903 280.852 158.141 280.852 158.689V159.957H280.162V157.355H280.827Z" fill="#1A1A1A"/>
<path d="M283.074 160.033C282.252 160.033 281.739 159.435 281.739 158.659C281.739 157.882 282.247 157.284 283.038 157.284C283.713 157.284 284.129 157.674 284.22 158.238H283.545C283.5 158.009 283.322 157.837 283.069 157.837C282.653 157.837 282.44 158.156 282.44 158.659C282.44 159.151 282.637 159.48 283.058 159.48C283.337 159.48 283.535 159.333 283.581 159.039H284.246C284.2 159.592 283.769 160.033 283.074 160.033Z" fill="#1A1A1A"/>
<path d="M285.236 156.33V157.695H285.252C285.439 157.421 285.652 157.284 286.008 157.284C286.545 157.284 286.906 157.69 286.906 158.258V159.957H286.216V158.359C286.216 158.08 286.053 157.882 285.764 157.882C285.46 157.882 285.236 158.126 285.236 158.481V159.957H284.547V156.33H285.236Z" fill="#1A1A1A"/>
<path d="M288.239 159.957V156.33H289.862C290.253 156.33 290.552 156.426 290.74 156.594C290.938 156.771 291.029 156.99 291.029 157.274C291.029 157.644 290.801 157.882 290.461 157.999V158.014C290.862 158.131 291.136 158.466 291.136 158.912C291.136 159.252 291.029 159.486 290.816 159.668C290.608 159.851 290.288 159.957 289.903 159.957H288.239ZM288.974 158.334V159.349H289.822C290.177 159.349 290.39 159.151 290.39 158.856C290.39 158.511 290.136 158.334 289.801 158.334H288.974ZM288.974 157.791H289.771C290.09 157.791 290.309 157.639 290.309 157.355C290.309 157.086 290.111 156.929 289.786 156.929H288.974V157.791Z" fill="#1A1A1A"/>
<path d="M293.82 159.957H293.156V159.653H293.141C292.963 159.891 292.76 160.028 292.395 160.028C291.817 160.028 291.492 159.658 291.492 159.09V157.355H292.177V158.973C292.177 159.277 292.314 159.445 292.608 159.445C292.933 159.445 293.131 159.201 293.131 158.856V157.355H293.82V159.957Z" fill="#1A1A1A"/>
<path d="M294.267 159.957V157.355H294.957V159.957H294.267ZM294.267 156.949V156.33H294.957V156.949H294.267Z" fill="#1A1A1A"/>
<path d="M295.411 159.957V156.33H296.101V159.957H295.411Z" fill="#1A1A1A"/>
<path d="M297.53 160.033C296.875 160.033 296.429 159.501 296.429 158.659C296.429 157.847 296.89 157.284 297.54 157.284C297.905 157.284 298.133 157.451 298.275 157.669H298.291V156.33H298.981V159.957H298.316V159.617H298.306C298.154 159.866 297.895 160.033 297.53 160.033ZM297.682 159.455C298.093 159.455 298.306 159.151 298.306 158.674C298.306 158.177 298.144 157.842 297.702 157.842C297.322 157.842 297.129 158.177 297.129 158.659C297.129 159.161 297.327 159.455 297.682 159.455Z" fill="#1A1A1A"/>
<path d="M299.429 159.957V157.355H300.119V159.957H299.429ZM299.429 156.949V156.33H300.119V156.949H299.429Z" fill="#1A1A1A"/>
<path d="M301.238 157.355V157.71H301.254C301.431 157.431 301.67 157.284 302.025 157.284C302.562 157.284 302.923 157.69 302.923 158.258V159.957H302.233V158.359C302.233 158.08 302.07 157.882 301.781 157.882C301.477 157.882 301.254 158.126 301.254 158.481V159.957H300.564V157.355H301.238Z" fill="#1A1A1A"/>
<path d="M304.494 160.845C303.784 160.845 303.348 160.541 303.277 160.033H303.962C304.018 160.196 304.165 160.323 304.484 160.323C304.875 160.323 305.063 160.135 305.063 159.78V159.496H305.047C304.895 159.668 304.697 159.8 304.368 159.8C303.789 159.8 303.221 159.343 303.221 158.557C303.221 157.781 303.688 157.284 304.347 157.284C304.672 157.284 304.91 157.411 305.068 157.629H305.078V157.355H305.742V159.759C305.742 160.125 305.626 160.373 305.433 160.551C305.215 160.754 304.88 160.845 304.494 160.845ZM304.484 159.247C304.921 159.247 305.098 158.927 305.098 158.542C305.098 158.161 304.895 157.837 304.479 157.837C304.129 157.837 303.896 158.111 303.896 158.547C303.896 158.988 304.129 159.247 304.484 159.247Z" fill="#1A1A1A"/>
<path d="M166.861 169.741V166.114H167.896L168.409 167.935C168.536 168.392 168.637 168.914 168.637 168.914H168.647C168.647 168.914 168.744 168.392 168.87 167.935L169.383 166.114H170.433V169.741H169.748V167.661C169.748 167.367 169.779 166.91 169.779 166.91H169.768C169.768 166.91 169.687 167.337 169.611 167.6L168.987 169.741H168.282L167.673 167.6C167.597 167.337 167.516 166.91 167.516 166.91H167.506C167.506 166.91 167.536 167.367 167.536 167.661V169.741H166.861Z" fill="#1A1A1A"/>
<path d="M172.16 169.817C171.298 169.817 170.811 169.214 170.811 168.437C170.811 167.666 171.333 167.068 172.094 167.068C172.931 167.068 173.378 167.707 173.378 168.635H171.49C171.541 169.036 171.764 169.285 172.155 169.285C172.424 169.285 172.581 169.163 172.657 168.965H173.337C173.241 169.427 172.83 169.817 172.16 169.817ZM172.104 167.6C171.739 167.6 171.561 167.819 171.501 168.158H172.657C172.637 167.829 172.419 167.6 172.104 167.6Z" fill="#1A1A1A"/>
<path d="M174.671 169.817C174.017 169.817 173.57 169.285 173.57 168.443C173.57 167.631 174.032 167.068 174.681 167.068C175.046 167.068 175.275 167.235 175.417 167.453H175.432V166.114H176.122V169.741H175.457V169.401H175.447C175.295 169.65 175.036 169.817 174.671 169.817ZM174.823 169.239C175.234 169.239 175.447 168.935 175.447 168.458C175.447 167.961 175.285 167.626 174.844 167.626C174.463 167.626 174.27 167.961 174.27 168.443C174.27 168.945 174.468 169.239 174.823 169.239Z" fill="#1A1A1A"/>
<path d="M176.57 169.741V167.139H177.26V169.741H176.57ZM176.57 166.733V166.114H177.26V166.733H176.57Z" fill="#1A1A1A"/>
<path d="M178.912 169.817C178.091 169.817 177.578 169.219 177.578 168.443C177.578 167.666 178.085 167.068 178.877 167.068C179.552 167.068 179.968 167.458 180.059 168.021H179.384C179.339 167.793 179.161 167.621 178.907 167.621C178.491 167.621 178.278 167.94 178.278 168.443C178.278 168.935 178.476 169.264 178.897 169.264C179.176 169.264 179.374 169.117 179.42 168.823H180.084C180.039 169.376 179.607 169.817 178.912 169.817Z" fill="#1A1A1A"/>
<path d="M182.073 169.741C182.033 169.691 182.007 169.569 181.992 169.452H181.982C181.85 169.65 181.663 169.802 181.216 169.802C180.683 169.802 180.308 169.523 180.308 169.006C180.308 168.432 180.775 168.25 181.353 168.169C181.784 168.108 181.982 168.072 181.982 167.874C181.982 167.687 181.835 167.565 181.546 167.565C181.221 167.565 181.064 167.682 181.044 167.93H180.43C180.45 167.474 180.79 167.073 181.551 167.073C182.332 167.073 182.647 167.423 182.647 168.032V169.356C182.647 169.554 182.677 169.67 182.738 169.716V169.741H182.073ZM181.383 169.32C181.779 169.32 181.997 169.077 181.997 168.823V168.432C181.876 168.503 181.688 168.544 181.515 168.585C181.155 168.666 180.978 168.747 180.978 168.99C180.978 169.234 181.14 169.32 181.383 169.32Z" fill="#1A1A1A"/>
<path d="M183.095 169.741V166.114H183.785V169.741H183.095Z" fill="#1A1A1A"/>
<path d="M185.148 169.741V166.114H185.883V169.127H187.588V169.741H185.148Z" fill="#1A1A1A"/>
<path d="M187.95 169.741V167.139H188.64V169.741H187.95ZM187.95 166.733V166.114H188.64V166.733H187.95Z" fill="#1A1A1A"/>
<path d="M190.536 169.817C190.171 169.817 189.912 169.66 189.76 169.417H189.75V169.741H189.085V166.114H189.775V167.453H189.79C189.932 167.235 190.155 167.068 190.516 167.068C191.17 167.068 191.637 167.631 191.637 168.443C191.637 169.285 191.19 169.817 190.536 169.817ZM190.384 169.239C190.739 169.239 190.937 168.945 190.937 168.443C190.937 167.961 190.744 167.626 190.358 167.626C189.922 167.626 189.76 167.976 189.76 168.458C189.76 168.935 189.998 169.239 190.384 169.239Z" fill="#1A1A1A"/>
<path d="M192.623 167.139V167.555H192.638C192.795 167.26 192.973 167.108 193.277 167.108C193.354 167.108 193.399 167.113 193.44 167.129V167.732H193.425C192.973 167.687 192.648 167.925 192.648 168.473V169.741H191.958V167.139H192.623Z" fill="#1A1A1A"/>
<path d="M195.301 169.741C195.261 169.691 195.235 169.569 195.22 169.452H195.21C195.078 169.65 194.89 169.802 194.444 169.802C193.911 169.802 193.536 169.523 193.536 169.006C193.536 168.432 194.003 168.25 194.581 168.169C195.012 168.108 195.21 168.072 195.21 167.874C195.21 167.687 195.063 167.565 194.774 167.565C194.449 167.565 194.292 167.682 194.271 167.93H193.658C193.678 167.474 194.018 167.073 194.779 167.073C195.56 167.073 195.875 167.423 195.875 168.032V169.356C195.875 169.554 195.905 169.67 195.966 169.716V169.741H195.301ZM194.611 169.32C195.007 169.32 195.225 169.077 195.225 168.823V168.432C195.103 168.503 194.916 168.544 194.743 168.585C194.383 168.666 194.206 168.747 194.206 168.99C194.206 169.234 194.368 169.32 194.611 169.32Z" fill="#1A1A1A"/>
<path d="M196.978 167.139V167.555H196.993C197.15 167.26 197.328 167.108 197.632 167.108C197.708 167.108 197.754 167.113 197.795 167.129V167.732H197.779C197.328 167.687 197.003 167.925 197.003 168.473V169.741H196.313V167.139H196.978Z" fill="#1A1A1A"/>
<path d="M198.172 170.594V170.051H198.416C198.69 170.051 198.801 169.909 198.801 169.696C198.801 169.554 198.751 169.386 198.604 168.99L197.903 167.139H198.629L199.015 168.311C199.096 168.549 199.182 168.879 199.182 168.879H199.192C199.192 168.879 199.263 168.549 199.344 168.311L199.71 167.139H200.405L199.496 169.807C199.299 170.386 199.106 170.594 198.578 170.594H198.172Z" fill="#1A1A1A"/>
<path d="M275.341 176.989V173.361H278.01V173.98H276.077V174.792H277.771V175.396H276.077V176.375H278.025V176.989H275.341Z" fill="#1A1A1A"/>
<path d="M279.351 177.065C278.696 177.065 278.25 176.532 278.25 175.69C278.25 174.878 278.712 174.315 279.361 174.315C279.726 174.315 279.954 174.482 280.096 174.701H280.112V173.361H280.802V176.989H280.137V176.649H280.127C279.975 176.897 279.716 177.065 279.351 177.065ZM279.503 176.486C279.914 176.486 280.127 176.182 280.127 175.705C280.127 175.208 279.965 174.873 279.523 174.873C279.143 174.873 278.95 175.208 278.95 175.69C278.95 176.192 279.148 176.486 279.503 176.486Z" fill="#1A1A1A"/>
<path d="M283.558 176.989H282.894V176.684H282.879C282.701 176.923 282.498 177.06 282.133 177.06C281.555 177.06 281.23 176.689 281.23 176.121V174.386H281.915V176.004C281.915 176.309 282.052 176.476 282.346 176.476C282.671 176.476 282.868 176.233 282.868 175.888V174.386H283.558V176.989Z" fill="#1A1A1A"/>
<path d="M285.212 177.065C284.39 177.065 283.878 176.466 283.878 175.69C283.878 174.914 284.385 174.315 285.177 174.315C285.851 174.315 286.267 174.706 286.359 175.269H285.684C285.638 175.041 285.461 174.868 285.207 174.868C284.791 174.868 284.578 175.188 284.578 175.69C284.578 176.182 284.776 176.512 285.197 176.512C285.476 176.512 285.674 176.365 285.719 176.07H286.384C286.338 176.623 285.907 177.065 285.212 177.065Z" fill="#1A1A1A"/>
<path d="M288.373 176.989C288.333 176.938 288.307 176.816 288.292 176.699H288.282C288.15 176.897 287.962 177.05 287.516 177.05C286.983 177.05 286.608 176.77 286.608 176.253C286.608 175.68 287.074 175.497 287.653 175.416C288.084 175.355 288.282 175.32 288.282 175.122C288.282 174.934 288.135 174.812 287.846 174.812C287.521 174.812 287.364 174.929 287.343 175.178H286.729C286.75 174.721 287.09 174.32 287.851 174.32C288.632 174.32 288.946 174.67 288.946 175.279V176.603C288.946 176.801 288.977 176.918 289.038 176.963V176.989H288.373ZM287.683 176.568C288.079 176.568 288.297 176.324 288.297 176.07V175.68C288.175 175.751 287.988 175.791 287.815 175.832C287.455 175.913 287.277 175.994 287.277 176.238C287.277 176.481 287.44 176.568 287.683 176.568Z" fill="#1A1A1A"/>
<path d="M289.183 174.843V174.386H289.544V173.574H290.218V174.386H290.665V174.843H290.218V176.223C290.218 176.415 290.325 176.481 290.477 176.481C290.563 176.481 290.68 176.476 290.68 176.476V176.984C290.68 176.984 290.523 176.994 290.249 176.994C289.914 176.994 289.544 176.862 289.544 176.37V174.843H289.183Z" fill="#1A1A1A"/>
<path d="M291.02 176.989V174.386H291.71V176.989H291.02ZM291.02 173.98V173.361H291.71V173.98H291.02Z" fill="#1A1A1A"/>
<path d="M293.387 177.065C292.581 177.065 292.028 176.466 292.028 175.69C292.028 174.914 292.581 174.315 293.387 174.315C294.194 174.315 294.747 174.914 294.747 175.69C294.747 176.466 294.194 177.065 293.387 177.065ZM293.387 176.537C293.808 176.537 294.047 176.197 294.047 175.69C294.047 175.183 293.808 174.838 293.387 174.838C292.961 174.838 292.728 175.183 292.728 175.69C292.728 176.197 292.961 176.537 293.387 176.537Z" fill="#1A1A1A"/>
<path d="M295.742 174.386V174.741H295.758C295.935 174.462 296.174 174.315 296.529 174.315C297.066 174.315 297.427 174.721 297.427 175.289V176.989H296.737V175.391C296.737 175.112 296.574 174.914 296.285 174.914C295.981 174.914 295.758 175.157 295.758 175.512V176.989H295.068V174.386H295.742Z" fill="#1A1A1A"/>
<path d="M277.622 182.787V179.159H279.246C279.637 179.159 279.936 179.256 280.124 179.423C280.321 179.601 280.413 179.819 280.413 180.103C280.413 180.473 280.184 180.712 279.845 180.828V180.844C280.245 180.96 280.519 181.295 280.519 181.741C280.519 182.081 280.413 182.315 280.2 182.497C279.992 182.68 279.672 182.787 279.286 182.787H277.622ZM278.358 181.163V182.178H279.205C279.56 182.178 279.773 181.98 279.773 181.686C279.773 181.341 279.52 181.163 279.185 181.163H278.358ZM278.358 180.62H279.155C279.474 180.62 279.692 180.468 279.692 180.184C279.692 179.915 279.494 179.758 279.17 179.758H278.358V180.62Z" fill="#1A1A1A"/>
<path d="M283.204 182.787H282.54V182.482H282.524C282.347 182.721 282.144 182.858 281.779 182.858C281.2 182.858 280.876 182.487 280.876 181.919V180.184H281.561V181.802C281.561 182.107 281.697 182.274 281.992 182.274C282.316 182.274 282.514 182.031 282.514 181.686V180.184H283.204V182.787Z" fill="#1A1A1A"/>
<path d="M283.651 182.787V180.184H284.34V182.787H283.651ZM283.651 179.778V179.159H284.34V179.778H283.651Z" fill="#1A1A1A"/>
<path d="M284.795 182.787V179.159H285.485V182.787H284.795Z" fill="#1A1A1A"/>
<path d="M286.913 182.863C286.259 182.863 285.813 182.33 285.813 181.488C285.813 180.676 286.274 180.113 286.924 180.113C287.289 180.113 287.517 180.28 287.659 180.499H287.674V179.159H288.364V182.787H287.7V182.447H287.69C287.537 182.695 287.279 182.863 286.913 182.863ZM287.066 182.284C287.477 182.284 287.69 181.98 287.69 181.503C287.69 181.006 287.527 180.671 287.086 180.671C286.705 180.671 286.513 181.006 286.513 181.488C286.513 181.99 286.71 182.284 287.066 182.284Z" fill="#1A1A1A"/>
<path d="M288.813 182.787V180.184H289.503V182.787H288.813ZM288.813 179.778V179.159H289.503V179.778H288.813Z" fill="#1A1A1A"/>
<path d="M290.622 180.184V180.539H290.637C290.815 180.26 291.053 180.113 291.408 180.113C291.946 180.113 292.306 180.519 292.306 181.087V182.787H291.616V181.189C291.616 180.909 291.454 180.712 291.165 180.712C290.861 180.712 290.637 180.955 290.637 181.31V182.787H289.947V180.184H290.622Z" fill="#1A1A1A"/>
<path d="M293.878 183.674C293.168 183.674 292.732 183.37 292.661 182.863H293.346C293.401 183.025 293.548 183.152 293.868 183.152C294.259 183.152 294.446 182.964 294.446 182.609V182.325H294.431C294.279 182.497 294.081 182.629 293.751 182.629C293.173 182.629 292.605 182.173 292.605 181.386C292.605 180.61 293.072 180.113 293.731 180.113C294.056 180.113 294.294 180.24 294.451 180.458H294.462V180.184H295.126V182.589C295.126 182.954 295.01 183.203 294.817 183.38C294.599 183.583 294.264 183.674 293.878 183.674ZM293.868 182.076C294.304 182.076 294.482 181.757 294.482 181.371C294.482 180.991 294.279 180.666 293.863 180.666C293.513 180.666 293.28 180.94 293.28 181.376C293.28 181.818 293.513 182.076 293.868 182.076Z" fill="#1A1A1A"/>
<path d="M254.969 225.627C253.985 225.627 253.427 225.191 253.401 224.425H254.122C254.172 224.861 254.421 225.034 254.938 225.034C255.314 225.034 255.644 224.902 255.644 224.567C255.644 224.212 255.299 224.141 254.746 224.014C254.096 223.867 253.503 223.694 253.503 222.938C253.503 222.223 254.086 221.853 254.893 221.853C255.709 221.853 256.237 222.254 256.293 222.984H255.588C255.547 222.619 255.263 222.436 254.888 222.436C254.492 222.436 254.233 222.604 254.233 222.862C254.233 223.157 254.487 223.243 255.025 223.36C255.77 223.522 256.379 223.699 256.379 224.481C256.379 225.216 255.786 225.627 254.969 225.627Z" fill="#1A1A1A"/>
<path d="M256.586 223.4V222.944H256.946V222.132H257.621V222.944H258.067V223.4H257.621V224.78C257.621 224.973 257.727 225.039 257.879 225.039C257.966 225.039 258.082 225.034 258.082 225.034V225.541C258.082 225.541 257.925 225.551 257.651 225.551C257.316 225.551 256.946 225.419 256.946 224.927V223.4H256.586Z" fill="#1A1A1A"/>
<path d="M260.731 225.546H260.066V225.242H260.051C259.873 225.48 259.67 225.617 259.305 225.617C258.727 225.617 258.402 225.247 258.402 224.679V222.944H259.087V224.562C259.087 224.866 259.224 225.034 259.518 225.034C259.843 225.034 260.041 224.79 260.041 224.445V222.944H260.731V225.546Z" fill="#1A1A1A"/>
<path d="M262.151 225.622C261.497 225.622 261.05 225.089 261.05 224.247C261.05 223.436 261.512 222.873 262.161 222.873C262.526 222.873 262.755 223.04 262.897 223.258H262.912V221.919H263.602V225.546H262.937V225.206H262.927C262.775 225.455 262.516 225.622 262.151 225.622ZM262.303 225.044C262.714 225.044 262.927 224.739 262.927 224.263C262.927 223.765 262.765 223.431 262.323 223.431C261.943 223.431 261.75 223.765 261.75 224.247C261.75 224.75 261.948 225.044 262.303 225.044Z" fill="#1A1A1A"/>
<path d="M265.273 225.622C264.411 225.622 263.924 225.018 263.924 224.242C263.924 223.471 264.446 222.873 265.207 222.873C266.044 222.873 266.491 223.512 266.491 224.44H264.603C264.654 224.841 264.877 225.09 265.268 225.09C265.537 225.09 265.694 224.968 265.77 224.77H266.45C266.354 225.232 265.943 225.622 265.273 225.622ZM265.217 223.405C264.852 223.405 264.674 223.623 264.613 223.963H265.77C265.75 223.633 265.532 223.405 265.217 223.405Z" fill="#1A1A1A"/>
<path d="M267.485 222.944V223.299H267.5C267.677 223.02 267.916 222.873 268.271 222.873C268.809 222.873 269.169 223.278 269.169 223.847V225.546H268.479V223.948C268.479 223.669 268.317 223.471 268.027 223.471C267.723 223.471 267.5 223.715 267.5 224.07V225.546H266.81V222.944H267.485Z" fill="#1A1A1A"/>
<path d="M269.392 223.4V222.944H269.753V222.132H270.427V222.944H270.874V223.4H270.427V224.78C270.427 224.973 270.534 225.039 270.686 225.039C270.772 225.039 270.889 225.034 270.889 225.034V225.541C270.889 225.541 270.732 225.551 270.458 225.551C270.123 225.551 269.753 225.419 269.753 224.927V223.4H269.392Z" fill="#1A1A1A"/>
<path d="M272.137 225.546V221.919H272.873V223.339H274.298V221.919H275.034V225.546H274.298V223.948H272.873V225.546H272.137Z" fill="#1A1A1A"/>
<path d="M277.173 225.546C277.132 225.495 277.107 225.374 277.092 225.257H277.082C276.95 225.455 276.762 225.607 276.316 225.607C275.783 225.607 275.408 225.328 275.408 224.81C275.408 224.237 275.874 224.055 276.453 223.973C276.884 223.913 277.082 223.877 277.082 223.679C277.082 223.491 276.935 223.37 276.645 223.37C276.321 223.37 276.163 223.486 276.143 223.735H275.529C275.55 223.278 275.889 222.878 276.65 222.878C277.432 222.878 277.746 223.228 277.746 223.836V225.161C277.746 225.358 277.777 225.475 277.838 225.521V225.546H277.173ZM276.483 225.125C276.879 225.125 277.097 224.882 277.097 224.628V224.237C276.975 224.308 276.787 224.349 276.615 224.389C276.255 224.471 276.077 224.552 276.077 224.795C276.077 225.039 276.24 225.125 276.483 225.125Z" fill="#1A1A1A"/>
<path d="M278.195 225.546V221.919H278.885V225.546H278.195Z" fill="#1A1A1A"/>
<path d="M279.349 225.546V221.919H280.039V225.546H279.349Z" fill="#1A1A1A"/>
<path d="M186.008 214.675L187.272 211.048H188.033L189.311 214.675H188.545L188.301 213.904H186.993L186.754 214.675H186.008ZM187.49 212.296L187.165 213.341H188.124L187.799 212.296C187.738 212.103 187.652 211.738 187.652 211.738H187.642C187.642 211.738 187.551 212.103 187.49 212.296Z" fill="#1A1A1A"/>
<path d="M190.436 214.751C189.781 214.751 189.335 214.218 189.335 213.376C189.335 212.565 189.796 212.001 190.446 212.001C190.811 212.001 191.039 212.169 191.181 212.387H191.196V211.048H191.886V214.675H191.222V214.335H191.212C191.06 214.584 190.801 214.751 190.436 214.751ZM190.588 214.173C190.999 214.173 191.212 213.868 191.212 213.392C191.212 212.894 191.049 212.56 190.608 212.56C190.228 212.56 190.035 212.894 190.035 213.376C190.035 213.879 190.233 214.173 190.588 214.173Z" fill="#1A1A1A"/>
<path d="M192.335 214.675V212.072H193V212.423H193.015C193.157 212.184 193.41 212.001 193.771 212.001C194.1 212.001 194.364 212.184 194.491 212.458H194.501C194.679 212.174 194.953 212.001 195.282 212.001C195.83 212.001 196.14 212.357 196.14 212.925V214.675H195.45V213.041C195.45 212.747 195.303 212.595 195.049 212.595C194.76 212.595 194.582 212.818 194.582 213.163V214.675H193.892V213.041C193.892 212.747 193.745 212.595 193.492 212.595C193.213 212.595 193.025 212.818 193.025 213.163V214.675H192.335Z" fill="#1A1A1A"/>
<path d="M196.566 214.675V212.072H197.256V214.675H196.566ZM196.566 211.667V211.048H197.256V211.667H196.566Z" fill="#1A1A1A"/>
<path d="M198.375 212.072V212.428H198.39C198.568 212.149 198.806 212.001 199.161 212.001C199.699 212.001 200.059 212.407 200.059 212.976V214.675H199.369V213.077C199.369 212.798 199.207 212.6 198.918 212.6C198.614 212.6 198.39 212.844 198.39 213.199V214.675H197.7V212.072H198.375Z" fill="#1A1A1A"/>
<path d="M200.485 214.675V212.072H201.175V214.675H200.485ZM200.485 211.667V211.048H201.175V211.667H200.485Z" fill="#1A1A1A"/>
<path d="M202.674 214.751C201.919 214.751 201.497 214.386 201.457 213.833H202.096C202.142 214.132 202.355 214.264 202.664 214.264C202.969 214.264 203.141 214.147 203.141 213.965C203.141 213.716 202.811 213.691 202.456 213.62C201.99 213.528 201.533 213.402 201.533 212.833C201.533 212.27 202 212.001 202.593 212.001C203.278 212.001 203.659 212.341 203.709 212.864H203.085C203.055 212.585 202.877 212.483 202.583 212.483C202.314 212.483 202.137 212.585 202.137 212.773C202.137 212.996 202.482 213.016 202.852 213.092C203.288 213.184 203.77 213.305 203.77 213.914C203.77 214.437 203.324 214.751 202.674 214.751Z" fill="#1A1A1A"/>
<path d="M203.88 212.529V212.072H204.24V211.261H204.915V212.072H205.361V212.529H204.915V213.909C204.915 214.102 205.021 214.168 205.173 214.168C205.26 214.168 205.376 214.163 205.376 214.163V214.67C205.376 214.67 205.219 214.68 204.945 214.68C204.61 214.68 204.24 214.548 204.24 214.056V212.529H203.88Z" fill="#1A1A1A"/>
<path d="M206.381 212.072V212.488H206.396C206.553 212.194 206.731 212.042 207.035 212.042C207.112 212.042 207.157 212.047 207.198 212.062V212.666H207.183C206.731 212.62 206.406 212.859 206.406 213.407V214.675H205.716V212.072H206.381Z" fill="#1A1A1A"/>
<path d="M209.059 214.675C209.019 214.624 208.993 214.503 208.978 214.386H208.968C208.836 214.584 208.648 214.736 208.202 214.736C207.669 214.736 207.294 214.457 207.294 213.939C207.294 213.366 207.761 213.184 208.339 213.102C208.77 213.041 208.968 213.006 208.968 212.808C208.968 212.62 208.821 212.499 208.532 212.499C208.207 212.499 208.05 212.615 208.029 212.864H207.416C207.436 212.407 207.776 212.007 208.537 212.007C209.318 212.007 209.633 212.357 209.633 212.965V214.289C209.633 214.487 209.663 214.604 209.724 214.65V214.675H209.059ZM208.369 214.254C208.765 214.254 208.983 214.01 208.983 213.757V213.366C208.861 213.437 208.674 213.478 208.501 213.518C208.141 213.6 207.964 213.681 207.964 213.924C207.964 214.168 208.126 214.254 208.369 214.254Z" fill="#1A1A1A"/>
<path d="M209.869 212.529V212.072H210.23V211.261H210.904V212.072H211.351V212.529H210.904V213.909C210.904 214.102 211.011 214.168 211.163 214.168C211.249 214.168 211.366 214.163 211.366 214.163V214.67C211.366 214.67 211.209 214.68 210.935 214.68C210.6 214.68 210.23 214.548 210.23 214.056V212.529H209.869Z" fill="#1A1A1A"/>
<path d="M211.706 214.675V212.072H212.396V214.675H211.706ZM211.706 211.667V211.048H212.396V211.667H211.706Z" fill="#1A1A1A"/>
<path d="M214.073 214.751C213.267 214.751 212.714 214.152 212.714 213.376C212.714 212.6 213.267 212.001 214.073 212.001C214.88 212.001 215.433 212.6 215.433 213.376C215.433 214.152 214.88 214.751 214.073 214.751ZM214.073 214.223C214.494 214.223 214.733 213.884 214.733 213.376C214.733 212.869 214.494 212.524 214.073 212.524C213.647 212.524 213.414 212.869 213.414 213.376C213.414 213.884 213.647 214.223 214.073 214.223Z" fill="#1A1A1A"/>
<path d="M216.428 212.072V212.428H216.444C216.621 212.149 216.86 212.001 217.215 212.001C217.753 212.001 218.113 212.407 218.113 212.976V214.675H217.423V213.077C217.423 212.798 217.26 212.6 216.971 212.6C216.667 212.6 216.444 212.844 216.444 213.199V214.675H215.754V212.072H216.428Z" fill="#1A1A1A"/>
<path d="M219.446 214.675V211.048H221.069C221.46 211.048 221.759 211.144 221.947 211.311C222.145 211.489 222.236 211.707 222.236 211.991C222.236 212.362 222.008 212.6 221.668 212.717V212.732C222.069 212.849 222.343 213.184 222.343 213.63C222.343 213.97 222.236 214.203 222.023 214.386C221.815 214.568 221.496 214.675 221.11 214.675H219.446ZM220.182 213.052V214.066H221.029C221.384 214.066 221.597 213.868 221.597 213.574C221.597 213.229 221.343 213.052 221.008 213.052H220.182ZM220.182 212.509H220.978C221.298 212.509 221.516 212.357 221.516 212.072C221.516 211.804 221.318 211.646 220.993 211.646H220.182V212.509Z" fill="#1A1A1A"/>
<path d="M225.028 214.675H224.363V214.371H224.348C224.17 214.609 223.967 214.746 223.602 214.746C223.024 214.746 222.699 214.376 222.699 213.807V212.072H223.384V213.691C223.384 213.995 223.521 214.163 223.815 214.163C224.14 214.163 224.338 213.919 224.338 213.574V212.072H225.028V214.675Z" fill="#1A1A1A"/>
<path d="M225.474 214.675V212.072H226.164V214.675H225.474ZM225.474 211.667V211.048H226.164V211.667H225.474Z" fill="#1A1A1A"/>
<path d="M226.619 214.675V211.048H227.309V214.675H226.619Z" fill="#1A1A1A"/>
<path d="M228.737 214.751C228.082 214.751 227.636 214.218 227.636 213.376C227.636 212.565 228.098 212.001 228.747 212.001C229.112 212.001 229.341 212.169 229.483 212.387H229.498V211.048H230.188V214.675H229.523V214.335H229.513C229.361 214.584 229.102 214.751 228.737 214.751ZM228.889 214.173C229.3 214.173 229.513 213.868 229.513 213.392C229.513 212.894 229.351 212.56 228.909 212.56C228.529 212.56 228.336 212.894 228.336 213.376C228.336 213.879 228.534 214.173 228.889 214.173Z" fill="#1A1A1A"/>
<path d="M230.636 214.675V212.072H231.326V214.675H230.636ZM230.636 211.667V211.048H231.326V211.667H230.636Z" fill="#1A1A1A"/>
<path d="M232.446 212.072V212.428H232.461C232.638 212.149 232.877 212.001 233.232 212.001C233.77 212.001 234.13 212.407 234.13 212.976V214.675H233.44V213.077C233.44 212.798 233.278 212.6 232.988 212.6C232.684 212.6 232.461 212.844 232.461 213.199V214.675H231.771V212.072H232.446Z" fill="#1A1A1A"/>
<path d="M235.702 215.563C234.991 215.563 234.555 215.258 234.484 214.751H235.169C235.225 214.913 235.372 215.04 235.692 215.04C236.082 215.04 236.27 214.853 236.27 214.497V214.213H236.255C236.102 214.386 235.905 214.518 235.575 214.518C234.997 214.518 234.428 214.061 234.428 213.275C234.428 212.499 234.895 212.001 235.555 212.001C235.879 212.001 236.118 212.128 236.275 212.346H236.285V212.072H236.95V214.477C236.95 214.842 236.833 215.091 236.64 215.269C236.422 215.472 236.087 215.563 235.702 215.563ZM235.692 213.965C236.128 213.965 236.305 213.645 236.305 213.26C236.305 212.879 236.102 212.554 235.686 212.554C235.336 212.554 235.103 212.828 235.103 213.265C235.103 213.706 235.336 213.965 235.692 213.965Z" fill="#1A1A1A"/>
<path d="M191.626 221.138V216.648H192.047V221.138H191.626Z" fill="#1A1A1A"/>
<path d="M193.498 220.473V216.846H195.162C195.862 216.846 196.329 217.251 196.329 217.855C196.329 218.281 196.131 218.606 195.664 218.733V218.748C195.999 218.844 196.172 219.037 196.217 219.479C196.268 219.991 196.248 220.382 196.375 220.437V220.473H195.669C195.578 220.432 195.568 220.026 195.537 219.636C195.507 219.24 195.284 219.017 194.827 219.017H194.234V220.473H193.498ZM194.234 217.439V218.449H195.015C195.416 218.449 195.614 218.241 195.614 217.952C195.614 217.657 195.426 217.439 195.035 217.439H194.234Z" fill="#1A1A1A"/>
<path d="M197.945 220.549C197.082 220.549 196.595 219.945 196.595 219.169C196.595 218.398 197.118 217.799 197.879 217.799C198.716 217.799 199.162 218.439 199.162 219.367H197.275C197.326 219.768 197.549 220.016 197.939 220.016C198.208 220.016 198.366 219.895 198.442 219.697H199.122C199.025 220.158 198.614 220.549 197.945 220.549ZM197.889 218.332C197.523 218.332 197.346 218.55 197.285 218.89H198.442C198.421 218.56 198.203 218.332 197.889 218.332Z" fill="#1A1A1A"/>
<path d="M200.537 220.549C199.781 220.549 199.36 220.184 199.319 219.631H199.958C200.004 219.93 200.217 220.062 200.527 220.062C200.831 220.062 201.003 219.945 201.003 219.763C201.003 219.514 200.674 219.489 200.319 219.418C199.852 219.326 199.395 219.2 199.395 218.631C199.395 218.068 199.862 217.799 200.456 217.799C201.14 217.799 201.521 218.139 201.572 218.662H200.948C200.917 218.383 200.74 218.281 200.445 218.281C200.176 218.281 199.999 218.383 199.999 218.57C199.999 218.794 200.344 218.814 200.714 218.89C201.151 218.981 201.632 219.103 201.632 219.712C201.632 220.234 201.186 220.549 200.537 220.549Z" fill="#1A1A1A"/>
<path d="M203.191 220.549C202.329 220.549 201.842 219.945 201.842 219.169C201.842 218.398 202.364 217.799 203.125 217.799C203.962 217.799 204.409 218.439 204.409 219.367H202.521C202.572 219.768 202.795 220.016 203.186 220.016C203.455 220.016 203.612 219.895 203.688 219.697H204.368C204.272 220.158 203.861 220.549 203.191 220.549ZM203.135 218.332C202.77 218.332 202.592 218.55 202.532 218.89H203.688C203.668 218.56 203.45 218.332 203.135 218.332Z" fill="#1A1A1A"/>
<path d="M206.367 220.473C206.326 220.422 206.301 220.3 206.285 220.184H206.275C206.143 220.382 205.956 220.534 205.509 220.534C204.977 220.534 204.601 220.255 204.601 219.737C204.601 219.164 205.068 218.981 205.646 218.9C206.077 218.839 206.275 218.804 206.275 218.606C206.275 218.418 206.128 218.297 205.839 218.297C205.514 218.297 205.357 218.413 205.337 218.662H204.723C204.743 218.205 205.083 217.804 205.844 217.804C206.625 217.804 206.94 218.154 206.94 218.763V220.087C206.94 220.285 206.97 220.402 207.031 220.448V220.473H206.367ZM205.677 220.052C206.072 220.052 206.291 219.808 206.291 219.555V219.164C206.169 219.235 205.981 219.276 205.809 219.316C205.448 219.397 205.271 219.479 205.271 219.722C205.271 219.966 205.433 220.052 205.677 220.052Z" fill="#1A1A1A"/>
<path d="M208.043 217.87V218.286H208.058C208.216 217.992 208.393 217.84 208.698 217.84C208.774 217.84 208.819 217.845 208.86 217.86V218.464H208.845C208.393 218.418 208.068 218.657 208.068 219.205V220.473H207.379V217.87H208.043Z" fill="#1A1A1A"/>
<path d="M210.29 220.549C209.468 220.549 208.956 219.95 208.956 219.174C208.956 218.398 209.463 217.799 210.255 217.799C210.929 217.799 211.345 218.19 211.437 218.753H210.762C210.716 218.525 210.539 218.352 210.285 218.352C209.869 218.352 209.656 218.672 209.656 219.174C209.656 219.666 209.854 219.996 210.275 219.996C210.554 219.996 210.752 219.849 210.798 219.555H211.462C211.416 220.108 210.985 220.549 210.29 220.549Z" fill="#1A1A1A"/>
<path d="M212.453 216.846V218.21H212.468C212.656 217.936 212.869 217.799 213.224 217.799C213.762 217.799 214.122 218.205 214.122 218.773V220.473H213.432V218.875C213.432 218.596 213.27 218.398 212.981 218.398C212.676 218.398 212.453 218.641 212.453 218.997V220.473H211.763V216.846H212.453Z" fill="#1A1A1A"/>
<path d="M215.455 220.473V216.846H217.079C217.469 216.846 217.769 216.942 217.956 217.109C218.154 217.287 218.246 217.505 218.246 217.789C218.246 218.16 218.017 218.398 217.677 218.515V218.53C218.078 218.647 218.352 218.981 218.352 219.428C218.352 219.768 218.246 220.001 218.032 220.184C217.824 220.366 217.505 220.473 217.119 220.473H215.455ZM216.191 218.85V219.864H217.038C217.393 219.864 217.606 219.666 217.606 219.372C217.606 219.027 217.353 218.85 217.018 218.85H216.191ZM216.191 218.307H216.987C217.307 218.307 217.525 218.154 217.525 217.87C217.525 217.602 217.327 217.444 217.003 217.444H216.191V218.307Z" fill="#1A1A1A"/>
<path d="M221.037 220.473H220.372V220.169H220.357C220.18 220.407 219.977 220.544 219.612 220.544C219.033 220.544 218.708 220.174 218.708 219.605V217.87H219.393V219.489C219.393 219.793 219.53 219.961 219.825 219.961C220.149 219.961 220.347 219.717 220.347 219.372V217.87H221.037V220.473Z" fill="#1A1A1A"/>
<path d="M221.483 220.473V217.87H222.173V220.473H221.483ZM221.483 217.465V216.846H222.173V217.465H221.483Z" fill="#1A1A1A"/>
<path d="M222.628 220.473V216.846H223.318V220.473H222.628Z" fill="#1A1A1A"/>
<path d="M224.746 220.549C224.092 220.549 223.645 220.016 223.645 219.174C223.645 218.362 224.107 217.799 224.756 217.799C225.122 217.799 225.35 217.967 225.492 218.185H225.507V216.846H226.197V220.473H225.533V220.133H225.522C225.37 220.382 225.112 220.549 224.746 220.549ZM224.898 219.971C225.309 219.971 225.522 219.666 225.522 219.189C225.522 218.692 225.36 218.357 224.919 218.357C224.538 218.357 224.345 218.692 224.345 219.174C224.345 219.676 224.543 219.971 224.898 219.971Z" fill="#1A1A1A"/>
<path d="M226.646 220.473V217.87H227.336V220.473H226.646ZM226.646 217.465V216.846H227.336V217.465H226.646Z" fill="#1A1A1A"/>
<path d="M228.455 217.87V218.226H228.47C228.648 217.946 228.886 217.799 229.241 217.799C229.779 217.799 230.139 218.205 230.139 218.773V220.473H229.449V218.875C229.449 218.596 229.287 218.398 228.998 218.398C228.693 218.398 228.47 218.641 228.47 218.997V220.473H227.78V217.87H228.455Z" fill="#1A1A1A"/>
<path d="M231.711 221.361C231.001 221.361 230.564 221.056 230.493 220.549H231.178C231.234 220.711 231.381 220.838 231.701 220.838C232.092 220.838 232.279 220.65 232.279 220.295V220.011H232.264C232.112 220.184 231.914 220.316 231.584 220.316C231.006 220.316 230.438 219.859 230.438 219.073C230.438 218.297 230.904 217.799 231.564 217.799C231.889 217.799 232.127 217.926 232.284 218.144H232.294V217.87H232.959V220.275C232.959 220.64 232.842 220.889 232.65 221.066C232.431 221.269 232.097 221.361 231.711 221.361ZM231.701 219.763C232.137 219.763 232.315 219.443 232.315 219.058C232.315 218.677 232.112 218.352 231.696 218.352C231.346 218.352 231.112 218.626 231.112 219.063C231.112 219.504 231.346 219.763 231.701 219.763Z" fill="#1A1A1A"/>
<path d="M31.6536 127.287C30.6694 127.287 30.1113 126.85 30.086 126.084H30.8064C30.8571 126.52 31.1057 126.693 31.6231 126.693C31.9986 126.693 32.3283 126.561 32.3283 126.226C32.3283 125.871 31.9833 125.8 31.4304 125.673C30.781 125.526 30.1874 125.354 30.1874 124.598C30.1874 123.882 30.7709 123.512 31.5775 123.512C32.3943 123.512 32.9219 123.913 32.9777 124.643H32.2725C32.2319 124.278 31.9478 124.096 31.5724 124.096C31.1767 124.096 30.918 124.263 30.918 124.522C30.918 124.816 31.1716 124.902 31.7094 125.019C32.4551 125.181 33.0639 125.359 33.0639 126.14C33.0639 126.876 32.4704 127.287 31.6536 127.287Z" fill="#1A1A1A"/>
<path d="M33.5033 127.205V123.578H34.249L35.4564 125.602C35.5731 125.8 35.7101 126.11 35.7101 126.11H35.7202C35.7202 126.11 35.7 125.734 35.7 125.48V123.578H36.4254V127.205H35.7152L34.4773 125.201C34.3606 125.009 34.2186 124.699 34.2186 124.699H34.2084C34.2084 124.699 34.2287 125.08 34.2287 125.333V127.205H33.5033Z" fill="#1A1A1A"/>
<path d="M38.3814 127.266C37.4428 127.266 36.9507 126.825 36.9507 126.039V123.578H37.6863V126.039C37.6863 126.414 37.874 126.678 38.3661 126.678C38.8329 126.678 39.051 126.404 39.051 126.028V123.578H39.7866V126.039C39.7866 126.815 39.3097 127.266 38.3814 127.266Z" fill="#1A1A1A"/>
<path d="M41.1675 127.205V123.578H42.5829C43.5519 123.578 44.1759 124.359 44.1759 125.43C44.1759 126.018 43.9781 126.536 43.5976 126.855C43.3287 127.079 42.9786 127.205 42.5221 127.205H41.1675ZM41.9031 126.571H42.4713C43.1613 126.571 43.4301 126.15 43.4301 125.43C43.4301 124.709 43.1156 124.207 42.4916 124.207H41.9031V126.571Z" fill="#1A1A1A"/>
<path d="M45.7429 127.281C44.8804 127.281 44.3934 126.678 44.3934 125.902C44.3934 125.13 44.916 124.532 45.6769 124.532C46.514 124.532 46.9604 125.171 46.9604 126.099H45.0732C45.124 126.5 45.3472 126.749 45.7378 126.749C46.0067 126.749 46.164 126.627 46.24 126.429H46.9199C46.8235 126.891 46.4125 127.281 45.7429 127.281ZM45.6871 125.064C45.3218 125.064 45.1442 125.283 45.0834 125.623H46.24C46.2198 125.293 46.0016 125.064 45.6871 125.064Z" fill="#1A1A1A"/>
<path d="M47.9545 124.603V124.958H47.9697C48.1473 124.679 48.3857 124.532 48.7408 124.532C49.2786 124.532 49.6388 124.938 49.6388 125.506V127.205H48.9488V125.607C48.9488 125.328 48.7865 125.13 48.4973 125.13C48.1929 125.13 47.9697 125.374 47.9697 125.729V127.205H47.2798V124.603H47.9545Z" fill="#1A1A1A"/>
<path d="M49.8623 125.059V124.603H50.2225V123.791H50.8973V124.603H51.3437V125.059H50.8973V126.439C50.8973 126.632 51.0038 126.698 51.156 126.698C51.2422 126.698 51.3589 126.693 51.3589 126.693V127.2C51.3589 127.2 51.2016 127.21 50.9277 127.21C50.5929 127.21 50.2225 127.079 50.2225 126.586V125.059H49.8623Z" fill="#1A1A1A"/>
<path d="M53.3624 127.205C53.3218 127.155 53.2964 127.033 53.2812 126.916H53.2711C53.1392 127.114 52.9514 127.266 52.505 127.266C51.9723 127.266 51.5969 126.987 51.5969 126.47C51.5969 125.896 52.0636 125.714 52.642 125.633C53.0732 125.572 53.2711 125.536 53.2711 125.338C53.2711 125.151 53.1239 125.029 52.8348 125.029C52.5101 125.029 52.3528 125.146 52.3325 125.394H51.7187C51.739 124.938 52.0789 124.537 52.8398 124.537C53.6211 124.537 53.9356 124.887 53.9356 125.496V126.82C53.9356 127.018 53.9661 127.134 54.027 127.18V127.205H53.3624ZM52.6724 126.784C53.0681 126.784 53.2863 126.541 53.2863 126.287V125.896C53.1645 125.968 52.9768 126.008 52.8043 126.049C52.4441 126.13 52.2666 126.211 52.2666 126.455C52.2666 126.698 52.4289 126.784 52.6724 126.784Z" fill="#1A1A1A"/>
<path d="M54.3844 127.205V123.578H55.0744V127.205H54.3844Z" fill="#1A1A1A"/>
<path d="M30.2483 133.003V129.376H30.9839V130.796H32.4095V129.376H33.1451V133.003H32.4095V131.405H30.9839V133.003H30.2483Z" fill="#1A1A1A"/>
<path d="M34.8784 133.079C34.0718 133.079 33.5188 132.481 33.5188 131.705C33.5188 130.928 34.0718 130.33 34.8784 130.33C35.685 130.33 36.238 130.928 36.238 131.705C36.238 132.481 35.685 133.079 34.8784 133.079ZM34.8784 132.552C35.2995 132.552 35.5379 132.212 35.5379 131.705C35.5379 131.197 35.2995 130.852 34.8784 130.852C34.4523 130.852 34.2189 131.197 34.2189 131.705C34.2189 132.212 34.4523 132.552 34.8784 132.552Z" fill="#1A1A1A"/>
<path d="M37.614 133.079C36.8581 133.079 36.437 132.714 36.3964 132.161H37.0356C37.0813 132.46 37.2944 132.592 37.6038 132.592C37.9082 132.592 38.0807 132.476 38.0807 132.293C38.0807 132.044 37.7509 132.019 37.3958 131.948C36.9291 131.857 36.4725 131.73 36.4725 131.162C36.4725 130.599 36.9392 130.33 37.5328 130.33C38.2177 130.33 38.5982 130.67 38.6489 131.192H38.0249C37.9944 130.913 37.8169 130.812 37.5226 130.812C37.2538 130.812 37.0762 130.913 37.0762 131.101C37.0762 131.324 37.4212 131.344 37.7915 131.42C38.2278 131.512 38.7098 131.634 38.7098 132.242C38.7098 132.765 38.2633 133.079 37.614 133.079Z" fill="#1A1A1A"/>
<path d="M39.021 133.856V130.401H39.6856V130.725H39.7008C39.8682 130.497 40.1117 130.33 40.4669 130.33C41.1568 130.33 41.5982 130.893 41.5982 131.705C41.5982 132.547 41.1416 133.079 40.4719 133.079C40.1067 133.079 39.8682 132.932 39.7211 132.709H39.711V133.856H39.021ZM40.3248 132.506C40.6749 132.506 40.8981 132.217 40.8981 131.725C40.8981 131.233 40.7256 130.888 40.2994 130.888C39.8682 130.888 39.6957 131.258 39.6957 131.725C39.6957 132.197 39.9139 132.506 40.3248 132.506Z" fill="#1A1A1A"/>
<path d="M41.9193 133.003V130.401H42.6092V133.003H41.9193ZM41.9193 129.995V129.376H42.6092V129.995H41.9193Z" fill="#1A1A1A"/>
<path d="M42.9016 130.857V130.401H43.2618V129.589H43.9365V130.401H44.383V130.857H43.9365V132.237C43.9365 132.43 44.0431 132.496 44.1952 132.496C44.2815 132.496 44.3982 132.491 44.3982 132.491V132.998C44.3982 132.998 44.2409 133.008 43.967 133.008C43.6321 133.008 43.2618 132.876 43.2618 132.384V130.857H42.9016Z" fill="#1A1A1A"/>
<path d="M46.4016 133.003C46.3611 132.953 46.3357 132.831 46.3205 132.714H46.3103C46.1784 132.912 45.9907 133.064 45.5443 133.064C45.0116 133.064 44.6362 132.785 44.6362 132.268C44.6362 131.694 45.1029 131.512 45.6812 131.431C46.1125 131.37 46.3103 131.334 46.3103 131.136C46.3103 130.949 46.1632 130.827 45.874 130.827C45.5493 130.827 45.3921 130.944 45.3718 131.192H44.7579C44.7782 130.736 45.1181 130.335 45.8791 130.335C46.6604 130.335 46.9749 130.685 46.9749 131.294V132.618C46.9749 132.816 47.0053 132.932 47.0662 132.978V133.003H46.4016ZM45.7117 132.582C46.1074 132.582 46.3255 132.339 46.3255 132.085V131.694C46.2038 131.765 46.0161 131.806 45.8436 131.847C45.4834 131.928 45.3058 132.009 45.3058 132.252C45.3058 132.496 45.4682 132.582 45.7117 132.582Z" fill="#1A1A1A"/>
<path d="M47.4237 133.003V129.376H48.1136V133.003H47.4237Z" fill="#1A1A1A"/>
<path d="M30.5629 215.762L30.5376 215.275H30.5274C30.2788 215.691 29.9389 215.838 29.5077 215.838C28.9598 215.838 28.5337 215.64 28.2344 215.311C27.935 214.976 27.7626 214.509 27.7626 213.961C27.7626 213.357 27.9756 212.83 28.3561 212.48C28.6504 212.211 29.0359 212.064 29.5229 212.064C30.4361 212.064 30.9586 212.566 31.0753 213.276H30.3549C30.2738 212.926 30.0049 212.673 29.5382 212.673C28.8533 212.673 28.5134 213.241 28.5134 213.961C28.5134 214.702 28.904 215.245 29.528 215.245C30.0911 215.245 30.4615 214.824 30.4615 214.423V214.403H29.5889V213.834H31.1159V215.762H30.5629Z" fill="#1A1A1A"/>
<path d="M31.5845 215.762V212.135H32.2745V215.762H31.5845Z" fill="#1A1A1A"/>
<path d="M33.9615 215.838C33.1549 215.838 32.6019 215.24 32.6019 214.463C32.6019 213.687 33.1549 213.089 33.9615 213.089C34.7682 213.089 35.3211 213.687 35.3211 214.463C35.3211 215.24 34.7682 215.838 33.9615 215.838ZM33.9615 215.311C34.3826 215.311 34.621 214.971 34.621 214.463C34.621 213.956 34.3826 213.611 33.9615 213.611C33.5354 213.611 33.302 213.956 33.302 214.463C33.302 214.971 33.5354 215.311 33.9615 215.311Z" fill="#1A1A1A"/>
<path d="M37.0928 215.838C36.7275 215.838 36.4688 215.681 36.3166 215.437H36.3064V215.762H35.6419V212.135H36.3318V213.474H36.347C36.4891 213.256 36.7123 213.089 37.0725 213.089C37.7269 213.089 38.1937 213.652 38.1937 214.463C38.1937 215.306 37.7472 215.838 37.0928 215.838ZM36.9406 215.26C37.2957 215.26 37.4936 214.966 37.4936 214.463C37.4936 213.981 37.3008 213.647 36.9152 213.647C36.4789 213.647 36.3166 213.997 36.3166 214.479C36.3166 214.956 36.555 215.26 36.9406 215.26Z" fill="#1A1A1A"/>
<path d="M40.154 215.762C40.1134 215.711 40.088 215.59 40.0728 215.473H40.0626C39.9307 215.671 39.743 215.823 39.2966 215.823C38.7639 215.823 38.3885 215.544 38.3885 215.027C38.3885 214.453 38.8552 214.271 39.4336 214.189C39.8648 214.129 40.0626 214.093 40.0626 213.895C40.0626 213.707 39.9155 213.586 39.6263 213.586C39.3017 213.586 39.1444 213.702 39.1241 213.951H38.5103C38.5305 213.494 38.8704 213.094 39.6314 213.094C40.4127 213.094 40.7272 213.444 40.7272 214.052V215.377C40.7272 215.574 40.7577 215.691 40.8185 215.737V215.762H40.154ZM39.464 215.341C39.8597 215.341 40.0779 215.098 40.0779 214.844V214.453C39.9561 214.524 39.7684 214.565 39.5959 214.605C39.2357 214.687 39.0582 214.768 39.0582 215.011C39.0582 215.255 39.2205 215.341 39.464 215.341Z" fill="#1A1A1A"/>
<path d="M41.176 215.762V212.135H41.866V215.762H41.176Z" fill="#1A1A1A"/>
<path d="M29.1358 221.636C28.1161 221.636 27.3906 220.85 27.3906 219.759C27.3906 218.684 28.0603 217.862 29.1307 217.862C30.0236 217.862 30.5512 218.394 30.6273 219.084H29.8968C29.8308 218.719 29.5569 218.481 29.1307 218.481C28.4611 218.481 28.1415 219.039 28.1415 219.759C28.1415 220.5 28.527 221.032 29.1358 221.032C29.567 221.032 29.8714 220.774 29.9171 220.393H30.6375C30.6172 220.713 30.4802 221.022 30.2367 221.251C29.9881 221.484 29.638 221.636 29.1358 221.636Z" fill="#1A1A1A"/>
<path d="M32.2075 221.636C31.345 221.636 30.858 221.032 30.858 220.256C30.858 219.485 31.3806 218.886 32.1415 218.886C32.9786 218.886 33.425 219.526 33.425 220.454H31.5378C31.5886 220.855 31.8118 221.103 32.2024 221.103C32.4713 221.103 32.6285 220.982 32.7046 220.784H33.3845C33.2881 221.245 32.8771 221.636 32.2075 221.636ZM32.1517 219.419C31.7864 219.419 31.6088 219.637 31.548 219.977H32.7046C32.6844 219.647 32.4662 219.419 32.1517 219.419Z" fill="#1A1A1A"/>
<path d="M34.4191 218.958V219.313H34.4343C34.6119 219.034 34.8503 218.886 35.2054 218.886C35.7432 218.886 36.1034 219.292 36.1034 219.861V221.56H35.4134V219.962C35.4134 219.683 35.2511 219.485 34.9619 219.485C34.6575 219.485 34.4343 219.729 34.4343 220.084V221.56H33.7444V218.958H34.4191Z" fill="#1A1A1A"/>
<path d="M36.3269 219.414V218.958H36.6871V218.146H37.3619V218.958H37.8083V219.414H37.3619V220.794C37.3619 220.987 37.4684 221.053 37.6206 221.053C37.7068 221.053 37.8235 221.048 37.8235 221.048V221.555C37.8235 221.555 37.6662 221.565 37.3923 221.565C37.0575 221.565 36.6871 221.433 36.6871 220.941V219.414H36.3269Z" fill="#1A1A1A"/>
<path d="M39.3614 221.636C38.499 221.636 38.012 221.032 38.012 220.256C38.012 219.485 38.5345 218.886 39.2955 218.886C40.1326 218.886 40.579 219.526 40.579 220.454H38.6918C38.7425 220.855 38.9657 221.103 39.3564 221.103C39.6252 221.103 39.7825 220.982 39.8586 220.784H40.5384C40.442 221.245 40.0311 221.636 39.3614 221.636ZM39.3056 219.419C38.9404 219.419 38.7628 219.637 38.7019 219.977H39.8586C39.8383 219.647 39.6202 219.419 39.3056 219.419Z" fill="#1A1A1A"/>
<path d="M41.5629 218.958V219.374H41.5781C41.7354 219.079 41.913 218.927 42.2173 218.927C42.2934 218.927 42.3391 218.932 42.3797 218.947V219.551H42.3645C41.913 219.505 41.5883 219.744 41.5883 220.292V221.56H40.8983V218.958H41.5629Z" fill="#1A1A1A"/>
<path d="M170.441 127.649C169.457 127.649 168.899 127.213 168.873 126.447H169.594C169.644 126.883 169.893 127.056 170.41 127.056C170.786 127.056 171.116 126.924 171.116 126.589C171.116 126.234 170.771 126.163 170.218 126.036C169.568 125.889 168.975 125.716 168.975 124.96C168.975 124.245 169.558 123.875 170.365 123.875C171.182 123.875 171.709 124.275 171.765 125.006H171.06C171.019 124.641 170.735 124.458 170.36 124.458C169.964 124.458 169.705 124.625 169.705 124.884C169.705 125.178 169.959 125.265 170.497 125.381C171.242 125.544 171.851 125.721 171.851 126.503C171.851 127.238 171.258 127.649 170.441 127.649Z" fill="#1A1A1A"/>
<path d="M172.291 127.568V123.941H173.036L174.244 125.965C174.36 126.163 174.497 126.472 174.497 126.472H174.508C174.508 126.472 174.487 126.097 174.487 125.843V123.941H175.213V127.568H174.502L173.265 125.564C173.148 125.371 173.006 125.062 173.006 125.062H172.996C172.996 125.062 173.016 125.442 173.016 125.696V127.568H172.291Z" fill="#1A1A1A"/>
<path d="M177.169 127.629C176.23 127.629 175.738 127.187 175.738 126.401V123.941H176.474V126.401C176.474 126.777 176.661 127.04 177.153 127.04C177.62 127.04 177.838 126.766 177.838 126.391V123.941H178.574V126.401C178.574 127.177 178.097 127.629 177.169 127.629Z" fill="#1A1A1A"/>
<path d="M179.955 127.568V123.941H180.69V125.361H182.116V123.941H182.852V127.568H182.116V125.97H180.69V127.568H179.955Z" fill="#1A1A1A"/>
<path d="M184.585 127.644C183.778 127.644 183.225 127.045 183.225 126.269C183.225 125.493 183.778 124.894 184.585 124.894C185.392 124.894 185.945 125.493 185.945 126.269C185.945 127.045 185.392 127.644 184.585 127.644ZM184.585 127.116C185.006 127.116 185.244 126.777 185.244 126.269C185.244 125.762 185.006 125.417 184.585 125.417C184.159 125.417 183.925 125.762 183.925 126.269C183.925 126.777 184.159 127.116 184.585 127.116Z" fill="#1A1A1A"/>
<path d="M187.32 127.644C186.565 127.644 186.143 127.279 186.103 126.726H186.742C186.788 127.025 187.001 127.157 187.31 127.157C187.615 127.157 187.787 127.04 187.787 126.858C187.787 126.609 187.457 126.584 187.102 126.513C186.636 126.421 186.179 126.295 186.179 125.726C186.179 125.163 186.646 124.894 187.239 124.894C187.924 124.894 188.305 125.234 188.355 125.757H187.731C187.701 125.478 187.523 125.376 187.229 125.376C186.96 125.376 186.783 125.478 186.783 125.665C186.783 125.889 187.128 125.909 187.498 125.985C187.934 126.076 188.416 126.198 188.416 126.807C188.416 127.329 187.97 127.644 187.32 127.644Z" fill="#1A1A1A"/>
<path d="M188.728 128.42V124.965H189.392V125.29H189.407C189.575 125.062 189.818 124.894 190.173 124.894C190.863 124.894 191.305 125.457 191.305 126.269C191.305 127.111 190.848 127.644 190.178 127.644C189.813 127.644 189.575 127.497 189.428 127.274H189.417V128.42H188.728ZM190.031 127.071C190.381 127.071 190.605 126.782 190.605 126.289C190.605 125.797 190.432 125.452 190.006 125.452C189.575 125.452 189.402 125.823 189.402 126.289C189.402 126.761 189.62 127.071 190.031 127.071Z" fill="#1A1A1A"/>
<path d="M191.626 127.568V124.965H192.316V127.568H191.626ZM191.626 124.56V123.941H192.316V124.56H191.626Z" fill="#1A1A1A"/>
<path d="M192.608 125.422V124.965H192.968V124.154H193.643V124.965H194.089V125.422H193.643V126.802C193.643 126.995 193.75 127.061 193.902 127.061C193.988 127.061 194.105 127.056 194.105 127.056V127.563C194.105 127.563 193.947 127.573 193.673 127.573C193.339 127.573 192.968 127.441 192.968 126.949V125.422H192.608Z" fill="#1A1A1A"/>
<path d="M196.108 127.568C196.068 127.517 196.042 127.395 196.027 127.279H196.017C195.885 127.477 195.697 127.629 195.251 127.629C194.718 127.629 194.343 127.35 194.343 126.832C194.343 126.259 194.809 126.076 195.388 125.995C195.819 125.934 196.017 125.899 196.017 125.701C196.017 125.513 195.87 125.392 195.581 125.392C195.256 125.392 195.099 125.508 195.078 125.757H194.464C194.485 125.3 194.825 124.899 195.586 124.899C196.367 124.899 196.681 125.249 196.681 125.858V127.182C196.681 127.38 196.712 127.497 196.773 127.543V127.568H196.108ZM195.418 127.147C195.814 127.147 196.032 126.903 196.032 126.65V126.259C195.91 126.33 195.723 126.371 195.55 126.411C195.19 126.492 195.012 126.574 195.012 126.817C195.012 127.061 195.175 127.147 195.418 127.147Z" fill="#1A1A1A"/>
<path d="M197.13 127.568V123.941H197.82V127.568H197.13Z" fill="#1A1A1A"/>
</g>
</svg>
