<svg width="332" height="345" viewBox="0 0 332 345" fill="none" xmlns="http://www.w3.org/2000/svg">
<mask id="mask0_420_2881" style="mask-type:alpha" maskUnits="userSpaceOnUse" x="0" y="0" width="332" height="345">
<rect width="332" height="345" fill="#D9D9D9"/>
</mask>
<g mask="url(#mask0_420_2881)">
<path d="M156.193 263.477H140.445V269.542H156.193V263.477Z" fill="#FEFDFD"/>
<path d="M149.027 254.716L147.969 261.507L151.666 262.083L152.724 255.293L149.027 254.716Z" fill="#FEFDFD"/>
<path d="M155.435 253.505L154.648 258.545L157.923 259.056L158.709 254.016L155.435 253.505Z" fill="#FEFDFD"/>
<path d="M235.062 275.683V172.748H156.188V275.683H189.11V291.07H227.498V275.683H235.062Z" stroke="#E5C2DB" stroke-miterlimit="10"/>
<path d="M230.212 6.89257H210.932V0H180.836V22.5624H200.113V37.5889H230.212V6.89257Z" stroke="#E5C2DB" stroke-miterlimit="10"/>
<path d="M290.194 75.9543V46.5532H181.742V75.9543H193.753V119.319H276.37V75.9543H290.194Z" stroke="#E5C2DB" stroke-miterlimit="10"/>
<path d="M126.465 279.742V294.782H66.8828V344.11H227.736V294.782H185.717V279.742H126.465Z" fill="#E5C2DB"/>
<path d="M315.068 234.155H244.984V166.326H300.544L305.304 178.079L317 182.673L315.068 234.155Z" fill="#E5C2DB"/>
<path d="M213.032 267.033V258.809H205.893V253.061H162.562V269.811H169.701H204.497L202.179 278.185L208.086 281.632H214.615L218.258 268.481L213.032 267.033Z" fill="#C878AE"/>
<path d="M174.043 222.898H161.57V239.648H174.043V222.898Z" fill="#C878AE"/>
<path d="M221.847 221.254H177.992V234.155H221.847V221.254Z" fill="#C878AE"/>
<path d="M145.234 182.302H120.336V208.866H145.234V182.302Z" fill="#FEFDFD"/>
<path d="M145.236 222.898H131.664V232.514H145.236V222.898Z" fill="#FEFDFD"/>
<path d="M177.943 55.0698H162.195V61.1348H177.943V55.0698Z" fill="#FEFDFD"/>
<path d="M181.662 9.52832H165.914V15.5933H181.662V9.52832Z" fill="#FEFDFD"/>
<path d="M77.8609 17.2686L75.3203 25.8384L97.509 32.4224L100.05 23.8526L77.8609 17.2686Z" fill="#FEFDFD"/>
<path d="M193.757 31.4873H167.922V43.6938H193.757V31.4873Z" fill="#FEFDFD"/>
<path d="M161.462 8.70361H105.508V15.5962H161.462V8.70361Z" fill="#FEFDFD"/>
<path d="M118.009 12.1499H105.508V39.6125H118.009V12.1499Z" fill="#FEFDFD"/>
<path d="M145.236 267.419H140.445V273.484H145.236V267.419Z" fill="#FEFDFD"/>
<path d="M134.433 253.073L133.375 259.864L137.073 260.44L138.131 253.65L134.433 253.073Z" fill="#FEFDFD"/>
<path d="M269.808 83.8022H230.211V89.2211H269.808V83.8022Z" fill="#C878AE"/>
<path d="M249.091 105.356V101.107H256.762V96.3657H228.983V101.107H235.199V105.356H208.734V115.453H271.535V105.356H249.091Z" fill="#C878AE"/>
<path d="M283.5 59.5815H228.68V69.3734H283.5V59.5815Z" fill="#C878AE"/>
<path d="M211.115 56.2344H201.288V59.5815H196.036H187.008V69.3733V73.8456H196.036V69.3733H225.395V59.5815H211.115V56.2344Z" fill="#C878AE"/>
<path d="M199.377 6.88965H183.93V16.6815H199.377V6.88965Z" fill="#C878AE"/>
<path d="M213.572 10.6987H204.359V34.3551H213.572V10.6987Z" fill="#C878AE"/>
<path d="M227.361 10.6987H218.148V34.3551H227.361V10.6987Z" fill="#C878AE"/>
<path d="M228.546 191.093L224.26 191.822L223.283 182.302L221.059 183.447H213.201V196.212H185.411V186.278H170.062V203.028H176.754H185.411H217.416V200.196H228.546V191.093Z" fill="#C878AE"/>
<path d="M239.52 119.322V124.387M73.5288 112.772L83.1491 119.322H270.653M315.049 160.42H16M248.138 132.966C248.138 128.213 244.28 124.361 239.52 124.361C234.761 124.361 230.903 128.216 230.903 132.966C230.903 137.716 234.761 141.573 239.52 141.573C244.28 141.573 248.138 137.718 248.138 132.966Z" stroke="#DCDDDD" stroke-miterlimit="10"/>
<path d="M315.044 50.2773H54.2266" stroke="#DCDDDD" stroke-miterlimit="10"/>
<path d="M239.832 246.353H54.2344" stroke="#DCDDDD" stroke-miterlimit="10"/>
<path d="M239.832 215.061H54.2344" stroke="#DCDDDD" stroke-miterlimit="10"/>
<path d="M239.832 176.109H54.2344" stroke="#DCDDDD" stroke-miterlimit="10"/>
<path d="M239.523 141.57V246.664" stroke="#DCDDDD" stroke-miterlimit="10"/>
<path d="M181.66 99.2991H174.275V77.0512H177.844V70.6433H150.026V77.0512H153.759V99.2991H137.986V77.9525H145.49V67.3926H137.986H91.8906V77.9525V113.509H137.986V105.704H181.66V99.2991Z" fill="#C878AE"/>
<path d="M226.661 31.6719V26.4681H228.99C229.55 26.4681 229.979 26.6064 230.249 26.8466C230.533 27.1013 230.664 27.4143 230.664 27.8218C230.664 28.3531 230.336 28.6952 229.848 28.8626V28.8844C230.423 29.0518 230.816 29.5322 230.816 30.1727C230.816 30.6603 230.664 30.9951 230.358 31.2571C230.06 31.5191 229.601 31.6719 229.048 31.6719H226.661ZM227.716 29.3429V30.7986H228.931C229.441 30.7986 229.747 30.5147 229.747 30.0926C229.747 29.5977 229.383 29.3429 228.902 29.3429H227.716ZM227.716 28.5642H228.859C229.317 28.5642 229.63 28.3459 229.63 27.9383C229.63 27.5525 229.346 27.3269 228.88 27.3269H227.716V28.5642Z" fill="#1A1A1A"/>
<path d="M234.668 31.6719H233.715V31.2353H233.693C233.438 31.5773 233.147 31.7738 232.623 31.7738C231.794 31.7738 231.328 31.2425 231.328 30.4274V27.9383H232.31V30.26C232.31 30.6967 232.507 30.9368 232.929 30.9368C233.395 30.9368 233.679 30.5875 233.679 30.0926V27.9383H234.668V31.6719Z" fill="#1A1A1A"/>
<path d="M236.822 31.7811C235.738 31.7811 235.134 31.2571 235.076 30.4638H235.993C236.058 30.8932 236.364 31.0824 236.808 31.0824C237.245 31.0824 237.492 30.915 237.492 30.653C237.492 30.2964 237.019 30.26 236.509 30.1581C235.84 30.0271 235.185 29.8451 235.185 29.03C235.185 28.2221 235.854 27.8364 236.706 27.8364C237.689 27.8364 238.234 28.324 238.307 29.0737H237.412C237.368 28.6734 237.114 28.5278 236.691 28.5278C236.306 28.5278 236.051 28.6734 236.051 28.9427C236.051 29.2629 236.546 29.292 237.077 29.4012C237.703 29.5322 238.395 29.7069 238.395 30.5802C238.395 31.3299 237.754 31.7811 236.822 31.7811Z" fill="#1A1A1A"/>
<path d="M238.841 31.6719V27.9383H239.831V31.6719H238.841ZM238.841 27.356V26.4681H239.831V27.356H238.841Z" fill="#1A1A1A"/>
<path d="M241.437 27.9383V28.4477H241.458C241.713 28.0474 242.055 27.8364 242.565 27.8364C243.336 27.8364 243.853 28.4186 243.853 29.2338V31.6719H242.863V29.3793C242.863 28.979 242.63 28.6952 242.215 28.6952C241.779 28.6952 241.458 29.0445 241.458 29.554V31.6719H240.469V27.9383H241.437Z" fill="#1A1A1A"/>
<path d="M246.217 31.7811C244.98 31.7811 244.281 30.915 244.281 29.8015C244.281 28.6952 245.031 27.8364 246.122 27.8364C247.323 27.8364 247.964 28.7534 247.964 30.0853H245.256C245.329 30.6603 245.649 31.0169 246.21 31.0169C246.596 31.0169 246.821 30.8422 246.93 30.5584H247.906C247.767 31.2207 247.178 31.7811 246.217 31.7811ZM246.137 28.6006C245.613 28.6006 245.358 28.9135 245.271 29.4012H246.93C246.901 28.9281 246.588 28.6006 246.137 28.6006Z" fill="#1A1A1A"/>
<path d="M249.936 31.7811C248.851 31.7811 248.247 31.2571 248.189 30.4638H249.106C249.172 30.8932 249.477 31.0824 249.921 31.0824C250.358 31.0824 250.605 30.915 250.605 30.653C250.605 30.2964 250.132 30.26 249.623 30.1581C248.953 30.0271 248.298 29.8451 248.298 29.03C248.298 28.2221 248.968 27.8364 249.819 27.8364C250.802 27.8364 251.348 28.324 251.421 29.0737H250.525C250.482 28.6734 250.227 28.5278 249.805 28.5278C249.419 28.5278 249.164 28.6734 249.164 28.9427C249.164 29.2629 249.659 29.292 250.191 29.4012C250.816 29.5322 251.508 29.7069 251.508 30.5802C251.508 31.3299 250.867 31.7811 249.936 31.7811Z" fill="#1A1A1A"/>
<path d="M253.468 31.7811C252.384 31.7811 251.78 31.2571 251.721 30.4638H252.639C252.704 30.8932 253.01 31.0824 253.454 31.0824C253.89 31.0824 254.138 30.915 254.138 30.653C254.138 30.2964 253.665 30.26 253.155 30.1581C252.486 30.0271 251.831 29.8451 251.831 29.03C251.831 28.2221 252.5 27.8364 253.352 27.8364C254.334 27.8364 254.88 28.324 254.953 29.0737H254.058C254.014 28.6734 253.759 28.5278 253.337 28.5278C252.951 28.5278 252.697 28.6734 252.697 28.9427C252.697 29.2629 253.192 29.292 253.723 29.4012C254.349 29.5322 255.04 29.7069 255.04 30.5802C255.04 31.3299 254.4 31.7811 253.468 31.7811Z" fill="#1A1A1A"/>
<path d="M256.797 31.6719V26.4681H257.852V31.6719H256.797Z" fill="#1A1A1A"/>
<path d="M259.547 27.9383V28.4477H259.568C259.823 28.0474 260.165 27.8364 260.675 27.8364C261.446 27.8364 261.963 28.4186 261.963 29.2338V31.6719H260.973V29.3793C260.973 28.979 260.74 28.6952 260.325 28.6952C259.889 28.6952 259.568 29.0445 259.568 29.554V31.6719H258.579V27.9383H259.547Z" fill="#1A1A1A"/>
<path d="M264.305 31.7811C263.126 31.7811 262.391 30.9223 262.391 29.8087C262.391 28.6952 263.119 27.8364 264.254 27.8364C265.222 27.8364 265.819 28.3968 265.95 29.2047H264.982C264.917 28.8772 264.662 28.6297 264.298 28.6297C263.701 28.6297 263.395 29.0882 263.395 29.8087C263.395 30.5147 263.679 30.9878 264.283 30.9878C264.684 30.9878 264.967 30.7767 265.033 30.3546H265.986C265.921 31.1479 265.302 31.7811 264.305 31.7811Z" fill="#1A1A1A"/>
<path d="M269.73 31.6719H268.776V31.2353H268.754C268.5 31.5773 268.209 31.7738 267.685 31.7738C266.855 31.7738 266.389 31.2425 266.389 30.4274V27.9383H267.372V30.26C267.372 30.6967 267.568 30.9368 267.99 30.9368C268.456 30.9368 268.74 30.5875 268.74 30.0926V27.9383H269.73V31.6719Z" fill="#1A1A1A"/>
<path d="M272.451 31.7811C271.927 31.7811 271.556 31.5555 271.338 31.2061H271.323V31.6719H270.37V26.4681H271.36V28.3895H271.382C271.585 28.0766 271.906 27.8364 272.422 27.8364C273.361 27.8364 274.031 28.6443 274.031 29.8087C274.031 31.0169 273.39 31.7811 272.451 31.7811ZM272.233 30.9514C272.743 30.9514 273.026 30.5293 273.026 29.8087C273.026 29.1173 272.75 28.637 272.197 28.637C271.571 28.637 271.338 29.1392 271.338 29.8306C271.338 30.5147 271.68 30.9514 272.233 30.9514Z" fill="#1A1A1A"/>
<path d="M276.843 31.6719C276.785 31.5992 276.749 31.4245 276.727 31.2571H276.712C276.523 31.5409 276.254 31.7593 275.613 31.7593C274.849 31.7593 274.31 31.359 274.31 30.6166C274.31 29.7942 274.98 29.5322 275.81 29.4157C276.428 29.3284 276.712 29.2774 276.712 28.9936C276.712 28.7243 276.501 28.5496 276.086 28.5496C275.62 28.5496 275.395 28.717 275.366 29.0737H274.485C274.514 28.4186 275.002 27.8437 276.093 27.8437C277.214 27.8437 277.666 28.3459 277.666 29.2192V31.1188C277.666 31.4026 277.709 31.57 277.797 31.6355V31.6719H276.843ZM275.853 31.0679C276.421 31.0679 276.734 30.7185 276.734 30.3546V29.7942C276.559 29.8961 276.29 29.9543 276.043 30.0125C275.526 30.129 275.271 30.2454 275.271 30.5948C275.271 30.9441 275.504 31.0679 275.853 31.0679Z" fill="#1A1A1A"/>
<path d="M278.005 28.5933V27.9383H278.522V26.7738H279.49V27.9383H280.131V28.5933H279.49V30.5729C279.49 30.8495 279.643 30.9441 279.861 30.9441C279.985 30.9441 280.152 30.9368 280.152 30.9368V31.6647C280.152 31.6647 279.927 31.6792 279.534 31.6792C279.053 31.6792 278.522 31.49 278.522 30.784V28.5933H278.005Z" fill="#1A1A1A"/>
<path d="M280.64 31.6719V27.9383H281.63V31.6719H280.64ZM280.64 27.356V26.4681H281.63V27.356H280.64Z" fill="#1A1A1A"/>
<path d="M284.036 31.7811C282.879 31.7811 282.086 30.9223 282.086 29.8087C282.086 28.6952 282.879 27.8364 284.036 27.8364C285.194 27.8364 285.987 28.6952 285.987 29.8087C285.987 30.9223 285.194 31.7811 284.036 31.7811ZM284.036 31.0242C284.641 31.0242 284.983 30.5366 284.983 29.8087C284.983 29.0809 284.641 28.586 284.036 28.586C283.425 28.586 283.09 29.0809 283.09 29.8087C283.09 30.5366 283.425 31.0242 284.036 31.0242Z" fill="#1A1A1A"/>
<path d="M287.415 27.9383V28.4477H287.437C287.692 28.0474 288.034 27.8364 288.543 27.8364C289.315 27.8364 289.831 28.4186 289.831 29.2338V31.6719H288.842V29.3793C288.842 28.979 288.609 28.6952 288.194 28.6952C287.757 28.6952 287.437 29.0445 287.437 29.554V31.6719H286.447V27.9383H287.415Z" fill="#1A1A1A"/>
<path d="M294.022 31.7811C292.559 31.7811 291.518 30.653 291.518 29.0882C291.518 27.5453 292.479 26.3662 294.015 26.3662C295.296 26.3662 296.053 27.1304 296.162 28.1202H295.114C295.019 27.5962 294.626 27.2541 294.015 27.2541C293.054 27.2541 292.596 28.0547 292.596 29.0882C292.596 30.1508 293.149 30.915 294.022 30.915C294.641 30.915 295.077 30.5438 295.143 29.998H296.176C296.147 30.4565 295.951 30.9005 295.601 31.228C295.245 31.5628 294.743 31.7811 294.022 31.7811Z" fill="#1A1A1A"/>
<path d="M298.429 31.7811C297.192 31.7811 296.493 30.915 296.493 29.8015C296.493 28.6952 297.243 27.8364 298.334 27.8364C299.535 27.8364 300.176 28.7534 300.176 30.0853H297.468C297.541 30.6603 297.861 31.0169 298.422 31.0169C298.807 31.0169 299.033 30.8422 299.142 30.5584H300.117C299.979 31.2207 299.39 31.7811 298.429 31.7811ZM298.349 28.6006C297.825 28.6006 297.57 28.9135 297.483 29.4012H299.142C299.113 28.9281 298.8 28.6006 298.349 28.6006Z" fill="#1A1A1A"/>
<path d="M301.602 27.9383V28.4477H301.624C301.878 28.0474 302.22 27.8364 302.73 27.8364C303.501 27.8364 304.018 28.4186 304.018 29.2338V31.6719H303.028V29.3793C303.028 28.979 302.795 28.6952 302.38 28.6952C301.944 28.6952 301.624 29.0445 301.624 29.554V31.6719H300.634V27.9383H301.602Z" fill="#1A1A1A"/>
<path d="M304.339 28.5933V27.9383H304.855V26.7738H305.823V27.9383H306.464V28.5933H305.823V30.5729C305.823 30.8495 305.976 30.9441 306.195 30.9441C306.318 30.9441 306.486 30.9368 306.486 30.9368V31.6647C306.486 31.6647 306.26 31.6792 305.867 31.6792C305.387 31.6792 304.855 31.49 304.855 30.784V28.5933H304.339Z" fill="#1A1A1A"/>
<path d="M308.692 31.7811C307.455 31.7811 306.756 30.915 306.756 29.8015C306.756 28.6952 307.506 27.8364 308.597 27.8364C309.798 27.8364 310.439 28.7534 310.439 30.0853H307.731C307.804 30.6603 308.124 31.0169 308.685 31.0169C309.071 31.0169 309.296 30.8422 309.405 30.5584H310.381C310.242 31.2207 309.653 31.7811 308.692 31.7811ZM308.612 28.6006C308.088 28.6006 307.833 28.9135 307.746 29.4012H309.405C309.376 28.9281 309.063 28.6006 308.612 28.6006Z" fill="#1A1A1A"/>
<path d="M311.85 27.9383V28.5351H311.872C312.098 28.113 312.353 27.8946 312.789 27.8946C312.898 27.8946 312.964 27.9019 313.022 27.9237V28.7898H313C312.353 28.7243 311.887 29.0664 311.887 29.8524V31.6719H310.897V27.9383H311.85Z" fill="#1A1A1A"/>
<path d="M100.283 91.9761L100.247 91.2774H100.232C99.8756 91.8742 99.3879 92.0853 98.7693 92.0853C97.9833 92.0853 97.3719 91.8014 96.9425 91.3283C96.5131 90.848 96.2656 90.1784 96.2656 89.3924C96.2656 88.5263 96.5713 87.7693 97.1172 87.2672C97.5393 86.8814 98.0924 86.6704 98.7911 86.6704C100.101 86.6704 100.851 87.3909 101.018 88.4098H99.9847C99.8683 87.9076 99.4825 87.5437 98.813 87.5437C97.8304 87.5437 97.3428 88.3589 97.3428 89.3924C97.3428 90.455 97.9032 91.2337 98.7984 91.2337C99.6063 91.2337 100.138 90.6296 100.138 90.0547V90.0256H98.8857V89.2104H101.076V91.9761H100.283Z" fill="#1A1A1A"/>
<path d="M103.488 92.0853C102.251 92.0853 101.552 91.2192 101.552 90.1056C101.552 88.9993 102.302 88.1405 103.394 88.1405C104.594 88.1405 105.235 89.0576 105.235 90.3895H102.528C102.6 90.9644 102.921 91.3211 103.481 91.3211C103.867 91.3211 104.092 91.1464 104.201 90.8625H105.177C105.038 91.5248 104.449 92.0853 103.488 92.0853ZM103.408 88.9047C102.884 88.9047 102.629 89.2177 102.542 89.7053H104.201C104.172 89.2322 103.859 88.9047 103.408 88.9047Z" fill="#1A1A1A"/>
<path d="M106.661 88.2424V88.7519H106.683C106.938 88.3516 107.28 88.1405 107.789 88.1405C108.561 88.1405 109.077 88.7228 109.077 89.5379V91.9761H108.088V89.6835C108.088 89.2832 107.855 88.9993 107.44 88.9993C107.003 88.9993 106.683 89.3487 106.683 89.8582V91.9761H105.693V88.2424H106.661Z" fill="#1A1A1A"/>
<path d="M111.442 92.0853C110.204 92.0853 109.506 91.2192 109.506 90.1056C109.506 88.9993 110.255 88.1405 111.347 88.1405C112.548 88.1405 113.188 89.0576 113.188 90.3895H110.481C110.554 90.9644 110.874 91.3211 111.434 91.3211C111.82 91.3211 112.046 91.1464 112.155 90.8625H113.13C112.992 91.5248 112.402 92.0853 111.442 92.0853ZM111.361 88.9047C110.837 88.9047 110.583 89.2177 110.495 89.7053H112.155C112.126 89.2322 111.813 88.9047 111.361 88.9047Z" fill="#1A1A1A"/>
<path d="M114.6 88.2424V88.8392H114.622C114.847 88.4171 115.102 88.1988 115.539 88.1988C115.648 88.1988 115.713 88.206 115.772 88.2279V89.094H115.75C115.102 89.0285 114.636 89.3705 114.636 90.1566V91.9761H113.646V88.2424H114.6Z" fill="#1A1A1A"/>
<path d="M118.442 91.9761C118.384 91.9033 118.348 91.7286 118.326 91.5612H118.311C118.122 91.8451 117.853 92.0634 117.212 92.0634C116.448 92.0634 115.909 91.6631 115.909 90.9208C115.909 90.0983 116.579 89.8363 117.409 89.7199C118.027 89.6325 118.311 89.5816 118.311 89.2977C118.311 89.0285 118.1 88.8538 117.685 88.8538C117.219 88.8538 116.994 89.0212 116.965 89.3778H116.084C116.113 88.7228 116.601 88.1478 117.693 88.1478C118.813 88.1478 119.265 88.65 119.265 89.5234V91.4229C119.265 91.7068 119.308 91.8742 119.396 91.9397V91.9761H118.442ZM117.452 91.372C118.02 91.372 118.333 91.0227 118.333 90.6587V90.0983C118.158 90.2002 117.889 90.2584 117.642 90.3167C117.125 90.4331 116.87 90.5496 116.87 90.8989C116.87 91.2483 117.103 91.372 117.452 91.372Z" fill="#1A1A1A"/>
<path d="M119.908 91.9761V86.7722H120.898V91.9761H119.908Z" fill="#1A1A1A"/>
<path d="M122.852 91.9761V86.7722H123.908V88.8101H125.953V86.7722H127.008V91.9761H125.953V89.6835H123.908V91.9761H122.852Z" fill="#1A1A1A"/>
<path d="M130.077 91.9761C130.019 91.9033 129.983 91.7286 129.961 91.5612H129.946C129.757 91.8451 129.488 92.0634 128.847 92.0634C128.083 92.0634 127.544 91.6631 127.544 90.9208C127.544 90.0983 128.214 89.8363 129.044 89.7199C129.662 89.6325 129.946 89.5816 129.946 89.2977C129.946 89.0285 129.735 88.8538 129.32 88.8538C128.854 88.8538 128.629 89.0212 128.6 89.3778H127.719C127.748 88.7228 128.236 88.1478 129.328 88.1478C130.448 88.1478 130.9 88.65 130.9 89.5234V91.4229C130.9 91.7068 130.943 91.8742 131.031 91.9397V91.9761H130.077ZM129.087 91.372C129.655 91.372 129.968 91.0227 129.968 90.6587V90.0983C129.793 90.2002 129.524 90.2584 129.277 90.3167C128.76 90.4331 128.505 90.5496 128.505 90.8989C128.505 91.2483 128.738 91.372 129.087 91.372Z" fill="#1A1A1A"/>
<path d="M131.543 91.9761V86.7722H132.533V91.9761H131.543Z" fill="#1A1A1A"/>
<path d="M133.199 91.9761V86.7722H134.189V91.9761H133.199Z" fill="#1A1A1A"/>
<path d="M181.568 169.545C180.105 169.545 179.065 168.417 179.065 166.852C179.065 165.309 180.025 164.13 181.561 164.13C182.842 164.13 183.599 164.894 183.708 165.884H182.66C182.565 165.36 182.172 165.018 181.561 165.018C180.6 165.018 180.142 165.818 180.142 166.852C180.142 167.915 180.695 168.679 181.568 168.679C182.187 168.679 182.623 168.308 182.689 167.762H183.722C183.693 168.22 183.497 168.664 183.148 168.992C182.791 169.327 182.289 169.545 181.568 169.545Z" fill="#1A1A1A"/>
<path d="M185.989 169.545C184.832 169.545 184.039 168.686 184.039 167.573C184.039 166.459 184.832 165.6 185.989 165.6C187.147 165.6 187.94 166.459 187.94 167.573C187.94 168.686 187.147 169.545 185.989 169.545ZM185.989 168.788C186.594 168.788 186.936 168.3 186.936 167.573C186.936 166.845 186.594 166.35 185.989 166.35C185.378 166.35 185.043 166.845 185.043 167.573C185.043 168.3 185.378 168.788 185.989 168.788Z" fill="#1A1A1A"/>
<path d="M188.415 169.436V164.232H189.404V169.436H188.415Z" fill="#1A1A1A"/>
<path d="M190.071 169.436V164.232H191.061V169.436H190.071Z" fill="#1A1A1A"/>
<path d="M193.466 169.545C192.229 169.545 191.53 168.679 191.53 167.565C191.53 166.459 192.28 165.6 193.372 165.6C194.572 165.6 195.213 166.517 195.213 167.849H192.505C192.578 168.424 192.899 168.781 193.459 168.781C193.845 168.781 194.07 168.606 194.179 168.322H195.155C195.016 168.984 194.427 169.545 193.466 169.545ZM193.386 166.364C192.862 166.364 192.607 166.677 192.52 167.165H194.179C194.15 166.692 193.837 166.364 193.386 166.364Z" fill="#1A1A1A"/>
<path d="M197.316 170.709C196.297 170.709 195.671 170.273 195.569 169.545H196.552C196.632 169.778 196.843 169.96 197.301 169.96C197.862 169.96 198.131 169.69 198.131 169.181V168.773H198.109C197.891 169.021 197.607 169.21 197.134 169.21C196.304 169.21 195.489 168.555 195.489 167.427C195.489 166.313 196.159 165.6 197.105 165.6C197.571 165.6 197.913 165.782 198.138 166.095H198.153V165.702H199.106V169.152C199.106 169.676 198.939 170.033 198.662 170.287C198.349 170.578 197.869 170.709 197.316 170.709ZM197.301 168.417C197.927 168.417 198.182 167.958 198.182 167.405C198.182 166.859 197.891 166.393 197.294 166.393C196.792 166.393 196.457 166.786 196.457 167.412C196.457 168.046 196.792 168.417 197.301 168.417Z" fill="#1A1A1A"/>
<path d="M201.498 169.545C200.26 169.545 199.562 168.679 199.562 167.565C199.562 166.459 200.311 165.6 201.403 165.6C202.604 165.6 203.244 166.517 203.244 167.849H200.537C200.61 168.424 200.93 168.781 201.49 168.781C201.876 168.781 202.102 168.606 202.211 168.322H203.186C203.048 168.984 202.458 169.545 201.498 169.545ZM201.418 166.364C200.894 166.364 200.639 166.677 200.552 167.165H202.211C202.182 166.692 201.869 166.364 201.418 166.364Z" fill="#1A1A1A"/>
<path d="M206.694 169.545C205.536 169.545 204.743 168.686 204.743 167.573C204.743 166.459 205.536 165.6 206.694 165.6C207.851 165.6 208.644 166.459 208.644 167.573C208.644 168.686 207.851 169.545 206.694 169.545ZM206.694 168.788C207.298 168.788 207.64 168.3 207.64 167.573C207.64 166.845 207.298 166.35 206.694 166.35C206.082 166.35 205.747 166.845 205.747 167.573C205.747 168.3 206.082 168.788 206.694 168.788Z" fill="#1A1A1A"/>
<path d="M208.815 166.386V165.702H209.324V165.367C209.324 164.458 210.03 164.137 210.984 164.239V165.003C210.518 164.982 210.314 165.04 210.314 165.425V165.702H210.984V166.386H210.314V169.436H209.324V166.386H208.815Z" fill="#1A1A1A"/>
<path d="M166.042 177.754L164.288 172.55H165.394L166.311 175.563C166.413 175.905 166.537 176.393 166.537 176.393H166.551C166.551 176.393 166.675 175.898 166.777 175.563L167.687 172.55H168.757L167.003 177.754H166.042Z" fill="#1A1A1A"/>
<path d="M170.335 177.863C169.098 177.863 168.399 176.997 168.399 175.883C168.399 174.777 169.148 173.918 170.24 173.918C171.441 173.918 172.082 174.835 172.082 176.167H169.374C169.447 176.742 169.767 177.099 170.328 177.099C170.713 177.099 170.939 176.924 171.048 176.64H172.023C171.885 177.302 171.296 177.863 170.335 177.863ZM170.255 174.682C169.731 174.682 169.476 174.995 169.389 175.483H171.048C171.019 175.01 170.706 174.682 170.255 174.682Z" fill="#1A1A1A"/>
<path d="M172.25 174.675V174.02H172.767V172.855H173.735V174.02H174.375V174.675H173.735V176.655C173.735 176.931 173.888 177.026 174.106 177.026C174.23 177.026 174.397 177.018 174.397 177.018V177.746C174.397 177.746 174.172 177.761 173.779 177.761C173.298 177.761 172.767 177.572 172.767 176.866V174.675H172.25Z" fill="#1A1A1A"/>
<path d="M176.604 177.863C175.366 177.863 174.668 176.997 174.668 175.883C174.668 174.777 175.417 173.918 176.509 173.918C177.71 173.918 178.35 174.835 178.35 176.167H175.643C175.716 176.742 176.036 177.099 176.596 177.099C176.982 177.099 177.208 176.924 177.317 176.64H178.292C178.154 177.302 177.564 177.863 176.604 177.863ZM176.524 174.682C176 174.682 175.745 174.995 175.657 175.483H177.317C177.288 175.01 176.975 174.682 176.524 174.682Z" fill="#1A1A1A"/>
<path d="M179.762 174.02V174.617H179.784C180.009 174.195 180.264 173.976 180.701 173.976C180.81 173.976 180.875 173.983 180.934 174.005V174.871H180.912C180.264 174.806 179.798 175.148 179.798 175.934V177.754H178.809V174.02H179.762Z" fill="#1A1A1A"/>
<path d="M181.36 177.754V174.02H182.35V177.754H181.36ZM181.36 173.438V172.55H182.35V173.438H181.36Z" fill="#1A1A1A"/>
<path d="M183.956 174.02V174.529H183.978C184.232 174.129 184.574 173.918 185.084 173.918C185.855 173.918 186.372 174.5 186.372 175.315V177.754H185.382V175.461C185.382 175.061 185.149 174.777 184.734 174.777C184.298 174.777 183.978 175.126 183.978 175.636V177.754H182.988V174.02H183.956Z" fill="#1A1A1A"/>
<path d="M189.333 177.754C189.275 177.681 189.238 177.506 189.217 177.339H189.202C189.013 177.623 188.743 177.841 188.103 177.841C187.339 177.841 186.8 177.441 186.8 176.698C186.8 175.876 187.47 175.614 188.299 175.497C188.918 175.41 189.202 175.359 189.202 175.075C189.202 174.806 188.991 174.631 188.576 174.631C188.11 174.631 187.885 174.799 187.856 175.155H186.975C187.004 174.5 187.492 173.925 188.583 173.925C189.704 173.925 190.155 174.427 190.155 175.301V177.2C190.155 177.484 190.199 177.652 190.286 177.717V177.754H189.333ZM188.343 177.149C188.911 177.149 189.224 176.8 189.224 176.436V175.876C189.049 175.978 188.78 176.036 188.532 176.094C188.016 176.211 187.761 176.327 187.761 176.676C187.761 177.026 187.994 177.149 188.343 177.149Z" fill="#1A1A1A"/>
<path d="M191.738 174.02V174.617H191.76C191.986 174.195 192.24 173.976 192.677 173.976C192.786 173.976 192.852 173.983 192.91 174.005V174.871H192.888C192.24 174.806 191.774 175.148 191.774 175.934V177.754H190.785V174.02H191.738Z" fill="#1A1A1A"/>
<path d="M193.452 178.976V178.197H193.801C194.194 178.197 194.354 177.994 194.354 177.688C194.354 177.484 194.282 177.244 194.07 176.676L193.066 174.02H194.107L194.66 175.701C194.776 176.043 194.9 176.516 194.9 176.516H194.915C194.915 176.516 195.017 176.043 195.133 175.701L195.657 174.02H196.654L195.351 177.848C195.068 178.678 194.791 178.976 194.034 178.976H193.452Z" fill="#1A1A1A"/>
<path d="M198.292 177.754V172.55H199.777L200.512 175.163C200.694 175.818 200.839 176.567 200.839 176.567H200.854C200.854 176.567 200.992 175.818 201.174 175.163L201.909 172.55H203.416V177.754H202.433V174.77C202.433 174.347 202.477 173.692 202.477 173.692H202.462C202.462 173.692 202.346 174.304 202.237 174.682L201.342 177.754H200.33L199.457 174.682C199.347 174.304 199.231 173.692 199.231 173.692H199.216C199.216 173.692 199.26 174.347 199.26 174.77V177.754H198.292Z" fill="#1A1A1A"/>
<path d="M205.894 177.863C204.656 177.863 203.958 176.997 203.958 175.883C203.958 174.777 204.707 173.918 205.799 173.918C207 173.918 207.64 174.835 207.64 176.167H204.933C205.006 176.742 205.326 177.099 205.886 177.099C206.272 177.099 206.498 176.924 206.607 176.64H207.582C207.444 177.302 206.854 177.863 205.894 177.863ZM205.814 174.682C205.29 174.682 205.035 174.995 204.948 175.483H206.607C206.578 175.01 206.265 174.682 205.814 174.682Z" fill="#1A1A1A"/>
<path d="M209.496 177.863C208.557 177.863 207.917 177.098 207.917 175.89C207.917 174.726 208.579 173.918 209.51 173.918C210.035 173.918 210.362 174.158 210.566 174.471H210.588V172.55H211.577V177.754H210.624V177.266H210.609C210.391 177.623 210.02 177.863 209.496 177.863ZM209.714 177.033C210.304 177.033 210.609 176.596 210.609 175.912C210.609 175.199 210.377 174.719 209.743 174.719C209.198 174.719 208.921 175.199 208.921 175.89C208.921 176.611 209.205 177.033 209.714 177.033Z" fill="#1A1A1A"/>
<path d="M212.221 177.754V174.02H213.211V177.754H212.221ZM212.221 173.438V172.55H213.211V173.438H212.221Z" fill="#1A1A1A"/>
<path d="M215.581 177.863C214.402 177.863 213.667 177.004 213.667 175.89C213.667 174.777 214.394 173.918 215.53 173.918C216.498 173.918 217.095 174.478 217.226 175.286H216.258C216.192 174.959 215.937 174.711 215.573 174.711C214.977 174.711 214.671 175.17 214.671 175.89C214.671 176.596 214.955 177.069 215.559 177.069C215.959 177.069 216.243 176.858 216.309 176.436H217.262C217.196 177.23 216.578 177.863 215.581 177.863Z" fill="#1A1A1A"/>
<path d="M217.694 177.754V174.02H218.683V177.754H217.694ZM217.694 173.438V172.55H218.683V173.438H217.694Z" fill="#1A1A1A"/>
<path d="M220.289 174.02V174.529H220.311C220.566 174.129 220.908 173.918 221.417 173.918C222.189 173.918 222.706 174.5 222.706 175.315V177.754H221.716V175.461C221.716 175.061 221.483 174.777 221.068 174.777C220.631 174.777 220.311 175.126 220.311 175.636V177.754H219.321V174.02H220.289Z" fill="#1A1A1A"/>
<path d="M225.07 177.863C223.832 177.863 223.134 176.997 223.134 175.883C223.134 174.777 223.883 173.918 224.975 173.918C226.176 173.918 226.816 174.835 226.816 176.167H224.109C224.182 176.742 224.502 177.099 225.062 177.099C225.448 177.099 225.674 176.924 225.783 176.64H226.758C226.62 177.302 226.03 177.863 225.07 177.863ZM224.99 174.682C224.466 174.682 224.211 174.995 224.124 175.483H225.783C225.754 175.01 225.441 174.682 224.99 174.682Z" fill="#1A1A1A"/>
<path d="M273.063 196.988V191.785H276.789V192.68H274.118V193.932H276.381V194.834H274.118V196.988H273.063Z" fill="#1A1A1A"/>
<path d="M279.328 196.988C279.269 196.916 279.233 196.741 279.211 196.574H279.197C279.007 196.857 278.738 197.076 278.098 197.076C277.333 197.076 276.795 196.676 276.795 195.933C276.795 195.111 277.465 194.849 278.294 194.732C278.913 194.645 279.197 194.594 279.197 194.31C279.197 194.041 278.986 193.866 278.571 193.866C278.105 193.866 277.879 194.034 277.85 194.39H276.97C276.999 193.735 277.486 193.16 278.578 193.16C279.699 193.16 280.15 193.662 280.15 194.536V196.435C280.15 196.719 280.194 196.887 280.281 196.952V196.988H279.328ZM278.338 196.384C278.906 196.384 279.219 196.035 279.219 195.671V195.111C279.044 195.213 278.775 195.271 278.527 195.329C278.01 195.446 277.756 195.562 277.756 195.911C277.756 196.261 277.989 196.384 278.338 196.384Z" fill="#1A1A1A"/>
<path d="M281.733 193.255V193.852H281.755C281.98 193.429 282.235 193.211 282.672 193.211C282.781 193.211 282.846 193.218 282.905 193.24V194.106H282.883C282.235 194.041 281.769 194.383 281.769 195.169V196.988H280.779V193.255H281.733Z" fill="#1A1A1A"/>
<path d="M283.331 196.988V193.255H284.284V193.757H284.306C284.51 193.415 284.874 193.153 285.391 193.153C285.864 193.153 286.242 193.415 286.424 193.808H286.439C286.693 193.4 287.086 193.153 287.56 193.153C288.346 193.153 288.79 193.662 288.79 194.478V196.988H287.8V194.645C287.8 194.223 287.589 194.004 287.225 194.004C286.81 194.004 286.555 194.325 286.555 194.82V196.988H285.565V194.645C285.565 194.223 285.354 194.004 284.99 194.004C284.59 194.004 284.321 194.325 284.321 194.82V196.988H283.331Z" fill="#1A1A1A"/>
<path d="M266.133 205.306V200.102H268.52C269.524 200.102 270.194 200.685 270.194 201.551C270.194 202.162 269.91 202.628 269.24 202.81V202.832C269.721 202.97 269.968 203.247 270.034 203.88C270.107 204.615 270.077 205.175 270.259 205.255V205.306H269.248C269.117 205.248 269.102 204.666 269.058 204.105C269.015 203.538 268.695 203.217 268.04 203.217H267.188V205.306H266.133ZM267.188 200.954V202.402H268.309C268.884 202.402 269.168 202.104 269.168 201.689C269.168 201.267 268.898 200.954 268.338 200.954H267.188Z" fill="#1A1A1A"/>
<path d="M272.512 205.415C271.275 205.415 270.576 204.549 270.576 203.436C270.576 202.33 271.325 201.471 272.417 201.471C273.618 201.471 274.259 202.388 274.259 203.72H271.551C271.624 204.295 271.944 204.651 272.505 204.651C272.89 204.651 273.116 204.477 273.225 204.193H274.2C274.062 204.855 273.473 205.415 272.512 205.415ZM272.432 202.235C271.908 202.235 271.653 202.548 271.566 203.036H273.225C273.196 202.562 272.883 202.235 272.432 202.235Z" fill="#1A1A1A"/>
<path d="M276.231 205.415C275.146 205.415 274.542 204.891 274.484 204.098H275.401C275.466 204.528 275.772 204.717 276.216 204.717C276.653 204.717 276.9 204.549 276.9 204.287C276.9 203.931 276.427 203.894 275.918 203.792C275.248 203.661 274.593 203.479 274.593 202.664C274.593 201.856 275.263 201.471 276.114 201.471C277.097 201.471 277.642 201.958 277.715 202.708H276.82C276.776 202.308 276.522 202.162 276.1 202.162C275.714 202.162 275.459 202.308 275.459 202.577C275.459 202.897 275.954 202.926 276.485 203.036C277.111 203.167 277.803 203.341 277.803 204.215C277.803 204.964 277.162 205.415 276.231 205.415Z" fill="#1A1A1A"/>
<path d="M280.039 205.415C278.801 205.415 278.103 204.549 278.103 203.436C278.103 202.33 278.852 201.471 279.944 201.471C281.145 201.471 281.785 202.388 281.785 203.72H279.078C279.151 204.295 279.471 204.651 280.031 204.651C280.417 204.651 280.643 204.477 280.752 204.193H281.727C281.589 204.855 280.999 205.415 280.039 205.415ZM279.959 202.235C279.435 202.235 279.18 202.548 279.093 203.036H280.752C280.723 202.562 280.41 202.235 279.959 202.235Z" fill="#1A1A1A"/>
<path d="M284.594 205.306C284.536 205.233 284.5 205.059 284.478 204.891H284.463C284.274 205.175 284.005 205.394 283.364 205.394C282.6 205.394 282.062 204.993 282.062 204.251C282.062 203.429 282.731 203.167 283.561 203.05C284.18 202.963 284.463 202.912 284.463 202.628C284.463 202.359 284.252 202.184 283.837 202.184C283.372 202.184 283.146 202.351 283.117 202.708H282.236C282.265 202.053 282.753 201.478 283.845 201.478C284.966 201.478 285.417 201.98 285.417 202.854V204.753C285.417 205.037 285.46 205.204 285.548 205.27V205.306H284.594ZM283.605 204.702C284.172 204.702 284.485 204.353 284.485 203.989V203.429C284.311 203.53 284.041 203.589 283.794 203.647C283.277 203.763 283.022 203.88 283.022 204.229C283.022 204.578 283.255 204.702 283.605 204.702Z" fill="#1A1A1A"/>
<path d="M286.999 201.573V202.169H287.021C287.247 201.747 287.502 201.529 287.938 201.529C288.048 201.529 288.113 201.536 288.171 201.558V202.424H288.149C287.502 202.359 287.036 202.701 287.036 203.487V205.306H286.046V201.573H286.999Z" fill="#1A1A1A"/>
<path d="M290.223 205.415C289.044 205.415 288.309 204.557 288.309 203.443C288.309 202.33 289.037 201.471 290.172 201.471C291.14 201.471 291.737 202.031 291.868 202.839H290.9C290.835 202.511 290.58 202.264 290.216 202.264C289.619 202.264 289.313 202.723 289.313 203.443C289.313 204.149 289.597 204.622 290.201 204.622C290.602 204.622 290.886 204.411 290.951 203.989H291.904C291.839 204.782 291.22 205.415 290.223 205.415Z" fill="#1A1A1A"/>
<path d="M293.326 200.102V202.06H293.348C293.617 201.667 293.923 201.471 294.432 201.471C295.204 201.471 295.72 202.053 295.72 202.868V205.306H294.731V203.014C294.731 202.613 294.498 202.33 294.083 202.33C293.646 202.33 293.326 202.679 293.326 203.188V205.306H292.336V200.102H293.326Z" fill="#1A1A1A"/>
<path d="M273.429 213.624V208.42H277.155V209.315H274.484V210.567H276.747V211.47H274.484V213.624H273.429Z" fill="#1A1A1A"/>
<path d="M277.67 213.624V209.89H278.66V213.624H277.67ZM277.67 209.308V208.42H278.66V209.308H277.67Z" fill="#1A1A1A"/>
<path d="M281.051 213.733C279.814 213.733 279.116 212.867 279.116 211.754C279.116 210.647 279.865 209.789 280.957 209.789C282.158 209.789 282.798 210.706 282.798 212.037H280.091C280.164 212.612 280.484 212.969 281.044 212.969C281.43 212.969 281.656 212.794 281.765 212.511H282.74C282.602 213.173 282.012 213.733 281.051 213.733ZM280.971 210.553C280.447 210.553 280.193 210.866 280.105 211.353H281.765C281.736 210.88 281.423 210.553 280.971 210.553Z" fill="#1A1A1A"/>
<path d="M283.271 213.624V208.42H284.261V213.624H283.271Z" fill="#1A1A1A"/>
<path d="M286.31 213.733C285.371 213.733 284.73 212.969 284.73 211.761C284.73 210.596 285.393 209.789 286.324 209.789C286.848 209.789 287.176 210.029 287.38 210.342H287.402V208.42H288.391V213.624H287.438V213.136H287.423C287.205 213.493 286.834 213.733 286.31 213.733ZM286.528 212.904C287.118 212.904 287.423 212.467 287.423 211.783C287.423 211.069 287.19 210.589 286.557 210.589C286.011 210.589 285.735 211.069 285.735 211.761C285.735 212.481 286.019 212.904 286.528 212.904Z" fill="#1A1A1A"/>
<path d="M118.372 321.236V316.032H122.099V316.927H119.428V318.179H121.691V319.081H119.428V321.236H118.372Z" fill="#1A1A1A"/>
<path d="M124.637 321.236C124.579 321.163 124.543 320.988 124.521 320.821H124.506C124.317 321.105 124.048 321.323 123.407 321.323C122.643 321.323 122.105 320.923 122.105 320.18C122.105 319.358 122.774 319.096 123.604 318.98C124.223 318.892 124.506 318.841 124.506 318.557C124.506 318.288 124.295 318.113 123.88 318.113C123.415 318.113 123.189 318.281 123.16 318.638H122.279C122.308 317.982 122.796 317.408 123.888 317.408C125.009 317.408 125.46 317.91 125.46 318.783V320.683C125.46 320.967 125.503 321.134 125.591 321.199V321.236H124.637ZM123.648 320.632C124.215 320.632 124.528 320.282 124.528 319.918V319.358C124.354 319.46 124.084 319.518 123.837 319.576C123.32 319.693 123.065 319.809 123.065 320.159C123.065 320.508 123.298 320.632 123.648 320.632Z" fill="#1A1A1A"/>
<path d="M127.043 317.502V318.099H127.064C127.29 317.677 127.545 317.458 127.981 317.458C128.091 317.458 128.156 317.466 128.214 317.488V318.354H128.192C127.545 318.288 127.079 318.63 127.079 319.416V321.236H126.089V317.502H127.043Z" fill="#1A1A1A"/>
<path d="M128.641 321.236V317.502H129.594V318.004H129.616C129.82 317.662 130.184 317.4 130.7 317.4C131.173 317.4 131.552 317.662 131.734 318.055H131.748C132.003 317.648 132.396 317.4 132.869 317.4C133.655 317.4 134.099 317.91 134.099 318.725V321.236H133.109V318.892C133.109 318.47 132.898 318.252 132.534 318.252C132.12 318.252 131.865 318.572 131.865 319.067V321.236H130.875V318.892C130.875 318.47 130.664 318.252 130.3 318.252C129.9 318.252 129.63 318.572 129.63 319.067V321.236H128.641Z" fill="#1A1A1A"/>
<path d="M136.013 321.236V316.032H138.4C139.405 316.032 140.074 316.614 140.074 317.48C140.074 318.092 139.79 318.557 139.121 318.739V318.761C139.601 318.9 139.849 319.176 139.914 319.809C139.987 320.544 139.958 321.105 140.14 321.185V321.236H139.128C138.997 321.178 138.982 320.595 138.939 320.035C138.895 319.467 138.575 319.147 137.92 319.147H137.068V321.236H136.013ZM137.068 316.883V318.332H138.189C138.764 318.332 139.048 318.033 139.048 317.619C139.048 317.196 138.779 316.883 138.218 316.883H137.068Z" fill="#1A1A1A"/>
<path d="M142.392 321.345C141.155 321.345 140.456 320.479 140.456 319.365C140.456 318.259 141.206 317.4 142.298 317.4C143.498 317.4 144.139 318.317 144.139 319.649H141.431C141.504 320.224 141.824 320.581 142.385 320.581C142.771 320.581 142.996 320.406 143.105 320.122H144.081C143.942 320.785 143.353 321.345 142.392 321.345ZM142.312 318.164C141.788 318.164 141.533 318.477 141.446 318.965H143.105C143.076 318.492 142.763 318.164 142.312 318.164Z" fill="#1A1A1A"/>
<path d="M146.111 321.345C145.026 321.345 144.422 320.821 144.364 320.028H145.281C145.347 320.457 145.652 320.646 146.096 320.646C146.533 320.646 146.78 320.479 146.78 320.217C146.78 319.86 146.307 319.824 145.798 319.722C145.128 319.591 144.473 319.409 144.473 318.594C144.473 317.786 145.143 317.4 145.994 317.4C146.977 317.4 147.523 317.888 147.596 318.638H146.7C146.657 318.237 146.402 318.092 145.98 318.092C145.594 318.092 145.339 318.237 145.339 318.507C145.339 318.827 145.834 318.856 146.366 318.965C146.992 319.096 147.683 319.271 147.683 320.144C147.683 320.894 147.042 321.345 146.111 321.345Z" fill="#1A1A1A"/>
<path d="M149.919 321.345C148.682 321.345 147.983 320.479 147.983 319.365C147.983 318.259 148.733 317.4 149.824 317.4C151.025 317.4 151.666 318.317 151.666 319.649H148.958C149.031 320.224 149.351 320.581 149.912 320.581C150.297 320.581 150.523 320.406 150.632 320.122H151.608C151.469 320.785 150.88 321.345 149.919 321.345ZM149.839 318.164C149.315 318.164 149.06 318.477 148.973 318.965H150.632C150.603 318.492 150.29 318.164 149.839 318.164Z" fill="#1A1A1A"/>
<path d="M154.475 321.236C154.416 321.163 154.38 320.988 154.358 320.821H154.344C154.154 321.105 153.885 321.323 153.245 321.323C152.481 321.323 151.942 320.923 151.942 320.18C151.942 319.358 152.612 319.096 153.441 318.98C154.06 318.892 154.344 318.841 154.344 318.557C154.344 318.288 154.133 318.113 153.718 318.113C153.252 318.113 153.026 318.281 152.997 318.638H152.117C152.146 317.982 152.633 317.408 153.725 317.408C154.846 317.408 155.297 317.91 155.297 318.783V320.683C155.297 320.967 155.341 321.134 155.428 321.199V321.236H154.475ZM153.485 320.632C154.053 320.632 154.366 320.282 154.366 319.918V319.358C154.191 319.46 153.922 319.518 153.674 319.576C153.157 319.693 152.903 319.809 152.903 320.159C152.903 320.508 153.136 320.632 153.485 320.632Z" fill="#1A1A1A"/>
<path d="M156.88 317.502V318.099H156.902C157.127 317.677 157.382 317.458 157.819 317.458C157.928 317.458 157.993 317.466 158.052 317.488V318.354H158.03C157.382 318.288 156.916 318.63 156.916 319.416V321.236H155.926V317.502H156.88Z" fill="#1A1A1A"/>
<path d="M160.104 321.345C158.925 321.345 158.189 320.486 158.189 319.373C158.189 318.259 158.917 317.4 160.053 317.4C161.021 317.4 161.617 317.961 161.748 318.769H160.78C160.715 318.441 160.46 318.194 160.096 318.194C159.499 318.194 159.194 318.652 159.194 319.373C159.194 320.079 159.478 320.552 160.082 320.552C160.482 320.552 160.766 320.341 160.831 319.918H161.785C161.719 320.712 161.101 321.345 160.104 321.345Z" fill="#1A1A1A"/>
<path d="M163.206 316.032V317.99H163.228C163.497 317.597 163.803 317.4 164.313 317.4C165.084 317.4 165.601 317.982 165.601 318.798V321.236H164.611V318.943C164.611 318.543 164.378 318.259 163.963 318.259C163.527 318.259 163.206 318.608 163.206 319.118V321.236H162.217V316.032H163.206Z" fill="#1A1A1A"/>
<path d="M167.514 321.236V316.032H171.24V316.927H168.569V318.179H170.832V319.081H168.569V321.236H167.514Z" fill="#1A1A1A"/>
<path d="M171.755 321.236V317.502H172.745V321.236H171.755ZM171.755 316.92V316.032H172.745V316.92H171.755Z" fill="#1A1A1A"/>
<path d="M175.136 321.345C173.899 321.345 173.2 320.479 173.2 319.365C173.2 318.259 173.95 317.4 175.042 317.4C176.243 317.4 176.883 318.317 176.883 319.649H174.176C174.249 320.224 174.569 320.581 175.129 320.581C175.515 320.581 175.741 320.406 175.85 320.122H176.825C176.687 320.785 176.097 321.345 175.136 321.345ZM175.056 318.164C174.532 318.164 174.278 318.477 174.19 318.965H175.85C175.821 318.492 175.508 318.164 175.056 318.164Z" fill="#1A1A1A"/>
<path d="M177.356 321.236V316.032H178.346V321.236H177.356Z" fill="#1A1A1A"/>
<path d="M180.395 321.345C179.456 321.345 178.815 320.581 178.815 319.373C178.815 318.208 179.478 317.4 180.409 317.4C180.933 317.4 181.261 317.64 181.465 317.953H181.486V316.032H182.476V321.236H181.523V320.748H181.508C181.29 321.105 180.919 321.345 180.395 321.345ZM180.613 320.515C181.203 320.515 181.508 320.079 181.508 319.394C181.508 318.681 181.275 318.201 180.642 318.201C180.096 318.201 179.82 318.681 179.82 319.373C179.82 320.093 180.104 320.515 180.613 320.515Z" fill="#1A1A1A"/>
</g>
</svg>
