<svg width="1000" height="1000" viewBox="0 0 1000 1000" fill="none" xmlns="http://www.w3.org/2000/svg">
<mask id="mask0_1038_601" style="mask-type:alpha" maskUnits="userSpaceOnUse" x="0" y="0" width="1000" height="1000">
<rect width="1000" height="1000" fill="#D9D9D9"/>
</mask>
<g mask="url(#mask0_1038_601)">
<g clip-path="url(#clip0_1038_601)">
<path d="M440.667 675.895H410.375V687.561H440.667V675.895Z" fill="#FEFDFD"/>
<path d="M426.891 659.043L424.855 672.106L431.968 673.215L434.003 660.152L426.891 659.043Z" fill="#FEFDFD"/>
<path d="M439.214 656.714L437.701 666.409L444 667.393L445.513 657.697L439.214 656.714Z" fill="#FEFDFD"/>
<path d="M592.389 699.375V501.371H440.668V699.375H503.998V728.972H577.84V699.375H592.389Z" stroke="#E5C2DB" stroke-miterlimit="10"/>
<path d="M583.059 182.335H545.972V169.076H488.08V212.477H525.162V241.382H583.059V182.335Z" stroke="#E5C2DB" stroke-miterlimit="10"/>
<path d="M698.44 315.181V258.625H489.824V315.181H512.929V398.596H671.848V315.181H698.44Z" stroke="#E5C2DB" stroke-miterlimit="10"/>
<path d="M383.487 707.182V736.114H268.875V831H578.289V736.114H497.462V707.182H383.487Z" fill="#E5C2DB"/>
<path d="M746.283 619.492H611.471V489.017H718.345L727.5 511.625L749.999 520.463L746.283 619.492Z" fill="#E5C2DB"/>
<path d="M550.004 682.737V666.916H536.272V655.86H452.922V688.079H466.654H533.586L529.128 704.189L540.49 710.818H553.05L560.058 685.522L550.004 682.737Z" fill="#C878AE"/>
<path d="M475.018 597.838H451.025V630.058H475.018V597.838Z" fill="#C878AE"/>
<path d="M566.956 594.676H482.598V619.492H566.956V594.676Z" fill="#C878AE"/>
<path d="M419.596 519.749H371.703V570.847H419.596V519.749Z" fill="#FEFDFD"/>
<path d="M419.595 597.838H393.488V616.336H419.595V597.838Z" fill="#FEFDFD"/>
<path d="M482.511 275.007H452.219V286.674H482.511V275.007Z" fill="#FEFDFD"/>
<path d="M489.667 187.405H459.375V199.071H489.667V187.405Z" fill="#FEFDFD"/>
<path d="M289.989 202.293L285.102 218.778L327.783 231.443L332.67 214.958L289.989 202.293Z" fill="#FEFDFD"/>
<path d="M512.929 229.644H463.232V253.125H512.929V229.644Z" fill="#FEFDFD"/>
<path d="M450.809 185.819H343.178V199.077H450.809V185.819Z" fill="#FEFDFD"/>
<path d="M367.225 192.448H343.178V245.274H367.225V192.448Z" fill="#FEFDFD"/>
<path d="M419.59 683.478H410.375V695.145H419.59V683.478Z" fill="#FEFDFD"/>
<path d="M398.807 655.883L396.771 668.945L403.884 670.054L405.919 656.992L398.807 655.883Z" fill="#FEFDFD"/>
<path d="M659.227 330.276H583.059V340.7H659.227V330.276Z" fill="#C878AE"/>
<path d="M619.367 371.736V363.564H634.123V354.444H580.689V363.564H592.644V371.736H541.738V391.161H662.541V371.736H619.367Z" fill="#C878AE"/>
<path d="M685.552 283.687H580.1V302.522H685.552V283.687Z" fill="#C878AE"/>
<path d="M546.316 277.248H527.413V283.687H517.31H499.943V302.522V311.125H517.31V302.522H573.785V283.687H546.316V277.248Z" fill="#C878AE"/>
<path d="M523.74 182.329H494.025V201.165H523.74V182.329Z" fill="#C878AE"/>
<path d="M551.051 189.656H533.33V235.161H551.051V189.656Z" fill="#C878AE"/>
<path d="M577.57 189.656H559.85V235.161H577.57V189.656Z" fill="#C878AE"/>
<path d="M579.861 536.66L571.617 538.061L569.737 519.749L565.459 521.951H550.343V546.506H496.887V527.397H467.363V559.617H480.234H496.887H558.451V554.171H579.861V536.66Z" fill="#C878AE"/>
<path d="M600.96 398.602V408.344M281.661 386.003L300.167 398.602H660.846M746.246 477.656H171M617.537 424.846C617.537 415.704 610.115 408.295 600.96 408.295C591.806 408.295 584.384 415.709 584.384 424.846C584.384 433.983 591.806 441.403 600.96 441.403C610.115 441.403 617.537 433.989 617.537 424.846Z" stroke="#DCDDDD" stroke-miterlimit="10"/>
<path d="M746.245 265.789H244.541" stroke="#DCDDDD" stroke-miterlimit="10"/>
<path d="M601.559 642.956H244.547" stroke="#DCDDDD" stroke-miterlimit="10"/>
<path d="M601.559 582.764H244.547" stroke="#DCDDDD" stroke-miterlimit="10"/>
<path d="M601.559 507.837H244.547" stroke="#DCDDDD" stroke-miterlimit="10"/>
<path d="M600.957 441.398V643.556" stroke="#DCDDDD" stroke-miterlimit="10"/>
<path d="M489.661 360.086H475.455V317.291H482.321V304.964H428.81V317.291H435.992V360.086H405.651V319.024H420.086V298.711H405.651H316.982V319.024V387.421H405.651V372.407H489.661V360.086Z" fill="#C878AE"/>
<path d="M576.221 230V219.99H580.701C581.779 219.99 582.605 220.256 583.123 220.718C583.669 221.208 583.921 221.81 583.921 222.594C583.921 223.616 583.291 224.274 582.353 224.596V224.638C583.459 224.96 584.215 225.884 584.215 227.116C584.215 228.054 583.921 228.698 583.333 229.202C582.759 229.706 581.877 230 580.813 230H576.221ZM578.251 225.52V228.32H580.589C581.569 228.32 582.157 227.774 582.157 226.962C582.157 226.01 581.457 225.52 580.533 225.52H578.251ZM578.251 224.022H580.449C581.331 224.022 581.933 223.602 581.933 222.818C581.933 222.076 581.387 221.642 580.491 221.642H578.251V224.022ZM591.625 230H589.791V229.16H589.749C589.259 229.818 588.699 230.196 587.691 230.196C586.095 230.196 585.199 229.174 585.199 227.606V222.818H587.089V227.284C587.089 228.124 587.467 228.586 588.279 228.586C589.175 228.586 589.721 227.914 589.721 226.962V222.818H591.625V230ZM595.768 230.21C593.682 230.21 592.52 229.202 592.408 227.676H594.172C594.298 228.502 594.886 228.866 595.74 228.866C596.58 228.866 597.056 228.544 597.056 228.04C597.056 227.354 596.146 227.284 595.166 227.088C593.878 226.836 592.618 226.486 592.618 224.918C592.618 223.364 593.906 222.622 595.544 222.622C597.434 222.622 598.484 223.56 598.624 225.002H596.902C596.818 224.232 596.328 223.952 595.516 223.952C594.774 223.952 594.284 224.232 594.284 224.75C594.284 225.366 595.236 225.422 596.258 225.632C597.462 225.884 598.792 226.22 598.792 227.9C598.792 229.342 597.56 230.21 595.768 230.21ZM599.651 230V222.818H601.555V230H599.651ZM599.651 221.698V219.99H601.555V221.698H599.651ZM604.644 222.818V223.798H604.686C605.176 223.028 605.834 222.622 606.814 222.622C608.298 222.622 609.292 223.742 609.292 225.31V230H607.388V225.59C607.388 224.82 606.94 224.274 606.142 224.274C605.302 224.274 604.686 224.946 604.686 225.926V230H602.782V222.818H604.644ZM613.84 230.21C611.46 230.21 610.116 228.544 610.116 226.402C610.116 224.274 611.558 222.622 613.658 222.622C615.968 222.622 617.2 224.386 617.2 226.948H611.992C612.132 228.054 612.748 228.74 613.826 228.74C614.568 228.74 615.002 228.404 615.212 227.858H617.088C616.822 229.132 615.688 230.21 613.84 230.21ZM613.686 224.092C612.678 224.092 612.188 224.694 612.02 225.632H615.212C615.156 224.722 614.554 224.092 613.686 224.092ZM620.993 230.21C618.907 230.21 617.745 229.202 617.633 227.676H619.397C619.523 228.502 620.111 228.866 620.965 228.866C621.805 228.866 622.281 228.544 622.281 228.04C622.281 227.354 621.371 227.284 620.391 227.088C619.103 226.836 617.843 226.486 617.843 224.918C617.843 223.364 619.131 222.622 620.769 222.622C622.659 222.622 623.709 223.56 623.849 225.002H622.127C622.043 224.232 621.553 223.952 620.741 223.952C619.999 223.952 619.509 224.232 619.509 224.75C619.509 225.366 620.461 225.422 621.483 225.632C622.687 225.884 624.017 226.22 624.017 227.9C624.017 229.342 622.785 230.21 620.993 230.21ZM627.788 230.21C625.702 230.21 624.54 229.202 624.428 227.676H626.192C626.318 228.502 626.906 228.866 627.76 228.866C628.6 228.866 629.076 228.544 629.076 228.04C629.076 227.354 628.166 227.284 627.186 227.088C625.898 226.836 624.638 226.486 624.638 224.918C624.638 223.364 625.926 222.622 627.564 222.622C629.454 222.622 630.504 223.56 630.644 225.002H628.922C628.838 224.232 628.348 223.952 627.536 223.952C626.794 223.952 626.304 224.232 626.304 224.75C626.304 225.366 627.256 225.422 628.278 225.632C629.482 225.884 630.812 226.22 630.812 227.9C630.812 229.342 629.58 230.21 627.788 230.21ZM634.19 230V219.99H636.22V230H634.19ZM639.48 222.818V223.798H639.522C640.012 223.028 640.67 222.622 641.65 222.622C643.134 222.622 644.128 223.742 644.128 225.31V230H642.224V225.59C642.224 224.82 641.776 224.274 640.978 224.274C640.138 224.274 639.522 224.946 639.522 225.926V230H637.618V222.818H639.48ZM648.634 230.21C646.366 230.21 644.952 228.558 644.952 226.416C644.952 224.274 646.352 222.622 648.536 222.622C650.398 222.622 651.546 223.7 651.798 225.254H649.936C649.81 224.624 649.32 224.148 648.62 224.148C647.472 224.148 646.884 225.03 646.884 226.416C646.884 227.774 647.43 228.684 648.592 228.684C649.362 228.684 649.908 228.278 650.034 227.466H651.868C651.742 228.992 650.552 230.21 648.634 230.21ZM659.068 230H657.234V229.16H657.192C656.702 229.818 656.142 230.196 655.134 230.196C653.538 230.196 652.642 229.174 652.642 227.606V222.818H654.532V227.284C654.532 228.124 654.91 228.586 655.722 228.586C656.618 228.586 657.164 227.914 657.164 226.962V222.818H659.068V230ZM664.304 230.21C663.296 230.21 662.582 229.776 662.162 229.104H662.134V230H660.3V219.99H662.204V223.686H662.246C662.638 223.084 663.254 222.622 664.248 222.622C666.054 222.622 667.342 224.176 667.342 226.416C667.342 228.74 666.11 230.21 664.304 230.21ZM663.884 228.614C664.864 228.614 665.41 227.802 665.41 226.416C665.41 225.086 664.878 224.162 663.814 224.162C662.61 224.162 662.162 225.128 662.162 226.458C662.162 227.774 662.82 228.614 663.884 228.614ZM672.751 230C672.639 229.86 672.569 229.524 672.527 229.202H672.499C672.135 229.748 671.617 230.168 670.385 230.168C668.915 230.168 667.879 229.398 667.879 227.97C667.879 226.388 669.167 225.884 670.763 225.66C671.953 225.492 672.499 225.394 672.499 224.848C672.499 224.33 672.093 223.994 671.295 223.994C670.399 223.994 669.965 224.316 669.909 225.002H668.215C668.271 223.742 669.209 222.636 671.309 222.636C673.465 222.636 674.333 223.602 674.333 225.282V228.936C674.333 229.482 674.417 229.804 674.585 229.93V230H672.751ZM670.847 228.838C671.939 228.838 672.541 228.166 672.541 227.466V226.388C672.205 226.584 671.687 226.696 671.211 226.808C670.217 227.032 669.727 227.256 669.727 227.928C669.727 228.6 670.175 228.838 670.847 228.838ZM674.987 224.078V222.818H675.981V220.578H677.843V222.818H679.075V224.078H677.843V227.886C677.843 228.418 678.137 228.6 678.557 228.6C678.795 228.6 679.117 228.586 679.117 228.586V229.986C679.117 229.986 678.683 230.014 677.927 230.014C677.003 230.014 675.981 229.65 675.981 228.292V224.078H674.987ZM680.055 230V222.818H681.959V230H680.055ZM680.055 221.698V219.99H681.959V221.698H680.055ZM686.588 230.21C684.362 230.21 682.836 228.558 682.836 226.416C682.836 224.274 684.362 222.622 686.588 222.622C688.814 222.622 690.34 224.274 690.34 226.416C690.34 228.558 688.814 230.21 686.588 230.21ZM686.588 228.754C687.75 228.754 688.408 227.816 688.408 226.416C688.408 225.016 687.75 224.064 686.588 224.064C685.412 224.064 684.768 225.016 684.768 226.416C684.768 227.816 685.412 228.754 686.588 228.754ZM693.087 222.818V223.798H693.129C693.619 223.028 694.277 222.622 695.257 222.622C696.741 222.622 697.735 223.742 697.735 225.31V230H695.831V225.59C695.831 224.82 695.383 224.274 694.585 224.274C693.745 224.274 693.129 224.946 693.129 225.926V230H691.225V222.818H693.087ZM705.797 230.21C702.983 230.21 700.981 228.04 700.981 225.03C700.981 222.062 702.829 219.794 705.783 219.794C708.247 219.794 709.703 221.264 709.913 223.168H707.897C707.715 222.16 706.959 221.502 705.783 221.502C703.935 221.502 703.053 223.042 703.053 225.03C703.053 227.074 704.117 228.544 705.797 228.544C706.987 228.544 707.827 227.83 707.953 226.78H709.941C709.885 227.662 709.507 228.516 708.835 229.146C708.149 229.79 707.183 230.21 705.797 230.21ZM714.273 230.21C711.893 230.21 710.549 228.544 710.549 226.402C710.549 224.274 711.991 222.622 714.091 222.622C716.401 222.622 717.633 224.386 717.633 226.948H712.425C712.565 228.054 713.181 228.74 714.259 228.74C715.001 228.74 715.435 228.404 715.645 227.858H717.521C717.255 229.132 716.121 230.21 714.273 230.21ZM714.119 224.092C713.111 224.092 712.621 224.694 712.453 225.632H715.645C715.589 224.722 714.987 224.092 714.119 224.092ZM720.376 222.818V223.798H720.418C720.908 223.028 721.566 222.622 722.546 222.622C724.03 222.622 725.024 223.742 725.024 225.31V230H723.12V225.59C723.12 224.82 722.672 224.274 721.874 224.274C721.034 224.274 720.418 224.946 720.418 225.926V230H718.514V222.818H720.376ZM725.641 224.078V222.818H726.635V220.578H728.497V222.818H729.729V224.078H728.497V227.886C728.497 228.418 728.791 228.6 729.211 228.6C729.449 228.6 729.771 228.586 729.771 228.586V229.986C729.771 229.986 729.337 230.014 728.581 230.014C727.657 230.014 726.635 229.65 726.635 228.292V224.078H725.641ZM734.015 230.21C731.635 230.21 730.291 228.544 730.291 226.402C730.291 224.274 731.733 222.622 733.833 222.622C736.143 222.622 737.375 224.386 737.375 226.948H732.167C732.307 228.054 732.923 228.74 734.001 228.74C734.743 228.74 735.177 228.404 735.387 227.858H737.263C736.997 229.132 735.863 230.21 734.015 230.21ZM733.861 224.092C732.853 224.092 732.363 224.694 732.195 225.632H735.387C735.331 224.722 734.729 224.092 733.861 224.092ZM740.091 222.818V223.966H740.133C740.567 223.154 741.057 222.734 741.897 222.734C742.107 222.734 742.233 222.748 742.345 222.79V224.456H742.303C741.057 224.33 740.161 224.988 740.161 226.5V230H738.257V222.818H740.091Z" fill="#1A1A1A"/>
<path d="M333.124 346L333.054 344.656H333.026C332.34 345.804 331.402 346.21 330.212 346.21C328.7 346.21 327.524 345.664 326.698 344.754C325.872 343.83 325.396 342.542 325.396 341.03C325.396 339.364 325.984 337.908 327.034 336.942C327.846 336.2 328.91 335.794 330.254 335.794C332.774 335.794 334.216 337.18 334.538 339.14H332.55C332.326 338.174 331.584 337.474 330.296 337.474C328.406 337.474 327.468 339.042 327.468 341.03C327.468 343.074 328.546 344.572 330.268 344.572C331.822 344.572 332.844 343.41 332.844 342.304V342.248H330.436V340.68H334.65V346H333.124ZM339.289 346.21C336.909 346.21 335.565 344.544 335.565 342.402C335.565 340.274 337.007 338.622 339.107 338.622C341.417 338.622 342.649 340.386 342.649 342.948H337.441C337.581 344.054 338.197 344.74 339.275 344.74C340.017 344.74 340.451 344.404 340.661 343.858H342.537C342.271 345.132 341.137 346.21 339.289 346.21ZM339.135 340.092C338.127 340.092 337.637 340.694 337.469 341.632H340.661C340.605 340.722 340.003 340.092 339.135 340.092ZM345.392 338.818V339.798H345.434C345.924 339.028 346.582 338.622 347.562 338.622C349.046 338.622 350.04 339.742 350.04 341.31V346H348.136V341.59C348.136 340.82 347.688 340.274 346.89 340.274C346.05 340.274 345.434 340.946 345.434 341.926V346H343.53V338.818H345.392ZM354.588 346.21C352.208 346.21 350.864 344.544 350.864 342.402C350.864 340.274 352.306 338.622 354.406 338.622C356.716 338.622 357.948 340.386 357.948 342.948H352.74C352.88 344.054 353.496 344.74 354.574 344.74C355.316 344.74 355.75 344.404 355.96 343.858H357.836C357.57 345.132 356.436 346.21 354.588 346.21ZM354.434 340.092C353.426 340.092 352.936 340.694 352.768 341.632H355.96C355.904 340.722 355.302 340.092 354.434 340.092ZM360.663 338.818V339.966H360.705C361.139 339.154 361.629 338.734 362.469 338.734C362.679 338.734 362.805 338.748 362.917 338.79V340.456H362.875C361.629 340.33 360.733 340.988 360.733 342.5V346H358.829V338.818H360.663ZM368.054 346C367.942 345.86 367.872 345.524 367.83 345.202H367.802C367.438 345.748 366.92 346.168 365.688 346.168C364.218 346.168 363.182 345.398 363.182 343.97C363.182 342.388 364.47 341.884 366.066 341.66C367.256 341.492 367.802 341.394 367.802 340.848C367.802 340.33 367.396 339.994 366.598 339.994C365.702 339.994 365.268 340.316 365.212 341.002H363.518C363.574 339.742 364.512 338.636 366.612 338.636C368.768 338.636 369.636 339.602 369.636 341.282V344.936C369.636 345.482 369.72 345.804 369.888 345.93V346H368.054ZM366.15 344.838C367.242 344.838 367.844 344.166 367.844 343.466V342.388C367.508 342.584 366.99 342.696 366.514 342.808C365.52 343.032 365.03 343.256 365.03 343.928C365.03 344.6 365.478 344.838 366.15 344.838ZM370.874 346V335.99H372.778V346H370.874ZM376.538 346V335.99H378.568V339.91H382.502V335.99H384.532V346H382.502V341.59H378.568V346H376.538ZM390.435 346C390.323 345.86 390.253 345.524 390.211 345.202H390.183C389.819 345.748 389.301 346.168 388.069 346.168C386.599 346.168 385.563 345.398 385.563 343.97C385.563 342.388 386.851 341.884 388.447 341.66C389.637 341.492 390.183 341.394 390.183 340.848C390.183 340.33 389.777 339.994 388.979 339.994C388.083 339.994 387.649 340.316 387.593 341.002H385.899C385.955 339.742 386.893 338.636 388.993 338.636C391.149 338.636 392.017 339.602 392.017 341.282V344.936C392.017 345.482 392.101 345.804 392.269 345.93V346H390.435ZM388.531 344.838C389.623 344.838 390.225 344.166 390.225 343.466V342.388C389.889 342.584 389.371 342.696 388.895 342.808C387.901 343.032 387.411 343.256 387.411 343.928C387.411 344.6 387.859 344.838 388.531 344.838ZM393.255 346V335.99H395.159V346H393.255ZM396.441 346V335.99H398.345V346H396.441Z" fill="#1A1A1A"/>
<path d="M489.482 495.21C486.668 495.21 484.666 493.04 484.666 490.03C484.666 487.062 486.514 484.794 489.468 484.794C491.932 484.794 493.388 486.264 493.598 488.168H491.582C491.4 487.16 490.644 486.502 489.468 486.502C487.62 486.502 486.738 488.042 486.738 490.03C486.738 492.074 487.802 493.544 489.482 493.544C490.672 493.544 491.512 492.83 491.638 491.78H493.626C493.57 492.662 493.192 493.516 492.52 494.146C491.834 494.79 490.868 495.21 489.482 495.21ZM497.987 495.21C495.761 495.21 494.235 493.558 494.235 491.416C494.235 489.274 495.761 487.622 497.987 487.622C500.213 487.622 501.739 489.274 501.739 491.416C501.739 493.558 500.213 495.21 497.987 495.21ZM497.987 493.754C499.149 493.754 499.807 492.816 499.807 491.416C499.807 490.016 499.149 489.064 497.987 489.064C496.811 489.064 496.167 490.016 496.167 491.416C496.167 492.816 496.811 493.754 497.987 493.754ZM502.652 495V484.99H504.556V495H502.652ZM505.837 495V484.99H507.741V495H505.837ZM512.369 495.21C509.989 495.21 508.645 493.544 508.645 491.402C508.645 489.274 510.087 487.622 512.187 487.622C514.497 487.622 515.729 489.386 515.729 491.948H510.521C510.661 493.054 511.277 493.74 512.355 493.74C513.097 493.74 513.531 493.404 513.741 492.858H515.617C515.351 494.132 514.217 495.21 512.369 495.21ZM512.215 489.092C511.207 489.092 510.717 489.694 510.549 490.632H513.741C513.685 489.722 513.083 489.092 512.215 489.092ZM519.774 497.45C517.814 497.45 516.61 496.61 516.414 495.21H518.304C518.458 495.658 518.864 496.008 519.746 496.008C520.824 496.008 521.342 495.49 521.342 494.51V493.726H521.3C520.88 494.202 520.334 494.566 519.424 494.566C517.828 494.566 516.26 493.306 516.26 491.136C516.26 488.994 517.548 487.622 519.368 487.622C520.264 487.622 520.922 487.972 521.356 488.574H521.384V487.818H523.218V494.454C523.218 495.462 522.896 496.148 522.364 496.638C521.762 497.198 520.838 497.45 519.774 497.45ZM519.746 493.04C520.95 493.04 521.44 492.158 521.44 491.094C521.44 490.044 520.88 489.148 519.732 489.148C518.766 489.148 518.122 489.904 518.122 491.108C518.122 492.326 518.766 493.04 519.746 493.04ZM527.818 495.21C525.438 495.21 524.094 493.544 524.094 491.402C524.094 489.274 525.536 487.622 527.636 487.622C529.946 487.622 531.178 489.386 531.178 491.948H525.97C526.11 493.054 526.726 493.74 527.804 493.74C528.546 493.74 528.98 493.404 529.19 492.858H531.066C530.8 494.132 529.666 495.21 527.818 495.21ZM527.664 489.092C526.656 489.092 526.166 489.694 525.998 490.632H529.19C529.134 489.722 528.532 489.092 527.664 489.092ZM537.813 495.21C535.587 495.21 534.061 493.558 534.061 491.416C534.061 489.274 535.587 487.622 537.813 487.622C540.039 487.622 541.565 489.274 541.565 491.416C541.565 493.558 540.039 495.21 537.813 495.21ZM537.813 493.754C538.975 493.754 539.633 492.816 539.633 491.416C539.633 490.016 538.975 489.064 537.813 489.064C536.637 489.064 535.993 490.016 535.993 491.416C535.993 492.816 536.637 493.754 537.813 493.754ZM541.893 489.134V487.818H542.873V487.174C542.873 485.424 544.231 484.808 546.065 485.004V486.474C545.169 486.432 544.777 486.544 544.777 487.286V487.818H546.065V489.134H544.777V495H542.873V489.134H541.893ZM459.616 511L456.242 500.99H458.37L460.134 506.786C460.33 507.444 460.568 508.382 460.568 508.382H460.596C460.596 508.382 460.834 507.43 461.03 506.786L462.78 500.99H464.838L461.464 511H459.616ZM467.874 511.21C465.494 511.21 464.15 509.544 464.15 507.402C464.15 505.274 465.592 503.622 467.692 503.622C470.002 503.622 471.234 505.386 471.234 507.948H466.026C466.166 509.054 466.782 509.74 467.86 509.74C468.602 509.74 469.036 509.404 469.246 508.858H471.122C470.856 510.132 469.722 511.21 467.874 511.21ZM467.72 505.092C466.712 505.092 466.222 505.694 466.054 506.632H469.246C469.19 505.722 468.588 505.092 467.72 505.092ZM471.558 505.078V503.818H472.552V501.578H474.414V503.818H475.646V505.078H474.414V508.886C474.414 509.418 474.708 509.6 475.128 509.6C475.366 509.6 475.688 509.586 475.688 509.586V510.986C475.688 510.986 475.254 511.014 474.498 511.014C473.574 511.014 472.552 510.65 472.552 509.292V505.078H471.558ZM479.932 511.21C477.552 511.21 476.208 509.544 476.208 507.402C476.208 505.274 477.65 503.622 479.75 503.622C482.06 503.622 483.292 505.386 483.292 507.948H478.084C478.224 509.054 478.84 509.74 479.918 509.74C480.66 509.74 481.094 509.404 481.304 508.858H483.18C482.914 510.132 481.78 511.21 479.932 511.21ZM479.778 505.092C478.77 505.092 478.28 505.694 478.112 506.632H481.304C481.248 505.722 480.646 505.092 479.778 505.092ZM486.008 503.818V504.966H486.05C486.484 504.154 486.974 503.734 487.814 503.734C488.024 503.734 488.15 503.748 488.262 503.79V505.456H488.22C486.974 505.33 486.078 505.988 486.078 507.5V511H484.174V503.818H486.008ZM489.082 511V503.818H490.986V511H489.082ZM489.082 502.698V500.99H490.986V502.698H489.082ZM494.075 503.818V504.798H494.117C494.607 504.028 495.265 503.622 496.245 503.622C497.729 503.622 498.723 504.742 498.723 506.31V511H496.819V506.59C496.819 505.82 496.371 505.274 495.573 505.274C494.733 505.274 494.117 505.946 494.117 506.926V511H492.213V503.818H494.075ZM504.418 511C504.306 510.86 504.236 510.524 504.194 510.202H504.166C503.802 510.748 503.284 511.168 502.052 511.168C500.582 511.168 499.546 510.398 499.546 508.97C499.546 507.388 500.834 506.884 502.43 506.66C503.62 506.492 504.166 506.394 504.166 505.848C504.166 505.33 503.76 504.994 502.962 504.994C502.066 504.994 501.632 505.316 501.576 506.002H499.882C499.938 504.742 500.876 503.636 502.976 503.636C505.132 503.636 506 504.602 506 506.282V509.936C506 510.482 506.084 510.804 506.252 510.93V511H504.418ZM502.514 509.838C503.606 509.838 504.208 509.166 504.208 508.466V507.388C503.872 507.584 503.354 507.696 502.878 507.808C501.884 508.032 501.394 508.256 501.394 508.928C501.394 509.6 501.842 509.838 502.514 509.838ZM509.045 503.818V504.966H509.087C509.521 504.154 510.011 503.734 510.851 503.734C511.061 503.734 511.187 503.748 511.299 503.79V505.456H511.257C510.011 505.33 509.115 505.988 509.115 507.5V511H507.211V503.818H509.045ZM512.341 513.352V511.854H513.013C513.769 511.854 514.077 511.462 514.077 510.874C514.077 510.482 513.937 510.02 513.531 508.928L511.599 503.818H513.601L514.665 507.052C514.889 507.71 515.127 508.62 515.127 508.62H515.155C515.155 508.62 515.351 507.71 515.575 507.052L516.583 503.818H518.501L515.995 511.182C515.449 512.778 514.917 513.352 513.461 513.352H512.341ZM521.652 511V500.99H524.508L525.922 506.016C526.272 507.276 526.552 508.718 526.552 508.718H526.58C526.58 508.718 526.846 507.276 527.196 506.016L528.61 500.99H531.508V511H529.618V505.26C529.618 504.448 529.702 503.188 529.702 503.188H529.674C529.674 503.188 529.45 504.364 529.24 505.092L527.518 511H525.572L523.892 505.092C523.682 504.364 523.458 503.188 523.458 503.188H523.43C523.43 503.188 523.514 504.448 523.514 505.26V511H521.652ZM536.274 511.21C533.894 511.21 532.55 509.544 532.55 507.402C532.55 505.274 533.992 503.622 536.092 503.622C538.402 503.622 539.634 505.386 539.634 507.948H534.426C534.566 509.054 535.182 509.74 536.26 509.74C537.002 509.74 537.436 509.404 537.646 508.858H539.522C539.256 510.132 538.122 511.21 536.274 511.21ZM536.12 505.092C535.112 505.092 534.622 505.694 534.454 506.632H537.646C537.59 505.722 536.988 505.092 536.12 505.092ZM543.203 511.21C541.397 511.21 540.165 509.74 540.165 507.416C540.165 505.176 541.439 503.622 543.231 503.622C544.239 503.622 544.869 504.084 545.261 504.686H545.303V500.99H547.207V511H545.373V510.062H545.345C544.925 510.748 544.211 511.21 543.203 511.21ZM543.623 509.614C544.757 509.614 545.345 508.774 545.345 507.458C545.345 506.086 544.897 505.162 543.679 505.162C542.629 505.162 542.097 506.086 542.097 507.416C542.097 508.802 542.643 509.614 543.623 509.614ZM548.445 511V503.818H550.349V511H548.445ZM548.445 502.698V500.99H550.349V502.698H548.445ZM554.908 511.21C552.64 511.21 551.226 509.558 551.226 507.416C551.226 505.274 552.626 503.622 554.81 503.622C556.672 503.622 557.82 504.7 558.072 506.254H556.21C556.084 505.624 555.594 505.148 554.894 505.148C553.746 505.148 553.158 506.03 553.158 507.416C553.158 508.774 553.704 509.684 554.866 509.684C555.636 509.684 556.182 509.278 556.308 508.466H558.142C558.016 509.992 556.826 511.21 554.908 511.21ZM558.972 511V503.818H560.876V511H558.972ZM558.972 502.698V500.99H560.876V502.698H558.972ZM563.965 503.818V504.798H564.007C564.497 504.028 565.155 503.622 566.135 503.622C567.619 503.622 568.613 504.742 568.613 506.31V511H566.709V506.59C566.709 505.82 566.261 505.274 565.463 505.274C564.623 505.274 564.007 505.946 564.007 506.926V511H562.103V503.818H563.965ZM573.161 511.21C570.781 511.21 569.437 509.544 569.437 507.402C569.437 505.274 570.879 503.622 572.979 503.622C575.289 503.622 576.521 505.386 576.521 507.948H571.313C571.453 509.054 572.069 509.74 573.147 509.74C573.889 509.74 574.323 509.404 574.533 508.858H576.409C576.143 510.132 575.009 511.21 573.161 511.21ZM573.007 505.092C571.999 505.092 571.509 505.694 571.341 506.632H574.533C574.477 505.722 573.875 505.092 573.007 505.092Z" fill="#1A1A1A"/>
<path d="M665.479 548V537.99H672.647V539.712H667.509V542.12H671.863V543.856H667.509V548H665.479ZM677.531 548C677.419 547.86 677.349 547.524 677.307 547.202H677.279C676.915 547.748 676.397 548.168 675.165 548.168C673.695 548.168 672.659 547.398 672.659 545.97C672.659 544.388 673.947 543.884 675.543 543.66C676.733 543.492 677.279 543.394 677.279 542.848C677.279 542.33 676.873 541.994 676.075 541.994C675.179 541.994 674.745 542.316 674.689 543.002H672.995C673.051 541.742 673.989 540.636 676.089 540.636C678.245 540.636 679.113 541.602 679.113 543.282V546.936C679.113 547.482 679.197 547.804 679.365 547.93V548H677.531ZM675.627 546.838C676.719 546.838 677.321 546.166 677.321 545.466V544.388C676.985 544.584 676.467 544.696 675.991 544.808C674.997 545.032 674.507 545.256 674.507 545.928C674.507 546.6 674.955 546.838 675.627 546.838ZM682.157 540.818V541.966H682.199C682.633 541.154 683.123 540.734 683.963 540.734C684.173 540.734 684.299 540.748 684.411 540.79V542.456H684.369C683.123 542.33 682.227 542.988 682.227 544.5V548H680.323V540.818H682.157ZM685.231 548V540.818H687.065V541.784H687.107C687.499 541.126 688.199 540.622 689.193 540.622C690.103 540.622 690.831 541.126 691.181 541.882H691.209C691.699 541.098 692.455 540.622 693.365 540.622C694.877 540.622 695.731 541.602 695.731 543.17V548H693.827V543.492C693.827 542.68 693.421 542.26 692.721 542.26C691.923 542.26 691.433 542.876 691.433 543.828V548H689.529V543.492C689.529 542.68 689.123 542.26 688.423 542.26C687.653 542.26 687.135 542.876 687.135 543.828V548H685.231ZM652.149 564V553.99H656.741C658.673 553.99 659.961 555.11 659.961 556.776C659.961 557.952 659.415 558.848 658.127 559.198V559.24C659.051 559.506 659.527 560.038 659.653 561.256C659.793 562.67 659.737 563.748 660.087 563.902V564H658.141C657.889 563.888 657.861 562.768 657.777 561.69C657.693 560.598 657.077 559.982 655.817 559.982H654.179V564H652.149ZM654.179 555.628V558.414H656.335C657.441 558.414 657.987 557.84 657.987 557.042C657.987 556.23 657.469 555.628 656.391 555.628H654.179ZM664.42 564.21C662.04 564.21 660.696 562.544 660.696 560.402C660.696 558.274 662.138 556.622 664.238 556.622C666.548 556.622 667.78 558.386 667.78 560.948H662.572C662.712 562.054 663.328 562.74 664.406 562.74C665.148 562.74 665.582 562.404 665.792 561.858H667.668C667.402 563.132 666.268 564.21 664.42 564.21ZM664.266 558.092C663.258 558.092 662.768 558.694 662.6 559.632H665.792C665.736 558.722 665.134 558.092 664.266 558.092ZM671.573 564.21C669.487 564.21 668.325 563.202 668.213 561.676H669.977C670.103 562.502 670.691 562.866 671.545 562.866C672.385 562.866 672.861 562.544 672.861 562.04C672.861 561.354 671.951 561.284 670.971 561.088C669.683 560.836 668.423 560.486 668.423 558.918C668.423 557.364 669.711 556.622 671.349 556.622C673.239 556.622 674.289 557.56 674.429 559.002H672.707C672.623 558.232 672.133 557.952 671.321 557.952C670.579 557.952 670.089 558.232 670.089 558.75C670.089 559.366 671.041 559.422 672.063 559.632C673.267 559.884 674.597 560.22 674.597 561.9C674.597 563.342 673.365 564.21 671.573 564.21ZM678.898 564.21C676.518 564.21 675.174 562.544 675.174 560.402C675.174 558.274 676.616 556.622 678.716 556.622C681.026 556.622 682.258 558.386 682.258 560.948H677.05C677.19 562.054 677.806 562.74 678.884 562.74C679.626 562.74 680.06 562.404 680.27 561.858H682.146C681.88 563.132 680.746 564.21 678.898 564.21ZM678.744 558.092C677.736 558.092 677.246 558.694 677.078 559.632H680.27C680.214 558.722 679.612 558.092 678.744 558.092ZM687.661 564C687.549 563.86 687.479 563.524 687.437 563.202H687.409C687.045 563.748 686.527 564.168 685.295 564.168C683.825 564.168 682.789 563.398 682.789 561.97C682.789 560.388 684.077 559.884 685.673 559.66C686.863 559.492 687.409 559.394 687.409 558.848C687.409 558.33 687.003 557.994 686.205 557.994C685.309 557.994 684.875 558.316 684.819 559.002H683.125C683.181 557.742 684.119 556.636 686.219 556.636C688.375 556.636 689.243 557.602 689.243 559.282V562.936C689.243 563.482 689.327 563.804 689.495 563.93V564H687.661ZM685.757 562.838C686.849 562.838 687.451 562.166 687.451 561.466V560.388C687.115 560.584 686.597 560.696 686.121 560.808C685.127 561.032 684.637 561.256 684.637 561.928C684.637 562.6 685.085 562.838 685.757 562.838ZM692.288 556.818V557.966H692.33C692.764 557.154 693.254 556.734 694.094 556.734C694.304 556.734 694.43 556.748 694.542 556.79V558.456H694.5C693.254 558.33 692.358 558.988 692.358 560.5V564H690.454V556.818H692.288ZM698.489 564.21C696.221 564.21 694.807 562.558 694.807 560.416C694.807 558.274 696.207 556.622 698.391 556.622C700.253 556.622 701.401 557.7 701.653 559.254H699.791C699.665 558.624 699.175 558.148 698.475 558.148C697.327 558.148 696.739 559.03 696.739 560.416C696.739 561.774 697.285 562.684 698.447 562.684C699.217 562.684 699.763 562.278 699.889 561.466H701.723C701.597 562.992 700.407 564.21 698.489 564.21ZM704.458 553.99V557.756H704.5C705.018 557 705.606 556.622 706.586 556.622C708.07 556.622 709.064 557.742 709.064 559.31V564H707.16V559.59C707.16 558.82 706.712 558.274 705.914 558.274C705.074 558.274 704.458 558.946 704.458 559.926V564H702.554V553.99H704.458ZM666.183 580V569.99H673.351V571.712H668.213V574.12H672.567V575.856H668.213V580H666.183ZM674.342 580V572.818H676.246V580H674.342ZM674.342 571.698V569.99H676.246V571.698H674.342ZM680.846 580.21C678.466 580.21 677.122 578.544 677.122 576.402C677.122 574.274 678.564 572.622 680.664 572.622C682.974 572.622 684.206 574.386 684.206 576.948H678.998C679.138 578.054 679.754 578.74 680.832 578.74C681.574 578.74 682.008 578.404 682.218 577.858H684.094C683.828 579.132 682.694 580.21 680.846 580.21ZM680.692 574.092C679.684 574.092 679.194 574.694 679.026 575.632H682.218C682.162 574.722 681.56 574.092 680.692 574.092ZM685.116 580V569.99H687.02V580H685.116ZM690.961 580.21C689.155 580.21 687.923 578.74 687.923 576.416C687.923 574.176 689.197 572.622 690.989 572.622C691.997 572.622 692.627 573.084 693.019 573.686H693.061V569.99H694.965V580H693.131V579.062H693.103C692.683 579.748 691.969 580.21 690.961 580.21ZM691.381 578.614C692.515 578.614 693.103 577.774 693.103 576.458C693.103 575.086 692.655 574.162 691.437 574.162C690.387 574.162 689.855 575.086 689.855 576.416C689.855 577.802 690.401 578.614 691.381 578.614Z" fill="#1A1A1A"/>
<path d="M367.919 787V776.99H375.087V778.712H369.949V781.12H374.303V782.856H369.949V787H367.919ZM379.971 787C379.859 786.86 379.789 786.524 379.747 786.202H379.719C379.355 786.748 378.837 787.168 377.605 787.168C376.135 787.168 375.099 786.398 375.099 784.97C375.099 783.388 376.387 782.884 377.983 782.66C379.173 782.492 379.719 782.394 379.719 781.848C379.719 781.33 379.313 780.994 378.515 780.994C377.619 780.994 377.185 781.316 377.129 782.002H375.435C375.491 780.742 376.429 779.636 378.529 779.636C380.685 779.636 381.553 780.602 381.553 782.282V785.936C381.553 786.482 381.637 786.804 381.805 786.93V787H379.971ZM378.067 785.838C379.159 785.838 379.761 785.166 379.761 784.466V783.388C379.425 783.584 378.907 783.696 378.431 783.808C377.437 784.032 376.947 784.256 376.947 784.928C376.947 785.6 377.395 785.838 378.067 785.838ZM384.597 779.818V780.966H384.639C385.073 780.154 385.563 779.734 386.403 779.734C386.613 779.734 386.739 779.748 386.851 779.79V781.456H386.809C385.563 781.33 384.667 781.988 384.667 783.5V787H382.763V779.818H384.597ZM387.672 787V779.818H389.506V780.784H389.548C389.94 780.126 390.64 779.622 391.634 779.622C392.544 779.622 393.272 780.126 393.622 780.882H393.65C394.14 780.098 394.896 779.622 395.806 779.622C397.318 779.622 398.172 780.602 398.172 782.17V787H396.268V782.492C396.268 781.68 395.862 781.26 395.162 781.26C394.364 781.26 393.874 781.876 393.874 782.828V787H391.97V782.492C391.97 781.68 391.564 781.26 390.864 781.26C390.094 781.26 389.576 781.876 389.576 782.828V787H387.672ZM401.853 787V776.99H406.445C408.377 776.99 409.665 778.11 409.665 779.776C409.665 780.952 409.119 781.848 407.831 782.198V782.24C408.755 782.506 409.231 783.038 409.357 784.256C409.497 785.67 409.441 786.748 409.791 786.902V787H407.845C407.593 786.888 407.565 785.768 407.481 784.69C407.397 783.598 406.781 782.982 405.521 782.982H403.883V787H401.853ZM403.883 778.628V781.414H406.039C407.145 781.414 407.691 780.84 407.691 780.042C407.691 779.23 407.173 778.628 406.095 778.628H403.883ZM414.124 787.21C411.744 787.21 410.4 785.544 410.4 783.402C410.4 781.274 411.842 779.622 413.942 779.622C416.252 779.622 417.484 781.386 417.484 783.948H412.276C412.416 785.054 413.032 785.74 414.11 785.74C414.852 785.74 415.286 785.404 415.496 784.858H417.372C417.106 786.132 415.972 787.21 414.124 787.21ZM413.97 781.092C412.962 781.092 412.472 781.694 412.304 782.632H415.496C415.44 781.722 414.838 781.092 413.97 781.092ZM421.277 787.21C419.191 787.21 418.029 786.202 417.917 784.676H419.681C419.807 785.502 420.395 785.866 421.249 785.866C422.089 785.866 422.565 785.544 422.565 785.04C422.565 784.354 421.655 784.284 420.675 784.088C419.387 783.836 418.127 783.486 418.127 781.918C418.127 780.364 419.415 779.622 421.053 779.622C422.943 779.622 423.993 780.56 424.133 782.002H422.411C422.327 781.232 421.837 780.952 421.025 780.952C420.283 780.952 419.793 781.232 419.793 781.75C419.793 782.366 420.745 782.422 421.767 782.632C422.971 782.884 424.301 783.22 424.301 784.9C424.301 786.342 423.069 787.21 421.277 787.21ZM428.602 787.21C426.222 787.21 424.878 785.544 424.878 783.402C424.878 781.274 426.32 779.622 428.42 779.622C430.73 779.622 431.962 781.386 431.962 783.948H426.754C426.894 785.054 427.51 785.74 428.588 785.74C429.33 785.74 429.764 785.404 429.974 784.858H431.85C431.584 786.132 430.45 787.21 428.602 787.21ZM428.448 781.092C427.44 781.092 426.95 781.694 426.782 782.632H429.974C429.918 781.722 429.316 781.092 428.448 781.092ZM437.366 787C437.254 786.86 437.184 786.524 437.142 786.202H437.114C436.75 786.748 436.232 787.168 435 787.168C433.53 787.168 432.494 786.398 432.494 784.97C432.494 783.388 433.782 782.884 435.378 782.66C436.568 782.492 437.114 782.394 437.114 781.848C437.114 781.33 436.708 780.994 435.91 780.994C435.014 780.994 434.58 781.316 434.524 782.002H432.83C432.886 780.742 433.824 779.636 435.924 779.636C438.08 779.636 438.948 780.602 438.948 782.282V785.936C438.948 786.482 439.032 786.804 439.2 786.93V787H437.366ZM435.462 785.838C436.554 785.838 437.156 785.166 437.156 784.466V783.388C436.82 783.584 436.302 783.696 435.826 783.808C434.832 784.032 434.342 784.256 434.342 784.928C434.342 785.6 434.79 785.838 435.462 785.838ZM441.992 779.818V780.966H442.034C442.468 780.154 442.958 779.734 443.798 779.734C444.008 779.734 444.134 779.748 444.246 779.79V781.456H444.204C442.958 781.33 442.062 781.988 442.062 783.5V787H440.158V779.818H441.992ZM448.193 787.21C445.925 787.21 444.511 785.558 444.511 783.416C444.511 781.274 445.911 779.622 448.095 779.622C449.957 779.622 451.105 780.7 451.357 782.254H449.495C449.369 781.624 448.879 781.148 448.179 781.148C447.031 781.148 446.443 782.03 446.443 783.416C446.443 784.774 446.989 785.684 448.151 785.684C448.921 785.684 449.467 785.278 449.593 784.466H451.427C451.301 785.992 450.111 787.21 448.193 787.21ZM454.162 776.99V780.756H454.204C454.722 780 455.31 779.622 456.29 779.622C457.774 779.622 458.768 780.742 458.768 782.31V787H456.864V782.59C456.864 781.82 456.416 781.274 455.618 781.274C454.778 781.274 454.162 781.946 454.162 782.926V787H452.258V776.99H454.162ZM462.447 787V776.99H469.615V778.712H464.477V781.12H468.831V782.856H464.477V787H462.447ZM470.605 787V779.818H472.509V787H470.605ZM470.605 778.698V776.99H472.509V778.698H470.605ZM477.11 787.21C474.73 787.21 473.386 785.544 473.386 783.402C473.386 781.274 474.828 779.622 476.928 779.622C479.238 779.622 480.47 781.386 480.47 783.948H475.262C475.402 785.054 476.018 785.74 477.096 785.74C477.838 785.74 478.272 785.404 478.482 784.858H480.358C480.092 786.132 478.958 787.21 477.11 787.21ZM476.956 781.092C475.948 781.092 475.458 781.694 475.29 782.632H478.482C478.426 781.722 477.824 781.092 476.956 781.092ZM481.379 787V776.99H483.283V787H481.379ZM487.225 787.21C485.419 787.21 484.187 785.74 484.187 783.416C484.187 781.176 485.461 779.622 487.253 779.622C488.261 779.622 488.891 780.084 489.283 780.686H489.325V776.99H491.229V787H489.395V786.062H489.367C488.947 786.748 488.233 787.21 487.225 787.21ZM487.645 785.614C488.779 785.614 489.367 784.774 489.367 783.458C489.367 782.086 488.919 781.162 487.701 781.162C486.651 781.162 486.119 782.086 486.119 783.416C486.119 784.802 486.665 785.614 487.645 785.614Z" fill="#1A1A1A"/>
</g>
</g>
<defs>
<clipPath id="clip0_1038_601">
<rect width="579" height="662" fill="white" transform="translate(171 169)"/>
</clipPath>
</defs>
</svg>
