<svg xmlns="http://www.w3.org/2000/svg" width="245" height="178" viewBox="0 0 245 178" fill="none">
  <path d="M25.1659 28.4909C25.1659 28.4909 9.13495 19.2962 8.26922 17.8036C8.26922 17.8036 6.56761 16.3408 6.56761 14.072C6.56761 14.072 5.97056 8.997 10.1201 6.8476C10.1201 6.8476 11.9113 4.66835 18.8371 4.66835C18.8371 4.66835 24.2106 4.6982 28.6288 7.68348L28.2407 1.41439C28.2407 1.41439 15.4936 -1.66044 8.56775 1.74277C1.67176 5.2057 0 10.3702 0 14.0421C0 17.714 2.05984 23.0278 7.61246 26.0728C7.61246 26.0728 21.9418 33.2375 25.4047 37.5064C25.4047 37.5064 28.7482 42.1038 25.5241 47.925C25.5241 47.925 22.0314 52.9105 14.2995 52.9105C14.2995 52.9105 5.91085 52.9105 0.656761 49.9252L1.16426 55.7763C1.16426 55.7763 8.77672 56.9406 14.389 56.9406C14.389 56.9406 23.5837 57.269 28.1213 53.6866C28.1213 53.6866 33.9725 49.2386 33.9725 42.4023C33.9725 42.4023 35.1666 34.3122 25.1958 28.4909H25.1659Z" fill="white"/>
  <path d="M75.7055 55.8359L76.5115 50.4326C75.2278 51.5073 71.138 51.4177 71.138 51.4177H52.9875V27.6549H70.3917C72.0634 27.6549 72.9292 28.3415 72.9292 28.3415V23.4456H52.9875V5.32499H70.9887C72.5709 5.32499 73.8546 6.31013 73.8546 6.31013L73.6158 0.458984H45.8228C45.8228 0.458984 46.8378 2.30986 46.8378 4.54882V52.2536C46.8378 52.2536 47.0468 53.0596 45.793 55.8061H75.7353L75.7055 55.8359Z" fill="white"/>
  <path d="M113.71 55.6271C128.905 55.6271 141.205 43.2382 141.205 27.9237C141.205 12.6092 128.905 0.19043 113.71 0.19043C98.515 0.19043 86.2754 12.5793 86.2754 27.9237C86.2754 43.268 98.5747 55.6271 113.71 55.6271ZM113.71 4.48923C125.621 4.48923 135.264 14.9676 135.264 27.9237C135.264 40.8798 125.621 51.3283 113.71 51.3283C101.799 51.3283 92.1862 40.8499 92.1862 27.9237C92.1862 14.9974 101.829 4.48923 113.71 4.48923Z" fill="white"/>
  <path d="M175.505 56.3435C187.147 56.3435 196.581 47.5369 196.581 36.7302H196.551V3.20555C196.551 2.04129 197.148 0.518799 197.148 0.518799H189.744C190.55 1.0263 190.64 3.26526 190.64 3.26526V36.8496C190.64 45.1786 183.893 51.9253 175.564 51.9253C167.235 51.9253 160.459 45.1786 160.459 36.8496L160.548 36.0735L160.429 0.668063L154.488 0.548652V37.0288C154.667 47.7459 164.011 56.3734 175.564 56.3734L175.505 56.3435Z" fill="white"/>
  <path d="M240.253 51.7461H219.774V4.01151C219.774 1.65314 220.729 0.548584 220.729 0.548584H213.027C213.833 1.68299 213.654 2.93681 213.654 2.93681V55.836H243.238L245 50.8207C243.179 51.8357 240.283 51.7461 240.283 51.7461H240.253Z" fill="white"/>
  <path d="M142.665 102.585C142.665 93.7489 135.59 86.5842 126.843 86.5842C118.097 86.5842 111.021 93.7191 111.021 102.585C111.021 111.452 118.126 118.557 126.843 118.557C135.56 118.557 142.665 111.422 142.665 102.585ZM126.843 116.079C119.977 116.079 114.425 110.049 114.425 102.585C114.425 95.1221 119.977 89.062 126.843 89.062C133.71 89.062 139.262 95.0923 139.262 102.585C139.262 110.078 133.71 116.079 126.843 116.079Z" fill="white"/>
  <path d="M225.51 116.318V88.7936C225.51 87.4502 226.018 86.7935 226.018 86.7935H221.6C222.077 87.4502 221.958 88.1667 221.958 88.1667V118.646H238.974L239.989 115.751C238.944 116.348 237.272 116.288 237.272 116.288H225.51V116.318Z" fill="white"/>
  <path d="M26.8394 89.0025V111.332L4.56922 86.7635H0.957031C0.957031 86.7635 1.58394 87.5099 1.58394 89.2115V116.378C1.58394 116.378 1.52423 117.751 1.1063 118.557H1.13615H4.65878C4.27069 117.721 4.27069 116.258 4.27069 116.258V91.2415L29.2873 118.378V88.8831C29.2873 87.9577 29.7053 86.7635 29.7053 86.7635H26.3021C26.8991 87.3606 26.8394 89.0025 26.8394 89.0025Z" fill="white"/>
  <path d="M175.654 89.0025V111.332L153.354 86.7336H149.742C149.742 86.7336 150.399 87.48 150.399 89.1816V116.348C150.399 116.348 150.339 117.721 149.951 118.527H153.474C153.086 117.691 153.086 116.228 153.086 116.228V91.2116L178.102 118.348V88.8532C178.102 87.9278 178.55 86.7336 178.55 86.7336H175.117C175.714 87.3307 175.654 88.9726 175.654 88.9726V89.0025Z" fill="white"/>
  <path d="M51.5558 86.7635H47.4958C47.4958 86.7635 48.0033 88.0771 47.6152 89.3906L37.316 115.631C37.316 115.631 36.0622 118.109 35.3457 118.646H39.1967C38.9877 117.631 39.5848 116.676 39.5848 116.676L43.794 106.407H56.8099L61.1982 115.482C61.9147 117.333 61.7356 118.676 61.7356 118.676H67.1986C65.1388 115.989 64.3029 114.049 64.3029 114.049L51.5856 86.7635H51.5558ZM44.5404 104.018L49.6153 91.1519L55.7352 104.018H44.5404Z" fill="white"/>
  <path d="M193.116 106.407H206.132L210.52 115.482C211.236 117.333 211.057 118.676 211.057 118.676H216.49C214.431 115.989 213.595 114.049 213.595 114.049L200.877 86.7635H196.847C196.847 86.7635 197.385 88.0771 196.967 89.3906L186.668 115.631C186.668 115.631 185.444 118.109 184.697 118.646H188.518C188.309 117.631 188.877 116.676 188.877 116.676L193.086 106.407H193.116ZM199.743 91.1519L205.833 104.018H194.668L199.743 91.1519Z" fill="white"/>
  <path d="M77.1106 118.736H81.7079C81.7079 118.736 81.2303 117.661 81.2303 116.825V89.3309H87.9173C87.9173 89.3309 90.4548 89.3309 91.5295 90.0175L90.9026 86.8531H67.8861L67.6473 86.9129L66.8711 89.6593C66.8711 89.6593 67.5577 89.3011 68.8414 89.3011H77.4091V116.945C77.4091 116.945 77.2599 118.378 77.1106 118.766V118.736Z" fill="white"/>
  <path d="M103.322 86.7635H98.9336C98.9336 86.7635 99.5008 87.6591 99.5008 88.5248V116.527C99.5008 116.527 99.4112 117.81 98.9635 118.706H103.322C103.322 118.706 102.785 117.81 102.785 116.437V88.4353C102.785 88.4353 102.964 87.1217 103.322 86.7336V86.7635Z" fill="white"/>
  <path d="M169.922 162.858C169.922 162.858 161.862 158.231 161.414 157.485C161.414 157.485 160.548 156.738 160.548 155.604C160.548 155.604 160.25 153.066 162.339 151.962C162.339 151.962 163.235 150.857 166.728 150.857C166.728 150.857 169.444 150.857 171.683 152.38L171.474 149.215C171.474 149.215 165.026 147.693 161.563 149.424C158.07 151.156 157.234 153.753 157.234 155.604C157.234 157.455 158.279 160.112 161.085 161.694C161.085 161.694 168.28 165.306 170.041 167.455C170.041 167.455 171.743 169.784 170.071 172.68C170.071 172.68 168.31 175.187 164.429 175.187C164.429 175.187 160.19 175.187 157.563 173.665L157.831 176.62C157.831 176.62 161.682 177.217 164.489 177.217C164.489 177.217 169.146 177.366 171.414 175.575C171.414 175.575 174.37 173.336 174.37 169.903C174.37 169.903 174.967 165.813 169.922 162.858Z" fill="white"/>
  <path d="M114.546 174.59V162.589H123.323C124.158 162.589 124.606 162.948 124.606 162.948V160.47H114.546V151.365H123.621C124.427 151.365 125.084 151.872 125.084 151.872L124.964 148.917H110.963C110.963 148.917 111.471 149.812 111.471 150.977V174.978C111.471 174.978 111.561 175.396 110.934 176.799H126.009L126.397 174.053C125.741 174.62 123.681 174.56 123.681 174.56H114.546V174.59Z" fill="white"/>
  <path d="M24.9868 148.768H21.2552C21.6432 149.007 21.7029 150.171 21.7029 150.171V167.097C21.7029 171.307 18.2997 174.68 14.0905 174.68C9.88124 174.68 6.47802 171.307 6.47802 167.097V166.709L6.44817 148.828L3.46289 148.768V167.157C3.55245 172.56 8.26919 176.889 14.0606 176.889C19.8521 176.889 24.6882 172.471 24.6882 166.978V150.111C24.6882 149.514 24.9868 148.768 24.9868 148.768Z" fill="white"/>
  <path d="M56.838 150.857V170.411L37.3441 148.917H34.1797C34.1797 148.917 34.717 149.544 34.717 151.036V174.799C34.717 174.799 34.6573 175.993 34.2991 176.71H37.3739C37.0456 175.964 37.0456 174.71 37.0456 174.71V152.828L58.9277 176.561V150.738C58.9277 149.962 59.2859 148.917 59.2859 148.917H56.3006C56.8081 149.424 56.7783 150.857 56.7783 150.857H56.838Z" fill="white"/>
  <path d="M191.056 148.917H190.817L190.16 151.335C190.16 151.335 190.757 151.007 191.892 151.007H199.415V175.217C199.415 175.217 199.265 176.471 199.146 176.769H203.176C203.176 176.769 202.758 175.844 202.758 175.128V151.066H208.609C208.609 151.066 210.788 151.066 211.714 151.663L211.177 148.887H191.086L191.056 148.917Z" fill="white"/>
  <path d="M184.816 148.798H180.965C180.965 148.798 181.442 149.574 181.442 150.35V174.829C181.442 174.829 181.353 175.964 180.965 176.74H184.786C184.786 176.74 184.308 175.964 184.308 174.77V150.26C184.308 150.26 184.487 149.096 184.816 148.768V148.798Z" fill="white"/>
  <path d="M73.1069 148.798H69.2559C69.2559 148.798 69.7335 149.574 69.7335 150.35V174.829C69.7335 174.829 69.6738 175.964 69.2559 176.74H73.077C73.077 176.74 72.6292 175.964 72.6292 174.77V150.26C72.6292 150.26 72.7785 149.096 73.1069 148.768V148.798Z" fill="white"/>
  <path d="M101.946 150.798L92.4825 171.695L82.8699 150.798C82.0938 149.454 82.4819 148.828 82.4819 148.828H78.4219C78.4219 148.828 79.4667 150.529 80.6011 152.977L92.2437 177.367L104.304 151.455C104.304 151.455 105.409 149.395 106.275 148.798H102.304C102.304 148.798 102.692 149.395 101.946 150.768V150.798Z" fill="white"/>
  <path d="M150.43 172.441L141.713 162.231C144.31 162.231 146.997 159.963 146.997 159.963C148.967 158.261 148.967 155.156 148.967 155.156C148.758 152.29 146.907 150.828 146.907 150.828C144.788 148.648 141.325 148.828 141.325 148.828C135.951 148.828 133.742 149.096 133.742 149.096C133.742 149.096 134.19 149.574 134.19 150.38V175.337C134.19 176.023 133.862 176.68 133.862 176.68H137.683C137.235 176.023 137.265 175.367 137.265 175.367V161.097V151.813L137.325 151.514C137.325 151.514 137.384 150.828 139.922 150.828C139.922 150.828 142.758 150.798 143.952 152.171C143.952 152.171 145.653 153.574 145.653 155.335C145.653 155.335 145.773 158.201 144.28 159.216C144.28 159.216 142.459 161.097 137.325 161.097L149.833 176.62H154.221C153.296 175.814 150.43 172.411 150.43 172.411V172.441Z" fill="white"/>
  <path d="M232.671 149.932L226.67 160.142L220.312 150.171C219.864 149.335 220.043 148.887 220.043 148.887H215.535C215.535 148.887 216.49 149.723 217.177 150.917L224.551 162.411V175.247C224.551 175.247 224.551 176.232 224.282 176.74H228.252C227.954 176.411 227.835 175.396 227.835 175.396V162.47L234.522 152.111C236.581 148.738 236.76 148.827 236.76 148.827H232.939C232.939 149.425 232.671 149.992 232.671 149.992V149.932Z" fill="white"/>
</svg>
