<svg width="995" height="48" viewBox="0 0 995 48" fill="#fff" xmlns="http://www.w3.org/2000/svg">
<g clip-path="url(#clip0_319_30300)">
<path d="M20.9559 24.1064C20.9559 24.1064 7.61712 16.3782 6.91509 15.1019C6.91509 15.1019 5.51101 13.8612 5.51101 11.9823C5.51101 11.9823 5.01958 7.72822 8.45957 5.8848C8.45957 5.8848 9.93385 4.04137 15.6906 4.04137C15.6906 4.04137 20.1485 4.07682 23.8342 6.59381L23.5183 1.31168C23.5183 1.31168 12.9175 -1.27621 7.1608 1.59529C1.36898 4.53768 0 8.89809 0 11.9823C0 15.0665 1.72 19.5332 6.31835 22.0857C6.31835 22.0857 18.2179 28.0768 21.1314 31.6928C21.1314 31.6928 23.9044 35.5569 21.2016 40.4491C21.2016 40.4491 18.2881 44.6322 11.8645 44.6322C11.8645 44.6322 4.87917 44.6322 0.526529 42.1152L0.947753 47.0074C0.947753 47.0074 7.2661 48 11.9698 48C11.9698 48 19.622 48.2836 23.413 45.2703C23.413 45.2703 28.2571 41.548 28.2571 35.7696C28.2571 35.7696 29.275 28.9985 20.9559 24.1064Z"/>
<path d="M59.1468 43.356H44.053V23.3973H58.5501C59.9542 23.3973 60.6562 23.9645 60.6562 23.9645V19.8523H44.053V4.64401H59.0415C60.3403 4.64401 61.3933 5.49482 61.3933 5.49482L61.2178 0.5672H38.0856C38.0856 0.5672 38.9281 2.12702 38.9281 4.0059V44.065C38.9281 44.065 39.1036 44.7385 38.0505 47.0783H62.9729L63.6399 42.5406C62.5868 43.4623 59.1468 43.356 59.1468 43.356Z"/>
<path d="M94.5997 0.354492C81.9981 0.354492 71.7834 10.7769 71.7834 23.6809C71.7834 36.5849 82.0332 46.9365 94.5997 46.9365C107.166 46.9365 117.451 36.514 117.451 23.6809C117.451 10.8478 107.201 0.354492 94.5997 0.354492ZM94.5997 43.2851C84.701 43.2851 76.6977 34.4933 76.6977 23.6455C76.6977 12.7976 84.701 3.93499 94.5997 3.93499C104.498 3.93499 112.537 12.7267 112.537 23.6455C112.537 34.5642 104.534 43.2851 94.5997 43.2851Z"/>
<path d="M419.012 0.354492C406.41 0.354492 396.196 10.7769 396.196 23.6809C396.196 36.5849 406.446 46.9365 419.012 46.9365C431.579 46.9365 441.828 36.514 441.828 23.6809C441.828 10.8478 431.649 0.354492 419.012 0.354492ZM419.012 43.2851C409.113 43.2851 401.075 34.4933 401.075 23.6455C401.075 12.7976 409.078 3.93499 419.012 3.93499C428.946 3.93499 436.949 12.7267 436.949 23.6455C436.949 34.5642 428.946 43.2851 419.012 43.2851Z"/>
<path d="M163.961 0.602661H157.818C158.485 1.02807 158.556 2.94239 158.556 2.94239V31.1256C158.556 38.1448 152.939 43.7814 146.024 43.7814C139.109 43.7814 133.458 38.1093 133.458 31.1256L133.528 30.4874L133.423 0.744463L128.473 0.638112V31.2674C128.614 40.2718 136.406 47.5037 145.989 47.5037C155.572 47.5037 163.505 40.0945 163.505 31.0192V2.87149C163.505 1.87888 163.996 0.602661 163.996 0.602661H163.961Z"/>
<path d="M199.835 43.6396H182.811V3.54506C182.811 1.55984 183.583 0.638123 183.583 0.638123H177.195C177.862 1.59529 177.721 2.62335 177.721 2.62335V47.0783H202.328L203.767 42.8597C202.257 43.7105 199.835 43.6396 199.835 43.6396Z"/>
<path d="M578.375 43.6396H561.386V3.54506C561.386 1.55984 562.158 0.638123 562.158 0.638123H555.769C556.436 1.59529 556.296 2.62335 556.296 2.62335V47.0783H580.832L582.306 42.8597C580.797 43.7105 578.375 43.6396 578.375 43.6396Z"/>
<path d="M274.708 3.8641V36.4077L242.554 0.5672H237.324C237.324 0.5672 238.237 1.66617 238.237 4.11225V43.7459C238.237 43.7459 238.167 45.7312 237.57 46.901H242.66C242.133 45.6603 242.133 43.5332 242.133 43.5332V7.09009L278.218 46.6529V3.68685C278.218 2.33973 278.85 0.5672 278.85 0.5672H273.936C274.778 1.45346 274.708 3.8641 274.708 3.8641Z"/>
<path d="M489.462 3.8641V36.4077L457.308 0.5672H452.078C452.078 0.5672 452.991 1.66617 452.991 4.11225V43.7459C452.991 43.7459 452.885 45.7312 452.324 46.901H457.414C456.852 45.6603 456.852 43.5332 456.852 43.5332V7.09009L492.972 46.6529V3.68685C492.972 2.33973 493.639 0.5672 493.639 0.5672H488.689C489.567 1.45346 489.497 3.8641 489.497 3.8641H489.462Z"/>
<path d="M310.336 0.5672H304.474C304.474 0.5672 305.211 2.48153 304.65 4.39586L289.767 42.6824C289.767 42.6824 287.976 46.2629 286.888 47.0783H292.434C292.118 45.6248 292.961 44.2068 292.961 44.2068L299.069 29.2112H317.883L324.202 42.4343C325.255 45.164 324.974 47.0428 324.974 47.0428H332.837C329.888 43.1433 328.659 40.3072 328.659 40.3072L310.336 0.5672ZM300.227 25.7371L307.528 6.98374L316.374 25.7371H300.227Z"/>
<path d="M525.897 0.5672H520.071C520.071 0.5672 520.843 2.48153 520.246 4.39586L505.398 42.6824C505.398 42.6824 503.608 46.2629 502.52 47.0783H508.031C507.75 45.6248 508.557 44.2068 508.557 44.2068L514.63 29.2112H533.409L539.763 42.4343C540.816 45.164 540.535 47.0428 540.535 47.0428H548.398C545.414 43.1433 544.186 40.3072 544.186 40.3072L525.897 0.5672ZM516.946 25.7371L524.283 6.98374L533.058 25.7371H516.946Z"/>
<path d="M333.89 0.673584L333.539 0.744485L332.451 4.71494C332.451 4.71494 333.434 4.18319 335.294 4.18319H347.685V44.5259C347.685 44.5259 347.474 46.6175 347.264 47.1847H353.898C353.898 47.1847 353.196 45.6248 353.196 44.4195V4.28954H362.814C362.814 4.28954 366.464 4.28954 368.009 5.28215L367.131 0.673584H333.925H333.89Z"/>
<path d="M385.069 0.5672H378.715C378.715 0.5672 379.522 1.87887 379.522 3.15509V43.9941C379.522 43.9941 379.417 45.873 378.75 47.1846H385.069C385.069 47.1846 384.296 45.873 384.296 43.8877V3.04874C384.296 3.04874 384.577 1.13441 385.104 0.5672H385.069Z"/>
<path d="M884.675 23.8228C884.675 23.8228 871.371 16.0945 870.634 14.8538C870.634 14.8538 869.23 13.5776 869.23 11.6987C869.23 11.6987 868.738 7.48007 872.214 5.63665C872.214 5.63665 873.688 3.82867 879.445 3.82867C879.445 3.82867 883.902 3.82867 887.623 6.34566L887.307 1.06353C887.307 1.06353 876.671 -1.48891 870.95 1.41803C865.193 4.28953 863.789 8.64994 863.789 11.6987C863.789 14.7474 865.509 19.2496 870.107 21.8375C870.107 21.8375 882.007 27.8287 884.885 31.4446C884.885 31.4446 887.693 35.3087 884.956 40.1654C884.956 40.1654 882.042 44.3841 875.654 44.3841C875.654 44.3841 868.668 44.3841 864.316 41.8671L864.737 46.7592C864.737 46.7592 871.09 47.7519 875.759 47.7519C875.759 47.7519 883.411 48.0355 887.167 45.0222C887.167 45.0222 892.046 41.2999 892.046 35.5923C892.046 35.5923 893.029 28.7504 884.71 23.8582L884.675 23.8228Z"/>
<path d="M808.363 43.3205H793.269V23.3619H807.731C809.135 23.3619 809.872 23.9645 809.872 23.9645V19.8523H793.234V4.644H808.187C809.486 4.644 810.574 5.45936 810.574 5.45936L810.399 0.531738H787.302C787.302 0.531738 788.144 2.05611 788.144 3.97044V43.9941C788.144 43.9941 788.285 44.7031 787.267 47.0074H812.154L812.821 42.4343C811.768 43.356 808.328 43.2851 808.328 43.2851L808.363 43.3205Z"/>
<path d="M645.49 0.319031H639.347C640.014 0.744437 640.084 2.65876 640.084 2.65876V30.8419C640.084 37.8611 634.468 43.4978 627.553 43.4978C620.638 43.4978 615.021 37.8611 615.021 30.8419V30.2038L614.951 0.425382L610.002 0.319031V30.9483C610.142 39.9527 617.935 47.1846 627.518 47.1846C637.1 47.1846 645.033 39.8109 645.033 30.6647V2.58786C645.033 1.59525 645.525 0.319031 645.525 0.319031H645.49Z"/>
<path d="M698.073 3.82864V36.4077L665.919 0.531738H660.724C660.724 0.531738 661.637 1.59525 661.637 4.04134V43.675C661.637 43.675 661.567 45.6957 660.97 46.8301L666.06 46.8656C665.498 45.6248 665.498 43.5332 665.498 43.5332V7.09008L701.618 46.6529V3.61593C701.618 2.30426 702.215 0.567189 702.215 0.567189H697.3C698.178 1.418 698.108 3.82864 698.108 3.82864H698.073Z"/>
<path d="M919.566 0.531738L919.18 0.602639L918.092 4.5731C918.092 4.5731 919.074 4.04134 920.935 4.04134H933.326V44.384C933.326 44.384 933.115 46.4402 932.87 47.0074H939.504C939.504 47.0074 938.802 45.483 938.802 44.2422V4.14769H948.455C948.455 4.14769 952.07 4.14769 953.615 5.14031L952.737 0.531738H919.566Z"/>
<path d="M909.246 0.354492H902.893C902.893 0.354492 903.7 1.70161 903.7 2.97783V43.7814C903.7 43.7814 903.595 45.6957 902.928 46.9719H909.211C909.211 46.9719 908.439 45.6602 908.439 43.675V2.87148C908.439 2.87148 908.719 0.957151 909.246 0.354492Z"/>
<path d="M724.891 0.354492H718.537C718.537 0.354492 719.309 1.70161 719.309 2.97783V43.7814C719.309 43.7814 719.169 45.6957 718.537 46.9719H724.855C724.855 46.9719 724.083 45.6602 724.083 43.675V2.87148C724.083 2.87148 724.329 0.957151 724.891 0.354492Z"/>
<path d="M772.489 3.68686L756.868 38.4993L741.002 3.68686C739.739 1.45348 740.371 0.425415 740.371 0.425415H733.666C733.666 0.425415 735.386 3.22601 737.246 7.33827L756.482 48L776.385 4.82128C776.385 4.82128 778.21 1.41803 779.615 0.425415H773.086C773.086 0.425415 773.717 1.41803 772.454 3.68686H772.489Z"/>
<path d="M852.521 39.7755L838.165 22.7947C842.412 22.7947 846.87 18.966 846.87 18.966C850.134 16.13 850.134 10.9897 850.134 10.9897C849.818 6.1684 846.764 3.79321 846.764 3.79321C843.219 0.141811 837.533 0.425415 837.533 0.425415C828.652 0.425415 825.036 0.886272 825.036 0.886272C825.036 0.886272 825.738 1.70163 825.738 3.0133V44.6322C825.738 45.8021 825.212 46.8656 825.212 46.8656H831.495C830.758 45.7666 830.828 44.7031 830.828 44.7031V20.9158V5.45939L830.898 4.96308C830.898 4.96308 830.969 3.79321 835.181 3.79321C835.181 3.79321 839.849 3.72231 841.85 5.99115C841.85 5.99115 844.623 8.33088 844.623 11.2378C844.623 11.2378 844.799 16.0236 842.342 17.7607C842.342 17.7607 839.323 20.8449 830.898 20.8804L851.538 46.7592H858.769C857.225 45.4476 852.521 39.74 852.521 39.74V39.7755Z"/>
<path d="M988.682 0.354505C988.682 1.34712 988.26 2.26883 988.26 2.26883L978.362 19.2851L967.866 2.65879C967.129 1.24077 967.41 0.496307 967.41 0.496307H959.968C959.968 0.496307 961.548 1.91433 962.671 3.89956L974.816 23.0074V44.4195C974.816 44.4195 974.816 46.0148 974.36 46.8656H980.924C980.433 46.3338 980.222 44.5968 980.222 44.5968V23.0783L991.279 5.77843C994.649 0.177253 995 0.319055 995 0.319055H988.682V0.354505Z"/>
</g>
<defs>
<clipPath id="clip0_319_30300">
<rect width="995" height="48"/>
</clipPath>
</defs>
</svg>
