<svg width="166" height="26" viewBox="0 0 166 26" fill="#fff" xmlns="http://www.w3.org/2000/svg">
<g clip-path="url(#clip0_319_30324)">
<path d="M8.47059 6.08511C8.41297 5.13679 8.44178 3.36945 8.44178 3.36945H5.8487C5.8487 3.36945 5.88472 5.13679 5.81989 6.08511C5.63261 9.02349 4.43692 13.6861 -0.00732422 16.7825L1.29642 18.6936C1.29642 18.6936 5.114 16.6101 7.14524 11.4015C9.16928 16.6101 12.9941 18.6936 12.9941 18.6936L14.2906 16.7825C9.84636 13.6861 8.65066 9.02349 8.46339 6.08511H8.47059Z"/>
<path d="M46.8194 9.27494C49.3909 9.27494 51.4653 7.19867 51.4653 4.64106C51.4653 2.08345 49.3909 0 46.8194 0C44.2479 0 42.1663 2.07626 42.1663 4.64106C42.1663 7.20586 44.2551 9.27494 46.8194 9.27494ZM46.8194 2.20558C48.1663 2.20558 49.2468 3.2976 49.2468 4.64106C49.2468 5.98453 48.1663 7.06217 46.8194 7.06217C45.4724 7.06217 44.3848 5.97734 44.3848 4.64106C44.3848 3.30478 45.4724 2.20558 46.8194 2.20558Z"/>
<path d="M110.242 11.2866C110.242 13.7939 112.28 15.827 114.794 15.827C117.308 15.827 119.346 13.7939 119.346 11.2866C119.346 8.77923 117.308 6.73889 114.794 6.73889C112.28 6.73889 110.242 8.77205 110.242 11.2866ZM117.106 11.2866C117.106 12.5582 116.069 13.5927 114.794 13.5927C113.519 13.5927 112.482 12.5582 112.482 11.2866C112.482 10.0149 113.519 8.98039 114.794 8.98039C116.069 8.98039 117.106 10.0149 117.106 11.2866Z"/>
<path d="M161.815 15.7767C161.815 15.7767 161.534 20.1951 160.389 22.724H162.845C163.962 19.6778 164.142 15.7049 164.142 15.7049V4.02322H147.856V6.19288H161.815V15.7696V15.7767Z"/>
<path d="M17.8921 9.12406H13.2534V11.459H17.8921V25.9856H20.4492V2.21994H17.8921V9.12406Z"/>
<path d="M88.6472 9.74909H86.7313V2.21994H84.1814V25.9856H86.7313V12.084H88.6472V25.9856H91.1971V2.21994H88.6472V9.74909Z"/>
<path d="M126.283 2.21994H123.726V16.6245H109.356V18.8013H124.655V26H127.205V18.8013V16.6245H126.283V8.67145H129.704V6.588H126.283V2.21994Z"/>
<path d="M74.8245 6.4515H81.3936V4.18845H74.8245H72.5772H72.3035V18.6433H74.8245V18.6217H81.7106V16.3658H74.8245V6.4515Z"/>
<path d="M37.0811 12.3642H45.4725V15.3385H38.284V17.6015H52.8988V19.57H38.284V20.9279H38.2407V25.8779H38.284H40.5745H55.2326V23.622H40.5745V21.8259H55.2326V20.2957V19.57V17.6015V15.3385H52.8988H47.9864V12.3642H56.4355V10.1011H37.0811V12.3642Z"/>
<path d="M157.882 22.7455V12.1559H155.412V22.7455H152.581V12.1559H150.117V22.7455H146.919V24.9224H166V22.7455H157.882Z"/>
<path d="M120.592 4.10942H115.759V1.93976H113.253V4.10942H108.419V6.19287H120.592V4.10942Z"/>
</g>
<defs>
<clipPath id="clip0_319_30324">
<rect width="166" height="26"/>
</clipPath>
</defs>
</svg>
