<svg width="726" height="432" viewBox="0 0 726 432" fill="none" xmlns="http://www.w3.org/2000/svg">
<mask id="mask0_629_37" style="mask-type:alpha" maskUnits="userSpaceOnUse" x="0" y="0" width="726" height="432">
<rect width="726" height="432" fill="#D9D9D9"/>
</mask>
<g mask="url(#mask0_629_37)">
<path d="M252.978 243.418C252.978 251.32 252.978 253.593 264.235 253.918V255H230.464V253.918C241.829 253.593 241.829 251.32 241.829 243.418V187.675C238.149 189.19 234.252 190.272 230.031 190.922L229.814 189.731C239.015 187.999 247.566 183.67 251.895 178.15H252.978V243.418Z" fill="white"/>
<path d="M487.962 215.384C499.327 217.224 512.099 222.42 512.099 235.192C512.099 248.614 499.976 256.082 483.632 256.082C466.963 256.082 460.685 245.475 460.685 236.816C460.685 231.512 463.932 226.641 468.803 226.641C472.267 226.641 474.973 228.914 475.947 232.27C471.834 235.625 467.504 240.388 467.504 244.825C467.504 246.449 468.046 248.181 469.236 249.696C471.834 253.052 477.571 254.784 483.091 254.784C493.915 254.784 499.76 248.939 499.76 234.651C499.76 218.956 492.4 214.518 477.246 216.358V214.626C479.519 214.626 482.333 214.735 485.256 215.059C494.889 213.761 498.569 207.374 498.569 196.334C498.569 184.536 494.673 179.448 484.39 179.448C478.545 179.448 472.916 181.397 469.886 184.752C468.911 185.835 468.154 187.458 468.154 188.757C468.154 193.195 472.05 197.525 475.839 200.988C475.406 204.127 472.483 206.508 469.128 206.508C464.257 206.508 461.551 200.988 461.551 195.901C461.551 187.458 469.669 178.15 485.256 178.15C495.971 178.15 510.367 182.912 510.367 196.334C510.367 210.189 495.863 214.194 487.962 215.384ZM542.788 243.418C542.788 251.32 542.788 253.593 554.045 253.918V255H520.274V253.918C531.639 253.593 531.639 251.32 531.639 243.418V187.675C527.959 189.19 524.062 190.272 519.841 190.922L519.624 189.731C528.825 187.999 537.376 183.67 541.705 178.15H542.788V243.418Z" fill="white"/>
<path d="M188.821 247.422H185.681C184.181 245.742 182.621 243.802 180.761 241.622C180.261 241.042 179.961 240.982 179.601 241.062V244.802C179.601 246.522 179.801 246.642 181.481 246.762V247.422H176.161V246.762C177.721 246.642 177.881 246.522 177.881 244.802V237.062C177.881 235.282 177.721 235.182 176.081 235.062V234.422H181.381V235.062C179.801 235.182 179.601 235.322 179.601 237.062V240.462C180.081 240.362 180.461 240.082 181.061 239.542C182.181 238.482 183.421 237.202 184.321 236.082C184.861 235.422 184.861 235.222 184.001 235.122L183.521 235.062V234.422H188.481V235.062C186.941 235.222 186.421 235.402 185.181 236.522C184.421 237.222 183.021 238.642 181.701 239.962C183.201 241.842 185.361 244.322 186.381 245.402C187.401 246.482 187.861 246.662 188.821 246.762V247.422ZM193.704 238.382C196.184 238.382 198.084 240.382 198.084 242.882C198.084 246.142 195.684 247.662 193.704 247.662C190.904 247.662 189.264 245.442 189.264 243.222C189.264 239.882 191.864 238.382 193.704 238.382ZM193.484 239.122C192.284 239.122 191.164 240.302 191.164 242.582C191.164 245.082 192.284 246.922 193.924 246.922C195.144 246.922 196.184 246.022 196.184 243.322C196.184 240.982 195.224 239.122 193.484 239.122ZM202.321 240.522H202.361C203.021 239.442 203.841 238.382 204.821 238.382C205.541 238.382 206.021 238.922 206.021 239.402C206.021 239.842 205.761 240.242 205.361 240.442C205.121 240.542 204.941 240.502 204.821 240.382C204.521 240.102 204.301 239.982 203.961 239.982C203.421 239.982 202.741 240.602 202.321 241.742V245.282C202.321 246.582 202.421 246.702 204.001 246.822V247.422H199.281V246.822C200.561 246.702 200.701 246.582 200.701 245.282V241.202C200.701 239.882 200.621 239.822 199.461 239.682V239.142C200.461 238.982 201.361 238.722 202.321 238.322V240.522ZM213.664 245.242L214.024 245.742C212.724 247.322 211.344 247.662 210.684 247.662C208.224 247.662 206.764 245.642 206.764 243.382C206.764 242.002 207.284 240.742 208.084 239.862C208.924 238.922 210.004 238.382 211.064 238.382C212.764 238.382 214.124 239.882 214.124 241.502C214.124 241.942 214.044 242.122 213.664 242.202C213.324 242.242 210.764 242.442 208.384 242.522C208.424 245.142 209.944 246.242 211.344 246.242C212.184 246.242 212.944 245.922 213.664 245.242ZM210.604 239.182C209.684 239.182 208.804 240.022 208.484 241.622C209.584 241.622 210.704 241.622 211.864 241.582C212.244 241.562 212.364 241.462 212.364 241.162C212.364 240.102 211.664 239.182 210.604 239.182ZM223.594 246.642L221.814 247.662C221.534 247.662 221.094 247.482 220.894 247.282C220.614 247.002 220.494 246.722 220.394 246.402C219.574 246.942 218.634 247.662 217.994 247.662C216.574 247.662 215.554 246.482 215.554 245.162C215.554 244.182 216.074 243.542 217.214 243.162C218.434 242.742 219.914 242.182 220.354 241.842V241.542C220.354 240.122 219.654 239.322 218.674 239.322C218.274 239.322 217.974 239.482 217.754 239.722C217.514 239.982 217.354 240.422 217.174 241.022C217.074 241.342 216.854 241.502 216.554 241.502C216.174 241.502 215.654 241.102 215.654 240.602C215.654 240.302 215.914 240.062 216.314 239.782C216.854 239.382 218.154 238.622 219.334 238.382C219.954 238.382 220.574 238.562 221.014 238.922C221.714 239.522 221.914 240.342 221.914 241.382V245.062C221.914 245.982 222.274 246.282 222.614 246.282C222.874 246.282 223.154 246.162 223.354 246.042L223.594 246.642ZM220.354 245.682V242.602C219.914 242.822 218.954 243.242 218.534 243.442C217.734 243.802 217.314 244.182 217.314 244.902C217.314 245.922 218.114 246.402 218.714 246.402C219.254 246.382 219.994 246.022 220.354 245.682Z" fill="white"/>
<path d="M420.609 234.422V235.062C419.229 235.242 419.049 235.422 418.469 237.002C418.009 238.222 416.789 242.022 415.149 247.602H414.429C413.329 244.422 412.049 240.802 410.949 237.722H410.909C409.789 241.222 408.669 244.382 407.649 247.602H406.929C405.889 244.002 404.749 240.542 403.649 236.982C403.149 235.382 402.829 235.202 401.629 235.062V234.422H406.569V235.062C405.089 235.242 405.049 235.402 405.329 236.362C406.129 239.042 406.889 241.682 407.769 244.522H407.809C408.889 241.102 410.009 237.842 411.029 234.602H411.709C412.829 237.862 413.969 241.062 415.189 244.542H415.229C416.069 241.882 417.189 238.002 417.489 236.622C417.749 235.462 417.669 235.242 416.149 235.062V234.422H420.609ZM424.3 238.382C426.78 238.382 428.68 240.382 428.68 242.882C428.68 246.142 426.28 247.662 424.3 247.662C421.5 247.662 419.86 245.442 419.86 243.222C419.86 239.882 422.46 238.382 424.3 238.382ZM424.08 239.122C422.88 239.122 421.76 240.302 421.76 242.582C421.76 245.082 422.88 246.922 424.52 246.922C425.74 246.922 426.78 246.022 426.78 243.322C426.78 240.982 425.82 239.122 424.08 239.122ZM432.917 240.522H432.957C433.617 239.442 434.437 238.382 435.417 238.382C436.137 238.382 436.617 238.922 436.617 239.402C436.617 239.842 436.357 240.242 435.957 240.442C435.717 240.542 435.537 240.502 435.417 240.382C435.117 240.102 434.897 239.982 434.557 239.982C434.017 239.982 433.337 240.602 432.917 241.742V245.282C432.917 246.582 433.017 246.702 434.597 246.822V247.422H429.877V246.822C431.157 246.702 431.297 246.582 431.297 245.282V241.202C431.297 239.882 431.217 239.822 430.057 239.682V239.142C431.057 238.982 431.957 238.722 432.917 238.322V240.522ZM441.714 247.422H437.134V246.822C438.434 246.682 438.614 246.582 438.614 245.282V235.982C438.614 234.642 438.474 234.602 437.194 234.502V233.922C438.294 233.822 439.534 233.482 440.214 233.242V245.282C440.214 246.582 440.394 246.702 441.714 246.822V247.422ZM452.53 246.302V246.902C452.09 246.982 450.55 247.242 449.35 247.662V246.362L448.11 247.102C447.35 247.542 446.79 247.662 446.57 247.662C444.95 247.662 442.81 246.182 442.81 243.362C442.81 240.562 445.29 238.382 448.03 238.382C448.29 238.382 448.91 238.442 449.35 238.622V235.962C449.35 234.662 449.25 234.602 447.79 234.502V233.922C448.87 233.782 450.23 233.482 450.97 233.242V245.042C450.97 246.082 451.13 246.182 451.87 246.262L452.53 246.302ZM449.35 245.662V240.222C448.85 239.522 448.03 239.202 447.29 239.202C446.39 239.202 444.67 239.942 444.67 242.822C444.67 245.202 446.15 246.342 447.43 246.342C448.13 246.342 448.85 246.022 449.35 245.662Z" fill="white"/>
<path d="M275.714 240.902L275.114 241.062C274.714 239.842 274.034 239.082 273.074 239.082C272.314 239.082 271.794 239.662 271.794 240.442C271.794 241.282 272.574 241.742 273.494 242.122C275.014 242.742 276.074 243.442 276.074 244.882C276.074 246.722 274.334 247.662 272.714 247.662C271.674 247.662 270.714 247.262 270.354 246.962C270.214 246.682 270.014 245.302 270.014 244.562L270.654 244.462C270.994 245.782 271.874 246.942 273.074 246.942C273.794 246.942 274.494 246.362 274.494 245.542C274.494 244.682 273.914 244.242 272.934 243.782C271.674 243.202 270.354 242.562 270.354 241.002C270.354 239.582 271.574 238.382 273.454 238.382C274.294 238.382 274.834 238.562 275.254 238.742C275.434 239.182 275.674 240.402 275.714 240.902ZM282.676 246.682L281.336 247.382C280.976 247.582 280.636 247.662 280.436 247.662C279.156 247.662 278.436 246.862 278.436 245.262V239.482H277.036L276.936 239.242L277.516 238.622H278.436V237.222L279.756 235.862L280.056 235.902V238.622H282.336C282.536 238.822 282.476 239.322 282.216 239.482H280.056V244.562C280.056 246.162 280.716 246.442 281.236 246.442C281.716 246.442 282.196 246.242 282.476 246.102L282.676 246.682Z" fill="white"/>
<path d="M564.714 240.902L564.114 241.062C563.714 239.842 563.034 239.082 562.074 239.082C561.314 239.082 560.794 239.662 560.794 240.442C560.794 241.282 561.574 241.742 562.494 242.122C564.014 242.742 565.074 243.442 565.074 244.882C565.074 246.722 563.334 247.662 561.714 247.662C560.674 247.662 559.714 247.262 559.354 246.962C559.214 246.682 559.014 245.302 559.014 244.562L559.654 244.462C559.994 245.782 560.874 246.942 562.074 246.942C562.794 246.942 563.494 246.362 563.494 245.542C563.494 244.682 562.914 244.242 561.934 243.782C560.674 243.202 559.354 242.562 559.354 241.002C559.354 239.582 560.574 238.382 562.454 238.382C563.294 238.382 563.834 238.562 564.254 238.742C564.434 239.182 564.674 240.402 564.714 240.902ZM571.676 246.682L570.336 247.382C569.976 247.582 569.636 247.662 569.436 247.662C568.156 247.662 567.436 246.862 567.436 245.262V239.482H566.036L565.936 239.242L566.516 238.622H567.436V237.222L568.756 235.862L569.056 235.902V238.622H571.336C571.536 238.822 571.476 239.322 571.216 239.482H569.056V244.562C569.056 246.162 569.716 246.442 570.236 246.442C570.716 246.442 571.196 246.242 571.476 246.102L571.676 246.682Z" fill="white"/>
</g>
</svg>
