<svg width="726" height="432" viewBox="0 0 726 432" fill="none" xmlns="http://www.w3.org/2000/svg">
<mask id="mask0_629_37" style="mask-type:alpha" maskUnits="userSpaceOnUse" x="0" y="0" width="726" height="432">
<rect width="726" height="432" fill="#D9D9D9"/>
</mask>
<g mask="url(#mask0_629_37)">
<path d="M252.978 243.418C252.978 251.32 252.978 253.593 264.235 253.918V255H230.464V253.918C241.829 253.593 241.829 251.32 241.829 243.418V187.675C238.149 189.19 234.252 190.272 230.031 190.922L229.814 189.731C239.015 187.999 247.566 183.67 251.895 178.15H252.978V243.418Z" fill="white"/>
<path d="M473.962 215.384C485.327 217.224 498.099 222.42 498.099 235.192C498.099 248.614 485.976 256.082 469.632 256.082C452.963 256.082 446.685 245.475 446.685 236.816C446.685 231.512 449.932 226.641 454.803 226.641C458.267 226.641 460.973 228.914 461.947 232.27C457.834 235.625 453.504 240.388 453.504 244.825C453.504 246.449 454.046 248.181 455.236 249.696C457.834 253.052 463.571 254.784 469.091 254.784C479.915 254.784 485.76 248.939 485.76 234.651C485.76 218.956 478.4 214.518 463.246 216.358V214.626C465.519 214.626 468.333 214.735 471.256 215.059C480.889 213.761 484.569 207.374 484.569 196.334C484.569 184.536 480.673 179.448 470.39 179.448C464.545 179.448 458.916 181.397 455.886 184.752C454.911 185.835 454.154 187.458 454.154 188.757C454.154 193.195 458.05 197.525 461.839 200.988C461.406 204.127 458.483 206.508 455.128 206.508C450.257 206.508 447.551 200.988 447.551 195.901C447.551 187.458 455.669 178.15 471.256 178.15C481.971 178.15 496.367 182.912 496.367 196.334C496.367 210.189 481.863 214.194 473.962 215.384ZM528.788 243.418C528.788 251.32 528.788 253.593 540.045 253.918V255H506.274V253.918C517.639 253.593 517.639 251.32 517.639 243.418V187.675C513.959 189.19 510.062 190.272 505.841 190.922L505.624 189.731C514.825 187.999 523.376 183.67 527.705 178.15H528.788V243.418Z" fill="white"/>
<path d="M202.328 242.129L202.94 241.857C203.552 241.891 204.453 241.993 204.844 242.112C204.963 242.163 205.065 242.265 205.065 242.401C205.065 242.69 204.861 242.945 204.708 243.03C204.249 242.979 203.246 242.945 202.736 242.945L197.891 242.979V244.084C197.891 244.679 197.806 245.58 197.67 246.243C198.877 246.209 199.982 246.192 200.458 246.158L200.934 245.937C201.002 245.903 201.121 245.903 201.189 245.937C201.376 246.022 201.716 246.243 201.852 246.345C201.903 246.396 201.903 246.464 201.869 246.532L201.665 247.076L201.631 249.49C201.631 250.204 201.495 251.343 201.291 251.989H200.543C200.475 251.428 200.441 250.391 200.441 249.796V246.974C199.081 246.957 195.443 246.991 194.678 247.042C194.287 247.059 193.539 247.178 193.182 247.314C192.638 247.144 192.094 246.838 191.703 246.532C191.635 246.481 191.618 246.43 191.652 246.362L191.771 246.141C192.281 246.243 192.944 246.294 193.42 246.294L196.752 246.26C196.718 245.665 196.701 244.883 196.701 244.39V242.996C194.865 243.03 193.25 243.064 192.859 243.081C192.434 243.115 191.567 243.268 191.159 243.404C190.547 243.217 189.918 242.86 189.493 242.52C189.442 242.469 189.425 242.418 189.442 242.367L189.561 242.112C190.122 242.231 190.921 242.299 191.448 242.299C192.213 242.316 197.024 242.248 200.033 242.197C200.339 240.786 200.526 238.865 200.56 237.59C199.251 237.573 195.528 237.641 194.763 237.675C194.372 237.692 193.658 237.828 193.267 237.964C192.74 237.777 192.196 237.471 191.805 237.165C191.72 237.097 191.703 237.046 191.737 236.978L191.839 236.757C192.366 236.859 193.046 236.927 193.539 236.927C194.389 236.944 199.489 236.842 200.577 236.791L201.155 236.519C201.24 236.485 201.359 236.485 201.427 236.519C201.648 236.604 202.022 236.825 202.175 236.927C202.243 236.995 202.243 237.046 202.209 237.148L201.971 237.692C201.835 239.018 201.359 240.837 200.849 242.18L202.328 242.129ZM215.925 250.629H215.262C215.177 249.949 215.16 248.453 215.16 247.739V245.648C213.426 246.243 211.182 246.651 209.601 246.77C209.397 246.787 209.193 246.787 209.04 246.787C208.479 246.787 208.105 246.464 207.935 245.954C207.884 245.784 207.85 245.512 207.85 245.172V239.613C207.595 239.409 207.153 239.205 206.745 239.086L206.83 238.678C206.847 238.61 206.898 238.576 207 238.576C207.527 238.576 208.445 238.644 208.853 238.746C209.023 238.78 209.091 238.882 209.091 239.052L209.074 239.868V245.427C209.074 245.631 209.142 245.733 209.38 245.733C210.91 245.699 213.443 245.393 215.16 244.951V237.913C214.922 237.607 214.446 237.335 213.953 237.182L214.089 236.774C214.106 236.723 214.157 236.689 214.276 236.689C214.82 236.706 215.755 236.893 216.163 237.08C216.299 237.148 216.35 237.25 216.35 237.403L216.299 238.151V242.452L218.662 242.384V236.808C218.39 236.468 217.88 236.179 217.336 235.992L217.455 235.601C217.489 235.533 217.54 235.499 217.659 235.499C218.237 235.516 219.257 235.72 219.682 235.924C219.852 235.975 219.903 236.094 219.886 236.247L219.852 237.08V248.453C219.852 249.388 219.699 250.918 219.444 251.836H218.764C218.696 251.173 218.662 249.592 218.662 248.861V243.166L216.299 243.234V247.331C216.299 248.266 216.146 249.745 215.925 250.629Z" fill="white"/>
<path d="M276.064 240.361C276.064 242.146 274.483 243.438 272.358 243.438C270.25 243.438 268.669 242.146 268.669 240.361C268.669 238.576 270.25 237.301 272.358 237.301C274.483 237.301 276.064 238.576 276.064 240.361ZM274.789 240.361C274.789 239.018 273.735 238.168 272.358 238.168C270.981 238.168 269.927 239.018 269.927 240.361C269.927 241.704 270.981 242.554 272.358 242.554C273.735 242.554 274.789 241.704 274.789 240.361ZM272.681 251.309H271.984C271.916 250.629 271.882 249.252 271.882 248.555V246.005C271.083 246.073 270.352 246.141 269.757 246.175C269.485 246.209 268.72 246.379 268.431 246.464C267.802 246.226 267.139 245.869 266.629 245.478C266.561 245.427 266.561 245.376 266.578 245.308L266.68 245.087C267.292 245.206 268.057 245.24 268.635 245.24C271.219 245.189 276.149 244.815 278.631 244.39V236.859C278.325 236.502 277.798 236.196 277.186 235.992L277.305 235.584C277.339 235.533 277.373 235.499 277.509 235.499C278.121 235.516 279.192 235.737 279.685 235.941C279.838 235.992 279.889 236.111 279.889 236.281L279.838 237.182V248.283C279.838 249.269 279.685 250.867 279.43 251.836H278.733C278.665 251.122 278.631 249.456 278.631 248.708V245.036C277.305 245.308 275.112 245.631 273.089 245.869V248.181C273.089 249.014 272.919 250.493 272.681 251.309Z" fill="white"/>
<path d="M418.025 251.836H417.345C417.277 251.173 417.243 249.592 417.243 248.861V236.808C416.971 236.468 416.461 236.179 415.917 235.992L416.036 235.601C416.07 235.533 416.121 235.499 416.24 235.499C416.818 235.516 417.838 235.72 418.263 235.924C418.433 235.975 418.484 236.094 418.467 236.247L418.433 237.08V248.453C418.433 249.388 418.28 250.918 418.025 251.836ZM412.279 241.925C412.704 241.925 413.554 241.908 414.183 241.874V237.947C413.928 237.641 413.469 237.369 412.976 237.216L413.112 236.808C413.129 236.757 413.18 236.723 413.299 236.723C413.843 236.74 414.761 236.927 415.186 237.114C415.305 237.182 415.373 237.284 415.373 237.437L415.322 238.185V247.331C415.322 248.266 415.169 249.745 414.931 250.629H414.268C414.2 249.949 414.183 248.453 414.183 247.739V242.571C413.792 242.571 413.333 242.588 413.112 242.622C412.823 242.656 412.381 242.758 412.075 242.877C411.633 242.69 411.242 242.469 410.919 242.214C410.868 242.146 410.851 242.112 410.868 242.044L410.97 241.857C411.361 241.908 411.854 241.925 412.279 241.925ZM411.259 244.492L411.888 244.815C412.092 245.172 412.347 245.733 412.466 246.022C412.534 246.243 412.534 246.396 412.483 246.498C412.364 246.668 412.058 246.77 411.888 246.685C411.786 246.651 411.65 246.498 411.548 246.362L408.947 242.945C408.046 244.441 406.771 245.903 405.173 247.161C405.105 247.195 405.037 247.212 404.986 247.161L404.782 246.991C404.748 246.94 404.748 246.889 404.816 246.821C407.009 244.543 408.539 241.704 408.998 239.324C408.828 239.052 408.42 238.729 407.995 238.508L408.199 238.134C408.233 238.083 408.267 238.049 408.386 238.066C409.015 238.168 409.882 238.44 410.239 238.661C410.375 238.729 410.443 238.831 410.443 238.984C410.443 239.12 410.426 239.256 410.392 239.358C410.205 240.293 409.865 241.245 409.372 242.197L411.259 244.492ZM434.444 251.836H433.764C433.696 251.173 433.662 249.592 433.662 248.861V236.808C433.39 236.468 432.88 236.179 432.336 235.992L432.455 235.601C432.489 235.533 432.54 235.499 432.659 235.499C433.237 235.516 434.257 235.72 434.682 235.924C434.852 235.975 434.903 236.094 434.886 236.247L434.852 237.08V248.453C434.852 249.388 434.699 250.918 434.444 251.836ZM427.984 244.373C428.528 244.373 429.803 244.356 430.619 244.305V241.619C430.058 241.619 429.344 241.636 429.004 241.67C428.715 241.687 428.307 241.772 428.018 241.891C427.814 241.789 427.61 241.687 427.423 241.568C426.284 243.897 424.159 246.277 421.677 247.892C421.609 247.943 421.558 247.96 421.507 247.943L421.303 247.739C421.252 247.705 421.235 247.654 421.286 247.586C424.04 245.24 426.063 242.129 426.828 239.494C426.063 239.477 424.397 239.511 424.057 239.545C423.734 239.562 423.156 239.681 422.867 239.8C422.442 239.63 421.983 239.358 421.677 239.103C421.609 239.035 421.609 238.984 421.626 238.933L421.728 238.763C422.136 238.814 422.697 238.831 423.071 238.831C423.598 238.848 426.216 238.797 426.964 238.746L427.474 238.457C427.559 238.44 427.678 238.44 427.746 238.457C427.933 238.542 428.307 238.729 428.46 238.814C428.511 238.882 428.511 238.933 428.477 239.018L428.188 239.528C428.069 240.004 427.916 240.48 427.712 240.973L428.222 240.99C428.732 240.99 429.854 240.956 430.619 240.905V237.93C430.381 237.624 429.905 237.352 429.412 237.199L429.548 236.791C429.565 236.74 429.633 236.706 429.752 236.706C430.279 236.723 431.214 236.91 431.622 237.097C431.758 237.165 431.809 237.267 431.809 237.42L431.775 238.168V247.314C431.775 248.232 431.622 249.711 431.384 250.612H430.721C430.653 249.915 430.619 248.436 430.619 247.722V245.002C430.007 245.019 429.14 245.036 428.766 245.07C428.477 245.087 428.069 245.172 427.797 245.274C427.389 245.104 427.032 244.866 426.76 244.628C426.709 244.577 426.692 244.526 426.709 244.458L426.811 244.288C427.168 244.339 427.61 244.373 427.984 244.373Z" fill="white"/>
<path d="M557.064 240.361C557.064 242.146 555.483 243.438 553.358 243.438C551.25 243.438 549.669 242.146 549.669 240.361C549.669 238.576 551.25 237.301 553.358 237.301C555.483 237.301 557.064 238.576 557.064 240.361ZM555.789 240.361C555.789 239.018 554.735 238.168 553.358 238.168C551.981 238.168 550.927 239.018 550.927 240.361C550.927 241.704 551.981 242.554 553.358 242.554C554.735 242.554 555.789 241.704 555.789 240.361ZM553.681 251.309H552.984C552.916 250.629 552.882 249.252 552.882 248.555V246.005C552.083 246.073 551.352 246.141 550.757 246.175C550.485 246.209 549.72 246.379 549.431 246.464C548.802 246.226 548.139 245.869 547.629 245.478C547.561 245.427 547.561 245.376 547.578 245.308L547.68 245.087C548.292 245.206 549.057 245.24 549.635 245.24C552.219 245.189 557.149 244.815 559.631 244.39V236.859C559.325 236.502 558.798 236.196 558.186 235.992L558.305 235.584C558.339 235.533 558.373 235.499 558.509 235.499C559.121 235.516 560.192 235.737 560.685 235.941C560.838 235.992 560.889 236.111 560.889 236.281L560.838 237.182V248.283C560.838 249.269 560.685 250.867 560.43 251.836H559.733C559.665 251.122 559.631 249.456 559.631 248.708V245.036C558.305 245.308 556.112 245.631 554.089 245.869V248.181C554.089 249.014 553.919 250.493 553.681 251.309Z" fill="white"/>
</g>
</svg>
