<svg width="22" height="22" viewBox="0 0 22 22" fill="none" xmlns="http://www.w3.org/2000/svg">
<circle cx="10.5" cy="11.5" r="10" fill="#1A1A1A"/>
<path d="M20.6013 6.38993C20.3924 5.40233 20.0696 4.4527 19.5 3.61703C18.7025 2.4585 17.5443 1.79376 16.2152 1.41391C14.7152 0.958092 13.1772 0.825145 11.6203 0.806152C10.3481 0.806152 9.07595 0.825145 7.8038 0.882122C6.74051 0.939099 5.67722 1.11003 4.6519 1.4329C3.11392 1.90771 1.87975 2.78137 1.13924 4.26278C0.683544 5.17442 0.436709 6.16202 0.28481 7.18762C0.0759494 8.55507 0.0189873 9.92253 0 11.309C0.0379747 12.2206 0.056962 13.1323 0.132911 14.0439C0.208861 15.1075 0.36076 16.171 0.683544 17.1966C1.08228 18.4691 1.72785 19.5517 2.8481 20.3304C3.56962 20.8242 4.36709 21.1281 5.20253 21.337C6.56962 21.6789 7.99367 21.7928 9.39873 21.8118C10.462 21.8118 11.5443 21.8118 12.6076 21.7738C13.8797 21.7168 15.1519 21.5649 16.3861 21.185C17.9241 20.7102 19.1392 19.8366 19.8987 18.3742C20.3734 17.4435 20.6203 16.4559 20.7722 15.4303C20.981 14.1009 21.019 12.7524 21.019 11.4039C21.019 9.7326 20.962 8.04228 20.6203 6.40892L20.6013 6.38993ZM11.1456 17.7854H10.0063V8.17522H7.36709V7.43452C9.17089 7.35855 10.0253 6.57986 10.2722 4.98449H11.1456V17.7854Z" fill="#FEDE74"/>
</svg>
