<svg width="21" height="22" viewBox="0 0 21 22" fill="none" xmlns="http://www.w3.org/2000/svg">
<path d="M0 11.3174C0.0189873 9.94993 0.0759486 8.56348 0.284809 7.21502C0.436708 6.20842 0.683541 5.22081 1.13924 4.29018C1.87974 2.80877 3.11392 1.93512 4.6519 1.4603C5.67721 1.13743 6.7405 0.966501 7.80379 0.909524C9.07595 0.852546 10.3481 0.814561 11.6203 0.833554C13.1772 0.833554 14.7152 0.966501 16.2152 1.40333C17.5443 1.78318 18.6835 2.44791 19.5 3.60645C20.0886 4.44212 20.3924 5.39174 20.6013 6.37935C20.943 8.03169 21 9.70303 21 11.3744C21 12.7228 20.943 14.0713 20.7532 15.4008C20.6013 16.4264 20.3544 17.414 19.8797 18.3446C19.1392 19.807 17.924 20.6807 16.3671 21.1555C15.1329 21.5353 13.8608 21.6873 12.5886 21.7442C11.5253 21.7822 10.443 21.8012 9.37974 21.7822C7.97468 21.7632 6.56962 21.6493 5.18354 21.3074C4.3481 21.0985 3.55063 20.7946 2.82911 20.3008C1.70886 19.5221 1.0443 18.4396 0.664554 17.1671C0.341769 16.1415 0.189872 15.0779 0.113923 14.0143C0.056961 13.1027 0.0379747 12.191 0 11.2794" fill="#FEDF73"/>
<path d="M16.8039 11.3174C16.8039 15.2488 15.7216 17.7748 13.1583 17.7748C10.595 17.7748 9.51275 15.2298 9.51275 11.3364C9.51275 7.44294 10.595 4.89795 13.1583 4.89795C15.7216 4.89795 16.8039 7.42394 16.8039 11.3174ZM6.74059 17.6419V8.24062H4.19629V7.51891C6.00009 7.42394 6.75958 6.68324 6.98743 5.10687H7.86085V17.6419H6.74059ZM15.7216 11.3174C15.7216 8.31659 14.9811 5.82858 13.1583 5.82858C11.3355 5.82858 10.614 8.2976 10.614 11.3174C10.614 14.3372 11.3355 16.8442 13.1583 16.8442C14.9811 16.8442 15.7216 14.3562 15.7216 11.3174Z" fill="#231815"/>
</svg>
