<svg width="21" height="22" viewBox="0 0 21 22" fill="none" xmlns="http://www.w3.org/2000/svg">
<path d="M0 11.3174C0 9.94993 0.075945 8.56348 0.284806 7.21502C0.436704 6.20842 0.683541 5.22081 1.13924 4.29018C1.87974 2.80877 3.11392 1.93512 4.65189 1.4603C5.67721 1.13743 6.74051 0.966501 7.8038 0.909524C9.07595 0.852546 10.3481 0.814561 11.6203 0.833554C13.1772 0.833554 14.7152 0.966501 16.2152 1.40333C17.5443 1.78318 18.6835 2.44791 19.5 3.60645C20.0886 4.44212 20.3924 5.39174 20.6013 6.39834C20.943 8.05069 21 9.72202 21 11.4123C21 12.7608 20.943 14.1093 20.7532 15.4387C20.6013 16.4643 20.3544 17.4519 19.8797 18.3826C19.1392 19.845 17.9051 20.7187 16.3671 21.1935C15.1329 21.5733 13.8608 21.7252 12.5886 21.7822C11.5253 21.8202 10.443 21.8392 9.37974 21.8202C7.97468 21.8012 6.56962 21.6873 5.18354 21.3454C4.3481 21.1365 3.55063 20.8326 2.82911 20.3388C1.70886 19.5601 1.06329 18.4775 0.664554 17.205C0.341769 16.1795 0.189869 15.1159 0.113919 14.0523C0.0569574 13.1407 0.0379747 12.229 0 11.3174Z" fill="#FEDF73"/>
<path d="M13.4238 17.68V8.25973H10.7846V7.51903C12.5884 7.42406 13.4428 6.68336 13.6897 5.12598H14.5631V17.661H13.4238V17.68ZM7.23397 17.68V8.25973H4.59473V7.51903C6.39852 7.42406 7.25295 6.68336 7.49979 5.12598H8.37321V17.661H7.23397V17.68Z" fill="#231815"/>
</svg>
