<svg width="21" height="22" viewBox="0 0 21 22" fill="none" xmlns="http://www.w3.org/2000/svg">
<path d="M0 11.3174C0 9.94993 0.0759523 8.56348 0.284813 7.21502C0.436712 6.20842 0.683541 5.22081 1.13924 4.29018C1.87974 2.80877 3.11393 1.93512 4.6519 1.4603C5.67722 1.13743 6.74051 0.966501 7.8038 0.909524C9.07595 0.852546 10.3481 0.814561 11.6203 0.833554C13.1772 0.833554 14.7152 0.966501 16.2152 1.42232C17.5443 1.80217 18.6835 2.4669 19.5 3.62544C20.0886 4.46111 20.3924 5.41073 20.6013 6.39834C20.943 8.05068 21 9.72202 21 11.3934C21 12.7418 20.943 14.0903 20.7532 15.4198C20.6013 16.4453 20.3544 17.433 19.8797 18.3636C19.1392 19.826 17.9051 20.6997 16.3671 21.1745C15.1329 21.5543 13.8608 21.7063 12.5886 21.7632C11.5253 21.8012 10.443 21.8202 9.37974 21.8012C7.97468 21.7822 6.56962 21.6683 5.18354 21.3264C4.3481 21.1175 3.55064 20.8136 2.82912 20.3198C1.70886 19.5601 1.06329 18.4585 0.664554 17.1861C0.341769 16.1605 0.189876 15.0969 0.113927 14.0333C0.0569646 13.1217 0.0379747 12.21 0 11.2984" fill="#FEDF73"/>
<path d="M9.00007 17.585C9.28488 14.7742 10.8039 13.5586 13.1203 11.7924C14.4874 10.7668 15.2279 9.85512 15.2279 8.35472C15.2279 6.75935 14.3165 5.80973 12.7785 5.80973C11.0507 5.80973 10.3292 7.4051 10.3292 9.26636H9.28487C9.2469 6.70238 10.5001 4.86011 12.8545 4.86011C14.8672 4.86011 16.3102 6.1326 16.3102 8.37371C16.3102 10.4249 15.0191 11.6404 13.557 12.723C11.8482 14.0145 10.5001 15.268 10.3102 16.5405H16.3292V17.585H9.01905H9.00007ZM6.22791 17.68V8.27875H3.85449V7.53804C5.46842 7.46207 6.26589 6.70238 6.47475 5.14499H7.2912V17.68H6.22791Z" fill="#231815"/>
</svg>
