<svg width="22" height="22" viewBox="0 0 22 22" fill="none" xmlns="http://www.w3.org/2000/svg">
<circle cx="10.5" cy="11" r="10" fill="#1A1A1A"/>
<path d="M20.6013 6.35195C20.3924 5.36434 20.0696 4.41472 19.5 3.57905C18.7025 2.42051 17.5443 1.75577 16.2152 1.37593C14.7152 0.9391 13.1772 0.806152 11.6203 0.806152C10.3481 0.806152 9.07595 0.825145 7.8038 0.882122C6.74051 0.939099 5.67722 1.11003 4.6519 1.4329C3.11393 1.90771 1.87974 2.78137 1.13924 4.26278C0.683541 5.17442 0.436704 6.16202 0.284806 7.18762C0.075945 8.55507 0.0189873 9.92253 0 11.29C0.0379747 12.2016 0.0569614 13.1133 0.132911 14.0249C0.20886 15.0885 0.360761 16.1521 0.683545 17.1776C1.08228 18.4501 1.72785 19.5327 2.8481 20.3114C3.56962 20.8052 4.36708 21.1091 5.20253 21.318C6.56962 21.6599 7.99367 21.7738 9.39874 21.7928C10.462 21.7928 11.5443 21.7928 12.6076 21.7548C13.8797 21.7168 15.1519 21.5459 16.3861 21.1661C17.924 20.6912 19.1392 19.8176 19.8987 18.3552C20.3734 17.4245 20.6202 16.4369 20.7721 15.4113C20.981 14.0819 21.019 12.7334 21.019 11.3849C21.019 9.71361 20.962 8.04228 20.6203 6.38993L20.6013 6.35195ZM10.5949 17.7664C8.14557 17.7664 6.32278 16.304 6.39873 13.4741H7.51899C7.5 15.5823 8.81012 16.7978 10.5949 16.7978C12.3797 16.7978 13.7278 15.7722 13.7278 13.9679C13.7278 12.2586 12.4557 11.309 10.8038 11.309H9.85443V10.2834H10.8038C12.019 10.2834 13.2721 9.40973 13.2721 7.90933C13.2721 6.54187 12.3797 5.57326 10.6329 5.57326C8.88607 5.57326 7.86076 6.95971 7.8038 8.76399H6.72152C6.68355 6.35195 8.24051 4.60464 10.6139 4.60464C12.9873 4.60464 14.3924 5.85814 14.3924 7.90933C14.3924 9.33376 13.481 10.3594 12.3228 10.7202C13.9177 11.0431 14.8671 12.1257 14.8671 13.9679C14.8671 16.5319 12.8734 17.7664 10.6329 17.7664H10.5949Z" fill="#FEDE74"/>
</svg>
