<svg width="22" height="22" viewBox="0 0 22 22" fill="none" xmlns="http://www.w3.org/2000/svg">
<circle cx="10.5" cy="11" r="10" fill="#1A1A1A"/>
<path d="M11.3163 13.2652V6.48486L6.77832 13.2652H11.3163Z" fill="#FEDE74"/>
<path d="M20.6013 6.35195C20.3924 5.36434 20.0696 4.41472 19.5 3.57905C18.7025 2.42051 17.5443 1.75577 16.2152 1.37593C14.7152 0.9391 13.1772 0.806152 11.6203 0.806152C10.3481 0.806152 9.07594 0.825145 7.80379 0.882122C6.7405 0.939099 5.67722 1.11003 4.6519 1.4329C3.11393 1.90771 1.87974 2.78137 1.13924 4.26278C0.683541 5.19341 0.436704 6.16202 0.284806 7.18762C0.075945 8.55507 0.0189873 9.92253 0 11.309C0.0379747 12.2206 0.0569614 13.1323 0.132911 14.0439C0.20886 15.1075 0.360761 16.171 0.683545 17.1966C1.08228 18.4691 1.72785 19.5517 2.8481 20.3304C3.56962 20.8242 4.36709 21.1281 5.20253 21.337C6.56962 21.6789 7.99367 21.7928 9.39874 21.8118C10.462 21.8118 11.5443 21.8118 12.6076 21.7738C13.8798 21.7168 15.1519 21.5649 16.3861 21.185C17.9241 20.7102 19.1392 19.8366 19.8987 18.3742C20.3734 17.4435 20.6202 16.4559 20.7721 15.4493C20.981 14.1199 21.019 12.7714 21.019 11.4229C21.019 9.7516 20.962 8.08026 20.6202 6.42792L20.6013 6.35195ZM14.1456 14.3098H12.3987V17.4056H11.3165V14.3098H5.60127V13.2652L11.3165 4.60464H12.3987V13.2652H14.1456V14.3098Z" fill="#FEDE74"/>
</svg>
