<svg width="22" height="22" viewBox="0 0 22 22" fill="none" xmlns="http://www.w3.org/2000/svg">
<circle cx="10.5" cy="11" r="10" fill="#1A1A1A"/>
<path d="M20.6013 6.35195C20.3924 5.36434 20.0696 4.41472 19.5 3.57905C18.7025 2.42051 17.5443 1.75577 16.2152 1.37593C14.7152 0.9391 13.1772 0.806152 11.6202 0.806152C10.3481 0.806152 9.07594 0.825145 7.80378 0.882122C6.74049 0.939099 5.67721 1.11003 4.65189 1.4329C3.09493 1.90771 1.87974 2.78137 1.13924 4.26278C0.683541 5.17442 0.436697 6.16202 0.284799 7.18762C0.0759378 8.55507 0.0189873 9.92253 0 11.309C0.0379747 12.2206 0.0569614 13.1323 0.132911 14.0439C0.20886 15.1075 0.360746 16.171 0.683531 17.1966C1.08227 18.4691 1.72785 19.5517 2.8481 20.3304C3.56962 20.8242 4.36708 21.1281 5.20253 21.337C6.56962 21.6789 7.99366 21.7928 9.39873 21.8118C10.462 21.8118 11.5443 21.8118 12.6076 21.7738C13.8797 21.7168 15.1519 21.5649 16.3861 21.185C17.924 20.7102 19.1392 19.8366 19.8987 18.3742C20.3734 17.4435 20.6202 16.4559 20.7721 15.4303C20.981 14.1009 21.019 12.7524 21.019 11.4039C21.019 9.7326 20.962 8.04228 20.6202 6.38993L20.6013 6.35195ZM10.481 17.9183C8.14556 17.9183 6.47467 16.4179 6.39872 14.0249H7.49999C7.55696 15.8672 8.84809 16.9687 10.481 16.9687C12.3987 16.9687 13.5759 15.3734 13.5759 13.4741C13.5759 11.5749 12.3418 10.1125 10.462 10.1125C9.30379 10.1125 8.29746 10.5873 7.74682 11.6508H6.7405L7.89873 4.94651H14.1076V5.99109H8.75315L7.99367 10.3404C8.52531 9.63764 9.56961 9.16283 10.5949 9.16283C13.1582 9.16283 14.6962 10.8911 14.6962 13.6071C14.6962 16.0951 12.8734 17.9373 10.481 17.9373V17.9183Z" fill="#FEDE74"/>
</svg>
