<svg width="22" height="22" viewBox="0 0 22 22" fill="none" xmlns="http://www.w3.org/2000/svg">
<circle cx="10.5" cy="11" r="10" fill="#1A1A1A"/>
<path d="M10.5192 10.3022C8.75339 10.3022 7.57617 11.5937 7.57617 13.6069C7.57617 15.3732 8.63947 16.9496 10.5192 16.9496C12.399 16.9496 13.4622 15.3352 13.4622 13.5689C13.4622 11.5367 12.2661 10.2832 10.5192 10.2832V10.3022Z" fill="#FEDE74"/>
<path d="M20.6013 6.37094C20.3924 5.38333 20.0696 4.43371 19.5 3.59804C18.7025 2.4395 17.5443 1.77477 16.2152 1.39492C14.7152 0.958092 13.1772 0.825145 11.6203 0.806152C10.3481 0.806152 9.07595 0.825145 7.8038 0.882122C6.74051 0.939099 5.67721 1.11003 4.65189 1.4329C3.09493 1.90771 1.87974 2.78137 1.13924 4.26278C0.683541 5.17442 0.436712 6.16202 0.284813 7.18762C0.0759523 8.55507 0.0189873 9.92253 0 11.29C0.0379747 12.2016 0.0569614 13.1133 0.132911 14.0249C0.20886 15.0885 0.360761 16.1521 0.683545 17.1776C1.08228 18.4501 1.72785 19.5327 2.8481 20.3114C3.56962 20.8052 4.36708 21.1091 5.20253 21.318C6.56962 21.6599 7.99366 21.7738 9.39873 21.7928C10.462 21.7928 11.5443 21.7928 12.6076 21.7548C13.8797 21.6978 15.1519 21.5459 16.3861 21.1661C17.924 20.6912 19.1392 19.8176 19.8987 18.3552C20.3734 17.4245 20.6203 16.4369 20.7722 15.4113C20.981 14.0819 21.019 12.7334 21.019 11.3849C21.019 9.69462 20.962 8.02328 20.6203 6.37094H20.6013ZM10.519 17.9184C7.76582 17.9184 6.18988 16.1521 6.18988 11.176C6.18988 7.28258 8.05063 4.75658 10.5759 4.75658C12.9114 4.75658 14.0696 6.12404 14.2975 8.06127H13.2152C13.0633 6.7318 12.0949 5.7252 10.5759 5.7252C8.3924 5.7252 7.31012 8.27019 7.31012 11.4989C7.78481 10.3024 9 9.37175 10.5 9.37175C12.9304 9.37175 14.5443 10.9671 14.5443 13.5881C14.5443 16.209 12.9684 17.9184 10.5 17.9184H10.519Z" fill="#FEDE74"/>
</svg>
