<svg width="22" height="22" viewBox="0 0 22 22" fill="none" xmlns="http://www.w3.org/2000/svg">
<circle cx="10.5" cy="11" r="10" fill="#1A1A1A"/>
<path d="M20.6013 6.39828C20.3924 5.41068 20.0696 4.46105 19.5 3.60639C18.7025 2.44785 17.5443 1.78312 16.2152 1.40327C14.7152 0.966443 13.1772 0.833496 11.6203 0.833496C10.3481 0.833496 9.07595 0.852489 7.8038 0.909466C6.74051 0.966443 5.67721 1.13738 4.65189 1.46025C3.09493 1.93506 1.87976 2.80871 1.13925 4.29012C0.683556 5.20176 0.436726 6.18937 0.284827 7.21496C0.0759667 8.58242 0.0189873 9.94987 0 11.3363C0.0379747 12.248 0.0569759 13.1596 0.132925 14.0712C0.208875 15.1348 0.360761 16.1984 0.683545 17.224C1.08228 18.4965 1.72785 19.579 2.8481 20.3577C3.56962 20.8515 4.3671 21.1554 5.20254 21.3643C6.56963 21.7062 7.99366 21.8202 9.39873 21.8391C10.462 21.8391 11.5443 21.8391 12.6076 21.8012C13.8797 21.7442 15.1519 21.5922 16.3861 21.2124C17.9241 20.7376 19.1392 19.8639 19.8987 18.4015C20.3734 17.4709 20.6203 16.4833 20.7722 15.4577C20.981 14.1282 21.019 12.7797 21.019 11.4313C21.019 9.75995 20.962 8.06962 20.6203 6.43627L20.6013 6.39828ZM14.7532 6.56922C11.8291 9.36111 10.2342 13.6344 9.93037 18.1546H8.65822C8.99999 12.9127 11.3544 8.88629 13.5949 6.58821H6.87344V5.52463H14.7721V6.56922H14.7532Z" fill="#FEDE74"/>
</svg>
