<svg width="22" height="22" viewBox="0 0 22 22" fill="none" xmlns="http://www.w3.org/2000/svg">
<circle cx="10.5" cy="11" r="10" fill="#1A1A1A"/>
<path d="M13.101 8.06962C13.101 6.79713 12.1136 5.79053 10.4997 5.79053C8.88577 5.79053 7.89844 6.79713 7.89844 8.06962C7.89844 9.57003 9.11362 10.3867 10.4997 10.3867C11.8858 10.3867 13.101 9.55103 13.101 8.06962Z" fill="#FEDE74"/>
<path d="M10.4997 11.4314C8.80979 11.4314 7.38574 12.362 7.38574 14.2043C7.38574 16.0466 8.75283 17.0911 10.4997 17.0911C12.2465 17.0911 13.6136 16.0466 13.6136 14.2043C13.6136 12.362 12.1895 11.4314 10.4997 11.4314Z" fill="#FEDE74"/>
<path d="M20.6012 6.39828C20.3924 5.41068 20.0696 4.46105 19.5 3.60639C18.7025 2.44785 17.5443 1.78312 16.2152 1.40327C14.7152 0.966443 13.1772 0.833496 11.6202 0.833496C10.3481 0.833496 9.07595 0.852489 7.8038 0.909466C6.74051 0.966443 5.67721 1.13738 4.65189 1.46025C3.09493 1.93506 1.87973 2.80871 1.13922 4.29012C0.683527 5.20176 0.436697 6.18937 0.284799 7.21496C0.0759378 8.58242 0.0189873 9.94987 0 11.3173C0.0379747 12.229 0.056947 13.1406 0.132896 14.0522C0.208846 15.1158 0.360761 16.1794 0.683545 17.205C1.08228 18.4775 1.72785 19.5601 2.8481 20.3387C3.56962 20.8325 4.36707 21.1364 5.20251 21.3453C6.5696 21.6872 7.99366 21.8012 9.39873 21.8202C10.462 21.8202 11.5443 21.8202 12.6076 21.7822C13.8797 21.7442 15.1519 21.5733 16.3861 21.1934C17.9241 20.7186 19.1392 19.8449 19.8987 18.3825C20.3734 17.4519 20.6203 16.4643 20.7722 15.4387C20.981 14.1092 21.019 12.7608 21.019 11.4123C21.019 9.72196 20.962 8.05063 20.6203 6.39828H20.6012ZM10.5 18.0407C8.06962 18.0407 6.26583 16.6732 6.26583 14.2042C6.26583 12.6088 7.31013 11.2224 8.75316 10.8615C7.6519 10.5196 6.77847 9.43708 6.77847 8.06962C6.77847 6.24634 8.16454 4.8409 10.519 4.8409C12.8734 4.8409 14.2595 6.24634 14.2595 8.06962C14.2595 9.43708 13.4051 10.4437 12.2848 10.8615C13.7278 11.2224 14.7911 12.6088 14.7911 14.2042C14.7911 16.6732 12.9684 18.0407 10.538 18.0407H10.5Z" fill="#FEDE74"/>
</svg>
