<svg width="21" height="22" viewBox="0 0 21 22" fill="none" xmlns="http://www.w3.org/2000/svg">
<path d="M0 11.3173C0.0189873 9.94987 0.0759494 8.56342 0.28481 7.21496C0.436709 6.20836 0.683544 5.22075 1.13924 4.29012C1.87975 2.80871 3.11392 1.93506 4.6519 1.46025C5.67722 1.13738 6.74051 0.966443 7.8038 0.909466C9.07595 0.852489 10.3481 0.833496 11.6203 0.833496C13.1772 0.833496 14.7152 0.966443 16.2152 1.42226C17.5443 1.80211 18.6835 2.46685 19.5 3.62539C20.0886 4.46105 20.3924 5.41068 20.6013 6.39828C20.943 8.05063 21 9.72196 21 11.4123C21 12.7608 20.943 14.1092 20.7532 15.4387C20.6013 16.4643 20.3544 17.4519 19.8797 18.3825C19.1392 19.8449 17.924 20.7186 16.3671 21.1934C15.1329 21.5733 13.8608 21.7252 12.5886 21.7822C11.5253 21.8202 10.443 21.8391 9.37975 21.8202C7.97468 21.8012 6.56962 21.6872 5.18354 21.3453C4.3481 21.1364 3.55063 20.8325 2.82911 20.3387C1.70886 19.5601 1.0443 18.4775 0.664557 17.205C0.341772 16.1794 0.189873 15.1158 0.113924 14.0522C0.056962 13.1406 0.0379747 12.229 0 11.3173Z" fill="#FEDF73"/>
<path d="M14.9237 11.2984C14.9237 15.4008 13.4047 17.8698 10.5756 17.8698C8.33505 17.8698 6.98695 16.5973 6.77809 14.6031H7.87935C8.01226 15.9325 9.07555 16.9012 10.5566 16.9012C12.7971 16.9012 13.7464 14.6411 13.7464 11.1275C13.3667 12.343 12.1705 13.3496 10.5376 13.3496C8.1072 13.3496 6.53125 11.7352 6.53125 9.03829C6.53125 6.4933 8.1072 4.70801 10.5376 4.70801C13.2907 4.70801 14.9047 6.43632 14.9047 11.2984M13.5186 9.0003C13.5186 7.234 12.4363 5.67662 10.5376 5.67662C8.63885 5.67662 7.63252 7.234 7.63252 9.05728C7.63252 11.0705 8.79074 12.4379 10.5376 12.4379C12.2844 12.4379 13.5186 11.0325 13.5186 9.01929" fill="#231815"/>
</svg>
