<svg width="1200" height="695" viewBox="0 0 1200 695" fill="none" xmlns="http://www.w3.org/2000/svg">
<mask id="mask0_957_1002" style="mask-type:alpha" maskUnits="userSpaceOnUse" x="0" y="0" width="1200" height="695">
<rect width="1200" height="695" fill="#D9D9D9"/>
</mask>
<g mask="url(#mask0_957_1002)">
<path d="M280.152 422.591L278.906 408.923L235.671 412.868L236.916 426.536L280.152 422.591Z" fill="white"/>
<path d="M265.933 445.051L264.348 427.651L237.242 430.124L238.827 447.524L265.933 445.051Z" fill="white"/>
<path d="M938.447 107.708L934.833 110.354L922.973 94.0823L902.309 109.171L921.61 135.618L941.371 138.708L954.216 129.322L938.447 107.708Z" fill="white"/>
<path d="M1028.4 47.1878L1022.11 38.572L1011.1 46.6158L1017.38 55.2316L1028.4 47.1878Z" fill="white"/>
<path d="M1068.03 42.2735L1050.48 54.1578L1069.12 81.7087L1086.66 69.8244L1068.03 42.2735Z" fill="#CFD4AA"/>
<path d="M980.69 23.8491L966.445 2.93115L929.495 28.1242L943.739 49.0421L980.69 23.8491Z" fill="#CFD4AA"/>
<path d="M934.338 55.4508L920.094 34.5328L878.677 62.7709L892.922 83.6888L934.338 55.4508Z" fill="#CFD4AA"/>
<path d="M845.03 99.5722L839.855 92.488L870.524 70.085L881.447 84.9929L873.497 90.8115L845.03 99.5722Z" fill="#CFD4AA"/>
<path d="M983.426 64.7971L974.719 52.8624L953.664 68.2426L962.371 80.1772L983.426 64.7971Z" fill="#CFD4AA"/>
<path d="M1011.61 77.1605L1003.55 66.1152L982.496 81.4954L990.554 92.5406L1011.61 77.1605Z" fill="#CFD4AA"/>
<path d="M994.336 126.325L984.254 112.505L964.406 127.003L974.488 140.823L994.336 126.325Z" fill="#CFD4AA"/>
<path d="M861.427 130.229L858.145 116.937L826.618 124.732L829.9 138.024L861.427 130.229Z" fill="#CFD4AA"/>
<path d="M885.807 135.411L878.695 116.998L865.518 122.094L872.63 140.507L885.807 135.411Z" fill="#CFD4AA"/>
<path d="M899.67 124.807L895.531 114.09L882.354 119.186L886.493 129.903L899.67 124.807Z" fill="#CFD4AA"/>
<path d="M862.926 83.3838L856.156 74.1042L843.937 83.03L850.707 92.3095L862.926 83.3838Z" fill="#CFD4AA"/>
<path d="M896.573 126.005L894.844 121.528L881.667 126.624L883.396 131.101L896.573 126.005Z" fill="#CFD4AA"/>
<path d="M999.953 122.256L995.207 115.751L978.411 128.02L983.156 134.525L999.953 122.256Z" fill="#CFD4AA"/>
<path d="M735.263 157.19L734.062 140.55L701.672 142.89L702.873 159.53L735.263 157.19Z" fill="white"/>
<path d="M719.732 177.106L709.945 164.172L689.345 179.778L699.131 192.712L719.732 177.106Z" fill="white"/>
<path d="M750.551 172.548L741.727 160.885L734.432 166.411L743.257 178.074L750.551 172.548Z" fill="white"/>
<path d="M735.613 182.187L729.297 173.84L681.011 210.421L687.327 218.768L735.613 182.187Z" fill="#CFD4AA"/>
<path d="M712.48 206.483L707.621 200.062L685.724 216.651L690.583 223.072L712.48 206.483Z" fill="#CFD4AA"/>
<path d="M642.965 239.718L636.848 231.632L617.033 246.644L623.151 254.729L642.965 239.718Z" fill="#DD6F6F"/>
<path d="M622.227 258.431L616.109 250.346L605.515 258.372L611.632 266.458L622.227 258.431Z" fill="white"/>
<path d="M749.944 194.521L742.508 184.693L726.832 196.569L734.268 206.397L749.944 194.521Z" fill="white"/>
<path d="M731.088 208.806L725.406 201.297L714.838 209.304L720.519 216.813L731.088 208.806Z" fill="#CFD4AA"/>
<path d="M697.503 230.342L693.676 225.279L712.155 211.275L718.841 220.118L708.952 227.613L697.503 230.342Z" fill="#CFD4AA"/>
<path d="M697.03 189.463L687.789 177.25L674.313 187.459L683.554 199.672L697.03 189.463Z" fill="white"/>
<path d="M692.826 160.258L691.625 143.618L670.719 145.129L671.92 161.769L692.826 160.258Z" fill="white"/>
<path d="M692.361 173.524L691.777 165.442L673.722 166.746L674.306 174.828L692.361 173.524Z" fill="white"/>
<path d="M633.727 154.119L629.242 147.058L615.864 155.566L620.349 162.627L633.727 154.119Z" fill="white"/>
<path d="M639.344 160.577L642.207 150.848L629.318 147.05L626.454 156.778L639.344 160.577Z" fill="white"/>
<path d="M666.455 160.906L665.219 143.774L652.783 144.673L654.02 161.804L666.455 160.906Z" fill="white"/>
<path d="M610.257 180.909L606.852 174.474L592.393 182.134L595.798 188.569L610.257 180.909Z" fill="white"/>
<path d="M624.6 199.596L621.195 193.161L606.054 201.183L609.459 207.618L624.6 199.596Z" fill="white"/>
<path d="M607.997 202.836L605.422 197.97L600.559 200.546L603.134 205.412L607.997 202.836Z" fill="white"/>
<path d="M608.203 196.565L604.891 190.304L598.634 193.619L601.947 199.88L608.203 196.565Z" fill="white"/>
<path d="M602.43 192.259L599.117 185.998L597.767 186.713L601.08 192.974L602.43 192.259Z" fill="white"/>
<path d="M661.328 171.06L652.922 157.827L646.448 161.944L654.854 175.178L661.328 171.06Z" fill="white"/>
<path d="M654.107 159.388L646.246 154.513L642.205 161.037L650.066 165.912L654.107 159.388Z" fill="white"/>
<path d="M659.321 158.95L656.969 155.246L650.495 159.364L652.847 163.068L659.321 158.95Z" fill="white"/>
<path d="M694.729 219.921L680.5 201.116L675.34 205.025L689.569 223.83L694.729 219.921Z" fill="#CFD4AA"/>
<path d="M683.931 219.269L676.078 208.891L670.512 213.107L678.365 223.486L683.931 219.269Z" fill="#CFD4AA"/>
<path d="M726.707 110.661L718.738 109.417L717.495 117.391L725.464 118.635L726.707 110.661Z" fill="white"/>
<path d="M722.96 108.389L716.445 113.147L721.201 119.666L727.715 114.907L722.96 108.389Z" fill="white"/>
<path d="M665.099 94.919L658.637 101.946L662.892 105.864L669.354 98.8366L665.099 94.919Z" fill="white"/>
<path d="M670.423 118.773L663.93 109.238L656.708 114.161L663.201 123.697L670.423 118.773Z" fill="white"/>
<path d="M629.715 111.137L630.168 117.416L636.443 116.962L635.99 110.683L629.715 111.137Z" fill="white"/>
<path d="M625.742 114.239L626.195 120.518L632.47 120.065L632.017 113.786L625.742 114.239Z" fill="white"/>
<path d="M580.043 218.949L565.695 216.709L562.104 239.737L576.451 241.977L580.043 218.949Z" fill="white"/>
<path d="M569.28 248.142C573.29 248.142 576.54 244.89 576.54 240.878C576.54 236.865 573.29 233.613 569.28 233.613C565.27 233.613 562.02 236.865 562.02 240.878C562.02 244.89 565.27 248.142 569.28 248.142Z" fill="white"/>
<path d="M647.779 298.136L645.922 288.601L636.393 290.46L638.251 299.994L647.779 298.136Z" fill="#7D7D7D"/>
<path d="M635.887 295.535L634.953 290.743L628.681 291.967L629.615 296.758L635.887 295.535Z" fill="#7D7D7D"/>
<path d="M781.915 218.54L770.852 205.044L737.767 232.198L748.83 245.694L781.915 218.54Z" fill="#CFD4AA"/>
<path d="M837.119 217.681L825.473 203.473L814.957 212.104L826.603 226.312L837.119 217.681Z" fill="#CFD4AA"/>
<path d="M790.248 209.435L778.602 195.227L771.426 201.116L783.073 215.324L790.248 209.435Z" fill="#CFD4AA"/>
<path d="M784.945 222.227L767.84 201.36L760.88 207.073L777.985 227.94L784.945 222.227Z" fill="#CFD4AA"/>
<path d="M805.88 236.882L792.879 221.022L785.919 226.735L798.92 242.595L805.88 236.882Z" fill="#CFD4AA"/>
<path d="M778.237 271.745L760.25 249.819L773.21 239.185L788.257 250.098L794.828 258.12L778.237 271.745Z" fill="#7D7D7D"/>
<path d="M808.513 243.554L802.648 236.399L799.194 239.234L805.059 246.389L808.513 243.554Z" fill="#CFD4AA"/>
<path d="M813.567 243.211L808.223 236.692L791.737 250.222L797.082 256.741L813.567 243.211Z" fill="#CFD4AA"/>
<path d="M798.633 233.194L790.352 223.091L782.731 229.345L791.013 239.448L798.633 233.194Z" fill="#CFD4AA"/>
<path d="M777.148 228.639L760.043 207.772L753.083 213.484L770.189 234.351L777.148 228.639Z" fill="#CFD4AA"/>
<path d="M766.613 237.284L749.508 216.417L742.548 222.13L759.653 242.997L766.613 237.284Z" fill="#CFD4AA"/>
<path d="M758.824 243.682L741.719 222.815L734.759 228.527L751.864 249.394L758.824 243.682Z" fill="#CFD4AA"/>
<path d="M728.723 262.352L711.211 240.99L701.635 248.849L719.147 270.212L728.723 262.352Z" fill="#CFD4AA"/>
<path d="M723.761 314.832L696.926 282.095L686.765 290.434L713.601 323.171L723.761 314.832Z" fill="#CFD4AA"/>
<path d="M681.655 334.752L662.008 310.784L660.281 312.202L679.928 336.17L681.655 334.752Z" fill="#CFD4AA"/>
<path d="M667.758 325.301L661.102 317.181L655.793 321.538L662.45 329.659L667.758 325.301Z" fill="#CFD4AA"/>
<path d="M700.116 348.687L682.938 327.731L671.786 336.883L688.965 357.839L700.116 348.687Z" fill="#CFD4AA"/>
<path d="M681.992 326.588L679.461 323.5L668.31 332.652L670.841 335.74L681.992 326.588Z" fill="#CFD4AA"/>
<path d="M695.347 352.583L683.305 337.892L674.033 345.502L686.076 360.193L695.347 352.583Z" fill="#CFD4AA"/>
<path d="M722.51 315.888L717.301 309.534L697.158 326.067L702.367 332.421L722.51 315.888Z" fill="#CFD4AA"/>
<path d="M701.162 333.406L695.953 327.052L692.88 329.574L698.088 335.928L701.162 333.406Z" fill="#CFD4AA"/>
<path d="M691.994 303.16L683.66 292.994L661.358 311.298L669.692 321.465L691.994 303.16Z" fill="#CFD4AA"/>
<path d="M668.165 300.279L664.059 295.266L672.912 281.575L679.598 276.068L686.858 284.928L668.165 300.279Z" fill="#CFD4AA"/>
<path d="M702.332 328.958L700.551 326.784L687.126 337.802L688.908 339.976L702.332 328.958Z" fill="#CFD4AA"/>
<path d="M719.656 288.874L717.875 286.701L704.451 297.719L706.232 299.892L719.656 288.874Z" fill="#CFD4AA"/>
<path d="M709.408 261.254L702.918 253.336L700.34 255.452L706.83 263.37L709.408 261.254Z" fill="#CFD4AA"/>
<path d="M736.964 278.488L729.953 269.935L711.982 284.685L718.993 293.238L736.964 278.488Z" fill="#CFD4AA"/>
<path d="M736.657 321.581L732.344 316.32L721.447 325.264L725.76 330.525L736.657 321.581Z" fill="#CFD4AA"/>
<path d="M717.724 294.649L712.016 287.685L708.942 290.208L714.651 297.172L717.724 294.649Z" fill="#CFD4AA"/>
<path d="M735.627 320.345L729.918 313.381L724.647 317.707L730.356 324.671L735.627 320.345Z" fill="#CFD4AA"/>
<path d="M731.363 271.294L724.352 262.741L721.405 265.159L728.416 273.712L731.363 271.294Z" fill="#CFD4AA"/>
<path d="M735.857 271.368L732.773 267.606L714.802 282.356L717.886 286.118L735.857 271.368Z" fill="#CFD4AA"/>
<path d="M709.074 256.128L707.699 254.451L698.339 262.133L699.714 263.811L709.074 256.128Z" fill="#CFD4AA"/>
<path d="M738.448 274.218L732.938 267.495L730.753 269.288L736.264 276.01L738.448 274.218Z" fill="#CFD4AA"/>
<path d="M735.952 273.872L733.598 271L731.121 273.033L733.475 275.905L735.952 273.872Z" fill="#CFD4AA"/>
<path d="M705.699 264.281L696.5 253.06L680.421 266.257L689.62 277.478L705.699 264.281Z" fill="#CFD4AA"/>
<path d="M682.522 257.387L672.625 245.314L643.592 269.143L653.488 281.216L682.522 257.387Z" fill="#CFD4AA"/>
<path d="M784.172 202.045L780.266 197.28L775.503 201.189L779.409 205.954L784.172 202.045Z" fill="#CFD4AA"/>
<path d="M750.897 346.198L744.996 340.248L732.357 352.798L738.258 358.748L750.897 346.198Z" fill="white"/>
<path d="M753.316 365.149L746.293 358.068L727.777 376.453L734.801 383.535L753.316 365.149Z" fill="#8384BF"/>
<path d="M739.952 388.642L732.445 381.065L746.424 367.193L748.855 369.625L746.26 382.364L739.952 388.642Z" fill="#8384BF"/>
<path d="M533.655 280.533L499.855 257.661L493.304 267.355L527.103 290.227L533.655 280.533Z" fill="#9F81A1"/>
<path d="M551.078 273.208L554.018 258.843L572.498 262.804L569.558 277.17L551.078 273.208Z" fill="#B1D476"/>
<path d="M569.558 277.17L568.934 266.765L584.144 265.286L584.769 275.674L569.558 277.17Z" fill="#B1D476"/>
<path d="M660.314 185.771L654.781 179.652L649.434 184.494L654.967 190.612L660.314 185.771Z" fill="#B1D476"/>
<path d="M652.943 191.753L647.41 185.635L628.36 202.882L633.893 209.001L652.943 191.753Z" fill="#B1D476"/>
<path d="M628.2 210.498L623.949 202.465L608.837 210.472L613.088 218.505L628.2 210.498Z" fill="#B1D476"/>
<path d="M626.332 206.986L623.941 202.469L611.326 209.152L613.717 213.67L626.332 206.986Z" fill="#B1D476"/>
<path d="M629.925 213.793L627.996 210.147L622.422 213.1L624.351 216.747L629.925 213.793Z" fill="#B1D476"/>
<path d="M576.889 291.507L536.949 283.151L534.556 294.606L574.495 302.962L576.889 291.507Z" fill="#B1D476"/>
<path d="M583.092 301.983L623.219 294.578L621.097 283.069L580.971 290.475L583.092 301.983Z" fill="#B1D476"/>
<path d="M558.247 396.854L510.605 386.886L502.718 424.63L550.36 434.598L558.247 396.854Z" fill="white"/>
<path d="M456.687 401.292L438.984 397.588L435.027 416.524L452.73 420.228L456.687 401.292Z" fill="#7D7D7D"/>
<path d="M397.925 333.58L388.055 323.956L372.417 340.012L382.288 349.637L397.925 333.58Z" fill="#7D7D7D"/>
<path d="M416.897 231.176L416.934 247.284L424.72 247.267L424.683 231.159L416.897 231.176Z" fill="white"/>
<path d="M403.445 231.192L403.496 253.825L416.949 253.794L416.898 231.161L403.445 231.192Z" fill="white"/>
<path d="M388.726 355.963L395.387 349.124L379.058 333.201L372.397 340.041L388.726 355.963Z" fill="#7D7D7D"/>
<path d="M448.852 429.67L418.641 423.349L416.671 432.777L446.882 439.098L448.852 429.67Z" fill="#7D7D7D"/>
<path d="M446.245 457.849L424.41 453.28L422.208 463.818L444.043 468.387L446.245 457.849Z" fill="white"/>
<path d="M447.753 435.008L438.508 433.074L434.927 450.208L444.173 452.143L447.753 435.008Z" fill="#7D7D7D"/>
<path d="M413.519 429.97L405.496 428.292L403.015 440.165L411.038 441.844L413.519 429.97Z" fill="#7D7D7D"/>
<path d="M415.48 439.848L407.344 438.146L404.281 452.803L412.417 454.505L415.48 439.848Z" fill="#7D7D7D"/>
<path d="M401.492 474.652L397.23 462.318L369.674 471.85L373.935 484.184L401.492 474.652Z" fill="white"/>
<path d="M440.674 442.93L428.422 440.366L426.724 448.491L438.976 451.055L440.674 442.93Z" fill="#7D7D7D"/>
<path d="M381.23 459.369C381.23 459.369 387.111 454.915 393.37 458.942L389.805 470.464L388.507 470.661L381.23 459.369Z" fill="white"/>
<path d="M384.073 460.599L379.031 464.281L382.712 469.326L387.753 465.643L384.073 460.599Z" fill="white"/>
<path d="M437.623 524.737C440.027 524.737 441.976 522.787 441.976 520.382C441.976 517.976 440.027 516.026 437.623 516.026C435.218 516.026 433.27 517.976 433.27 520.382C433.27 522.787 435.218 524.737 437.623 524.737Z" fill="white"/>
<path d="M442.55 509.402L445.327 491.684L440.908 490.993L429.59 494.774L426.863 512.246L431.627 513.002L442.55 509.402Z" fill="#A76DAB"/>
<path d="M432.199 539.3L415.461 528.485L421.539 514.728L439.526 522.683L432.199 539.3Z" fill="white"/>
<path d="M425.073 539.744L417.764 541.322L415.48 548.472L420.507 554.011L427.833 552.416L430.116 545.283L425.073 539.744Z" fill="#A76DAB"/>
<path d="M414.051 420.25C415.578 410.47 424.744 403.764 434.518 405.293L432.843 416.075C429.015 415.484 425.434 418.097 424.826 421.927L414.051 420.25Z" fill="#7D7D7D"/>
<path d="M427.168 351.98L411.922 353.371L413.703 372.915L428.949 371.524L427.168 351.98Z" fill="white"/>
<path d="M426.861 366.106L420.039 366.729L421.058 377.909L427.879 377.286L426.861 366.106Z" fill="white"/>
<path d="M394.113 367.617L388.422 360.448L372.897 372.787L378.587 379.956L394.113 367.617Z" fill="#B8DDBD"/>
<path d="M405.238 366.971L401.121 361.784L392.748 368.439L396.865 373.626L405.238 366.971Z" fill="#B8DDBD"/>
<path d="M392.966 374.826L397.121 371.524L389.305 361.678L385.151 364.98L392.966 374.826Z" fill="#B8DDBD"/>
<path d="M399.35 377.981L401.125 376.57L395.639 369.659L393.864 371.07L399.35 377.981Z" fill="#B8DDBD"/>
<path d="M378.029 389.711L383.602 388.994L382.021 376.686L376.449 377.402L378.029 389.711Z" fill="#B8DDBD"/>
<path d="M367.494 383.513L367.379 385.696L379.764 386.35L379.879 384.167L367.494 383.513Z" fill="#B8DDBD"/>
<path d="M373.472 384.152L373.875 376.503L352.993 375.4L352.59 383.049L373.472 384.152Z" fill="#B8DDBD"/>
<path d="M359.002 385.142L359.16 382.138L355.322 381.935L355.163 384.939L359.002 385.142Z" fill="#B8DDBD"/>
<path d="M357.383 381.72L353.035 375.416L345.924 380.326L350.272 386.63L357.383 381.72Z" fill="#B8DDBD"/>
<path d="M413.703 372.929L415.871 361.111L433.185 364.284L438.441 369.461L437.029 377.203L413.703 372.929Z" fill="white"/>
<path d="M410.554 373.241L398.546 374.343L392.961 378.287L399.712 387.13L411.72 386.029L410.554 373.241Z" fill="#B8DDBD"/>
<path d="M405.969 384.287L393.469 385.897L393.994 390.105L402.093 392.883L406.511 388.494L405.969 384.287Z" fill="#B8DDBD"/>
<path d="M360.09 355.539L336.617 358.005L337.504 366.519C341.151 366.913 344.025 369.757 344.469 373.389L354.736 372.304L361.043 364.711L360.074 355.539H360.09Z" fill="#B8DDBD"/>
<path d="M327.369 371.581C327.927 368.047 330.72 365.467 334.087 364.99L333.496 358.448C327.993 359.09 323.969 362.114 322.539 366.272L312.043 367.226L313.078 378.567L328.601 377.153C327.55 375.559 327.04 373.603 327.352 371.565L327.369 371.581Z" fill="#62908D"/>
<path d="M324.05 373.752L309.867 375.046L310.213 378.843L324.396 377.549L324.05 373.752Z" fill="#62908D"/>
<path d="M303.68 362.926L266.398 366.327L267.258 375.755L304.539 372.354L303.68 362.926Z" fill="#7D7D7D"/>
<path d="M276.06 389.974L250.164 392.337L250.864 400.014L276.759 397.651L276.06 389.974Z" fill="#7D7D7D"/>
<path d="M275.446 379.353L267.512 380.076L269.176 398.344L277.11 397.62L275.446 379.353Z" fill="#7D7D7D"/>
<path d="M326.4 431.927L324.543 411.548L318.605 412.09L320.462 432.469L326.4 431.927Z" fill="#C1BC46"/>
<path d="M323.384 421.879L322.461 411.747L316.523 412.289L317.446 422.421L323.384 421.879Z" fill="#C1BC46"/>
<path d="M281.191 448.647L279.398 428.972L270.728 429.763L272.521 449.438L281.191 448.647Z" fill="#7D7D7D"/>
<path d="M214.846 437.494L215.773 411.196L203.511 410.763L202.584 437.061L214.846 437.494Z" fill="white"/>
<path d="M208.603 459.089L209.375 437.193L199.279 436.837L198.507 458.733L208.603 459.089Z" fill="white"/>
<path d="M195.533 458.618L196.305 436.722L188.146 436.434L187.374 458.33L195.533 458.618Z" fill="white"/>
<path d="M228.624 475.267L215.98 460.242L210.49 464.869L223.133 479.893L228.624 475.267Z" fill="white"/>
<path d="M216.59 503.736L223.898 491.928L217.796 488.147L210.488 499.955L216.59 503.736Z" fill="white"/>
<path d="M232.714 522.066L249.734 494.565L244.749 491.476L227.728 518.976L232.714 522.066Z" fill="white"/>
<path d="M244.573 529.394L248.301 523.372L233.19 514.008L229.463 520.031L244.573 529.394Z" fill="white"/>
<path d="M244.328 520.999L255.156 503.504L245.269 497.377L234.441 514.872L244.328 520.999Z" fill="white"/>
<path d="M248.873 516.781L254.996 506.887L245.109 500.76L238.985 510.654L248.873 516.781Z" fill="white"/>
<path d="M255.492 518.381L260.949 509.563L251.062 503.436L245.605 512.254L255.492 518.381Z" fill="white"/>
<path d="M253.601 513.465L259.059 504.648L244.772 495.795L239.315 504.612L253.601 513.465Z" fill="white"/>
<path d="M235.499 494.685L239.633 488.006L230.765 482.51L226.631 489.19L235.499 494.685Z" fill="white"/>
<path d="M232.69 499.223L236.824 492.543L232.313 489.748L228.179 496.427L232.69 499.223Z" fill="white"/>
<path d="M226.956 510.151L230.883 503.806L220.241 497.212L216.315 503.556L226.956 510.151Z" fill="white"/>
<path d="M256.071 536.18L260.957 528.285L253.067 523.395L248.18 531.291L256.071 536.18Z" fill="white"/>
<path d="M272.744 571.072L283.328 563.905L272.556 547.979L261.972 555.146L272.744 571.072Z" fill="white"/>
<path d="M294.626 585.248L302.312 580.043L293.041 566.336L285.355 571.541L294.626 585.248Z" fill="white"/>
<path d="M286.444 590.82L290.008 588.406L278.932 572.031L275.368 574.445L286.444 590.82Z" fill="white"/>
<path d="M290.953 587.76L292.477 586.729L283.454 573.389L281.93 574.42L290.953 587.76Z" fill="white"/>
<path d="M288.056 587.474L290.586 585.76L282.604 573.959L280.073 575.672L288.056 587.474Z" fill="white"/>
<path d="M285.619 562.354L293.047 557.323L280.47 538.729L273.043 543.759L285.619 562.354Z" fill="white"/>
<path d="M287.539 549.893L289.531 549.274L284.825 534.127L282.833 534.747L287.539 549.893Z" fill="white"/>
<path d="M285.25 554.414L291.059 550.48L288.923 547.322L283.114 551.256L285.25 554.414Z" fill="white"/>
<path d="M258.553 530.939L269.18 523.177L263.707 515.676L253.08 523.439L258.553 530.939Z" fill="white"/>
<path d="M175.17 515.044L190.023 494.13L182.539 488.808L167.685 509.722L175.17 515.044Z" fill="#80758F"/>
<path d="M163.681 551.397L180.239 535.799L177.939 533.35L170.728 532.857L157.734 545.086L163.681 551.397Z" fill="white"/>
<path d="M187.134 534.451L205.68 508.338L198.195 503.016L179.649 529.128L187.134 534.451Z" fill="#80758F"/>
<path d="M190.156 536.622L200.852 521.563L192.604 515.698L181.908 530.757L190.156 536.622Z" fill="#80758F"/>
<path d="M190.454 517.883L195.906 510.206L180.99 499.599L175.538 507.276L190.454 517.883Z" fill="#80758F"/>
<path d="M213.603 489.014L214.199 472.111L204.793 471.779L204.197 488.682L213.603 489.014Z" fill="white"/>
<path d="M197.856 477.722L198.359 463.448L189.002 463.118L188.499 477.392L197.856 477.722Z" fill="white"/>
<path d="M191.54 483.138L192.074 467.976L180.993 467.585L180.459 482.747L191.54 483.138Z" fill="white"/>
<path d="M193.984 485.723L194.297 476.836L186.302 476.554L185.989 485.441L193.984 485.723Z" fill="white"/>
<path d="M312.676 458.42L301.52 440.316L285.748 450.048L296.905 468.151L312.676 458.42Z" fill="#7D7D7D"/>
<path d="M280.832 465.644L275.219 456.536L259.363 466.319L264.976 475.427L280.832 465.644Z" fill="#7D7D7D"/>
<path d="M323.745 476.343L312.684 458.393L308.377 461.05L319.439 479L323.745 476.343Z" fill="#FBD59E"/>
<path d="M336.754 497.453L324.434 477.46L320.127 480.118L332.448 500.11L336.754 497.453Z" fill="#FBD59E"/>
<path d="M334.342 498.94L328.91 490.125L322.968 493.792L328.4 502.606L334.342 498.94Z" fill="#FBD59E"/>
<path d="M331.462 500.702L328.746 496.295L322.804 499.961L325.52 504.369L331.462 500.702Z" fill="#FBD59E"/>
<path d="M292.436 439.525L291.375 427.887L284.423 428.521L285.483 440.159L292.436 439.525Z" fill="#7D7D7D"/>
<path d="M322.148 424.173L302.91 425.928L303.649 434.031L322.886 432.276L322.148 424.173Z" fill="#C1BC46"/>
<path d="M291.117 425.216L270.473 427.1L271.119 434.187L291.763 432.304L291.117 425.216Z" fill="#7D7D7D"/>
<path d="M296.746 366.623L284.461 367.744L285.32 377.172L297.605 376.052L296.746 366.623Z" fill="white"/>
<path d="M303.969 365.958L294.547 366.818L295.697 379.438L305.119 378.578L303.969 365.958Z" fill="white"/>
<path d="M307.834 373.444L295.254 374.592L295.763 380.174L308.342 379.026L307.834 373.444Z" fill="white"/>
<path d="M484.897 282.264L484.961 310.354L493.289 310.335L493.225 282.245L484.897 282.264Z" fill="#A3D7D0"/>
<path d="M488.327 286.201L488.355 298.89L496.684 298.871L496.655 286.182L488.327 286.201Z" fill="#A3D7D0"/>
<path d="M484.957 301.585L484.977 310.362L504.59 310.317L504.57 301.54L484.957 301.585Z" fill="#A3D7D0"/>
<path d="M491.499 291.483L486.676 299.475L504.575 310.292L509.399 302.3L491.499 291.483Z" fill="#A3D7D0"/>
<path d="M493.26 282.265L496.676 286.177L493.046 289.119L489.859 284.583L493.26 282.265Z" fill="#A3D7D0"/>
<path d="M197.847 477.696L193.97 485.7L191.062 479.044C191.062 479.044 191.818 474.819 191.818 474.852C191.818 474.885 197.83 477.696 197.83 477.696H197.847Z" fill="white"/>
<path d="M249.739 494.593L259.085 504.685L255.964 509.714L244.203 502.071L249.739 494.593Z" fill="white"/>
<path d="M185.25 546.328L177.695 542.339L170.849 555.32L178.404 559.309L185.25 546.328Z" fill="white"/>
<path d="M179.471 548.438L171.062 538.099L167.049 541.367L175.458 551.706L179.471 548.438Z" fill="white"/>
<path d="M175.563 547.802L169.953 540.905L167.991 542.503L173.601 549.4L175.563 547.802Z" fill="white"/>
<path d="M171.445 569.975L179.98 569.657L179.435 554.99L170.899 555.307L171.445 569.975Z" fill="white"/>
<path d="M167.935 532.85L163.602 527.973L156.666 534.143L160.999 539.02L167.935 532.85Z" fill="white"/>
<path d="M285.739 599.287L279.645 591.557L267.767 600.933L273.861 608.663L285.739 599.287Z" fill="white"/>
<path d="M275.973 601.479L272.555 597.144L260.677 606.52L264.096 610.855L275.973 601.479Z" fill="white"/>
<path d="M615.406 175.854L621.32 166.864L631.8 163.56L641.344 169.23L644.07 179.98L615.406 175.854Z" fill="white"/>
<path d="M630.018 169.211L615.406 175.812L621.422 189.145L636.034 182.543L630.018 169.211Z" fill="white"/>
<path d="M642.479 167.835L630.695 175.329L636.758 184.873L648.541 177.379L642.479 167.835Z" fill="white"/>
<path d="M644.311 167.811L642.703 168.834L648.792 178.419L650.4 177.397L644.311 167.811Z" fill="white"/>
<path d="M644.302 167.751L638.733 171.285L632.836 168.146L638.421 164.595L644.302 167.751Z" fill="white"/>
<path d="M622.617 186.489L626.625 194.855L628.432 194.017L643.972 178.172L634.411 173.044L622.617 186.489Z" fill="white"/>
<path d="M754.319 302.728L744.273 293.456L735.007 303.507L745.052 312.78L754.319 302.728Z" fill="white"/>
<path d="M495.54 367.825L484.988 368.788L486.083 380.803L496.634 379.84L495.54 367.825Z" fill="white"/>
<path d="M522.79 431.424L518.883 430.607L517.562 436.93L521.469 437.747L522.79 431.424Z" fill="white"/>
<path d="M527.934 432.488L524.027 431.67L522.706 437.993L526.613 438.81L527.934 432.488Z" fill="white"/>
<path d="M533.056 433.58L529.148 432.763L527.827 439.086L531.734 439.903L533.056 433.58Z" fill="white"/>
<path d="M490.267 373.62C493.197 373.62 495.572 371.243 495.572 368.31C495.572 365.378 493.197 363.001 490.267 363.001C487.336 363.001 484.961 365.378 484.961 368.31C484.961 371.243 487.336 373.62 490.267 373.62Z" fill="white"/>
<path d="M409.057 549.524C409.845 535.635 399.809 523.784 386.668 523.044L356.41 521.335C343.269 520.595 331.968 531.246 331.196 545.135C330.407 559.024 340.444 570.875 353.585 571.615L383.842 573.324C396.984 574.064 408.285 563.413 409.057 549.524ZM383.744 564.202L354.669 562.558C346.292 562.081 339.918 554.537 340.411 545.694C340.904 536.851 348.099 530.063 356.476 530.54L385.551 532.183C393.928 532.66 400.302 540.204 399.809 549.047C399.316 557.89 392.121 564.678 383.744 564.202Z" fill="white"/>
<path d="M352.358 535.782L351.156 557.083L369.049 558.093L370.25 536.792L352.358 535.782Z" fill="white"/>
<path d="M371.244 536.842L370.043 558.142L387.936 559.153L389.137 537.852L371.244 536.842Z" fill="white"/>
<path d="M380.924 518.602L362.047 517.536L361.696 523.755L380.573 524.821L380.924 518.602Z" fill="white"/>
<path d="M245.4 587.64L262.056 572.864L275.345 587.887L252.545 608.104L242.887 597.223L245.4 587.64Z" fill="white"/>
<path d="M250.397 597.377L262.062 572.915L253.316 568.739L241.65 593.2L250.397 597.377Z" fill="white"/>
<path d="M247.96 592.963L261.215 574.3L253.315 568.682L240.06 587.346L247.96 592.963Z" fill="white"/>
<path d="M252.523 608.051L266.785 585.009L252.387 576.086L238.125 599.129L252.523 608.051Z" fill="white"/>
<path d="M240.047 587.361L241.18 596.976L248.572 594.018L248.326 584.468L240.047 587.361Z" fill="white"/>
<path d="M368.706 574.97L358.406 574.388L357.987 581.822L368.286 582.404L368.706 574.97Z" fill="white"/>
<path d="M380.131 575.613L369.832 575.032L369.413 582.466L379.712 583.047L380.131 575.613Z" fill="white"/>
<path d="M336.156 380.588C339.25 380.588 341.757 378.079 341.757 374.984C341.757 371.888 339.25 369.379 336.156 369.379C333.063 369.379 330.555 371.888 330.555 374.984C330.555 378.079 333.063 380.588 336.156 380.588Z" fill="white"/>
<path d="M333.417 176.033L314.328 185.757L320.879 198.633L339.967 188.909L333.417 176.033Z" fill="white"/>
<path d="M244.927 208.358L257.68 196.714L251.413 189.842L238.66 201.486L244.927 208.358Z" fill="white"/>
<path d="M217.391 199.298L224.344 192.95L212.773 180.262L205.821 186.61L217.391 199.298Z" fill="white"/>
<path d="M221.548 209.079L225.148 203.364L210.628 194.204L207.027 199.918L221.548 209.079Z" fill="white"/>
<path d="M225.85 207.813L228.82 203.1L214.3 193.939L211.33 198.653L225.85 207.813Z" fill="white"/>
<path d="M233.655 199.477L236.625 194.763L227.065 188.732L224.095 193.446L233.655 199.477Z" fill="white"/>
<path d="M238.726 207.548L241.695 202.835L232.135 196.804L229.166 201.517L238.726 207.548Z" fill="white"/>
<path d="M236.148 211.927L241.352 203.668L222.454 191.746L217.25 200.005L236.148 211.927Z" fill="white"/>
<path d="M202.327 185.881L212.594 172.425L199.146 162.152L188.879 175.608L202.327 185.881Z" fill="white"/>
<path d="M157.927 218.741L166.43 207.597L146.036 192.018L137.533 203.162L157.927 218.741Z" fill="white"/>
<path d="M189.054 231.607L195.734 221.722L182.454 212.736L175.773 222.62L189.054 231.607Z" fill="white"/>
<path d="M205.506 227.12L203.531 216.889L187.225 220.039L189.2 230.271L205.506 227.12Z" fill="white"/>
<path d="M224.661 244.63L223.328 238.461L208.991 241.563L210.324 247.732L224.661 244.63Z" fill="#FEDF73"/>
<path d="M220.371 274.743L218.562 266.373L204.771 269.357L206.579 277.727L220.371 274.743Z" fill="#FEDF73"/>
<path d="M168.939 298.836L171.961 295.258L155.738 281.54L152.717 285.118L168.939 298.836Z" fill="white"/>
<path d="M172.388 288.851L176.672 283.779L170.486 278.549L166.203 283.62L172.388 288.851Z" fill="white"/>
<path d="M171.226 282.999L173.113 280.764L166.928 275.534L165.041 277.769L171.226 282.999Z" fill="white"/>
<path d="M173.483 289.767L176.102 286.667L173.003 284.046L170.384 287.147L173.483 289.767Z" fill="white"/>
<path d="M162.498 306.796L165.52 303.218L149.297 289.501L146.275 293.079L162.498 306.796Z" fill="white"/>
<path d="M137.455 306.76L140.477 303.182L122.598 288.064L119.576 291.642L137.455 306.76Z" fill="white"/>
<path d="M100.586 289.217L106.122 287.755L119.361 298.636L116.339 302.219L100.586 289.217Z" fill="white"/>
<path d="M106.283 308.689L109.305 305.111L99.6314 296.932L96.6097 300.51L106.283 308.689Z" fill="white"/>
<path d="M104.312 309.714L107.746 305.654L115.22 311.966L109.635 314.234L104.312 309.714Z" fill="white"/>
<path d="M125.162 309.701L128.184 306.123L120.593 299.704L117.571 303.282L125.162 309.701Z" fill="white"/>
<path d="M230.801 284.103L228.992 275.733L220.627 277.543L222.436 285.913L230.801 284.103Z" fill="#FEDF73"/>
<path d="M244.213 271.415L241.734 259.944L226.546 263.23L229.024 274.701L244.213 271.415Z" fill="#FEDF73"/>
<path d="M234.105 276.779L232.547 269.566L216.01 273.143L217.568 280.357L234.105 276.779Z" fill="#FEDF73"/>
<path d="M195.525 239.4L194.699 235.123L174.668 238.994L175.493 243.271L195.525 239.4Z" fill="white"/>
<path d="M108.016 215.77L117.766 209.217L114.496 204.346L104.746 210.899L108.016 215.77Z" fill="white"/>
<path d="M99.0248 229.075L109.129 222.284L103.331 213.647L93.227 220.438L99.0248 229.075Z" fill="white"/>
<path d="M99.5385 256.02L116.945 254.115L115.894 244.491L98.4869 246.396L99.5385 256.02Z" fill="white"/>
<path d="M129.738 238.354L130.156 244.009L134.514 243.687L134.096 238.031L129.738 238.354Z" fill="white"/>
<path d="M123.816 257.273L124.234 262.928L128.592 262.606L128.174 256.951L123.816 257.273Z" fill="white"/>
<path d="M120.765 259.442L121.039 263.146L125.397 262.824L125.123 259.119L120.765 259.442Z" fill="white"/>
<path d="M130.144 243.996L124.195 255.573L128.081 257.572L134.03 245.995L130.144 243.996Z" fill="white"/>
<path d="M100.186 233.896L105.695 230.194L101.684 224.217L96.1747 227.92L100.186 233.896Z" fill="white"/>
<path d="M99.4004 222.257L106.027 217.803L102.016 211.827L95.3886 216.281L99.4004 222.257Z" fill="white"/>
<path d="M112.113 214.846L118.617 210.474L115.347 205.603L108.843 209.975L112.113 214.846Z" fill="white"/>
<path d="M121.151 240.883L124.328 238.748L115.059 224.94L111.882 227.075L121.151 240.883Z" fill="white"/>
<path d="M139.629 225.142L143.516 222.53L140.63 218.232L136.744 220.844L139.629 225.142Z" fill="white"/>
<path d="M131.5 214.532L135.004 212.177L132.119 207.879L128.614 210.234L131.5 214.532Z" fill="white"/>
<path d="M138.256 221.194L141.992 218.683L136.515 210.524L132.779 213.035L138.256 221.194Z" fill="white"/>
<path d="M192.622 255.747L191.797 251.47L172.717 255.157L173.542 259.434L192.622 255.747Z" fill="white"/>
<path d="M181.631 257.862L180.023 249.535L171.927 251.099L173.534 259.427L181.631 257.862Z" fill="white"/>
<path d="M185.471 250.886L183.016 246.668L175.89 250.821L178.346 255.039L185.471 250.886Z" fill="white"/>
<path d="M179.993 245.485L179.168 241.208L175.249 241.966L176.074 246.242L179.993 245.485Z" fill="white"/>
<path d="M197.434 249.302L194.852 235.923L190.255 236.811L192.837 250.19L197.434 249.302Z" fill="white"/>
<path d="M209.367 255.524L206.469 242.109L200.191 243.467L203.09 256.882L209.367 255.524Z" fill="#FEDF73"/>
<path d="M233.091 251.438L230.078 237.493L224.973 238.597L227.986 252.542L233.091 251.438Z" fill="#FEDF73"/>
<path d="M232.342 239.761L231.672 236.661L204.346 242.572L205.015 245.673L232.342 239.761Z" fill="#FEDF73"/>
<path d="M179.137 204.651L183.457 207.068L186.299 221.795L177.429 223.504L175.129 211.571L179.137 204.651Z" fill="white"/>
<path d="M141.28 202.437L149.035 192.272L138.107 183.924L130.352 194.088L141.28 202.437Z" fill="white"/>
<path d="M126.293 205.449L138.344 189.654L128.721 182.304L116.67 198.098L126.293 205.449Z" fill="white"/>
<path d="M172.074 175.872L177.277 169.052L167.25 161.392L162.047 168.212L172.074 175.872Z" fill="white"/>
<path d="M181.274 182.906L185.461 177.419L172.274 167.345L168.088 172.832L181.274 182.906Z" fill="white"/>
<path d="M163.966 192.026L168.152 186.539L149.704 172.446L145.517 177.933L163.966 192.026Z" fill="white"/>
<path d="M142.324 182.166L149.092 173.29L162.151 183.267L157.519 189.349L152.985 190.302L142.324 182.166Z" fill="white"/>
<path d="M167.061 177.776L172.164 171.087L166.902 167.067L161.799 173.756L167.061 177.776Z" fill="white"/>
<path d="M202.316 188.187L207.051 181.981L200.849 177.244L196.114 183.449L202.316 188.187Z" fill="white"/>
<path d="M215.16 205.062L218.298 200.082L236.416 211.505L230.19 221.367L215.16 205.062Z" fill="white"/>
<path d="M229.695 198.75L232.767 193.885L246.976 202.86L244.923 208.349L229.695 198.75Z" fill="white"/>
<path d="M130.137 243.984L134.013 245.973L134.49 243.655L130.137 243.984Z" fill="white"/>
<path d="M123.777 257.249L128.13 256.936L124.188 255.556L123.777 257.249Z" fill="white"/>
<path d="M133.848 282.347L144.508 291.371L147.547 287.788L139.63 281.098L133.848 282.347Z" fill="white"/>
<path d="M145.133 279.914L150.422 284.385L154.463 279.586L152.902 278.238L145.133 279.914Z" fill="white"/>
<path d="M296.196 385.805L278.496 387.42L279.406 397.405L297.106 395.79L296.196 385.805Z" fill="white"/>
<path d="M313.103 398.362L311.742 383.433L303.874 384.151L305.234 399.08L313.103 398.362Z" fill="white"/>
<path d="M299.977 418.168L297.922 395.612L288.041 396.514L290.097 419.07L299.977 418.168Z" fill="white"/>
<path d="M327.786 397.013L326.426 382.085L318.557 382.803L319.918 397.731L327.786 397.013Z" fill="white"/>
<path d="M327.225 391.097L287.883 394.687L288.667 403.297L328.01 399.707L327.225 391.097Z" fill="white"/>
<path d="M431.004 246.393L431.047 265.492L439.884 265.472L439.841 246.373L431.004 246.393Z" fill="#9F81A1"/>
<path d="M430.95 218.849L431.008 244.392L438.4 244.375L438.342 218.833L430.95 218.849Z" fill="#9F81A1"/>
<path d="M431.049 267.953L431.07 277.207L469.048 277.121L469.027 267.867L431.049 267.953Z" fill="#9F81A1"/>
<path d="M481.992 255.128L482.008 264.382L466.633 264.513L468.965 255.26L481.992 255.128Z" fill="#9F81A1"/>
<path d="M435.275 221.86C437.295 220.989 439.562 220.661 441.895 221.022C448.482 222.058 452.983 228.221 451.964 234.812C451.685 236.62 451.011 238.264 450.059 239.694L442.864 235.536H432.844L435.275 221.86Z" fill="#9F81A1"/>
<path d="M483.994 243.327L444.801 243.294L444.817 252.548L479.395 252.465L477.9 255.161L482.007 264.382L491.14 247.354L483.994 243.327Z" fill="#9F81A1"/>
<path d="M502.825 339.496L493.77 341.455L499.681 368.814L508.736 366.855L502.825 339.496Z" fill="#E6B8B8"/>
<path d="M475.723 358.772L465.957 359.663L467.662 378.372L477.428 377.481L475.723 358.772Z" fill="white"/>
<path d="M472.466 361.945L469.227 362.24L470.672 378.102L473.911 377.806L472.466 361.945Z" fill="white"/>
<path d="M475.503 368.634L474.887 361.874L462.405 363.013L463.021 369.773L475.503 368.634Z" fill="white"/>
<path d="M484.803 323.703L476.855 325.422L482.423 351.191L490.371 349.472L484.803 323.703Z" fill="#E6B8B8"/>
<path d="M435.882 320.984L435.906 331.619L471.584 331.538L471.56 320.903L435.882 320.984Z" fill="#E6B8B8"/>
<path d="M450.413 333.712L450.445 348.061L462.371 348.034L462.338 333.685L450.413 333.712Z" fill="#E6B8B8"/>
<path d="M468.061 325.115L468.066 327.318L479.006 327.293L479.001 325.09L468.061 325.115Z" fill="#E6B8B8"/>
<path d="M487.058 345.507L487.523 347.66L498.216 345.347L497.751 343.194L487.058 345.507Z" fill="#E6B8B8"/>
<path d="M492.409 341.747L490.258 342.212L491.764 349.185L493.916 348.719L492.409 341.747Z" fill="#E6B8B8"/>
<path d="M454.767 329.259L454.797 342.425L458 342.418L457.97 329.252L454.767 329.259Z" fill="#E6B8B8"/>
<path d="M430.259 282.156L430.312 305.545L440.086 305.523L440.033 282.134L430.259 282.156Z" fill="#E6B8B8"/>
<path d="M414.531 275.238L414.578 296.08L424.171 296.058L424.124 275.217L414.531 275.238Z" fill="#E6B8B8"/>
<path d="M462.683 289.591L462.727 308.756L473.552 308.732L473.508 289.567L462.683 289.591Z" fill="#E6B8B8"/>
<path d="M467.213 289.056L467.242 301.876L477.049 301.854L477.02 289.034L467.213 289.056Z" fill="#E6B8B8"/>
<path d="M435.472 307.607L435.492 316.565L473.568 316.479L473.548 307.521L435.472 307.607Z" fill="#E6B8B8"/>
<path d="M444.64 282.115L444.664 292.617L477.024 292.544L477 282.041L444.64 282.115Z" fill="#E6B8B8"/>
<path d="M418.92 457.908L410.672 456.182L404.869 483.951L413.117 485.677L418.92 457.908Z" fill="#A76DAB"/>
<path d="M411.919 492.652L407.695 480.426L369.411 493.669L373.635 505.895L411.919 492.652Z" fill="#A76DAB"/>
<path d="M389.655 509.698L385.434 497.469L408.677 489.415L410.977 496.089L406.755 503.781L389.655 509.698Z" fill="#A76DAB"/>
<path d="M397.565 497.645L394.672 489.272L356.387 502.515L359.28 510.888L397.565 497.645Z" fill="#A76DAB"/>
<path d="M414.458 499.359C419.248 499.359 423.131 495.474 423.131 490.681C423.131 485.888 419.248 482.002 414.458 482.002C409.668 482.002 405.785 485.888 405.785 490.681C405.785 495.474 409.668 499.359 414.458 499.359Z" fill="#A76DAB"/>
<path d="M301.236 503.267L283.535 474.545L277.299 478.393L295 507.115L301.236 503.267Z" fill="#FBD59E"/>
<path d="M297.109 508.309L286.59 491.241L280.354 495.089L290.873 512.157L297.109 508.309Z" fill="#FBD59E"/>
<path d="M293.188 510.723L317.656 495.625L312.957 488L288.489 503.098L293.188 510.723Z" fill="#FBD59E"/>
<path d="M315.178 495.256L317.047 487.372L308.336 485.305L306.468 493.189L315.178 495.256Z" fill="#FBD59E"/>
<path d="M317.069 487.343L313.75 481.957L308.367 485.278L311.686 490.664L317.069 487.343Z" fill="#FBD59E"/>
<path d="M297.885 503.057C300.869 503.057 303.289 500.636 303.289 497.65C303.289 494.663 300.869 492.242 297.885 492.242C294.9 492.242 292.48 494.663 292.48 497.65C292.48 500.636 294.9 503.057 297.885 503.057Z" fill="#FBD59E"/>
<path d="M366.361 416.42L372.305 412.078L360.682 396.148L354.739 400.489L366.361 416.42Z" fill="#62908D"/>
<path d="M345.381 401.727L348.664 406.227L357.036 400.112L353.752 395.611L345.381 401.727Z" fill="#62908D"/>
<path d="M357.268 408.059L359.234 410.754L365.351 406.286L363.384 403.591L357.268 408.059Z" fill="#62908D"/>
<path d="M352.235 417.789L354.375 420.723L358.727 417.544L356.586 414.61L352.235 417.789Z" fill="#62908D"/>
<path d="M371.214 404.257L373.316 407.166L372.314 412.064L362.918 418.935L358.828 413.314L371.214 404.257Z" fill="#62908D"/>
<path d="M376.744 429.148L370.148 420.108L362.069 426.01L368.664 435.05L376.744 429.148Z" fill="#62908D"/>
<path d="M372.529 429.573L365.934 420.533L361.847 423.518L368.443 432.558L372.529 429.573Z" fill="#62908D"/>
<path d="M379.244 432.556L372.648 423.515L368.124 426.82L374.72 435.86L379.244 432.556Z" fill="#62908D"/>
<path d="M379.95 433.534L378.129 431.038L371.986 435.526L373.807 438.021L379.95 433.534Z" fill="#62908D"/>
<path d="M367.492 429.117L364.121 424.497L360.42 427.201L363.79 431.821L367.492 429.117Z" fill="#62908D"/>
<path d="M389.661 422.841L381.156 423.934L382.291 432.77L390.795 431.677L389.661 422.841Z" fill="#62908D"/>
<path d="M399.591 419.735L393.742 420.487L394.778 428.557L400.627 427.805L399.591 419.735Z" fill="#62908D"/>
<path d="M402.703 416.752L398.613 417.277L399.649 425.347L403.739 424.821L402.703 416.752Z" fill="#62908D"/>
<path d="M405.618 404.723L400.633 405.364L402.477 419.727L407.462 419.086L405.618 404.723Z" fill="#62908D"/>
<path d="M399.652 414.334L395.562 414.86L396.088 418.952L400.177 418.426L399.652 414.334Z" fill="#62908D"/>
<path d="M403.488 408.207L399.398 408.733L399.924 412.825L404.013 412.299L403.488 408.207Z" fill="#62908D"/>
<path d="M406.645 401.14L403.109 401.595L403.635 405.687L407.17 405.232L406.645 401.14Z" fill="#62908D"/>
<path d="M410.616 408.251L403.076 409.204L402.551 405.112L410.09 404.142L410.616 408.251Z" fill="#62908D"/>
<path d="M393.344 436.532L391.348 420.979L387.845 421.43L389.841 436.982L393.344 436.532Z" fill="#62908D"/>
<path d="M410.618 408.251L407.464 419.116L404.031 416.486L403.309 407.347L409.222 406.608L410.618 408.251Z" fill="#62908D"/>
<path d="M353.766 395.611L360.682 396.137L360.797 400.624L353.438 399.951L353.733 395.841" fill="#62908D"/>
<path d="M349.678 402.955L345.398 401.727L343.212 409.358L347.491 410.586L349.678 402.955Z" fill="#62908D"/>
<path d="M345.217 406.512L340.938 405.284L337.628 416.834L341.907 418.062L345.217 406.512Z" fill="#62908D"/>
<path d="M356.229 422.175L357.293 418.462L343.666 414.552L342.602 418.265L356.229 422.175Z" fill="#62908D"/>
<path d="M354.893 419.525L355.957 415.812L348.015 413.533L346.951 417.246L354.893 419.525Z" fill="#62908D"/>
<path d="M356.461 424.048L357.715 419.672L351.462 417.878L350.208 422.254L356.461 424.048Z" fill="#62908D"/>
<path d="M356.451 424.042L359.852 421.017L356.119 416.816L352.718 419.841L356.451 424.042Z" fill="#62908D"/>
<path d="M666.481 221.9L660.363 213.815L638.872 230.096L644.99 238.182L666.481 221.9Z" fill="#B2D4DD"/>
<path d="M676.395 378.479L670.773 372.242L652.599 388.645L658.221 394.882L676.395 378.479Z" fill="#B2D4DD"/>
<path d="M662.138 374.775L659.938 363.264L624.266 370.093L626.466 381.603L662.138 374.775Z" fill="#B2D4DD"/>
<path d="M652.621 361.981L649.211 344.142L643.516 345.232L646.926 363.071L652.621 361.981Z" fill="#B2D4DD"/>
<path d="M663.294 359.942L660.43 344.961L649.539 347.046L652.404 362.027L663.294 359.942Z" fill="#B2D4DD"/>
<path d="M648.783 341.843L646.895 331.963L607.205 339.561L609.094 349.441L648.783 341.843Z" fill="#B2D4DD"/>
<path d="M645.416 324.309L643.719 315.43L612.58 321.39L614.278 330.269L645.416 324.309Z" fill="#B2D4DD"/>
<path d="M639.735 327.404L637.297 314.65L618.275 318.292L620.713 331.045L639.735 327.404Z" fill="#B2D4DD"/>
<path d="M636.843 396.509L634.312 383.271L596.93 390.427L599.461 403.665L636.843 396.509Z" fill="#B2D4DD"/>
<path d="M623.693 381.634L621.672 371.06L599.891 375.229L601.913 385.803L623.693 381.634Z" fill="#B2D4DD"/>
<path d="M609.401 416.622L607.207 405.144L569.825 412.3L572.019 423.778L609.401 416.622Z" fill="#B2D4DD"/>
<path d="M610.959 440.267L608.953 429.774L574.427 436.383L576.433 446.876L610.959 440.267Z" fill="white"/>
<path d="M613.58 439.79L610.176 421.984L599.205 424.084L602.609 441.89L613.58 439.79Z" fill="white"/>
<path d="M627.413 433.767L621.469 402.674L610.304 404.811L616.249 435.904L627.413 433.767Z" fill="#B2D4DD"/>
<path d="M610.321 370.645L604.426 339.81L590.631 342.451L596.526 373.285L610.321 370.645Z" fill="#B2D4DD"/>
<path d="M677.302 459.758L653.121 435.35L643.73 444.665L667.911 469.073L677.302 459.758Z" fill="#B2D4DD"/>
<path d="M658.46 440.731L653.141 435.361L612.322 475.85L617.642 481.22L658.46 440.731Z" fill="#B2D4DD"/>
<path d="M661.597 475.363L640.781 454.352L631.39 463.667L652.206 484.679L661.597 475.363Z" fill="#B2D4DD"/>
<path d="M641.985 487.015L625.055 469.926L615.664 479.241L632.594 496.33L641.985 487.015Z" fill="#B2D4DD"/>
<path d="M617.374 486.029L611.559 487.246L607.075 485.076L587.626 488.889L585.359 477.367L614.549 471.631L617.374 486.029Z" fill="#B2D4DD"/>
<path d="M629.024 486.785L625.673 487.525L622.831 485.027L611.563 487.246L609.312 475.723L626.199 472.403L629.024 486.785Z" fill="#B2D4DD"/>
<path d="M622.116 470.107L608.125 472.856L608.9 476.807L622.891 474.058L622.116 470.107Z" fill="#B2D4DD"/>
<path d="M625.82 415.089C628.514 415.089 630.699 412.903 630.699 410.207C630.699 407.511 628.514 405.326 625.82 405.326C623.126 405.326 620.941 407.511 620.941 410.207C620.941 412.903 623.126 415.089 625.82 415.089Z" fill="#B2D4DD"/>
<path d="M674.801 364.7L667.676 363.587L665.351 378.495L672.476 379.608L674.801 364.7Z" fill="#B2D4DD"/>
<path d="M736.489 392.023L724.387 379.82L712.191 391.93L724.293 404.134L736.489 392.023Z" fill="#8384BF"/>
<path d="M725.136 411.517L698.258 384.415L673.399 409.099L700.278 436.201L725.136 411.517Z" fill="#8384BF"/>
<path d="M708.248 422.438L687.352 401.368L671.704 416.905L692.601 437.976L708.248 422.438Z" fill="#8384BF"/>
<path d="M688.382 441.423L667.855 420.726L657.094 431.412L677.62 452.109L688.382 441.423Z" fill="#8384BF"/>
<path d="M689.536 125.641L685.348 84.8615" stroke="#DCDDDD" stroke-width="0.5" stroke-miterlimit="10"/>
<path d="M758.691 118.425L830.491 260.782" stroke="#DCDDDD" stroke-width="0.5" stroke-miterlimit="10"/>
<path d="M939.906 66.5347L965.63 101.742L1060.57 116.403" stroke="#DCDDDD" stroke-width="0.5" stroke-miterlimit="10"/>
<path d="M-190.918 348.028L445.835 210.766L536.985 276.216L580.187 285.388L617.376 277.548L673.899 233.103L687.96 251.578L787.34 175.246L817.877 167.422L811.175 112.952" stroke="#DCDDDD" stroke-width="0.5" stroke-miterlimit="10"/>
<path d="M715.277 230.588L777.829 290.91" stroke="#DCDDDD" stroke-width="0.5" stroke-miterlimit="10"/>
<path d="M587.578 136.292L583.225 164.447L569.033 171.877L562.117 220.282" stroke="#DCDDDD" stroke-width="0.5" stroke-miterlimit="10"/>
<path d="M314.292 676.907L526.439 467.686L617.047 454.438L777.829 290.911L948.91 193.014L1107.42 84.2533L1045.38 -5.42468L882.859 105.457L391.414 156.772L401.483 309.139L228.086 363.149L223.52 455.802L368.778 623.718" stroke="#DCDDDD" stroke-width="0.5" stroke-miterlimit="10"/>
<path d="M160.953 603.995L343.04 648.554" stroke="#DCDDDD" stroke-width="0.5" stroke-miterlimit="10"/>
<path d="M339 589.284L400.911 591.749" stroke="#DCDDDD" stroke-width="0.5" stroke-miterlimit="10"/>
<path d="M45.1445 942.325L526.438 467.686L617.046 454.438L777.828 290.91L948.909 193.014L1107.42 84.2532L1045.38 -5.4248L882.858 105.456L391.413 156.771L401.483 309.139L228.085 363.149L223.519 455.802L368.778 623.718" stroke="#DCDDDD" stroke-width="0.5" stroke-miterlimit="10"/>
<path d="M160.949 603.995L343.036 648.554" stroke="#DCDDDD" stroke-width="0.5" stroke-miterlimit="10"/>
<path d="M338.996 589.284L400.907 591.749" stroke="#DCDDDD" stroke-width="0.5" stroke-miterlimit="10"/>
<path d="M382.857 448.488C385.306 448.488 387.292 446.501 387.292 444.05C387.292 441.599 385.306 439.612 382.857 439.612C380.408 439.612 378.422 441.599 378.422 444.05C378.422 446.501 380.408 448.488 382.857 448.488Z" stroke="#DCDDDD" stroke-width="0.5" stroke-miterlimit="10"/>
<path d="M310.203 556L363.983 463.643L330.835 418.015L336.157 385.536L380.048 397.978L495.592 389.908L515.172 368.573L506.219 320.989L515.172 289.119L484.964 268.294L496.676 247.271" stroke="#DCDDDD" stroke-width="0.5" stroke-miterlimit="10"/>
<path d="M228.086 363.149L111.262 401.578" stroke="#DCDDDD" stroke-width="0.5" stroke-miterlimit="10"/>
<path d="M378.422 444.05L349.266 443.393" stroke="#DCDDDD" stroke-width="0.5" stroke-miterlimit="10"/>
<path d="M225.887 407.988L281.539 403.32" stroke="#DCDDDD" stroke-width="0.5" stroke-miterlimit="10"/>
<path d="M463.298 392.16L444.785 485.7L471.56 521.746" stroke="#DCDDDD" stroke-width="0.5" stroke-miterlimit="10"/>
<path d="M580.147 398.795L575.73 375.694L562.565 378.214L566.982 401.316L580.147 398.795Z" fill="#FEDF73"/>
<path d="M589.026 383.4L584.609 360.298L571.444 362.818L575.861 385.92L589.026 383.4Z" fill="#FEDF73"/>
<path d="M586.015 370.358L584.102 360.348L577.519 361.608L579.433 371.618L586.015 370.358Z" fill="#FEDF73"/>
<path d="M590.939 316.553L515.145 300.695L511.177 319.679L586.972 335.537L590.939 316.553Z" fill="#FEDF73"/>
<path d="M574.849 336.249L521.789 325.148L518.212 342.266L571.272 353.368L574.849 336.249Z" fill="#FEDF73"/>
<path d="M569.168 345.038L523.473 335.477L520.02 352L565.716 361.561L569.168 345.038Z" fill="#FEDF73"/>
<path d="M557.018 377.125L520.809 369.549L518.059 382.71L554.268 390.285L557.018 377.125Z" fill="#FEDF73"/>
<path d="M492.048 397.346L475.391 393.861L471.05 414.632L487.708 418.117L492.048 397.346Z" fill="#FEDF73"/>
<path d="M485.912 463.309L460.781 458.051L454.858 486.399L479.989 491.657L485.912 463.309Z" fill="#FEDF73"/>
<path d="M484.975 467.819L466.758 464.007L460.955 491.776L479.172 495.588L484.975 467.819Z" fill="#FEDF73"/>
<path d="M469.196 459.803L454.758 456.782L451.971 470.12L466.409 473.141L469.196 459.803Z" fill="#FEDF73"/>
<path d="M490.438 405.097L479.488 402.806L475.148 423.577L486.098 425.868L490.438 405.097Z" fill="#FEDF73"/>
<path d="M465.674 434.838L458.746 439.373L469.141 455.274L476.069 450.739L465.674 434.838Z" fill="#FEDF73"/>
<path d="M492.04 452.564L464.953 446.894L470.62 419.79L486.652 423.143L495.588 435.076L492.04 452.564Z" fill="#FEDF73"/>
<path d="M244.629 546.783L249.922 538.23L232.186 527.24L226.893 535.792L244.629 546.783Z" fill="#FEDF73"/>
<path d="M216.198 580.879L236.488 548.096L209.033 531.083L188.743 563.865L216.198 580.879Z" fill="#FEDF73"/>
<path d="M190.28 569.628L214.574 530.376L210.887 528.091L186.593 567.344L190.28 569.628Z" fill="#FEDF73"/>
<path d="M215.875 585.505L239.711 546.993L236.345 544.907L212.51 583.419L215.875 585.505Z" fill="#FEDF73"/>
<path d="M226.712 575.514L241.691 551.311L214.236 534.297L199.256 558.5L226.712 575.514Z" fill="#FEDF73"/>
<path d="M216.658 581.165L230.992 577.896L229.419 570.989L215.085 574.258L216.658 581.165Z" fill="#FEDF73"/>
<path d="M226.024 545.358L235.512 530.029L231.867 527.77L222.379 543.1L226.024 545.358Z" fill="#FEDF73"/>
<path d="M240.208 554.009L249.695 538.679L246.05 536.421L236.563 551.75L240.208 554.009Z" fill="#FEDF73"/>
<path d="M339.542 475.387L322.246 447.322L314.836 451.894L332.131 479.959L339.542 475.387Z" fill="#FEDF73"/>
<path d="M354.651 466.091L340.562 443.23L323.239 453.919L337.327 476.78L354.651 466.091Z" fill="#FEDF73"/>
<path d="M353.714 469.793L336.867 442.456L330.282 446.519L347.129 473.857L353.714 469.793Z" fill="#FEDF73"/>
<path d="M350.885 474.074L344.289 463.372L341.66 464.993L348.256 475.696L350.885 474.074Z" fill="#FEDF73"/>
<path d="M215.018 590.94L184.359 586.153L181.918 601.808L212.576 606.596L215.018 590.94Z" fill="#FEDF73"/>
<path d="M208.035 586.764L201.121 585.685L198.679 601.34L205.593 602.42L208.035 586.764Z" fill="#FEDF73"/>
<path d="M321.086 593.522L306.164 587.61L293.732 619.031L308.653 624.942L321.086 593.522Z" fill="#FEDF73"/>
<path d="M768.604 329.16L758.559 319.888L749.292 329.94L759.338 339.212L768.604 329.16Z" fill="white"/>
<path d="M517.767 212.508C526.449 212.508 533.487 205.465 533.487 196.778C533.487 188.091 526.449 181.048 517.767 181.048C509.085 181.048 502.047 188.091 502.047 196.778C502.047 205.465 509.085 212.508 517.767 212.508Z" fill="#FEDF73"/>
<path d="M504.625 212.524C506.843 213.675 509.307 214.497 511.951 214.908C523.942 216.781 535.047 209.451 536.755 198.537C538.463 187.623 530.119 177.251 518.111 175.378C516.748 175.164 515.384 175.065 514.054 175.082C514.054 175.082 533.864 177.81 531.663 198.816C531.663 198.816 525.766 216.699 505.594 210.618L504.625 212.508V212.524Z" fill="#FEDF73"/>
<path d="M386.203 193.549L377.16 204.791L380.654 207.605L389.697 196.362L386.203 193.549Z" fill="#FEDF73"/>
<path d="M365.462 185.372L360.086 192.056L363.579 194.869L368.956 188.186L365.462 185.372Z" fill="#FEDF73"/>
<path d="M369.084 200.961L366.602 204.047L370.095 206.86L372.577 203.774L369.084 200.961Z" fill="#FEDF73"/>
<path d="M369.929 197.187L364.141 204.383L366.546 206.321L372.335 199.125L369.929 197.187Z" fill="#FEDF73"/>
<path d="M372.358 201.347L366.766 208.3L369.171 210.237L374.764 203.284L372.358 201.347Z" fill="#FEDF73"/>
<path d="M375.893 204.18L368.906 198.553L366.97 200.961L373.957 206.588L375.893 204.18Z" fill="#FEDF73"/>
<path d="M372.022 206.815L364.805 201.002L362.868 203.409L370.086 209.222L372.022 206.815Z" fill="#FEDF73"/>
<path d="M353.574 199.251L351.105 202.156L354.397 204.956L356.865 202.051L353.574 199.251Z" fill="#FEDF73"/>
<path d="M358.032 198.623L352.266 205.41L354.543 207.348L360.31 200.561L358.032 198.623Z" fill="#FEDF73"/>
<path d="M353.65 197.083L348.086 203.632L350.364 205.57L355.928 199.02L353.65 197.083Z" fill="#FEDF73"/>
<path d="M351.715 199.334L357.297 204.082L359.233 201.803L353.652 197.054L351.715 199.334Z" fill="#FEDF73"/>
<path d="M348.907 202.659L355.715 208.45L357.651 206.171L350.843 200.379L348.907 202.659Z" fill="#FEDF73"/>
<path d="M358.916 213.788L356.434 216.874L359.927 219.688L362.409 216.602L358.916 213.788Z" fill="#FEDF73"/>
<path d="M359.773 210.002L353.984 217.198L356.39 219.136L362.178 211.94L359.773 210.002Z" fill="#FEDF73"/>
<path d="M362.186 214.162L356.594 221.114L358.999 223.052L364.592 216.099L362.186 214.162Z" fill="#FEDF73"/>
<path d="M365.725 216.967L358.738 211.34L356.802 213.748L363.789 219.375L365.725 216.967Z" fill="#FEDF73"/>
<path d="M361.842 219.614L354.625 213.802L352.689 216.209L359.906 222.021L361.842 219.614Z" fill="#FEDF73"/>
<path d="M339.625 213.199L341.645 216.871L345.804 214.581L343.785 210.909L339.625 213.199Z" fill="#FEDF73"/>
<path d="M340.718 208.379L345.43 216.948L348.308 215.363L343.597 206.795L340.718 208.379Z" fill="#FEDF73"/>
<path d="M337.439 212.266L341.992 220.547L344.871 218.962L340.317 210.681L337.439 212.266Z" fill="#FEDF73"/>
<path d="M337.728 215.862L346.047 211.282L344.463 208.402L336.145 212.982L337.728 215.862Z" fill="#FEDF73"/>
<path d="M341.307 219.327L349.898 214.596L348.315 211.716L339.723 216.447L341.307 219.327Z" fill="#FEDF73"/>
<path d="M350.073 181.676L342.523 191.061L346.017 193.875L353.566 184.489L350.073 181.676Z" fill="#FEDF73"/>
<path d="M338.925 197.509L317.625 209.236L320.547 214.55L341.847 202.823L338.925 197.509Z" fill="#FEDF73"/>
<path d="M299.711 203.597L285.219 211.575L287.024 214.859L301.517 206.88L299.711 203.597Z" fill="#FEDF73"/>
<path d="M280.66 206.722L271.809 211.595L274.113 215.785L282.964 210.912L280.66 206.722Z" fill="#FEDF73"/>
<path d="M259.786 227.357L253.367 230.891L255.283 234.376L261.702 230.842L259.786 227.357Z" fill="#FEDF73"/>
<path d="M268.421 224.799L260.117 229.371L262.604 233.892L270.908 229.321L268.421 224.799Z" fill="#FEDF73"/>
<path d="M261.429 229.895L259.371 231.028L261.335 234.6L263.393 233.467L261.429 229.895Z" fill="#FEDF73"/>
<path d="M284.158 202.283L277.438 205.983L279.726 210.145L286.447 206.444L284.158 202.283Z" fill="#FEDF73"/>
<path d="M288.396 192.452L280.164 196.984L282.555 201.333L290.788 196.801L288.396 192.452Z" fill="#FEDF73"/>
<path d="M289.252 189.917L286.676 191.335L288.75 195.108L291.327 193.69L289.252 189.917Z" fill="#FEDF73"/>
<path d="M294.682 190.469L287.961 194.169L289.727 197.381L296.448 193.68L294.682 190.469Z" fill="#FEDF73"/>
<path d="M296.986 199.704L288.984 204.109L292.754 210.964L300.755 206.559L296.986 199.704Z" fill="#FEDF73"/>
<path d="M296.552 197.663L293.242 199.485L299.339 210.574L302.65 208.751L296.552 197.663Z" fill="#FEDF73"/>
<path d="M300.489 195.499L297.266 197.274L300.734 203.581L303.958 201.806L300.489 195.499Z" fill="#FEDF73"/>
<path d="M304.806 194.756L301.582 196.531L305.05 202.838L308.274 201.063L304.806 194.756Z" fill="#FEDF73"/>
<path d="M308.833 192.545L305.609 194.32L309.078 200.627L312.301 198.852L308.833 192.545Z" fill="#FEDF73"/>
<path d="M300.246 215.127L281.781 225.292L286.129 233.198L304.593 223.033L300.246 215.127Z" fill="#FEDF73"/>
<path d="M301.626 217.636L283.146 227.81L281.586 224.967L298.489 211.933L301.626 217.636Z" fill="#FEDF73"/>
<path d="M291.836 208.941L300.197 204.323L302.644 208.76L294.973 214.645L291.836 208.941Z" fill="#FEDF73"/>
<path d="M330.625 216.798L325.082 206.717L318.304 210.449L323.846 220.53L330.625 216.798Z" fill="#FEDF73"/>
<path d="M286.344 224.268L280.801 214.187L276.857 216.358L282.4 226.439L286.344 224.268Z" fill="#FEDF73"/>
<path d="M259.681 223.649L255.207 215.513L251.292 217.668L255.766 225.804L259.681 223.649Z" fill="#FEDF73"/>
<path d="M270.188 211.562L267.82 207.256L263.517 209.625L265.885 213.931L270.188 211.562Z" fill="#FEDF73"/>
<path d="M267.86 219.612L265.492 215.306L261.189 217.676L263.557 221.981L267.86 219.612Z" fill="#FEDF73"/>
<path d="M267.857 219.615L270.191 211.564L263.518 209.627L261.184 217.677L267.857 219.615Z" fill="#FEDF73"/>
<path d="M262.223 213.695L259.84 209.36L255.882 211.539L258.266 215.874L262.223 213.695Z" fill="#FEDF73"/>
<path d="M266.159 214.767L263.934 210.72L259.472 213.176L261.697 217.223L266.159 214.767Z" fill="#FEDF73"/>
<path d="M273.579 201.678L268.82 193.024L265.064 195.092L269.823 203.746L273.579 201.678Z" fill="#FEDF73"/>
<path d="M270.698 193.354L267.023 186.672L263.613 188.55L267.287 195.232L270.698 193.354Z" fill="#FEDF73"/>
<path d="M278.8 196.689L274.445 188.768L271.38 190.456L275.735 198.376L278.8 196.689Z" fill="#FEDF73"/>
<path d="M389.743 196.38L378.508 187.331L375.696 190.827L386.931 199.876L389.743 196.38Z" fill="#FEDF73"/>
<path d="M366.389 191.482L351.75 179.692L348.938 183.187L363.577 194.977L366.389 191.482Z" fill="#FEDF73"/>
<path d="M376.234 177.907L369.656 172.609L365.176 178.179L371.753 183.477L376.234 177.907Z" fill="#FEDF73"/>
<path d="M375.06 181.954L371.426 179.027L368.501 182.664L372.135 185.591L375.06 181.954Z" fill="#FEDF73"/>
<path d="M360.479 176.254L353.914 170.967L351.864 173.515L358.429 178.802L360.479 176.254Z" fill="#FEDF73"/>
<path d="M369.354 174.658L358.152 175.534L358.407 178.795L369.609 177.919L369.354 174.658Z" fill="#FEDF73"/>
<path d="M379.217 175.135L368.016 176.012L368.27 179.273L379.472 178.396L379.217 175.135Z" fill="#FEDF73"/>
<path d="M300.005 197.052L295.414 199.58L297.592 203.54L302.183 201.013L300.005 197.052Z" fill="#FEDF73"/>
<path d="M308.814 194.086L304.223 196.614L306.4 200.574L310.991 198.047L308.814 194.086Z" fill="#FEDF73"/>
<path d="M304.607 196.765L300.016 199.293L301.061 201.194L305.652 198.666L304.607 196.765Z" fill="#FEDF73"/>
<path d="M264.637 195.989C265.39 195.989 266 195.378 266 194.625C266 193.872 265.39 193.261 264.637 193.261C263.884 193.261 263.273 193.872 263.273 194.625C263.273 195.378 263.884 195.989 264.637 195.989Z" fill="#FEDF73"/>
<path d="M152.969 229.122L152.496 224.792L144.266 225.693L144.739 230.022L152.969 229.122Z" fill="#FEDF73"/>
<path d="M159.848 229.906L159.375 225.577L151.145 226.477L151.618 230.807L159.848 229.906Z" fill="#FEDF73"/>
<path d="M153.825 238.835L153.352 234.505L145.122 235.405L145.595 239.735L153.825 238.835Z" fill="#FEDF73"/>
<path d="M160.708 239.619L160.234 235.289L152.005 236.19L152.478 240.52L160.708 239.619Z" fill="#FEDF73"/>
<path d="M126.746 226.06L130.359 223.631L125.743 216.754L122.13 219.183L126.746 226.06Z" fill="#FEDF73"/>
<path d="M129.269 232.554L132.883 230.125L128.266 223.248L124.653 225.677L129.269 232.554Z" fill="#FEDF73"/>
<path d="M152.794 253.882L157.121 253.409L156.221 245.174L151.894 245.647L152.794 253.882Z" fill="#FEDF73"/>
<path d="M152.005 260.792L156.332 260.318L155.432 252.083L151.105 252.557L152.005 260.792Z" fill="#FEDF73"/>
<path d="M148.516 255.679L150.688 255.441L150.238 251.324L148.066 251.561L148.516 255.679Z" fill="#FEDF73"/>
<path d="M141.782 254.993L146.109 254.52L145.21 246.285L140.882 246.758L141.782 254.993Z" fill="#FEDF73"/>
<path d="M140.993 261.886L145.32 261.413L144.42 253.178L140.093 253.651L140.993 261.886Z" fill="#FEDF73"/>
<g clip-path="url(#clip0_957_1002)">
<path d="M382.108 286.166L382.165 273.978H381.291C381.044 275.497 380.19 276.221 378.386 276.293V276.998H381.025L380.987 286.13H382.127L382.108 286.166ZM381.443 290C375.652 289.964 370.981 285.479 371 279.946C371.019 274.43 375.728 269.982 381.538 270C387.348 270.018 392.019 274.503 391.981 280.036C391.962 285.57 387.253 290.018 381.443 289.982" fill="#E1B5B5"/>
</g>
<g clip-path="url(#clip1_957_1002)">
<path d="M395.468 537.932V536.868H388.747C388.956 535.558 390.494 534.285 392.392 532.956C393.987 531.854 395.392 530.601 395.392 528.512C395.392 526.233 393.816 524.941 391.595 524.941C388.994 524.941 387.608 526.821 387.646 529.423H388.747C388.747 527.543 389.601 525.872 391.519 525.872C393.228 525.872 394.272 526.859 394.272 528.474C394.272 530.012 393.399 530.962 391.88 532.006C389.316 533.792 387.646 535.045 387.342 537.894H395.449L395.468 537.932ZM391.5 542.547C385.69 542.547 381 537.856 381 532.044C381 526.233 385.69 521.542 391.5 521.542C397.31 521.542 402 526.233 402 532.044C402 537.856 397.31 542.547 391.5 542.547Z" fill="#9E69A4"/>
</g>
<g clip-path="url(#clip2_957_1002)">
<path d="M601.718 510.458C602.821 510.114 603.689 509.137 603.689 507.781C603.689 505.828 602.315 504.635 600.09 504.635C597.866 504.635 596.329 506.298 596.365 508.595H597.396C597.45 506.859 598.427 505.539 600.09 505.539C601.754 505.539 602.604 506.479 602.604 507.781C602.604 509.21 601.41 510.042 600.253 510.042H599.331V511.018H600.253C601.808 511.018 603.038 511.922 603.038 513.55C603.038 515.286 601.754 516.244 600.054 516.244C598.354 516.244 597.107 515.087 597.125 513.08H596.076C596.022 515.756 597.74 517.166 600.072 517.166C602.206 517.166 604.105 515.991 604.105 513.55C604.105 511.796 603.219 510.765 601.682 510.458M600 521C594.467 521 590 516.533 590 511C590 505.467 594.467 501 600 501C605.533 501 610 505.467 610 511C610 516.533 605.533 521 600 521Z" fill="#AECFD8"/>
</g>
<g clip-path="url(#clip3_957_1002)">
<path d="M315.778 533.475H311.456L315.778 526.696V533.475ZM318.472 534.519V533.475H316.808V524.816H315.778L310.335 533.475V534.519H315.778V537.614H316.808V534.519H318.472ZM315 542C309.467 542 305 537.31 305 531.5C305 525.69 309.467 521 315 521C320.533 521 325 525.69 325 531.5C325 537.31 320.533 542 315 542Z" fill="#FBD59E"/>
</g>
<g clip-path="url(#clip4_957_1002)">
<path d="M857.614 169.354C856.589 169.354 855.544 169.829 855.013 170.532L855.772 166.184H861.127V165.139H854.918L853.759 171.842H854.766C855.316 170.778 856.323 170.304 857.481 170.304C859.361 170.304 860.595 171.728 860.595 173.684C860.595 175.639 859.418 177.177 857.5 177.177C855.867 177.177 854.576 176.076 854.519 174.234H853.418C853.475 176.646 855.165 178.146 857.5 178.146C859.835 178.146 861.715 176.304 861.715 173.816C861.715 171.101 860.177 169.373 857.614 169.373M857.5 182C851.69 182 847 177.31 847 171.5C847 165.69 851.69 161 857.5 161C863.31 161 868 165.69 868 171.5C868 177.31 863.31 182 857.5 182Z" fill="#CAD0A9"/>
</g>
<g clip-path="url(#clip5_957_1002)">
<path d="M788.538 377.158C786.658 377.158 785.595 375.582 785.595 373.816C785.595 371.804 786.772 370.513 788.538 370.513C790.304 370.513 791.481 371.766 791.481 373.797C791.481 375.544 790.399 377.177 788.538 377.177M788.538 369.563C787.019 369.563 785.804 370.494 785.348 371.69C785.348 368.443 786.43 365.918 788.614 365.918C790.152 365.918 791.101 366.943 791.253 368.272H792.335C792.108 366.335 790.949 364.968 788.595 364.968C786.051 364.968 784.209 367.494 784.209 371.386C784.209 376.361 785.785 378.127 788.538 378.127C791.006 378.127 792.582 376.361 792.582 373.797C792.582 371.234 790.968 369.582 788.538 369.582M788.5 382C782.69 382 778 377.31 778 371.5C778 365.69 782.69 361 788.5 361C794.31 361 799 365.69 799 371.5C799 377.31 794.31 382 788.5 382Z" fill="#8282BE"/>
</g>
<g clip-path="url(#clip6_957_1002)">
<path d="M385.753 451.709H377.854V452.772H384.576C382.335 455.07 380 459.095 379.658 464.335H380.93C381.234 459.816 382.829 455.544 385.753 452.753V451.709ZM381.5 468C375.69 468 371 463.31 371 457.5C371 451.69 375.69 447 381.5 447C387.31 447 392 451.69 392 457.5C392 463.31 387.31 468 381.5 468Z" fill="#62908D"/>
</g>
<g clip-path="url(#clip7_957_1002)">
<path d="M478.5 218.57C477.114 218.57 475.899 217.734 475.899 216.234C475.899 214.962 476.886 213.956 478.5 213.956C480.114 213.956 481.101 214.962 481.101 216.234C481.101 217.734 479.886 218.57 478.5 218.57ZM478.5 225.272C476.753 225.272 475.386 224.228 475.386 222.386C475.386 220.544 476.81 219.614 478.5 219.614C480.19 219.614 481.614 220.544 481.614 222.386C481.614 224.228 480.247 225.272 478.5 225.272ZM480.247 219.044C481.386 218.627 482.222 217.62 482.222 216.253C482.222 214.449 480.835 213.025 478.481 213.025C476.127 213.025 474.741 214.43 474.741 216.253C474.741 217.62 475.614 218.703 476.734 219.044C475.272 219.405 474.228 220.791 474.228 222.386C474.228 224.854 476.032 226.222 478.481 226.222C480.93 226.222 482.734 224.854 482.734 222.386C482.734 220.791 481.69 219.405 480.228 219.044M478.5 230C472.69 230 468 225.31 468 219.5C468 213.69 472.69 209 478.5 209C484.31 209 489 213.69 489 219.5C489 225.31 484.31 230 478.5 230Z" fill="#9A7E9C"/>
</g>
<g clip-path="url(#clip8_957_1002)">
<path d="M294.538 400.031C292.791 400.031 291.633 398.729 291.633 396.83C291.633 395.112 292.696 393.629 294.538 393.629C296.38 393.629 297.519 395.112 297.519 396.794C297.519 398.693 296.323 400.049 294.538 400.049M294.538 392.707C292.108 392.707 290.532 394.407 290.532 396.83C290.532 399.38 292.108 400.935 294.538 400.935C296.171 400.935 297.367 399.976 297.766 398.819C297.766 402.165 296.816 404.316 294.576 404.316C293.076 404.316 292.013 403.376 291.88 402.128H290.778C290.987 404.009 292.335 405.239 294.576 405.239C297.405 405.239 298.924 402.888 298.924 398.982C298.924 394.353 297.31 392.707 294.557 392.707M294.5 409C288.69 409 284 404.533 284 399C284 393.467 288.69 389 294.5 389C300.31 389 305 393.467 305 399C305 404.533 300.31 409 294.5 409Z" fill="#C1BB46"/>
</g>
<g clip-path="url(#clip9_957_1002)">
<path d="M160.158 483.244C158.335 483.244 157.614 480.875 157.614 477.982C157.614 475.089 158.335 472.756 160.158 472.756C161.981 472.756 162.722 475.107 162.722 477.982C162.722 480.857 161.981 483.244 160.158 483.244ZM160.158 471.87C157.595 471.87 156.513 474.275 156.513 478C156.513 481.725 157.595 484.13 160.158 484.13C162.722 484.13 163.804 481.707 163.804 477.982C163.804 474.257 162.722 471.87 160.158 471.87ZM154.88 484.004V472.069H154.006C153.778 473.57 153.019 474.275 151.215 474.365V475.052H153.759V484.004H154.899H154.88ZM157.5 488C151.69 488 147 483.533 147 478C147 472.467 151.69 468 157.5 468C163.31 468 168 472.467 168 478C168 483.533 163.31 488 157.5 488Z" fill="#7F738D"/>
</g>
<g clip-path="url(#clip10_957_1002)">
<path d="M587.87 201.842V189.291H587.038C586.821 190.848 586.007 191.589 584.271 191.684V192.424H586.785V201.842H587.87ZM581.957 201.842V189.291H581.125C580.908 190.848 580.094 191.589 578.358 191.684V192.424H580.872V201.842H581.957ZM584 206C578.467 206 574 201.31 574 195.5C574 189.69 578.467 185 584 185C589.533 185 594 189.69 594 195.5C594 201.31 589.533 206 584 206Z" fill="#B0D476"/>
</g>
<g clip-path="url(#clip11_957_1002)">
<path d="M331.31 325.949V324.955H325.291C325.481 323.743 326.829 322.568 328.538 321.32C329.981 320.289 331.291 319.132 331.291 317.179C331.291 315.045 329.848 313.834 327.835 313.834C325.481 313.834 324.228 315.606 324.266 318.047H325.31C325.31 316.275 326.032 314.756 327.759 314.756C329.297 314.756 330.209 315.642 330.209 317.179C330.209 318.608 329.468 319.476 328.101 320.452C325.804 322.134 324.266 323.291 323.981 325.986H331.291L331.31 325.949ZM322.272 326.04V314.105H321.456C321.247 315.588 320.449 316.293 318.835 316.383V317.089H321.209V326.058H322.272V326.04ZM325.5 330C319.69 330 315 325.533 315 320C315 314.467 319.69 310 325.5 310C331.31 310 336 314.467 336 320C336 325.533 331.31 330 325.5 330Z" fill="#B7DCBE"/>
</g>
<g clip-path="url(#clip12_957_1002)">
<path d="M594.508 239.602C595.503 239.259 596.298 238.3 596.298 236.98C596.298 235.063 595.033 233.87 593.043 233.87C591.054 233.87 589.644 235.515 589.68 237.776H590.656C590.711 236.076 591.579 234.81 593.08 234.81C594.58 234.81 595.34 235.696 595.34 236.98C595.34 238.354 594.255 239.15 593.224 239.15H592.41V240.145H593.224C594.635 240.145 595.702 241.013 595.702 242.622C595.702 244.304 594.58 245.244 593.043 245.244C591.506 245.244 590.421 244.123 590.439 242.152H589.445C589.391 244.792 590.964 246.166 593.061 246.166C594.996 246.166 596.714 244.991 596.714 242.604C596.714 240.904 595.901 239.873 594.526 239.584M587.89 246.094V234.159H587.094C586.895 235.66 586.28 236.365 584.725 236.456V237.143H586.877V246.094H587.89ZM591 250C585.467 250 581 245.533 581 240C581 234.467 585.467 230 591 230C596.533 230 601 234.467 601 240C601 245.533 596.533 250 591 250Z" fill="#CB5957"/>
</g>
<g clip-path="url(#clip13_957_1002)">
<path d="M504.013 327.646H499.968L504.013 321.019V327.646ZM506.557 328.709V327.646H505V319.177H503.994L498.848 327.646V328.709H503.994V331.709H505V328.709H506.557ZM497.519 331.747V319.196H496.684C496.475 320.772 495.829 321.513 494.196 321.608V322.329H496.456V331.728H497.519V331.747ZM500.5 336C494.69 336 490 331.31 490 325.5C490 319.69 494.69 315 500.5 315C506.31 315 511 319.69 511 325.5C511 331.31 506.31 336 500.5 336Z" fill="#9FD1CA"/>
</g>
<g clip-path="url(#clip14_957_1002)">
<mask id="mask1_957_1002" style="mask-type:luminance" maskUnits="userSpaceOnUse" x="310" y="625" width="41" height="45">
<path d="M351 625H310V670H351V625Z" fill="white"/>
</mask>
<g mask="url(#mask1_957_1002)">
<path d="M350.983 640.873C350.983 640.084 350.359 639.479 349.55 639.462H347.374V638.539H349.55C350.342 638.522 350.983 637.884 350.966 637.094V633.415C350.949 633.046 350.798 632.676 350.528 632.408C350.258 632.139 349.904 632.038 349.516 632.004H347.34V630.157C347.34 630.14 347.34 630.123 347.34 630.106V626.411C347.34 626.411 347.306 626.361 347.306 626.327C347.306 626.26 347.306 626.193 347.29 626.125C347.273 626.058 347.256 625.991 347.239 625.941C347.239 625.924 347.239 625.89 347.222 625.873C347.205 625.823 347.172 625.756 347.138 625.705C347.138 625.689 347.104 625.655 347.087 625.622C347.053 625.588 347.02 625.554 346.986 625.504C346.952 625.47 346.935 625.437 346.902 625.403C346.868 625.37 346.817 625.336 346.784 625.302C346.75 625.286 346.733 625.252 346.699 625.235C346.666 625.218 346.632 625.202 346.598 625.185C346.548 625.151 346.514 625.134 346.463 625.118C346.429 625.118 346.396 625.101 346.345 625.084C346.295 625.084 346.244 625.05 346.193 625.034C346.109 625.017 346.008 625 345.907 625L336.799 625.05C336.007 625.05 335.366 625.689 335.383 626.478V630.157C335.399 630.526 335.551 630.896 335.821 631.165C336.091 631.433 336.445 631.568 336.833 631.568H340.83L340.948 659.787L329.142 648.163C329.024 648.046 328.856 647.945 328.704 647.878C328.687 647.878 328.653 647.861 328.636 647.844C328.468 647.777 328.299 647.744 328.13 647.744C327.945 647.744 327.776 647.777 327.608 647.844C327.608 647.844 327.608 647.844 327.591 647.844C327.422 647.912 327.253 648.012 327.118 648.163L324.521 650.784L310.422 664.978C310.152 665.246 310 665.616 310 665.985C310 666.372 310.152 666.725 310.422 666.993L313.053 669.58C313.339 669.849 313.694 670 314.065 670C314.436 670 314.807 669.866 315.077 669.58L328.147 656.411L341.37 669.429C341.505 669.563 341.657 669.664 341.842 669.731C342.011 669.798 342.179 669.832 342.365 669.832H346.058C346.851 669.815 347.475 669.16 347.475 668.387L347.374 646.013H349.55C349.937 646.013 350.292 645.845 350.561 645.577C350.831 645.308 350.983 644.938 350.966 644.569V640.89L350.983 640.873Z" fill="#FEDF73"/>
</g>
</g>
<path d="M342.608 461.943C342.608 465.874 341.525 468.4 338.962 468.4C336.399 468.4 335.316 465.855 335.316 461.962C335.316 458.068 336.399 455.523 338.962 455.523C341.525 455.523 342.608 458.049 342.608 461.943ZM332.544 468.267V458.866H330V458.144C331.804 458.049 332.563 457.309 332.791 455.732H333.665V468.267H332.544ZM341.525 461.943C341.525 458.942 340.785 456.454 338.962 456.454C337.139 456.454 336.418 458.923 336.418 461.943C336.418 464.963 337.139 467.47 338.962 467.47C340.785 467.47 341.525 464.982 341.525 461.943Z" fill="#231815"/>
<path d="M220.392 558.14C220.392 562.242 218.873 564.711 216.044 564.711C213.804 564.711 212.456 563.439 212.247 561.444H213.348C213.481 562.774 214.544 563.742 216.025 563.742C218.266 563.742 219.215 561.482 219.215 557.969C218.835 559.184 217.639 560.191 216.006 560.191C213.576 560.191 212 558.577 212 555.88C212 553.335 213.576 551.549 216.006 551.549C218.759 551.549 220.373 553.278 220.373 558.14M218.987 555.842C218.987 554.075 217.905 552.518 216.006 552.518C214.108 552.518 213.101 554.075 213.101 555.899C213.101 557.912 214.259 559.279 216.006 559.279C217.753 559.279 218.987 557.874 218.987 555.861" fill="#231815"/>
<path d="M294 161.931C294 160.563 294.076 159.177 294.285 157.828C294.437 156.822 294.684 155.834 295.139 154.903C295.88 153.422 297.114 152.548 298.652 152.073C299.677 151.751 300.741 151.58 301.804 151.523C303.076 151.466 304.348 151.428 305.62 151.447C307.177 151.447 308.715 151.58 310.215 152.035C311.544 152.415 312.684 153.08 313.5 154.239C314.089 155.074 314.392 156.024 314.601 157.012C314.943 158.664 315 160.335 315 162.007C315 163.355 314.943 164.703 314.753 166.033C314.601 167.059 314.354 168.046 313.88 168.977C313.139 170.439 311.905 171.313 310.367 171.788C309.133 172.167 307.861 172.319 306.589 172.376C305.525 172.414 304.443 172.433 303.38 172.414C301.975 172.395 300.57 172.281 299.184 171.94C298.348 171.731 297.551 171.427 296.829 170.933C295.709 170.173 295.063 169.072 294.665 167.799C294.342 166.774 294.19 165.71 294.114 164.646C294.057 163.735 294.038 162.823 294 161.912" fill="#FEDF73"/>
<path d="M303.001 168.198C303.286 165.387 304.805 164.172 307.121 162.405C308.488 161.38 309.229 160.468 309.229 158.968C309.229 157.372 308.317 156.423 306.78 156.423C305.052 156.423 304.33 158.018 304.33 159.879H303.286C303.248 157.315 304.501 155.473 306.855 155.473C308.868 155.473 310.311 156.746 310.311 158.987C310.311 161.038 309.02 162.253 307.558 163.336C305.849 164.628 304.501 165.881 304.311 167.154H310.33V168.198H303.02H303.001ZM300.229 168.293V158.892H297.855V158.151C299.469 158.075 300.267 157.315 300.476 155.758H301.292V168.293H300.229Z" fill="#231815"/>
<path d="M202.829 602.114V592.693H200.19V591.953C201.994 591.858 202.848 591.117 203.095 589.56H203.968V602.095H202.829V602.114ZM196.639 602.114V592.693H194V591.953C195.804 591.858 196.658 591.117 196.905 589.56H197.778V602.095H196.639V602.114Z" fill="#231815"/>
<path d="M312.487 608.926C312.487 611.395 310.684 612.762 308.234 612.762C305.785 612.762 304 611.395 304 608.926C304 607.33 305.044 605.944 306.487 605.583C305.386 605.241 304.513 604.158 304.513 602.791C304.513 600.968 305.899 599.562 308.253 599.562C310.608 599.562 311.994 600.968 311.994 602.791C311.994 604.158 311.139 605.165 310.019 605.583C311.462 605.944 312.525 607.33 312.525 608.926M310.854 602.791C310.854 601.518 309.867 600.512 308.253 600.512C306.639 600.512 305.652 601.518 305.652 602.791C305.652 604.291 306.867 605.108 308.253 605.108C309.639 605.108 310.854 604.272 310.854 602.791ZM311.367 608.926C311.367 607.083 309.943 606.153 308.253 606.153C306.563 606.153 305.139 607.083 305.139 608.926C305.139 610.768 306.506 611.812 308.253 611.812C310 611.812 311.367 610.768 311.367 608.926Z" fill="#231815"/>
<path d="M361 660.06C361.019 658.692 361.076 657.306 361.285 655.938C361.437 654.932 361.684 653.944 362.139 653.013C362.88 651.532 364.114 650.658 365.652 650.183C366.677 649.861 367.741 649.69 368.804 649.633C370.076 649.595 371.348 649.576 372.62 649.576C374.177 649.576 375.715 649.709 377.215 650.145C378.544 650.525 379.684 651.19 380.5 652.349C381.089 653.184 381.392 654.134 381.601 655.121C381.943 656.774 382 658.445 382 660.116C382 661.465 381.943 662.813 381.753 664.143C381.601 665.168 381.354 666.156 380.88 667.087C380.139 668.549 378.924 669.423 377.367 669.898C376.133 670.277 374.861 670.429 373.589 670.486C372.525 670.524 371.443 670.543 370.38 670.524C368.975 670.505 367.57 670.391 366.184 670.05C365.348 669.841 364.551 669.537 363.829 669.043C362.709 668.264 362.044 667.182 361.665 665.909C361.342 664.884 361.19 663.82 361.114 662.756C361.057 661.845 361.038 660.933 361 660.022" fill="#FEDF73"/>
<path d="M230 375.484C230.019 374.116 230.076 372.73 230.285 371.362C230.437 370.356 230.684 369.368 231.139 368.438C231.88 366.956 233.114 366.083 234.652 365.608C235.677 365.285 236.741 365.114 237.804 365.057C239.076 365.019 240.348 365 241.62 365C243.177 365 244.715 365.133 246.215 365.57C247.544 365.95 248.684 366.614 249.5 367.773C250.089 368.609 250.392 369.558 250.601 370.546C250.943 372.198 251 373.869 251 375.541C251 376.889 250.943 378.238 250.753 379.567C250.601 380.593 250.354 381.58 249.88 382.511C249.139 383.973 247.924 384.847 246.367 385.322C245.133 385.702 243.861 385.854 242.589 385.911C241.525 385.949 240.443 385.968 239.38 385.949C237.975 385.93 236.57 385.816 235.184 385.474C234.348 385.265 233.551 384.961 232.829 384.467C231.709 383.689 231.044 382.606 230.665 381.334C230.342 380.308 230.19 379.244 230.114 378.181C230.057 377.269 230.038 376.357 230 375.446" fill="#7D7D7D"/>
<path d="M236 451.484C236.019 450.116 236.076 448.73 236.285 447.362C236.437 446.356 236.684 445.368 237.139 444.438C237.88 442.956 239.114 442.083 240.652 441.608C241.677 441.285 242.741 441.114 243.804 441.057C245.076 441.019 246.348 441 247.62 441C249.177 441 250.715 441.133 252.215 441.57C253.544 441.95 254.684 442.614 255.5 443.773C256.089 444.609 256.392 445.558 256.601 446.546C256.943 448.198 257 449.869 257 451.541C257 452.889 256.943 454.238 256.753 455.567C256.601 456.593 256.354 457.58 255.88 458.511C255.139 459.973 253.924 460.847 252.367 461.322C251.133 461.702 249.861 461.854 248.589 461.911C247.525 461.949 246.443 461.968 245.38 461.949C243.975 461.93 242.57 461.816 241.184 461.474C240.348 461.265 239.551 460.961 238.829 460.467C237.709 459.689 237.044 458.606 236.665 457.334C236.342 456.308 236.19 455.244 236.114 454.181C236.057 453.269 236.038 452.357 236 451.446" fill="#7D7D7D"/>
<path d="M269 343.484C269.019 342.116 269.076 340.73 269.285 339.362C269.437 338.356 269.684 337.368 270.139 336.438C270.88 334.956 272.114 334.083 273.652 333.608C274.677 333.285 275.741 333.114 276.804 333.057C278.076 333.019 279.348 333 280.62 333C282.177 333 283.715 333.133 285.215 333.57C286.544 333.95 287.684 334.614 288.5 335.773C289.089 336.609 289.392 337.558 289.601 338.546C289.943 340.198 290 341.869 290 343.541C290 344.889 289.943 346.238 289.753 347.567C289.601 348.593 289.354 349.58 288.88 350.511C288.139 351.973 286.924 352.847 285.367 353.322C284.133 353.702 282.861 353.854 281.589 353.911C280.525 353.949 279.443 353.968 278.38 353.949C276.975 353.93 275.57 353.816 274.184 353.474C273.348 353.265 272.551 352.961 271.829 352.467C270.709 351.689 270.044 350.606 269.665 349.334C269.342 348.308 269.19 347.244 269.114 346.181C269.057 345.269 269.038 344.357 269 343.446" fill="#7D7D7D"/>
<path d="M409 337.484C409.019 336.116 409.076 334.73 409.285 333.362C409.437 332.356 409.684 331.368 410.139 330.438C410.88 328.956 412.114 328.083 413.652 327.608C414.677 327.285 415.741 327.114 416.804 327.057C418.076 327.019 419.348 327 420.62 327C422.177 327 423.715 327.133 425.215 327.57C426.544 327.95 427.684 328.614 428.5 329.773C429.089 330.609 429.392 331.558 429.601 332.546C429.943 334.198 430 335.869 430 337.541C430 338.889 429.943 340.238 429.753 341.567C429.601 342.593 429.354 343.58 428.88 344.511C428.139 345.973 426.924 346.847 425.367 347.322C424.133 347.702 422.861 347.854 421.589 347.911C420.525 347.949 419.443 347.968 418.38 347.949C416.975 347.93 415.57 347.816 414.184 347.474C413.348 347.265 412.551 346.961 411.829 346.467C410.709 345.689 410.044 344.606 409.665 343.334C409.342 342.308 409.19 341.244 409.114 340.181C409.057 339.269 409.038 338.357 409 337.446" fill="#7D7D7D"/>
<path d="M371.006 666.555V656.945H368.367V656.204C370.171 656.128 371.025 655.35 371.272 653.754H372.146V666.555H371.006Z" fill="#231815"/>
<path d="M240.006 381.979V372.369H237.367V371.628C239.171 371.553 240.025 370.774 240.272 369.178H241.146V381.979H240.006Z" fill="white"/>
<path d="M467 481.48C467.304 478.631 468.975 477.378 471.538 475.592C473.057 474.548 473.93 473.579 473.93 472.06C473.93 470.445 472.886 469.458 471.177 469.458C469.259 469.458 468.405 471.129 468.405 473.009H467.304C467.266 470.407 468.652 468.527 471.253 468.527C473.475 468.527 475.051 469.8 475.051 472.079C475.051 474.168 473.646 475.402 472.051 476.523C470.152 477.852 468.614 479.125 468.405 480.416H475.127V481.48H467.019H467Z" fill="#231815"/>
<path d="M242 457.953C242.304 455.104 243.975 453.85 246.538 452.065C248.057 451.021 248.93 450.052 248.93 448.533C248.93 446.918 247.886 445.931 246.177 445.931C244.259 445.931 243.405 447.602 243.405 449.482H242.304C242.266 446.88 243.652 445 246.253 445C248.475 445 250.051 446.272 250.051 448.552C250.051 450.641 248.646 451.875 247.051 452.996C245.152 454.325 243.614 455.598 243.405 456.889H250.127V457.953H242.019H242Z" fill="white"/>
<path d="M484.452 437.899C484.452 440.463 482.439 441.697 480.198 441.697C477.749 441.697 475.926 440.235 476.002 437.405H477.123C477.104 439.513 478.414 440.729 480.198 440.729C481.983 440.729 483.331 439.703 483.331 437.899C483.331 436.189 482.059 435.24 480.407 435.24H479.458V434.214H480.407C481.623 434.214 482.876 433.34 482.876 431.84C482.876 430.473 481.983 429.485 480.236 429.485C478.49 429.485 477.464 430.871 477.407 432.676H476.325C476.287 430.264 477.844 428.516 480.217 428.516C482.591 428.516 483.996 429.77 483.996 431.821C483.996 433.245 483.085 434.271 481.926 434.632C483.521 434.955 484.471 436.037 484.471 437.88" fill="#231815"/>
<path d="M423.452 340.382C423.452 342.946 421.439 344.181 419.198 344.181C416.749 344.181 414.926 342.718 415.002 339.888H416.123C416.104 341.997 417.414 343.212 419.198 343.212C420.983 343.212 422.331 342.187 422.331 340.382C422.331 338.673 421.059 337.723 419.407 337.723H418.458V336.698H419.407C420.623 336.698 421.876 335.824 421.876 334.324C421.876 332.956 420.983 331.969 419.236 331.969C417.49 331.969 416.464 333.355 416.407 335.159H415.325C415.287 332.747 416.844 331 419.217 331C421.591 331 422.996 332.254 422.996 334.305C422.996 335.729 422.085 336.755 420.926 337.116C422.521 337.438 423.471 338.521 423.471 340.363" fill="white"/>
<path d="M540.797 382.206V385.302H539.715V382.206H534V381.162L539.715 372.501H540.797V381.162H542.544V382.206H540.797ZM539.715 374.381L535.177 381.162H539.715V374.381Z" fill="#231815"/>
<path d="M281.797 346.705V349.801H280.715V346.705H275V345.661L280.715 337H281.797V345.661H283.544V346.705H281.797ZM280.715 338.88L276.177 345.661H280.715V338.88Z" fill="white"/>
<path d="M595 313.971C595.019 312.604 595.076 311.218 595.285 309.869C595.437 308.862 595.684 307.875 596.139 306.944C596.88 305.463 598.114 304.589 599.652 304.114C600.677 303.791 601.74 303.621 602.804 303.564C604.076 303.507 605.348 303.469 606.62 303.488C608.177 303.488 609.715 303.621 611.215 304.057C612.544 304.437 613.684 305.102 614.5 306.261C615.089 307.096 615.392 308.046 615.601 309.033C615.943 310.686 616 312.357 616 314.028C616 315.377 615.943 316.725 615.753 318.055C615.601 319.08 615.354 320.068 614.88 320.999C614.139 322.461 612.924 323.335 611.367 323.81C610.133 324.189 608.861 324.341 607.589 324.398C606.525 324.436 605.443 324.455 604.38 324.436C602.975 324.417 601.57 324.303 600.184 323.961C599.348 323.753 598.551 323.449 597.829 322.955C596.709 322.176 596.044 321.094 595.665 319.821C595.342 318.796 595.19 317.732 595.114 316.668C595.057 315.757 595.038 314.845 595 313.933" fill="#FEDF73"/>
<path d="M436 377.489C436.019 376.121 436.076 374.735 436.285 373.386C436.437 372.38 436.684 371.392 437.139 370.462C437.88 368.98 439.114 368.107 440.652 367.632C441.677 367.309 442.74 367.138 443.804 367.081C445.076 367.024 446.348 366.986 447.62 367.005C449.177 367.005 450.715 367.138 452.215 367.575C453.544 367.955 454.684 368.619 455.5 369.778C456.089 370.614 456.392 371.563 456.601 372.551C456.943 374.203 457 375.874 457 377.546C457 378.894 456.943 380.243 456.753 381.572C456.601 382.598 456.354 383.585 455.88 384.516C455.139 385.978 453.924 386.852 452.367 387.327C451.133 387.707 449.861 387.859 448.589 387.916C447.525 387.954 446.443 387.973 445.38 387.954C443.975 387.935 442.57 387.821 441.184 387.479C440.348 387.27 439.551 386.966 438.829 386.472C437.709 385.694 437.044 384.611 436.665 383.338C436.342 382.313 436.19 381.249 436.114 380.186C436.057 379.274 436.038 378.362 436 377.451" fill="#7D7D7D"/>
<path d="M622 267.489C622.019 266.121 622.076 264.735 622.285 263.386C622.437 262.38 622.684 261.392 623.139 260.462C623.88 258.98 625.114 258.107 626.652 257.632C627.677 257.309 628.74 257.138 629.804 257.081C631.076 257.024 632.348 256.986 633.62 257.005C635.177 257.005 636.715 257.138 638.215 257.575C639.544 257.955 640.684 258.619 641.5 259.778C642.089 260.614 642.392 261.563 642.601 262.551C642.943 264.203 643 265.874 643 267.546C643 268.894 642.943 270.243 642.753 271.572C642.601 272.598 642.354 273.585 641.88 274.516C641.139 275.978 639.924 276.852 638.367 277.327C637.133 277.707 635.861 277.859 634.589 277.916C633.525 277.954 632.443 277.973 631.38 277.954C629.975 277.935 628.57 277.821 627.184 277.479C626.348 277.27 625.551 276.966 624.829 276.472C623.709 275.694 623.044 274.611 622.665 273.338C622.342 272.313 622.19 271.249 622.114 270.186C622.057 269.274 622.038 268.362 622 267.451" fill="#7D7D7D"/>
<path d="M609.715 316.289C609.715 318.777 607.874 320.619 605.5 320.619C603.127 320.619 601.494 319.118 601.418 316.706H602.519C602.576 318.549 603.867 319.65 605.5 319.65C607.418 319.65 608.595 318.055 608.595 316.156C608.595 314.256 607.361 312.775 605.481 312.775C604.323 312.775 603.317 313.25 602.766 314.313H601.76L602.918 307.609H609.127V308.654H603.772L603.013 313.003C603.545 312.3 604.589 311.825 605.614 311.825C608.177 311.825 609.715 313.554 609.715 316.27" fill="#231815"/>
<path d="M303.297 456.68C303.297 459.168 301.456 461.01 299.082 461.01C296.709 461.01 295.076 459.509 295 457.097H296.101C296.158 458.94 297.449 460.041 299.082 460.041C301 460.041 302.177 458.446 302.177 456.547C302.177 454.647 300.943 453.166 299.063 453.166C297.905 453.166 296.899 453.641 296.348 454.704H295.342L296.5 448H302.709V449.045H297.354L296.595 453.394C297.127 452.691 298.171 452.216 299.196 452.216C301.759 452.216 303.297 453.945 303.297 456.661" fill="white"/>
<path d="M576.373 387.334C576.373 389.898 574.797 391.665 572.329 391.665C569.576 391.665 568 389.898 568 384.922C568 381.01 569.861 378.503 572.386 378.503C574.741 378.503 575.88 379.87 576.127 381.808H575.044C574.892 380.478 573.924 379.472 572.405 379.472C570.222 379.472 569.139 382.017 569.139 385.245C569.614 384.049 570.829 383.118 572.329 383.118C574.759 383.118 576.373 384.713 576.373 387.334ZM575.272 387.334C575.272 385.302 574.076 384.049 572.329 384.049C570.582 384.049 569.386 385.34 569.386 387.353C569.386 389.12 570.449 390.696 572.329 390.696C574.209 390.696 575.272 389.082 575.272 387.315" fill="#231815"/>
<path d="M450.373 379.831C450.373 382.395 448.797 384.162 446.329 384.162C443.576 384.162 442 382.395 442 377.419C442 373.507 443.861 371 446.386 371C448.741 371 449.88 372.367 450.127 374.305H449.044C448.892 372.975 447.924 371.969 446.405 371.969C444.222 371.969 443.139 374.514 443.139 377.742C443.614 376.546 444.829 375.615 446.329 375.615C448.759 375.615 450.373 377.211 450.373 379.831ZM449.272 379.831C449.272 377.799 448.076 376.546 446.329 376.546C444.582 376.546 443.386 377.837 443.386 379.85C443.386 381.617 444.449 383.193 446.329 383.193C448.209 383.193 449.272 381.579 449.272 379.812" fill="white"/>
<path d="M522.772 193.592C519.525 196.707 517.741 201.436 517.418 206.469H515.994C516.373 200.639 518.975 196.175 521.462 193.63H514V192.453H522.772V193.611V193.592Z" fill="#231815"/>
<path d="M782.772 250.14C779.525 253.254 777.741 257.983 777.418 263.016H775.994C776.373 257.186 778.975 252.723 781.462 250.178H774V249H782.772V250.159V250.14Z" fill="white"/>
<path d="M636.487 270.363C636.487 272.832 634.684 274.2 632.234 274.2C629.785 274.2 628 272.832 628 270.363C628 268.768 629.044 267.381 630.487 267.021C629.386 266.679 628.513 265.596 628.513 264.229C628.513 262.405 629.899 261 632.253 261C634.608 261 635.994 262.405 635.994 264.229C635.994 265.596 635.139 266.603 634.019 267.021C635.462 267.381 636.525 268.768 636.525 270.363M634.854 264.229C634.854 262.956 633.867 261.95 632.253 261.95C630.639 261.95 629.652 262.956 629.652 264.229C629.652 265.729 630.867 266.546 632.253 266.546C633.639 266.546 634.854 265.71 634.854 264.229ZM635.367 270.363C635.367 268.521 633.943 267.59 632.253 267.59C630.563 267.59 629.139 268.521 629.139 270.363C629.139 272.206 630.506 273.25 632.253 273.25C634 273.25 635.367 272.206 635.367 270.363Z" fill="white"/>
</g>
<defs>
<clipPath id="clip0_957_1002">
<rect width="21" height="20" fill="white" transform="translate(371 270)"/>
</clipPath>
<clipPath id="clip1_957_1002">
<rect width="21" height="21.0056" fill="white" transform="translate(381 521.542)"/>
</clipPath>
<clipPath id="clip2_957_1002">
<rect width="20" height="20" fill="white" transform="translate(590 501)"/>
</clipPath>
<clipPath id="clip3_957_1002">
<rect width="20" height="21" fill="white" transform="translate(305 521)"/>
</clipPath>
<clipPath id="clip4_957_1002">
<rect width="21" height="21" fill="white" transform="translate(847 161)"/>
</clipPath>
<clipPath id="clip5_957_1002">
<rect width="21" height="21" fill="white" transform="translate(778 361)"/>
</clipPath>
<clipPath id="clip6_957_1002">
<rect width="21" height="21" fill="white" transform="translate(371 447)"/>
</clipPath>
<clipPath id="clip7_957_1002">
<rect width="21" height="21" fill="white" transform="translate(468 209)"/>
</clipPath>
<clipPath id="clip8_957_1002">
<rect width="21" height="20" fill="white" transform="translate(284 389)"/>
</clipPath>
<clipPath id="clip9_957_1002">
<rect width="21" height="20" fill="white" transform="translate(147 468)"/>
</clipPath>
<clipPath id="clip10_957_1002">
<rect width="20" height="21" fill="white" transform="translate(574 185)"/>
</clipPath>
<clipPath id="clip11_957_1002">
<rect width="21" height="20" fill="white" transform="translate(315 310)"/>
</clipPath>
<clipPath id="clip12_957_1002">
<rect width="20" height="20" fill="white" transform="translate(581 230)"/>
</clipPath>
<clipPath id="clip13_957_1002">
<rect width="21" height="21" fill="white" transform="translate(490 315)"/>
</clipPath>
<clipPath id="clip14_957_1002">
<rect width="41" height="45" fill="white" transform="translate(310 625)"/>
</clipPath>
</defs>
</svg>
