<svg width="1200" height="695" viewBox="0 0 1200 695" fill="none" xmlns="http://www.w3.org/2000/svg">
<mask id="mask0_821_18618" style="mask-type:alpha" maskUnits="userSpaceOnUse" x="0" y="0" width="1200" height="695">
<rect width="1200" height="695" fill="#D9D9D9"/>
</mask>
<g mask="url(#mask0_821_18618)">
<path d="M280.152 422.591L278.906 408.923L235.671 412.868L236.916 426.536L280.152 422.591Z" fill="white"/>
<path d="M265.934 445.051L264.349 427.651L237.243 430.124L238.828 447.524L265.934 445.051Z" fill="white"/>
<path d="M938.447 107.708L934.833 110.354L922.973 94.0823L902.309 109.171L921.61 135.618L941.371 138.708L954.216 129.322L938.447 107.708Z" fill="white"/>
<path d="M1028.39 47.1878L1022.11 38.572L1011.1 46.6158L1017.38 55.2316L1028.39 47.1878Z" fill="white"/>
<path d="M1068.03 42.2734L1050.48 54.1577L1069.12 81.7086L1086.67 69.8243L1068.03 42.2734Z" fill="#CFD4AA"/>
<path d="M980.691 23.8491L966.446 2.93115L929.496 28.1242L943.74 49.0421L980.691 23.8491Z" fill="#CFD4AA"/>
<path d="M934.34 55.4507L920.096 34.5327L878.679 62.7707L892.924 83.6887L934.34 55.4507Z" fill="#CFD4AA"/>
<path d="M845.031 99.5722L839.856 92.488L870.525 70.085L881.448 84.9929L873.498 90.8115L845.031 99.5722Z" fill="#CFD4AA"/>
<path d="M983.425 64.797L974.718 52.8623L953.663 68.2424L962.37 80.1771L983.425 64.797Z" fill="#CFD4AA"/>
<path d="M1011.61 77.1605L1003.55 66.1152L982.496 81.4954L990.554 92.5406L1011.61 77.1605Z" fill="#CFD4AA"/>
<path d="M994.338 126.325L984.256 112.505L964.408 127.003L974.49 140.823L994.338 126.325Z" fill="#CFD4AA"/>
<path d="M861.427 130.229L858.145 116.937L826.618 124.732L829.9 138.024L861.427 130.229Z" fill="#CFD4AA"/>
<path d="M885.807 135.411L878.695 116.998L865.518 122.094L872.63 140.507L885.807 135.411Z" fill="#CFD4AA"/>
<path d="M899.669 124.807L895.53 114.09L882.353 119.186L886.492 129.903L899.669 124.807Z" fill="#CFD4AA"/>
<path d="M862.925 83.3838L856.155 74.1042L843.936 83.03L850.706 92.3095L862.925 83.3838Z" fill="#CFD4AA"/>
<path d="M896.575 126.005L894.846 121.528L881.669 126.624L883.398 131.101L896.575 126.005Z" fill="#CFD4AA"/>
<path d="M999.955 122.256L995.209 115.751L978.413 128.02L983.158 134.525L999.955 122.256Z" fill="#CFD4AA"/>
<path d="M735.264 157.19L734.063 140.55L701.673 142.89L702.874 159.53L735.264 157.19Z" fill="white"/>
<path d="M719.731 177.106L709.944 164.172L689.344 179.778L699.13 192.712L719.731 177.106Z" fill="white"/>
<path d="M750.549 172.548L741.725 160.885L734.43 166.411L743.255 178.074L750.549 172.548Z" fill="white"/>
<path d="M735.611 182.187L729.295 173.84L681.009 210.421L687.325 218.768L735.611 182.187Z" fill="#CFD4AA"/>
<path d="M712.479 206.483L707.62 200.062L685.723 216.651L690.582 223.072L712.479 206.483Z" fill="#CFD4AA"/>
<path d="M642.966 239.718L636.849 231.632L617.034 246.644L623.152 254.729L642.966 239.718Z" fill="#DD6F6F"/>
<path d="M622.225 258.431L616.107 250.346L605.513 258.372L611.63 266.458L622.225 258.431Z" fill="white"/>
<path d="M749.943 194.521L742.507 184.693L726.831 196.569L734.267 206.397L749.943 194.521Z" fill="white"/>
<path d="M731.09 208.806L725.408 201.297L714.84 209.304L720.521 216.813L731.09 208.806Z" fill="#CFD4AA"/>
<path d="M697.504 230.342L693.677 225.279L712.156 211.275L718.842 220.118L708.953 227.613L697.504 230.342Z" fill="#CFD4AA"/>
<path d="M697.03 189.463L687.789 177.25L674.313 187.459L683.554 199.672L697.03 189.463Z" fill="white"/>
<path d="M692.826 160.258L691.625 143.618L670.719 145.129L671.92 161.768L692.826 160.258Z" fill="white"/>
<path d="M692.362 173.524L691.778 165.442L673.723 166.746L674.307 174.828L692.362 173.524Z" fill="white"/>
<path d="M633.728 154.119L629.243 147.058L615.865 155.566L620.35 162.627L633.728 154.119Z" fill="white"/>
<path d="M639.344 160.577L642.207 150.848L629.318 147.05L626.454 156.778L639.344 160.577Z" fill="white"/>
<path d="M666.456 160.906L665.22 143.774L652.784 144.673L654.021 161.804L666.456 160.906Z" fill="white"/>
<path d="M610.256 180.909L606.851 174.474L592.392 182.134L595.797 188.569L610.256 180.909Z" fill="white"/>
<path d="M624.602 199.596L621.197 193.161L606.056 201.183L609.461 207.618L624.602 199.596Z" fill="white"/>
<path d="M607.997 202.836L605.422 197.97L600.559 200.546L603.134 205.413L607.997 202.836Z" fill="white"/>
<path d="M608.202 196.565L604.889 190.304L598.632 193.619L601.945 199.88L608.202 196.565Z" fill="white"/>
<path d="M602.428 192.259L599.115 185.998L597.765 186.713L601.078 192.974L602.428 192.259Z" fill="white"/>
<path d="M661.327 171.06L652.921 157.827L646.447 161.944L654.853 175.178L661.327 171.06Z" fill="white"/>
<path d="M654.107 159.388L646.246 154.513L642.205 161.037L650.066 165.912L654.107 159.388Z" fill="white"/>
<path d="M659.322 158.95L656.97 155.247L650.496 159.364L652.848 163.068L659.322 158.95Z" fill="white"/>
<path d="M694.731 219.921L680.502 201.116L675.342 205.025L689.571 223.83L694.731 219.921Z" fill="#CFD4AA"/>
<path d="M683.929 219.269L676.076 208.891L670.51 213.107L678.363 223.486L683.929 219.269Z" fill="#CFD4AA"/>
<path d="M726.71 110.661L718.741 109.417L717.498 117.391L725.467 118.635L726.71 110.661Z" fill="white"/>
<path d="M722.962 108.389L716.447 113.147L721.203 119.665L727.717 114.907L722.962 108.389Z" fill="white"/>
<path d="M665.099 94.9191L658.637 101.946L662.892 105.864L669.354 98.8367L665.099 94.9191Z" fill="white"/>
<path d="M670.423 118.773L663.93 109.238L656.708 114.161L663.201 123.697L670.423 118.773Z" fill="white"/>
<path d="M629.716 111.137L630.169 117.416L636.444 116.962L635.991 110.683L629.716 111.137Z" fill="white"/>
<path d="M625.741 114.239L626.194 120.518L632.469 120.065L632.016 113.786L625.741 114.239Z" fill="white"/>
<path d="M580.045 218.949L565.697 216.708L562.106 239.737L576.453 241.977L580.045 218.949Z" fill="white"/>
<path d="M569.28 248.142C573.29 248.142 576.54 244.89 576.54 240.878C576.54 236.865 573.29 233.613 569.28 233.613C565.27 233.613 562.02 236.865 562.02 240.878C562.02 244.89 565.27 248.142 569.28 248.142Z" fill="white"/>
<path d="M647.781 298.136L645.924 288.601L636.395 290.46L638.253 299.994L647.781 298.136Z" fill="white"/>
<path d="M635.886 295.535L634.952 290.743L628.68 291.967L629.614 296.758L635.886 295.535Z" fill="white"/>
<path d="M781.918 218.54L770.854 205.044L737.77 232.198L748.833 245.694L781.918 218.54Z" fill="#CFD4AA"/>
<path d="M837.119 217.681L825.473 203.473L814.957 212.104L826.603 226.312L837.119 217.681Z" fill="#CFD4AA"/>
<path d="M790.249 209.435L778.603 195.227L771.427 201.116L783.073 215.324L790.249 209.435Z" fill="#CFD4AA"/>
<path d="M784.946 222.227L767.841 201.36L760.881 207.073L777.986 227.94L784.946 222.227Z" fill="#CFD4AA"/>
<path d="M805.882 236.882L792.881 221.022L785.921 226.735L798.922 242.595L805.882 236.882Z" fill="#CFD4AA"/>
<path d="M778.24 271.745L760.253 249.819L773.213 239.185L788.26 250.098L794.831 258.12L778.24 271.745Z" fill="white"/>
<path d="M808.513 243.554L802.648 236.399L799.194 239.234L805.059 246.389L808.513 243.554Z" fill="#CFD4AA"/>
<path d="M813.566 243.211L808.222 236.692L791.736 250.222L797.081 256.741L813.566 243.211Z" fill="#CFD4AA"/>
<path d="M798.635 233.194L790.354 223.091L782.733 229.345L791.015 239.448L798.635 233.194Z" fill="#CFD4AA"/>
<path d="M777.147 228.639L760.042 207.772L753.082 213.484L770.188 234.351L777.147 228.639Z" fill="#CFD4AA"/>
<path d="M766.615 237.284L749.51 216.417L742.55 222.13L759.655 242.997L766.615 237.284Z" fill="#CFD4AA"/>
<path d="M758.823 243.682L741.718 222.814L734.758 228.527L751.863 249.394L758.823 243.682Z" fill="#CFD4AA"/>
<path d="M728.722 262.353L711.21 240.99L701.634 248.849L719.146 270.212L728.722 262.353Z" fill="#CFD4AA"/>
<path d="M723.761 314.832L696.926 282.095L686.765 290.434L713.601 323.171L723.761 314.832Z" fill="#CFD4AA"/>
<path d="M681.655 334.752L662.008 310.784L660.281 312.202L679.928 336.17L681.655 334.752Z" fill="#CFD4AA"/>
<path d="M667.759 325.301L661.103 317.181L655.794 321.538L662.45 329.659L667.759 325.301Z" fill="#CFD4AA"/>
<path d="M700.118 348.687L682.939 327.731L671.788 336.883L688.967 357.839L700.118 348.687Z" fill="#CFD4AA"/>
<path d="M681.995 326.588L679.464 323.5L668.313 332.652L670.844 335.74L681.995 326.588Z" fill="#CFD4AA"/>
<path d="M695.348 352.583L683.306 337.892L674.034 345.502L686.077 360.193L695.348 352.583Z" fill="#CFD4AA"/>
<path d="M722.51 315.888L717.301 309.534L697.158 326.067L702.367 332.421L722.51 315.888Z" fill="#CFD4AA"/>
<path d="M701.164 333.406L695.955 327.052L692.882 329.574L698.09 335.928L701.164 333.406Z" fill="#CFD4AA"/>
<path d="M691.995 303.16L683.661 292.994L661.359 311.298L669.693 321.465L691.995 303.16Z" fill="#CFD4AA"/>
<path d="M668.167 300.279L664.061 295.266L672.914 281.575L679.6 276.068L686.86 284.928L668.167 300.279Z" fill="#CFD4AA"/>
<path d="M702.332 328.958L700.551 326.784L687.126 337.803L688.908 339.976L702.332 328.958Z" fill="#CFD4AA"/>
<path d="M719.656 288.874L717.875 286.701L704.451 297.719L706.232 299.892L719.656 288.874Z" fill="#CFD4AA"/>
<path d="M709.41 261.254L702.92 253.336L700.342 255.452L706.832 263.37L709.41 261.254Z" fill="#CFD4AA"/>
<path d="M736.965 278.488L729.954 269.935L711.983 284.685L718.994 293.238L736.965 278.488Z" fill="#CFD4AA"/>
<path d="M736.658 321.581L732.345 316.32L721.448 325.264L725.761 330.525L736.658 321.581Z" fill="#CFD4AA"/>
<path d="M717.725 294.649L712.017 287.685L708.943 290.208L714.652 297.172L717.725 294.649Z" fill="#CFD4AA"/>
<path d="M735.628 320.345L729.919 313.381L724.648 317.707L730.357 324.671L735.628 320.345Z" fill="#CFD4AA"/>
<path d="M731.364 271.294L724.354 262.741L721.407 265.159L728.418 273.712L731.364 271.294Z" fill="#CFD4AA"/>
<path d="M735.859 271.368L732.775 267.606L714.804 282.356L717.888 286.118L735.859 271.368Z" fill="#CFD4AA"/>
<path d="M709.076 256.128L707.701 254.45L698.341 262.133L699.716 263.81L709.076 256.128Z" fill="#CFD4AA"/>
<path d="M738.447 274.217L732.937 267.495L730.752 269.288L736.263 276.01L738.447 274.217Z" fill="#CFD4AA"/>
<path d="M735.952 273.872L733.598 271L731.121 273.033L733.475 275.905L735.952 273.872Z" fill="#CFD4AA"/>
<path d="M705.702 264.282L696.503 253.06L680.424 266.257L689.623 277.478L705.702 264.282Z" fill="#CFD4AA"/>
<path d="M682.521 257.387L672.624 245.314L643.591 269.143L653.487 281.216L682.521 257.387Z" fill="#CFD4AA"/>
<path d="M784.175 202.045L780.269 197.28L775.506 201.189L779.412 205.954L784.175 202.045Z" fill="#CFD4AA"/>
<path d="M750.897 346.198L744.996 340.248L732.357 352.798L738.258 358.748L750.897 346.198Z" fill="white"/>
<path d="M753.317 365.149L746.294 358.068L727.778 376.453L734.802 383.535L753.317 365.149Z" fill="#8384BF"/>
<path d="M739.95 388.642L732.443 381.065L746.422 367.193L748.853 369.625L746.258 382.364L739.95 388.642Z" fill="#8384BF"/>
<path d="M533.655 280.533L499.855 257.661L493.304 267.355L527.103 290.227L533.655 280.533Z" fill="#9F81A1"/>
<path d="M551.08 273.208L554.02 258.843L572.5 262.804L569.56 277.17L551.08 273.208Z" fill="#B1D476"/>
<path d="M569.56 277.17L568.936 266.765L584.146 265.286L584.771 275.674L569.56 277.17Z" fill="#B1D476"/>
<path d="M660.316 185.771L654.783 179.652L649.436 184.494L654.969 190.612L660.316 185.771Z" fill="#B1D476"/>
<path d="M652.946 191.753L647.413 185.635L628.363 202.882L633.896 209.001L652.946 191.753Z" fill="#B1D476"/>
<path d="M628.202 210.498L623.951 202.465L608.839 210.472L613.089 218.505L628.202 210.498Z" fill="#B1D476"/>
<path d="M626.332 206.986L623.941 202.469L611.326 209.152L613.717 213.67L626.332 206.986Z" fill="#B1D476"/>
<path d="M629.926 213.793L627.997 210.147L622.423 213.1L624.352 216.746L629.926 213.793Z" fill="#B1D476"/>
<path d="M576.889 291.507L536.949 283.151L534.556 294.606L574.495 302.962L576.889 291.507Z" fill="#B1D476"/>
<path d="M583.094 301.983L623.221 294.578L621.099 283.069L580.973 290.475L583.094 301.983Z" fill="#B1D476"/>
<path d="M558.248 396.854L510.606 386.886L502.719 424.63L550.36 434.598L558.248 396.854Z" fill="white"/>
<path d="M456.687 401.292L438.984 397.588L435.027 416.524L452.73 420.228L456.687 401.292Z" fill="white"/>
<path d="M397.925 333.58L388.055 323.956L372.417 340.012L382.288 349.637L397.925 333.58Z" fill="white"/>
<path d="M416.897 231.176L416.934 247.284L424.72 247.267L424.683 231.159L416.897 231.176Z" fill="white"/>
<path d="M403.445 231.192L403.496 253.825L416.949 253.794L416.898 231.161L403.445 231.192Z" fill="white"/>
<path d="M388.725 355.963L395.386 349.124L379.057 333.201L372.396 340.041L388.725 355.963Z" fill="white"/>
<path d="M448.853 429.67L418.642 423.349L416.671 432.777L446.883 439.098L448.853 429.67Z" fill="white"/>
<path d="M446.245 457.849L424.41 453.28L422.208 463.818L444.043 468.387L446.245 457.849Z" fill="white"/>
<path d="M447.753 435.008L438.508 433.074L434.927 450.208L444.173 452.143L447.753 435.008Z" fill="white"/>
<path d="M413.52 429.97L405.497 428.292L403.016 440.165L411.039 441.844L413.52 429.97Z" fill="white"/>
<path d="M415.48 439.848L407.344 438.146L404.281 452.803L412.417 454.505L415.48 439.848Z" fill="white"/>
<path d="M401.493 474.652L397.231 462.318L369.675 471.85L373.936 484.184L401.493 474.652Z" fill="white"/>
<path d="M440.675 442.93L428.423 440.366L426.725 448.491L438.977 451.055L440.675 442.93Z" fill="white"/>
<path d="M381.23 459.369C381.23 459.369 387.111 454.915 393.37 458.942L389.805 470.464L388.507 470.661L381.23 459.369Z" fill="white"/>
<path d="M384.072 460.599L379.03 464.281L382.711 469.326L387.752 465.643L384.072 460.599Z" fill="white"/>
<path d="M437.623 524.737C440.027 524.737 441.976 522.787 441.976 520.382C441.976 517.976 440.027 516.026 437.623 516.026C435.218 516.026 433.27 517.976 433.27 520.382C433.27 522.787 435.218 524.737 437.623 524.737Z" fill="white"/>
<path d="M442.55 509.402L445.326 491.684L440.907 490.993L429.589 494.774L426.862 512.246L431.626 513.002L442.55 509.402Z" fill="#A76DAB"/>
<path d="M432.201 539.3L415.463 528.485L421.541 514.728L439.528 522.683L432.201 539.3Z" fill="white"/>
<path d="M425.073 539.744L417.763 541.322L415.479 548.472L420.506 554.011L427.832 552.416L430.115 545.283L425.073 539.744Z" fill="#A76DAB"/>
<path d="M414.05 420.25C415.577 410.47 424.743 403.764 434.517 405.293L432.842 416.075C429.014 415.484 425.433 418.097 424.826 421.927L414.05 420.25Z" fill="white"/>
<path d="M427.168 351.98L411.922 353.371L413.703 372.915L428.949 371.524L427.168 351.98Z" fill="white"/>
<path d="M426.859 366.106L420.037 366.729L421.056 377.909L427.877 377.286L426.859 366.106Z" fill="white"/>
<path d="M394.114 367.617L388.423 360.448L372.898 372.787L378.588 379.956L394.114 367.617Z" fill="#B8DDBD"/>
<path d="M405.239 366.971L401.122 361.784L392.749 368.439L396.866 373.626L405.239 366.971Z" fill="#B8DDBD"/>
<path d="M392.967 374.826L397.122 371.524L389.306 361.678L385.152 364.98L392.967 374.826Z" fill="#B8DDBD"/>
<path d="M399.352 377.981L401.127 376.57L395.641 369.659L393.866 371.07L399.352 377.981Z" fill="#B8DDBD"/>
<path d="M378.029 389.711L383.602 388.994L382.021 376.686L376.449 377.402L378.029 389.711Z" fill="#B8DDBD"/>
<path d="M367.494 383.513L367.379 385.696L379.764 386.35L379.879 384.167L367.494 383.513Z" fill="#B8DDBD"/>
<path d="M373.472 384.152L373.875 376.503L352.993 375.4L352.59 383.049L373.472 384.152Z" fill="#B8DDBD"/>
<path d="M359.001 385.142L359.159 382.138L355.321 381.935L355.162 384.939L359.001 385.142Z" fill="#B8DDBD"/>
<path d="M357.383 381.72L353.035 375.416L345.924 380.326L350.272 386.63L357.383 381.72Z" fill="#B8DDBD"/>
<path d="M413.705 372.929L415.873 361.111L433.187 364.284L438.443 369.461L437.031 377.203L413.705 372.929Z" fill="white"/>
<path d="M410.552 373.241L398.544 374.343L392.959 378.287L399.71 387.13L411.718 386.029L410.552 373.241Z" fill="#B8DDBD"/>
<path d="M405.968 384.287L393.468 385.897L393.993 390.105L402.092 392.883L406.51 388.494L405.968 384.287Z" fill="#B8DDBD"/>
<path d="M360.089 355.539L336.615 358.005L337.502 366.519C341.149 366.913 344.024 369.757 344.467 373.389L354.734 372.304L361.041 364.711L360.072 355.539H360.089Z" fill="#B8DDBD"/>
<path d="M327.368 371.581C327.926 368.047 330.719 365.467 334.086 364.99L333.495 358.448C327.992 359.09 323.968 362.114 322.538 366.272L312.042 367.226L313.077 378.567L328.6 377.153C327.549 375.559 327.039 373.603 327.351 371.565L327.368 371.581Z" fill="#62908D"/>
<path d="M324.049 373.752L309.866 375.046L310.212 378.843L324.395 377.549L324.049 373.752Z" fill="#62908D"/>
<path d="M303.679 362.926L266.397 366.327L267.257 375.755L304.538 372.354L303.679 362.926Z" fill="white"/>
<path d="M276.06 389.974L250.164 392.337L250.864 400.014L276.759 397.651L276.06 389.974Z" fill="white"/>
<path d="M275.447 379.353L267.513 380.076L269.177 398.344L277.111 397.62L275.447 379.353Z" fill="white"/>
<path d="M326.4 431.927L324.543 411.548L318.605 412.09L320.462 432.469L326.4 431.927Z" fill="#C1BC46"/>
<path d="M323.382 421.879L322.459 411.747L316.521 412.289L317.444 422.421L323.382 421.879Z" fill="#C1BC46"/>
<path d="M281.189 448.647L279.396 428.972L270.726 429.763L272.519 449.438L281.189 448.647Z" fill="white"/>
<path d="M214.848 437.494L215.775 411.196L203.512 410.763L202.586 437.061L214.848 437.494Z" fill="white"/>
<path d="M208.605 459.089L209.377 437.193L199.281 436.837L198.509 458.733L208.605 459.089Z" fill="white"/>
<path d="M195.531 458.618L196.303 436.722L188.144 436.434L187.372 458.33L195.531 458.618Z" fill="white"/>
<path d="M228.624 475.267L215.98 460.242L210.49 464.869L223.133 479.893L228.624 475.267Z" fill="white"/>
<path d="M216.591 503.736L223.899 491.928L217.797 488.147L210.488 499.955L216.591 503.736Z" fill="white"/>
<path d="M232.713 522.066L249.733 494.565L244.748 491.476L227.727 518.976L232.713 522.066Z" fill="white"/>
<path d="M244.574 529.394L248.302 523.372L233.191 514.008L229.464 520.031L244.574 529.394Z" fill="white"/>
<path d="M244.327 520.999L255.155 503.504L245.268 497.377L234.44 514.872L244.327 520.999Z" fill="white"/>
<path d="M248.873 516.781L254.996 506.887L245.109 500.76L238.985 510.654L248.873 516.781Z" fill="white"/>
<path d="M255.493 518.381L260.95 509.563L251.063 503.436L245.606 512.254L255.493 518.381Z" fill="white"/>
<path d="M253.6 513.465L259.058 504.648L244.771 495.795L239.314 504.612L253.6 513.465Z" fill="white"/>
<path d="M235.499 494.685L239.633 488.006L230.765 482.51L226.631 489.19L235.499 494.685Z" fill="white"/>
<path d="M232.69 499.223L236.824 492.543L232.313 489.748L228.179 496.427L232.69 499.223Z" fill="white"/>
<path d="M226.958 510.151L230.885 503.806L220.243 497.212L216.317 503.556L226.958 510.151Z" fill="white"/>
<path d="M256.07 536.18L260.956 528.285L253.066 523.395L248.179 531.291L256.07 536.18Z" fill="white"/>
<path d="M272.746 571.072L283.33 563.905L272.558 547.979L261.974 555.146L272.746 571.072Z" fill="white"/>
<path d="M294.624 585.248L302.311 580.043L293.039 566.336L285.353 571.541L294.624 585.248Z" fill="white"/>
<path d="M286.445 590.82L290.009 588.406L278.933 572.031L275.369 574.445L286.445 590.82Z" fill="white"/>
<path d="M290.954 587.76L292.478 586.729L283.455 573.389L281.931 574.42L290.954 587.76Z" fill="white"/>
<path d="M288.056 587.474L290.586 585.76L282.604 573.959L280.073 575.672L288.056 587.474Z" fill="white"/>
<path d="M285.618 562.354L293.046 557.323L280.469 538.729L273.042 543.759L285.618 562.354Z" fill="white"/>
<path d="M287.541 549.893L289.533 549.274L284.827 534.127L282.835 534.747L287.541 549.893Z" fill="white"/>
<path d="M285.25 554.414L291.059 550.48L288.923 547.322L283.114 551.256L285.25 554.414Z" fill="white"/>
<path d="M258.553 530.939L269.18 523.177L263.707 515.676L253.08 523.439L258.553 530.939Z" fill="white"/>
<path d="M175.171 515.044L190.024 494.13L182.54 488.808L167.686 509.722L175.171 515.044Z" fill="#80758F"/>
<path d="M163.679 551.397L180.237 535.799L177.937 533.35L170.726 532.857L157.732 545.086L163.679 551.397Z" fill="white"/>
<path d="M187.136 534.451L205.682 508.338L198.197 503.016L179.651 529.128L187.136 534.451Z" fill="#80758F"/>
<path d="M190.156 536.622L200.852 521.563L192.604 515.698L181.908 530.757L190.156 536.622Z" fill="#80758F"/>
<path d="M190.455 517.883L195.907 510.206L180.991 499.599L175.539 507.276L190.455 517.883Z" fill="#80758F"/>
<path d="M213.604 489.014L214.2 472.111L204.794 471.779L204.198 488.682L213.604 489.014Z" fill="white"/>
<path d="M197.856 477.722L198.359 463.448L189.002 463.118L188.499 477.392L197.856 477.722Z" fill="white"/>
<path d="M191.541 483.138L192.075 467.976L180.994 467.585L180.46 482.747L191.541 483.138Z" fill="white"/>
<path d="M193.984 485.723L194.297 476.836L186.302 476.554L185.989 485.441L193.984 485.723Z" fill="white"/>
<path d="M312.675 458.42L301.519 440.316L285.747 450.048L296.904 468.151L312.675 458.42Z" fill="white"/>
<path d="M280.83 465.644L275.217 456.536L259.361 466.319L264.974 475.427L280.83 465.644Z" fill="white"/>
<path d="M323.744 476.343L312.683 458.393L308.376 461.05L319.438 479L323.744 476.343Z" fill="#FBD59E"/>
<path d="M336.753 497.453L324.433 477.46L320.126 480.118L332.447 500.11L336.753 497.453Z" fill="#FBD59E"/>
<path d="M334.341 498.94L328.909 490.125L322.967 493.792L328.399 502.606L334.341 498.94Z" fill="#FBD59E"/>
<path d="M331.463 500.702L328.747 496.295L322.805 499.961L325.521 504.369L331.463 500.702Z" fill="#FBD59E"/>
<path d="M292.435 439.525L291.374 427.887L284.422 428.521L285.482 440.159L292.435 439.525Z" fill="white"/>
<path d="M322.147 424.173L302.909 425.928L303.648 434.031L322.885 432.276L322.147 424.173Z" fill="#C1BC46"/>
<path d="M291.116 425.216L270.472 427.1L271.118 434.187L291.762 432.304L291.116 425.216Z" fill="white"/>
<path d="M296.746 366.623L284.461 367.744L285.32 377.172L297.605 376.052L296.746 366.623Z" fill="white"/>
<path d="M303.968 365.958L294.546 366.818L295.696 379.438L305.118 378.578L303.968 365.958Z" fill="white"/>
<path d="M307.834 373.444L295.254 374.592L295.763 380.174L308.342 379.026L307.834 373.444Z" fill="white"/>
<path d="M484.898 282.264L484.962 310.354L493.29 310.335L493.226 282.245L484.898 282.264Z" fill="#A3D7D0"/>
<path d="M488.325 286.201L488.354 298.89L496.682 298.871L496.653 286.182L488.325 286.201Z" fill="#A3D7D0"/>
<path d="M484.958 301.585L484.978 310.362L504.591 310.317L504.571 301.54L484.958 301.585Z" fill="#A3D7D0"/>
<path d="M491.5 291.483L486.677 299.475L504.576 310.292L509.4 302.3L491.5 291.483Z" fill="#A3D7D0"/>
<path d="M493.259 282.265L496.675 286.177L493.045 289.119L489.858 284.583L493.259 282.265Z" fill="#A3D7D0"/>
<path d="M197.846 477.696L193.969 485.7L191.062 479.044C191.062 479.044 191.817 474.819 191.817 474.852C191.817 474.885 197.829 477.696 197.829 477.696H197.846Z" fill="white"/>
<path d="M249.737 494.593L259.083 504.685L255.962 509.714L244.201 502.071L249.737 494.593Z" fill="white"/>
<path d="M185.248 546.328L177.693 542.339L170.848 555.32L178.402 559.309L185.248 546.328Z" fill="white"/>
<path d="M179.473 548.438L171.064 538.099L167.051 541.367L175.46 551.706L179.473 548.438Z" fill="white"/>
<path d="M175.563 547.802L169.953 540.905L167.991 542.503L173.601 549.4L175.563 547.802Z" fill="white"/>
<path d="M171.444 569.975L179.979 569.657L179.434 554.99L170.898 555.307L171.444 569.975Z" fill="white"/>
<path d="M167.933 532.85L163.6 527.973L156.664 534.143L160.997 539.02L167.933 532.85Z" fill="white"/>
<path d="M285.74 599.287L279.646 591.557L267.768 600.933L273.862 608.663L285.74 599.287Z" fill="white"/>
<path d="M275.973 601.479L272.555 597.144L260.677 606.52L264.096 610.855L275.973 601.479Z" fill="white"/>
<path d="M615.405 175.854L621.319 166.864L631.799 163.56L641.343 169.23L644.069 179.98L615.405 175.854Z" fill="white"/>
<path d="M630.017 169.211L615.405 175.812L621.421 189.145L636.033 182.543L630.017 169.211Z" fill="white"/>
<path d="M642.476 167.835L630.692 175.33L636.755 184.873L648.538 177.379L642.476 167.835Z" fill="white"/>
<path d="M644.311 167.811L642.703 168.834L648.792 178.419L650.4 177.397L644.311 167.811Z" fill="white"/>
<path d="M644.3 167.751L638.731 171.285L632.834 168.146L638.419 164.595L644.3 167.751Z" fill="white"/>
<path d="M622.616 186.489L626.624 194.855L628.431 194.017L643.971 178.172L634.41 173.044L622.616 186.489Z" fill="white"/>
<path d="M754.321 302.728L744.275 293.456L735.009 303.507L745.054 312.78L754.321 302.728Z" fill="white"/>
<path d="M495.54 367.825L484.989 368.788L486.084 380.803L496.635 379.84L495.54 367.825Z" fill="white"/>
<path d="M522.792 431.424L518.885 430.607L517.564 436.93L521.471 437.747L522.792 431.424Z" fill="white"/>
<path d="M527.934 432.488L524.027 431.67L522.706 437.993L526.613 438.81L527.934 432.488Z" fill="white"/>
<path d="M533.057 433.58L529.15 432.763L527.829 439.086L531.736 439.903L533.057 433.58Z" fill="white"/>
<path d="M490.269 373.62C493.199 373.62 495.574 371.243 495.574 368.31C495.574 365.378 493.199 363.001 490.269 363.001C487.338 363.001 484.963 365.378 484.963 368.31C484.963 371.243 487.338 373.62 490.269 373.62Z" fill="white"/>
<path d="M409.056 549.524C409.844 535.635 399.808 523.784 386.667 523.045L356.409 521.335C343.268 520.595 331.967 531.246 331.195 545.135C330.406 559.024 340.443 570.875 353.584 571.615L383.841 573.324C396.983 574.064 408.284 563.413 409.056 549.524ZM383.743 564.202L354.668 562.558C346.291 562.081 339.917 554.537 340.41 545.694C340.903 536.851 348.098 530.063 356.475 530.54L385.55 532.183C393.927 532.66 400.301 540.204 399.808 549.047C399.315 557.89 392.12 564.678 383.743 564.202Z" fill="white"/>
<path d="M352.357 535.782L351.155 557.083L369.048 558.093L370.249 536.792L352.357 535.782Z" fill="white"/>
<path d="M371.241 536.842L370.04 558.142L387.933 559.153L389.134 537.852L371.241 536.842Z" fill="white"/>
<path d="M380.923 518.602L362.046 517.536L361.695 523.755L380.572 524.821L380.923 518.602Z" fill="white"/>
<path d="M245.399 587.64L262.055 572.864L275.344 587.887L252.544 608.104L242.886 597.223L245.399 587.64Z" fill="white"/>
<path d="M250.395 597.377L262.061 572.915L253.314 568.739L241.648 593.2L250.395 597.377Z" fill="white"/>
<path d="M247.959 592.963L261.214 574.3L253.314 568.682L240.059 587.346L247.959 592.963Z" fill="white"/>
<path d="M252.523 608.051L266.784 585.009L252.386 576.086L238.124 599.129L252.523 608.051Z" fill="white"/>
<path d="M240.045 587.361L241.178 596.976L248.57 594.018L248.324 584.468L240.045 587.361Z" fill="white"/>
<path d="M368.705 574.97L358.405 574.388L357.986 581.822L368.285 582.404L368.705 574.97Z" fill="white"/>
<path d="M380.132 575.613L369.833 575.032L369.414 582.466L379.713 583.047L380.132 575.613Z" fill="white"/>
<path d="M336.156 380.588C339.25 380.588 341.757 378.079 341.757 374.984C341.757 371.888 339.25 369.379 336.156 369.379C333.063 369.379 330.555 371.888 330.555 374.984C330.555 378.079 333.063 380.588 336.156 380.588Z" fill="white"/>
<path d="M333.419 176.033L314.33 185.757L320.881 198.633L339.969 188.909L333.419 176.033Z" fill="white"/>
<path d="M244.928 208.358L257.681 196.714L251.414 189.842L238.661 201.486L244.928 208.358Z" fill="white"/>
<path d="M217.39 199.298L224.343 192.95L212.772 180.262L205.82 186.61L217.39 199.298Z" fill="white"/>
<path d="M221.548 209.079L225.148 203.364L210.628 194.204L207.027 199.918L221.548 209.079Z" fill="white"/>
<path d="M225.849 207.813L228.818 203.1L214.298 193.939L211.328 198.653L225.849 207.813Z" fill="white"/>
<path d="M233.656 199.477L236.626 194.763L227.066 188.732L224.096 193.446L233.656 199.477Z" fill="white"/>
<path d="M238.726 207.548L241.696 202.835L232.136 196.804L229.166 201.517L238.726 207.548Z" fill="white"/>
<path d="M236.148 211.926L241.352 203.667L222.454 191.746L217.25 200.005L236.148 211.926Z" fill="white"/>
<path d="M202.326 185.881L212.593 172.425L199.145 162.152L188.878 175.608L202.326 185.881Z" fill="white"/>
<path d="M157.927 218.741L166.43 207.597L146.036 192.018L137.533 203.162L157.927 218.741Z" fill="white"/>
<path d="M189.052 231.607L195.732 221.722L182.452 212.736L175.771 222.62L189.052 231.607Z" fill="white"/>
<path d="M205.506 227.12L203.531 216.889L187.225 220.039L189.2 230.271L205.506 227.12Z" fill="white"/>
<path d="M224.663 244.631L223.33 238.461L208.993 241.563L210.326 247.732L224.663 244.631Z" fill="#FEDF73"/>
<path d="M220.372 274.743L218.563 266.373L204.772 269.357L206.58 277.727L220.372 274.743Z" fill="#FEDF73"/>
<path d="M168.937 298.836L171.959 295.258L155.736 281.54L152.715 285.118L168.937 298.836Z" fill="white"/>
<path d="M172.39 288.851L176.674 283.779L170.488 278.549L166.205 283.62L172.39 288.851Z" fill="white"/>
<path d="M171.226 282.999L173.113 280.764L166.928 275.534L165.041 277.769L171.226 282.999Z" fill="white"/>
<path d="M173.481 289.767L176.1 286.667L173.001 284.046L170.382 287.147L173.481 289.767Z" fill="white"/>
<path d="M162.498 306.796L165.52 303.218L149.297 289.501L146.275 293.079L162.498 306.796Z" fill="white"/>
<path d="M137.454 306.76L140.476 303.182L122.597 288.064L119.575 291.642L137.454 306.76Z" fill="white"/>
<path d="M100.585 289.217L106.121 287.755L119.36 298.636L116.338 302.219L100.585 289.217Z" fill="white"/>
<path d="M106.283 308.689L109.305 305.111L99.6314 296.932L96.6097 300.51L106.283 308.689Z" fill="white"/>
<path d="M104.313 309.714L107.747 305.654L115.221 311.966L109.636 314.234L104.313 309.714Z" fill="white"/>
<path d="M125.161 309.701L128.183 306.123L120.592 299.705L117.57 303.282L125.161 309.701Z" fill="white"/>
<path d="M230.802 284.103L228.993 275.733L220.628 277.543L222.437 285.913L230.802 284.103Z" fill="#FEDF73"/>
<path d="M244.212 271.415L241.733 259.944L226.545 263.23L229.023 274.701L244.212 271.415Z" fill="#FEDF73"/>
<path d="M234.105 276.779L232.547 269.566L216.01 273.144L217.568 280.357L234.105 276.779Z" fill="#FEDF73"/>
<path d="M195.525 239.4L194.699 235.124L174.668 238.994L175.493 243.271L195.525 239.4Z" fill="white"/>
<path d="M108.016 215.77L117.766 209.217L114.496 204.346L104.746 210.899L108.016 215.77Z" fill="white"/>
<path d="M99.0258 229.075L109.13 222.284L103.332 213.647L93.2279 220.438L99.0258 229.075Z" fill="white"/>
<path d="M99.5405 256.02L116.947 254.115L115.896 244.491L98.4888 246.396L99.5405 256.02Z" fill="white"/>
<path d="M129.74 238.354L130.158 244.009L134.516 243.687L134.098 238.031L129.74 238.354Z" fill="white"/>
<path d="M123.818 257.273L124.236 262.928L128.594 262.606L128.176 256.951L123.818 257.273Z" fill="white"/>
<path d="M120.765 259.442L121.039 263.146L125.397 262.824L125.123 259.119L120.765 259.442Z" fill="white"/>
<path d="M130.144 243.996L124.195 255.573L128.081 257.572L134.03 245.995L130.144 243.996Z" fill="white"/>
<path d="M100.185 233.896L105.693 230.194L101.682 224.217L96.1727 227.92L100.185 233.896Z" fill="white"/>
<path d="M99.3994 222.257L106.026 217.803L102.015 211.827L95.3876 216.281L99.3994 222.257Z" fill="white"/>
<path d="M112.111 214.846L118.615 210.474L115.345 205.603L108.841 209.975L112.111 214.846Z" fill="white"/>
<path d="M121.151 240.883L124.328 238.748L115.059 224.94L111.882 227.075L121.151 240.883Z" fill="white"/>
<path d="M139.631 225.142L143.518 222.53L140.632 218.232L136.746 220.844L139.631 225.142Z" fill="white"/>
<path d="M131.501 214.532L135.005 212.177L132.12 207.879L128.615 210.234L131.501 214.532Z" fill="white"/>
<path d="M138.257 221.194L141.993 218.683L136.516 210.524L132.78 213.035L138.257 221.194Z" fill="white"/>
<path d="M192.62 255.747L191.795 251.47L172.715 255.157L173.54 259.434L192.62 255.747Z" fill="white"/>
<path d="M181.631 257.862L180.023 249.535L171.927 251.099L173.534 259.427L181.631 257.862Z" fill="white"/>
<path d="M185.473 250.886L183.018 246.668L175.892 250.821L178.348 255.039L185.473 250.886Z" fill="white"/>
<path d="M179.994 245.485L179.169 241.208L175.25 241.966L176.075 246.242L179.994 245.485Z" fill="white"/>
<path d="M197.435 249.302L194.853 235.923L190.256 236.811L192.838 250.19L197.435 249.302Z" fill="white"/>
<path d="M209.368 255.523L206.47 242.109L200.192 243.467L203.091 256.882L209.368 255.523Z" fill="#FEDF73"/>
<path d="M233.09 251.438L230.077 237.493L224.972 238.597L227.985 252.542L233.09 251.438Z" fill="#FEDF73"/>
<path d="M232.343 239.761L231.673 236.661L204.347 242.572L205.016 245.673L232.343 239.761Z" fill="#FEDF73"/>
<path d="M179.137 204.651L183.457 207.068L186.299 221.795L177.429 223.504L175.129 211.571L179.137 204.651Z" fill="white"/>
<path d="M141.28 202.437L149.035 192.272L138.107 183.924L130.352 194.088L141.28 202.437Z" fill="white"/>
<path d="M126.294 205.449L138.345 189.654L128.722 182.303L116.671 198.098L126.294 205.449Z" fill="white"/>
<path d="M172.075 175.872L177.278 169.052L167.251 161.392L162.048 168.212L172.075 175.872Z" fill="white"/>
<path d="M181.276 182.906L185.463 177.419L172.276 167.345L168.089 172.832L181.276 182.906Z" fill="white"/>
<path d="M163.965 192.027L168.151 186.54L149.703 172.446L145.516 177.933L163.965 192.027Z" fill="white"/>
<path d="M142.324 182.166L149.092 173.29L162.151 183.267L157.519 189.349L152.985 190.302L142.324 182.166Z" fill="white"/>
<path d="M167.06 177.776L172.163 171.087L166.901 167.067L161.798 173.756L167.06 177.776Z" fill="white"/>
<path d="M202.317 188.187L207.052 181.981L200.85 177.244L196.115 183.449L202.317 188.187Z" fill="white"/>
<path d="M215.16 205.062L218.298 200.082L236.416 211.505L230.19 221.367L215.16 205.062Z" fill="white"/>
<path d="M229.697 198.75L232.769 193.885L246.978 202.86L244.925 208.349L229.697 198.75Z" fill="white"/>
<path d="M130.137 243.984L134.013 245.973L134.49 243.655L130.137 243.984Z" fill="white"/>
<path d="M123.778 257.249L128.131 256.936L124.189 255.556L123.778 257.249Z" fill="white"/>
<path d="M133.849 282.347L144.509 291.371L147.548 287.788L139.631 281.098L133.849 282.347Z" fill="white"/>
<path d="M145.134 279.914L150.423 284.385L154.464 279.586L152.903 278.238L145.134 279.914Z" fill="white"/>
<path d="M296.195 385.805L278.495 387.42L279.405 397.405L297.105 395.79L296.195 385.805Z" fill="white"/>
<path d="M313.102 398.362L311.741 383.433L303.873 384.151L305.233 399.08L313.102 398.362Z" fill="white"/>
<path d="M299.975 418.168L297.92 395.612L288.039 396.514L290.095 419.07L299.975 418.168Z" fill="white"/>
<path d="M327.785 397.013L326.425 382.085L318.556 382.803L319.917 397.731L327.785 397.013Z" fill="white"/>
<path d="M327.223 391.097L287.881 394.687L288.665 403.297L328.008 399.707L327.223 391.097Z" fill="white"/>
<path d="M431.005 246.393L431.048 265.492L439.885 265.472L439.842 246.373L431.005 246.393Z" fill="#9F81A1"/>
<path d="M430.949 218.849L431.007 244.392L438.399 244.375L438.341 218.832L430.949 218.849Z" fill="#9F81A1"/>
<path d="M431.047 267.953L431.068 277.207L469.046 277.121L469.025 267.867L431.047 267.953Z" fill="#9F81A1"/>
<path d="M481.99 255.128L482.006 264.382L466.631 264.513L468.963 255.259L481.99 255.128Z" fill="#9F81A1"/>
<path d="M435.273 221.86C437.293 220.989 439.56 220.66 441.893 221.022C448.48 222.058 452.981 228.221 451.962 234.812C451.683 236.62 451.009 238.264 450.057 239.694L442.862 235.536H432.842L435.273 221.86Z" fill="#9F81A1"/>
<path d="M483.994 243.327L444.801 243.294L444.817 252.548L479.395 252.465L477.9 255.161L482.007 264.382L491.14 247.354L483.994 243.327Z" fill="#9F81A1"/>
<path d="M502.825 339.496L493.77 341.455L499.681 368.814L508.736 366.855L502.825 339.496Z" fill="#E6B8B8"/>
<path d="M475.723 358.772L465.957 359.663L467.662 378.372L477.428 377.481L475.723 358.772Z" fill="white"/>
<path d="M472.468 361.945L469.229 362.24L470.674 378.102L473.913 377.806L472.468 361.945Z" fill="white"/>
<path d="M475.502 368.634L474.886 361.874L462.404 363.013L463.02 369.773L475.502 368.634Z" fill="white"/>
<path d="M484.803 323.703L476.855 325.422L482.423 351.191L490.371 349.472L484.803 323.703Z" fill="#E6B8B8"/>
<path d="M435.884 320.984L435.908 331.619L471.586 331.538L471.562 320.903L435.884 320.984Z" fill="#E6B8B8"/>
<path d="M450.411 333.712L450.443 348.061L462.369 348.034L462.336 333.685L450.411 333.712Z" fill="#E6B8B8"/>
<path d="M468.06 325.115L468.065 327.318L479.005 327.293L479 325.09L468.06 325.115Z" fill="#E6B8B8"/>
<path d="M487.059 345.507L487.524 347.66L498.217 345.347L497.752 343.194L487.059 345.507Z" fill="#E6B8B8"/>
<path d="M492.408 341.747L490.257 342.212L491.763 349.185L493.915 348.719L492.408 341.747Z" fill="#E6B8B8"/>
<path d="M454.765 329.259L454.795 342.425L457.998 342.418L457.968 329.252L454.765 329.259Z" fill="#E6B8B8"/>
<path d="M430.261 282.156L430.314 305.545L440.088 305.523L440.035 282.134L430.261 282.156Z" fill="#E6B8B8"/>
<path d="M414.53 275.238L414.577 296.08L424.17 296.058L424.123 275.217L414.53 275.238Z" fill="#E6B8B8"/>
<path d="M462.682 289.591L462.726 308.756L473.551 308.732L473.507 289.567L462.682 289.591Z" fill="#E6B8B8"/>
<path d="M467.214 289.056L467.243 301.876L477.05 301.854L477.021 289.034L467.214 289.056Z" fill="#E6B8B8"/>
<path d="M435.473 307.607L435.493 316.565L473.569 316.479L473.549 307.521L435.473 307.607Z" fill="#E6B8B8"/>
<path d="M444.639 282.115L444.663 292.617L477.023 292.544L476.999 282.041L444.639 282.115Z" fill="#E6B8B8"/>
<path d="M418.92 457.908L410.672 456.182L404.869 483.951L413.117 485.677L418.92 457.908Z" fill="#A76DAB"/>
<path d="M411.921 492.652L407.697 480.426L369.413 493.669L373.637 505.895L411.921 492.652Z" fill="#A76DAB"/>
<path d="M389.657 509.698L385.436 497.469L408.679 489.415L410.979 496.089L406.757 503.781L389.657 509.698Z" fill="#A76DAB"/>
<path d="M397.565 497.645L394.672 489.272L356.387 502.515L359.28 510.888L397.565 497.645Z" fill="#A76DAB"/>
<path d="M414.46 499.359C419.25 499.359 423.133 495.474 423.133 490.681C423.133 485.888 419.25 482.002 414.46 482.002C409.67 482.002 405.787 485.888 405.787 490.681C405.787 495.474 409.67 499.359 414.46 499.359Z" fill="#A76DAB"/>
<path d="M301.237 503.267L283.536 474.545L277.3 478.393L295.001 507.115L301.237 503.267Z" fill="#FBD59E"/>
<path d="M297.108 508.309L286.589 491.241L280.353 495.089L290.872 512.157L297.108 508.309Z" fill="#FBD59E"/>
<path d="M293.189 510.723L317.657 495.625L312.958 488L288.49 503.098L293.189 510.723Z" fill="#FBD59E"/>
<path d="M315.177 495.256L317.046 487.372L308.335 485.305L306.467 493.189L315.177 495.256Z" fill="#FBD59E"/>
<path d="M317.067 487.343L313.748 481.957L308.365 485.278L311.684 490.664L317.067 487.343Z" fill="#FBD59E"/>
<path d="M297.884 503.057C300.868 503.057 303.288 500.636 303.288 497.65C303.288 494.663 300.868 492.242 297.884 492.242C294.899 492.242 292.479 494.663 292.479 497.65C292.479 500.636 294.899 503.057 297.884 503.057Z" fill="#FBD59E"/>
<path d="M366.361 416.42L372.305 412.078L360.682 396.148L354.739 400.489L366.361 416.42Z" fill="#62908D"/>
<path d="M345.382 401.727L348.665 406.227L357.037 400.112L353.753 395.611L345.382 401.727Z" fill="#62908D"/>
<path d="M357.265 408.059L359.231 410.754L365.348 406.286L363.382 403.591L357.265 408.059Z" fill="#62908D"/>
<path d="M352.236 417.789L354.376 420.723L358.728 417.544L356.587 414.61L352.236 417.789Z" fill="#62908D"/>
<path d="M371.211 404.257L373.313 407.166L372.311 412.064L362.915 418.935L358.825 413.314L371.211 404.257Z" fill="#62908D"/>
<path d="M376.744 429.148L370.148 420.108L362.069 426.01L368.664 435.05L376.744 429.148Z" fill="#62908D"/>
<path d="M372.527 429.573L365.932 420.533L361.845 423.518L368.441 432.558L372.527 429.573Z" fill="#62908D"/>
<path d="M379.245 432.556L372.649 423.515L368.125 426.82L374.721 435.861L379.245 432.556Z" fill="#62908D"/>
<path d="M379.951 433.534L378.13 431.038L371.987 435.525L373.808 438.021L379.951 433.534Z" fill="#62908D"/>
<path d="M367.49 429.117L364.119 424.497L360.418 427.201L363.788 431.821L367.49 429.117Z" fill="#62908D"/>
<path d="M389.659 422.841L381.154 423.934L382.289 432.77L390.793 431.677L389.659 422.841Z" fill="#62908D"/>
<path d="M399.592 419.735L393.743 420.487L394.779 428.557L400.628 427.805L399.592 419.735Z" fill="#62908D"/>
<path d="M402.704 416.752L398.614 417.277L399.65 425.347L403.74 424.822L402.704 416.752Z" fill="#62908D"/>
<path d="M405.617 404.723L400.632 405.364L402.476 419.727L407.461 419.086L405.617 404.723Z" fill="#62908D"/>
<path d="M399.649 414.334L395.56 414.86L396.085 418.952L400.174 418.426L399.649 414.334Z" fill="#62908D"/>
<path d="M403.486 408.207L399.396 408.733L399.922 412.825L404.011 412.299L403.486 408.207Z" fill="#62908D"/>
<path d="M406.646 401.14L403.11 401.595L403.636 405.687L407.171 405.232L406.646 401.14Z" fill="#62908D"/>
<path d="M410.617 408.251L403.077 409.204L402.552 405.112L410.091 404.142L410.617 408.251Z" fill="#62908D"/>
<path d="M393.344 436.532L391.348 420.979L387.845 421.429L389.841 436.982L393.344 436.532Z" fill="#62908D"/>
<path d="M410.617 408.251L407.463 419.116L404.03 416.486L403.308 407.347L409.221 406.608L410.617 408.251Z" fill="#62908D"/>
<path d="M353.765 395.611L360.681 396.137L360.796 400.624L353.437 399.951L353.732 395.841" fill="#62908D"/>
<path d="M349.678 402.955L345.398 401.727L343.212 409.358L347.491 410.586L349.678 402.955Z" fill="#62908D"/>
<path d="M345.217 406.512L340.938 405.284L337.628 416.834L341.907 418.062L345.217 406.512Z" fill="#62908D"/>
<path d="M356.228 422.175L357.292 418.462L343.665 414.552L342.601 418.265L356.228 422.175Z" fill="#62908D"/>
<path d="M354.89 419.525L355.954 415.812L348.012 413.533L346.948 417.246L354.89 419.525Z" fill="#62908D"/>
<path d="M356.46 424.048L357.714 419.672L351.461 417.878L350.207 422.254L356.46 424.048Z" fill="#62908D"/>
<path d="M356.448 424.042L359.849 421.017L356.116 416.816L352.715 419.841L356.448 424.042Z" fill="#62908D"/>
<path d="M666.482 221.9L660.364 213.815L638.873 230.096L644.991 238.182L666.482 221.9Z" fill="#B2D4DD"/>
<path d="M676.397 378.479L670.775 372.242L652.601 388.645L658.223 394.882L676.397 378.479Z" fill="#B2D4DD"/>
<path d="M662.138 374.775L659.938 363.264L624.266 370.093L626.466 381.603L662.138 374.775Z" fill="#B2D4DD"/>
<path d="M652.623 361.981L649.213 344.142L643.518 345.232L646.928 363.071L652.623 361.981Z" fill="#B2D4DD"/>
<path d="M663.296 359.942L660.432 344.961L649.541 347.046L652.406 362.027L663.296 359.942Z" fill="#B2D4DD"/>
<path d="M648.783 341.843L646.895 331.963L607.205 339.561L609.094 349.441L648.783 341.843Z" fill="#B2D4DD"/>
<path d="M645.416 324.309L643.719 315.43L612.58 321.39L614.278 330.269L645.416 324.309Z" fill="#B2D4DD"/>
<path d="M639.736 327.404L637.298 314.65L618.276 318.292L620.714 331.045L639.736 327.404Z" fill="#B2D4DD"/>
<path d="M636.841 396.509L634.311 383.271L596.928 390.427L599.459 403.665L636.841 396.509Z" fill="#B2D4DD"/>
<path d="M623.692 381.634L621.67 371.06L599.889 375.229L601.911 385.803L623.692 381.634Z" fill="#B2D4DD"/>
<path d="M609.401 416.622L607.207 405.144L569.825 412.3L572.019 423.778L609.401 416.622Z" fill="#B2D4DD"/>
<path d="M610.96 440.267L608.954 429.774L574.428 436.383L576.434 446.876L610.96 440.267Z" fill="white"/>
<path d="M613.579 439.79L610.175 421.984L599.204 424.084L602.608 441.89L613.579 439.79Z" fill="white"/>
<path d="M627.411 433.767L621.467 402.674L610.302 404.811L616.247 435.904L627.411 433.767Z" fill="#B2D4DD"/>
<path d="M610.321 370.645L604.426 339.81L590.631 342.451L596.526 373.285L610.321 370.645Z" fill="#B2D4DD"/>
<path d="M677.302 459.758L653.121 435.35L643.73 444.665L667.911 469.073L677.302 459.758Z" fill="#B2D4DD"/>
<path d="M658.46 440.731L653.141 435.361L612.322 475.85L617.642 481.22L658.46 440.731Z" fill="#B2D4DD"/>
<path d="M661.597 475.363L640.781 454.352L631.39 463.667L652.206 484.679L661.597 475.363Z" fill="#B2D4DD"/>
<path d="M641.986 487.015L625.056 469.926L615.665 479.241L632.595 496.33L641.986 487.015Z" fill="#B2D4DD"/>
<path d="M617.376 486.029L611.561 487.246L607.077 485.076L587.628 488.889L585.361 477.367L614.551 471.631L617.376 486.029Z" fill="#B2D4DD"/>
<path d="M629.022 486.785L625.671 487.525L622.829 485.027L611.561 487.246L609.311 475.723L626.197 472.403L629.022 486.785Z" fill="#B2D4DD"/>
<path d="M622.118 470.107L608.127 472.856L608.902 476.807L622.893 474.058L622.118 470.107Z" fill="#B2D4DD"/>
<path d="M625.819 415.089C628.513 415.089 630.698 412.903 630.698 410.207C630.698 407.511 628.513 405.326 625.819 405.326C623.125 405.326 620.94 407.511 620.94 410.207C620.94 412.903 623.125 415.089 625.819 415.089Z" fill="#B2D4DD"/>
<path d="M674.8 364.7L667.675 363.587L665.35 378.495L672.475 379.608L674.8 364.7Z" fill="#B2D4DD"/>
<path d="M736.488 392.023L724.386 379.82L712.19 391.93L724.292 404.134L736.488 392.023Z" fill="#8384BF"/>
<path d="M725.136 411.517L698.258 384.415L673.399 409.099L700.278 436.201L725.136 411.517Z" fill="#8384BF"/>
<path d="M708.244 422.438L687.348 401.368L671.7 416.905L692.597 437.976L708.244 422.438Z" fill="#8384BF"/>
<path d="M688.38 441.423L667.854 420.726L657.092 431.412L677.618 452.109L688.38 441.423Z" fill="#8384BF"/>
<path d="M689.537 125.64L685.349 84.8613" stroke="#DCDDDD" stroke-width="0.5" stroke-miterlimit="10"/>
<path d="M758.692 118.425L830.492 260.782" stroke="#DCDDDD" stroke-width="0.5" stroke-miterlimit="10"/>
<path d="M939.908 66.5347L965.632 101.742L1060.58 116.403" stroke="#DCDDDD" stroke-width="0.5" stroke-miterlimit="10"/>
<path d="M-190.918 348.028L445.835 210.766L536.985 276.216L580.187 285.388L617.376 277.548L673.899 233.103L687.96 251.578L787.34 175.246L817.877 167.423L811.175 112.952" stroke="#DCDDDD" stroke-width="0.5" stroke-miterlimit="10"/>
<path d="M715.277 230.588L777.829 290.91" stroke="#DCDDDD" stroke-width="0.5" stroke-miterlimit="10"/>
<path d="M587.579 136.292L583.226 164.447L569.034 171.877L562.118 220.282" stroke="#DCDDDD" stroke-width="0.5" stroke-miterlimit="10"/>
<path d="M314.292 676.907L526.439 467.686L617.047 454.438L777.829 290.91L948.91 193.014L1107.42 84.2532L1045.38 -5.4248L882.859 105.456L391.414 156.771L401.483 309.139L228.086 363.149L223.52 455.802L368.778 623.718" stroke="#DCDDDD" stroke-width="0.5" stroke-miterlimit="10"/>
<path d="M160.952 603.995L343.039 648.554" stroke="#DCDDDD" stroke-width="0.5" stroke-miterlimit="10"/>
<path d="M338.998 589.284L400.909 591.749" stroke="#DCDDDD" stroke-width="0.5" stroke-miterlimit="10"/>
<path d="M45.1455 942.325L526.439 467.686L617.047 454.438L777.829 290.91L948.91 193.014L1107.42 84.2532L1045.38 -5.4248L882.859 105.456L391.414 156.771L401.484 309.139L228.086 363.149L223.52 455.802L368.779 623.718" stroke="#DCDDDD" stroke-width="0.5" stroke-miterlimit="10"/>
<path d="M160.952 603.995L343.039 648.554" stroke="#DCDDDD" stroke-width="0.5" stroke-miterlimit="10"/>
<path d="M338.997 589.284L400.908 591.749" stroke="#DCDDDD" stroke-width="0.5" stroke-miterlimit="10"/>
<path d="M382.856 448.488C385.306 448.488 387.291 446.501 387.291 444.05C387.291 441.599 385.306 439.612 382.856 439.612C380.407 439.612 378.421 441.599 378.421 444.05C378.421 446.501 380.407 448.488 382.856 448.488Z" stroke="#DCDDDD" stroke-width="0.5" stroke-miterlimit="10"/>
<path d="M310.203 556L363.983 463.643L330.835 418.015L336.157 385.536L380.048 397.979L495.592 389.908L515.172 368.573L506.219 320.99L515.172 289.119L484.964 268.294L496.676 247.271" stroke="#DCDDDD" stroke-width="0.5" stroke-miterlimit="10"/>
<path d="M228.087 363.149L111.263 401.578" stroke="#DCDDDD" stroke-width="0.5" stroke-miterlimit="10"/>
<path d="M378.422 444.05L349.265 443.393" stroke="#DCDDDD" stroke-width="0.5" stroke-miterlimit="10"/>
<path d="M225.886 407.988L281.538 403.32" stroke="#DCDDDD" stroke-width="0.5" stroke-miterlimit="10"/>
<path d="M463.297 392.16L444.784 485.7L471.559 521.746" stroke="#DCDDDD" stroke-width="0.5" stroke-miterlimit="10"/>
<path d="M580.148 398.795L575.731 375.694L562.566 378.214L566.983 401.316L580.148 398.795Z" fill="#FEDF73"/>
<path d="M589.028 383.4L584.611 360.298L571.446 362.818L575.863 385.92L589.028 383.4Z" fill="#FEDF73"/>
<path d="M586.013 370.358L584.1 360.348L577.517 361.608L579.431 371.618L586.013 370.358Z" fill="#FEDF73"/>
<path d="M590.939 316.553L515.145 300.695L511.177 319.679L586.972 335.537L590.939 316.553Z" fill="#FEDF73"/>
<path d="M574.85 336.249L521.79 325.148L518.213 342.266L571.273 353.368L574.85 336.249Z" fill="#FEDF73"/>
<path d="M569.169 345.038L523.474 335.477L520.021 352L565.717 361.561L569.169 345.038Z" fill="#FEDF73"/>
<path d="M557.017 377.125L520.808 369.549L518.058 382.71L554.267 390.285L557.017 377.125Z" fill="#FEDF73"/>
<path d="M492.046 397.346L475.389 393.861L471.048 414.632L487.706 418.117L492.046 397.346Z" fill="#FEDF73"/>
<path d="M485.911 463.309L460.78 458.051L454.857 486.399L479.988 491.657L485.911 463.309Z" fill="#FEDF73"/>
<path d="M484.974 467.819L466.757 464.007L460.954 491.776L479.171 495.588L484.974 467.819Z" fill="#FEDF73"/>
<path d="M469.194 459.803L454.756 456.782L451.969 470.12L466.407 473.141L469.194 459.803Z" fill="#FEDF73"/>
<path d="M490.439 405.097L479.489 402.806L475.149 423.577L486.099 425.868L490.439 405.097Z" fill="#FEDF73"/>
<path d="M465.674 434.838L458.746 439.373L469.141 455.274L476.069 450.739L465.674 434.838Z" fill="#FEDF73"/>
<path d="M492.042 452.564L464.955 446.894L470.622 419.79L486.654 423.143L495.59 435.076L492.042 452.564Z" fill="#FEDF73"/>
<path d="M244.628 546.783L249.921 538.23L232.185 527.24L226.892 535.792L244.628 546.783Z" fill="#FEDF73"/>
<path d="M216.196 580.879L236.485 548.096L209.03 531.083L188.74 563.865L216.196 580.879Z" fill="#FEDF73"/>
<path d="M190.279 569.628L214.573 530.376L210.886 528.091L186.592 567.344L190.279 569.628Z" fill="#FEDF73"/>
<path d="M215.872 585.505L239.708 546.993L236.342 544.907L212.507 583.419L215.872 585.505Z" fill="#FEDF73"/>
<path d="M226.712 575.514L241.691 551.311L214.236 534.297L199.256 558.5L226.712 575.514Z" fill="#FEDF73"/>
<path d="M216.655 581.165L230.989 577.896L229.416 570.989L215.082 574.258L216.655 581.165Z" fill="#FEDF73"/>
<path d="M226.024 545.358L235.512 530.029L231.867 527.77L222.379 543.1L226.024 545.358Z" fill="#FEDF73"/>
<path d="M240.206 554.009L249.693 538.679L246.048 536.421L236.561 551.75L240.206 554.009Z" fill="#FEDF73"/>
<path d="M339.541 475.387L322.245 447.322L314.835 451.894L332.13 479.959L339.541 475.387Z" fill="#FEDF73"/>
<path d="M354.65 466.091L340.562 443.23L323.238 453.919L337.326 476.78L354.65 466.091Z" fill="#FEDF73"/>
<path d="M353.715 469.793L336.868 442.456L330.283 446.519L347.13 473.857L353.715 469.793Z" fill="#FEDF73"/>
<path d="M350.887 474.074L344.291 463.372L341.662 464.993L348.258 475.696L350.887 474.074Z" fill="#FEDF73"/>
<path d="M215.019 590.94L184.36 586.153L181.919 601.808L212.577 606.596L215.019 590.94Z" fill="#FEDF73"/>
<path d="M208.036 586.764L201.122 585.685L198.68 601.34L205.594 602.42L208.036 586.764Z" fill="#FEDF73"/>
<path d="M321.087 593.522L306.165 587.61L293.732 619.031L308.654 624.942L321.087 593.522Z" fill="#FEDF73"/>
<path d="M768.603 329.16L758.558 319.888L749.291 329.94L759.337 339.212L768.603 329.16Z" fill="white"/>
<path d="M517.767 212.508C526.449 212.508 533.487 205.465 533.487 196.778C533.487 188.091 526.449 181.048 517.767 181.048C509.085 181.048 502.047 188.091 502.047 196.778C502.047 205.465 509.085 212.508 517.767 212.508Z" fill="#FEDF73"/>
<path d="M504.626 212.524C506.844 213.675 509.307 214.497 511.952 214.908C523.943 216.781 535.048 209.451 536.756 198.537C538.464 187.623 530.12 177.251 518.112 175.378C516.749 175.164 515.385 175.065 514.055 175.082C514.055 175.082 533.865 177.81 531.664 198.816C531.664 198.816 525.767 216.699 505.595 210.618L504.626 212.508V212.524Z" fill="#FEDF73"/>
<path d="M386.203 193.549L377.16 204.791L380.654 207.605L389.697 196.362L386.203 193.549Z" fill="#FEDF73"/>
<path d="M365.46 185.372L360.084 192.056L363.577 194.869L368.954 188.186L365.46 185.372Z" fill="#FEDF73"/>
<path d="M369.083 200.961L366.601 204.047L370.094 206.86L372.576 203.774L369.083 200.961Z" fill="#FEDF73"/>
<path d="M369.93 197.187L364.142 204.383L366.547 206.321L372.336 199.125L369.93 197.187Z" fill="#FEDF73"/>
<path d="M372.36 201.347L366.768 208.3L369.173 210.237L374.766 203.284L372.36 201.347Z" fill="#FEDF73"/>
<path d="M375.894 204.18L368.907 198.553L366.971 200.961L373.958 206.588L375.894 204.18Z" fill="#FEDF73"/>
<path d="M372.02 206.815L364.803 201.002L362.866 203.409L370.084 209.222L372.02 206.815Z" fill="#FEDF73"/>
<path d="M353.574 199.251L351.105 202.156L354.397 204.956L356.865 202.051L353.574 199.251Z" fill="#FEDF73"/>
<path d="M358.033 198.623L352.267 205.41L354.544 207.348L360.311 200.56L358.033 198.623Z" fill="#FEDF73"/>
<path d="M353.65 197.083L348.086 203.632L350.364 205.57L355.928 199.02L353.65 197.083Z" fill="#FEDF73"/>
<path d="M351.715 199.334L357.297 204.082L359.233 201.803L353.652 197.054L351.715 199.334Z" fill="#FEDF73"/>
<path d="M348.908 202.659L355.716 208.45L357.652 206.171L350.844 200.379L348.908 202.659Z" fill="#FEDF73"/>
<path d="M358.917 213.788L356.435 216.874L359.928 219.688L362.41 216.602L358.917 213.788Z" fill="#FEDF73"/>
<path d="M359.774 210.002L353.985 217.198L356.391 219.136L362.179 211.94L359.774 210.002Z" fill="#FEDF73"/>
<path d="M362.187 214.162L356.595 221.114L359 223.052L364.593 216.099L362.187 214.162Z" fill="#FEDF73"/>
<path d="M365.726 216.967L358.739 211.34L356.803 213.748L363.79 219.375L365.726 216.967Z" fill="#FEDF73"/>
<path d="M361.841 219.614L354.624 213.802L352.688 216.209L359.905 222.022L361.841 219.614Z" fill="#FEDF73"/>
<path d="M339.624 213.199L341.644 216.871L345.803 214.581L343.784 210.909L339.624 213.199Z" fill="#FEDF73"/>
<path d="M340.717 208.379L345.429 216.948L348.307 215.363L343.596 206.795L340.717 208.379Z" fill="#FEDF73"/>
<path d="M337.439 212.266L341.992 220.546L344.871 218.962L340.317 210.681L337.439 212.266Z" fill="#FEDF73"/>
<path d="M337.73 215.862L346.049 211.282L344.465 208.402L336.147 212.982L337.73 215.862Z" fill="#FEDF73"/>
<path d="M341.308 219.327L349.899 214.596L348.316 211.716L339.724 216.447L341.308 219.327Z" fill="#FEDF73"/>
<path d="M350.072 181.676L342.522 191.061L346.016 193.875L353.565 184.489L350.072 181.676Z" fill="#FEDF73"/>
<path d="M338.927 197.509L317.627 209.236L320.549 214.55L341.849 202.823L338.927 197.509Z" fill="#FEDF73"/>
<path d="M299.712 203.597L285.22 211.575L287.025 214.859L301.518 206.88L299.712 203.597Z" fill="#FEDF73"/>
<path d="M280.661 206.722L271.81 211.595L274.114 215.785L282.965 210.912L280.661 206.722Z" fill="#FEDF73"/>
<path d="M259.787 227.357L253.368 230.891L255.284 234.376L261.703 230.842L259.787 227.357Z" fill="#FEDF73"/>
<path d="M268.42 224.799L260.116 229.371L262.603 233.892L270.907 229.321L268.42 224.799Z" fill="#FEDF73"/>
<path d="M261.428 229.895L259.37 231.028L261.334 234.6L263.392 233.467L261.428 229.895Z" fill="#FEDF73"/>
<path d="M284.157 202.283L277.436 205.983L279.724 210.145L286.445 206.444L284.157 202.283Z" fill="#FEDF73"/>
<path d="M288.396 192.452L280.164 196.984L282.555 201.333L290.788 196.801L288.396 192.452Z" fill="#FEDF73"/>
<path d="M289.253 189.917L286.677 191.335L288.751 195.108L291.328 193.69L289.253 189.917Z" fill="#FEDF73"/>
<path d="M294.684 190.469L287.963 194.169L289.729 197.381L296.45 193.681L294.684 190.469Z" fill="#FEDF73"/>
<path d="M296.986 199.704L288.984 204.109L292.754 210.964L300.755 206.559L296.986 199.704Z" fill="#FEDF73"/>
<path d="M296.55 197.663L293.24 199.485L299.337 210.574L302.648 208.751L296.55 197.663Z" fill="#FEDF73"/>
<path d="M300.491 195.499L297.268 197.274L300.736 203.581L303.96 201.806L300.491 195.499Z" fill="#FEDF73"/>
<path d="M304.806 194.756L301.582 196.531L305.05 202.838L308.274 201.063L304.806 194.756Z" fill="#FEDF73"/>
<path d="M308.831 192.545L305.607 194.32L309.076 200.627L312.3 198.852L308.831 192.545Z" fill="#FEDF73"/>
<path d="M300.246 215.127L281.781 225.292L286.129 233.198L304.593 223.033L300.246 215.127Z" fill="#FEDF73"/>
<path d="M301.628 217.636L283.148 227.81L281.588 224.967L298.491 211.933L301.628 217.636Z" fill="#FEDF73"/>
<path d="M291.838 208.941L300.199 204.323L302.646 208.76L294.975 214.645L291.838 208.941Z" fill="#FEDF73"/>
<path d="M330.624 216.798L325.081 206.717L318.303 210.449L323.845 220.53L330.624 216.798Z" fill="#FEDF73"/>
<path d="M286.344 224.268L280.801 214.187L276.857 216.358L282.4 226.439L286.344 224.268Z" fill="#FEDF73"/>
<path d="M259.681 223.649L255.207 215.513L251.292 217.668L255.766 225.804L259.681 223.649Z" fill="#FEDF73"/>
<path d="M270.186 211.562L267.818 207.256L263.515 209.625L265.883 213.931L270.186 211.562Z" fill="#FEDF73"/>
<path d="M267.859 219.612L265.491 215.306L261.188 217.676L263.556 221.981L267.859 219.612Z" fill="#FEDF73"/>
<path d="M267.856 219.615L270.19 211.564L263.517 209.627L261.183 217.677L267.856 219.615Z" fill="#FEDF73"/>
<path d="M262.223 213.695L259.84 209.36L255.882 211.539L258.266 215.874L262.223 213.695Z" fill="#FEDF73"/>
<path d="M266.16 214.767L263.935 210.72L259.473 213.176L261.698 217.223L266.16 214.767Z" fill="#FEDF73"/>
<path d="M273.577 201.678L268.818 193.023L265.062 195.091L269.821 203.746L273.577 201.678Z" fill="#FEDF73"/>
<path d="M270.696 193.354L267.021 186.672L263.611 188.55L267.285 195.232L270.696 193.354Z" fill="#FEDF73"/>
<path d="M278.8 196.689L274.445 188.768L271.38 190.456L275.735 198.376L278.8 196.689Z" fill="#FEDF73"/>
<path d="M389.741 196.38L378.506 187.331L375.694 190.827L386.929 199.876L389.741 196.38Z" fill="#FEDF73"/>
<path d="M366.389 191.482L351.75 179.692L348.938 183.187L363.577 194.977L366.389 191.482Z" fill="#FEDF73"/>
<path d="M376.232 177.907L369.654 172.609L365.174 178.179L371.751 183.477L376.232 177.907Z" fill="#FEDF73"/>
<path d="M375.061 181.954L371.427 179.027L368.502 182.664L372.136 185.591L375.061 181.954Z" fill="#FEDF73"/>
<path d="M360.479 176.254L353.914 170.967L351.864 173.515L358.429 178.802L360.479 176.254Z" fill="#FEDF73"/>
<path d="M369.355 174.657L358.153 175.534L358.408 178.795L369.61 177.918L369.355 174.657Z" fill="#FEDF73"/>
<path d="M379.219 175.136L368.018 176.012L368.272 179.273L379.474 178.396L379.219 175.136Z" fill="#FEDF73"/>
<path d="M300.006 197.053L295.415 199.58L297.593 203.54L302.184 201.013L300.006 197.053Z" fill="#FEDF73"/>
<path d="M308.815 194.086L304.224 196.614L306.401 200.574L310.992 198.047L308.815 194.086Z" fill="#FEDF73"/>
<path d="M304.609 196.765L300.018 199.293L301.063 201.194L305.654 198.666L304.609 196.765Z" fill="#FEDF73"/>
<path d="M264.636 195.989C265.389 195.989 265.999 195.378 265.999 194.625C265.999 193.872 265.389 193.261 264.636 193.261C263.883 193.261 263.272 193.872 263.272 194.625C263.272 195.378 263.883 195.989 264.636 195.989Z" fill="#FEDF73"/>
<path d="M152.969 229.122L152.496 224.792L144.266 225.692L144.739 230.022L152.969 229.122Z" fill="#FEDF73"/>
<path d="M159.85 229.907L159.377 225.577L151.147 226.477L151.62 230.807L159.85 229.907Z" fill="#FEDF73"/>
<path d="M153.826 238.835L153.353 234.505L145.123 235.405L145.596 239.735L153.826 238.835Z" fill="#FEDF73"/>
<path d="M160.708 239.619L160.234 235.29L152.005 236.19L152.478 240.52L160.708 239.619Z" fill="#FEDF73"/>
<path d="M126.744 226.06L130.357 223.631L125.741 216.754L122.128 219.183L126.744 226.06Z" fill="#FEDF73"/>
<path d="M129.271 232.554L132.885 230.125L128.268 223.248L124.655 225.677L129.271 232.554Z" fill="#FEDF73"/>
<path d="M152.793 253.882L157.12 253.409L156.22 245.174L151.893 245.647L152.793 253.882Z" fill="#FEDF73"/>
<path d="M152.006 260.792L156.333 260.318L155.433 252.083L151.106 252.557L152.006 260.792Z" fill="#FEDF73"/>
<path d="M148.518 255.679L150.689 255.441L150.24 251.324L148.068 251.562L148.518 255.679Z" fill="#FEDF73"/>
<path d="M141.781 254.993L146.108 254.52L145.209 246.285L140.881 246.758L141.781 254.993Z" fill="#FEDF73"/>
<path d="M140.993 261.886L145.32 261.413L144.42 253.178L140.093 253.651L140.993 261.886Z" fill="#FEDF73"/>
<g clip-path="url(#clip0_821_18618)">
<path d="M382.108 286.166L382.165 273.978H381.291C381.044 275.497 380.19 276.221 378.386 276.293V276.998H381.025L380.987 286.13H382.127L382.108 286.166ZM381.443 290C375.652 289.964 370.981 285.479 371 279.946C371.019 274.43 375.728 269.982 381.538 270C387.348 270.018 392.019 274.503 391.981 280.036C391.962 285.57 387.253 290.018 381.443 289.982" fill="#E1B5B5"/>
</g>
<g clip-path="url(#clip1_821_18618)">
<path d="M395.468 537.932V536.868H388.747C388.956 535.558 390.494 534.285 392.392 532.956C393.987 531.854 395.392 530.601 395.392 528.512C395.392 526.233 393.816 524.941 391.595 524.941C388.994 524.941 387.608 526.821 387.646 529.423H388.747C388.747 527.543 389.601 525.872 391.519 525.872C393.228 525.872 394.272 526.859 394.272 528.474C394.272 530.012 393.399 530.962 391.88 532.006C389.316 533.792 387.646 535.045 387.342 537.894H395.449L395.468 537.932ZM391.5 542.547C385.69 542.547 381 537.856 381 532.044C381 526.233 385.69 521.542 391.5 521.542C397.31 521.542 402 526.233 402 532.044C402 537.856 397.31 542.547 391.5 542.547Z" fill="#9E69A4"/>
</g>
<g clip-path="url(#clip2_821_18618)">
<path d="M601.718 510.458C602.821 510.114 603.689 509.137 603.689 507.781C603.689 505.828 602.315 504.635 600.09 504.635C597.866 504.635 596.329 506.298 596.365 508.595H597.396C597.45 506.859 598.427 505.539 600.09 505.539C601.754 505.539 602.604 506.479 602.604 507.781C602.604 509.21 601.41 510.042 600.253 510.042H599.331V511.018H600.253C601.808 511.018 603.038 511.922 603.038 513.55C603.038 515.286 601.754 516.244 600.054 516.244C598.354 516.244 597.107 515.087 597.125 513.08H596.076C596.022 515.756 597.74 517.166 600.072 517.166C602.206 517.166 604.105 515.991 604.105 513.55C604.105 511.796 603.219 510.765 601.682 510.458M600 521C594.467 521 590 516.533 590 511C590 505.467 594.467 501 600 501C605.533 501 610 505.467 610 511C610 516.533 605.533 521 600 521Z" fill="#AECFD8"/>
</g>
<g clip-path="url(#clip3_821_18618)">
<path d="M315.778 533.475H311.456L315.778 526.696V533.475ZM318.472 534.519V533.475H316.808V524.816H315.778L310.335 533.475V534.519H315.778V537.614H316.808V534.519H318.472ZM315 542C309.467 542 305 537.31 305 531.5C305 525.69 309.467 521 315 521C320.533 521 325 525.69 325 531.5C325 537.31 320.533 542 315 542Z" fill="#FBD59E"/>
</g>
<g clip-path="url(#clip4_821_18618)">
<path d="M857.614 169.354C856.589 169.354 855.544 169.829 855.013 170.532L855.772 166.184H861.127V165.139H854.918L853.759 171.842H854.766C855.316 170.778 856.323 170.304 857.481 170.304C859.361 170.304 860.595 171.728 860.595 173.684C860.595 175.639 859.418 177.177 857.5 177.177C855.867 177.177 854.576 176.076 854.519 174.234H853.418C853.475 176.646 855.165 178.146 857.5 178.146C859.835 178.146 861.715 176.304 861.715 173.816C861.715 171.101 860.177 169.373 857.614 169.373M857.5 182C851.69 182 847 177.31 847 171.5C847 165.69 851.69 161 857.5 161C863.31 161 868 165.69 868 171.5C868 177.31 863.31 182 857.5 182Z" fill="#CAD0A9"/>
</g>
<g clip-path="url(#clip5_821_18618)">
<path d="M788.538 377.158C786.658 377.158 785.595 375.582 785.595 373.816C785.595 371.804 786.772 370.513 788.538 370.513C790.304 370.513 791.481 371.766 791.481 373.797C791.481 375.544 790.399 377.177 788.538 377.177M788.538 369.563C787.019 369.563 785.804 370.494 785.348 371.69C785.348 368.443 786.43 365.918 788.614 365.918C790.152 365.918 791.101 366.943 791.253 368.272H792.335C792.108 366.335 790.949 364.968 788.595 364.968C786.051 364.968 784.209 367.494 784.209 371.386C784.209 376.361 785.785 378.127 788.538 378.127C791.006 378.127 792.582 376.361 792.582 373.797C792.582 371.234 790.968 369.582 788.538 369.582M788.5 382C782.69 382 778 377.31 778 371.5C778 365.69 782.69 361 788.5 361C794.31 361 799 365.69 799 371.5C799 377.31 794.31 382 788.5 382Z" fill="#8282BE"/>
</g>
<g clip-path="url(#clip6_821_18618)">
<path d="M385.753 451.709H377.854V452.772H384.576C382.335 455.07 380 459.095 379.658 464.335H380.93C381.234 459.816 382.829 455.544 385.753 452.753V451.709ZM381.5 468C375.69 468 371 463.31 371 457.5C371 451.69 375.69 447 381.5 447C387.31 447 392 451.69 392 457.5C392 463.31 387.31 468 381.5 468Z" fill="#62908D"/>
</g>
<g clip-path="url(#clip7_821_18618)">
<path d="M478.5 218.57C477.114 218.57 475.899 217.734 475.899 216.234C475.899 214.962 476.886 213.956 478.5 213.956C480.114 213.956 481.101 214.962 481.101 216.234C481.101 217.734 479.886 218.57 478.5 218.57ZM478.5 225.272C476.753 225.272 475.386 224.228 475.386 222.386C475.386 220.544 476.81 219.614 478.5 219.614C480.19 219.614 481.614 220.544 481.614 222.386C481.614 224.228 480.247 225.272 478.5 225.272ZM480.247 219.044C481.386 218.627 482.222 217.62 482.222 216.253C482.222 214.449 480.835 213.025 478.481 213.025C476.127 213.025 474.741 214.43 474.741 216.253C474.741 217.62 475.614 218.703 476.734 219.044C475.272 219.405 474.228 220.791 474.228 222.386C474.228 224.854 476.032 226.222 478.481 226.222C480.93 226.222 482.734 224.854 482.734 222.386C482.734 220.791 481.69 219.405 480.228 219.044M478.5 230C472.69 230 468 225.31 468 219.5C468 213.69 472.69 209 478.5 209C484.31 209 489 213.69 489 219.5C489 225.31 484.31 230 478.5 230Z" fill="#9A7E9C"/>
</g>
<g clip-path="url(#clip8_821_18618)">
<path d="M294.538 400.031C292.791 400.031 291.633 398.729 291.633 396.83C291.633 395.112 292.696 393.629 294.538 393.629C296.38 393.629 297.519 395.112 297.519 396.794C297.519 398.693 296.323 400.049 294.538 400.049M294.538 392.707C292.108 392.707 290.532 394.407 290.532 396.83C290.532 399.38 292.108 400.935 294.538 400.935C296.171 400.935 297.367 399.976 297.766 398.819C297.766 402.165 296.816 404.316 294.576 404.316C293.076 404.316 292.013 403.376 291.88 402.128H290.778C290.987 404.009 292.335 405.239 294.576 405.239C297.405 405.239 298.924 402.888 298.924 398.982C298.924 394.353 297.31 392.707 294.557 392.707M294.5 409C288.69 409 284 404.533 284 399C284 393.467 288.69 389 294.5 389C300.31 389 305 393.467 305 399C305 404.533 300.31 409 294.5 409Z" fill="#C1BB46"/>
</g>
<g clip-path="url(#clip9_821_18618)">
<path d="M160.158 483.244C158.335 483.244 157.614 480.875 157.614 477.982C157.614 475.089 158.335 472.756 160.158 472.756C161.981 472.756 162.722 475.107 162.722 477.982C162.722 480.857 161.981 483.244 160.158 483.244ZM160.158 471.87C157.595 471.87 156.513 474.275 156.513 478C156.513 481.725 157.595 484.13 160.158 484.13C162.722 484.13 163.804 481.707 163.804 477.982C163.804 474.257 162.722 471.87 160.158 471.87ZM154.88 484.004V472.069H154.006C153.778 473.57 153.019 474.275 151.215 474.365V475.052H153.759V484.004H154.899H154.88ZM157.5 488C151.69 488 147 483.533 147 478C147 472.467 151.69 468 157.5 468C163.31 468 168 472.467 168 478C168 483.533 163.31 488 157.5 488Z" fill="#7F738D"/>
</g>
<g clip-path="url(#clip10_821_18618)">
<path d="M587.87 201.842V189.291H587.038C586.821 190.848 586.007 191.589 584.271 191.684V192.424H586.785V201.842H587.87ZM581.957 201.842V189.291H581.125C580.908 190.848 580.094 191.589 578.358 191.684V192.424H580.872V201.842H581.957ZM584 206C578.467 206 574 201.31 574 195.5C574 189.69 578.467 185 584 185C589.533 185 594 189.69 594 195.5C594 201.31 589.533 206 584 206Z" fill="#B0D476"/>
</g>
<g clip-path="url(#clip11_821_18618)">
<path d="M331.31 325.949V324.955H325.291C325.481 323.743 326.829 322.568 328.538 321.32C329.981 320.289 331.291 319.132 331.291 317.179C331.291 315.045 329.848 313.834 327.835 313.834C325.481 313.834 324.228 315.606 324.266 318.047H325.31C325.31 316.275 326.032 314.756 327.759 314.756C329.297 314.756 330.209 315.642 330.209 317.179C330.209 318.608 329.468 319.476 328.101 320.452C325.804 322.134 324.266 323.291 323.981 325.986H331.291L331.31 325.949ZM322.272 326.04V314.105H321.456C321.247 315.588 320.449 316.293 318.835 316.383V317.089H321.209V326.058H322.272V326.04ZM325.5 330C319.69 330 315 325.533 315 320C315 314.467 319.69 310 325.5 310C331.31 310 336 314.467 336 320C336 325.533 331.31 330 325.5 330Z" fill="#B7DCBE"/>
</g>
<g clip-path="url(#clip12_821_18618)">
<path d="M594.508 239.602C595.503 239.259 596.298 238.3 596.298 236.98C596.298 235.063 595.033 233.87 593.043 233.87C591.054 233.87 589.644 235.515 589.68 237.776H590.656C590.711 236.076 591.579 234.81 593.08 234.81C594.58 234.81 595.34 235.696 595.34 236.98C595.34 238.354 594.255 239.15 593.224 239.15H592.41V240.145H593.224C594.635 240.145 595.702 241.013 595.702 242.622C595.702 244.304 594.58 245.244 593.043 245.244C591.506 245.244 590.421 244.123 590.439 242.152H589.445C589.391 244.792 590.964 246.166 593.061 246.166C594.996 246.166 596.714 244.991 596.714 242.604C596.714 240.904 595.901 239.873 594.526 239.584M587.89 246.094V234.159H587.094C586.895 235.66 586.28 236.365 584.725 236.456V237.143H586.877V246.094H587.89ZM591 250C585.467 250 581 245.533 581 240C581 234.467 585.467 230 591 230C596.533 230 601 234.467 601 240C601 245.533 596.533 250 591 250Z" fill="#CB5957"/>
</g>
<g clip-path="url(#clip13_821_18618)">
<path d="M504.013 327.646H499.968L504.013 321.019V327.646ZM506.557 328.709V327.646H505V319.177H503.994L498.848 327.646V328.709H503.994V331.709H505V328.709H506.557ZM497.519 331.747V319.196H496.684C496.475 320.772 495.829 321.513 494.196 321.608V322.329H496.456V331.728H497.519V331.747ZM500.5 336C494.69 336 490 331.31 490 325.5C490 319.69 494.69 315 500.5 315C506.31 315 511 319.69 511 325.5C511 331.31 506.31 336 500.5 336Z" fill="#9FD1CA"/>
</g>
<g clip-path="url(#clip14_821_18618)">
<mask id="mask1_821_18618" style="mask-type:luminance" maskUnits="userSpaceOnUse" x="310" y="625" width="41" height="45">
<path d="M351 625H310V670H351V625Z" fill="white"/>
</mask>
<g mask="url(#mask1_821_18618)">
<path d="M350.983 640.873C350.983 640.084 350.359 639.479 349.55 639.462H347.374V638.539H349.55C350.342 638.522 350.983 637.884 350.966 637.094V633.415C350.949 633.046 350.798 632.676 350.528 632.408C350.258 632.139 349.904 632.038 349.516 632.004H347.34V630.157C347.34 630.14 347.34 630.123 347.34 630.106V626.411C347.34 626.411 347.306 626.361 347.306 626.327C347.306 626.26 347.306 626.193 347.29 626.125C347.273 626.058 347.256 625.991 347.239 625.941C347.239 625.924 347.239 625.89 347.222 625.873C347.205 625.823 347.172 625.756 347.138 625.705C347.138 625.689 347.104 625.655 347.087 625.622C347.053 625.588 347.02 625.554 346.986 625.504C346.952 625.47 346.935 625.437 346.902 625.403C346.868 625.37 346.817 625.336 346.784 625.302C346.75 625.286 346.733 625.252 346.699 625.235C346.666 625.218 346.632 625.202 346.598 625.185C346.548 625.151 346.514 625.134 346.463 625.118C346.429 625.118 346.396 625.101 346.345 625.084C346.295 625.084 346.244 625.05 346.193 625.034C346.109 625.017 346.008 625 345.907 625L336.799 625.05C336.007 625.05 335.366 625.689 335.383 626.478V630.157C335.399 630.526 335.551 630.896 335.821 631.165C336.091 631.433 336.445 631.568 336.833 631.568H340.83L340.948 659.787L329.142 648.163C329.024 648.046 328.856 647.945 328.704 647.878C328.687 647.878 328.653 647.861 328.636 647.844C328.468 647.777 328.299 647.744 328.13 647.744C327.945 647.744 327.776 647.777 327.608 647.844C327.608 647.844 327.608 647.844 327.591 647.844C327.422 647.912 327.253 648.012 327.118 648.163L324.521 650.784L310.422 664.978C310.152 665.246 310 665.616 310 665.985C310 666.372 310.152 666.725 310.422 666.993L313.053 669.58C313.339 669.849 313.694 670 314.065 670C314.436 670 314.807 669.866 315.077 669.58L328.147 656.411L341.37 669.429C341.505 669.563 341.657 669.664 341.842 669.731C342.011 669.798 342.179 669.832 342.365 669.832H346.058C346.851 669.815 347.475 669.16 347.475 668.387L347.374 646.013H349.55C349.937 646.013 350.292 645.845 350.561 645.577C350.831 645.308 350.983 644.938 350.966 644.569V640.89L350.983 640.873Z" fill="#FEDF73"/>
</g>
</g>
<path d="M342.608 461.943C342.608 465.874 341.525 468.4 338.962 468.4C336.399 468.4 335.316 465.855 335.316 461.962C335.316 458.068 336.399 455.523 338.962 455.523C341.525 455.523 342.608 458.049 342.608 461.943ZM332.544 468.267V458.866H330V458.144C331.804 458.049 332.563 457.309 332.791 455.732H333.665V468.267H332.544ZM341.525 461.943C341.525 458.942 340.785 456.454 338.962 456.454C337.139 456.454 336.418 458.923 336.418 461.943C336.418 464.963 337.139 467.47 338.962 467.47C340.785 467.47 341.525 464.982 341.525 461.943Z" fill="#231815"/>
<path d="M220.392 558.14C220.392 562.242 218.873 564.711 216.044 564.711C213.804 564.711 212.456 563.439 212.247 561.444H213.348C213.481 562.774 214.544 563.742 216.025 563.742C218.266 563.742 219.215 561.482 219.215 557.969C218.835 559.184 217.639 560.191 216.006 560.191C213.576 560.191 212 558.577 212 555.88C212 553.335 213.576 551.549 216.006 551.549C218.759 551.549 220.373 553.278 220.373 558.14M218.987 555.842C218.987 554.075 217.905 552.518 216.006 552.518C214.108 552.518 213.101 554.075 213.101 555.899C213.101 557.912 214.259 559.279 216.006 559.279C217.753 559.279 218.987 557.874 218.987 555.861" fill="#231815"/>
<path d="M294 161.931C294 160.563 294.076 159.177 294.285 157.828C294.437 156.822 294.684 155.834 295.139 154.903C295.88 153.422 297.114 152.548 298.652 152.074C299.677 151.751 300.741 151.58 301.804 151.523C303.076 151.466 304.348 151.428 305.62 151.447C307.177 151.447 308.715 151.58 310.215 152.036C311.544 152.415 312.684 153.08 313.5 154.239C314.089 155.074 314.392 156.024 314.601 157.012C314.943 158.664 315 160.335 315 162.007C315 163.355 314.943 164.704 314.753 166.033C314.601 167.059 314.354 168.046 313.88 168.977C313.139 170.439 311.905 171.313 310.367 171.788C309.133 172.168 307.861 172.32 306.589 172.377C305.525 172.415 304.443 172.433 303.38 172.414C301.975 172.396 300.57 172.282 299.184 171.94C298.348 171.731 297.551 171.427 296.829 170.933C295.709 170.173 295.063 169.072 294.665 167.799C294.342 166.774 294.19 165.71 294.114 164.647C294.057 163.735 294.038 162.823 294 161.912" fill="#FEDF73"/>
<path d="M303 168.198C303.285 165.387 304.804 164.172 307.12 162.405C308.487 161.38 309.228 160.468 309.228 158.968C309.228 157.372 308.317 156.423 306.779 156.423C305.051 156.423 304.329 158.018 304.329 159.879H303.285C303.247 157.315 304.5 155.473 306.854 155.473C308.867 155.473 310.31 156.746 310.31 158.987C310.31 161.038 309.019 162.253 307.557 163.336C305.848 164.628 304.5 165.881 304.31 167.154H310.329V168.198H303.019H303ZM300.228 168.293V158.892H297.854V158.151C299.468 158.075 300.266 157.315 300.475 155.758H301.291V168.293H300.228Z" fill="#231815"/>
<path d="M202.829 602.114V592.693H200.19V591.953C201.994 591.858 202.848 591.117 203.095 589.56H203.968V602.095H202.829V602.114ZM196.639 602.114V592.693H194V591.953C195.804 591.858 196.658 591.117 196.905 589.56H197.778V602.095H196.639V602.114Z" fill="#231815"/>
<path d="M312.487 608.926C312.487 611.395 310.684 612.762 308.234 612.762C305.785 612.762 304 611.395 304 608.926C304 607.33 305.044 605.944 306.487 605.583C305.386 605.241 304.513 604.158 304.513 602.791C304.513 600.968 305.899 599.562 308.253 599.562C310.608 599.562 311.994 600.968 311.994 602.791C311.994 604.158 311.139 605.165 310.019 605.583C311.462 605.944 312.525 607.33 312.525 608.926M310.854 602.791C310.854 601.518 309.867 600.512 308.253 600.512C306.639 600.512 305.652 601.518 305.652 602.791C305.652 604.291 306.867 605.108 308.253 605.108C309.639 605.108 310.854 604.272 310.854 602.791ZM311.367 608.926C311.367 607.083 309.943 606.153 308.253 606.153C306.563 606.153 305.139 607.083 305.139 608.926C305.139 610.768 306.506 611.812 308.253 611.812C310 611.812 311.367 610.768 311.367 608.926Z" fill="#231815"/>
<path d="M361 660.06C361.019 658.692 361.076 657.306 361.285 655.938C361.437 654.932 361.684 653.944 362.139 653.013C362.88 651.532 364.114 650.658 365.652 650.183C366.677 649.861 367.741 649.69 368.804 649.633C370.076 649.595 371.348 649.576 372.62 649.576C374.177 649.576 375.715 649.709 377.215 650.145C378.544 650.525 379.684 651.19 380.5 652.349C381.089 653.184 381.392 654.134 381.601 655.121C381.943 656.774 382 658.445 382 660.116C382 661.465 381.943 662.813 381.753 664.143C381.601 665.168 381.354 666.156 380.88 667.087C380.139 668.549 378.924 669.423 377.367 669.898C376.133 670.277 374.861 670.429 373.589 670.486C372.525 670.524 371.443 670.543 370.38 670.524C368.975 670.505 367.57 670.391 366.184 670.05C365.348 669.841 364.551 669.537 363.829 669.043C362.709 668.264 362.044 667.182 361.665 665.909C361.342 664.884 361.19 663.82 361.114 662.756C361.057 661.845 361.038 660.933 361 660.022" fill="#FEDF73"/>
<path d="M371.006 666.555V656.945H368.367V656.204C370.171 656.128 371.025 655.35 371.272 653.754H372.146V666.555H371.006Z" fill="#231815"/>
<path d="M467 481.48C467.304 478.631 468.975 477.378 471.538 475.592C473.057 474.548 473.93 473.579 473.93 472.06C473.93 470.445 472.886 469.458 471.177 469.458C469.259 469.458 468.405 471.129 468.405 473.009H467.304C467.266 470.407 468.652 468.527 471.253 468.527C473.475 468.527 475.051 469.8 475.051 472.079C475.051 474.168 473.646 475.402 472.051 476.523C470.152 477.852 468.614 479.125 468.405 480.416H475.127V481.48H467.019H467Z" fill="#231815"/>
<path d="M484.452 437.899C484.452 440.463 482.439 441.697 480.198 441.697C477.749 441.697 475.926 440.235 476.002 437.405H477.123C477.104 439.513 478.414 440.729 480.198 440.729C481.983 440.729 483.331 439.703 483.331 437.899C483.331 436.189 482.059 435.24 480.407 435.24H479.458V434.214H480.407C481.623 434.214 482.876 433.34 482.876 431.84C482.876 430.473 481.983 429.485 480.236 429.485C478.49 429.485 477.464 430.871 477.407 432.676H476.325C476.287 430.264 477.844 428.516 480.217 428.516C482.591 428.516 483.996 429.77 483.996 431.821C483.996 433.245 483.085 434.271 481.926 434.632C483.521 434.955 484.471 436.037 484.471 437.88" fill="#231815"/>
<path d="M540.797 382.206V385.302H539.715V382.206H534V381.162L539.715 372.501H540.797V381.162H542.544V382.206H540.797ZM539.715 374.381L535.177 381.162H539.715V374.381Z" fill="#231815"/>
<path d="M595 313.971C595.019 312.604 595.076 311.218 595.285 309.869C595.437 308.862 595.684 307.875 596.139 306.944C596.88 305.463 598.114 304.589 599.652 304.114C600.677 303.791 601.74 303.621 602.804 303.564C604.076 303.507 605.348 303.469 606.62 303.488C608.177 303.488 609.715 303.621 611.215 304.057C612.544 304.437 613.684 305.102 614.5 306.261C615.089 307.096 615.392 308.046 615.601 309.033C615.943 310.686 616 312.357 616 314.028C616 315.377 615.943 316.725 615.753 318.055C615.601 319.08 615.354 320.068 614.88 320.999C614.139 322.461 612.924 323.335 611.367 323.81C610.133 324.189 608.861 324.341 607.589 324.398C606.525 324.436 605.443 324.455 604.38 324.436C602.975 324.417 601.57 324.303 600.184 323.961C599.348 323.753 598.551 323.449 597.829 322.955C596.709 322.176 596.044 321.094 595.665 319.821C595.342 318.796 595.19 317.732 595.114 316.668C595.057 315.757 595.038 314.845 595 313.933" fill="#FEDF73"/>
<path d="M609.714 316.288C609.714 318.776 607.873 320.619 605.499 320.619C603.126 320.619 601.493 319.118 601.417 316.706H602.518C602.575 318.549 603.866 319.65 605.499 319.65C607.417 319.65 608.594 318.055 608.594 316.155C608.594 314.256 607.36 312.775 605.48 312.775C604.322 312.775 603.316 313.25 602.765 314.313H601.759L602.917 307.609H609.126V308.653H603.771L603.012 313.003C603.544 312.3 604.588 311.825 605.613 311.825C608.176 311.825 609.714 313.554 609.714 316.269" fill="#231815"/>
<path d="M576.373 387.334C576.373 389.898 574.797 391.665 572.329 391.665C569.576 391.665 568 389.898 568 384.922C568 381.01 569.861 378.503 572.386 378.503C574.741 378.503 575.88 379.87 576.127 381.808H575.044C574.892 380.478 573.924 379.472 572.405 379.472C570.222 379.472 569.139 382.017 569.139 385.245C569.614 384.049 570.829 383.118 572.329 383.118C574.759 383.118 576.373 384.713 576.373 387.334ZM575.272 387.334C575.272 385.302 574.076 384.049 572.329 384.049C570.582 384.049 569.386 385.34 569.386 387.353C569.386 389.12 570.449 390.696 572.329 390.696C574.209 390.696 575.272 389.082 575.272 387.315" fill="#231815"/>
<path d="M522.772 193.592C519.525 196.707 517.741 201.436 517.418 206.469H515.994C516.373 200.639 518.975 196.175 521.462 193.63H514V192.453H522.772V193.611V193.592Z" fill="#231815"/>
</g>
<defs>
<clipPath id="clip0_821_18618">
<rect width="21" height="20" fill="white" transform="translate(371 270)"/>
</clipPath>
<clipPath id="clip1_821_18618">
<rect width="21" height="21.0056" fill="white" transform="translate(381 521.542)"/>
</clipPath>
<clipPath id="clip2_821_18618">
<rect width="20" height="20" fill="white" transform="translate(590 501)"/>
</clipPath>
<clipPath id="clip3_821_18618">
<rect width="20" height="21" fill="white" transform="translate(305 521)"/>
</clipPath>
<clipPath id="clip4_821_18618">
<rect width="21" height="21" fill="white" transform="translate(847 161)"/>
</clipPath>
<clipPath id="clip5_821_18618">
<rect width="21" height="21" fill="white" transform="translate(778 361)"/>
</clipPath>
<clipPath id="clip6_821_18618">
<rect width="21" height="21" fill="white" transform="translate(371 447)"/>
</clipPath>
<clipPath id="clip7_821_18618">
<rect width="21" height="21" fill="white" transform="translate(468 209)"/>
</clipPath>
<clipPath id="clip8_821_18618">
<rect width="21" height="20" fill="white" transform="translate(284 389)"/>
</clipPath>
<clipPath id="clip9_821_18618">
<rect width="21" height="20" fill="white" transform="translate(147 468)"/>
</clipPath>
<clipPath id="clip10_821_18618">
<rect width="20" height="21" fill="white" transform="translate(574 185)"/>
</clipPath>
<clipPath id="clip11_821_18618">
<rect width="21" height="20" fill="white" transform="translate(315 310)"/>
</clipPath>
<clipPath id="clip12_821_18618">
<rect width="20" height="20" fill="white" transform="translate(581 230)"/>
</clipPath>
<clipPath id="clip13_821_18618">
<rect width="21" height="21" fill="white" transform="translate(490 315)"/>
</clipPath>
<clipPath id="clip14_821_18618">
<rect width="41" height="45" fill="white" transform="translate(310 625)"/>
</clipPath>
</defs>
</svg>
