<svg width="21" height="21" viewBox="0 0 21 21" fill="none" xmlns="http://www.w3.org/2000/svg">
<path d="M0 10.4838C0.0189873 9.11638 0.0759494 7.72993 0.28481 6.36247C0.436709 5.35587 0.683544 4.36826 1.13924 3.43763C1.87975 1.95622 3.11392 1.08257 4.6519 0.607758C5.67721 0.284887 6.74051 0.113955 7.8038 0.0569774C9.07595 0.0189925 10.3481 0 11.6203 0C13.1772 0 14.7152 0.132947 16.2152 0.569774C17.5443 0.949623 18.6835 1.61436 19.5 2.7729C20.0886 3.60857 20.3924 4.55819 20.6013 5.5458C20.943 7.19814 21 8.86948 21 10.5408C21 11.8893 20.943 13.2377 20.7532 14.5672C20.6013 15.5928 20.3544 16.5804 19.8797 17.511C19.1392 18.9735 17.924 19.8471 16.3671 20.3219C15.1329 20.7018 13.8608 20.8537 12.5886 20.9107C11.5253 20.9487 10.443 20.9677 9.37975 20.9487C7.97468 20.9297 6.56962 20.8157 5.18354 20.4739C4.3481 20.2649 3.55063 19.9611 2.82911 19.4673C1.70886 18.6886 1.0443 17.606 0.664557 16.3335C0.341772 15.3079 0.189873 14.2443 0.113924 13.1808C0.056962 12.2691 0.0379747 11.3575 0 10.4458" fill="#7D7D7D"/>
<path d="M7 16.9529C7.3038 14.104 8.97469 12.8505 11.538 11.0652C13.057 10.0206 13.9304 9.05199 13.9304 7.5326C13.9304 5.91824 12.8861 4.93063 11.1772 4.93063C9.2595 4.93063 8.40506 6.60197 8.40506 8.48222H7.3038C7.26582 5.88025 8.6519 4 11.2532 4C13.4747 4 15.0506 5.27249 15.0506 7.55159C15.0506 9.64076 13.6456 10.8753 12.0506 11.9958C10.1519 13.3253 8.61392 14.5978 8.40506 15.8893H15.1266V16.9529H7.01899H7Z" fill="white"/>
</svg>
