<svg width="21" height="21" viewBox="0 0 21 21" fill="none" xmlns="http://www.w3.org/2000/svg">
<path d="M0 10.4888C0.0189873 9.12132 0.0759378 7.73487 0.284799 6.3864C0.436697 5.3798 0.683541 4.3922 1.13924 3.46157C1.87974 1.98016 3.11392 1.1065 4.65189 0.631691C5.67721 0.30882 6.74049 0.137888 7.80378 0.0809103C9.07594 0.0239329 10.3481 -0.014052 11.6202 0.0049405C13.1772 0.0049405 14.7152 0.137888 16.2152 0.574714C17.5443 0.954563 18.6835 1.6193 19.5 2.77784C20.0886 3.61351 20.3924 4.56313 20.6013 5.55074C20.943 7.20308 21 8.87441 21 10.5457C21 11.8942 20.943 13.2427 20.7531 14.5721C20.6013 15.5977 20.3544 16.5854 19.8797 17.516C19.1392 18.9784 17.924 19.8521 16.3671 20.3269C15.1329 20.7067 13.8608 20.8587 12.5886 20.9156C11.5253 20.9536 10.443 20.9726 9.37974 20.9536C7.97467 20.9346 6.56961 20.8207 5.18354 20.4788C4.34809 20.2699 3.55063 19.966 2.82911 19.4722C1.70886 18.6935 1.0443 17.6109 0.664554 16.3384C0.341769 15.3129 0.189869 14.2493 0.113919 13.1857C0.0569574 12.2741 0.0379747 11.3624 0 10.4508" fill="#7D7D7D"/>
<path d="M14.3734 12.8315C14.3734 15.3955 12.7975 17.1618 10.3291 17.1618C7.57595 17.1618 6 15.3955 6 10.4194C6 6.507 7.86075 4 10.3861 4C12.7405 4 13.8797 5.36746 14.1266 7.30469H13.0443C12.8924 5.97521 11.924 4.96861 10.4051 4.96861C8.22152 4.96861 7.13924 7.5136 7.13924 10.7423C7.61392 9.5458 8.82911 8.61517 10.3291 8.61517C12.7595 8.61517 14.3734 10.2105 14.3734 12.8315ZM13.2722 12.8315C13.2722 10.7993 12.0759 9.5458 10.3291 9.5458C8.58228 9.5458 7.38608 10.8373 7.38608 12.8505C7.38608 14.6168 8.44936 16.1932 10.3291 16.1932C12.2089 16.1932 13.2722 14.5788 13.2722 12.8125" fill="white"/>
</svg>
