<svg width="21" height="21" viewBox="0 0 21 21" fill="none" xmlns="http://www.w3.org/2000/svg">
<path d="M0 10.4888C0.0189873 9.12132 0.0759378 7.73487 0.284799 6.3864C0.436697 5.3798 0.683541 4.3922 1.13924 3.46157C1.87974 1.98016 3.11392 1.1065 4.65189 0.631691C5.67721 0.30882 6.74049 0.137888 7.80378 0.0809103C9.07594 0.0239329 10.3481 -0.014052 11.6202 0.0049405C13.1772 0.0049405 14.7152 0.137888 16.2152 0.574714C17.5443 0.954563 18.6835 1.6193 19.5 2.77784C20.0886 3.61351 20.3924 4.56313 20.6013 5.55074C20.943 7.20308 21 8.87441 21 10.5457C21 11.8942 20.943 13.2427 20.7531 14.5721C20.6013 15.5977 20.3544 16.5854 19.8797 17.516C19.1392 18.9784 17.924 19.8521 16.3671 20.3269C15.1329 20.7067 13.8608 20.8587 12.5886 20.9156C11.5253 20.9536 10.443 20.9726 9.37974 20.9536C7.97467 20.9346 6.56961 20.8207 5.18354 20.4788C4.34809 20.2699 3.55063 19.966 2.82911 19.4722C1.70886 18.6935 1.0443 17.6109 0.664554 16.3384C0.341769 15.3129 0.189869 14.2493 0.113919 13.1857C0.0569574 12.2741 0.0379747 11.3624 0 10.4508" fill="#7D7D7D"/>
<path d="M14.4873 13.3633C14.4873 15.8323 12.6835 17.1998 10.2342 17.1998C7.7848 17.1998 6 15.8323 6 13.3633C6 11.7679 7.0443 10.3815 8.48734 10.0206C7.38607 9.67874 6.51267 8.59617 6.51267 7.22872C6.51267 5.40544 7.89874 4 10.2532 4C12.6076 4 13.9937 5.40544 13.9937 7.22872C13.9937 8.59617 13.1392 9.60277 12.019 10.0206C13.462 10.3815 14.5253 11.7679 14.5253 13.3633M12.8544 7.22872C12.8544 5.95622 11.8671 4.94962 10.2532 4.94962C8.63925 4.94962 7.65189 5.95622 7.65189 7.22872C7.65189 8.72912 8.8671 9.5458 10.2532 9.5458C11.6393 9.5458 12.8544 8.71013 12.8544 7.22872ZM13.3671 13.3633C13.3671 11.521 11.943 10.5904 10.2532 10.5904C8.5633 10.5904 7.13922 11.521 7.13922 13.3633C7.13922 15.2055 8.50634 16.2501 10.2532 16.2501C12 16.2501 13.3671 15.2055 13.3671 13.3633Z" fill="white"/>
</svg>
