<svg width="288" height="116" viewBox="0 0 288 116" fill="none" xmlns="http://www.w3.org/2000/svg">
<path d="M94.0559 50.7C82.9959 50.7 70.9559 41.32 70.9559 25.5C70.9559 9.68 82.9959 0.299997 94.0559 0.299997C105.116 0.299997 117.086 9.68 117.086 25.5C117.086 41.32 105.116 50.7 94.0559 50.7ZM94.0559 49.86C104.486 49.86 107.006 39.5 107.006 25.5C107.006 11.5 104.486 1.14 94.0559 1.14C83.4859 1.14 81.0359 11.5 81.0359 25.5C81.0359 39.5 83.4859 49.86 94.0559 49.86ZM147.917 50.7C135.387 50.7 129.507 46.01 129.507 31.1V8.35C129.507 3.59 129.507 1.91 124.047 1.7V0.999997H145.187V1.7C138.467 1.91 138.467 3.59 138.467 8.35V32.08C138.467 41.67 139.587 49.51 150.227 49.51C157.997 49.51 163.317 45.31 163.317 32.01V12.83C163.317 6.04 163.387 1.91 154.217 1.7V0.999997H172.347V1.7C164.157 1.91 164.157 6.04 164.157 12.83V32.01C164.157 43.91 160.237 50.7 147.917 50.7ZM221.432 36.77H222.132V42.23C222.132 45.24 221.852 46.78 220.732 48.11C219.682 49.37 217.652 50.7 214.502 50.7C211.422 50.7 209.672 49.65 208.622 48.25C207.572 46.85 207.362 44.96 207.362 42.37V36.49C207.362 29.28 204.072 26.9 197.982 26.9H191.892V42.65C191.892 47.48 191.892 49.02 198.612 49.3V50H177.472V49.3C182.932 49.02 182.932 47.48 182.932 42.65V8.35C182.932 3.52 182.932 1.91 177.472 1.7V0.999997H198.892C209.812 0.999997 218.212 4.08 218.212 13.88C218.212 22.28 212.122 25.85 202.812 26.69C211.142 28.02 216.602 32.08 216.602 38.24V42.3C216.602 43.84 216.742 45.1 217.022 45.8C217.372 46.57 218.002 47.13 218.982 47.13C220.102 47.13 220.662 46.5 220.942 45.8C221.292 45.1 221.432 43.98 221.432 42.23V36.77ZM191.892 26.06H198.892C205.822 26.06 208.552 23.47 208.552 13.88C208.552 4.36 205.822 1.84 198.892 1.84H196.652C191.892 1.84 191.892 3.24 191.892 7.72V26.06ZM25.3257 115.63L8.80574 75.1C6.49574 69.36 5.02574 66.91 0.195742 66.7V66H22.6657V66.7C15.2457 66.91 15.9457 69.78 18.1157 75.1L29.8057 104.22L39.9557 77.83C43.1057 69.78 43.9457 66.91 35.1957 66.7V66H51.3657V66.7C45.2757 66.91 44.0857 69.5 40.8657 77.76L26.0957 115.63H25.3257ZM86.5129 105.9C88.8929 111.64 90.3629 113.88 95.1929 114.3V115H72.6529V114.3C80.1429 113.88 79.3029 111.22 77.2029 105.9L74.3329 98.62H57.1129L55.3629 103.17C52.2829 111.22 51.4429 113.88 60.0529 114.3V115H44.0229V114.3C50.1129 113.88 51.2329 111.5 54.4529 103.24L69.2229 65.3H69.9929L86.5129 105.9ZM57.3929 97.85H73.9829L65.5129 76.57L57.3929 97.85ZM99.488 115V114.3C104.948 114.02 104.948 112.48 104.948 107.65V73.35C104.948 68.52 104.948 66.91 99.488 66.7V66H121.258V66.7C113.908 66.91 113.908 68.52 113.908 73.35V108.28C113.908 112.76 113.908 114.16 118.668 114.16H123.288C133.788 114.16 137.708 106.81 138.338 93.09H139.038L138.758 115H99.488ZM169.218 115.7C156.688 115.7 150.808 111.01 150.808 96.1V73.35C150.808 68.59 150.808 66.91 145.348 66.7V66H166.488V66.7C159.768 66.91 159.768 68.59 159.768 73.35V97.08C159.768 106.67 160.888 114.51 171.528 114.51C179.298 114.51 184.618 110.31 184.618 97.01V77.83C184.618 71.04 184.688 66.91 175.518 66.7V66H193.648V66.7C185.458 66.91 185.458 71.04 185.458 77.83V97.01C185.458 108.91 181.538 115.7 169.218 115.7ZM238.323 94.42H239.023L238.673 115H198.773V114.3C204.233 114.02 204.233 112.48 204.233 107.65V73.35C204.233 68.52 204.233 66.91 198.773 66.7V66H237.973L238.253 84.06H237.553C236.923 72.02 232.443 66.84 224.953 66.84H217.953C213.263 66.84 213.193 67.96 213.193 72.72V88.82H217.673C226.773 88.82 228.173 86.58 228.593 78.18H229.293V100.23H228.593C228.173 91.76 226.773 89.52 217.673 89.52H213.193V108.28C213.193 112.76 213.193 114.16 217.953 114.16H223.553C234.193 114.16 237.763 107.51 238.323 94.42ZM269.544 115.63C264.714 115.63 261.284 114.02 258.974 112.62C256.524 111.29 254.774 109.96 253.584 109.96C252.464 109.96 251.694 110.8 251.484 115.63H250.784L250.504 94.98H251.204C251.764 103.31 257.224 114.79 269.544 114.79C273.394 114.79 277.524 114.09 280.184 111.08C281.654 109.54 282.074 107.51 282.074 105.34C282.074 99.39 275.284 96.66 266.954 93.72C259.744 91.13 251.134 88.4 251.134 79.37C251.134 75.1 252.814 71.74 255.614 69.43C258.694 66.63 263.174 65.37 267.864 65.37C272.624 65.37 275.844 67.12 277.804 68.38C280.324 69.92 281.584 71.11 282.704 71.11C283.824 71.11 284.594 70.2 284.734 65.37H285.434L285.714 84.83H285.014C284.384 77.13 279.414 66.21 267.864 66.21C264.784 66.21 261.564 66.91 259.534 68.59C257.854 69.92 256.944 71.88 256.944 74.12C256.944 79.86 262.754 82.03 270.384 84.76C279.274 87.91 287.674 90.71 287.674 100.09C287.674 104.78 285.854 108.56 282.564 111.29C279.274 113.95 275.354 115.63 269.544 115.63Z" fill="#1A1A1A"/>
</svg>
