<svg
	width="240"
	height="116"
	viewBox="0 0 240 116"
	fill="none"
	xmlns="http://www.w3.org/2000/svg"
>
	<path
		d="M71.0559 50.7C59.9959 50.7 47.9559 41.32 47.9559 25.5C47.9559 9.68 59.9959 0.299997 71.0559 0.299997C82.1159 0.299997 94.0859 9.68 94.0859 25.5C94.0859 41.32 82.1159 50.7 71.0559 50.7ZM71.0559 49.86C81.4859 49.86 84.0059 39.5 84.0059 25.5C84.0059 11.5 81.4859 1.14 71.0559 1.14C60.4859 1.14 58.0359 11.5 58.0359 25.5C58.0359 39.5 60.4859 49.86 71.0559 49.86ZM124.917 50.7C112.387 50.7 106.507 46.01 106.507 31.1V8.35C106.507 3.59 106.507 1.91 101.047 1.7V0.999997H122.187V1.7C115.467 1.91 115.467 3.59 115.467 8.35V32.08C115.467 41.67 116.587 49.51 127.227 49.51C134.997 49.51 140.317 45.31 140.317 32.01V12.83C140.317 6.04 140.387 1.91 131.217 1.7V0.999997H149.347V1.7C141.157 1.91 141.157 6.04 141.157 12.83V32.01C141.157 43.91 137.237 50.7 124.917 50.7ZM198.432 36.77H199.132V42.23C199.132 45.24 198.852 46.78 197.732 48.11C196.682 49.37 194.652 50.7 191.502 50.7C188.422 50.7 186.672 49.65 185.622 48.25C184.572 46.85 184.362 44.96 184.362 42.37V36.49C184.362 29.28 181.072 26.9 174.982 26.9H168.892V42.65C168.892 47.48 168.892 49.02 175.612 49.3V50H154.472V49.3C159.932 49.02 159.932 47.48 159.932 42.65V8.35C159.932 3.52 159.932 1.91 154.472 1.7V0.999997H175.892C186.812 0.999997 195.212 4.08 195.212 13.88C195.212 22.28 189.122 25.85 179.812 26.69C188.142 28.02 193.602 32.08 193.602 38.24V42.3C193.602 43.84 193.742 45.1 194.022 45.8C194.372 46.57 195.002 47.13 195.982 47.13C197.102 47.13 197.662 46.5 197.942 45.8C198.292 45.1 198.432 43.98 198.432 42.23V36.77ZM168.892 26.06H175.892C182.822 26.06 185.552 23.47 185.552 13.88C185.552 4.36 182.822 1.84 175.892 1.84H173.652C168.892 1.84 168.892 3.24 168.892 7.72V26.06ZM25.9507 115.63L9.43074 75.1C7.12074 69.36 5.65074 66.91 0.820742 66.7V66H23.2907V66.7C15.8707 66.91 16.5707 69.78 18.7407 75.1L30.4307 104.22L40.5807 77.83C43.7307 69.78 44.5707 66.91 35.8207 66.7V66H51.9907V66.7C45.9007 66.91 44.7107 69.5 41.4907 77.76L26.7207 115.63H25.9507ZM87.1379 105.9C89.5179 111.64 90.9879 113.88 95.8179 114.3V115H73.2779V114.3C80.7679 113.88 79.9279 111.22 77.8279 105.9L74.9579 98.62H57.7379L55.9879 103.17C52.9079 111.22 52.0679 113.88 60.6779 114.3V115H44.6479V114.3C50.7379 113.88 51.8579 111.5 55.0779 103.24L69.8479 65.3H70.6179L87.1379 105.9ZM58.0179 97.85H74.6079L66.1379 76.57L58.0179 97.85ZM100.113 115V114.3C105.573 114.02 105.573 112.48 105.573 107.65V73.35C105.573 68.52 105.573 66.91 100.113 66.7V66H121.883V66.7C114.533 66.91 114.533 68.52 114.533 73.35V108.28C114.533 112.76 114.533 114.16 119.293 114.16H123.913C134.413 114.16 138.333 106.81 138.963 93.09H139.663L139.383 115H100.113ZM169.843 115.7C157.313 115.7 151.433 111.01 151.433 96.1V73.35C151.433 68.59 151.433 66.91 145.973 66.7V66H167.113V66.7C160.393 66.91 160.393 68.59 160.393 73.35V97.08C160.393 106.67 161.513 114.51 172.153 114.51C179.923 114.51 185.243 110.31 185.243 97.01V77.83C185.243 71.04 185.313 66.91 176.143 66.7V66H194.273V66.7C186.083 66.91 186.083 71.04 186.083 77.83V97.01C186.083 108.91 182.163 115.7 169.843 115.7ZM238.948 94.42H239.648L239.298 115H199.398V114.3C204.858 114.02 204.858 112.48 204.858 107.65V73.35C204.858 68.52 204.858 66.91 199.398 66.7V66H238.598L238.878 84.06H238.178C237.548 72.02 233.068 66.84 225.578 66.84H218.578C213.888 66.84 213.818 67.96 213.818 72.72V88.82H218.298C227.398 88.82 228.798 86.58 229.218 78.18H229.918V100.23H229.218C228.798 91.76 227.398 89.52 218.298 89.52H213.818V108.28C213.818 112.76 213.818 114.16 218.578 114.16H224.178C234.818 114.16 238.388 107.51 238.948 94.42Z" fill="#1A1A1A"/>
</svg>
