<svg
	width="326"
	height="132"
	viewBox="0 0 326 132"
	fill="none"
	xmlns="http://www.w3.org/2000/svg"
>
	<path
		d="M31.072 57.79C18.59 57.79 5.002 47.204 5.002 29.35C5.002 11.496 18.59 0.909997 31.072 0.909997C43.554 0.909997 57.063 11.496 57.063 29.35C57.063 47.204 43.554 57.79 31.072 57.79ZM31.072 56.842C42.843 56.842 45.687 45.15 45.687 29.35C45.687 13.55 42.843 1.858 31.072 1.858C19.143 1.858 16.378 13.55 16.378 29.35C16.378 45.15 19.143 56.842 31.072 56.842ZM91.8582 57.79C77.7172 57.79 71.0812 52.497 71.0812 35.67V9.995C71.0812 4.623 71.0812 2.727 64.9192 2.49V1.7H88.7772V2.49C81.1932 2.727 81.1932 4.623 81.1932 9.995V36.776C81.1932 47.599 82.4572 56.447 94.4652 56.447C103.234 56.447 109.238 51.707 109.238 36.697V15.051C109.238 7.388 109.317 2.727 98.9682 2.49V1.7H119.429V2.49C110.186 2.727 110.186 7.388 110.186 15.051V36.697C110.186 50.127 105.762 57.79 91.8582 57.79ZM174.825 42.069H175.615V48.231C175.615 51.628 175.299 53.366 174.035 54.867C172.85 56.289 170.559 57.79 167.004 57.79C163.528 57.79 161.553 56.605 160.368 55.025C159.183 53.445 158.946 51.312 158.946 48.389V41.753C158.946 33.616 155.233 30.93 148.36 30.93H141.487V48.705C141.487 54.156 141.487 55.894 149.071 56.21V57H125.213V56.21C131.375 55.894 131.375 54.156 131.375 48.705V9.995C131.375 4.544 131.375 2.727 125.213 2.49V1.7H149.387C161.711 1.7 171.191 5.176 171.191 16.236C171.191 25.716 164.318 29.745 153.811 30.693C163.212 32.194 169.374 36.776 169.374 43.728V48.31C169.374 50.048 169.532 51.47 169.848 52.26C170.243 53.129 170.954 53.761 172.06 53.761C173.324 53.761 173.956 53.05 174.272 52.26C174.667 51.47 174.825 50.206 174.825 48.231V42.069ZM141.487 29.982H149.387C157.208 29.982 160.289 27.059 160.289 16.236C160.289 5.492 157.208 2.648 149.387 2.648H146.859C141.487 2.648 141.487 4.228 141.487 9.284V29.982ZM29.018 131.711L10.374 85.97C7.767 79.492 6.108 76.727 0.657 76.49V75.7H26.016V76.49C17.642 76.727 18.432 79.966 20.881 85.97L34.074 118.834L45.529 89.051C49.084 79.966 50.032 76.727 40.157 76.49V75.7H58.406V76.49C51.533 76.727 50.19 79.65 46.556 88.972L29.887 131.711H29.018ZM98.072 120.73C100.758 127.208 102.417 129.736 107.868 130.21V131H82.43V130.21C90.883 129.736 89.935 126.734 87.565 120.73L84.326 112.514H64.892L62.917 117.649C59.441 126.734 58.493 129.736 68.21 130.21V131H50.119V130.21C56.992 129.736 58.256 127.05 61.89 117.728L78.559 74.91H79.428L98.072 120.73ZM65.208 111.645H83.931L74.372 87.629L65.208 111.645ZM112.715 131V130.21C118.877 129.894 118.877 128.156 118.877 122.705V83.995C118.877 78.544 118.877 76.727 112.715 76.49V75.7H137.284V76.49C128.989 76.727 128.989 78.544 128.989 83.995V123.416C128.989 128.472 128.989 130.052 134.361 130.052H139.575C151.425 130.052 155.849 121.757 156.56 106.273H157.35L157.034 131H112.715ZM191.411 131.79C177.27 131.79 170.634 126.497 170.634 109.67V83.995C170.634 78.623 170.634 76.727 164.472 76.49V75.7H188.33V76.49C180.746 76.727 180.746 78.623 180.746 83.995V110.776C180.746 121.599 182.01 130.447 194.018 130.447C202.787 130.447 208.791 125.707 208.791 110.697V89.051C208.791 81.388 208.87 76.727 198.521 76.49V75.7H218.982V76.49C209.739 76.727 209.739 81.388 209.739 89.051V110.697C209.739 124.127 205.315 131.79 191.411 131.79ZM269.401 107.774H270.191L269.796 131H224.766V130.21C230.928 129.894 230.928 128.156 230.928 122.705V83.995C230.928 78.544 230.928 76.727 224.766 76.49V75.7H269.006L269.322 96.082H268.532C267.821 82.494 262.765 76.648 254.312 76.648H246.412C241.119 76.648 241.04 77.912 241.04 83.284V101.454H246.096C256.366 101.454 257.946 98.926 258.42 89.446H259.21V114.331H258.42C257.946 104.772 256.366 102.244 246.096 102.244H241.04V123.416C241.04 128.472 241.04 130.052 246.412 130.052H252.732C264.74 130.052 268.769 122.547 269.401 107.774ZM304.636 131.711C299.185 131.711 295.314 129.894 292.707 128.314C289.942 126.813 287.967 125.312 286.624 125.312C285.36 125.312 284.491 126.26 284.254 131.711H283.464L283.148 108.406H283.938C284.57 117.807 290.732 130.763 304.636 130.763C308.981 130.763 313.642 129.973 316.644 126.576C318.303 124.838 318.777 122.547 318.777 120.098C318.777 113.383 311.114 110.302 301.713 106.984C293.576 104.061 283.859 100.98 283.859 90.789C283.859 85.97 285.755 82.178 288.915 79.571C292.391 76.411 297.447 74.989 302.74 74.989C308.112 74.989 311.746 76.964 313.958 78.386C316.802 80.124 318.224 81.467 319.488 81.467C320.752 81.467 321.621 80.44 321.779 74.989H322.569L322.885 96.951H322.095C321.384 88.261 315.775 75.937 302.74 75.937C299.264 75.937 295.63 76.727 293.339 78.623C291.443 80.124 290.416 82.336 290.416 84.864C290.416 91.342 296.973 93.791 305.584 96.872C315.617 100.427 325.097 103.587 325.097 114.173C325.097 119.466 323.043 123.732 319.33 126.813C315.617 129.815 311.193 131.711 304.636 131.711Z"
		fill="#1A1A1A"
	/>
</svg>
