<svg width="332" height="246" viewBox="0 0 332 246" fill="none" xmlns="http://www.w3.org/2000/svg">
<mask id="mask0_356_11704" style="mask-type:alpha" maskUnits="userSpaceOnUse" x="0" y="0" width="332" height="246">
<rect width="332" height="246" fill="#D9D9D9"/>
</mask>
<g mask="url(#mask0_356_11704)">
<g clip-path="url(#clip0_356_11704)">
<path d="M265.228 86.5991H255.217V110.639H265.228V86.5991Z" fill="#68C4F0"/>
<path d="M227.621 65.2131L219.275 66.6772L222.819 86.8776L231.165 85.4135L227.621 65.2131Z" fill="#68C4F0"/>
<path d="M229.575 36.6441L196.801 40.1641L198.136 52.5922L230.91 49.0723L229.575 36.6441Z" fill="white"/>
<path d="M221.048 10.8559L196.191 13.5254L197.526 25.9535L222.382 23.284L221.048 10.8559Z" fill="white"/>
<path d="M224.956 24.6429L200.758 27.2417L201.859 37.4955L226.057 34.8967L224.956 24.6429Z" fill="white"/>
<path d="M241.885 11.7328L240.904 23.4404L254.288 24.5619L255.269 12.8543L241.885 11.7328Z" fill="white"/>
<path d="M252.095 14.8969L251.643 20.2969L265.026 21.4184L265.479 16.0184L252.095 14.8969Z" fill="white"/>
<path d="M255.725 17.5849L255.08 25.2754L269.162 26.4554L269.806 18.7649L255.725 17.5849Z" fill="white"/>
<path d="M264.508 14.8643L255.162 11.9722L254.697 17.5002L269.812 18.7687L264.508 14.8643Z" fill="white"/>
<path d="M237.576 10.9002L237.088 16.73L244.063 17.3145L244.551 11.4847L237.576 10.9002Z" fill="white"/>
<path d="M224.319 63.2742L220.98 63.8599L224.524 84.0602L227.863 83.4746L224.319 63.2742Z" fill="#68C4F0"/>
<path d="M247.823 31.0059L247.428 37.4097L272.767 38.9728L273.162 32.569L247.823 31.0059Z" fill="white"/>
<path d="M273.525 25.6108L272.648 39.8237L279.164 40.2256L280.04 26.0127L273.525 25.6108Z" fill="white"/>
<path d="M260.036 36.806L259.75 41.4424L264.386 41.7284L264.672 37.092L260.036 36.806Z" fill="white"/>
<path d="M262.755 30.4569L262.469 35.0933L265.171 35.2599L265.457 30.6236L262.755 30.4569Z" fill="white"/>
<path d="M251.876 34.5731L251.59 39.2095L255.315 39.4392L255.601 34.8029L251.876 34.5731Z" fill="white"/>
<path d="M277.88 32.1995L277.572 37.2056L284.09 37.6065L284.398 32.6004L277.88 32.1995Z" fill="white"/>
<path d="M274.31 27.2015L274.234 28.4321L280.75 28.8306L280.825 27.6L274.31 27.2015Z" fill="white"/>
<path d="M243.089 60.8896H236.014V71.347H243.089V60.8896Z" fill="white"/>
<path d="M242.238 62.7847H235.391V67.2548H242.238V62.7847Z" fill="white"/>
<path d="M261.818 80.1758H259.459V88.8903H261.818V80.1758Z" fill="#68C4F0"/>
<path fill-rule="evenodd" clip-rule="evenodd" d="M272.519 63.7338H273.752V80.1784H265.977V63.7338H267.643V62.1025H271.327L272.519 63.7338Z" fill="#68C4F0"/>
<path d="M240.675 69.5483H239.168V78.2628H240.675V69.5483Z" fill="white"/>
<path d="M297.765 198.149H287.998V212.963H297.765V198.149Z" fill="#68C4F0"/>
<path d="M255.214 162.683H223.121V173.594H255.214V162.683Z" fill="#68C4F0"/>
<path d="M265.143 143.996L256.254 147.014L264.29 170.689L273.179 167.671L265.143 143.996Z" fill="#68C4F0"/>
<path d="M285.3 185.559H267.141V194.481H285.3V185.559Z" fill="#68C4F0"/>
<path d="M297.766 205.223H267.822V214.145H297.766V205.223Z" fill="#68C4F0"/>
<path d="M273.078 171.379H266.543V192.01H273.078V171.379Z" fill="#68C4F0"/>
<path d="M266.952 161.863L247.416 168.495L248.848 172.713L268.384 166.082L266.952 161.863Z" fill="#68C4F0"/>
<path d="M233.732 204.489H236.759V206.171H241.272V204.489H244.373V200.981H246.159V197.059H232.383V200.981H233.732V204.489Z" fill="#68C4F0"/>
<path d="M220.27 178.067V186.515H220.782V200.004H221.312V203.718H233.505V201.209H232.155V199.322H225.46V186.515H252.875V199.322H246.388V201.209H244.602V203.718H256.853V200.004H257.553V186.515H257.895V178.067H220.27Z" fill="#68C4F0"/>
<path d="M254.039 115.036V130.552L255.46 142.829H265.975V130.552H269.811V115.036H254.039Z" fill="#68C4F0"/>
<path d="M210.342 155.15L206.59 158.788L203.635 164.727V170.809L205.936 176.436L209.716 180.556L217.814 175.271C217.814 175.271 219.803 173.708 219.803 172.059V164.159C219.803 164.159 220.087 162.454 218.126 161.034C216.165 159.613 210.34 155.15 210.34 155.15" fill="#68C4F0"/>
<path d="M186.707 22.6016H170.225V48.8591H186.707V22.6016Z" fill="white"/>
<path d="M171.633 30.106H164.428V51.7031H171.633V30.106Z" fill="white"/>
<path d="M162.688 26.5415H147.266V53.4435H162.688V26.5415Z" fill="white"/>
<path d="M159.788 38.1558H135.613V53.446H159.788V38.1558Z" fill="white"/>
<path d="M184.207 18.4106H175.34V40.0078H184.207V18.4106Z" fill="white"/>
<path d="M190.006 28.4648H182.73V40.0055H190.006V28.4648Z" fill="white"/>
<path d="M195.576 37.0015H191.029V51.7006H195.576V37.0015Z" fill="white"/>
<path d="M213.231 107.382H215.819V98.6297H213.231V98.0057H197.773V108.235H213.231V107.382ZM216.755 120.255H215.816V117.386H214.936V113.605H200.021L194.841 110.614L195.744 109.125V96.9528L194.79 95.2074L214.132 84.0397L209.377 75.8047L191.104 86.3559L174.355 76.685L169.6 84.92L182.245 92.2188L181.628 93.8349H176.666V96.8082H176.153V96.1816H173.388V110.127H175.907V109.465H176.777V112.459H181.42L182.686 114.379L169.879 121.774L172.939 127.074H170.405L169.892 128.097H168.129V135.144H170.602V136.423H173.756L184.241 142.019V142.824L189.698 145.997H195.949V149.011H216.638V140.206H213.599V137.615H217.265V126.491H216.752V120.252L216.755 120.255ZM219.513 106.474H216.755V114.062H219.513V106.474Z" fill="white"/>
<path d="M99.4643 30.8696H85.3105V48.8592H99.4643V30.8696Z" fill="#68C4F0"/>
<path d="M55.4912 63.7328L45.4473 66.1924L47.9068 76.2363L57.9507 73.7767L55.4912 63.7328Z" fill="#68C4F0"/>
<path d="M58.287 69.4678L47.9844 71.9907L53.2288 93.4067L63.5314 90.8837L58.287 69.4678Z" fill="#68C4F0"/>
<path d="M63.22 71.3551L52.4492 73.9927L56.6835 91.2836L67.4543 88.6461L63.22 71.3551Z" fill="#68C4F0"/>
<path d="M70.9109 93.6731L56.1309 97.2925L58.4637 106.819L73.2437 103.2L70.9109 93.6731Z" fill="#68C4F0"/>
<path d="M110.947 25.1973H100.375V43.5547H110.947V25.1973Z" fill="#68C4F0"/>
<path d="M111.517 42.8721H101.684V53.1036H111.517V42.8721Z" fill="#68C4F0"/>
<path d="M103.39 32.0747H98.2168V43.4428H103.39V32.0747Z" fill="#68C4F0"/>
<path d="M112.71 36.7354H110.039V40.9036H112.71V36.7354Z" fill="#68C4F0"/>
<path d="M132.881 40.439H114.404V51.5407H132.881V40.439Z" fill="#68C4F0"/>
<path d="M127.779 37.938H110.236V39.6428H127.779V37.938Z" fill="#68C4F0"/>
<path d="M122.89 39.4551H120.125V41.4999H122.89V39.4551Z" fill="#68C4F0"/>
<path d="M124.634 27.4041L115.275 28.3124V23.7661H124.634V27.4041Z" fill="#68C4F0"/>
<path d="M140.73 23.4347L128.271 24.1924L129.096 37.7528L141.555 36.9951L140.73 23.4347Z" fill="#68C4F0"/>
<path d="M136.549 91.2979H129.844V112.811H136.549V91.2979Z" fill="white"/>
<path d="M136.549 114.904H129.844V126.493H136.549V114.904Z" fill="white"/>
<path d="M136.095 111.218H133.195V116.675H136.095V111.218Z" fill="white"/>
<path d="M132.792 140.209L127.812 142.281L134.076 157.335L139.056 155.263L132.792 140.209Z" fill="white"/>
<path d="M108.52 144.002L104.389 147.469L123.823 170.622L127.954 167.154L108.52 144.002Z" fill="white"/>
<path d="M167.308 154.197L160.32 160.062L198.765 205.862L205.752 199.997L167.308 154.197Z" fill="white"/>
<path d="M194.632 181.354L184.988 189.449L192.255 198.106L201.899 190.011L194.632 181.354Z" fill="white"/>
<path d="M178.1 149.044L161.808 162.718L151.906 150.921C151.906 150.921 154.654 148.108 160.111 144.333C165.568 140.558 173.24 144.731 173.24 144.731L178.103 149.044H178.1Z" fill="white"/>
<path d="M172.906 149.499L160.316 160.066L183.838 188.088L196.428 177.521L172.906 149.499Z" fill="white"/>
<path d="M174.146 148.463L160.318 160.07L182.328 186.291L196.155 174.684L174.146 148.463Z" fill="white"/>
<path d="M99.2464 150.848L95.1152 154.315L107.175 168.683L111.306 165.215L99.2464 150.848Z" fill="white"/>
<path d="M107.202 169.787L103.588 172.821L112.539 183.485L116.153 180.451L107.202 169.787Z" fill="white"/>
<path d="M105.155 167.849L102.994 169.663L110.44 178.536L112.601 176.723L105.155 167.849Z" fill="white"/>
<path d="M119.754 170.396L109.064 179.368L112.53 183.497L123.22 174.525L119.754 170.396Z" fill="white"/>
<path d="M131.422 157.293L120.414 166.533L123.83 170.602L134.837 161.362L131.422 157.293Z" fill="white"/>
<path d="M143.354 147.606L131.982 152.337L134.067 157.347L145.439 152.616L143.354 147.606Z" fill="white"/>
<path d="M103.332 138.158V118.037H100.376H86.2148H83.2593V135.05H79.9638H76.4374V116.675H68.3698V137.704H64.6836V143.463H72.4036V161.498H67.5732V159.851H55.2969V160.364V166.557V169.796H63.8794V168.576H70.0163V170.392H76.9524V161.955H79.9638V148.313H91.4816V141.453H100.376V138.158H103.332Z" fill="white"/>
<path d="M213.231 107.382H215.819V98.6297H213.231V98.0057H197.773V108.235H213.231V107.382ZM216.755 120.255H215.816V117.386H214.936V113.605H200.021L194.841 110.614L195.744 109.125V96.9528L194.79 95.2074L214.132 84.0397L209.377 75.8047L191.104 86.3559L174.355 76.685L169.6 84.92L182.245 92.2188L181.628 93.8349H176.666V96.8082H176.153V96.1816H173.388V110.127H175.907V109.465H176.777V112.459H181.42L182.686 114.379L169.879 121.774L172.939 127.074H170.405L169.892 128.097H168.129V135.144H170.602V136.423H173.756L184.241 142.019V142.824L189.698 145.997H195.949V149.011H216.638V140.206H213.599V137.615H217.265V126.491H216.752V120.252L216.755 120.255ZM219.513 106.474H216.755V114.062H219.513V106.474Z" stroke="#68C4F0" stroke-width="0.7" stroke-miterlimit="10"/>
<path d="M103.332 138.158V118.037H100.376H86.2149H83.2593V135.05H79.9638H76.4374V116.675H68.3698V137.704H64.6836V143.463H72.4036V161.498H67.5732V159.851H55.2969V160.364V166.557V169.796H63.8794V168.576H70.0163V170.392H76.9524V161.955H79.9638V148.313H91.4816V141.453H100.376V138.158H103.332Z" stroke="#68C4F0" stroke-width="0.7" stroke-miterlimit="10"/>
<path d="M103.747 211.494H86.2422V221.553H103.747V211.494Z" fill="white"/>
<path d="M192.524 156.366L224.878 149.11L225.956 147.312L225.349 137.623L223.008 135.451L219.956 88.8979L214.834 54.4866M160.652 58.2692L163.148 88.5504L165.721 96.8082L165.031 137.917M92.9403 62.955L99.2573 60.8543L200.066 56.6125L230.946 52.1779L241.883 34.0691C241.883 34.0691 243.717 28.2721 239.036 25.7326C234.353 23.1931 231.212 21.9576 230.682 11.9848C230.154 2.01455 229.926 0.0078125 229.926 0.0078125M88.7644 67.1359L100.424 101.129L115.304 116.049L120.981 128.939C120.981 128.939 124.008 134.32 129.381 134.698C134.755 135.076 164.97 137.899 164.97 137.899C164.97 137.899 189.398 145.193 195.076 161.503C200.751 177.813 210.211 207.138 210.211 207.138V231.082M88.7644 67.1359L87.2346 61.4226M88.7644 67.1359L92.9428 62.955L87.2372 61.4226H87.2346M87.2346 61.4226L58.5137 30.6137" stroke="#DCDDDD" stroke-miterlimit="10"/>
<path d="M207.422 212.963H198.885V219.762H207.422V212.963Z" fill="white"/>
<path d="M55.3841 201.131L57.8754 227.183L37.7598 229.354L38.5894 239.954L52.4488 238.548V240.337L63.2385 239.378V235.74L66.43 235.676L62.9188 200.172L60.5569 200.555L60.4935 199.532L55.3206 200.684L55.3841 201.131Z" fill="#68C4F0"/>
<path d="M29.8848 188.823H76.275" stroke="#231815" stroke-width="0.5" stroke-miterlimit="10" stroke-dasharray="1 1"/>
<path d="M76.2871 188.755V245.147" stroke="#231815" stroke-width="0.5" stroke-miterlimit="10" stroke-dasharray="1 1"/>
<path d="M264.773 68.8838H257.07V77.5983H264.773V68.8838Z" fill="#68C4F0"/>
<path d="M243.769 75.4976H236.693V90.047H243.769V75.4976Z" fill="#68C4F0"/>
<path d="M263.938 75.4976H243.771V82.1089H263.938V75.4976Z" fill="#68C4F0"/>
</g>
<path d="M99.2612 9.79355V9.35212H100.697V9.79355H99.2612ZM102.458 13.8882H101.905V9.07812H102.458V13.8882ZM101.484 12.5436L101.189 12.9546C100.712 12.7263 100.149 12.1783 99.9969 11.7064C99.8751 12.1986 99.3677 12.7922 98.8147 13.0713L98.4646 12.6705C99.1952 12.2848 99.7026 11.6252 99.7026 10.6561V10.6358H98.703V10.1944H101.26V10.6358H100.276V10.6561C100.276 11.6252 100.814 12.2189 101.484 12.5436Z" fill="#1A1A1A"/>
<path d="M106.364 12.2138L106.405 12.6603C105.375 12.7719 104.34 12.8227 103.208 12.8278L103.127 12.3508C103.634 12.3559 104.162 12.3559 104.72 12.3254C105.41 12.295 105.948 12.2595 106.364 12.2138ZM107.186 9.07812V13.8882H106.633V9.07812H107.186ZM105.38 10.6003C105.38 10.1842 105.065 9.93054 104.68 9.93054C104.304 9.93054 103.99 10.2045 103.99 10.6003C103.99 10.9859 104.309 11.2345 104.68 11.2345C105.055 11.2345 105.38 10.9859 105.38 10.6003ZM105.938 10.6054C105.938 11.2701 105.385 11.7013 104.68 11.7013C103.98 11.7013 103.447 11.2599 103.447 10.6054C103.447 9.94577 103.985 9.45867 104.68 9.45867C105.39 9.45867 105.938 9.93054 105.938 10.6054Z" fill="#1A1A1A"/>
<path d="M108.49 9.57537V9.13394H109.895V9.57537H108.49ZM109.768 11.2701C109.768 11.0367 109.5 10.8895 109.19 10.8895C108.875 10.8895 108.601 11.0367 108.601 11.2701C108.601 11.4933 108.881 11.6506 109.19 11.6506C109.5 11.6506 109.768 11.4933 109.768 11.2701ZM110.316 11.2701C110.316 11.747 109.829 12.0717 109.19 12.0717C108.546 12.0717 108.053 11.747 108.053 11.2701C108.053 10.783 108.541 10.4633 109.19 10.4633C109.829 10.4633 110.316 10.783 110.316 11.2701ZM110.575 10.2857H107.795V9.84936H110.575V10.2857ZM108.429 12.3102H111.57V13.8933H111.017V12.7567H108.429V12.3102ZM112.27 10.8083H111.565V12.0616H111.012V9.07812H111.565V10.3517H112.27V10.8083Z" fill="#1A1A1A"/>
<path d="M114.675 12.1326L114.746 12.5791C114.345 12.6705 113.721 12.7111 113.137 12.7111H112.655V9.66163H114.467V10.1081C114.05 10.1081 113.624 10.1031 113.213 10.1031V12.2544C113.817 12.2544 114.309 12.2138 114.675 12.1326ZM116.552 13.8882H116.019V11.4527H115.532V13.6548H115.009V9.17453H115.532V10.991H116.019V9.07812H116.552V13.8882Z" fill="#1A1A1A"/>
<path d="M117.825 9.57537V9.13394H119.231V9.57537H117.825ZM119.104 11.2701C119.104 11.0367 118.835 10.8895 118.525 10.8895C118.211 10.8895 117.937 11.0367 117.937 11.2701C117.937 11.4933 118.216 11.6506 118.525 11.6506C118.835 11.6506 119.104 11.4933 119.104 11.2701ZM119.652 11.2701C119.652 11.747 119.165 12.0717 118.525 12.0717C117.881 12.0717 117.389 11.747 117.389 11.2701C117.389 10.783 117.876 10.4633 118.525 10.4633C119.165 10.4633 119.652 10.783 119.652 11.2701ZM119.91 10.2857H117.13V9.84936H119.91V10.2857ZM117.764 12.3102H120.905V13.8933H120.352V12.7567H117.764V12.3102ZM121.605 10.8083H120.9V12.0616H120.347V9.07812H120.9V10.3517H121.605V10.8083Z" fill="#1A1A1A"/>
<path d="M123.969 10.0828C123.969 9.82907 123.721 9.61596 123.325 9.61596C122.924 9.61596 122.67 9.82907 122.67 10.0828C122.67 10.3314 122.924 10.5394 123.325 10.5394C123.721 10.5394 123.969 10.3314 123.969 10.0828ZM123.751 12.5436H123.193V11.6709C122.746 11.6912 122.3 11.7013 121.853 11.7064L121.777 11.2498C122.325 11.2498 122.848 11.2447 123.376 11.2244C124.025 11.199 124.532 11.1635 124.959 11.1128L124.994 11.5238C124.583 11.5745 124.167 11.61 123.751 11.6405V12.5436ZM125.943 13.7664H122.457V12.3508H123.01V13.3199H125.943V13.7664ZM124.365 12.2747V11.8688H125.304V9.07812H125.857V12.7872H125.304V12.2747H124.365ZM124.517 10.0828C124.517 10.6054 124.02 10.9606 123.325 10.9606C122.63 10.9606 122.117 10.6105 122.117 10.0726C122.117 9.56015 122.63 9.18975 123.325 9.18975C124.02 9.18975 124.517 9.56015 124.517 10.0828Z" fill="#1A1A1A"/>
<path d="M75.9989 76.1018V75.1732H74.0252V76.1018H75.9989ZM76.5469 76.5432H73.4721V74.7369H76.5469V76.5432ZM77.2522 73.3974H76.5469V74.4832H75.9939V71.794H76.5469V72.9356H77.2522V73.3974ZM74.766 73.1995C74.766 72.8139 74.5072 72.5246 74.0759 72.5246C73.6598 72.5246 73.3859 72.8189 73.3859 73.1995C73.3859 73.6054 73.6649 73.8845 74.0759 73.8845C74.4869 73.8845 74.766 73.5952 74.766 73.1995ZM75.3089 73.2045C75.3089 73.8845 74.7609 74.3157 74.0759 74.3157C73.4011 74.3157 72.8429 73.8845 72.8429 73.2045C72.8429 72.5399 73.396 72.0578 74.0759 72.0578C74.7558 72.0578 75.3089 72.5297 75.3089 73.2045Z" fill="#1A1A1A"/>
<path d="M79.4792 73.3365C79.4792 72.9153 79.2205 72.621 78.7993 72.621C78.3883 72.621 78.1144 72.9306 78.1144 73.3365C78.1144 73.7322 78.3883 74.0468 78.7993 74.0468C79.2205 74.0468 79.4792 73.7322 79.4792 73.3365ZM80.0323 73.3365C80.0323 74.0214 79.5351 74.5136 78.7993 74.5136C78.0636 74.5136 77.5613 74.0265 77.5613 73.3415C77.5613 72.6566 78.0585 72.1593 78.7993 72.1593C79.5351 72.1593 80.0323 72.6515 80.0323 73.3365ZM81.5342 76.4671H78.2716V74.9652H78.8247V76.0206H81.5342V76.4671ZM80.1287 74.1179L80.1389 73.6663H80.8847V72.9153H80.1389L80.1287 72.4638H80.8847V71.794H81.4378V75.2849H80.8847V74.1179H80.1287Z" fill="#1A1A1A"/>
<path d="M82.6957 72.0731H85.9177C85.9177 72.8747 85.872 73.5496 85.7553 74.1229H86.491V74.5694H84.5883V76.6041H84.0352V74.5694H82.1477V74.1229H85.2225C85.3139 73.6967 85.3545 73.0828 85.3595 72.5246H82.6957V72.0731Z" fill="#1A1A1A"/>
<path d="M91.1586 76.0003H86.8153V75.5538H88.7028V74.3716H89.2559V75.5538H91.1586V76.0003ZM91.0216 73.9758L90.7324 74.402C90.017 74.2193 89.2356 73.6713 88.987 73.0828C88.7637 73.6815 87.9621 74.2295 87.2365 74.402L86.9676 73.9555C87.754 73.8286 88.7028 73.1842 88.7028 72.3572V72.068H89.2813V72.3572C89.2813 73.1741 90.2961 73.8388 91.0216 73.9758Z" fill="#1A1A1A"/>
<path d="M206.729 55.1313H208.937C208.916 56.4759 207.967 57.3638 206.77 57.6937L206.491 57.2522C207.364 57.0696 208.191 56.4505 208.333 55.593H206.729V55.1313ZM210.991 56.618H210.281V58.2721H209.728V54.7559H210.281V56.1563H210.991V56.618ZM210.413 59.4289H207.222V57.9068H207.775V58.9824H210.413V59.4289Z" fill="#1A1A1A"/>
<path d="M213.213 56.2983C213.213 55.8772 212.955 55.5829 212.534 55.5829C212.123 55.5829 211.849 55.8924 211.849 56.2983C211.849 56.6941 212.123 57.0087 212.534 57.0087C212.955 57.0087 213.213 56.6941 213.213 56.2983ZM213.767 56.2983C213.767 56.9833 213.269 57.4755 212.534 57.4755C211.798 57.4755 211.296 56.9884 211.296 56.3034C211.296 55.6184 211.793 55.1212 212.534 55.1212C213.269 55.1212 213.767 55.6133 213.767 56.2983ZM215.268 59.4289H212.006V57.9271H212.559V58.9824H215.268V59.4289ZM213.863 57.0797L213.873 56.6281H214.619V55.8772H213.873L213.863 55.4256H214.619V54.7559H215.172V58.2467H214.619V57.0797H213.863Z" fill="#1A1A1A"/>
<path d="M216.43 55.0349H219.652C219.652 55.8366 219.606 56.5114 219.49 57.0848H220.225V57.5313H218.323V59.5659H217.769V57.5313H215.882V57.0848H218.957C219.048 56.6586 219.089 56.0446 219.094 55.4865H216.43V55.0349Z" fill="#1A1A1A"/>
<path d="M224.893 58.9621H220.55V58.5156H222.437V57.3334H222.99V58.5156H224.893V58.9621ZM224.756 56.9376L224.467 57.3638C223.751 57.1812 222.97 56.6332 222.721 56.0446C222.498 56.6434 221.696 57.1913 220.971 57.3638L220.702 56.9173C221.488 56.7905 222.437 56.1461 222.437 55.3191V55.0298H223.015V55.3191C223.015 56.136 224.03 56.8006 224.756 56.9376Z" fill="#1A1A1A"/>
<path d="M281.871 70.2171L281.911 70.6636C280.881 70.7752 279.846 70.826 278.715 70.8311L278.633 70.3541C279.141 70.3592 279.669 70.3592 280.227 70.3287C280.917 70.2983 281.455 70.2628 281.871 70.2171ZM282.693 67.0814V71.8915H282.14V67.0814H282.693ZM280.886 68.6036C280.886 68.1875 280.572 67.9339 280.186 67.9339C279.811 67.9339 279.496 68.2078 279.496 68.6036C279.496 68.9892 279.816 69.2379 280.186 69.2379C280.562 69.2379 280.886 68.9892 280.886 68.6036ZM281.444 68.6087C281.444 69.2734 280.891 69.7047 280.186 69.7047C279.486 69.7047 278.953 69.2632 278.953 68.6087C278.953 67.9491 279.491 67.462 280.186 67.462C280.896 67.462 281.444 67.9339 281.444 68.6087Z" fill="#1A1A1A"/>
<path d="M285.29 68.4869C285.29 68.1064 285.031 67.8121 284.6 67.8121C284.184 67.8121 283.91 68.1114 283.91 68.4869C283.91 68.8928 284.189 69.177 284.6 69.177C285.011 69.177 285.29 68.8827 285.29 68.4869ZM283.94 70.1461H287.076V71.8966H286.523V70.5875H283.94V70.1461ZM287.776 68.7863V69.2379H287.071V69.9025H286.518V67.0814H287.071V67.6954H287.776V68.147H287.071V68.7863H287.776ZM285.833 68.492C285.833 69.1719 285.285 69.5981 284.6 69.5981C283.925 69.5981 283.367 69.1719 283.367 68.492C283.367 67.8273 283.92 67.3503 284.6 67.3503C285.28 67.3503 285.833 67.8172 285.833 68.492Z" fill="#1A1A1A"/>
<path d="M290.003 68.6239C290.003 68.2028 289.745 67.9085 289.323 67.9085C288.912 67.9085 288.638 68.218 288.638 68.6239C288.638 69.0197 288.912 69.3343 289.323 69.3343C289.745 69.3343 290.003 69.0197 290.003 68.6239ZM290.556 68.6239C290.556 69.3089 290.059 69.8011 289.323 69.8011C288.588 69.8011 288.085 69.314 288.085 68.629C288.085 67.944 288.583 67.4468 289.323 67.4468C290.059 67.4468 290.556 67.9389 290.556 68.6239ZM292.058 71.7545H288.796V70.2526H289.349V71.308H292.058V71.7545ZM290.653 69.4053L290.663 68.9537H291.409V68.2028H290.663L290.653 67.7512H291.409V67.0814H291.962V70.5723H291.409V69.4053H290.653Z" fill="#1A1A1A"/>
<path d="M293.22 67.3605H296.442C296.442 68.1622 296.396 68.837 296.279 69.4104H297.015V69.8569H295.112V71.8915H294.559V69.8569H292.672V69.4104H295.747C295.838 68.9841 295.879 68.3702 295.884 67.8121H293.22V67.3605Z" fill="#1A1A1A"/>
<path d="M300.612 71.0239C300.612 70.7499 300.191 70.5875 299.511 70.5875C298.836 70.5875 298.415 70.7499 298.415 71.0239C298.415 71.2979 298.836 71.4501 299.511 71.4501C300.191 71.4501 300.612 71.2979 300.612 71.0239ZM301.18 71.0188C301.18 71.5566 300.572 71.8966 299.516 71.8966C298.451 71.8966 297.847 71.5566 297.847 71.0188C297.847 70.4911 298.451 70.141 299.511 70.141C300.572 70.141 301.18 70.4911 301.18 71.0188ZM301.165 68.8573H299.78V69.3596H301.683V69.8061H297.339V69.3596H299.227V68.8573H297.913V67.2134H301.13V67.6649H298.466V68.4108H301.165V68.8573Z" fill="#1A1A1A"/>
<path d="M270.516 96.4585H272.723C272.703 97.8031 271.754 98.6911 270.556 99.0209L270.277 98.5795C271.15 98.3968 271.977 97.7778 272.119 96.9203H270.516V96.4585ZM274.778 97.9452H274.068V99.5993H273.515V96.0831H274.068V97.4835H274.778V97.9452ZM274.2 100.756H271.008V99.234H271.561V100.31H274.2V100.756Z" fill="#1A1A1A"/>
<path d="M276.315 96.6717V96.2302H278.025V96.6717H276.315ZM278.121 98.4881C278.121 98.1888 277.68 98.0467 277.178 98.0467C276.675 98.0467 276.229 98.1888 276.229 98.4881C276.229 98.7824 276.675 98.9296 277.178 98.9296C277.68 98.9296 278.121 98.7824 278.121 98.4881ZM279.075 97.4226H275.27V96.9761H279.075V97.4226ZM279.344 100.32H275.001V99.8733H276.888V99.3355C276.137 99.2695 275.671 98.9549 275.671 98.4881C275.671 97.9604 276.264 97.6205 277.178 97.6205C278.091 97.6205 278.679 97.9604 278.679 98.4881C278.679 98.96 278.202 99.2797 277.441 99.3355V99.8733H279.344V100.32Z" fill="#1A1A1A"/>
<path d="M281.845 99.1376L281.916 99.5841C281.515 99.6754 280.891 99.716 280.308 99.716H279.826V96.6666H281.637V97.1131C281.221 97.1131 280.795 97.108 280.384 97.108V99.2594C280.988 99.2594 281.48 99.2188 281.845 99.1376ZM283.723 100.893H283.19V98.4577H282.703V100.66H282.18V96.1795H282.703V97.996H283.19V96.0831H283.723V100.893Z" fill="#1A1A1A"/>
<path d="M284.996 96.5803V96.1389H286.401V96.5803H284.996ZM286.274 98.275C286.274 98.0416 286.005 97.8945 285.696 97.8945C285.381 97.8945 285.107 98.0416 285.107 98.275C285.107 98.4983 285.386 98.6556 285.696 98.6556C286.005 98.6556 286.274 98.4983 286.274 98.275ZM286.822 98.275C286.822 98.752 286.335 99.0767 285.696 99.0767C285.051 99.0767 284.559 98.752 284.559 98.275C284.559 97.7879 285.046 97.4683 285.696 97.4683C286.335 97.4683 286.822 97.7879 286.822 98.275ZM287.081 97.2907H284.301V96.8543H287.081V97.2907ZM284.935 99.3152H288.076V100.898H287.522V99.7617H284.935V99.3152ZM288.776 97.8133H288.07V99.0666H287.517V96.0831H288.07V97.3566H288.776V97.8133Z" fill="#1A1A1A"/>
<path d="M279.696 126.408L279.737 126.854C278.707 126.966 277.672 127.017 276.54 127.022L276.459 126.545C276.966 126.55 277.494 126.55 278.052 126.52C278.742 126.489 279.28 126.454 279.696 126.408ZM280.518 123.272V128.082H279.965V123.272H280.518ZM278.712 124.794C278.712 124.378 278.397 124.125 278.012 124.125C277.636 124.125 277.321 124.399 277.321 124.794C277.321 125.18 277.641 125.429 278.012 125.429C278.387 125.429 278.712 125.18 278.712 124.794ZM279.27 124.8C279.27 125.464 278.717 125.895 278.012 125.895C277.311 125.895 276.779 125.454 276.779 124.8C276.779 124.14 277.316 123.653 278.012 123.653C278.722 123.653 279.27 124.125 279.27 124.8Z" fill="#1A1A1A"/>
<path d="M285.607 125.733H284.937V128.082H284.384V123.272H284.937V125.271H285.607V125.733ZM284.105 126.494L284.145 126.931C283.171 127.062 282.172 127.103 281.172 127.108L281.096 126.636C281.411 126.636 281.74 126.641 282.08 126.631V125.266H282.633V126.611C283.258 126.58 283.719 126.54 284.105 126.494ZM281.36 123.81H283.841C283.846 124.657 283.79 125.424 283.674 125.911L283.146 125.85C283.222 125.454 283.278 124.789 283.283 124.257H281.36V123.81Z" fill="#1A1A1A"/>
<path d="M286.489 123.77V123.328H287.895V123.77H286.489ZM287.768 125.464C287.768 125.231 287.499 125.084 287.189 125.084C286.875 125.084 286.601 125.231 286.601 125.464C286.601 125.687 286.88 125.845 287.189 125.845C287.499 125.845 287.768 125.687 287.768 125.464ZM288.316 125.464C288.316 125.941 287.829 126.266 287.189 126.266C286.545 126.266 286.053 125.941 286.053 125.464C286.053 124.977 286.54 124.657 287.189 124.657C287.829 124.657 288.316 124.977 288.316 125.464ZM288.575 124.48H285.794V124.044H288.575V124.48ZM286.428 126.504H289.569V128.087H289.016V126.951H286.428V126.504ZM290.269 125.002H289.564V126.256H289.011V123.272H289.564V124.546H290.269V125.002Z" fill="#1A1A1A"/>
<path d="M294.962 125.195H294.272V126.86H293.719V123.272H294.272V124.739H294.962V125.195ZM294.419 127.961H291.157V126.55H291.71V127.514H294.419V127.961ZM293.435 125.611L293.481 126.027C292.567 126.149 291.492 126.195 290.452 126.205L290.37 125.748C290.655 125.748 291.015 125.753 291.365 125.743V124.739H291.913V125.723H291.923C292.405 125.708 293.095 125.657 293.435 125.611ZM290.705 123.622H293.12C293.115 124.348 293.09 124.916 292.978 125.322L292.451 125.246C292.522 124.952 292.567 124.485 292.562 124.074H290.705V123.622Z" fill="#1A1A1A"/>
<path d="M275.767 152.816C275.98 152.816 276.173 152.831 276.35 152.857V152.359H275.178V152.857C275.356 152.831 275.548 152.816 275.767 152.816ZM276.868 153.694C276.868 153.415 276.447 153.258 275.767 153.258C275.092 153.258 274.671 153.415 274.671 153.694C274.671 153.968 275.092 154.115 275.767 154.115C276.447 154.115 276.868 153.968 276.868 153.694ZM276.878 150.716C276.878 150.416 276.457 150.233 275.767 150.233C275.082 150.233 274.655 150.416 274.655 150.716C274.655 151.015 275.082 151.198 275.767 151.198C276.441 151.198 276.878 151.015 276.878 150.716ZM277.446 150.716C277.446 151.238 276.832 151.639 275.772 151.639C274.706 151.639 274.087 151.238 274.087 150.716C274.087 150.193 274.706 149.802 275.767 149.802C276.832 149.802 277.446 150.193 277.446 150.716ZM277.436 153.689C277.436 154.206 276.827 154.562 275.772 154.562C274.706 154.562 274.102 154.206 274.102 153.689C274.102 153.405 274.285 153.171 274.625 153.014V152.359H273.595V151.913H277.938V152.359H276.903V153.014C277.248 153.166 277.436 153.405 277.436 153.689Z" fill="#1A1A1A"/>
<path d="M281.444 154.064V153.638H279.47V154.064H281.444ZM281.997 154.506H278.917V152.755H279.47V153.197H281.444V152.745H281.997V154.506ZM282.702 151.411H281.997V152.502H281.444V149.736H281.997V150.949H282.702V151.411ZM278.922 150.188V149.757H280.328V150.188H278.922ZM280.221 151.822C280.221 151.593 279.932 151.451 279.622 151.451C279.308 151.451 279.014 151.593 279.014 151.822C279.014 152.05 279.313 152.182 279.622 152.182C279.932 152.182 280.221 152.05 280.221 151.822ZM280.739 151.822C280.739 152.263 280.307 152.588 279.622 152.588C278.932 152.588 278.496 152.263 278.496 151.822C278.496 151.375 278.927 151.05 279.622 151.05C280.307 151.05 280.739 151.375 280.739 151.822ZM281.008 150.883H278.227V150.462H281.008V150.883Z" fill="#1A1A1A"/>
<path d="M287.395 151.659H286.705V153.324H286.152V149.736H286.705V151.203H287.395V151.659ZM286.852 154.425H283.59V153.014H284.143V153.978H286.852V154.425ZM285.868 152.075L285.914 152.491C285 152.613 283.925 152.659 282.885 152.669L282.803 152.212C283.088 152.212 283.448 152.217 283.798 152.207V151.203H284.346V152.187H284.356C284.838 152.172 285.528 152.121 285.868 152.075ZM283.138 150.086H285.553C285.548 150.812 285.523 151.38 285.411 151.786L284.884 151.71C284.955 151.416 285 150.949 284.995 150.538H283.138V150.086Z" fill="#1A1A1A"/>
<path d="M177.855 169.185L177.896 169.632C176.866 169.743 175.831 169.794 174.699 169.799L174.618 169.322C175.125 169.327 175.653 169.327 176.211 169.297C176.901 169.266 177.439 169.231 177.855 169.185ZM178.677 166.05V170.86H178.124V166.05H178.677ZM176.871 167.572C176.871 167.156 176.556 166.902 176.171 166.902C175.795 166.902 175.481 167.176 175.481 167.572C175.481 167.957 175.8 168.206 176.171 168.206C176.546 168.206 176.871 167.957 176.871 167.572ZM177.429 167.577C177.429 168.241 176.876 168.673 176.171 168.673C175.47 168.673 174.938 168.231 174.938 167.577C174.938 166.917 175.475 166.43 176.171 166.43C176.881 166.43 177.429 166.902 177.429 167.577Z" fill="#1A1A1A"/>
<path d="M179.981 166.547V166.105H181.386V166.547H179.981ZM181.259 168.241C181.259 168.008 180.99 167.861 180.681 167.861C180.366 167.861 180.092 168.008 180.092 168.241C180.092 168.465 180.371 168.622 180.681 168.622C180.99 168.622 181.259 168.465 181.259 168.241ZM181.807 168.241C181.807 168.718 181.32 169.043 180.681 169.043C180.036 169.043 179.544 168.718 179.544 168.241C179.544 167.754 180.031 167.435 180.681 167.435C181.32 167.435 181.807 167.754 181.807 168.241ZM182.066 167.257H179.286V166.821H182.066V167.257ZM179.92 169.282H183.061V170.865H182.507V169.728H179.92V169.282ZM183.761 167.78H183.055V169.033H182.502V166.05H183.055V167.323H183.761V167.78Z" fill="#1A1A1A"/>
<path d="M187.799 168.632H186.429V169.809H188.332V170.251H183.989V169.809H185.876V168.632H184.557V166.42H187.774V166.866H185.11V168.181H187.799V168.632Z" fill="#1A1A1A"/>
<path d="M191.579 169.353L191.249 169.764C190.838 169.505 190.295 168.891 190.123 168.363C189.955 168.932 189.478 169.535 188.956 169.85L188.611 169.449C189.357 168.967 189.828 168.17 189.828 167.252V166.461H190.397V167.222C190.397 168.145 190.874 168.911 191.579 169.353ZM192.619 170.86H192.066V168.17H191.127V167.709H192.066V166.05H192.619V170.86Z" fill="#1A1A1A"/>
<path d="M197.789 167.973H197.099V169.637H196.546V166.05H197.099V167.516H197.789V167.973ZM197.246 170.738H193.984V169.327H194.537V170.291H197.246V170.738ZM196.262 168.389L196.307 168.805C195.394 168.926 194.318 168.972 193.278 168.982L193.197 168.526C193.481 168.526 193.841 168.531 194.192 168.521V167.516H194.74V168.5H194.75C195.232 168.485 195.922 168.434 196.262 168.389ZM193.532 166.4H195.947C195.942 167.125 195.917 167.693 195.805 168.099L195.277 168.023C195.348 167.729 195.394 167.262 195.389 166.851H193.532V166.4Z" fill="#1A1A1A"/>
<path d="M280.838 179.595H276.494V179.149H277.509V177.647H278.062V179.149H278.666V177.647H279.219V179.149H280.838V179.595ZM276.997 176.003H280.32C280.32 177.21 280.264 177.921 280.112 178.59L279.579 178.509C279.716 178.007 279.762 177.109 279.762 176.454H276.997V176.003Z" fill="#1A1A1A"/>
<path d="M282.841 178.124V178.707H283.811V178.124H282.841ZM284.435 176.444C284.435 176.14 284.024 175.957 283.334 175.957C282.649 175.957 282.238 176.14 282.238 176.444C282.238 176.738 282.649 176.926 283.334 176.926C284.008 176.926 284.435 176.738 284.435 176.444ZM284.998 176.444C284.998 176.982 284.399 177.357 283.339 177.357C282.273 177.357 281.674 176.982 281.674 176.444C281.674 175.901 282.273 175.531 283.334 175.531C284.399 175.531 284.998 175.901 284.998 176.444ZM281.669 178.707H282.288V178.124H281.162V177.677H285.505V178.124H284.364V178.707H284.947V180.3H284.394V179.149H281.669V178.707Z" fill="#1A1A1A"/>
<path d="M290.295 177.398H289.605V179.062H289.052V175.475H289.605V176.941H290.295V177.398ZM289.752 180.163H286.489V178.753H287.042V179.717H289.752V180.163ZM288.767 177.814L288.813 178.23C287.9 178.352 286.824 178.398 285.784 178.408L285.703 177.951C285.987 177.951 286.347 177.956 286.697 177.946V176.941H287.245V177.926H287.255C287.737 177.911 288.428 177.86 288.767 177.814ZM286.038 175.825H288.453C288.448 176.551 288.422 177.119 288.311 177.525L287.783 177.449C287.854 177.155 287.9 176.688 287.895 176.277H286.038V175.825Z" fill="#1A1A1A"/>
<path d="M277.154 222.737V222.296H278.559V222.737H277.154ZM278.433 224.432C278.433 224.199 278.164 224.051 277.854 224.051C277.54 224.051 277.266 224.199 277.266 224.432C277.266 224.655 277.545 224.813 277.854 224.813C278.164 224.813 278.433 224.655 278.433 224.432ZM278.981 224.432C278.981 224.909 278.494 225.234 277.854 225.234C277.21 225.234 276.718 224.909 276.718 224.432C276.718 223.945 277.205 223.625 277.854 223.625C278.494 223.625 278.981 223.945 278.981 224.432ZM279.239 223.448H276.459V223.011H279.239V223.448ZM277.093 225.472H280.234V227.055H279.681V225.919H277.093V225.472ZM280.934 223.97H280.229V225.223H279.676V222.24H280.229V223.514H280.934V223.97Z" fill="#1A1A1A"/>
<path d="M284.693 226.101C284.693 225.782 284.277 225.599 283.603 225.599C282.928 225.599 282.517 225.782 282.517 226.101C282.517 226.416 282.928 226.604 283.603 226.604C284.277 226.604 284.693 226.416 284.693 226.101ZM283.577 224.427L283.298 224.838C282.973 224.686 282.522 224.285 282.395 223.955C282.263 224.336 281.872 224.777 281.451 224.99L281.137 224.599C281.69 224.29 282.111 223.752 282.111 223.062V222.539H282.644V223.047C282.644 223.742 283.131 224.209 283.577 224.427ZM285.216 225.173H284.688V223.909H284.222V224.97H283.699V222.326H284.222V223.448H284.688V222.24H285.216V225.173ZM285.262 226.101C285.262 226.67 284.648 227.045 283.603 227.045C282.562 227.045 281.943 226.67 281.943 226.101C281.943 225.523 282.562 225.147 283.603 225.147C284.648 225.147 285.262 225.523 285.262 226.101Z" fill="#1A1A1A"/>
<path d="M290.295 224.163H289.605V225.827H289.052V222.24H289.605V223.706H290.295V224.163ZM289.752 226.928H286.489V225.518H287.042V226.482H289.752V226.928ZM288.767 224.579L288.813 224.995C287.9 225.117 286.824 225.163 285.784 225.173L285.703 224.716C285.987 224.716 286.347 224.721 286.697 224.711V223.706H287.245V224.691H287.255C287.737 224.676 288.428 224.625 288.767 224.579ZM286.038 222.59H288.453C288.448 223.316 288.422 223.884 288.311 224.29L287.783 224.214C287.854 223.919 287.9 223.453 287.895 223.042H286.038V222.59Z" fill="#1A1A1A"/>
<path d="M221.596 218.279C221.596 218.087 221.373 217.955 221.074 217.955C220.774 217.955 220.561 218.087 220.561 218.279C220.561 218.467 220.774 218.604 221.074 218.604C221.378 218.604 221.596 218.467 221.596 218.279ZM220.419 216.666V216.225H221.703V216.666H220.419ZM219.856 217.356V216.92H222.2V217.356H219.856ZM222.327 219.619C221.652 219.619 221.241 219.781 221.241 220.05C221.241 220.314 221.652 220.477 222.327 220.477C222.992 220.477 223.408 220.314 223.408 220.05C223.408 219.781 222.992 219.619 222.327 219.619ZM222.078 218.279C222.078 218.68 221.677 219.015 221.074 219.015C220.475 219.015 220.074 218.68 220.074 218.279C220.074 217.884 220.475 217.539 221.074 217.539C221.677 217.539 222.078 217.879 222.078 218.279ZM223.94 219.147H223.413V217.858H222.946V218.98H222.423V216.164H222.946V217.397H223.413V216.077H223.94V219.147ZM223.976 220.045C223.976 220.578 223.352 220.898 222.332 220.898C221.302 220.898 220.673 220.578 220.673 220.045C220.673 219.518 221.302 219.198 222.332 219.198C223.352 219.198 223.976 219.518 223.976 220.045Z" fill="#1A1A1A"/>
<path d="M226.913 219.441C226.249 219.441 225.853 219.624 225.853 219.944C225.853 220.258 226.249 220.441 226.913 220.441C227.593 220.441 227.984 220.258 227.984 219.944C227.984 219.624 227.593 219.441 226.913 219.441ZM227.177 217.706V217.244H227.959V216.077H228.517V218.97H227.959V217.706H227.177ZM224.721 216.844V216.387H227.253V216.844H226.289V216.864C226.289 217.579 226.827 218.107 227.385 218.279L227.081 218.721C226.685 218.564 226.213 218.183 226.005 217.737C225.863 218.203 225.345 218.675 224.868 218.858L224.534 218.427C225.208 218.178 225.721 217.6 225.721 216.889V216.844H224.721ZM228.552 219.944C228.552 220.512 227.953 220.887 226.913 220.887C225.878 220.887 225.285 220.512 225.285 219.944C225.285 219.365 225.878 218.99 226.913 218.99C227.953 218.99 228.552 219.365 228.552 219.944Z" fill="#1A1A1A"/>
<path d="M233.687 218H232.997V219.665H232.443V216.077H232.997V217.544H233.687V218ZM233.144 220.766H229.881V219.355H230.434V220.319H233.144V220.766ZM232.159 218.416L232.205 218.833C231.292 218.954 230.216 219 229.176 219.01L229.095 218.553C229.379 218.553 229.739 218.559 230.089 218.548V217.544H230.637V218.528H230.647C231.129 218.513 231.819 218.462 232.159 218.416ZM229.43 216.428H231.845C231.84 217.153 231.814 217.721 231.703 218.127L231.175 218.051C231.246 217.757 231.292 217.29 231.287 216.879H229.43V216.428Z" fill="#1A1A1A"/>
<path d="M235.697 220.796V216.219H236.148V220.796H235.697Z" fill="#1A1A1A"/>
<path d="M240.278 217.62C240.278 217.199 240.02 216.904 239.599 216.904C239.188 216.904 238.914 217.214 238.914 217.62C238.914 218.016 239.188 218.33 239.599 218.33C240.02 218.33 240.278 218.016 240.278 217.62ZM240.831 217.62C240.831 218.305 240.334 218.797 239.599 218.797C238.863 218.797 238.36 218.31 238.36 217.625C238.36 216.94 238.858 216.443 239.599 216.443C240.334 216.443 240.831 216.935 240.831 217.62ZM242.333 220.75H239.071V219.249H239.624V220.304H242.333V220.75ZM240.928 218.401L240.938 217.95H241.684V217.199H240.938L240.928 216.747H241.684V216.077H242.237V219.568H241.684V218.401H240.928Z" fill="#1A1A1A"/>
<path d="M243.495 216.356H246.717C246.717 217.158 246.671 217.833 246.554 218.406H247.29V218.853H245.387V220.887H244.834V218.853H242.947V218.406H246.022C246.113 217.98 246.154 217.366 246.159 216.808H243.495V216.356Z" fill="#1A1A1A"/>
<path d="M252.08 218H251.39V219.665H250.836V216.077H251.39V217.544H252.08V218ZM251.537 220.766H248.274V219.355H248.827V220.319H251.537V220.766ZM250.552 218.416L250.598 218.833C249.685 218.954 248.609 219 247.569 219.01L247.488 218.553C247.772 218.553 248.132 218.559 248.482 218.548V217.544H249.03V218.528H249.04C249.522 218.513 250.212 218.462 250.552 218.416ZM247.823 216.428H250.238C250.233 217.153 250.207 217.721 250.096 218.127L249.568 218.051C249.639 217.757 249.685 217.29 249.68 216.879H247.823V216.428Z" fill="#1A1A1A"/>
<path d="M40.9424 127.663L40.6126 128.074C40.2016 127.815 39.6587 127.201 39.4862 126.673C39.3188 127.242 38.8418 127.845 38.3192 128.16L37.9742 127.759C38.7201 127.277 39.1919 126.48 39.1919 125.562V124.771H39.7602V125.532C39.7602 126.455 40.2372 127.221 40.9424 127.663ZM41.9826 129.17H41.4295V126.48H40.4909V126.019H41.4295V124.36H41.9826V129.17Z" fill="#1A1A1A"/>
<path d="M44.8693 124.852C44.1741 124.852 43.7581 125.004 43.7581 125.263C43.7581 125.521 44.1741 125.679 44.8693 125.679C45.5644 125.679 45.9855 125.521 45.9855 125.263C45.9855 125.004 45.5644 124.852 44.8693 124.852ZM44.8693 124.41C45.9297 124.41 46.564 124.765 46.564 125.263C46.564 125.76 45.9297 126.115 44.8693 126.115C43.8088 126.115 43.1847 125.76 43.1847 125.263C43.1847 124.765 43.8088 124.41 44.8693 124.41ZM46.6401 129.139H43.2456V127.947H45.9094V127.637H43.2202V127.196H44.575V126.825H42.6875V126.379H47.0308V126.825H45.128V127.196H46.4625V128.348H43.7987V128.693H46.6401V129.139Z" fill="#1A1A1A"/>
<path d="M49.5318 127.414L49.6028 127.861C49.202 127.952 48.5779 127.992 47.9944 127.992H47.5124V124.943H49.3238V125.39C48.9077 125.39 48.4815 125.384 48.0705 125.384V127.536C48.6743 127.536 49.1665 127.495 49.5318 127.414ZM51.4092 129.17H50.8764V126.734H50.3893V128.936H49.8667V124.456H50.3893V126.272H50.8764V124.36H51.4092V129.17Z" fill="#1A1A1A"/>
<path d="M52.6823 124.857V124.415H54.0878V124.857H52.6823ZM53.9609 126.551C53.9609 126.318 53.692 126.171 53.3825 126.171C53.0679 126.171 52.7939 126.318 52.7939 126.551C52.7939 126.775 53.073 126.932 53.3825 126.932C53.692 126.932 53.9609 126.775 53.9609 126.551ZM54.5089 126.551C54.5089 127.028 54.0218 127.353 53.3825 127.353C52.7381 127.353 52.246 127.028 52.246 126.551C52.246 126.064 52.7331 125.745 53.3825 125.745C54.0218 125.745 54.5089 126.064 54.5089 126.551ZM54.7677 125.567H51.9872V125.131H54.7677V125.567ZM52.6214 127.592H55.7622V129.175H55.2091V128.038H52.6214V127.592ZM56.4624 126.09H55.7571V127.343H55.2041V124.36H55.7571V125.633H56.4624V126.09Z" fill="#1A1A1A"/>
<path d="M61.0336 128.48H56.6903V128.033H57.7051V126.531H58.2582V128.033H58.862V126.531H59.415V128.033H61.0336V128.48ZM57.1926 124.887H60.5161C60.5161 126.095 60.4603 126.805 60.308 127.475L59.7753 127.394C59.9123 126.891 59.9579 125.993 59.9579 125.339H57.1926V124.887Z" fill="#1A1A1A"/>
<path d="M38.786 133.411V132.969H40.2219V133.411H38.786ZM41.9826 137.505H41.4295V132.695H41.9826V137.505ZM41.0084 136.161L40.7141 136.572C40.2372 136.343 39.674 135.795 39.5217 135.324C39.4 135.816 38.8926 136.409 38.3395 136.688L37.9894 136.288C38.7201 135.902 39.2275 135.242 39.2275 134.273V134.253H38.2279V133.812H40.7852V134.253H39.8008V134.273C39.8008 135.242 40.3386 135.836 41.0084 136.161Z" fill="#1A1A1A"/>
<path d="M47.1322 135.156H46.4625V137.505H45.9094V132.695H46.4625V134.694H47.1322V135.156ZM45.6304 135.917L45.6709 136.354C44.6968 136.485 43.6972 136.526 42.6976 136.531L42.6215 136.059C42.9361 136.059 43.2659 136.064 43.6059 136.054V134.689H44.1589V136.034C44.783 136.003 45.2447 135.963 45.6304 135.917ZM42.8854 133.233H45.3665C45.3716 134.08 45.3158 134.847 45.1991 135.334L44.6714 135.273C44.7475 134.877 44.8033 134.212 44.8084 133.68H42.8854V133.233Z" fill="#1A1A1A"/>
<path d="M51.3128 132.695V135.547H50.7597V134.826H49.9986V134.38H50.7597V133.817H49.9986V133.37H50.7597V132.695H51.3128ZM50.78 136.557C50.78 136.237 50.3893 136.044 49.7043 136.044C49.0346 136.044 48.6388 136.237 48.6388 136.557C48.6388 136.871 49.0346 137.064 49.7043 137.064C50.3893 137.064 50.78 136.871 50.78 136.557ZM51.3483 136.557C51.3483 137.13 50.7495 137.505 49.7043 137.505C48.6642 137.505 48.0705 137.13 48.0705 136.557C48.0705 135.973 48.6642 135.598 49.7043 135.598C50.7495 135.598 51.3483 135.973 51.3483 136.557ZM49.202 134.811V134.141H48.0857V134.811H49.202ZM49.7551 135.253H47.5327V132.969H48.0857V133.71H49.202V132.959H49.7551V135.253Z" fill="#1A1A1A"/>
<path d="M54.1588 133.7C54.1588 133.446 53.9102 133.233 53.5144 133.233C53.1136 133.233 52.8599 133.446 52.8599 133.7C52.8599 133.949 53.1136 134.157 53.5144 134.157C53.9102 134.157 54.1588 133.949 54.1588 133.7ZM53.9407 136.161H53.3825V135.288C52.936 135.308 52.4895 135.318 52.043 135.324L51.9669 134.867C52.5149 134.867 53.0375 134.862 53.5652 134.842C54.2146 134.816 54.722 134.781 55.1482 134.73L55.1838 135.141C54.7728 135.192 54.3567 135.227 53.9407 135.258V136.161ZM56.1326 137.384H52.6468V135.968H53.1999V136.937H56.1326V137.384ZM54.5546 135.892V135.486H55.4933V132.695H56.0463V136.404H55.4933V135.892H54.5546ZM54.7068 133.7C54.7068 134.223 54.2096 134.578 53.5144 134.578C52.8193 134.578 52.3068 134.228 52.3068 133.69C52.3068 133.177 52.8193 132.807 53.5144 132.807C54.2096 132.807 54.7068 133.177 54.7068 133.7Z" fill="#1A1A1A"/>
<path d="M34.5558 210.528H35.9258V209.655H34.0332V209.209H37.1334C37.2095 208.884 37.2501 208.427 37.2551 208.016H34.5913V207.57H37.8082C37.8082 208.27 37.7625 208.793 37.6661 209.209H38.3765V209.655H36.4788V210.528H37.8133V212.202H37.2602V210.975H34.5558V210.528Z" fill="#1A1A1A"/>
<path d="M42.7549 212.187H42.2272V207.377H42.7549V212.187ZM41.801 211.959H41.2784V209.549H40.6238V209.087H41.2784V207.474H41.801V211.959ZM41.0805 210.67L40.7558 211.071C40.431 210.863 40.0099 210.35 39.883 209.894C39.7765 210.371 39.3604 210.919 38.9444 211.178L38.5993 210.807C39.2336 210.386 39.6192 209.686 39.6192 208.732V208.377H38.7719V207.93H40.9486V208.377H40.157V208.717C40.157 209.671 40.5427 210.356 41.0805 210.67Z" fill="#1A1A1A"/>
<path d="M47.8335 209.3H47.1434V210.964H46.5904V207.377H47.1434V208.844H47.8335V209.3ZM47.2906 212.065H44.028V210.655H44.5811V211.619H47.2906V212.065ZM46.3062 209.716L46.3519 210.132C45.4386 210.254 44.3629 210.3 43.3228 210.31L43.2416 209.853C43.5257 209.853 43.886 209.858 44.2361 209.848V208.844H44.7841V209.828H44.7942C45.2762 209.813 45.9663 209.762 46.3062 209.716ZM43.5765 207.727H45.9917C45.9866 208.453 45.9612 209.021 45.8496 209.427L45.3219 209.351C45.3929 209.057 45.4386 208.59 45.4335 208.179H43.5765V207.727Z" fill="#1A1A1A"/>
<path d="M81.0881 98.856L81.1287 99.3025C80.0987 99.4141 79.0636 99.4649 77.9321 99.4699L77.8509 98.993C78.3583 98.9981 78.886 98.9981 79.4441 98.9676C80.1342 98.9372 80.672 98.9017 81.0881 98.856ZM81.9101 95.7203V100.53H81.357V95.7203H81.9101ZM80.1037 97.2425C80.1037 96.8264 79.7891 96.5727 79.4035 96.5727C79.0281 96.5727 78.7135 96.8467 78.7135 97.2425C78.7135 97.6281 79.0331 97.8767 79.4035 97.8767C79.779 97.8767 80.1037 97.6281 80.1037 97.2425ZM80.6619 97.2476C80.6619 97.9122 80.1088 98.3435 79.4035 98.3435C78.7033 98.3435 78.1706 97.9021 78.1706 97.2476C78.1706 96.588 78.7084 96.1009 79.4035 96.1009C80.1139 96.1009 80.6619 96.5727 80.6619 97.2476Z" fill="#1A1A1A"/>
<path d="M86.0855 99.5816C86.0855 99.2619 85.6694 99.0792 84.9946 99.0792C84.3198 99.0792 83.9088 99.2619 83.9088 99.5816C83.9088 99.8961 84.3198 100.084 84.9946 100.084C85.6694 100.084 86.0855 99.8961 86.0855 99.5816ZM84.9692 97.9072L84.6902 98.3182C84.3654 98.1659 83.9139 97.7651 83.787 97.4353C83.6551 97.8158 83.2644 98.2573 82.8433 98.4704L82.5287 98.0797C83.0817 97.7702 83.5029 97.2323 83.5029 96.5423V96.0197H84.0356V96.5271C84.0356 97.2222 84.5227 97.689 84.9692 97.9072ZM86.6081 98.653H86.0804V97.3896H85.6136V98.4501H85.091V95.8066H85.6136V96.9279H86.0804V95.7203H86.6081V98.653ZM86.6538 99.5816C86.6538 100.15 86.0398 100.525 84.9946 100.525C83.9544 100.525 83.3354 100.15 83.3354 99.5816C83.3354 99.0031 83.9544 98.6277 84.9946 98.6277C86.0398 98.6277 86.6538 99.0031 86.6538 99.5816Z" fill="#1A1A1A"/>
<path d="M89.0787 97.8108V96.5118H87.9827V97.8108H89.0787ZM90.6466 99.5816C90.6466 99.2568 90.2559 99.0691 89.5709 99.0691C88.9011 99.0691 88.5054 99.2568 88.5054 99.5816C88.5054 99.8961 88.9011 100.084 89.5709 100.084C90.2559 100.084 90.6466 99.8961 90.6466 99.5816ZM90.6263 96.8873H89.8855V96.4357H90.6263V95.7203H91.1793V98.5668H90.6263V97.8869H89.8804V97.4353H90.6263V96.8873ZM89.6318 98.2421H87.4297V96.0755H89.6318V98.2421ZM91.2148 99.5816C91.2148 100.155 90.6161 100.53 89.5709 100.53C88.5307 100.53 87.9371 100.155 87.9371 99.5816C87.9371 98.993 88.5307 98.6175 89.5709 98.6175C90.6161 98.6175 91.2148 98.993 91.2148 99.5816Z" fill="#1A1A1A"/>
<path d="M95.162 99.6628C95.162 99.3888 94.7408 99.2264 94.0609 99.2264C93.3861 99.2264 92.9649 99.3888 92.9649 99.6628C92.9649 99.9367 93.3861 100.089 94.0609 100.089C94.7408 100.089 95.162 99.9367 95.162 99.6628ZM95.7302 99.6577C95.7302 100.196 95.1214 100.535 94.066 100.535C93.0005 100.535 92.3967 100.196 92.3967 99.6577C92.3967 99.13 93.0005 98.7799 94.0609 98.7799C95.1214 98.7799 95.7302 99.13 95.7302 99.6577ZM95.715 97.4962H94.3298V97.9985H96.2326V98.445H91.8893V97.9985H93.7768V97.4962H92.4626V95.8522H95.6795V96.3038H93.0157V97.0497H95.715V97.4962Z" fill="#1A1A1A"/>
<path d="M99.7687 96.9025V96.2987H97.6884V96.9025H99.7687ZM100.322 97.349H97.1353V95.8522H100.322V97.349ZM100.509 100.5H97.115V99.2974H99.7738V98.9828H97.0897V98.5363H98.4444V98.1355H96.5569V97.689H100.9V98.1355H98.9974V98.5363H100.327V99.7084H97.6681V100.053H100.509V100.5Z" fill="#1A1A1A"/>
<path d="M104.959 95.7203V97.6078H105.69V98.0695H104.959V100.53H104.406V95.7203H104.959ZM104.147 98.9981L103.833 99.3989C103.381 99.1503 102.802 98.5363 102.65 98.0391C102.523 98.5516 102.046 99.1858 101.463 99.5055L101.118 99.0945C101.884 98.6683 102.361 97.8919 102.361 96.9279V96.6742H101.356V96.2226H103.914V96.6742H102.934V96.9279C102.934 97.9021 103.447 98.6074 104.147 98.9981Z" fill="#1A1A1A"/>
<path d="M108.028 96.7249C108.028 96.4712 107.78 96.2581 107.384 96.2581C106.983 96.2581 106.729 96.4712 106.729 96.7249C106.729 96.9736 106.983 97.1816 107.384 97.1816C107.78 97.1816 108.028 96.9736 108.028 96.7249ZM107.81 99.1858H107.252V98.3131C106.805 98.3334 106.359 98.3435 105.912 98.3486L105.836 97.8919C106.384 97.8919 106.907 97.8869 107.435 97.8666C108.084 97.8412 108.591 97.8057 109.018 97.755L109.053 98.1659C108.642 98.2167 108.226 98.2522 107.81 98.2826V99.1858ZM110.002 100.409H106.516V98.993H107.069V99.9621H110.002V100.409ZM108.424 98.9169V98.511H109.363V95.7203H109.916V99.4293H109.363V98.9169H108.424ZM108.576 96.7249C108.576 97.2476 108.079 97.6027 107.384 97.6027C106.689 97.6027 106.176 97.2526 106.176 96.7148C106.176 96.2023 106.689 95.8319 107.384 95.8319C108.079 95.8319 108.576 96.2023 108.576 96.7249Z" fill="#1A1A1A"/>
<path d="M112.559 97.2628C112.559 96.8416 112.3 96.5474 111.879 96.5474C111.468 96.5474 111.194 96.8569 111.194 97.2628C111.194 97.6585 111.468 97.9731 111.879 97.9731C112.3 97.9731 112.559 97.6585 112.559 97.2628ZM113.112 97.2628C113.112 97.9478 112.615 98.4399 111.879 98.4399C111.143 98.4399 110.641 97.9528 110.641 97.2679C110.641 96.5829 111.138 96.0856 111.879 96.0856C112.615 96.0856 113.112 96.5778 113.112 97.2628ZM114.614 100.393H111.351V98.8915H111.904V99.9469H114.614V100.393ZM113.208 98.0442L113.218 97.5926H113.964V96.8416H113.218L113.208 96.3901H113.964V95.7203H114.517V99.2112H113.964V98.0442H113.208Z" fill="#1A1A1A"/>
<path d="M115.775 95.9994H118.997C118.997 96.8011 118.952 97.4759 118.835 98.0492H119.571V98.4957H117.668V100.53H117.115V98.4957H115.227V98.0492H118.302C118.393 97.623 118.434 97.0091 118.439 96.451H115.775V95.9994Z" fill="#1A1A1A"/>
<path d="M123.168 99.6628C123.168 99.3888 122.747 99.2264 122.067 99.2264C121.392 99.2264 120.971 99.3888 120.971 99.6628C120.971 99.9367 121.392 100.089 122.067 100.089C122.747 100.089 123.168 99.9367 123.168 99.6628ZM123.736 99.6577C123.736 100.196 123.127 100.535 122.072 100.535C121.006 100.535 120.402 100.196 120.402 99.6577C120.402 99.13 121.006 98.7799 122.067 98.7799C123.127 98.7799 123.736 99.13 123.736 99.6577ZM123.721 97.4962H122.336V97.9985H124.238V98.445H119.895V97.9985H121.782V97.4962H120.468V95.8522H123.685V96.3038H121.021V97.0497H123.721V97.4962Z" fill="#1A1A1A"/>
<path d="M179.751 128.025L179.421 128.436C179.01 128.177 178.467 127.563 178.294 127.036C178.127 127.604 177.65 128.208 177.127 128.522L176.782 128.121C177.528 127.639 178 126.843 178 125.924V125.133H178.568V125.894C178.568 126.817 179.045 127.584 179.751 128.025ZM180.791 129.532H180.238V126.843H179.299V126.381H180.238V124.722H180.791V129.532Z" fill="#1A1A1A"/>
<path d="M183.677 125.214C182.982 125.214 182.566 125.366 182.566 125.625C182.566 125.884 182.982 126.041 183.677 126.041C184.373 126.041 184.794 125.884 184.794 125.625C184.794 125.366 184.373 125.214 183.677 125.214ZM183.677 124.773C184.738 124.773 185.372 125.128 185.372 125.625C185.372 126.122 184.738 126.478 183.677 126.478C182.617 126.478 181.993 126.122 181.993 125.625C181.993 125.128 182.617 124.773 183.677 124.773ZM185.448 129.502H182.054V128.309H184.718V128H182.028V127.558H183.383V127.188H181.496V126.741H185.839V127.188H183.936V127.558H185.271V128.71H182.607V129.055H185.448V129.502Z" fill="#1A1A1A"/>
<path d="M188.34 127.776L188.411 128.223C188.01 128.314 187.386 128.355 186.803 128.355H186.321V125.305H188.132V125.752C187.716 125.752 187.29 125.747 186.879 125.747V127.898C187.482 127.898 187.975 127.858 188.34 127.776ZM190.217 129.532H189.685V127.097H189.197V129.299H188.675V124.818H189.197V126.635H189.685V124.722H190.217V129.532Z" fill="#1A1A1A"/>
<path d="M191.49 125.219V124.778H192.896V125.219H191.49ZM192.769 126.914C192.769 126.68 192.5 126.533 192.191 126.533C191.876 126.533 191.602 126.68 191.602 126.914C191.602 127.137 191.881 127.294 192.191 127.294C192.5 127.294 192.769 127.137 192.769 126.914ZM193.317 126.914C193.317 127.391 192.83 127.716 192.191 127.716C191.546 127.716 191.054 127.391 191.054 126.914C191.054 126.427 191.541 126.107 192.191 126.107C192.83 126.107 193.317 126.427 193.317 126.914ZM193.576 125.93H190.795V125.493H193.576V125.93ZM191.43 127.954H194.57V129.537H194.017V128.401H191.43V127.954ZM195.271 126.452H194.565V127.705H194.012V124.722H194.565V125.996H195.271V126.452Z" fill="#1A1A1A"/>
<path d="M199.842 128.842H195.498V128.395H196.513V126.894H197.066V128.395H197.67V126.894H198.223V128.395H199.842V128.842ZM196.001 125.25H199.324C199.324 126.457 199.268 127.168 199.116 127.837L198.583 127.756C198.72 127.254 198.766 126.356 198.766 125.701H196.001V125.25Z" fill="#1A1A1A"/>
<path d="M204.124 124.722V127.574H203.571V126.853H202.81V126.407H203.571V125.843H202.81V125.397H203.571V124.722H204.124ZM203.591 128.583C203.591 128.264 203.2 128.071 202.515 128.071C201.846 128.071 201.45 128.264 201.45 128.583C201.45 128.898 201.846 129.091 202.515 129.091C203.2 129.091 203.591 128.898 203.591 128.583ZM204.159 128.583C204.159 129.157 203.561 129.532 202.515 129.532C201.475 129.532 200.882 129.157 200.882 128.583C200.882 128 201.475 127.624 202.515 127.624C203.561 127.624 204.159 128 204.159 128.583ZM202.013 126.838V126.168H200.897V126.838H202.013ZM202.566 127.279H200.344V124.996H200.897V125.737H202.013V124.986H202.566V127.279Z" fill="#1A1A1A"/>
<path d="M206.97 125.727C206.97 125.473 206.721 125.26 206.325 125.26C205.925 125.26 205.671 125.473 205.671 125.727C205.671 125.975 205.925 126.183 206.325 126.183C206.721 126.183 206.97 125.975 206.97 125.727ZM206.752 128.187H206.194V127.315C205.747 127.335 205.3 127.345 204.854 127.35L204.778 126.894C205.326 126.894 205.848 126.889 206.376 126.868C207.026 126.843 207.533 126.807 207.959 126.757L207.995 127.168C207.584 127.218 207.168 127.254 206.752 127.284V128.187ZM208.944 129.41H205.458V127.995H206.011V128.964H208.944V129.41ZM207.366 127.919V127.513H208.304V124.722H208.857V128.431H208.304V127.919H207.366ZM207.518 125.727C207.518 126.249 207.021 126.604 206.325 126.604C205.63 126.604 205.118 126.254 205.118 125.716C205.118 125.204 205.63 124.834 206.325 124.834C207.021 124.834 207.518 125.204 207.518 125.727Z" fill="#1A1A1A"/>
</g>
<defs>
<clipPath id="clip0_356_11704">
<rect width="267.764" height="245.147" fill="white" transform="translate(30)"/>
</clipPath>
</defs>
</svg>
