<svg width="1000" height="1000" viewBox="0 0 1000 1000" fill="none" xmlns="http://www.w3.org/2000/svg">
<mask id="mask0_1038_597" style="mask-type:alpha" maskUnits="userSpaceOnUse" x="0" y="0" width="1000" height="1000">
<rect width="1000" height="1000" fill="#D9D9D9"/>
</mask>
<g mask="url(#mask0_1038_597)">
<g clip-path="url(#clip0_1038_597)">
<path d="M776.04 405.945H748.418V472.277H776.04V405.945Z" fill="#68C4F0"/>
<path d="M672.279 346.937L649.251 350.976L659.029 406.713L682.057 402.673L672.279 346.937Z" fill="#68C4F0"/>
<path d="M677.667 268.108L587.236 277.821L590.919 312.112L681.35 302.4L677.667 268.108Z" fill="white"/>
<path d="M654.138 196.953L585.555 204.319L589.238 238.611L657.821 231.245L654.138 196.953Z" fill="white"/>
<path d="M664.923 234.994L598.156 242.165L601.195 270.457L667.962 263.286L664.923 234.994Z" fill="white"/>
<path d="M711.633 199.373L708.926 231.677L745.854 234.771L748.561 202.467L711.633 199.373Z" fill="white"/>
<path d="M739.805 208.104L738.557 223.004L775.485 226.098L776.734 211.198L739.805 208.104Z" fill="white"/>
<path d="M749.821 215.521L748.043 236.741L786.897 239.996L788.675 218.777L749.821 215.521Z" fill="white"/>
<path d="M774.052 208.013L748.264 200.033L746.983 215.286L788.689 218.786L774.052 208.013Z" fill="white"/>
<path d="M699.743 197.075L698.396 213.161L717.641 214.774L718.989 198.688L699.743 197.075Z" fill="white"/>
<path d="M663.166 341.586L653.955 343.202L663.733 398.939L672.944 397.323L663.166 341.586Z" fill="#68C4F0"/>
<path d="M728.015 252.552L726.925 270.221L796.841 274.534L797.931 256.865L728.015 252.552Z" fill="white"/>
<path d="M798.937 237.666L796.518 276.882L814.494 277.991L816.914 238.775L798.937 237.666Z" fill="white"/>
<path d="M761.718 268.555L760.929 281.348L773.721 282.137L774.511 269.345L761.718 268.555Z" fill="white"/>
<path d="M769.219 251.037L768.43 263.829L775.885 264.289L776.674 251.497L769.219 251.037Z" fill="white"/>
<path d="M739.2 262.394L738.411 275.187L748.689 275.821L749.478 263.028L739.2 262.394Z" fill="white"/>
<path d="M810.951 255.845L810.102 269.658L828.086 270.764L828.935 256.952L810.951 255.845Z" fill="white"/>
<path d="M801.099 242.054L800.892 245.45L818.869 246.549L819.077 243.154L801.099 242.054Z" fill="white"/>
<path d="M714.958 335.007H695.435V363.861H714.958V335.007Z" fill="white"/>
<path d="M712.606 340.236H693.713V352.57H712.606V340.236Z" fill="white"/>
<path d="M766.632 388.221H760.122V412.266H766.632V388.221Z" fill="#68C4F0"/>
<path d="M799.56 342.854H778.105V388.228H799.56V342.854Z" fill="#68C4F0"/>
<path d="M796.843 343.792L782.703 383.727V338.353H792.867L796.843 343.792Z" fill="#68C4F0"/>
<path d="M708.294 358.898H704.136V382.943H708.294V358.898Z" fill="white"/>
<path d="M865.822 713.735H838.872V754.608H865.822V713.735Z" fill="#68C4F0"/>
<path d="M748.411 615.875H659.861V645.982H748.411V615.875Z" fill="#68C4F0"/>
<path d="M775.805 564.316L751.279 572.641L773.454 637.965L797.979 629.64L775.805 564.316Z" fill="#68C4F0"/>
<path d="M831.424 678.994H781.318V703.613H831.424V678.994Z" fill="#68C4F0"/>
<path d="M865.821 733.251H783.2V757.87H865.821V733.251Z" fill="#68C4F0"/>
<path d="M797.705 639.871H779.673V696.795H797.705V639.871Z" fill="#68C4F0"/>
<path d="M780.801 613.613L726.897 631.911L730.849 643.55L784.752 625.253L780.801 613.613Z" fill="#68C4F0"/>
<path d="M689.142 731.228H697.493V735.869H709.946V731.228H718.5V721.547H723.428V710.725H685.418V721.547H689.142V731.228Z" fill="#68C4F0"/>
<path d="M651.993 658.323V681.633H653.407V718.852H654.87V729.1H688.512V722.177H684.788V716.969H666.315V681.633H741.957V716.969H724.058V722.177H719.13V729.1H752.933V718.852H754.865V681.633H755.81V658.323H651.993Z" fill="#68C4F0"/>
<path d="M745.17 484.408V527.22L749.09 561.093H778.105V527.22H788.689V484.408H745.17Z" fill="#68C4F0"/>
<path d="M624.602 595.092L614.249 605.13L606.094 621.517V638.296L612.443 653.822L622.873 665.19L645.217 650.609C645.217 650.609 650.705 646.297 650.705 641.747V619.949C650.705 619.949 651.489 615.245 646.078 611.325C640.667 607.405 624.595 595.092 624.595 595.092" fill="#68C4F0"/>
<path d="M559.39 229.363H513.911V301.813H559.39V229.363Z" fill="white"/>
<path d="M517.796 250.069H497.916V309.66H517.796V250.069Z" fill="white"/>
<path d="M493.114 240.234H450.561V314.462H493.114V240.234Z" fill="white"/>
<path d="M485.112 272.28H418.409V314.469H485.112V272.28Z" fill="white"/>
<path d="M552.487 217.799H528.022V277.39H552.487V217.799Z" fill="white"/>
<path d="M568.489 245.54H548.413V277.383H568.489V245.54Z" fill="white"/>
<path d="M583.855 269.095H571.311V309.653H583.855V269.095Z" fill="white"/>
<path d="M632.575 463.289H639.715V439.139H632.575V437.417H589.924V465.641H632.575V463.289ZM642.298 498.807H639.708V490.89H637.279V480.46H596.126L581.832 472.207L584.324 468.098V434.512L581.692 429.696L635.06 398.882L621.942 376.16L571.521 405.273L525.307 378.589L512.189 401.311L547.077 421.45L545.376 425.909H531.684V434.113H530.27V432.384H522.64V470.863H529.591V469.036H531.992V477.296H544.802L548.295 482.595L512.959 503L521.401 517.623H514.408L512.994 520.444H508.129V539.89H514.954V543.418H523.655L552.586 558.86V561.079L567.643 569.836H584.891V578.152H641.976V553.855H633.59V546.708H643.705V516.013H642.291V498.8L642.298 498.807ZM649.907 460.783H642.298V481.72H649.907V460.783Z" fill="white"/>
<path d="M318.666 252.176H279.613V301.813H318.666V252.176Z" fill="#68C4F0"/>
<path d="M197.334 342.852L169.621 349.638L176.408 377.351L204.121 370.565L197.334 342.852Z" fill="#68C4F0"/>
<path d="M205.05 358.675L176.623 365.636L191.093 424.727L219.521 417.766L205.05 358.675Z" fill="#68C4F0"/>
<path d="M218.659 363.883L188.94 371.161L200.624 418.87L230.343 411.592L218.659 363.883Z" fill="#68C4F0"/>
<path d="M239.88 425.463L199.099 435.45L205.535 461.735L246.316 451.749L239.88 425.463Z" fill="#68C4F0"/>
<path d="M350.349 236.524H321.18V287.176H350.349V236.524Z" fill="#68C4F0"/>
<path d="M351.923 285.293H324.791V313.524H351.923V285.293Z" fill="#68C4F0"/>
<path d="M329.496 255.501H315.223V286.868H329.496V255.501Z" fill="#68C4F0"/>
<path d="M355.214 268.36H347.843V279.861H355.214V268.36Z" fill="#68C4F0"/>
<path d="M410.871 278.58H359.89V309.212H410.871V278.58Z" fill="#68C4F0"/>
<path d="M396.794 271.678H348.389V276.382H396.794V271.678Z" fill="#68C4F0"/>
<path d="M383.305 275.864H375.675V281.506H383.305V275.864Z" fill="#68C4F0"/>
<path d="M388.114 242.614L362.291 245.12V232.576H388.114V242.614Z" fill="#68C4F0"/>
<path d="M432.528 231.661L398.151 233.751L400.427 271.167L434.803 269.077L432.528 231.661Z" fill="#68C4F0"/>
<path d="M420.992 418.909H402.491V478.269H420.992V418.909Z" fill="white"/>
<path d="M420.992 484.044H402.491V516.02H420.992V484.044Z" fill="white"/>
<path d="M419.739 473.873H411.738V488.93H419.739V473.873Z" fill="white"/>
<path d="M410.627 553.866L396.887 559.582L414.169 601.12L427.909 595.403L410.627 553.866Z" fill="white"/>
<path d="M343.651 564.33L332.252 573.898L385.875 637.781L397.273 628.213L343.651 564.33Z" fill="white"/>
<path d="M505.858 592.46L486.578 608.644L592.654 735.015L611.934 718.831L505.858 592.46Z" fill="white"/>
<path d="M581.251 667.393L554.642 689.728L574.691 713.614L601.3 691.278L581.251 667.393Z" fill="white"/>
<path d="M535.638 578.243L490.684 615.973L463.363 583.423C463.363 583.423 470.944 575.66 486.001 565.244C501.058 554.828 522.226 566.343 522.226 566.343L535.645 578.243H535.638Z" fill="white"/>
<path d="M521.308 579.498L486.57 608.656L551.471 685.975L586.209 656.816L521.308 579.498Z" fill="white"/>
<path d="M524.727 576.64L486.574 608.665L547.303 681.014L585.456 648.988L524.727 576.64Z" fill="white"/>
<path d="M318.066 583.219L306.667 592.787L339.943 632.43L351.342 622.863L318.066 583.219Z" fill="white"/>
<path d="M340.014 635.477L330.042 643.848L354.74 673.272L364.713 664.901L340.014 635.477Z" fill="white"/>
<path d="M334.371 630.13L328.408 635.134L348.953 659.618L354.916 654.614L334.371 630.13Z" fill="white"/>
<path d="M374.651 637.157L345.157 661.914L354.721 673.307L384.214 648.55L374.651 637.157Z" fill="white"/>
<path d="M406.844 601.003L376.471 626.498L385.895 637.725L416.268 612.23L406.844 601.003Z" fill="white"/>
<path d="M439.768 574.273L408.391 587.328L414.142 601.152L445.52 588.098L439.768 574.273Z" fill="white"/>
<path d="M329.335 548.206V492.689H321.18H282.106H273.951V539.631H264.858H255.128V488.93H232.868V546.953H222.697V562.843H243.998V612.606H230.67V608.063H196.797V609.477V626.564V635.503H220.478V632.136H237.411V637.148H256.549V613.866H264.858V576.227H296.638V557.299H321.18V548.206H329.335Z" fill="white"/>
<path d="M632.575 463.289H639.715V439.139H632.575V437.417H589.924V465.641H632.575V463.289ZM642.298 498.807H639.708V490.89H637.279V480.46H596.126L581.832 472.207L584.324 468.098V434.512L581.692 429.696L635.06 398.882L621.942 376.16L571.521 405.273L525.307 378.589L512.189 401.311L547.077 421.45L545.376 425.909H531.684V434.113H530.27V432.384H522.64V470.863H529.591V469.036H531.992V477.296H544.802L548.295 482.595L512.959 503L521.401 517.623H514.408L512.994 520.444H508.129V539.89H514.954V543.418H523.655L552.586 558.86V561.079L567.643 569.836H584.891V578.152H641.976V553.855H633.59V546.708H643.705V516.013H642.291V498.8L642.298 498.807ZM649.907 460.783H642.298V481.72H649.907V460.783Z" stroke="#68C4F0" stroke-width="0.7" stroke-miterlimit="10"/>
<path d="M329.335 548.206V492.689H321.18H282.106H273.951V539.631H264.858H255.128V488.93H232.868V546.953H222.697V562.843H243.998V612.606H230.67V608.063H196.797V609.477V626.564V635.503H220.478V632.136H237.411V637.148H256.549V613.866H264.858V576.227H296.638V557.299H321.18V548.206H329.335Z" stroke="#68C4F0" stroke-width="0.7" stroke-miterlimit="10"/>
<path d="M330.483 750.555H282.183V778.31H330.483V750.555Z" fill="white"/>
<path d="M575.434 598.445L664.705 578.425L667.68 573.462L666.007 546.729L659.546 540.737L651.125 412.287L636.992 317.339M487.493 327.776L494.381 411.328L501.479 434.113L499.575 547.541M300.663 340.705L318.093 334.909L596.245 323.205L681.449 310.969L711.626 261.003C711.626 261.003 716.687 245.008 703.772 238.001C690.85 230.994 682.184 227.585 680.721 200.068C679.265 172.558 678.635 167.021 678.635 167.021M289.141 352.241L321.313 446.034L362.368 487.201L378.034 522.768C378.034 522.768 386.385 537.615 401.211 538.658C416.037 539.701 499.407 547.492 499.407 547.492C499.407 547.492 566.81 567.617 582.476 612.62C598.135 657.623 624.238 738.536 624.238 738.536V804.602M289.141 352.241L284.92 336.477M289.141 352.241L300.67 340.705L284.927 336.477H284.92M284.92 336.477L205.673 251.469" stroke="#DCDDDD" stroke-miterlimit="10"/>
<path d="M616.545 754.608H592.99V773.368H616.545V754.608Z" fill="white"/>
<path d="M197.042 721.96L203.916 793.843L148.413 799.835L150.702 829.081L188.943 825.203V830.138L218.714 827.492V817.454L227.52 817.279L217.832 719.314L211.315 720.371L211.14 717.55L196.867 720.728L197.042 721.96Z" fill="#68C4F0"/>
<path d="M126.683 688H254.683" stroke="#231815" stroke-width="0.5" stroke-miterlimit="10" stroke-dasharray="1 1"/>
<path d="M254.715 687.814V843.41" stroke="#231815" stroke-width="0.5" stroke-miterlimit="10" stroke-dasharray="1 1"/>
<path d="M774.786 357.064H753.534V381.109H774.786V357.064Z" fill="#68C4F0"/>
<path d="M716.834 375.313H697.311V415.458H716.834V375.313Z" fill="#68C4F0"/>
<path d="M772.484 375.313H716.841V393.555H772.484V375.313Z" fill="#68C4F0"/>
</g>
<path d="M311.361 191.812V204.171H309.844V191.812H311.361ZM305.838 195.735C305.838 197.622 306.986 199.632 308.982 200.466L308.148 201.628C306.727 201.033 305.667 199.796 305.1 198.306C304.546 199.885 303.479 201.204 302.037 201.833L301.217 200.657C303.186 199.782 304.32 197.704 304.32 195.735V195.093H301.6V193.876H304.32V192.071H305.824V193.876H308.49V195.093H305.838V195.735Z" fill="#1A1A1A"/>
<path d="M317.199 192.673C319.154 192.659 320.59 193.903 320.604 195.653C320.59 197.417 319.154 198.647 317.199 198.647C315.258 198.647 313.809 197.417 313.809 195.653C313.809 193.903 315.258 192.659 317.199 192.673ZM317.199 193.985C316.119 193.985 315.312 194.628 315.312 195.653C315.312 196.692 316.119 197.321 317.199 197.321C318.293 197.321 319.113 196.692 319.113 195.653C319.113 194.628 318.293 193.985 317.199 193.985ZM323.488 191.812V204.185H321.971V191.812H323.488ZM313.248 200.356C315.477 200.356 318.566 200.329 321.232 199.946L321.355 201.054C318.58 201.587 315.613 201.601 313.439 201.601L313.248 200.356Z" fill="#1A1A1A"/>
<path d="M332.635 193.001V194.204H325.307V193.001H328.219V191.757H329.736V193.001H332.635ZM328.971 194.683C330.762 194.683 331.979 195.585 331.992 196.938C331.979 198.292 330.762 199.194 328.971 199.194C327.18 199.194 325.936 198.292 325.936 196.938C325.936 195.585 327.18 194.683 328.971 194.683ZM328.971 195.831C328.027 195.831 327.412 196.241 327.412 196.938C327.412 197.636 328.027 198.032 328.971 198.019C329.914 198.032 330.543 197.636 330.543 196.938C330.543 196.241 329.914 195.831 328.971 195.831ZM335.041 191.812V195.093H336.764V196.337H335.041V199.55H333.523V191.812H335.041ZM335.041 200.124V204.171H333.523V201.341H326.811V200.124H335.041Z" fill="#1A1A1A"/>
<path d="M348.029 191.812V204.171H346.58V197.868H345.186V203.542H343.791V192.044H345.186V196.651H346.58V191.812H348.029ZM342.396 193.274V194.505H339.307V200.001C340.653 199.987 341.761 199.919 343.012 199.687L343.121 200.931C341.631 201.231 340.332 201.272 338.609 201.286H337.775V193.274H342.396Z" fill="#1A1A1A"/>
<path d="M356.834 193.001V194.204H349.506V193.001H352.418V191.757H353.936V193.001H356.834ZM353.17 194.683C354.961 194.683 356.178 195.585 356.191 196.938C356.178 198.292 354.961 199.194 353.17 199.194C351.379 199.194 350.135 198.292 350.135 196.938C350.135 195.585 351.379 194.683 353.17 194.683ZM353.17 195.831C352.227 195.831 351.611 196.241 351.611 196.938C351.611 197.636 352.227 198.032 353.17 198.019C354.113 198.032 354.742 197.636 354.742 196.938C354.742 196.241 354.113 195.831 353.17 195.831ZM359.24 191.812V195.093H360.963V196.337H359.24V199.55H357.723V191.812H359.24ZM359.24 200.124V204.171H357.723V201.341H351.01V200.124H359.24Z" fill="#1A1A1A"/>
<path d="M371.955 191.825V201.177H370.424V200.097H368.004V199.03H370.424V191.825H371.955ZM372.242 202.694V203.925H363.178V200.274H364.695V202.694H372.242ZM361.537 197.376C363.82 197.362 366.883 197.335 369.508 197.007L369.59 198.101C368.571 198.271 367.519 198.388 366.473 198.456V200.835H364.955V198.538C363.8 198.586 362.699 198.593 361.729 198.593L361.537 197.376ZM365.57 192.276C367.375 192.276 368.633 193.165 368.646 194.464C368.633 195.79 367.375 196.638 365.57 196.638C363.738 196.638 362.48 195.79 362.48 194.464C362.48 193.165 363.738 192.276 365.57 192.276ZM365.57 193.397C364.586 193.397 363.916 193.794 363.916 194.464C363.916 195.134 364.586 195.53 365.57 195.53C366.514 195.53 367.184 195.134 367.197 194.464C367.184 193.794 366.514 193.397 365.57 193.397Z" fill="#1A1A1A"/>
<path d="M254.842 364.857V367.715H256.564V368.945H254.842V371.926H253.324V364.857H254.842ZM254.842 372.473V377.066H246.857V372.473H254.842ZM248.361 373.676V375.836H253.338V373.676H248.361ZM248.566 365.568C250.467 365.555 251.889 366.771 251.902 368.521C251.889 370.258 250.467 371.475 248.566 371.488C246.652 371.475 245.217 370.258 245.23 368.521C245.217 366.771 246.652 365.555 248.566 365.568ZM248.566 366.84C247.5 366.84 246.707 367.51 246.721 368.521C246.707 369.547 247.5 370.189 248.566 370.203C249.619 370.189 250.412 369.547 250.412 368.521C250.412 367.51 249.619 366.84 248.566 366.84Z" fill="#1A1A1A"/>
<path d="M267.543 364.871V373.936H266.025V370.873H263.086C262.491 371.536 261.616 371.939 260.625 371.939C258.766 371.939 257.357 370.6 257.357 368.781C257.357 366.936 258.766 365.609 260.625 365.609C261.609 365.609 262.478 366.006 263.072 366.662H266.025V364.871H267.543ZM267.857 375.74V376.971H259.436V373.006H260.953V375.74H267.857ZM260.625 366.963C259.559 366.963 258.807 367.674 258.807 368.781C258.807 369.875 259.559 370.586 260.625 370.586C261.637 370.586 262.402 369.875 262.416 368.781C262.402 367.674 261.637 366.963 260.625 366.963ZM263.742 367.893C263.817 368.173 263.865 368.467 263.865 368.781C263.865 369.082 263.824 369.369 263.756 369.643H266.025V367.893H263.742Z" fill="#1A1A1A"/>
<path d="M279.178 365.609V366.717C279.178 367.872 279.178 369.137 278.85 370.887H280.559V372.117H275.65V377.23H274.119V372.117H269.293V370.887H277.305C277.646 369.205 277.66 367.947 277.66 366.84H270.619V365.609H279.178Z" fill="#1A1A1A"/>
<path d="M292.686 374.455V375.686H281.393V374.455H286.232V371.598H287.736V374.455H292.686ZM287.777 366.512C287.777 368.385 289.65 370.23 292.248 370.641L291.592 371.898C289.5 371.502 287.791 370.306 286.971 368.686C286.15 370.299 284.455 371.516 282.377 371.898L281.721 370.641C284.305 370.23 286.15 368.371 286.164 366.512V365.609H287.777V366.512Z" fill="#1A1A1A"/>
<path d="M623.842 317.846V321.4H625.564V322.672H623.842V326.76H622.297V317.846H623.842ZM620.479 318.789C620.479 322.07 618.346 324.408 614.682 325.475L614.053 324.271C616.876 323.458 618.558 321.92 618.824 320.033H614.572V318.789H620.479ZM624.307 328.729V329.959H615.898V325.844H617.443V328.729H624.307Z" fill="#1A1A1A"/>
<path d="M636.543 317.859V326.924H635.025V323.861H632.086C631.491 324.524 630.616 324.928 629.625 324.928C627.766 324.928 626.357 323.588 626.357 321.77C626.357 319.924 627.766 318.598 629.625 318.598C630.609 318.598 631.478 318.994 632.072 319.65H635.025V317.859H636.543ZM636.857 328.729V329.959H628.436V325.994H629.953V328.729H636.857ZM629.625 319.951C628.559 319.951 627.807 320.662 627.807 321.77C627.807 322.863 628.559 323.574 629.625 323.574C630.637 323.574 631.402 322.863 631.416 321.77C631.402 320.662 630.637 319.951 629.625 319.951ZM632.742 320.881C632.817 321.161 632.865 321.455 632.865 321.77C632.865 322.07 632.824 322.357 632.756 322.631H635.025V320.881H632.742Z" fill="#1A1A1A"/>
<path d="M648.178 318.598V319.705C648.178 320.86 648.178 322.125 647.85 323.875H649.559V325.105H644.65V330.219H643.119V325.105H638.293V323.875H646.305C646.646 322.193 646.66 320.936 646.66 319.828H639.619V318.598H648.178Z" fill="#1A1A1A"/>
<path d="M661.686 327.443V328.674H650.393V327.443H655.232V324.586H656.736V327.443H661.686ZM656.777 319.5C656.777 321.373 658.65 323.219 661.248 323.629L660.592 324.887C658.5 324.49 656.791 323.294 655.971 321.674C655.15 323.287 653.455 324.504 651.377 324.887L650.721 323.629C653.305 323.219 655.15 321.359 655.164 319.5V318.598H656.777V319.5Z" fill="#1A1A1A"/>
<path d="M817.1 352.716C819.055 352.702 820.49 353.946 820.504 355.696C820.49 357.46 819.055 358.69 817.1 358.69C815.158 358.69 813.709 357.46 813.709 355.696C813.709 353.946 815.158 352.702 817.1 352.716ZM817.1 354.028C816.02 354.028 815.213 354.671 815.213 355.696C815.213 356.735 816.02 357.364 817.1 357.364C818.193 357.364 819.014 356.735 819.014 355.696C819.014 354.671 818.193 354.028 817.1 354.028ZM823.389 351.854V364.228H821.871V351.854H823.389ZM813.148 360.399C815.377 360.399 818.467 360.372 821.133 359.989L821.256 361.097C818.48 361.63 815.514 361.644 813.34 361.644L813.148 360.399Z" fill="#1A1A1A"/>
<path d="M836.623 353.577V354.808H834.941V356.229H836.623V357.501H834.941V359.155H833.424V351.854H834.941V353.577H836.623ZM834.941 359.688V364.214H833.424V360.919H826.711V359.688H834.941ZM828.666 352.565C830.566 352.552 831.988 353.796 832.002 355.532C831.988 357.296 830.566 358.526 828.666 358.526C826.752 358.526 825.316 357.296 825.33 355.532C825.316 353.796 826.752 352.552 828.666 352.565ZM828.666 353.851C827.6 353.864 826.807 354.507 826.82 355.532C826.807 356.585 827.6 357.241 828.666 357.228C829.719 357.241 830.512 356.585 830.512 355.532C830.512 354.507 829.719 353.864 828.666 353.851Z" fill="#1A1A1A"/>
<path d="M847.643 351.868V360.933H846.125V357.87H843.186C842.591 358.533 841.716 358.937 840.725 358.937C838.865 358.937 837.457 357.597 837.457 355.778C837.457 353.933 838.865 352.606 840.725 352.606C841.709 352.606 842.577 353.003 843.172 353.659H846.125V351.868H847.643ZM847.957 362.737V363.968H839.535V360.003H841.053V362.737H847.957ZM840.725 353.96C839.658 353.96 838.906 354.671 838.906 355.778C838.906 356.872 839.658 357.583 840.725 357.583C841.736 357.583 842.502 356.872 842.516 355.778C842.502 354.671 841.736 353.96 840.725 353.96ZM843.842 354.89C843.917 355.17 843.965 355.464 843.965 355.778C843.965 356.079 843.924 356.366 843.855 356.64H846.125V354.89H843.842Z" fill="#1A1A1A"/>
<path d="M859.277 352.606V353.714C859.277 354.869 859.277 356.134 858.949 357.884H860.658V359.114H855.75V364.228H854.219V359.114H849.393V357.884H857.404C857.746 356.202 857.76 354.944 857.76 353.837H850.719V352.606H859.277Z" fill="#1A1A1A"/>
<path d="M872.771 357.774V358.991H861.492V357.774H866.387V356.599H862.873V352.415H871.404V353.604H864.391V355.396H871.473V356.599H867.877V357.774H872.771ZM867.111 359.702C869.777 359.702 871.377 360.509 871.391 361.958C871.377 363.394 869.777 364.214 867.111 364.214C864.418 364.214 862.805 363.394 862.805 361.958C862.805 360.509 864.418 359.702 867.111 359.702ZM867.111 360.864C865.307 360.864 864.336 361.247 864.35 361.958C864.336 362.669 865.307 363.038 867.111 363.038C868.875 363.038 869.859 362.669 869.873 361.958C869.859 361.247 868.875 360.864 867.111 360.864Z" fill="#1A1A1A"/>
<path d="M799.842 431.876V435.431H801.564V436.702H799.842V440.79H798.297V431.876H799.842ZM796.479 432.819C796.479 436.101 794.346 438.438 790.682 439.505L790.053 438.302C792.876 437.488 794.558 435.95 794.824 434.063H790.572V432.819H796.479ZM800.307 442.759V443.989H791.898V439.874H793.443V442.759H800.307Z" fill="#1A1A1A"/>
<path d="M812.912 433.53V434.761H802.699V433.53H807.061V432.04H808.564V433.53H812.912ZM813.486 441.679V442.909H802.193V441.679H807.061V440.161C804.921 439.99 803.629 439.136 803.643 437.769C803.629 436.278 805.229 435.39 807.812 435.39C810.355 435.39 811.969 436.278 811.969 437.769C811.969 439.129 810.67 439.983 808.564 440.147V441.679H813.486ZM807.812 436.579C806.131 436.593 805.188 436.989 805.201 437.769C805.188 438.562 806.131 438.958 807.812 438.972C809.467 438.958 810.41 438.562 810.41 437.769C810.41 436.989 809.467 436.593 807.812 436.579Z" fill="#1A1A1A"/>
<path d="M824.93 431.876V444.235H823.48V437.933H822.086V443.606H820.691V432.108H822.086V436.716H823.48V431.876H824.93ZM819.297 433.339V434.569H816.207V440.065C817.554 440.052 818.661 439.983 819.912 439.751L820.021 440.995C818.531 441.296 817.232 441.337 815.51 441.351H814.676V433.339H819.297Z" fill="#1A1A1A"/>
<path d="M833.734 433.065V434.269H826.406V433.065H829.318V431.821H830.836V433.065H833.734ZM830.07 434.747C831.861 434.747 833.078 435.649 833.092 437.003C833.078 438.356 831.861 439.259 830.07 439.259C828.279 439.259 827.035 438.356 827.035 437.003C827.035 435.649 828.279 434.747 830.07 434.747ZM830.07 435.896C829.127 435.896 828.512 436.306 828.512 437.003C828.512 437.7 829.127 438.097 830.07 438.083C831.014 438.097 831.643 437.7 831.643 437.003C831.643 436.306 831.014 435.896 830.07 435.896ZM836.141 431.876V435.157H837.863V436.401H836.141V439.614H834.623V431.876H836.141ZM836.141 440.188V444.235H834.623V441.405H827.91V440.188H836.141Z" fill="#1A1A1A"/>
<path d="M811.1 507.758C813.055 507.744 814.49 508.988 814.504 510.738C814.49 512.502 813.055 513.732 811.1 513.732C809.158 513.732 807.709 512.502 807.709 510.738C807.709 508.988 809.158 507.744 811.1 507.758ZM811.1 509.07C810.02 509.07 809.213 509.713 809.213 510.738C809.213 511.777 810.02 512.406 811.1 512.406C812.193 512.406 813.014 511.777 813.014 510.738C813.014 509.713 812.193 509.07 811.1 509.07ZM817.389 506.896V519.27H815.871V506.896H817.389ZM807.148 515.441C809.377 515.441 812.467 515.414 815.133 515.031L815.256 516.139C812.48 516.672 809.514 516.686 807.34 516.686L807.148 515.441Z" fill="#1A1A1A"/>
<path d="M826.098 508.182V509.057C826.098 510.164 826.098 511.709 825.756 513.842L824.252 513.719C824.546 511.846 824.58 510.465 824.594 509.398H819.74V508.182H826.098ZM822.98 511.709V515.359C824.238 515.312 825.53 515.223 826.713 515.072L826.795 516.207C824.238 516.617 821.408 516.672 819.234 516.658L819.084 515.441C819.815 515.435 820.629 515.428 821.477 515.4V511.709H822.98ZM828.887 506.896V511.928H830.678V513.213H828.887V519.256H827.355V506.896H828.887Z" fill="#1A1A1A"/>
<path d="M838.635 508.086V509.289H831.307V508.086H834.219V506.842H835.736V508.086H838.635ZM834.971 509.768C836.762 509.768 837.979 510.67 837.992 512.023C837.979 513.377 836.762 514.279 834.971 514.279C833.18 514.279 831.936 513.377 831.936 512.023C831.936 510.67 833.18 509.768 834.971 509.768ZM834.971 510.916C834.027 510.916 833.412 511.326 833.412 512.023C833.412 512.721 834.027 513.117 834.971 513.104C835.914 513.117 836.543 512.721 836.543 512.023C836.543 511.326 835.914 510.916 834.971 510.916ZM841.041 506.896V510.178H842.764V511.422H841.041V514.635H839.523V506.896H841.041ZM841.041 515.209V519.256H839.523V516.426H832.811V515.209H841.041Z" fill="#1A1A1A"/>
<path d="M850.297 507.812V508.551C850.283 509.398 850.283 510.615 849.996 512.188L848.492 512.051C848.731 510.772 848.779 509.829 848.807 509.07H843.994V507.812H850.297ZM847.18 510.629V513.09C848.458 513.042 849.771 512.946 850.967 512.775L851.049 513.869C848.479 514.334 845.566 514.375 843.393 514.389L843.256 513.172C843.987 513.165 844.808 513.158 845.676 513.145V510.629H847.18ZM853.25 506.896V510.752H854.85V512.023H853.25V516.152H851.691V506.896H853.25ZM853.646 517.779V519.01H845.102V515.332H846.633V517.779H853.646Z" fill="#1A1A1A"/>
<path d="M810.359 585.535V586.779H807.748V588.324C808.548 588.707 808.985 589.281 808.992 590.033C808.979 591.469 807.379 592.275 804.713 592.275C802.02 592.275 800.406 591.469 800.406 590.033C800.406 589.261 800.871 588.68 801.719 588.297V586.779H799.094V585.535H810.359ZM804.713 587.805C805.267 587.805 805.772 587.839 806.23 587.9V586.779H803.25V587.887C803.694 587.839 804.18 587.805 804.713 587.805ZM804.713 588.953C802.908 588.953 801.938 589.322 801.951 590.033C801.938 590.744 802.908 591.1 804.713 591.1C806.477 591.1 807.461 590.744 807.475 590.033C807.461 589.322 806.477 588.953 804.713 588.953ZM804.713 580.135C807.434 580.135 809.156 581.023 809.17 582.5C809.156 583.963 807.434 584.838 804.713 584.838C801.992 584.838 800.256 583.963 800.256 582.5C800.256 581.023 801.992 580.135 804.713 580.135ZM804.713 581.324C802.908 581.324 801.828 581.734 801.842 582.5C801.828 583.252 802.908 583.662 804.713 583.662C806.518 583.662 807.598 583.252 807.598 582.5C807.598 581.734 806.518 581.324 804.713 581.324Z" fill="#1A1A1A"/>
<path d="M820.941 579.916V582.965H822.664V584.223H820.941V587.135H819.424V579.916H820.941ZM814.461 587.627V588.693H819.424V587.627H820.941V592.125H812.957V587.627H814.461ZM814.461 590.922H819.424V589.869H814.461V590.922ZM818.535 581.064V582.281H811.207V581.064H814.119V579.82H815.637V581.064H818.535ZM814.871 582.705C816.662 582.705 817.879 583.566 817.893 584.879C817.879 586.191 816.662 587.053 814.871 587.053C813.066 587.053 811.836 586.191 811.836 584.879C811.836 583.566 813.066 582.705 814.871 582.705ZM814.871 583.826C813.928 583.826 813.312 584.223 813.312 584.879C813.312 585.549 813.928 585.932 814.871 585.932C815.814 585.932 816.443 585.549 816.443 584.879C816.443 584.223 815.814 583.826 814.871 583.826Z" fill="#1A1A1A"/>
<path d="M830.197 580.832V581.57C830.184 582.418 830.184 583.635 829.896 585.207L828.393 585.07C828.632 583.792 828.68 582.849 828.707 582.09H823.895V580.832H830.197ZM827.08 583.648V586.109C828.358 586.062 829.671 585.966 830.867 585.795L830.949 586.889C828.379 587.354 825.467 587.395 823.293 587.408L823.156 586.191C823.888 586.185 824.708 586.178 825.576 586.164V583.648H827.08ZM833.15 579.916V583.771H834.75V585.043H833.15V589.172H831.592V579.916H833.15ZM833.547 590.799V592.029H825.002V588.352H826.533V590.799H833.547Z" fill="#1A1A1A"/>
<path d="M530.1 625.789C532.055 625.775 533.49 627.02 533.504 628.77C533.49 630.533 532.055 631.764 530.1 631.764C528.158 631.764 526.709 630.533 526.709 628.77C526.709 627.02 528.158 625.775 530.1 625.789ZM530.1 627.102C529.02 627.102 528.213 627.744 528.213 628.77C528.213 629.809 529.02 630.438 530.1 630.438C531.193 630.438 532.014 629.809 532.014 628.77C532.014 627.744 531.193 627.102 530.1 627.102ZM536.389 624.928V637.301H534.871V624.928H536.389ZM526.148 633.473C528.377 633.473 531.467 633.445 534.133 633.062L534.256 634.17C531.48 634.703 528.514 634.717 526.34 634.717L526.148 633.473Z" fill="#1A1A1A"/>
<path d="M545.535 626.117V627.32H538.207V626.117H541.119V624.873H542.637V626.117H545.535ZM541.871 627.799C543.662 627.799 544.879 628.701 544.893 630.055C544.879 631.408 543.662 632.311 541.871 632.311C540.08 632.311 538.836 631.408 538.836 630.055C538.836 628.701 540.08 627.799 541.871 627.799ZM541.871 628.947C540.928 628.947 540.312 629.357 540.312 630.055C540.312 630.752 540.928 631.148 541.871 631.135C542.814 631.148 543.443 630.752 543.443 630.055C543.443 629.357 542.814 628.947 541.871 628.947ZM547.941 624.928V628.209H549.664V629.453H547.941V632.666H546.424V624.928H547.941ZM547.941 633.24V637.287H546.424V634.457H539.711V633.24H547.941Z" fill="#1A1A1A"/>
<path d="M560.328 630.547V631.75H556.664V634.58H561.586V635.824H550.293V634.58H555.16V631.75H551.66V625.844H560.232V627.061H553.178V630.547H560.328Z" fill="#1A1A1A"/>
<path d="M566.959 627.895C566.959 630.191 568.053 632.447 570.021 633.309L569.105 634.525C567.704 633.842 566.72 632.529 566.193 630.916C565.653 632.618 564.648 634.033 563.227 634.758L562.27 633.527C564.279 632.584 565.4 630.205 565.414 627.895V625.926H566.959V627.895ZM572.756 624.928V637.301H571.252V630.15H568.654V628.92H571.252V624.928H572.756Z" fill="#1A1A1A"/>
<path d="M581.396 625.844V626.582C581.383 627.43 581.383 628.646 581.096 630.219L579.592 630.082C579.831 628.804 579.879 627.86 579.906 627.102H575.094V625.844H581.396ZM578.279 628.66V631.121C579.558 631.073 580.87 630.978 582.066 630.807L582.148 631.9C579.578 632.365 576.666 632.406 574.492 632.42L574.355 631.203C575.087 631.196 575.907 631.189 576.775 631.176V628.66H578.279ZM584.35 624.928V628.783H585.949V630.055H584.35V634.184H582.791V624.928H584.35ZM584.746 635.811V637.041H576.201V633.363H577.732V635.811H584.746Z" fill="#1A1A1A"/>
<path d="M817.225 652.069V653.327C817.225 654.858 817.225 656.526 816.773 658.946L815.283 658.796C815.707 656.513 815.707 654.817 815.707 653.327V653.286H808.229V652.069H817.225ZM818.359 660.45V661.694H807.094V660.45H809.623V656.513H811.141V660.45H812.713V656.513H814.203V660.45H818.359Z" fill="#1A1A1A"/>
<path d="M830.459 656.772V657.989H827.643V659.274H829.078V663.294H827.561V660.464H820.438V659.274H821.969V657.989H819.193V656.772H830.459ZM824.812 651.194C827.52 651.194 829.256 652.11 829.27 653.601C829.256 655.104 827.52 656.021 824.812 656.021C822.105 656.021 820.355 655.104 820.355 653.601C820.355 652.11 822.105 651.194 824.812 651.194ZM824.812 652.384C823.008 652.384 821.928 652.821 821.941 653.601C821.928 654.407 823.008 654.845 824.812 654.845C826.617 654.845 827.697 654.407 827.697 653.601C827.697 652.821 826.617 652.384 824.812 652.384ZM823.486 659.274H826.139V657.989H823.486V659.274Z" fill="#1A1A1A"/>
<path d="M838.197 651.851V652.589C838.184 653.437 838.184 654.653 837.896 656.226L836.393 656.089C836.632 654.811 836.68 653.867 836.707 653.108H831.895V651.851H838.197ZM835.08 654.667V657.128C836.358 657.08 837.671 656.984 838.867 656.813L838.949 657.907C836.379 658.372 833.467 658.413 831.293 658.427L831.156 657.21C831.888 657.203 832.708 657.196 833.576 657.183V654.667H835.08ZM841.15 650.935V654.79H842.75V656.062H841.15V660.19H839.592V650.935H841.15ZM841.547 661.817V663.048H833.002V659.37H834.533V661.817H841.547Z" fill="#1A1A1A"/>
<path d="M814.436 781.158V782.361H807.107V781.158H810.02V779.914H811.537V781.158H814.436ZM810.771 782.84C812.562 782.84 813.779 783.742 813.793 785.096C813.779 786.449 812.562 787.352 810.771 787.352C808.98 787.352 807.736 786.449 807.736 785.096C807.736 783.742 808.98 782.84 810.771 782.84ZM810.771 783.988C809.828 783.988 809.213 784.398 809.213 785.096C809.213 785.793 809.828 786.189 810.771 786.176C811.715 786.189 812.344 785.793 812.344 785.096C812.344 784.398 811.715 783.988 810.771 783.988ZM816.842 779.969V783.25H818.564V784.494H816.842V787.707H815.324V779.969H816.842ZM816.842 788.281V792.328H815.324V789.498H808.611V788.281H816.842Z" fill="#1A1A1A"/>
<path d="M823.049 782.266C823.049 783.605 823.828 784.945 825.455 785.561L824.648 786.723C823.548 786.299 822.782 785.513 822.338 784.549C821.887 785.656 821.08 786.6 819.904 787.092L819.084 785.93C820.779 785.178 821.572 783.633 821.586 782.266V780.734H823.049V782.266ZM829.762 779.982V787.557H828.312V784.344H827.082V787.174H825.66V780.215H827.082V783.1H828.312V779.982H829.762ZM825.592 787.762C828.176 787.762 829.816 788.609 829.83 790.031C829.816 791.453 828.176 792.314 825.592 792.314C822.98 792.314 821.354 791.453 821.354 790.031C821.354 788.609 822.98 787.762 825.592 787.762ZM825.592 788.91C823.883 788.91 822.871 789.307 822.871 790.031C822.871 790.77 823.883 791.152 825.592 791.152C827.287 791.152 828.299 790.77 828.299 790.031C828.299 789.307 827.287 788.91 825.592 788.91Z" fill="#1A1A1A"/>
<path d="M838.197 780.885V781.623C838.184 782.471 838.184 783.688 837.896 785.26L836.393 785.123C836.632 783.845 836.68 782.901 836.707 782.143H831.895V780.885H838.197ZM835.08 783.701V786.162C836.358 786.114 837.671 786.019 838.867 785.848L838.949 786.941C836.379 787.406 833.467 787.447 831.293 787.461L831.156 786.244C831.888 786.237 832.708 786.23 833.576 786.217V783.701H835.08ZM841.15 779.969V783.824H842.75V785.096H841.15V789.225H839.592V779.969H841.15ZM841.547 790.852V792.082H833.002V788.404H834.533V790.852H841.547Z" fill="#1A1A1A"/>
<path d="M652.662 762.965V770.73H651.213V767.367H650.01V770.32H648.588V763.211H650.01V766.137H651.213V762.965H652.662ZM648.178 764.305V765.494H642.025V764.305H644.363V763.074H645.867V764.305H648.178ZM645.115 766C646.688 766 647.795 766.848 647.809 768.133C647.795 769.418 646.688 770.266 645.115 770.266C643.57 770.266 642.449 769.418 642.463 768.133C642.449 766.848 643.57 766 645.115 766ZM645.115 767.094C644.35 767.094 643.816 767.49 643.816 768.133C643.816 768.775 644.336 769.172 645.115 769.172C645.895 769.172 646.428 768.775 646.428 768.133C646.428 767.49 645.895 767.094 645.115 767.094ZM648.492 770.881C651.131 770.881 652.717 771.688 652.73 773.109C652.717 774.504 651.131 775.311 648.492 775.311C645.854 775.311 644.254 774.504 644.254 773.109C644.254 771.688 645.854 770.881 648.492 770.881ZM648.492 772.043C646.729 772.029 645.771 772.385 645.771 773.109C645.771 773.793 646.729 774.148 648.492 774.148C650.242 774.148 651.199 773.793 651.199 773.109C651.199 772.385 650.242 772.029 648.492 772.043Z" fill="#1A1A1A"/>
<path d="M664.543 762.965V770.307H663.025V767.285H660.92V766.041H663.025V762.965H664.543ZM660.359 770.621C662.984 770.621 664.584 771.482 664.584 772.973C664.584 774.463 662.984 775.324 660.359 775.324C657.748 775.324 656.148 774.463 656.162 772.973C656.148 771.482 657.748 770.621 660.359 770.621ZM660.359 771.783C658.637 771.783 657.666 772.193 657.666 772.973C657.666 773.738 658.637 774.148 660.359 774.148C662.082 774.148 663.066 773.738 663.066 772.973C663.066 772.193 662.082 771.783 660.359 771.783ZM658.732 765.084C658.732 766.588 659.73 768.105 661.645 768.748L660.879 769.951C659.505 769.486 658.527 768.543 657.994 767.381C657.447 768.7 656.415 769.753 654.945 770.279L654.152 769.076C656.135 768.393 657.188 766.725 657.188 765.098V765.002H654.617V763.771H661.289V765.002H658.732V765.084Z" fill="#1A1A1A"/>
<path d="M673.197 763.881V764.619C673.184 765.467 673.184 766.684 672.896 768.256L671.393 768.119C671.632 766.841 671.68 765.897 671.707 765.139H666.895V763.881H673.197ZM670.08 766.697V769.158C671.358 769.11 672.671 769.015 673.867 768.844L673.949 769.938C671.379 770.402 668.467 770.443 666.293 770.457L666.156 769.24C666.888 769.233 667.708 769.227 668.576 769.213V766.697H670.08ZM676.15 762.965V766.82H677.75V768.092H676.15V772.221H674.592V762.965H676.15ZM676.547 773.848V775.078H668.002V771.4H669.533V773.848H676.547Z" fill="#1A1A1A"/>
<path d="M684.49 762.814V775.502H682.863V762.814H684.49Z" fill="#1A1A1A"/>
<path d="M700.131 762.979V772.043H698.613V768.98H695.674C695.079 769.644 694.204 770.047 693.213 770.047C691.354 770.047 689.945 768.707 689.945 766.889C689.945 765.043 691.354 763.717 693.213 763.717C694.197 763.717 695.065 764.113 695.66 764.77H698.613V762.979H700.131ZM700.445 773.848V775.078H692.023V771.113H693.541V773.848H700.445ZM693.213 765.07C692.146 765.07 691.395 765.781 691.395 766.889C691.395 767.982 692.146 768.693 693.213 768.693C694.225 768.693 694.99 767.982 695.004 766.889C694.99 765.781 694.225 765.07 693.213 765.07ZM696.33 766C696.405 766.28 696.453 766.574 696.453 766.889C696.453 767.189 696.412 767.477 696.344 767.75H698.613V766H696.33Z" fill="#1A1A1A"/>
<path d="M711.766 763.717V764.824C711.766 765.979 711.766 767.244 711.438 768.994H713.146V770.225H708.238V775.338H706.707V770.225H701.881V768.994H709.893C710.234 767.312 710.248 766.055 710.248 764.947H703.207V763.717H711.766Z" fill="#1A1A1A"/>
<path d="M720.885 763.881V764.619C720.871 765.467 720.871 766.684 720.584 768.256L719.08 768.119C719.319 766.841 719.367 765.897 719.395 765.139H714.582V763.881H720.885ZM717.768 766.697V769.158C719.046 769.11 720.358 769.015 721.555 768.844L721.637 769.938C719.066 770.402 716.154 770.443 713.98 770.457L713.844 769.24C714.575 769.233 715.396 769.227 716.264 769.213V766.697H717.768ZM723.838 762.965V766.82H725.438V768.092H723.838V772.221H722.279V762.965H723.838ZM724.234 773.848V775.078H715.689V771.4H717.221V773.848H724.234Z" fill="#1A1A1A"/>
<path d="M153.66 512.863C153.66 515.16 154.754 517.416 156.723 518.277L155.807 519.494C154.405 518.811 153.421 517.498 152.895 515.885C152.354 517.587 151.35 519.002 149.928 519.727L148.971 518.496C150.98 517.553 152.102 515.174 152.115 512.863V510.895H153.66V512.863ZM159.457 509.896V522.27H157.953V515.119H155.355V513.889H157.953V509.896H159.457Z" fill="#1A1A1A"/>
<path d="M166.812 510.02C169.629 510.02 171.256 510.771 171.27 512.139C171.256 513.52 169.629 514.258 166.812 514.271C163.996 514.258 162.355 513.52 162.355 512.139C162.355 510.771 163.996 510.02 166.812 510.02ZM166.812 511.154C164.926 511.154 163.941 511.496 163.955 512.139C163.941 512.822 164.926 513.137 166.812 513.15C168.727 513.137 169.697 512.822 169.697 512.139C169.697 511.496 168.727 511.154 166.812 511.154ZM172.459 514.914V516.104H167.564V517.047H171.051V520.068H164.023V520.984H171.393V522.146H162.533V518.988H169.561V518.168H162.52V517.047H166.047V516.104H161.193V514.914H172.459Z" fill="#1A1A1A"/>
<path d="M183.93 509.896V522.256H182.48V515.953H181.086V521.627H179.691V510.129H181.086V514.736H182.48V509.896H183.93ZM178.297 511.359V512.59H175.207V518.086C176.554 518.072 177.661 518.004 178.912 517.771L179.021 519.016C177.531 519.316 176.232 519.357 174.51 519.371H173.676V511.359H178.297Z" fill="#1A1A1A"/>
<path d="M192.734 511.086V512.289H185.406V511.086H188.318V509.842H189.836V511.086H192.734ZM189.07 512.768C190.861 512.768 192.078 513.67 192.092 515.023C192.078 516.377 190.861 517.279 189.07 517.279C187.279 517.279 186.035 516.377 186.035 515.023C186.035 513.67 187.279 512.768 189.07 512.768ZM189.07 513.916C188.127 513.916 187.512 514.326 187.512 515.023C187.512 515.721 188.127 516.117 189.07 516.104C190.014 516.117 190.643 515.721 190.643 515.023C190.643 514.326 190.014 513.916 189.07 513.916ZM195.141 509.896V513.178H196.863V514.422H195.141V517.635H193.623V509.896H195.141ZM195.141 518.209V522.256H193.623V519.426H186.91V518.209H195.141Z" fill="#1A1A1A"/>
<path d="M207.623 511.031V512.289C207.623 513.82 207.623 515.488 207.172 517.908L205.682 517.758C206.105 515.475 206.105 513.779 206.105 512.289V512.248H198.627V511.031H207.623ZM208.758 519.412V520.656H197.492V519.412H200.021V515.475H201.539V519.412H203.111V515.475H204.602V519.412H208.758Z" fill="#1A1A1A"/>
<path d="M159.361 532.896V545.256H157.844V532.896H159.361ZM153.838 536.82C153.838 538.707 154.986 540.717 156.982 541.551L156.148 542.713C154.727 542.118 153.667 540.881 153.1 539.391C152.546 540.97 151.479 542.289 150.037 542.918L149.217 541.742C151.186 540.867 152.32 538.789 152.32 536.82V536.178H149.6V534.961H152.32V533.156H153.824V534.961H156.49V536.178H153.838V536.82Z" fill="#1A1A1A"/>
<path d="M168.098 534.182V535.057C168.098 536.164 168.098 537.709 167.756 539.842L166.252 539.719C166.546 537.846 166.58 536.465 166.594 535.398H161.74V534.182H168.098ZM164.98 537.709V541.359C166.238 541.312 167.53 541.223 168.713 541.072L168.795 542.207C166.238 542.617 163.408 542.672 161.234 542.658L161.084 541.441C161.815 541.435 162.629 541.428 163.477 541.4V537.709H164.98ZM170.887 532.896V537.928H172.678V539.213H170.887V545.256H169.355V532.896H170.887Z" fill="#1A1A1A"/>
<path d="M175.371 533.648V535.426H178.133V533.648H179.637V534.797H182.125V532.896H183.643V540.32H182.125V538.543H179.637V539.527H173.854V533.648H175.371ZM175.371 538.338H178.133V536.615H175.371V538.338ZM179.459 540.539C182.084 540.539 183.684 541.4 183.684 542.904C183.684 544.381 182.084 545.242 179.459 545.242C176.848 545.242 175.248 544.381 175.262 542.904C175.248 541.4 176.848 540.539 179.459 540.539ZM179.459 541.701C177.736 541.701 176.766 542.111 176.766 542.904C176.766 543.656 177.736 544.066 179.459 544.066C181.182 544.066 182.166 543.656 182.166 542.904C182.166 542.111 181.182 541.701 179.459 541.701ZM179.637 537.312H182.125V536H179.637V537.312Z" fill="#1A1A1A"/>
<path d="M195.756 532.91V542.262H194.225V541.182H191.805V540.115H194.225V532.91H195.756ZM196.043 543.779V545.01H186.979V541.359H188.496V543.779H196.043ZM185.338 538.461C187.621 538.447 190.684 538.42 193.309 538.092L193.391 539.186C192.372 539.356 191.319 539.473 190.273 539.541V541.92H188.756V539.623C187.601 539.671 186.5 539.678 185.529 539.678L185.338 538.461ZM189.371 533.361C191.176 533.361 192.434 534.25 192.447 535.549C192.434 536.875 191.176 537.723 189.371 537.723C187.539 537.723 186.281 536.875 186.281 535.549C186.281 534.25 187.539 533.361 189.371 533.361ZM189.371 534.482C188.387 534.482 187.717 534.879 187.717 535.549C187.717 536.219 188.387 536.615 189.371 536.615C190.314 536.615 190.984 536.219 190.998 535.549C190.984 534.879 190.314 534.482 189.371 534.482Z" fill="#1A1A1A"/>
<path d="M148.006 739.52V740.463C148.006 741.386 148.006 742.445 147.746 743.826H149.387V745.057H144.479V746.984H148.033V751.318H146.516V748.201H139.242V746.984H142.961V745.057H138.094V743.826H146.215C146.461 742.562 146.488 741.598 146.488 740.736H139.488V739.52H148.006Z" fill="#1A1A1A"/>
<path d="M160.83 738.959V751.318H159.381V738.959H160.83ZM158.314 739.191V750.717H156.879V744.496H155.102V743.266H156.879V739.191H158.314ZM154.008 742.336C154.008 744.428 154.76 746.52 156.523 747.531L155.621 748.652C154.479 747.969 153.721 746.793 153.297 745.385C152.859 746.909 152.073 748.208 150.904 748.939L149.975 747.805C151.766 746.725 152.545 744.482 152.545 742.336V741.516H150.398V740.285H156.004V741.516H154.008V742.336Z" fill="#1A1A1A"/>
<path d="M169.197 739.875V740.613C169.184 741.461 169.184 742.678 168.896 744.25L167.393 744.113C167.632 742.835 167.68 741.892 167.707 741.133H162.895V739.875H169.197ZM166.08 742.691V745.152C167.358 745.104 168.671 745.009 169.867 744.838L169.949 745.932C167.379 746.396 164.467 746.438 162.293 746.451L162.156 745.234C162.888 745.228 163.708 745.221 164.576 745.207V742.691H166.08ZM172.15 738.959V742.814H173.75V744.086H172.15V748.215H170.592V738.959H172.15ZM172.547 749.842V751.072H164.002V747.395H165.533V749.842H172.547Z" fill="#1A1A1A"/>
<path d="M263.1 431.736C265.055 431.723 266.49 432.967 266.504 434.717C266.49 436.48 265.055 437.711 263.1 437.711C261.158 437.711 259.709 436.48 259.709 434.717C259.709 432.967 261.158 431.723 263.1 431.736ZM263.1 433.049C262.02 433.049 261.213 433.691 261.213 434.717C261.213 435.756 262.02 436.385 263.1 436.385C264.193 436.385 265.014 435.756 265.014 434.717C265.014 433.691 264.193 433.049 263.1 433.049ZM269.389 430.875V443.248H267.871V430.875H269.389ZM259.148 439.42C261.377 439.42 264.467 439.393 267.133 439.01L267.256 440.117C264.48 440.65 261.514 440.664 259.34 440.664L259.148 439.42Z" fill="#1A1A1A"/>
<path d="M275.049 433.172C275.049 434.512 275.828 435.852 277.455 436.467L276.648 437.629C275.548 437.205 274.782 436.419 274.338 435.455C273.887 436.562 273.08 437.506 271.904 437.998L271.084 436.836C272.779 436.084 273.572 434.539 273.586 433.172V431.641H275.049V433.172ZM281.762 430.889V438.463H280.312V435.25H279.082V438.08H277.66V431.121H279.082V434.006H280.312V430.889H281.762ZM277.592 438.668C280.176 438.668 281.816 439.516 281.83 440.938C281.816 442.359 280.176 443.221 277.592 443.221C274.98 443.221 273.354 442.359 273.354 440.938C273.354 439.516 274.98 438.668 277.592 438.668ZM277.592 439.816C275.883 439.816 274.871 440.213 274.871 440.938C274.871 441.676 275.883 442.059 277.592 442.059C279.287 442.059 280.299 441.676 280.299 440.938C280.299 440.213 279.287 439.816 277.592 439.816Z" fill="#1A1A1A"/>
<path d="M293.643 430.875V438.148H292.125V436.439H289.637V437.396H283.826V431.805H289.637V432.762H292.125V430.875H293.643ZM285.344 433.008V436.18H288.133V433.008H285.344ZM289.459 438.477C292.084 438.477 293.684 439.352 293.684 440.855C293.684 442.359 292.084 443.221 289.459 443.221C286.848 443.221 285.248 442.359 285.262 440.855C285.248 439.352 286.848 438.477 289.459 438.477ZM289.459 439.639C287.736 439.639 286.766 440.062 286.766 440.855C286.766 441.621 287.736 442.045 289.459 442.045C291.182 442.045 292.166 441.621 292.166 440.855C292.166 440.062 291.182 439.639 289.459 439.639ZM289.637 435.209H292.125V433.965H289.637V435.209Z" fill="#1A1A1A"/>
<path d="M306.672 436.795V438.012H295.393V436.795H300.287V435.619H296.773V431.436H305.305V432.625H298.291V434.416H305.373V435.619H301.777V436.795H306.672ZM301.012 438.723C303.678 438.723 305.277 439.529 305.291 440.979C305.277 442.414 303.678 443.234 301.012 443.234C298.318 443.234 296.705 442.414 296.705 440.979C296.705 439.529 298.318 438.723 301.012 438.723ZM301.012 439.885C299.207 439.885 298.236 440.268 298.25 440.979C298.236 441.689 299.207 442.059 301.012 442.059C302.775 442.059 303.76 441.689 303.773 440.979C303.76 440.268 302.775 439.885 301.012 439.885Z" fill="#1A1A1A"/>
<path d="M318.758 435.893V437.096H313.863V438.025H317.35V441.061H310.322V441.963H317.691V443.125H308.832V439.967H315.859V439.174H308.818V438.025H312.346V437.096H307.492V435.893H318.758ZM317.309 431.258V435.113H308.914V431.258H317.309ZM310.404 432.447V433.924H315.791V432.447H310.404Z" fill="#1A1A1A"/>
<path d="M324.021 434.389C324.021 436.303 325.156 438.477 327.111 439.379L326.264 440.582C324.869 439.926 323.837 438.6 323.283 437.055C322.723 438.75 321.643 440.199 320.221 440.883L319.332 439.693C321.301 438.764 322.49 436.439 322.504 434.389V433.35H319.811V432.092H326.605V433.35H324.021V434.389ZM329.271 430.875V435.688H331.172V436.959H329.271V443.234H327.754V430.875H329.271Z" fill="#1A1A1A"/>
<path d="M342.055 430.889V440.24H340.523V439.16H338.104V438.094H340.523V430.889H342.055ZM342.342 441.758V442.988H333.277V439.338H334.795V441.758H342.342ZM331.637 436.439C333.92 436.426 336.982 436.398 339.607 436.07L339.689 437.164C338.671 437.335 337.618 437.451 336.572 437.52V439.898H335.055V437.602C333.899 437.649 332.799 437.656 331.828 437.656L331.637 436.439ZM335.67 431.34C337.475 431.34 338.732 432.229 338.746 433.527C338.732 434.854 337.475 435.701 335.67 435.701C333.838 435.701 332.58 434.854 332.58 433.527C332.58 432.229 333.838 431.34 335.67 431.34ZM335.67 432.461C334.686 432.461 334.016 432.857 334.016 433.527C334.016 434.197 334.686 434.594 335.67 434.594C336.613 434.594 337.283 434.197 337.297 433.527C337.283 432.857 336.613 432.461 335.67 432.461Z" fill="#1A1A1A"/>
<path d="M354.141 430.889V439.953H352.623V436.891H349.684C349.089 437.554 348.214 437.957 347.223 437.957C345.363 437.957 343.955 436.617 343.955 434.799C343.955 432.953 345.363 431.627 347.223 431.627C348.207 431.627 349.075 432.023 349.67 432.68H352.623V430.889H354.141ZM354.455 441.758V442.988H346.033V439.023H347.551V441.758H354.455ZM347.223 432.98C346.156 432.98 345.404 433.691 345.404 434.799C345.404 435.893 346.156 436.604 347.223 436.604C348.234 436.604 349 435.893 349.014 434.799C349 433.691 348.234 432.98 347.223 432.98ZM350.34 433.91C350.415 434.19 350.463 434.484 350.463 434.799C350.463 435.1 350.422 435.387 350.354 435.66H352.623V433.91H350.34Z" fill="#1A1A1A"/>
<path d="M365.775 431.627V432.734C365.775 433.89 365.775 435.154 365.447 436.904H367.156V438.135H362.248V443.248H360.717V438.135H355.891V436.904H363.902C364.244 435.223 364.258 433.965 364.258 432.857H357.217V431.627H365.775Z" fill="#1A1A1A"/>
<path d="M379.27 436.795V438.012H367.99V436.795H372.885V435.619H369.371V431.436H377.902V432.625H370.889V434.416H377.971V435.619H374.375V436.795H379.27ZM373.609 438.723C376.275 438.723 377.875 439.529 377.889 440.979C377.875 442.414 376.275 443.234 373.609 443.234C370.916 443.234 369.303 442.414 369.303 440.979C369.303 439.529 370.916 438.723 373.609 438.723ZM373.609 439.885C371.805 439.885 370.834 440.268 370.848 440.979C370.834 441.689 371.805 442.059 373.609 442.059C375.373 442.059 376.357 441.689 376.371 440.979C376.357 440.268 375.373 439.885 373.609 439.885Z" fill="#1A1A1A"/>
<path d="M536.66 513.863C536.66 516.16 537.754 518.416 539.723 519.277L538.807 520.494C537.405 519.811 536.421 518.498 535.895 516.885C535.354 518.587 534.35 520.002 532.928 520.727L531.971 519.496C533.98 518.553 535.102 516.174 535.115 513.863V511.895H536.66V513.863ZM542.457 510.896V523.27H540.953V516.119H538.355V514.889H540.953V510.896H542.457Z" fill="#1A1A1A"/>
<path d="M549.812 511.02C552.629 511.02 554.256 511.771 554.27 513.139C554.256 514.52 552.629 515.258 549.812 515.271C546.996 515.258 545.355 514.52 545.355 513.139C545.355 511.771 546.996 511.02 549.812 511.02ZM549.812 512.154C547.926 512.154 546.941 512.496 546.955 513.139C546.941 513.822 547.926 514.137 549.812 514.15C551.727 514.137 552.697 513.822 552.697 513.139C552.697 512.496 551.727 512.154 549.812 512.154ZM555.459 515.914V517.104H550.564V518.047H554.051V521.068H547.023V521.984H554.393V523.146H545.533V519.988H552.561V519.168H545.52V518.047H549.047V517.104H544.193V515.914H555.459Z" fill="#1A1A1A"/>
<path d="M566.93 510.896V523.256H565.48V516.953H564.086V522.627H562.691V511.129H564.086V515.736H565.48V510.896H566.93ZM561.297 512.359V513.59H558.207V519.086C559.554 519.072 560.661 519.004 561.912 518.771L562.021 520.016C560.531 520.316 559.232 520.357 557.51 520.371H556.676V512.359H561.297Z" fill="#1A1A1A"/>
<path d="M575.734 512.086V513.289H568.406V512.086H571.318V510.842H572.836V512.086H575.734ZM572.07 513.768C573.861 513.768 575.078 514.67 575.092 516.023C575.078 517.377 573.861 518.279 572.07 518.279C570.279 518.279 569.035 517.377 569.035 516.023C569.035 514.67 570.279 513.768 572.07 513.768ZM572.07 514.916C571.127 514.916 570.512 515.326 570.512 516.023C570.512 516.721 571.127 517.117 572.07 517.104C573.014 517.117 573.643 516.721 573.643 516.023C573.643 515.326 573.014 514.916 572.07 514.916ZM578.141 510.896V514.178H579.863V515.422H578.141V518.635H576.623V510.896H578.141ZM578.141 519.209V523.256H576.623V520.426H569.91V519.209H578.141Z" fill="#1A1A1A"/>
<path d="M590.623 512.031V513.289C590.623 514.82 590.623 516.488 590.172 518.908L588.682 518.758C589.105 516.475 589.105 514.779 589.105 513.289V513.248H581.627V512.031H590.623ZM591.758 520.412V521.656H580.492V520.412H583.021V516.475H584.539V520.412H586.111V516.475H587.602V520.412H591.758Z" fill="#1A1A1A"/>
<path d="M594.67 511.648V513.426H597.432V511.648H598.936V512.797H601.424V510.896H602.941V518.32H601.424V516.543H598.936V517.527H593.152V511.648H594.67ZM594.67 516.338H597.432V514.615H594.67V516.338ZM598.758 518.539C601.383 518.539 602.982 519.4 602.982 520.904C602.982 522.381 601.383 523.242 598.758 523.242C596.146 523.242 594.547 522.381 594.561 520.904C594.547 519.4 596.146 518.539 598.758 518.539ZM598.758 519.701C597.035 519.701 596.064 520.111 596.064 520.904C596.064 521.656 597.035 522.066 598.758 522.066C600.48 522.066 601.465 521.656 601.465 520.904C601.465 520.111 600.48 519.701 598.758 519.701ZM598.936 515.312H601.424V514H598.936V515.312Z" fill="#1A1A1A"/>
<path d="M615.055 510.91V520.262H613.523V519.182H611.104V518.115H613.523V510.91H615.055ZM615.342 521.779V523.01H606.277V519.359H607.795V521.779H615.342ZM604.637 516.461C606.92 516.447 609.982 516.42 612.607 516.092L612.689 517.186C611.671 517.356 610.618 517.473 609.572 517.541V519.92H608.055V517.623C606.899 517.671 605.799 517.678 604.828 517.678L604.637 516.461ZM608.67 511.361C610.475 511.361 611.732 512.25 611.746 513.549C611.732 514.875 610.475 515.723 608.67 515.723C606.838 515.723 605.58 514.875 605.58 513.549C605.58 512.25 606.838 511.361 608.67 511.361ZM608.67 512.482C607.686 512.482 607.016 512.879 607.016 513.549C607.016 514.219 607.686 514.615 608.67 514.615C609.613 514.615 610.283 514.219 610.297 513.549C610.283 512.879 609.613 512.482 608.67 512.482Z" fill="#1A1A1A"/>
</g>
<defs>
<clipPath id="clip0_1038_597">
<rect width="738.815" height="676.41" fill="white" transform="translate(127 167)"/>
</clipPath>
</defs>
</svg>
