<svg width="1200" height="1000" viewBox="0 0 1200 1000" fill="none" xmlns="http://www.w3.org/2000/svg">
<mask id="mask0_1038_598" style="mask-type:alpha" maskUnits="userSpaceOnUse" x="0" y="0" width="1200" height="1000">
<rect width="1200" height="1000" fill="#D9D9D9"/>
</mask>
<g mask="url(#mask0_1038_598)">
<path d="M249.268 710.821L191.487 600.264L198.077 612.874L183.763 625.509L167.488 633.759L167.556 634.443L198.761 713.837L188.882 728.61V748.554L214.269 835.587L224.9 834.855C224.9 834.855 242.562 832.178 265.455 824.195C288.348 816.211 278.129 793.174 278.129 793.174L249.268 710.825V710.821ZM293.278 635.097C290.478 629.418 290.221 628.041 284.107 627.376C277.993 626.712 275.305 620.407 274.679 618.277C274.058 616.148 272.971 610.023 272.971 610.023L269.458 603.805C269.458 603.805 269.157 587.751 259.336 582.387C249.51 577.018 238.69 565.524 238.69 565.524C238.69 565.524 229.48 551.915 220.339 556.323C211.192 560.727 191.924 569.908 191.924 569.908C191.924 569.908 180.114 577.741 185.679 588.77L191.492 600.274L249.273 710.83L278.134 793.179L295.713 790.07C295.713 790.07 302.613 787.136 302.526 780.816C302.434 774.496 277.915 673.665 277.915 673.665L283.146 668.359L282.049 659.774C282.049 659.774 282.282 653.421 287.183 649.468C292.084 645.515 296.082 640.781 293.282 635.102" fill="white"/>
<path d="M737.437 476.652L661.145 487.715C655.211 485.164 648.49 484.049 641.537 484.795C620.998 486.988 606.193 504.525 608.464 523.959C610.74 543.393 655.041 583.028 655.041 583.028C655.041 583.028 675.838 544.475 680.651 532.408L743.177 525.725L737.437 476.647V476.652Z" fill="#ECF4D9"/>
<path d="M490.375 604.363L483 592.301L489.531 588.722L496.902 600.779L490.375 604.363Z" fill="white"/>
<path d="M473.742 596.806L487.785 592.553L488.901 595.87L474.858 600.124L473.742 596.806Z" fill="white"/>
<path d="M484.598 593.446L497.354 586.447L498.092 587.655L485.335 594.658L484.598 593.446Z" fill="white"/>
<path d="M492.996 585.19L506.641 584.041L507.063 588.639L493.418 589.793L492.996 585.19Z" fill="white"/>
<path d="M505.943 584.172L514.963 593.561L511.353 596.675L502.328 587.286L505.943 584.172Z" fill="white"/>
<path d="M509.902 576.276L507.267 587.257L502.512 586.243L505.142 575.263L509.902 576.276Z" fill="white"/>
<path d="M631.023 535.042L664.936 531.419L665.794 538.762L631.887 542.39L631.023 535.042Z" fill="#90CA86"/>
<path d="M832.501 343.35L809.036 345.857L807.871 335.885L831.336 333.378L832.501 343.35Z" fill="#90CA86"/>
<path d="M552.975 279.286L540.888 302.169L541.888 310.782L540.413 317.921L528.102 321.205L524.851 324.61L525.104 335.047L531.373 339.388L542.494 336.88L551.427 337.229L558.676 348.001L562.544 351.513L562.063 357.449L567.425 373.663L564.572 378.983L569.477 391.317L564.159 393.198L551.233 387.175L526.341 397.268L514.332 377.349L507.932 379.842L495.035 352.235L476.664 345.052L469.546 349.311L452.99 371.582L440.806 377.906L436.41 385.734L429.18 385.046L413.08 403.345L404.987 419.044L400.222 423.7L416.817 451.345L412.852 462.893L405.783 471.497L399.528 491.14L391.828 496.329L389.814 506.791L392.259 513.944L391.09 517.776L365.082 530.531" stroke="#90CA86" stroke-width="2" stroke-miterlimit="10"/>
<path d="M239.109 643.299L231.738 631.241L238.774 627.376L246.145 639.433L239.109 643.299Z" fill="#90CA86"/>
<path d="M261.262 637.576L253.887 625.519L259.108 622.652L266.478 634.709L261.262 637.576Z" fill="#90CA86"/>
<path d="M231.633 644.904L250.692 634.442L254.754 641.092L235.699 651.558L231.633 644.904Z" fill="#90CA86"/>
<path d="M703.657 253.998L709.97 307.983L794.127 298.991L795.791 313.241L839.151 308.604L833.896 263.693L851.243 261.84L844.372 203.106L779.236 210.066L781.812 232.09L713.221 239.423L714.483 250.219L703.352 251.408L703.657 253.998Z" fill="#ECF4D9"/>
<path d="M809.954 241.766L806.984 216.396L817.519 215.271L820.488 240.641L809.954 241.766Z" fill="#90CA86"/>
<path d="M793.976 243.473L791.012 218.103L801.546 216.978L804.515 242.348L793.976 243.473Z" fill="#90CA86"/>
<path d="M795.166 253.62L794.715 249.735L838.875 245.016L839.331 248.9L795.166 253.62Z" fill="#90CA86"/>
<path d="M725.467 248.391L724.914 243.643L778.361 237.93L778.919 242.678L725.467 248.391Z" fill="#90CA86"/>
<path d="M727.073 297.41L726.52 292.662L758.103 289.286L758.661 294.034L727.073 297.41Z" fill="#90CA86"/>
<path d="M826.61 239.986L823.641 214.615L834.175 213.49L837.144 238.856L826.61 239.986Z" fill="#90CA86"/>
<path d="M729.988 284.306L727.023 258.935L739.722 257.582L742.686 282.948L729.988 284.306Z" fill="#90CA86"/>
<path d="M710.735 286.362L707.766 260.997L720.464 259.639L723.433 285.009L710.735 286.362Z" fill="#90CA86"/>
<path d="M750.074 282.162L747.109 256.792L759.808 255.434L762.772 280.804L750.074 282.162Z" fill="#90CA86"/>
<path d="M772.553 262.869L771.539 254.182L777.376 253.557L778.39 262.243L772.553 262.869Z" fill="#90CA86"/>
<path d="M801.855 295.102L800.414 282.768L804.669 282.317L806.111 294.646L801.855 295.102Z" fill="#90CA86"/>
<path d="M799.698 307.75L798.941 301.29L808.505 300.267L809.257 306.732L799.698 307.75Z" fill="#90CA86"/>
<path d="M812.938 302.813L812.477 298.87L820.196 298.046L820.657 301.989L812.938 302.813Z" fill="#90CA86"/>
<path d="M808.106 294.432L806.66 282.099L810.916 281.647L812.357 293.981L808.106 294.432Z" fill="#90CA86"/>
<path d="M794.635 431.736L793.606 422.909L794.349 422.031L811.652 420.184L813.068 421.251L817.62 460.191L816.106 461.986L792.277 464.532L790.879 463.475L787.352 433.322L788.094 432.44L794.635 431.736Z" fill="#ECF4D9"/>
<path d="M792.32 458.062L815.32 455.604L815.81 459.779L792.81 462.238L792.32 458.062Z" fill="#90CA86"/>
<path d="M791.773 453.367L814.773 450.908L815.258 455.084L792.264 457.543L791.773 453.367Z" fill="#90CA86"/>
<path d="M791.227 448.668L814.226 446.209L814.716 450.39L791.717 452.844L791.227 448.668Z" fill="#90CA86"/>
<path d="M790.676 443.973L813.675 441.514L814.161 445.694L791.161 448.153L790.676 443.973Z" fill="#90CA86"/>
<path d="M789.574 434.578L805.3 432.9L806.169 440.345L790.448 442.023L789.574 434.578Z" fill="#90CA86"/>
<path d="M804.203 423.511L806.052 439.332L797.896 440.205L796.047 424.384L804.203 423.511Z" fill="#90CA86"/>
<path d="M949.136 203.102L950.403 213.912L955.211 221.43L961.529 275.454L963.654 277.811L967.759 277.37L970.064 297.061L992.884 294.621L996.654 326.845L1034.08 321.801L1027.98 269.61L1052.65 267.301L1050.93 252.577L1041.57 253.581L1033.19 243.202L1024.99 244.075L1022.8 225.358L1016.3 216.255L990.337 209.644L981.666 210.571L980.399 199.76L977.216 198.203L948.918 201.23L949.136 203.102Z" fill="#ECF4D9"/>
<path d="M956.139 207.598L955.605 203.029L971.914 201.283L972.448 205.857L956.139 207.598Z" fill="#90CA86"/>
<path d="M960.728 222.633L960.32 219.136L975.833 217.478L976.241 220.974L960.728 222.633Z" fill="#90CA86"/>
<path d="M961.536 229.539L961.129 226.047L976.637 224.389L977.044 227.881L961.536 229.539Z" fill="#90CA86"/>
<path d="M1029.93 247.601L1033.62 247.203L1035.68 264.809L1031.99 265.202L1029.93 247.601Z" fill="#90CA86"/>
<path d="M1041.29 255.38L1048.59 254.595L1049.69 264.009L1042.39 264.789L1041.29 255.38Z" fill="#90CA86"/>
<path d="M988.792 232.924L987.254 219.795L1011.03 217.254L1012.57 230.383L988.792 232.924Z" fill="#90CA86"/>
<path d="M993.025 242.484L992.574 238.652L1013.28 236.436L1013.73 240.267L993.025 242.484Z" fill="#90CA86"/>
<path d="M993.825 249.347L993.379 245.515L1014.08 243.304L1014.53 247.135L993.825 249.347Z" fill="#90CA86"/>
<path d="M994.631 256.209L994.18 252.378L1014.89 250.166L1015.34 253.998L994.631 256.209Z" fill="#90CA86"/>
<path d="M995.431 263.077L994.984 259.241L1015.69 257.029L1016.14 260.861L995.431 263.077Z" fill="#90CA86"/>
<path d="M996.236 269.94L995.785 266.108L1016.49 263.896L1016.94 267.728L996.236 269.94Z" fill="#90CA86"/>
<path d="M965.603 258.402L965.195 254.91L980.708 253.251L981.115 256.743L965.603 258.402Z" fill="#90CA86"/>
<path d="M996.531 281.168L995.891 275.736L1008.58 274.378L1009.21 279.815L996.531 281.168Z" fill="#90CA86"/>
<path d="M997.154 293.152L996.566 288.156L1004.63 287.293L1005.22 292.288L997.154 293.152Z" fill="#90CA86"/>
<path d="M966.654 265.123L966.246 261.631L981.754 259.973L982.166 263.465L966.654 265.123Z" fill="#90CA86"/>
<path d="M967.377 273.519L966.965 270.022L982.477 268.363L982.885 271.86L967.377 273.519Z" fill="#90CA86"/>
<path d="M974.661 282.511L974.254 279.019L988.84 277.462L989.242 280.954L974.661 282.511Z" fill="#90CA86"/>
<path d="M1008.6 290.407L1008.19 286.915L1022.77 285.354L1023.18 288.85L1008.6 290.407Z" fill="#90CA86"/>
<path d="M1011.37 296.261L1010.95 292.769L1021.43 291.648L1021.84 295.14L1011.37 296.261Z" fill="#90CA86"/>
<path d="M971.685 291.847L971.277 288.355L976.891 287.754L977.299 291.246L971.685 291.847Z" fill="#90CA86"/>
<path d="M971.833 293.142L971.426 289.65L989.432 287.725L989.84 291.221L971.833 293.142Z" fill="#90CA86"/>
<path d="M964.041 240.588L963.531 236.232L978.53 234.627L979.039 238.987L964.041 240.588Z" fill="#90CA86"/>
<path d="M964.939 248.251L964.43 243.895L979.428 242.295L979.933 246.65L964.939 248.251Z" fill="#90CA86"/>
<path d="M956.914 214.237L955.871 205.313L969.899 203.814L970.942 212.738L956.914 214.237Z" fill="#90CA86"/>
<path d="M1089.25 296.266L1085.55 303.109L1088.11 305.786L1076.19 323.896L1096.94 337.311L1110.47 318.702L1099.02 311.621L1102.44 306.334L1089.25 296.266Z" fill="#ECF4D9"/>
<path d="M1087.71 328.024L1084.25 325.996L1093.24 312.3L1096.7 314.327L1087.71 328.024Z" fill="#90CA86"/>
<path d="M1095.2 332.966L1091.74 330.934L1100.72 317.237L1104.19 319.269L1095.2 332.966Z" fill="#90CA86"/>
<path d="M691.462 493.398L681.664 494.255L683.878 519.553L693.676 518.696L691.462 493.398Z" fill="#90CA86"/>
<path d="M691.409 521.015L684.066 521.658L684.359 524.992L691.701 524.349L691.409 521.015Z" fill="#90CA86"/>
<path d="M689.422 515.874L686.082 516.166L686.724 523.505L690.065 523.213L689.422 515.874Z" fill="#90CA86"/>
<path d="M712.29 491.629L702.492 492.484L704.702 517.783L714.5 516.928L712.29 491.629Z" fill="#90CA86"/>
<path d="M712.237 519.229L704.895 519.867L705.185 523.201L712.527 522.563L712.237 519.229Z" fill="#90CA86"/>
<path d="M700.626 521.421L695.879 521.837L696.068 523.992L700.815 523.576L700.626 521.421Z" fill="#90CA86"/>
<path d="M720.847 519.657L716.105 520.072L716.294 522.227L721.036 521.812L720.847 519.657Z" fill="#90CA86"/>
<path d="M710.292 513.976L706.957 514.269L707.601 521.608L710.936 521.315L710.292 513.976Z" fill="#90CA86"/>
<path d="M731.915 489.858L722.117 490.715L724.331 516.013L734.13 515.156L731.915 489.858Z" fill="#90CA86"/>
<path d="M731.858 517.483L724.516 518.126L724.808 521.46L732.15 520.816L731.858 517.483Z" fill="#90CA86"/>
<path d="M729.903 512.261L726.562 512.554L727.206 519.893L730.546 519.6L729.903 512.261Z" fill="#90CA86"/>
<path d="M677.476 530.017C678.577 526.292 678.956 522.31 678.48 518.236C676.486 501.193 660.265 488.933 642.249 490.863C624.232 492.793 611.243 508.168 613.237 525.216C614.13 532.83 617.861 539.494 623.325 544.359" stroke="#DCDDDD" stroke-miterlimit="10"/>
<path d="M677.577 529.988C659.196 566.383 654.349 576.868 654.349 576.868M654.349 576.868L622.004 543.204M654.349 576.868L663.534 647.882" stroke="#DCDDDD" stroke-miterlimit="10"/>
<path d="M190.831 599.261L249.13 710.84L277.972 793.15C277.972 793.15 288.181 816.173 265.312 824.151C242.439 832.129 224.796 834.807 224.796 834.807L100.094 843.386C100.094 843.386 73.727 843.832 60 874.16" stroke="#DCDDDD" stroke-width="0.5" stroke-miterlimit="10"/>
<path d="M1139.86 348.34L1119.99 342.806L1104.73 352.104L1101.88 352.41L1057.44 326.059L1034.01 321.845L905.396 339.305L892.396 347.283L883.274 362.221L874.404 369.758L834.141 375.651C834.141 375.651 811 375.496 791.873 407.317C772.745 439.133 750.653 469.421 750.653 469.421C750.653 469.421 748.052 473.393 740.9 474.159C735.747 474.712 683.391 481.682 654.482 485.542C650.367 484.606 646.01 484.32 641.555 484.8C626.188 486.445 614.034 496.668 609.832 509.846L520.623 550.227L507.92 557.119L472.863 589.721L455.419 597.777L402.151 600.847L391.127 606.347C391.355 627.27 374.78 645.399 352.324 647.805C339.043 649.226 326.505 644.841 317.519 636.795L288.1 635.718L228.189 670.192L201.701 681.139L139.17 707.746C139.17 707.746 124.589 715.855 129.514 740.537C134.434 765.219 138.568 786.243 138.568 786.243" stroke="#DCDDDD" stroke-miterlimit="10"/>
<path d="M119.715 790.472L265.932 758.302M670.792 526.365L738.51 520.351" stroke="#DCDDDD" stroke-miterlimit="10"/>
<path d="M157.597 708.634L141.27 714.212L144.788 724.501L161.115 718.923L157.597 708.634Z" fill="white"/>
<path d="M150.288 748.543L139.422 749.07L140.259 766.297L151.125 765.769L150.288 748.543Z" fill="white"/>
<path d="M113.19 703.383L106.184 725.341L116.548 728.645L123.554 706.688L113.19 703.383Z" fill="white"/>
<path d="M178.409 701.522L162.082 707.1L165.6 717.389L181.928 711.811L178.409 701.522Z" fill="white"/>
<path d="M173.952 672.512L157.625 678.09L161.143 688.379L177.471 682.801L173.952 672.512Z" fill="white"/>
<path d="M213.866 654.403L197.539 659.98L201.057 670.27L217.385 664.692L213.866 654.403Z" fill="#F6F6F6"/>
<path d="M148.394 684.031L132.066 689.609L135.585 699.899L151.912 694.321L148.394 684.031Z" fill="white"/>
<path d="M203.96 733.12L198.523 734.978L201.27 743.009L206.706 741.152L203.96 733.12Z" fill="#F6F6F6"/>
<path d="M235.889 744.719L230.246 746.647L234.785 759.914L240.428 757.986L235.889 744.719Z" fill="#F6F6F6"/>
<path d="M212.169 725.829L198.781 730.405L201.248 737.615L214.636 733.038L212.169 725.829Z" fill="#F6F6F6"/>
<path d="M235.953 749.795L228.594 752.311L230.118 756.767L237.478 754.251L235.953 749.795Z" fill="#F6F6F6"/>
<path d="M213.995 750.983L201.047 755.406L203.318 762.047L216.266 757.624L213.995 750.983Z" fill="#F6F6F6"/>
<path d="M164.036 760.149L144.836 760.202L144.856 767.22L164.056 767.167L164.036 760.149Z" fill="white"/>
<path d="M116.43 751.525L109.512 752.722L112.786 771.632L119.705 770.435L116.43 751.525Z" fill="white"/>
<path d="M231.468 717.63L217.234 722.493L219.7 729.703L233.933 724.84L231.468 717.63Z" fill="#F6F6F6"/>
<path d="M231.958 719.085L225.902 721.154L229.382 731.329L235.438 729.26L231.958 719.085Z" fill="#F6F6F6"/>
<path d="M221.64 681.96L205.312 687.538L207.098 692.761L223.426 687.183L221.64 681.96Z" fill="#F6F6F6"/>
<path d="M217.366 686.99L208.812 689.914L213.973 704.998L222.527 702.075L217.366 686.99Z" fill="#F6F6F6"/>
<path d="M134.124 681.65L125.57 684.574L130.064 697.708L138.617 694.784L134.124 681.65Z" fill="white"/>
<path d="M258.785 765.698L262.293 783.129L251.516 785.307L248.008 767.881L258.785 765.698Z" fill="#90CA86"/>
<path d="M258.213 799.276L258.074 814.553L267.507 814.638L267.645 799.361L258.213 799.276Z" fill="#F6F6F6"/>
<path d="M260.754 806.764L253.266 808.85L254.53 813.386L262.018 811.301L260.754 806.764Z" fill="#F6F6F6"/>
<path d="M161.654 793.472L147.527 796.319L148.915 803.199L163.042 800.352L161.654 793.472Z" fill="white"/>
<path d="M139.006 798.037L124.879 800.884L126.267 807.763L140.394 804.916L139.006 798.037Z" fill="white"/>
<path d="M184.224 789.252L170.098 792.1L171.485 798.979L185.612 796.132L184.224 789.252Z" fill="white"/>
<path d="M281.332 737.366L275.922 739.873L280.977 750.772L286.387 748.266L281.332 737.366Z" fill="#F6F6F6"/>
<path d="M286.981 758.003L281.57 760.51L286.625 771.409L292.035 768.902L286.981 758.003Z" fill="#F6F6F6"/>
<path d="M287.953 767.176L282.543 769.683L289.1 783.821L294.51 781.314L287.953 767.176Z" fill="#F6F6F6"/>
<path d="M288.547 775.477L277.316 780.681L279.728 785.882L290.959 780.678L288.547 775.477Z" fill="#F6F6F6"/>
<path d="M278.132 717.459L264.965 723.56L267.918 729.927L281.085 723.826L278.132 717.459Z" fill="#F6F6F6"/>
<path d="M278.443 718.122L272.57 720.842L278.625 733.903L284.498 731.183L278.443 718.122Z" fill="#F6F6F6"/>
<path d="M264.251 698.444L258.73 701.002L264.485 713.411L270.006 710.853L264.251 698.444Z" fill="#F6F6F6"/>
<path d="M272.504 694.623L260.402 700.23L264.29 708.613L276.392 703.006L272.504 694.623Z" fill="#F6F6F6"/>
<path d="M227.16 600.631L217.52 605.1L224.507 620.16L234.147 615.692L227.16 600.631Z" fill="#F6F6F6"/>
<path d="M234.022 597.459L217.5 605.114L219.377 609.162L235.899 601.507L234.022 597.459Z" fill="#F6F6F6"/>
<path d="M229.993 570.845L210.871 579.709L214.09 586.648L233.212 577.784L229.993 570.845Z" fill="#F6F6F6"/>
<path d="M227.875 576.835L211.406 584.466L214.624 591.405L231.093 583.774L227.875 576.835Z" fill="#F6F6F6"/>
<path d="M206.622 581.697L194.375 587.371L196.918 592.854L209.165 587.179L206.622 581.697Z" fill="#F6F6F6"/>
<path d="M241.283 673.651L239.078 674.673L245.788 689.135L247.994 688.113L241.283 673.651Z" fill="#F6F6F6"/>
<path d="M247.25 676.228L242.258 678.541L246.921 688.596L251.913 686.283L247.25 676.228Z" fill="#F6F6F6"/>
<path d="M211.646 659.51L204.934 661.805L208.521 672.291L215.234 669.996L211.646 659.51Z" fill="#F6F6F6"/>
<path d="M389.13 625.916L378.379 643.026L383.429 646.196L394.18 629.086L389.13 625.916Z" fill="white"/>
<path d="M334.932 650.507L333.465 659.629L359.848 663.867L361.314 654.745L334.932 650.507Z" fill="white"/>
<path d="M563.139 498.813L515.133 520.298L526.098 544.777L574.104 523.292L563.139 498.813Z" fill="white"/>
<path d="M470.957 594.052L475.683 591.728L509.285 559.646L519.285 564.335L514.744 584.633L521.051 594.192L512.798 603.14L489.391 608.994L472.403 602.233L470.957 594.052Z" fill="#ECF4D9"/>
<path d="M490.375 604.363L483 592.301L489.531 588.722L496.902 600.779L490.375 604.363Z" fill="#90CA86"/>
<path d="M473.742 596.806L487.785 592.553L488.901 595.87L474.858 600.124L473.742 596.806Z" fill="#90CA86"/>
<path d="M484.598 593.446L497.354 586.447L498.092 587.655L485.335 594.658L484.598 593.446Z" fill="#90CA86"/>
<path d="M492.996 585.19L506.641 584.041L507.063 588.639L493.418 589.793L492.996 585.19Z" fill="#90CA86"/>
<path d="M505.943 584.172L514.963 593.561L511.353 596.675L502.328 587.286L505.943 584.172Z" fill="#90CA86"/>
<path d="M509.902 576.276L507.267 587.257L502.512 586.243L505.142 575.263L509.902 576.276Z" fill="#90CA86"/>
<path d="M596.113 502.523L605.609 486.236L612.247 489.704L602.756 505.99L596.113 502.523Z" fill="white"/>
<path d="M233.959 788.605C238.102 788.605 241.46 785.258 241.46 781.126C241.46 776.994 238.102 773.652 233.959 773.652C229.815 773.652 226.457 776.999 226.457 781.126C226.457 785.254 229.815 788.605 233.959 788.605Z" fill="#90CA86"/>
<path d="M382.002 588.081C379.799 584.148 376.883 580.656 373.428 577.751C366.703 568.186 359.173 553.243 363.666 538.402C363.675 538.368 363.68 538.339 363.69 538.305C365.519 532.805 366.213 526.869 365.5 520.773C362.758 497.303 340.419 480.43 315.595 483.088C290.775 485.746 272.876 506.926 275.617 530.4C276.631 539.106 280.353 546.9 285.884 553.127C285.884 553.127 285.909 553.156 285.933 553.18C286.108 553.374 286.287 553.564 286.462 553.758C289.873 557.536 307.414 578.26 307.88 605.226C307.88 605.236 307.88 605.245 307.88 605.255C307.865 606.744 307.933 608.247 308.108 609.766C310.495 630.194 329.938 644.875 351.54 642.566C373.142 640.253 388.718 621.818 386.33 601.39C385.772 596.583 384.254 592.102 381.997 588.081H382.002Z" stroke="#DCDDDD" stroke-miterlimit="10"/>
<path d="M344.735 629.472C343.925 629.472 343.1 629.438 342.294 629.37L342.455 627.435C344.002 627.561 345.579 627.561 347.137 627.425L347.302 629.36C346.448 629.433 345.584 629.472 344.735 629.472ZM336.384 628.264C334.788 627.794 333.221 627.183 331.717 626.445L332.571 624.704C333.973 625.393 335.443 625.965 336.933 626.402L336.384 628.264ZM353.202 628.25L352.654 626.387C354.148 625.946 355.619 625.378 357.021 624.69L357.875 626.431C356.376 627.163 354.803 627.774 353.207 628.245L353.202 628.25ZM326.617 623.283C325.297 622.27 324.05 621.14 322.91 619.922L324.327 618.593C325.394 619.733 326.564 620.79 327.801 621.741L326.622 623.278L326.617 623.283ZM362.979 623.273L361.8 621.736C363.033 620.79 364.207 619.733 365.275 618.593L366.691 619.922C365.546 621.14 364.299 622.27 362.979 623.278V623.273ZM370.355 615.174L368.715 614.141C369.549 612.822 370.282 611.425 370.898 609.989L372.684 610.751C372.029 612.279 371.248 613.767 370.36 615.174H370.355ZM319.251 615.174C318.368 613.763 317.592 612.269 316.946 610.731L318.737 609.98C319.343 611.42 320.071 612.822 320.896 614.141L319.251 615.169V615.174ZM374.508 605.042L372.611 604.63C372.946 603.107 373.159 601.541 373.247 599.984L375.183 600.095C375.086 601.759 374.858 603.422 374.504 605.047L374.508 605.042ZM315.161 605.008C314.938 603.961 314.768 602.884 314.656 601.812C314.593 601.235 314.549 600.643 314.52 600.052L316.461 599.955C316.49 600.512 316.534 601.065 316.587 601.604C316.694 602.608 316.854 603.621 317.063 604.606L315.166 605.004L315.161 605.008ZM373.043 594.353C372.839 592.801 372.514 591.259 372.073 589.76L373.936 589.212C374.406 590.803 374.756 592.452 374.969 594.101L373.043 594.353ZM314.287 594.275C314.156 592.709 313.957 591.118 313.691 589.542L315.607 589.222C315.879 590.846 316.088 592.495 316.223 594.11L314.287 594.27V594.275ZM369.986 584.57C369.268 583.178 368.433 581.84 367.507 580.589L369.064 579.434C370.054 580.768 370.942 582.199 371.709 583.678L369.986 584.566V584.57ZM312.482 583.94C312.08 582.422 311.614 580.884 311.095 579.366L312.929 578.736C313.462 580.298 313.943 581.883 314.355 583.445L312.477 583.94H312.482ZM363.591 576.214C362.688 574.817 361.839 573.396 361.073 571.985L362.776 571.053C363.523 572.421 364.343 573.803 365.221 575.156L363.591 576.209V576.214ZM309.018 574.012C308.387 572.567 307.698 571.107 306.965 569.681L308.693 568.793C309.445 570.253 310.148 571.752 310.799 573.236L309.018 574.012ZM358.496 566.654C357.841 565.093 357.278 563.526 356.817 561.998L358.676 561.436C359.117 562.901 359.661 564.404 360.286 565.903L358.496 566.65V566.654ZM304.151 564.666C303.312 563.289 302.428 561.94 301.526 560.655L303.118 559.539C304.039 560.859 304.947 562.241 305.81 563.652L304.151 564.661V564.666ZM355.507 556.188C355.274 554.573 355.158 552.968 355.158 551.411V551.212L357.099 551.227V551.411C357.099 552.876 357.21 554.389 357.429 555.912L355.507 556.188ZM298.008 556.091C296.975 554.796 296.019 553.419 295.174 551.993L296.844 551.003C297.644 552.352 298.542 553.656 299.522 554.879L298.008 556.091ZM292.574 546.614C291.982 545.072 291.487 543.471 291.113 541.851L293.005 541.41C293.365 542.943 293.825 544.456 294.388 545.916L292.578 546.614H292.574ZM357.7 545.639L355.803 545.232C355.924 544.674 356.06 544.116 356.211 543.573C356.211 543.563 356.22 543.52 356.235 543.471C356.531 542.506 356.788 541.517 356.997 540.532L358.894 540.935C358.671 541.973 358.404 543.02 358.088 544.034L358.079 544.092C357.938 544.597 357.812 545.115 357.7 545.634V545.639ZM290.235 535.944C290.181 535.129 290.152 534.31 290.152 533.5C290.152 532.656 290.181 531.802 290.24 530.968L292.176 531.104C292.122 531.894 292.093 532.699 292.093 533.5C292.093 534.266 292.117 535.047 292.171 535.818L290.235 535.949V535.944ZM359.651 535.018L357.71 534.93C357.734 534.416 357.744 533.893 357.744 533.374C357.744 532.326 357.695 531.264 357.598 530.221L359.53 530.047C359.631 531.152 359.68 532.273 359.68 533.378C359.68 533.927 359.665 534.479 359.641 535.023L359.651 535.018ZM293.03 525.517L291.142 525.066C291.526 523.455 292.025 521.86 292.627 520.317L294.437 521.021C293.869 522.48 293.394 523.989 293.03 525.517ZM356.638 524.644C356.245 523.126 355.74 521.622 355.143 520.177L356.938 519.435C357.569 520.962 358.103 522.553 358.515 524.159L356.638 524.644ZM296.916 515.943L295.247 514.948C296.096 513.523 297.047 512.145 298.086 510.855L299.6 512.068C298.619 513.29 297.717 514.59 296.916 515.938V515.943ZM352.557 515.152C351.722 513.823 350.791 512.543 349.781 511.345L351.266 510.094C352.334 511.359 353.324 512.713 354.207 514.119L352.562 515.147L352.557 515.152ZM303.486 507.969L302.196 506.519C303.438 505.413 304.767 504.39 306.145 503.478L307.218 505.098C305.917 505.961 304.661 506.926 303.486 507.969ZM345.783 507.353C344.585 506.344 343.304 505.413 341.974 504.584L342.998 502.935C344.405 503.808 345.759 504.797 347.03 505.864L345.778 507.348L345.783 507.353ZM312.177 502.401L311.4 500.621C312.924 499.957 314.511 499.404 316.112 498.972L316.616 500.845C315.107 501.252 313.608 501.776 312.172 502.401H312.177ZM336.942 502.033C335.487 501.446 333.983 500.966 332.464 500.602L332.915 498.715C334.526 499.103 336.122 499.613 337.665 500.229L336.942 502.028V502.033ZM322.177 499.855L322.002 497.925C323.017 497.833 324.04 497.789 325.054 497.789C325.695 497.789 326.35 497.808 326.99 497.842L326.879 499.778C326.272 499.744 325.661 499.724 325.054 499.724C324.099 499.724 323.133 499.768 322.177 499.855Z" fill="white"/>
<path d="M293.278 635.097C290.478 629.418 290.221 628.041 284.107 627.376C277.993 626.712 275.305 620.407 274.679 618.277C274.058 616.148 272.971 610.023 272.971 610.023L269.458 603.805C269.458 603.805 269.157 587.751 259.336 582.387C249.51 577.018 238.69 565.524 238.69 565.524C238.69 565.524 229.48 551.915 220.339 556.323C211.192 560.727 191.924 569.908 191.924 569.908C191.924 569.908 180.114 577.741 185.679 588.77L191.492 600.274L249.273 710.83L278.134 793.179L295.713 790.07C295.713 790.07 302.613 787.136 302.526 780.816C302.434 774.496 277.915 673.665 277.915 673.665L283.146 668.359L282.049 659.774C282.049 659.774 282.282 653.421 287.183 649.468C292.084 645.515 296.082 640.781 293.282 635.102M249.268 710.821L191.487 600.264L198.077 612.874L183.763 625.509L167.488 633.759L167.556 634.443L198.761 713.837L188.882 728.61V748.554L214.269 835.587L224.9 834.855C224.9 834.855 242.562 832.178 265.455 824.195C288.348 816.211 278.129 793.174 278.129 793.174L249.268 710.825V710.821Z" stroke="#90CA86" stroke-miterlimit="10"/>
<path d="M86.7246 618.301C86.7109 619.928 87.7363 621.473 89.6777 622.102L88.8848 623.305C87.5107 622.84 86.54 621.91 86 620.721C85.4463 622.033 84.4277 623.059 82.9922 623.564L82.1445 622.361C84.1816 621.705 85.1934 620.037 85.1934 618.287V616.879H86.7246V618.301ZM92.043 616.113V619.764H93.7656V621.049H92.043V625.191H90.5254V616.113H92.043ZM92.5352 626.996V628.227H84.127V624.303H85.6855V626.996H92.5352Z" fill="#1A1A1A"/>
<path d="M101.736 617.303V618.506H94.4082V617.303H97.3203V616.059H98.8379V617.303H101.736ZM98.0723 618.984C99.8633 618.984 101.08 619.887 101.094 621.24C101.08 622.594 99.8633 623.496 98.0723 623.496C96.2812 623.496 95.0371 622.594 95.0371 621.24C95.0371 619.887 96.2812 618.984 98.0723 618.984ZM98.0723 620.133C97.1289 620.133 96.5137 620.543 96.5137 621.24C96.5137 621.938 97.1289 622.334 98.0723 622.32C99.0156 622.334 99.6445 621.938 99.6445 621.24C99.6445 620.543 99.0156 620.133 98.0723 620.133ZM104.143 616.113V619.395H105.865V620.639H104.143V623.852H102.625V616.113H104.143ZM104.143 624.426V628.473H102.625V625.643H95.9121V624.426H104.143Z" fill="#1A1A1A"/>
<path d="M113.426 617.248V618.451H106.521V617.248H109.283V616.018H110.801V617.248H113.426ZM110.021 618.889C111.703 618.889 112.906 619.805 112.92 621.131C112.906 622.471 111.703 623.359 110.021 623.359C108.34 623.359 107.15 622.471 107.164 621.131C107.15 619.805 108.34 618.889 110.021 618.889ZM110.021 620.037C109.146 620.037 108.572 620.447 108.586 621.131C108.572 621.814 109.146 622.252 110.021 622.252C110.896 622.252 111.498 621.814 111.498 621.131C111.498 620.447 110.896 620.037 110.021 620.037ZM116.844 616.113V623.455H115.326V622.484H113.494V621.268H115.326V620.064H113.508V618.834H115.326V616.113H116.844ZM110.131 623.934V624.973H115.34V623.934H116.844V628.322H108.613V623.934H110.131ZM110.131 627.133H115.34V626.121H110.131V627.133Z" fill="#1A1A1A"/>
<path d="M124.5 616.852V620.57H120.604V622.088C122.586 622.095 123.728 622.033 125.033 621.787L125.184 623.018C123.707 623.264 122.422 623.305 120.002 623.305H119.1V619.436H122.982V618.055H119.072V616.852H124.5ZM128.943 616.127V623.729H127.426V621.691H125.238V620.475H127.426V619.094H125.238V617.877H127.426V616.127H128.943ZM128.943 624.316V628.473H127.426V625.533H120.494V624.316H128.943Z" fill="#1A1A1A"/>
<path d="M140.441 616.113V619.586H142.178V620.844H140.441V625.055H138.924V616.113H140.441ZM136.75 617.139V618.355H132.717V621.719C135.041 621.726 136.333 621.644 137.803 621.336L137.967 622.566C136.354 622.881 134.904 622.963 132.211 622.963H131.213V617.139H136.75ZM140.934 626.996V628.227H132.525V624.111H134.043V626.996H140.934Z" fill="#1A1A1A"/>
<path d="M147.455 619.627C147.455 621.65 148.645 623.783 150.641 624.617L149.807 625.82C148.344 625.191 147.277 623.893 146.717 622.32C146.143 624.016 145.062 625.438 143.613 626.121L142.738 624.932C144.693 624.029 145.91 621.732 145.91 619.627V618.588H143.189V617.33H150.162V618.588H147.455V619.627ZM153.074 616.113V628.473H151.543V616.113H153.074Z" fill="#1A1A1A"/>
<path d="M243.645 800.177V809.2H242.127V804.675H239.939V803.444H242.127V800.177H243.645ZM243.959 811.046V812.276H235.537V808.407H237.055V811.046H243.959ZM237.834 802.638C237.834 804.128 238.832 805.659 240.746 806.288L239.98 807.505C238.6 807.033 237.622 806.097 237.082 804.921C236.535 806.227 235.503 807.259 234.047 807.765L233.268 806.534C235.236 805.892 236.289 804.265 236.289 802.624V802.296H233.719V801.065H240.391V802.296H237.834V802.638Z" fill="#1A1A1A"/>
<path d="M252.449 801.366V802.61H251.26V808.175C251.82 808.127 252.374 808.079 252.9 808.011L252.969 809.104C250.412 809.542 247.555 809.597 245.408 809.597L245.23 808.353C245.695 808.353 246.194 808.346 246.721 808.339V802.61H245.545V801.366H252.449ZM255.074 800.163V804.948H256.975V806.192H255.074V812.522H253.557V800.163H255.074ZM248.197 808.312C248.724 808.305 249.257 808.284 249.797 808.257V802.61H248.197V808.312Z" fill="#1A1A1A"/>
<path d="M261.938 803.089C261.938 804.565 262.963 805.987 264.918 806.589L264.18 807.778C262.778 807.354 261.767 806.459 261.199 805.317C260.652 806.548 259.634 807.519 258.191 807.983L257.453 806.794C259.395 806.179 260.42 804.675 260.42 803.089V802.897H257.836V801.694H260.42V800.245H261.951V801.694H264.521V802.897H261.938V803.089ZM267.844 800.177V809.351H266.326V805.071H264.111V803.854H266.326V800.177H267.844ZM268.158 811.046V812.276H259.736V808.558H261.254V811.046H268.158Z" fill="#1A1A1A"/>
<path d="M280.873 806.343V807.56H276.102V809.829H274.598V807.56H269.58V806.343H280.873ZM279.424 800.724V805.194H271.016V800.724H279.424ZM272.492 801.913V804.005H277.92V801.913H272.492ZM279.629 811.046V812.276H270.947V808.694H272.465V811.046H279.629Z" fill="#1A1A1A"/>
<path d="M292.33 800.163V812.522H290.881V806.22H289.486V811.894H288.092V800.396H289.486V805.003H290.881V800.163H292.33ZM286.697 801.626V802.856H283.607V808.353C284.954 808.339 286.062 808.271 287.312 808.038L287.422 809.282C285.932 809.583 284.633 809.624 282.91 809.638H282.076V801.626H286.697Z" fill="#1A1A1A"/>
<path d="M239.725 593.295C239.711 594.922 240.736 596.467 242.678 597.096L241.885 598.299C240.511 597.834 239.54 596.904 239 595.715C238.446 597.027 237.428 598.053 235.992 598.559L235.145 597.355C237.182 596.699 238.193 595.031 238.193 593.281V591.873H239.725V593.295ZM245.043 591.107V594.758H246.766V596.043H245.043V600.186H243.525V591.107H245.043ZM245.535 601.99V603.221H237.127V599.297H238.686V601.99H245.535Z" fill="#1A1A1A"/>
<path d="M254.736 592.297V593.5H247.408V592.297H250.32V591.053H251.838V592.297H254.736ZM251.072 593.979C252.863 593.979 254.08 594.881 254.094 596.234C254.08 597.588 252.863 598.49 251.072 598.49C249.281 598.49 248.037 597.588 248.037 596.234C248.037 594.881 249.281 593.979 251.072 593.979ZM251.072 595.127C250.129 595.127 249.514 595.537 249.514 596.234C249.514 596.932 250.129 597.328 251.072 597.314C252.016 597.328 252.645 596.932 252.645 596.234C252.645 595.537 252.016 595.127 251.072 595.127ZM257.143 591.107V594.389H258.865V595.633H257.143V598.846H255.625V591.107H257.143ZM257.143 599.42V603.467H255.625V600.637H248.912V599.42H257.143Z" fill="#1A1A1A"/>
<path d="M266.426 592.242V593.445H259.521V592.242H262.283V591.012H263.801V592.242H266.426ZM263.021 593.883C264.703 593.883 265.906 594.799 265.92 596.125C265.906 597.465 264.703 598.354 263.021 598.354C261.34 598.354 260.15 597.465 260.164 596.125C260.15 594.799 261.34 593.883 263.021 593.883ZM263.021 595.031C262.146 595.031 261.572 595.441 261.586 596.125C261.572 596.809 262.146 597.246 263.021 597.246C263.896 597.246 264.498 596.809 264.498 596.125C264.498 595.441 263.896 595.031 263.021 595.031ZM269.844 591.107V598.449H268.326V597.479H266.494V596.262H268.326V595.059H266.508V593.828H268.326V591.107H269.844ZM263.131 598.928V599.967H268.34V598.928H269.844V603.316H261.613V598.928H263.131ZM263.131 602.127H268.34V601.115H263.131V602.127Z" fill="#1A1A1A"/>
<path d="M277.5 591.846V595.564H273.604V597.082C275.586 597.089 276.728 597.027 278.033 596.781L278.184 598.012C276.707 598.258 275.422 598.299 273.002 598.299H272.1V594.43H275.982V593.049H272.072V591.846H277.5ZM281.943 591.121V598.723H280.426V596.686H278.238V595.469H280.426V594.088H278.238V592.871H280.426V591.121H281.943ZM281.943 599.311V603.467H280.426V600.527H273.494V599.311H281.943Z" fill="#1A1A1A"/>
<path d="M294.973 597.027V598.244H283.693V597.027H288.588V595.852H285.074V591.668H293.605V592.857H286.592V594.648H293.674V595.852H290.078V597.027H294.973ZM289.312 598.955C291.979 598.955 293.578 599.762 293.592 601.211C293.578 602.646 291.979 603.467 289.312 603.467C286.619 603.467 285.006 602.646 285.006 601.211C285.006 599.762 286.619 598.955 289.312 598.955ZM289.312 600.117C287.508 600.117 286.537 600.5 286.551 601.211C286.537 601.922 287.508 602.291 289.312 602.291C291.076 602.291 292.061 601.922 292.074 601.211C292.061 600.5 291.076 600.117 289.312 600.117Z" fill="#1A1A1A"/>
<path d="M451.67 642.089C451.67 643.647 452.682 645.11 454.582 645.712L453.762 646.901C452.429 646.45 451.472 645.548 450.945 644.399C450.398 645.712 449.4 646.744 447.979 647.243L447.158 646.054C449.154 645.356 450.139 643.716 450.152 641.952V640.776H451.67V642.089ZM457.043 640.12V643.128H458.766V644.386H457.043V647.517H455.525V640.12H457.043ZM453.023 647.79C455.58 647.776 457.152 648.651 457.166 650.114C457.152 651.604 455.58 652.466 453.023 652.466C450.439 652.466 448.84 651.604 448.84 650.114C448.84 648.651 450.439 647.776 453.023 647.79ZM453.023 648.979C451.328 648.979 450.357 649.39 450.357 650.114C450.357 650.88 451.328 651.263 453.023 651.263C454.719 651.263 455.662 650.88 455.662 650.114C455.662 649.39 454.719 648.979 453.023 648.979Z" fill="#1A1A1A"/>
<path d="M470.674 646.806V648.036H459.381V646.806H464.275V645.78H460.816V642.499H467.762V641.583H460.775V640.394H469.279V643.606H462.32V644.591H469.525V645.78H465.779V646.806H470.674ZM469.348 648.815V652.397H467.816V650.019H460.639V648.815H469.348Z" fill="#1A1A1A"/>
<path d="M478.836 641.31V642.513H471.508V641.31H474.42V640.065H475.938V641.31H478.836ZM475.172 642.991C476.963 642.991 478.18 643.894 478.193 645.247C478.18 646.601 476.963 647.503 475.172 647.503C473.381 647.503 472.137 646.601 472.137 645.247C472.137 643.894 473.381 642.991 475.172 642.991ZM475.172 644.14C474.229 644.14 473.613 644.55 473.613 645.247C473.613 645.944 474.229 646.341 475.172 646.327C476.115 646.341 476.744 645.944 476.744 645.247C476.744 644.55 476.115 644.14 475.172 644.14ZM481.242 640.12V643.401H482.965V644.646H481.242V647.858H479.725V640.12H481.242ZM481.242 648.433V652.479H479.725V649.649H473.012V648.433H481.242Z" fill="#1A1A1A"/>
<path d="M487.449 642.417C487.449 643.757 488.229 645.097 489.855 645.712L489.049 646.874C487.948 646.45 487.183 645.664 486.738 644.7C486.287 645.808 485.48 646.751 484.305 647.243L483.484 646.081C485.18 645.329 485.973 643.784 485.986 642.417V640.886H487.449V642.417ZM494.162 640.134V647.708H492.713V644.495H491.482V647.325H490.061V640.366H491.482V643.251H492.713V640.134H494.162ZM489.992 647.913C492.576 647.913 494.217 648.761 494.23 650.183C494.217 651.604 492.576 652.466 489.992 652.466C487.381 652.466 485.754 651.604 485.754 650.183C485.754 648.761 487.381 647.913 489.992 647.913ZM489.992 649.062C488.283 649.062 487.271 649.458 487.271 650.183C487.271 650.921 488.283 651.304 489.992 651.304C491.688 651.304 492.699 650.921 492.699 650.183C492.699 649.458 491.688 649.062 489.992 649.062Z" fill="#1A1A1A"/>
<path d="M499.549 642.417C499.549 643.757 500.328 645.097 501.955 645.712L501.148 646.874C500.048 646.45 499.282 645.664 498.838 644.7C498.387 645.808 497.58 646.751 496.404 647.243L495.584 646.081C497.279 645.329 498.072 643.784 498.086 642.417V640.886H499.549V642.417ZM506.262 640.134V647.708H504.812V644.495H503.582V647.325H502.16V640.366H503.582V643.251H504.812V640.134H506.262ZM502.092 647.913C504.676 647.913 506.316 648.761 506.33 650.183C506.316 651.604 504.676 652.466 502.092 652.466C499.48 652.466 497.854 651.604 497.854 650.183C497.854 648.761 499.48 647.913 502.092 647.913ZM502.092 649.062C500.383 649.062 499.371 649.458 499.371 650.183C499.371 650.921 500.383 651.304 502.092 651.304C503.787 651.304 504.799 650.921 504.799 650.183C504.799 649.458 503.787 649.062 502.092 649.062Z" fill="#1A1A1A"/>
<path d="M517.582 640.12V643.128H519.25V644.399H517.582V647.394H516.064V640.12H517.582ZM517.582 647.886V650.552H510.869V651.345H518.02V652.37H509.352V649.608H516.064V648.911H509.324V647.886H517.582ZM507.684 646.149C508.613 646.149 509.68 646.149 510.801 646.108V645.493C509.413 645.356 508.559 644.796 508.559 643.88C508.559 642.882 509.721 642.294 511.539 642.294C513.357 642.294 514.52 642.882 514.52 643.88C514.52 644.782 513.686 645.343 512.318 645.493V646.054C513.371 646.013 514.431 645.924 515.422 645.794L515.545 646.751C512.906 647.202 510.008 647.216 507.848 647.216L507.684 646.149ZM515.094 640.954V641.993H507.998V640.954H510.801V640.024H512.318V640.954H515.094ZM511.539 643.251C510.582 643.265 510.008 643.47 510.021 643.88C510.008 644.317 510.582 644.563 511.539 644.563C512.496 644.563 513.07 644.317 513.07 643.88C513.07 643.47 512.496 643.265 511.539 643.251Z" fill="#1A1A1A"/>
<path d="M526.797 641.036V641.774C526.783 642.622 526.783 643.839 526.496 645.411L524.992 645.274C525.231 643.996 525.279 643.053 525.307 642.294H520.494V641.036H526.797ZM523.68 643.853V646.313C524.958 646.266 526.271 646.17 527.467 645.999L527.549 647.093C524.979 647.558 522.066 647.599 519.893 647.612L519.756 646.396C520.487 646.389 521.308 646.382 522.176 646.368V643.853H523.68ZM529.75 640.12V643.976H531.35V645.247H529.75V649.376H528.191V640.12H529.75ZM530.146 651.003V652.233H521.602V648.556H523.133V651.003H530.146Z" fill="#1A1A1A"/>
<path d="M684.863 557.098V564.863H683.414V561.5H682.211V564.453H680.789V557.344H682.211V560.27H683.414V557.098H684.863ZM680.379 558.438V559.627H674.227V558.438H676.564V557.207H678.068V558.438H680.379ZM677.316 560.133C678.889 560.133 679.996 560.98 680.01 562.266C679.996 563.551 678.889 564.398 677.316 564.398C675.771 564.398 674.65 563.551 674.664 562.266C674.65 560.98 675.771 560.133 677.316 560.133ZM677.316 561.227C676.551 561.227 676.018 561.623 676.018 562.266C676.018 562.908 676.537 563.305 677.316 563.305C678.096 563.305 678.629 562.908 678.629 562.266C678.629 561.623 678.096 561.227 677.316 561.227ZM680.693 565.014C683.332 565.014 684.918 565.82 684.932 567.242C684.918 568.637 683.332 569.443 680.693 569.443C678.055 569.443 676.455 568.637 676.455 567.242C676.455 565.82 678.055 565.014 680.693 565.014ZM680.693 566.176C678.93 566.162 677.973 566.518 677.973 567.242C677.973 567.926 678.93 568.281 680.693 568.281C682.443 568.281 683.4 567.926 683.4 567.242C683.4 566.518 682.443 566.162 680.693 566.176Z" fill="#1A1A1A"/>
<path d="M696.744 557.098V564.439H695.227V561.418H693.121V560.174H695.227V557.098H696.744ZM692.561 564.754C695.186 564.754 696.785 565.615 696.785 567.105C696.785 568.596 695.186 569.457 692.561 569.457C689.949 569.457 688.35 568.596 688.363 567.105C688.35 565.615 689.949 564.754 692.561 564.754ZM692.561 565.916C690.838 565.916 689.867 566.326 689.867 567.105C689.867 567.871 690.838 568.281 692.561 568.281C694.283 568.281 695.268 567.871 695.268 567.105C695.268 566.326 694.283 565.916 692.561 565.916ZM690.934 559.217C690.934 560.721 691.932 562.238 693.846 562.881L693.08 564.084C691.706 563.619 690.729 562.676 690.195 561.514C689.648 562.833 688.616 563.886 687.146 564.412L686.354 563.209C688.336 562.525 689.389 560.857 689.389 559.23V559.135H686.818V557.904H693.49V559.135H690.934V559.217Z" fill="#1A1A1A"/>
<path d="M703.17 560.064C703.156 562.334 704.346 564.604 706.355 565.465L705.453 566.682C704.031 566.025 702.985 564.713 702.418 563.1C701.851 564.843 700.791 566.265 699.287 566.969L698.357 565.697C700.422 564.809 701.625 562.443 701.625 560.064V558.096H703.17V560.064ZM708.775 557.098V569.471H707.244V557.098H708.775Z" fill="#1A1A1A"/>
<path d="M720.943 557.098V563.428H719.426V560.297H716.965V559.08H719.426V557.098H720.943ZM720.943 563.961V567.16H714.312V568.104H721.34V569.307H712.822V566.025H719.439V565.15H712.809V563.961H720.943ZM715.078 558.492C715.078 560.01 716.076 561.459 717.99 562.047L717.184 563.223C715.844 562.771 714.873 561.903 714.34 560.775C713.793 562.04 712.781 563.018 711.318 563.496L710.525 562.279C712.508 561.678 713.547 560.16 713.547 558.492V557.508H715.078V558.492Z" fill="#1A1A1A"/>
<path d="M728.791 556.947V569.635H727.164V556.947H728.791Z" fill="#1A1A1A"/>
<path d="M744.213 558.232V559.49C744.213 561.021 744.213 562.689 743.762 565.109L742.271 564.959C742.695 562.676 742.695 560.98 742.695 559.49V559.449H735.217V558.232H744.213ZM745.348 566.613V567.857H734.082V566.613H736.611V562.676H738.129V566.613H739.701V562.676H741.191V566.613H745.348Z" fill="#1A1A1A"/>
<path d="M757.447 562.936V564.152H754.631V565.438H756.066V569.457H754.549V566.627H747.426V565.438H748.957V564.152H746.182V562.936H757.447ZM751.801 557.357C754.508 557.357 756.244 558.273 756.258 559.764C756.244 561.268 754.508 562.184 751.801 562.184C749.094 562.184 747.344 561.268 747.344 559.764C747.344 558.273 749.094 557.357 751.801 557.357ZM751.801 558.547C749.996 558.547 748.916 558.984 748.93 559.764C748.916 560.57 749.996 561.008 751.801 561.008C753.605 561.008 754.686 560.57 754.686 559.764C754.686 558.984 753.605 558.547 751.801 558.547ZM750.475 565.438H753.127V564.152H750.475V565.438Z" fill="#1A1A1A"/>
<path d="M762.957 560.064C762.943 562.334 764.133 564.604 766.143 565.465L765.24 566.682C763.818 566.025 762.772 564.713 762.205 563.1C761.638 564.843 760.578 566.265 759.074 566.969L758.145 565.697C760.209 564.809 761.412 562.443 761.412 560.064V558.096H762.957V560.064ZM768.562 557.098V569.471H767.031V557.098H768.562Z" fill="#1A1A1A"/>
<path d="M780.73 557.098V563.428H779.213V560.297H776.752V559.08H779.213V557.098H780.73ZM780.73 563.961V567.16H774.1V568.104H781.127V569.307H772.609V566.025H779.227V565.15H772.596V563.961H780.73ZM774.865 558.492C774.865 560.01 775.863 561.459 777.777 562.047L776.971 563.223C775.631 562.771 774.66 561.903 774.127 560.775C773.58 562.04 772.568 563.018 771.105 563.496L770.312 562.279C772.295 561.678 773.334 560.16 773.334 558.492V557.508H774.865V558.492Z" fill="#1A1A1A"/>
<path d="M768.645 509.099V518.163H767.127V515.101H764.188C763.593 515.764 762.718 516.167 761.727 516.167C759.867 516.167 758.459 514.827 758.459 513.009C758.459 511.163 759.867 509.837 761.727 509.837C762.711 509.837 763.579 510.233 764.174 510.89H767.127V509.099H768.645ZM768.959 519.968V521.198H760.537V517.233H762.055V519.968H768.959ZM761.727 511.19C760.66 511.19 759.908 511.901 759.908 513.009C759.908 514.103 760.66 514.813 761.727 514.813C762.738 514.813 763.504 514.103 763.518 513.009C763.504 511.901 762.738 511.19 761.727 511.19ZM764.844 512.12C764.919 512.4 764.967 512.694 764.967 513.009C764.967 513.31 764.926 513.597 764.857 513.87H767.127V512.12H764.844Z" fill="#1A1A1A"/>
<path d="M780.279 509.837V510.944C780.279 512.1 780.279 513.364 779.951 515.114H781.66V516.345H776.752V521.458H775.221V516.345H770.395V515.114H778.406C778.748 513.433 778.762 512.175 778.762 511.067H771.721V509.837H780.279Z" fill="#1A1A1A"/>
<path d="M787.17 512.052C787.156 514.321 788.346 516.591 790.355 517.452L789.453 518.669C788.031 518.013 786.985 516.7 786.418 515.087C785.851 516.83 784.791 518.252 783.287 518.956L782.357 517.685C784.422 516.796 785.625 514.431 785.625 512.052V510.083H787.17V512.052ZM792.775 509.085V521.458H791.244V509.085H792.775Z" fill="#1A1A1A"/>
<path d="M804.943 509.085V515.415H803.426V512.284H800.965V511.067H803.426V509.085H804.943ZM804.943 515.948V519.147H798.312V520.091H805.34V521.294H796.822V518.013H803.439V517.138H796.809V515.948H804.943ZM799.078 510.479C799.078 511.997 800.076 513.446 801.99 514.034L801.184 515.21C799.844 514.759 798.873 513.891 798.34 512.763C797.793 514.027 796.781 515.005 795.318 515.483L794.525 514.267C796.508 513.665 797.547 512.147 797.547 510.479V509.495H799.078V510.479Z" fill="#1A1A1A"/>
<path d="M812.791 508.935V521.622H811.164V508.935H812.791Z" fill="#1A1A1A"/>
<path d="M822.525 511.724C822.525 513.077 823.578 514.417 825.52 514.937L824.809 516.112C823.38 515.723 822.354 514.889 821.787 513.815C821.254 515.032 820.222 515.989 818.752 516.427L818.041 515.251C819.969 514.663 821.008 513.214 821.008 511.724V511.655H818.424V510.452H821.008V509.03H822.539V510.452H825.109V511.655H822.525V511.724ZM828.432 509.085V516.563H826.914V513.706H824.74V512.476H826.914V509.085H828.432ZM824.248 516.81C826.859 516.81 828.473 517.644 828.473 519.106C828.473 520.583 826.859 521.431 824.248 521.431C821.65 521.431 820.037 520.583 820.051 519.106C820.037 517.644 821.65 516.81 824.248 516.81ZM824.248 517.972C822.525 517.985 821.555 518.368 821.555 519.106C821.555 519.845 822.525 520.255 824.248 520.255C825.998 520.255 826.955 519.845 826.955 519.106C826.955 518.368 825.998 517.985 824.248 517.972Z" fill="#1A1A1A"/>
<path d="M840.531 509.085V516.427H839.014V513.405H836.908V512.161H839.014V509.085H840.531ZM836.348 516.741C838.973 516.741 840.572 517.603 840.572 519.093C840.572 520.583 838.973 521.444 836.348 521.444C833.736 521.444 832.137 520.583 832.15 519.093C832.137 517.603 833.736 516.741 836.348 516.741ZM836.348 517.903C834.625 517.903 833.654 518.313 833.654 519.093C833.654 519.858 834.625 520.269 836.348 520.269C838.07 520.269 839.055 519.858 839.055 519.093C839.055 518.313 838.07 517.903 836.348 517.903ZM834.721 511.204C834.721 512.708 835.719 514.226 837.633 514.868L836.867 516.071C835.493 515.606 834.516 514.663 833.982 513.501C833.436 514.82 832.403 515.873 830.934 516.399L830.141 515.196C832.123 514.513 833.176 512.845 833.176 511.218V511.122H830.605V509.892H837.277V511.122H834.721V511.204Z" fill="#1A1A1A"/>
<path d="M852.549 509.085V515.388H851.045V509.085H852.549ZM852.576 515.962V519.175H845.891V520.132H852.945V521.335H844.4V518.04H851.059V517.138H844.373V515.962H852.576ZM846.889 510.343C846.889 511.915 847.928 513.392 849.883 513.979L849.145 515.155C847.709 514.718 846.684 513.795 846.123 512.612C845.562 513.897 844.51 514.902 843.033 515.374L842.268 514.185C844.264 513.542 845.316 511.956 845.316 510.343V509.386H846.889V510.343Z" fill="#1A1A1A"/>
<path d="M864.73 509.085V516.563H863.213V514.007H861.449V512.749H863.213V509.085H864.73ZM864.73 517.124V521.294H856.514V517.124H864.73ZM858.031 518.327V520.063H863.24V518.327H858.031ZM861.654 510.233V511.464H854.408V510.233H857.279V508.989H858.783V510.233H861.654ZM858.031 511.942C859.754 511.942 860.957 512.858 860.971 514.157C860.957 515.497 859.754 516.372 858.031 516.372C856.322 516.372 855.105 515.497 855.105 514.157C855.105 512.858 856.322 511.942 858.031 511.942ZM858.031 513.091C857.143 513.091 856.555 513.501 856.555 514.157C856.555 514.841 857.143 515.237 858.031 515.237C858.92 515.237 859.508 514.841 859.508 514.157C859.508 513.501 858.92 513.091 858.031 513.091Z" fill="#1A1A1A"/>
<path d="M877.76 515.005V516.222H866.48V515.005H871.375V513.829H867.861V509.646H876.393V510.835H869.379V512.626H876.461V513.829H872.865V515.005H877.76ZM872.1 516.933C874.766 516.933 876.365 517.739 876.379 519.188C876.365 520.624 874.766 521.444 872.1 521.444C869.406 521.444 867.793 520.624 867.793 519.188C867.793 517.739 869.406 516.933 872.1 516.933ZM872.1 518.095C870.295 518.095 869.324 518.478 869.338 519.188C869.324 519.899 870.295 520.269 872.1 520.269C873.863 520.269 874.848 519.899 874.861 519.188C874.848 518.478 873.863 518.095 872.1 518.095Z" fill="#1A1A1A"/>
<path d="M889.846 514.103V515.306H884.951V516.235H888.438V519.271H881.41V520.173H888.779V521.335H879.92V518.177H886.947V517.384H879.906V516.235H883.434V515.306H878.58V514.103H889.846ZM888.396 509.468V513.323H880.002V509.468H888.396ZM881.492 510.657V512.134H886.879V510.657H881.492Z" fill="#1A1A1A"/>
<path d="M901.248 509.085V518.341H899.799V509.085H901.248ZM898.773 509.304V517.972H897.324V513.269H895.67V512.024H897.324V509.304H898.773ZM901.59 519.968V521.198H892.977V517.233H894.494V519.968H901.59ZM894.494 511.614C894.494 513.05 895.205 514.499 896.777 515.196L895.93 516.372C894.891 515.894 894.18 515.06 893.77 514.048C893.332 515.183 892.56 516.14 891.432 516.673L890.598 515.524C892.238 514.731 893.018 513.077 893.018 511.614V509.933H894.494V511.614Z" fill="#1A1A1A"/>
<path d="M913.143 509.085V521.458H911.639V514.786H909.314V513.556H911.639V509.085H913.143ZM909.123 510.151V511.396H904.871V513.61H908.631V514.813H904.871V517.356C906.751 517.35 908.159 517.288 909.752 517.028L909.902 518.259C908.098 518.532 906.525 518.601 904.311 518.614H903.34V510.151H909.123Z" fill="#1A1A1A"/>
<path d="M425.15 288.322C425.15 289.662 425.93 291.002 427.557 291.617L426.75 292.779C425.649 292.355 424.884 291.569 424.439 290.605C423.988 291.713 423.182 292.656 422.006 293.148L421.186 291.986C422.881 291.234 423.674 289.689 423.688 288.322V286.791H425.15V288.322ZM431.863 286.039V293.613H430.414V290.4H429.184V293.23H427.762V286.271H429.184V289.156H430.414V286.039H431.863ZM427.693 293.818C430.277 293.818 431.918 294.666 431.932 296.088C431.918 297.51 430.277 298.371 427.693 298.371C425.082 298.371 423.455 297.51 423.455 296.088C423.455 294.666 425.082 293.818 427.693 293.818ZM427.693 294.967C425.984 294.967 424.973 295.363 424.973 296.088C424.973 296.826 425.984 297.209 427.693 297.209C429.389 297.209 430.4 296.826 430.4 296.088C430.4 295.363 429.389 294.967 427.693 294.967Z" fill="#1A1A1A"/>
<path d="M438.822 287.365V288.582H435.295V290.605H438.604V291.795H435.295V294.201C436.819 294.188 437.879 294.133 439.137 293.941L439.26 295.186C437.824 295.432 436.607 295.473 434.68 295.473H433.846V287.365H438.822ZM444.059 286.025V298.385H442.596V292.109H441.324V297.783H439.889V286.244H441.324V290.879H442.596V286.025H444.059Z" fill="#1A1A1A"/>
<path d="M455.283 286.025V290.168H456.951V291.426H455.283V295.678H453.766V286.025H455.283ZM455.721 296.908V298.139H447.162V295.035H448.68V296.908H455.721ZM445.385 293.203C446.308 293.203 447.381 293.196 448.502 293.148V292.369C447.128 292.205 446.26 291.528 446.26 290.537C446.26 289.32 447.449 288.609 449.24 288.623C451.045 288.609 452.221 289.32 452.221 290.537C452.221 291.521 451.373 292.191 450.02 292.369V293.08C451.072 293.025 452.132 292.93 453.123 292.779L453.246 293.846C450.635 294.338 447.682 294.365 445.549 294.393L445.385 293.203ZM452.795 287.105V288.213H445.699V287.105H448.502V285.984H450.02V287.105H452.795ZM449.24 289.648C448.283 289.648 447.709 289.963 447.723 290.537C447.709 291.07 448.283 291.385 449.24 291.385C450.197 291.385 450.771 291.07 450.771 290.537C450.771 289.963 450.197 289.648 449.24 289.648Z" fill="#1A1A1A"/>
<path d="M467.943 286.039V293.258H466.426V291.891H463.486V290.66H466.426V289.334H463.609C462.823 291.303 461.025 292.677 458.332 293.422L457.717 292.219C460.608 291.433 462.146 289.97 462.393 288.131H458.373V286.9H464.047C464.047 287.331 464.013 287.741 463.938 288.131H466.426V286.039H467.943ZM463.855 293.395C466.357 293.395 468.025 294.338 468.025 295.855C468.025 297.373 466.357 298.316 463.855 298.316C461.326 298.316 459.658 297.373 459.658 295.855C459.658 294.338 461.326 293.395 463.855 293.395ZM463.855 294.584C462.188 294.584 461.176 295.035 461.176 295.855C461.176 296.662 462.188 297.113 463.855 297.113C465.482 297.113 466.508 296.662 466.508 295.855C466.508 295.035 465.482 294.584 463.855 294.584Z" fill="#1A1A1A"/>
<path d="M476.598 286.941V287.68C476.584 288.527 476.584 289.744 476.297 291.316L474.793 291.18C475.032 289.901 475.08 288.958 475.107 288.199H470.295V286.941H476.598ZM473.48 289.758V292.219C474.759 292.171 476.071 292.075 477.268 291.904L477.35 292.998C474.779 293.463 471.867 293.504 469.693 293.518L469.557 292.301C470.288 292.294 471.108 292.287 471.977 292.273V289.758H473.48ZM479.551 286.025V289.881H481.15V291.152H479.551V295.281H477.992V286.025H479.551ZM479.947 296.908V298.139H471.402V294.461H472.934V296.908H479.947Z" fill="#1A1A1A"/>
<path d="M486.236 288.391C486.236 289.58 487.275 290.715 489.189 291.125L488.547 292.273C487.098 291.952 486.059 291.214 485.498 290.236C484.944 291.323 483.871 292.15 482.367 292.52L481.711 291.344C483.652 290.879 484.719 289.689 484.719 288.391V288.377H482.135V287.174H484.719V285.984H486.25V287.174H488.82V288.377H486.236V288.391ZM491.541 286.025V288.609H493.264V289.854H491.541V292.479H490.023V286.025H491.541ZM491.541 293.025V296.17H484.979V297.1H491.924V298.275H483.475V295.062H490.023V294.188H483.461V293.025H491.541Z" fill="#1A1A1A"/>
<path d="M505.186 295.691V296.949H493.893V295.691H498.76V293.682H495.232V289.635H502.342V288.104H495.205V286.873H503.846V290.838H496.75V292.438H504.133V293.682H500.264V295.691H505.186Z" fill="#1A1A1A"/>
<path d="M678.574 327.993V329.251H673.652V333.394H672.148V329.251H667.281V327.993H678.574ZM672.9 321.472C675.525 321.485 677.357 322.552 677.357 324.247C677.357 325.929 675.525 326.981 672.9 326.981C670.262 326.981 668.457 325.929 668.471 324.247C668.457 322.552 670.262 321.485 672.9 321.472ZM672.9 322.702C671.15 322.702 670.016 323.276 670.029 324.247C670.016 325.204 671.15 325.778 672.9 325.778C674.65 325.778 675.785 325.204 675.785 324.247C675.785 323.276 674.65 322.702 672.9 322.702Z" fill="#1A1A1A"/>
<path d="M683.811 324.001C683.797 326.202 684.904 328.444 686.818 329.36L685.889 330.577C684.549 329.9 683.585 328.595 683.059 327.022C682.519 328.704 681.507 330.099 680.092 330.81L679.162 329.593C681.145 328.649 682.279 326.284 682.293 324.001V322.032H683.811V324.001ZM689.074 321.034V325.874H690.975V327.173H689.074V333.394H687.557V321.034H689.074Z" fill="#1A1A1A"/>
<path d="M696.17 324.001C696.156 326.271 697.346 328.54 699.355 329.401L698.453 330.618C697.031 329.962 695.985 328.649 695.418 327.036C694.851 328.779 693.791 330.201 692.287 330.905L691.357 329.634C693.422 328.745 694.625 326.38 694.625 324.001V322.032H696.17V324.001ZM701.775 321.034V333.407H700.244V321.034H701.775Z" fill="#1A1A1A"/>
<path d="M713.943 321.034V327.364H712.426V324.233H709.965V323.017H712.426V321.034H713.943ZM713.943 327.897V331.097H707.312V332.04H714.34V333.243H705.822V329.962H712.439V329.087H705.809V327.897H713.943ZM708.078 322.429C708.078 323.946 709.076 325.396 710.99 325.983L710.184 327.159C708.844 326.708 707.873 325.84 707.34 324.712C706.793 325.977 705.781 326.954 704.318 327.433L703.525 326.216C705.508 325.614 706.547 324.097 706.547 322.429V321.444H708.078V322.429Z" fill="#1A1A1A"/>
<path d="M1037.96 193V205.359H1036.51V193H1037.96ZM1035.4 193.301V204.771H1033.95V200.643H1032.03V199.398H1033.95V197.566H1032.24C1031.66 199.617 1030.37 201.381 1028.06 202.748L1027.17 201.668C1029.74 200.157 1030.91 198.223 1031.14 195.734H1027.83V194.504H1032.64C1032.64 195.126 1032.6 195.734 1032.52 196.322H1033.95V193.301H1035.4Z" fill="#1A1A1A"/>
<path d="M1043.81 195.967C1043.8 198.168 1044.9 200.41 1046.82 201.326L1045.89 202.543C1044.55 201.866 1043.58 200.561 1043.06 198.988C1042.52 200.67 1041.51 202.064 1040.09 202.775L1039.16 201.559C1041.14 200.615 1042.28 198.25 1042.29 195.967V193.998H1043.81V195.967ZM1049.07 193V197.84H1050.97V199.139H1049.07V205.359H1047.56V193H1049.07Z" fill="#1A1A1A"/>
<path d="M1056.17 195.967C1056.16 198.236 1057.35 200.506 1059.36 201.367L1058.45 202.584C1057.03 201.928 1055.99 200.615 1055.42 199.002C1054.85 200.745 1053.79 202.167 1052.29 202.871L1051.36 201.6C1053.42 200.711 1054.62 198.346 1054.62 195.967V193.998H1056.17V195.967ZM1061.78 193V205.373H1060.24V193H1061.78Z" fill="#1A1A1A"/>
<path d="M1073.94 193V199.33H1072.43V196.199H1069.96V194.982H1072.43V193H1073.94ZM1073.94 199.863V203.062H1067.31V204.006H1074.34V205.209H1065.82V201.928H1072.44V201.053H1065.81V199.863H1073.94ZM1068.08 194.395C1068.08 195.912 1069.08 197.361 1070.99 197.949L1070.18 199.125C1068.84 198.674 1067.87 197.806 1067.34 196.678C1066.79 197.942 1065.78 198.92 1064.32 199.398L1063.53 198.182C1065.51 197.58 1066.55 196.062 1066.55 194.395V193.41H1068.08V194.395Z" fill="#1A1A1A"/>
<path d="M814.289 365.258V366.488H810.68V367.842H815.574V369.086H804.295V367.842H809.176V366.488H805.758V362.264H807.275V365.258H814.289ZM809.914 369.824C812.58 369.838 814.18 370.658 814.193 372.107C814.18 373.557 812.58 374.391 809.914 374.391C807.221 374.391 805.607 373.557 805.607 372.107C805.607 370.658 807.221 369.838 809.914 369.824ZM809.914 371C808.109 371 807.139 371.383 807.152 372.107C807.139 372.818 808.109 373.215 809.914 373.215C811.678 373.215 812.662 372.818 812.676 372.107C812.662 371.383 811.678 371 809.914 371Z" fill="#1A1A1A"/>
<path d="M820.25 364.342C820.25 365.682 821.029 367.021 822.656 367.637L821.85 368.799C820.749 368.375 819.983 367.589 819.539 366.625C819.088 367.732 818.281 368.676 817.105 369.168L816.285 368.006C817.98 367.254 818.773 365.709 818.787 364.342V362.811H820.25V364.342ZM826.963 362.059V369.633H825.514V366.42H824.283V369.25H822.861V362.291H824.283V365.176H825.514V362.059H826.963ZM822.793 369.838C825.377 369.838 827.018 370.686 827.031 372.107C827.018 373.529 825.377 374.391 822.793 374.391C820.182 374.391 818.555 373.529 818.555 372.107C818.555 370.686 820.182 369.838 822.793 369.838ZM822.793 370.986C821.084 370.986 820.072 371.383 820.072 372.107C820.072 372.846 821.084 373.229 822.793 373.229C824.488 373.229 825.5 372.846 825.5 372.107C825.5 371.383 824.488 370.986 822.793 370.986Z" fill="#1A1A1A"/>
<path d="M839.131 362.045V374.404H837.682V368.102H836.287V373.775H834.893V362.277H836.287V366.885H837.682V362.045H839.131ZM833.498 363.508V364.738H830.408V370.234C831.755 370.221 832.862 370.152 834.113 369.92L834.223 371.164C832.732 371.465 831.434 371.506 829.711 371.52H828.877V363.508H833.498Z" fill="#1A1A1A"/>
<path d="M853.746 362.551V366.844H850.301V368.143H855.182V369.373H843.916V368.143H848.77V366.844H845.338V362.551H853.746ZM846.814 363.74V365.641H852.242V363.74H846.814ZM853.801 370.412V374.404H852.283V371.615H845.16V370.412H853.801Z" fill="#1A1A1A"/>
<path d="M860.445 364.273C860.445 365.791 861.43 367.213 863.357 367.801L862.633 368.99C861.245 368.56 860.261 367.678 859.721 366.557C859.174 367.855 858.128 368.888 856.645 369.387L855.879 368.184C857.875 367.527 858.914 365.928 858.914 364.287V364.137H856.303V362.906H863.016V364.137H860.445V364.273ZM865.764 362.045V365.012H867.486V366.256H865.764V369.414H864.246V362.045H865.764ZM861.744 369.688C864.301 369.688 865.873 370.549 865.887 372.025C865.873 373.516 864.301 374.391 861.744 374.391C859.16 374.391 857.561 373.516 857.561 372.025C857.561 370.549 859.16 369.688 861.744 369.688ZM861.744 370.877C860.049 370.877 859.078 371.273 859.078 372.025C859.078 372.791 860.049 373.201 861.744 373.201C863.439 373.201 864.383 372.791 864.383 372.025C864.383 371.273 863.439 370.877 861.744 370.877Z" fill="#1A1A1A"/>
<path d="M878.684 362.045V369.811H877.234V366.447H876.031V369.4H874.609V362.291H876.031V365.217H877.234V362.045H878.684ZM874.199 363.385V364.574H868.047V363.385H870.385V362.154H871.889V363.385H874.199ZM871.137 365.08C872.709 365.08 873.816 365.928 873.83 367.213C873.816 368.498 872.709 369.346 871.137 369.346C869.592 369.346 868.471 368.498 868.484 367.213C868.471 365.928 869.592 365.08 871.137 365.08ZM871.137 366.174C870.371 366.174 869.838 366.57 869.838 367.213C869.838 367.855 870.357 368.252 871.137 368.252C871.916 368.252 872.449 367.855 872.449 367.213C872.449 366.57 871.916 366.174 871.137 366.174ZM874.514 369.961C877.152 369.961 878.738 370.768 878.752 372.189C878.738 373.584 877.152 374.391 874.514 374.391C871.875 374.391 870.275 373.584 870.275 372.189C870.275 370.768 871.875 369.961 874.514 369.961ZM874.514 371.123C872.75 371.109 871.793 371.465 871.793 372.189C871.793 372.873 872.75 373.229 874.514 373.229C876.264 373.229 877.221 372.873 877.221 372.189C877.221 371.465 876.264 371.109 874.514 371.123Z" fill="#1A1A1A"/>
<path d="M890.564 362.045V369.387H889.047V366.365H886.941V365.121H889.047V362.045H890.564ZM886.381 369.701C889.006 369.701 890.605 370.562 890.605 372.053C890.605 373.543 889.006 374.404 886.381 374.404C883.77 374.404 882.17 373.543 882.184 372.053C882.17 370.562 883.77 369.701 886.381 369.701ZM886.381 370.863C884.658 370.863 883.688 371.273 883.688 372.053C883.688 372.818 884.658 373.229 886.381 373.229C888.104 373.229 889.088 372.818 889.088 372.053C889.088 371.273 888.104 370.863 886.381 370.863ZM884.754 364.164C884.754 365.668 885.752 367.186 887.666 367.828L886.9 369.031C885.526 368.566 884.549 367.623 884.016 366.461C883.469 367.78 882.437 368.833 880.967 369.359L880.174 368.156C882.156 367.473 883.209 365.805 883.209 364.178V364.082H880.639V362.852H887.311V364.082H884.754V364.164Z" fill="#1A1A1A"/>
<path d="M903.594 367.965V369.182H892.314V367.965H897.209V366.789H893.695V362.605H902.227V363.795H895.213V365.586H902.295V366.789H898.699V367.965H903.594ZM897.934 369.893C900.6 369.893 902.199 370.699 902.213 372.148C902.199 373.584 900.6 374.404 897.934 374.404C895.24 374.404 893.627 373.584 893.627 372.148C893.627 370.699 895.24 369.893 897.934 369.893ZM897.934 371.055C896.129 371.055 895.158 371.438 895.172 372.148C895.158 372.859 896.129 373.229 897.934 373.229C899.697 373.229 900.682 372.859 900.695 372.148C900.682 371.438 899.697 371.055 897.934 371.055Z" fill="#1A1A1A"/>
<path d="M980.725 354.23C980.711 355.857 981.736 357.402 983.678 358.031L982.885 359.234C981.511 358.77 980.54 357.84 980 356.65C979.446 357.963 978.428 358.988 976.992 359.494L976.145 358.291C978.182 357.635 979.193 355.967 979.193 354.217V352.809H980.725V354.23ZM986.043 352.043V355.693H987.766V356.979H986.043V361.121H984.525V352.043H986.043ZM986.535 362.926V364.156H978.127V360.232H979.686V362.926H986.535Z" fill="#1A1A1A"/>
<path d="M991.826 352.59C993.426 352.576 994.684 353.499 994.998 354.859H997.227V352.043H998.744V358.674H997.227V356.09H995.012C994.704 357.478 993.433 358.414 991.826 358.414C989.926 358.414 988.559 357.197 988.559 355.488C988.559 353.807 989.926 352.576 991.826 352.59ZM991.826 353.861C990.76 353.861 990.008 354.49 990.008 355.488C990.008 356.473 990.76 357.129 991.826 357.129C992.865 357.129 993.604 356.473 993.617 355.488C993.604 354.49 992.865 353.861 991.826 353.861ZM992.1 359.248V360.561H997.227V359.248H998.744V364.252H990.596V359.248H992.1ZM992.1 363.021H997.227V361.736H992.1V363.021Z" fill="#1A1A1A"/>
<path d="M1011.77 357.963V359.18H1000.49V357.963H1005.39V356.787H1001.88V352.604H1010.41V353.793H1003.39V355.584H1010.47V356.787H1006.88V357.963H1011.77ZM1006.11 359.891C1008.78 359.891 1010.38 360.697 1010.39 362.146C1010.38 363.582 1008.78 364.402 1006.11 364.402C1003.42 364.402 1001.81 363.582 1001.81 362.146C1001.81 360.697 1003.42 359.891 1006.11 359.891ZM1006.11 361.053C1004.31 361.053 1003.34 361.436 1003.35 362.146C1003.34 362.857 1004.31 363.227 1006.11 363.227C1007.88 363.227 1008.86 362.857 1008.88 362.146C1008.86 361.436 1007.88 361.053 1006.11 361.053Z" fill="#1A1A1A"/>
<path d="M1023.86 357.061V358.264H1018.96V359.193H1022.45V362.229H1015.42V363.131H1022.79V364.293H1013.93V361.135H1020.96V360.342H1013.92V359.193H1017.45V358.264H1012.59V357.061H1023.86ZM1022.41 352.426V356.281H1014.02V352.426H1022.41ZM1015.51 353.615V355.092H1020.89V353.615H1015.51Z" fill="#1A1A1A"/>
<path d="M1034.99 352.057V359.057H1033.46V352.057H1034.99ZM1034.99 359.658V364.252H1026.79V359.658H1034.99ZM1028.29 360.861V363.021H1033.5V360.861H1028.29ZM1028.25 352.645C1030.15 352.645 1031.57 353.848 1031.57 355.598C1031.57 357.293 1030.15 358.523 1028.25 358.523C1026.33 358.523 1024.91 357.293 1024.91 355.598C1024.91 353.848 1026.33 352.645 1028.25 352.645ZM1028.25 353.93C1027.17 353.93 1026.39 354.572 1026.4 355.598C1026.39 356.596 1027.17 357.238 1028.25 357.238C1029.31 357.238 1030.08 356.596 1030.08 355.598C1030.08 354.572 1029.31 353.93 1028.25 353.93Z" fill="#1A1A1A"/>
<path d="M1041.17 354.012C1041.17 355.57 1042.18 357.033 1044.08 357.635L1043.26 358.824C1041.93 358.373 1040.97 357.471 1040.44 356.322C1039.9 357.635 1038.9 358.667 1037.48 359.166L1036.66 357.977C1038.65 357.279 1039.64 355.639 1039.65 353.875V352.699H1041.17V354.012ZM1046.54 352.043V355.051H1048.26V356.309H1046.54V359.439H1045.02V352.043H1046.54ZM1042.52 359.713C1045.08 359.699 1046.65 360.574 1046.66 362.037C1046.65 363.527 1045.08 364.389 1042.52 364.389C1039.94 364.389 1038.34 363.527 1038.34 362.037C1038.34 360.574 1039.94 359.699 1042.52 359.713ZM1042.52 360.902C1040.83 360.902 1039.86 361.312 1039.86 362.037C1039.86 362.803 1040.83 363.186 1042.52 363.186C1044.22 363.186 1045.16 362.803 1045.16 362.037C1045.16 361.312 1044.22 360.902 1042.52 360.902Z" fill="#1A1A1A"/>
<path d="M1059.02 353.178V354.436C1059.02 355.967 1059.02 357.635 1058.57 360.055L1057.08 359.904C1057.51 357.621 1057.51 355.926 1057.51 354.436V354.395H1050.03V353.178H1059.02ZM1060.16 361.559V362.803H1048.89V361.559H1051.42V357.621H1052.94V361.559H1054.51V357.621H1056V361.559H1060.16Z" fill="#1A1A1A"/>
<path d="M1072.26 357.881V359.098H1069.44V360.383H1070.88V364.402H1069.36V361.572H1062.24V360.383H1063.77V359.098H1060.99V357.881H1072.26ZM1066.61 352.303C1069.32 352.303 1071.05 353.219 1071.07 354.709C1071.05 356.213 1069.32 357.129 1066.61 357.129C1063.9 357.129 1062.15 356.213 1062.15 354.709C1062.15 353.219 1063.9 352.303 1066.61 352.303ZM1066.61 353.492C1064.81 353.492 1063.73 353.93 1063.74 354.709C1063.73 355.516 1064.81 355.953 1066.61 355.953C1068.42 355.953 1069.5 355.516 1069.5 354.709C1069.5 353.93 1068.42 353.492 1066.61 353.492ZM1065.29 360.383H1067.94V359.098H1065.29V360.383Z" fill="#1A1A1A"/>
<path d="M1083.44 352.057V361.121H1081.92V358.059H1078.98C1078.39 358.722 1077.51 359.125 1076.52 359.125C1074.66 359.125 1073.26 357.785 1073.26 355.967C1073.26 354.121 1074.66 352.795 1076.52 352.795C1077.51 352.795 1078.38 353.191 1078.97 353.848H1081.92V352.057H1083.44ZM1083.76 362.926V364.156H1075.33V360.191H1076.85V362.926H1083.76ZM1076.52 354.148C1075.46 354.148 1074.71 354.859 1074.71 355.967C1074.71 357.061 1075.46 357.771 1076.52 357.771C1077.54 357.771 1078.3 357.061 1078.31 355.967C1078.3 354.859 1077.54 354.148 1076.52 354.148ZM1079.64 355.078C1079.72 355.358 1079.76 355.652 1079.76 355.967C1079.76 356.268 1079.72 356.555 1079.65 356.828H1081.92V355.078H1079.64Z" fill="#1A1A1A"/>
<path d="M1091.63 353.068C1091.63 354.627 1093.37 356.199 1096.01 356.541L1095.4 357.771C1093.31 357.457 1091.64 356.425 1090.84 355.023C1090.02 356.425 1088.36 357.457 1086.29 357.771L1085.68 356.541C1088.29 356.199 1090.03 354.627 1090.03 353.068V352.439H1091.63V353.068ZM1096.46 358.838V360.096H1091.55V364.402H1090.04V360.096H1085.19V358.838H1096.46Z" fill="#1A1A1A"/>
<path d="M1107.65 352.057V361.408H1106.12V360.328H1103.7V359.262H1106.12V352.057H1107.65ZM1107.94 362.926V364.156H1098.88V360.506H1100.39V362.926H1107.94ZM1097.24 357.607C1099.52 357.594 1102.58 357.566 1105.21 357.238L1105.29 358.332C1104.27 358.503 1103.22 358.619 1102.17 358.688V361.066H1100.65V358.77C1099.5 358.817 1098.4 358.824 1097.43 358.824L1097.24 357.607ZM1101.27 352.508C1103.07 352.508 1104.33 353.396 1104.35 354.695C1104.33 356.021 1103.07 356.869 1101.27 356.869C1099.44 356.869 1098.18 356.021 1098.18 354.695C1098.18 353.396 1099.44 352.508 1101.27 352.508ZM1101.27 353.629C1100.29 353.629 1099.62 354.025 1099.62 354.695C1099.62 355.365 1100.29 355.762 1101.27 355.762C1102.21 355.762 1102.88 355.365 1102.9 354.695C1102.88 354.025 1102.21 353.629 1101.27 353.629Z" fill="#1A1A1A"/>
<path d="M1086.93 382.051V394.41H1085.48V388.107H1084.09V393.781H1082.69V382.283H1084.09V386.891H1085.48V382.051H1086.93ZM1081.3 383.514V384.744H1078.21V390.24C1079.56 390.227 1080.66 390.158 1081.91 389.926L1082.02 391.17C1080.53 391.471 1079.23 391.512 1077.51 391.525H1076.68V383.514H1081.3Z" fill="#1A1A1A"/>
<path d="M1099.67 387.971V389.188H1088.39V387.971H1093.29V386.795H1089.78V382.611H1098.31V383.801H1091.29V385.592H1098.38V386.795H1094.78V387.971H1099.67ZM1094.01 389.898C1096.68 389.898 1098.28 390.705 1098.29 392.154C1098.28 393.59 1096.68 394.41 1094.01 394.41C1091.32 394.41 1089.71 393.59 1089.71 392.154C1089.71 390.705 1091.32 389.898 1094.01 389.898ZM1094.01 391.061C1092.21 391.061 1091.24 391.443 1091.25 392.154C1091.24 392.865 1092.21 393.234 1094.01 393.234C1095.78 393.234 1096.76 392.865 1096.78 392.154C1096.76 391.443 1095.78 391.061 1094.01 391.061Z" fill="#1A1A1A"/>
<path d="M1111.76 387.068V388.271H1106.87V389.201H1110.35V392.236H1103.32V393.139H1110.69V394.301H1101.83V391.143H1108.86V390.35H1101.82V389.201H1105.35V388.271H1100.49V387.068H1111.76ZM1110.31 382.434V386.289H1101.92V382.434H1110.31ZM1103.41 383.623V385.1H1108.79V383.623H1103.41Z" fill="#1A1A1A"/>
<path d="M1114.67 382.803V384.58H1117.43V382.803H1118.94V383.951H1121.43V382.051H1122.94V389.475H1121.43V387.697H1118.94V388.682H1113.15V382.803H1114.67ZM1114.67 387.492H1117.43V385.77H1114.67V387.492ZM1118.76 389.693C1121.38 389.693 1122.98 390.555 1122.98 392.059C1122.98 393.535 1121.38 394.396 1118.76 394.396C1116.15 394.396 1114.55 393.535 1114.56 392.059C1114.55 390.555 1116.15 389.693 1118.76 389.693ZM1118.76 390.855C1117.04 390.855 1116.07 391.266 1116.07 392.059C1116.07 392.811 1117.04 393.221 1118.76 393.221C1120.48 393.221 1121.47 392.811 1121.47 392.059C1121.47 391.266 1120.48 390.855 1118.76 390.855ZM1118.94 386.467H1121.43V385.154H1118.94V386.467Z" fill="#1A1A1A"/>
<path d="M1135.06 382.064V391.416H1133.53V390.336H1131.11V389.27H1133.53V382.064H1135.06ZM1135.34 392.934V394.164H1126.28V390.514H1127.8V392.934H1135.34ZM1124.64 387.615C1126.92 387.602 1129.98 387.574 1132.61 387.246L1132.69 388.34C1131.67 388.511 1130.62 388.627 1129.57 388.695V391.074H1128.06V388.777C1126.9 388.825 1125.8 388.832 1124.83 388.832L1124.64 387.615ZM1128.67 382.516C1130.48 382.516 1131.73 383.404 1131.75 384.703C1131.73 386.029 1130.48 386.877 1128.67 386.877C1126.84 386.877 1125.58 386.029 1125.58 384.703C1125.58 383.404 1126.84 382.516 1128.67 382.516ZM1128.67 383.637C1127.69 383.637 1127.02 384.033 1127.02 384.703C1127.02 385.373 1127.69 385.77 1128.67 385.77C1129.62 385.77 1130.29 385.373 1130.3 384.703C1130.29 384.033 1129.62 383.637 1128.67 383.637Z" fill="#1A1A1A"/>
<path d="M844.574 437.996V439.227H841.826V443.424H840.281V439.227H837.547V443.424H835.988V439.227H833.281V437.996H844.574ZM838.9 431.502C841.525 431.516 843.357 432.582 843.357 434.264C843.357 435.918 841.525 436.971 838.9 436.971C836.262 436.971 834.457 435.918 834.471 434.264C834.457 432.582 836.262 431.516 838.9 431.502ZM838.9 432.732C837.15 432.732 836.016 433.293 836.029 434.264C836.016 435.207 837.15 435.768 838.9 435.768C840.65 435.768 841.785 435.207 841.785 434.264C841.785 433.293 840.65 432.732 838.9 432.732Z" fill="#1A1A1A"/>
<path d="M855.689 431.064V443.438H854.186V431.064H855.689ZM851.889 432.145V436.779H847.637V439.268C849.585 439.254 851.267 439.158 853.188 438.83L853.324 440.074C851.219 440.443 849.373 440.512 847.158 440.512H846.078V435.576H850.344V433.375H846.064V432.145H851.889Z" fill="#1A1A1A"/>
<path d="M868.76 437.504V438.734H857.494V437.504H862.348V436.41C860.092 436.246 858.656 435.337 858.656 433.908C858.656 432.363 860.42 431.406 863.113 431.406C865.807 431.406 867.557 432.363 867.57 433.908C867.557 435.337 866.135 436.246 863.879 436.41V437.504H868.76ZM867.488 441.947V443.178H858.889V439.582H860.406V441.947H867.488ZM863.113 432.609C861.322 432.623 860.229 433.088 860.242 433.908C860.229 434.77 861.322 435.207 863.113 435.207C864.918 435.207 865.998 434.77 865.998 433.908C865.998 433.088 864.918 432.623 863.113 432.609Z" fill="#1A1A1A"/>
<path d="M879.861 431.064V437.367H878.357V431.064H879.861ZM879.889 437.941V441.154H873.203V442.111H880.258V443.314H871.713V440.02H878.371V439.117H871.686V437.941H879.889ZM874.201 432.322C874.201 433.895 875.24 435.371 877.195 435.959L876.457 437.135C875.021 436.697 873.996 435.774 873.436 434.592C872.875 435.877 871.822 436.882 870.346 437.354L869.58 436.164C871.576 435.521 872.629 433.936 872.629 432.322V431.365H874.201V432.322Z" fill="#1A1A1A"/>
<path d="M887.791 430.914V443.602H886.164V430.914H887.791Z" fill="#1A1A1A"/>
<path d="M903.801 431.064V443.424H902.352V437.162H901.08V442.822H899.645V431.283H901.08V435.904H902.352V431.064H903.801ZM896.924 434.223C896.924 436.424 897.662 438.447 899.494 439.391L898.605 440.553C897.43 439.924 896.657 438.837 896.227 437.49C895.803 439.028 895.03 440.266 893.807 440.99L892.877 439.828C894.709 438.789 895.447 436.629 895.447 434.223V433.635H893.246V432.418H898.947V433.635H896.924V434.223Z" fill="#1A1A1A"/>
<path d="M907 432.199V435.057H909.01V432.199H910.418V440.43H905.564V432.199H907ZM907 439.199H909.01V436.26H907V439.199ZM915.846 431.064V443.424H914.383V437.094H913.07V442.822H911.635V431.283H913.07V435.836H914.383V431.064H915.846Z" fill="#1A1A1A"/>
<path d="M921.957 434.031C921.943 436.301 923.133 438.57 925.143 439.432L924.24 440.648C922.818 439.992 921.772 438.68 921.205 437.066C920.638 438.81 919.578 440.231 918.074 440.936L917.145 439.664C919.209 438.775 920.412 436.41 920.412 434.031V432.062H921.957V434.031ZM927.562 431.064V443.438H926.031V431.064H927.562Z" fill="#1A1A1A"/>
<path d="M939.73 431.064V437.395H938.213V434.264H935.752V433.047H938.213V431.064H939.73ZM939.73 437.928V441.127H933.1V442.07H940.127V443.273H931.609V439.992H938.227V439.117H931.596V437.928H939.73ZM933.865 432.459C933.865 433.977 934.863 435.426 936.777 436.014L935.971 437.189C934.631 436.738 933.66 435.87 933.127 434.742C932.58 436.007 931.568 436.984 930.105 437.463L929.312 436.246C931.295 435.645 932.334 434.127 932.334 432.459V431.475H933.865V432.459Z" fill="#1A1A1A"/>
</g>
</svg>
