<svg width="332" height="349" viewBox="0 0 332 349" fill="none" xmlns="http://www.w3.org/2000/svg">
<mask id="mask0_814_2626" style="mask-type:alpha" maskUnits="userSpaceOnUse" x="0" y="0" width="332" height="349">
<rect width="332" height="349" fill="#D9D9D9"/>
</mask>
<g mask="url(#mask0_814_2626)">
<path d="M138.83 300.959H294.159V320.407H261.075V317.256H243.906V310.48H237.446V319.303H194.125V310.64H138.83V300.959Z" fill="#FEDF73"/>
<path d="M236.396 329.387H206.383V335.164H236.396V329.387Z" fill="#FEDF73"/>
<path d="M289.119 341.019H272.967V349H289.119V341.019Z" fill="white"/>
<path d="M264.856 338.707H255.824V346.161H264.856V338.707Z" fill="white"/>
<path d="M264.858 338.707H250.154V342.434H264.858V338.707Z" fill="white"/>
<path d="M293.443 252.546H262.672V283.317H293.443V252.546Z" fill="#FEDF73"/>
<path d="M100.985 215.911H62.709V228.37H100.985V215.911Z" fill="white"/>
<path d="M100.985 200.822H62.709V213.282H100.985V200.822Z" fill="white"/>
<path d="M83.2884 61.6206H66V91.1585H83.2884V61.6206Z" fill="#FEDF73"/>
<path d="M83.2884 28.7773H66V58.3153H83.2884V28.7773Z" fill="#FEDF73"/>
<path d="M85.2949 91.1613V28.7773H96.1549V40.1287L91.3696 46.3098H88.2806V64.0301L91.426 70.3896L88.2806 76.5707V91.1613H85.2949Z" fill="#FEDF73"/>
<path d="M87.3474 105.477H79.639V111.401H70.5098V162.963H87.3474V105.477Z" fill="#FEDF73"/>
<path d="M69.5698 163.901V138.253H55.3047V167.794H72.5962V163.901H69.5698Z" fill="#FEDF73"/>
<path d="M244.397 7.21078V68.612H301.685M208.712 181.249V242.65M110.302 0V242.65M49.502 242.65H301.682M49.502 292.719H301.682M110.809 181.249H301.682" stroke="#DCDDDD" stroke-width="0.447097" stroke-miterlimit="10"/>
<path d="M53.5586 93.5245V29.92L65.6548 17.8081H110.303" stroke="#DCDDDD" stroke-width="0.447097" stroke-miterlimit="10"/>
<path d="M279.471 204.456H239.148V223.957H279.471V204.456Z" fill="white"/>
<path d="M281.892 18.8062H264.182V57.0821H281.892V18.8062Z" fill="#FEDF73"/>
<path d="M158.82 211.707H184.558V196.75H148.135V210.903H137.613V225.882H158.82V211.707Z" fill="white"/>
<path d="M188.587 213.084H160.197V229.224H188.587V213.084Z" fill="white"/>
<path d="M146.756 195.674H132.904V209.526H146.756V195.674Z" fill="white"/>
<path d="M279.471 204.456H239.148V223.957H279.471V204.456Z" stroke="#FEDF73" stroke-width="0.312968" stroke-miterlimit="10"/>
<path d="M158.82 211.707H184.558V196.75H148.135V210.903H137.613V225.882H158.82V211.707Z" stroke="#FEDF73" stroke-width="0.312968" stroke-miterlimit="10"/>
<path d="M188.587 213.084H160.197V229.224H188.587V213.084Z" stroke="#FEDF73" stroke-width="0.312968" stroke-miterlimit="10"/>
<path d="M146.756 195.674H132.904V209.526H146.756V195.674Z" stroke="#FEDF73" stroke-width="0.312968" stroke-miterlimit="10"/>
<path d="M157.359 269.19L155.271 271.256V278.779L157.359 280.842H200.07L202.157 278.779V271.256L200.07 269.19H157.359Z" fill="#FEDF73"/>
<path d="M157.359 255.022L155.271 257.084V264.608L157.359 266.674H200.07L202.157 264.608V257.084L200.07 255.022H157.359Z" fill="#FEDF73"/>
<path d="M206.664 269.19L204.576 271.256V278.779L206.664 280.842H249.374L251.462 278.779V271.256L249.374 269.19H206.664Z" fill="#FEDF73"/>
<path d="M249.965 252.546H134.912C133.529 253.914 132.752 254.681 131.369 256.048V279.815C132.752 281.183 133.529 281.95 134.912 283.317H249.965C251.349 281.95 252.125 281.183 253.508 279.815V256.048C252.125 254.681 251.349 253.914 249.965 252.546ZM152.836 277.794L149.434 281.155H136.921L133.519 277.794V258.07L136.921 254.709H149.434L149.481 254.753C150.77 256.03 151.496 256.746 152.789 258.023L152.836 258.07V277.794ZM202.472 278.908L200.2 281.152H157.233L154.961 278.908V271.121L157.233 268.874H200.2L202.472 271.121V278.908ZM202.472 264.74L200.2 266.987H157.233L154.961 264.74V256.956L157.233 254.709H200.2L202.472 256.956V264.74ZM251.774 278.908L249.502 281.152H206.535L204.263 278.908V271.121L206.535 268.874H249.502L251.774 271.121V278.908ZM251.774 264.74L249.502 266.987H206.535L204.263 264.74V256.956L206.535 254.709H249.502L251.774 256.956V264.74Z" fill="#FEDF73"/>
<path d="M137.051 255.022L133.834 258.202V277.662L137.051 280.842H149.307L152.524 277.662V258.202C151.276 256.969 150.556 256.258 149.307 255.022H137.051Z" fill="#FEDF73"/>
<path d="M206.664 255.022L204.576 257.084V264.608L206.664 266.674H249.374L251.462 264.608V257.084L249.374 255.022H206.664Z" fill="#FEDF73"/>
<path d="M260.744 199.965H235.23V207.141H260.744V199.965Z" fill="white"/>
<path d="M260.744 199.965H235.23V207.141H260.744V199.965Z" stroke="#FEDF73" stroke-width="0.312968" stroke-miterlimit="10"/>
<path d="M78.701 100.457H54.2832V110.462H78.701V100.457Z" fill="#FEDF73"/>
<path d="M195.039 51.5794H194.357V45.6455H195.039V51.5794ZM193.856 49.6515L193.462 50.146C192.904 49.8393 192.185 49.0819 191.997 48.4685C191.84 49.1069 191.239 49.8956 190.538 50.2712L190.1 49.7704C191.052 49.2384 191.64 48.2995 191.64 47.0977V46.8035H190.401V46.2652H193.555V46.8035H192.347V47.0914C192.347 48.2932 192.986 49.1758 193.856 49.6515Z" fill="#1A1A1A"/>
<path d="M199.952 50.4903C199.952 50.1335 199.432 49.9269 198.587 49.9269C197.755 49.9269 197.229 50.1335 197.229 50.4903C197.229 50.8408 197.755 51.0411 198.587 51.0411C199.432 51.0411 199.952 50.8408 199.952 50.4903ZM200.653 50.484C200.653 51.1475 199.914 51.5856 198.594 51.5856C197.273 51.5856 196.534 51.1475 196.534 50.484C196.534 49.8142 197.273 49.3761 198.587 49.3761C199.914 49.3761 200.653 49.8142 200.653 50.484ZM200.609 47.7299H196.635V45.7582H197.317V47.1791H200.609V47.7299ZM201.266 48.8816H195.908V48.3308H201.266V48.8816Z" fill="#1A1A1A"/>
<path d="M204.583 50.0145C203.763 50.0145 203.288 50.2336 203.288 50.5466C203.288 50.8658 203.763 51.0786 204.583 51.0786C205.416 51.0786 205.879 50.8658 205.879 50.5466C205.879 50.2274 205.416 50.0145 204.583 50.0145ZM206.586 50.5403C206.586 51.185 205.86 51.5982 204.583 51.5982C203.307 51.5982 202.587 51.185 202.587 50.5403C202.587 49.9081 203.307 49.4888 204.583 49.4888C205.86 49.4888 206.586 49.9081 206.586 50.5403ZM204.07 48.312C204.07 48.0178 203.732 47.8425 203.35 47.8425C202.956 47.8425 202.618 48.0178 202.618 48.312C202.618 48.6062 202.962 48.7877 203.35 48.7877C203.732 48.7877 204.07 48.6062 204.07 48.312ZM204.734 48.3183C204.734 48.8941 204.139 49.2885 203.35 49.2885C202.555 49.2885 201.955 48.8941 201.955 48.312C201.955 47.7299 202.549 47.3355 203.35 47.3355C204.139 47.3355 204.734 47.7299 204.734 48.3183ZM204.878 47.1227H201.679V46.5844H204.878V47.1227ZM204.227 46.2464H202.493V45.7018H204.227V46.2464ZM205.009 47.5922V47.0351H205.867V45.6455H206.555V49.4262H205.867V48.7063H205.009V48.1555H205.867V47.5922H205.009Z" fill="#1A1A1A"/>
<path d="M211.412 47.6861V46.4467H208.796V47.6861H211.412ZM210.435 51.5856H209.753V49.5889H207.425V49.0381H212.783V49.5889H210.435V51.5856ZM212.094 45.8959V48.2369H208.113V45.8959H212.094Z" fill="#1A1A1A"/>
<path d="M215.718 47.5358C215.718 47.0163 215.399 46.6533 214.879 46.6533C214.372 46.6533 214.034 47.0351 214.034 47.5358C214.034 48.0241 214.372 48.4121 214.879 48.4121C215.399 48.4121 215.718 48.0241 215.718 47.5358ZM216.4 47.5358C216.4 48.3808 215.787 48.988 214.879 48.988C213.972 48.988 213.352 48.3871 213.352 47.5421C213.352 46.6971 213.965 46.0837 214.879 46.0837C215.787 46.0837 216.4 46.6908 216.4 47.5358ZM218.203 51.4104H214.141V49.5451H214.823V50.8596H218.203V51.4104ZM218.065 49.9519H217.383V45.6455H218.065V49.9519Z" fill="#1A1A1A"/>
<path d="M221.489 48.1868C221.489 47.2354 221.138 46.6658 220.631 46.6658C220.13 46.6658 219.786 47.2354 219.786 48.1868C219.786 49.1382 220.13 49.7078 220.631 49.7078C221.138 49.7078 221.489 49.1382 221.489 48.1868ZM219.116 48.1868C219.116 46.9349 219.68 46.1087 220.631 46.1087C221.582 46.1087 222.139 46.9349 222.139 48.1931C222.139 49.4387 221.582 50.2587 220.631 50.2587C219.68 50.2587 219.116 49.4387 219.116 48.1868ZM223.823 51.5794H223.141V45.6455H223.823V51.5794Z" fill="#1A1A1A"/>
<path d="M228.736 50.509C228.736 50.171 228.217 49.9707 227.378 49.9707C226.546 49.9707 226.026 50.171 226.026 50.509C226.026 50.847 226.546 51.0348 227.378 51.0348C228.217 51.0348 228.736 50.847 228.736 50.509ZM229.437 50.5028C229.437 51.1663 228.686 51.5856 227.384 51.5856C226.07 51.5856 225.325 51.1663 225.325 50.5028C225.325 49.8518 226.07 49.4199 227.378 49.4199C228.686 49.4199 229.437 49.8518 229.437 50.5028ZM229.419 47.8363H227.71V48.456H230.057V49.0068H224.699V48.456H227.028V47.8363H225.406V45.8083H229.375V46.3653H226.089V47.2855H229.419V47.8363Z" fill="#1A1A1A"/>
<path d="M232.692 46.6783H231.139V46.1275H232.692V46.6783ZM235.458 51.5794H234.807V45.6455H235.458V51.5794ZM234.294 51.2977H233.649V48.8065H232.892V48.2369H233.649V45.7644H234.294V51.2977ZM233.393 49.8393L232.999 50.3212C232.579 50.0709 232.06 49.495 231.909 48.9504C231.772 49.5263 231.265 50.171 230.764 50.4652L230.338 50.0083C231.102 49.5138 231.571 48.8065 231.584 47.6673H230.551V47.1165H233.243V47.6673H232.247C232.266 48.7752 232.748 49.4762 233.393 49.8393Z" fill="#1A1A1A"/>
<path d="M238.682 47.5484C238.682 47.0288 238.362 46.6658 237.843 46.6658C237.336 46.6658 236.998 47.0476 236.998 47.5484C236.998 48.0366 237.336 48.4247 237.843 48.4247C238.362 48.4247 238.682 48.0366 238.682 47.5484ZM239.364 47.5484C239.364 48.3934 238.75 49.0005 237.843 49.0005C236.935 49.0005 236.315 48.3996 236.315 47.5546C236.315 46.7096 236.929 46.0962 237.843 46.0962C238.75 46.0962 239.364 46.7033 239.364 47.5484ZM241.217 51.4104H237.192V49.5576H237.874V50.8596H241.217V51.4104ZM239.483 48.5123L239.495 47.9552H240.415V47.0288H239.495L239.483 46.4717H240.415V45.6455H241.098V49.9519H240.415V48.5123H239.483Z" fill="#1A1A1A"/>
<path d="M242.649 45.9898H246.624C246.624 46.9788 246.568 47.8112 246.424 48.5186H247.331V49.0694H244.984V51.5794H244.302V49.0694H241.973V48.5186H245.767C245.879 47.9928 245.929 47.2354 245.936 46.5469H242.649V45.9898Z" fill="#1A1A1A"/>
<path d="M251.769 50.509C251.769 50.171 251.249 49.9707 250.411 49.9707C249.578 49.9707 249.059 50.171 249.059 50.509C249.059 50.847 249.578 51.0348 250.411 51.0348C251.249 51.0348 251.769 50.847 251.769 50.509ZM252.47 50.5028C252.47 51.1663 251.719 51.5856 250.417 51.5856C249.102 51.5856 248.357 51.1663 248.357 50.5028C248.357 49.8518 249.102 49.4199 250.411 49.4199C251.719 49.4199 252.47 49.8518 252.47 50.5028ZM252.451 47.8363H250.742V48.456H253.09V49.0068H247.732V48.456H250.06V47.8363H248.439V45.8083H252.407V46.3653H249.121V47.2855H252.451V47.8363Z" fill="#1A1A1A"/>
<path d="M182.354 172.001L182.373 171.257L181.76 171.645L181.603 171.369L182.242 171.031L181.603 170.687L181.76 170.412L182.373 170.793L182.354 170.055H182.68L182.667 170.793L183.287 170.412L183.437 170.687L182.799 171.031L183.437 171.369L183.287 171.645L182.667 171.257L182.68 172.001H182.354Z" fill="#1A1A1A"/>
<path d="M185.898 174.618V174.336L186.999 173.197C187.632 172.54 188.045 172.07 188.045 171.419C188.045 170.812 187.763 170.505 187.125 170.505C186.73 170.505 186.367 170.699 186.111 170.887L185.954 170.505C186.223 170.324 186.68 170.086 187.175 170.086C188.057 170.086 188.539 170.593 188.539 171.382C188.539 172.145 188.114 172.64 187.306 173.466L186.567 174.205H188.652V174.618H185.898Z" fill="#1A1A1A"/>
<path d="M191.09 174.299C191.797 174.299 192.179 173.829 192.179 172.665V172.145C192.179 171.012 191.803 170.493 191.096 170.493C190.383 170.493 189.988 170.987 189.988 172.114V172.634C189.988 173.76 190.383 174.299 191.09 174.299ZM191.09 174.699C190.189 174.699 189.487 174.073 189.487 172.577V172.183C189.487 170.612 190.232 170.092 191.096 170.092C191.96 170.092 192.661 170.612 192.661 172.158V172.584C192.661 174.073 191.991 174.699 191.09 174.699Z" fill="#1A1A1A"/>
<path d="M193.477 174.618V174.336L194.579 173.197C195.211 172.54 195.624 172.07 195.624 171.419C195.624 170.812 195.343 170.505 194.704 170.505C194.31 170.505 193.947 170.699 193.69 170.887L193.534 170.505C193.803 170.324 194.26 170.086 194.754 170.086C195.637 170.086 196.119 170.593 196.119 171.382C196.119 172.145 195.693 172.64 194.886 173.466L194.147 174.205H196.232V174.618H193.477Z" fill="#1A1A1A"/>
<path d="M198.368 170.499C197.767 170.499 197.411 170.956 197.411 171.588C197.411 172.308 197.83 172.615 198.381 172.615C198.825 172.615 199.213 172.302 199.407 172.026V171.901C199.407 171.05 199.101 170.499 198.368 170.499ZM198.362 170.092C199.339 170.092 199.883 170.768 199.883 172.033V172.321C199.883 173.835 199.295 174.699 198.218 174.699C197.761 174.699 197.348 174.561 197.142 174.424L197.286 174.08C197.48 174.192 197.836 174.299 198.199 174.299C198.944 174.299 199.357 173.785 199.407 172.515C199.163 172.803 198.8 173.028 198.3 173.028C197.555 173.028 196.935 172.483 196.935 171.638C196.935 170.812 197.48 170.092 198.362 170.092Z" fill="#1A1A1A"/>
<path d="M202.944 170.687V170.336H204.828V169.548H205.254V173.76H204.828V171.77H202.944V171.419H204.828V170.687H202.944ZM203.726 172.402L203.789 172.765C202.913 172.915 201.78 172.978 200.847 172.978V169.98H201.273V172.602C201.974 172.602 202.969 172.54 203.726 172.402ZM205.441 175.194H201.536V173.51H201.961V174.831H205.441V175.194Z" fill="#1A1A1A"/>
<path d="M212.923 175.369H212.497V172.271H211.646V175.062H211.226V169.698H211.646V171.908H212.497V169.548H212.923V175.369ZM208.247 170.286H210.488C210.438 172.014 209.63 173.247 208.291 174.123L207.996 173.792C209.217 173.097 209.981 171.851 210.031 170.649H208.247V170.286Z" fill="#1A1A1A"/>
<path d="M215.808 173.71H215.382V172.665C214.85 172.69 214.355 172.696 213.817 172.709L213.729 172.327C214.424 172.327 215.031 172.308 215.664 172.289C216.346 172.258 216.915 172.227 217.498 172.164L217.535 172.502C217.172 172.552 216.459 172.596 215.808 172.64V173.71ZM218.649 175.225H214.581V173.56H215.006V174.862H218.649V175.225ZM218.524 173.992H218.099V173.341H216.928V172.984H218.099V169.548H218.524V173.992ZM216.646 170.9C216.646 170.48 216.214 170.205 215.601 170.205C214.994 170.205 214.556 170.468 214.556 170.9C214.556 171.332 214.994 171.582 215.601 171.582C216.214 171.582 216.646 171.332 216.646 170.9ZM217.078 170.9C217.078 171.57 216.459 171.945 215.601 171.945C214.75 171.945 214.124 171.576 214.124 170.9C214.124 170.23 214.75 169.836 215.601 169.836C216.459 169.836 217.078 170.23 217.078 170.9Z" fill="#1A1A1A"/>
<path d="M224.641 171.325H223.821C223.865 171.544 223.883 171.782 223.883 172.039C223.883 172.314 223.858 172.559 223.815 172.784H224.641V171.325ZM226.193 175.369H225.767V169.548H226.193V175.369ZM223.445 172.039C223.445 171.012 223.139 170.399 222.632 170.399C222.125 170.399 221.818 171.012 221.818 172.039C221.818 173.066 222.125 173.679 222.632 173.679C223.139 173.679 223.445 173.066 223.445 172.039ZM222.632 170.042C223.157 170.042 223.533 170.38 223.727 170.962H224.641V169.66H225.06V175.062H224.641V173.147H223.721C223.52 173.71 223.151 174.036 222.632 174.036C221.83 174.036 221.38 173.266 221.38 172.039C221.38 170.812 221.83 170.042 222.632 170.042Z" fill="#1A1A1A"/>
<path d="M231.369 171.407H230.205V171.044H231.369V169.548H231.795V173.166H231.369V171.407ZM227.257 170.361V169.998H230.318V170.361H228.997V170.712C228.997 171.482 229.748 172.177 230.449 172.408L230.211 172.759C229.616 172.515 229.003 171.964 228.771 171.438C228.621 171.976 227.939 172.634 227.294 172.922L227.05 172.596C227.789 172.302 228.571 171.501 228.571 170.712V170.361H227.257ZM229.898 173.554C228.953 173.554 228.39 173.817 228.39 174.28C228.39 174.737 228.953 175 229.898 175C230.85 175 231.407 174.737 231.407 174.28C231.407 173.817 230.85 173.554 229.898 173.554ZM231.839 174.28C231.839 174.95 231.144 175.369 229.898 175.369C228.653 175.369 227.958 174.95 227.958 174.28C227.958 173.604 228.653 173.184 229.898 173.184C231.144 173.184 231.839 173.604 231.839 174.28Z" fill="#1A1A1A"/>
<path d="M137.454 235.688L137.047 236.201C136.54 235.875 135.908 235.143 135.689 234.492C135.489 235.193 134.894 235.938 134.243 236.332L133.824 235.832C134.744 235.237 135.326 234.254 135.326 233.121V232.151H136.033V233.084C136.033 234.223 136.584 235.143 137.454 235.688ZM138.725 237.572H138.042V231.638H138.725V237.572Z" fill="#1A1A1A"/>
<path d="M143.425 233.891C143.425 233.672 143.018 233.56 142.28 233.56C141.541 233.56 141.128 233.672 141.128 233.891C141.128 234.104 141.541 234.223 142.28 234.223C143.018 234.223 143.425 234.104 143.425 233.891ZM144.12 233.891C144.12 234.367 143.506 234.699 142.28 234.699C141.046 234.699 140.433 234.367 140.433 233.891C140.433 233.403 141.046 233.065 142.28 233.065C143.506 233.065 144.12 233.403 144.12 233.891ZM143.632 236.708C143.632 236.451 143.118 236.314 142.273 236.314C141.435 236.314 140.921 236.451 140.921 236.708C140.921 236.958 141.435 237.102 142.273 237.102C143.118 237.102 143.632 236.958 143.632 236.708ZM144.333 236.708C144.333 237.246 143.65 237.622 142.28 237.622C140.909 237.622 140.22 237.24 140.22 236.708C140.22 236.17 140.909 235.794 142.248 235.794C143.65 235.794 144.333 236.163 144.333 236.708ZM144.621 232.909H139.926V232.383H144.621V232.909ZM141.241 232.139V231.613H143.319V232.139H141.241ZM144.952 235.531H139.594V234.98H144.952V235.531Z" fill="#1A1A1A"/>
<path d="M147.174 235.487V234.192H146.204V235.487H147.174ZM147.856 236.032H145.515V232.264H146.204V233.653H147.174V232.251H147.856V236.032ZM150.354 237.572H149.703V234.567H149.127V237.29H148.482V231.757H149.127V233.998H149.703V231.638H150.354V237.572Z" fill="#1A1A1A"/>
<path d="M155.818 237.49H151.768V235.387H155.761V235.938H152.45V236.94H155.818V237.49ZM156.469 234.786H151.111V234.242H153.17V233.203H153.852V234.242H156.469V234.786ZM151.736 231.851H155.774C155.78 232.495 155.736 233.322 155.599 233.879L154.935 233.791C155.041 233.347 155.085 232.89 155.085 232.395H151.736V231.851Z" fill="#1A1A1A"/>
<path d="M160.474 235.713L160.067 236.22C159.56 235.901 158.89 235.143 158.678 234.492C158.471 235.193 157.883 235.938 157.238 236.326L156.812 235.832C157.732 235.237 158.315 234.254 158.315 233.121V232.145H159.016V233.084C159.016 234.223 159.604 235.168 160.474 235.713ZM161.757 237.572H161.075V234.254H159.917V233.685H161.075V231.638H161.757V237.572Z" fill="#1A1A1A"/>
<path d="M165.318 232.245C164.461 232.245 163.948 232.433 163.948 232.752C163.948 233.071 164.461 233.265 165.318 233.265C166.176 233.265 166.695 233.071 166.695 232.752C166.695 232.433 166.176 232.245 165.318 232.245ZM165.318 231.701C166.627 231.701 167.409 232.139 167.409 232.752C167.409 233.365 166.627 233.804 165.318 233.804C164.01 233.804 163.24 233.365 163.24 232.752C163.24 232.139 164.01 231.701 165.318 231.701ZM167.503 237.534H163.315V236.063H166.601V235.681H163.284V235.137H164.955V234.68H162.627V234.129H167.985V234.68H165.638V235.137H167.284V236.558H163.998V236.983H167.503V237.534Z" fill="#1A1A1A"/>
<path d="M171.07 235.406L171.158 235.957C170.663 236.07 169.893 236.12 169.174 236.12H168.579V232.358H170.814V232.909C170.3 232.909 169.774 232.902 169.267 232.902V235.556C170.012 235.556 170.62 235.506 171.07 235.406ZM173.386 237.572H172.729V234.567H172.128V237.284H171.483V231.757H172.128V233.998H172.729V231.638H173.386V237.572Z" fill="#1A1A1A"/>
<path d="M179.025 231.638V235.156H178.343V234.267H177.404V233.716H178.343V233.021H177.404V232.47H178.343V231.638H179.025ZM178.368 236.401C178.368 236.007 177.886 235.769 177.041 235.769C176.215 235.769 175.727 236.007 175.727 236.401C175.727 236.789 176.215 237.027 177.041 237.027C177.886 237.027 178.368 236.789 178.368 236.401ZM179.069 236.401C179.069 237.109 178.331 237.572 177.041 237.572C175.758 237.572 175.026 237.109 175.026 236.401C175.026 235.681 175.758 235.218 177.041 235.218C178.331 235.218 179.069 235.681 179.069 236.401ZM176.421 234.248V233.422H175.044V234.248H176.421ZM177.104 234.793H174.362V231.976H175.044V232.89H176.421V231.963H177.104V234.793Z" fill="#1A1A1A"/>
<path d="M182.536 232.877C182.536 232.564 182.23 232.301 181.741 232.301C181.247 232.301 180.934 232.564 180.934 232.877C180.934 233.184 181.247 233.441 181.741 233.441C182.23 233.441 182.536 233.184 182.536 232.877ZM182.267 235.913H181.579V234.836C181.028 234.861 180.477 234.874 179.926 234.88L179.832 234.317C180.508 234.317 181.153 234.311 181.804 234.286C182.605 234.254 183.231 234.211 183.757 234.148L183.801 234.655C183.294 234.718 182.78 234.761 182.267 234.799V235.913ZM184.971 237.422H180.671V235.675H181.353V236.871H184.971V237.422ZM183.025 235.581V235.081H184.183V231.638H184.865V236.214H184.183V235.581H183.025ZM183.212 232.877C183.212 233.522 182.599 233.96 181.741 233.96C180.884 233.96 180.252 233.528 180.252 232.865C180.252 232.233 180.884 231.776 181.741 231.776C182.599 231.776 183.212 232.233 183.212 232.877Z" fill="#1A1A1A"/>
<path d="M234.921 235.688L234.514 236.201C234.007 235.875 233.375 235.143 233.156 234.492C232.956 235.193 232.361 235.938 231.71 236.332L231.291 235.832C232.211 235.237 232.793 234.254 232.793 233.121V232.151H233.5V233.084C233.5 234.223 234.051 235.143 234.921 235.688ZM236.192 237.572H235.51V231.638H236.192V237.572Z" fill="#1A1A1A"/>
<path d="M240.892 233.891C240.892 233.672 240.485 233.56 239.747 233.56C239.008 233.56 238.595 233.672 238.595 233.891C238.595 234.104 239.008 234.223 239.747 234.223C240.485 234.223 240.892 234.104 240.892 233.891ZM241.587 233.891C241.587 234.367 240.974 234.699 239.747 234.699C238.514 234.699 237.9 234.367 237.9 233.891C237.9 233.403 238.514 233.065 239.747 233.065C240.974 233.065 241.587 233.403 241.587 233.891ZM241.099 236.708C241.099 236.451 240.586 236.314 239.74 236.314C238.902 236.314 238.388 236.451 238.388 236.708C238.388 236.958 238.902 237.102 239.74 237.102C240.586 237.102 241.099 236.958 241.099 236.708ZM241.8 236.708C241.8 237.246 241.118 237.622 239.747 237.622C238.376 237.622 237.687 237.24 237.687 236.708C237.687 236.17 238.376 235.794 239.715 235.794C241.118 235.794 241.8 236.163 241.8 236.708ZM242.088 232.909H237.393V232.383H242.088V232.909ZM238.708 232.139V231.613H240.786V232.139H238.708ZM242.42 235.531H237.061V234.98H242.42V235.531Z" fill="#1A1A1A"/>
<path d="M246.425 235.713L246.018 236.22C245.511 235.901 244.841 235.143 244.629 234.492C244.422 235.193 243.834 235.938 243.189 236.326L242.763 235.832C243.683 235.237 244.266 234.254 244.266 233.121V232.145H244.967V233.084C244.967 234.223 245.555 235.168 246.425 235.713ZM247.708 237.572H247.026V234.254H245.868V233.685H247.026V231.638H247.708V237.572Z" fill="#1A1A1A"/>
<path d="M251.269 232.245C250.412 232.245 249.898 232.433 249.898 232.752C249.898 233.071 250.412 233.265 251.269 233.265C252.127 233.265 252.646 233.071 252.646 232.752C252.646 232.433 252.127 232.245 251.269 232.245ZM251.269 231.701C252.577 231.701 253.36 232.139 253.36 232.752C253.36 233.365 252.577 233.804 251.269 233.804C249.961 233.804 249.191 233.365 249.191 232.752C249.191 232.139 249.961 231.701 251.269 231.701ZM253.454 237.534H249.266V236.063H252.552V235.681H249.235V235.137H250.906V234.68H248.578V234.129H253.936V234.68H251.588V235.137H253.235V236.558H249.949V236.983H253.454V237.534Z" fill="#1A1A1A"/>
<path d="M257.021 235.406L257.109 235.957C256.614 236.07 255.844 236.12 255.125 236.12H254.53V232.358H256.764V232.909C256.251 232.909 255.725 232.902 255.218 232.902V235.556C255.963 235.556 256.57 235.506 257.021 235.406ZM259.337 237.572H258.68V234.567H258.079V237.284H257.434V231.757H258.079V233.998H258.68V231.638H259.337V237.572Z" fill="#1A1A1A"/>
<path d="M261.039 232.52V231.976H262.811V232.52H261.039ZM264.983 237.572H264.3V231.638H264.983V237.572ZM263.781 235.913L263.418 236.42C262.829 236.138 262.135 235.462 261.947 234.88C261.797 235.487 261.171 236.22 260.488 236.564L260.056 236.07C260.958 235.594 261.584 234.78 261.584 233.585V233.56H260.351V233.015H263.505V233.56H262.291V233.585C262.291 234.78 262.955 235.512 263.781 235.913Z" fill="#1A1A1A"/>
<path d="M271.335 234.674H270.509V237.572H269.827V231.638H270.509V234.104H271.335V234.674ZM269.483 235.613L269.533 236.151C268.331 236.314 267.098 236.364 265.865 236.37L265.771 235.788C266.159 235.788 266.566 235.794 266.985 235.782V234.098H267.667V235.757C268.437 235.719 269.007 235.669 269.483 235.613ZM266.096 232.301H269.157C269.163 233.347 269.094 234.292 268.95 234.893L268.3 234.818C268.393 234.329 268.462 233.509 268.469 232.852H266.096V232.301Z" fill="#1A1A1A"/>
<path d="M276.493 231.638V235.156H275.81V234.267H274.871V233.716H275.81V233.021H274.871V232.47H275.81V231.638H276.493ZM275.835 236.401C275.835 236.007 275.353 235.769 274.508 235.769C273.682 235.769 273.194 236.007 273.194 236.401C273.194 236.789 273.682 237.027 274.508 237.027C275.353 237.027 275.835 236.789 275.835 236.401ZM276.536 236.401C276.536 237.109 275.798 237.572 274.508 237.572C273.225 237.572 272.493 237.109 272.493 236.401C272.493 235.681 273.225 235.218 274.508 235.218C275.798 235.218 276.536 235.681 276.536 236.401ZM273.889 234.248V233.422H272.512V234.248H273.889ZM274.571 234.793H271.829V231.976H272.512V232.89H273.889V231.963H274.571V234.793Z" fill="#1A1A1A"/>
<path d="M280.004 232.877C280.004 232.564 279.697 232.301 279.209 232.301C278.714 232.301 278.401 232.564 278.401 232.877C278.401 233.184 278.714 233.441 279.209 233.441C279.697 233.441 280.004 233.184 280.004 232.877ZM279.734 235.913H279.046V234.836C278.495 234.861 277.944 234.874 277.393 234.88L277.299 234.317C277.976 234.317 278.62 234.311 279.271 234.286C280.072 234.254 280.698 234.211 281.224 234.148L281.268 234.655C280.761 234.718 280.248 234.761 279.734 234.799V235.913ZM282.438 237.422H278.138V235.675H278.821V236.871H282.438V237.422ZM280.492 235.581V235.081H281.65V231.638H282.332V236.214H281.65V235.581H280.492ZM280.68 232.877C280.68 233.522 280.066 233.96 279.209 233.96C278.351 233.96 277.719 233.528 277.719 232.865C277.719 232.233 278.351 231.776 279.209 231.776C280.066 231.776 280.68 232.233 280.68 232.877Z" fill="#1A1A1A"/>
<path d="M68.6758 264.276V266.604H69.5772V267.174H68.6758V270.21H67.9936V264.276H68.6758ZM67.6743 268.32L67.2863 268.814C66.7292 268.507 66.0156 267.75 65.8278 267.137C65.6713 267.769 65.083 268.551 64.3631 268.945L63.9375 268.438C64.8827 267.913 65.471 266.955 65.471 265.766V265.453H64.2317V264.896H67.3864V265.453H66.1784V265.766C66.1784 266.968 66.8105 267.838 67.6743 268.32Z" fill="#1A1A1A"/>
<path d="M71.8989 267.287V267.838H73.0882V267.287H71.8989ZM72.5186 264.864C71.6611 264.864 71.1478 265.071 71.1478 265.39C71.1478 265.709 71.6611 265.922 72.5186 265.922C73.3761 265.922 73.8957 265.709 73.8957 265.39C73.8957 265.071 73.3761 264.864 72.5186 264.864ZM72.5186 264.339C73.8268 264.339 74.5967 264.733 74.5967 265.39C74.5967 266.047 73.8268 266.442 72.5186 266.442C71.2104 266.442 70.453 266.047 70.453 265.39C70.453 264.733 71.2104 264.339 72.5186 264.339ZM74.7031 270.172H70.5093V268.758H73.8018V268.388H70.4968V267.838H71.2166V267.287H69.8271V266.736H75.1851V267.287H73.7705V267.838H74.484V269.252H71.1916V269.621H74.7031V270.172Z" fill="#1A1A1A"/>
<path d="M78.5959 270.204H77.9137V268.094H75.5852V267.55H80.9432V268.094H78.5959V270.204ZM80.4425 265.071H78.6398C78.7587 265.803 79.804 266.342 80.6928 266.435L80.3861 266.974C79.5536 266.855 78.5709 266.298 78.2705 265.747C77.9825 266.329 77.0248 266.867 76.1485 266.999L75.823 266.461C76.7369 266.367 77.7885 265.81 77.9074 265.071H76.0797V264.52H80.4425V265.071Z" fill="#1A1A1A"/>
<path d="M83.4527 266.993C83.4527 266.755 83.1773 266.592 82.808 266.592C82.4387 266.592 82.1758 266.755 82.1758 266.993C82.1758 267.224 82.4387 267.393 82.808 267.393C83.1836 267.393 83.4527 267.224 83.4527 266.993ZM82.0005 265.002V264.458H83.5842V265.002H82.0005ZM81.3058 265.853V265.315H84.1976V265.853H81.3058ZM84.3541 268.645C83.5216 268.645 83.0146 268.845 83.0146 269.177C83.0146 269.503 83.5216 269.703 84.3541 269.703C85.174 269.703 85.6873 269.503 85.6873 269.177C85.6873 268.845 85.174 268.645 84.3541 268.645ZM84.0474 266.993C84.0474 267.487 83.5529 267.9 82.808 267.9C82.0694 267.9 81.5749 267.487 81.5749 266.993C81.5749 266.504 82.0694 266.079 82.808 266.079C83.5529 266.079 84.0474 266.498 84.0474 266.993ZM86.3445 268.063H85.6936V266.473H85.1177V267.856H84.473V264.382H85.1177V265.903H85.6936V264.276H86.3445V268.063ZM86.3884 269.171C86.3884 269.828 85.6185 270.222 84.3603 270.222C83.0897 270.222 82.3135 269.828 82.3135 269.171C82.3135 268.52 83.0897 268.126 84.3603 268.126C85.6185 268.126 86.3884 268.52 86.3884 269.171Z" fill="#1A1A1A"/>
<path d="M89.707 267.093V268.232C90.4144 268.232 91.0027 268.207 91.5223 268.094L91.6224 268.626C91.0215 268.758 90.4456 268.795 89.0248 268.789V264.977H91.322V265.522H89.707V266.536H90.8838V267.093H89.707ZM92.023 267.099H91.2406V266.529H92.023V264.395H92.6677V269.928H92.023V267.099ZM93.857 270.21H93.206V264.276H93.857V270.21Z" fill="#1A1A1A"/>
<path d="M99.8342 267.043L99.4774 267.575C98.6011 267.343 97.5996 266.667 97.2929 265.947C97.0175 266.68 95.9972 267.356 95.1021 267.575L94.7641 267.018C95.7343 266.861 96.9424 266.054 96.9424 265.033V264.639H97.6559V265.033C97.6559 266.047 98.9391 266.88 99.8342 267.043ZM99.9719 269.427H94.6139V268.877H99.9719V269.427Z" fill="#1A1A1A"/>
<path d="M105.73 268.914V269.459H100.372V268.914H105.73ZM104.841 266.536H101.743V267.293H105.098V267.831H101.061V264.733H105.041V265.277H101.743V265.997H104.841V266.536Z" fill="#1A1A1A"/>
<path d="M113.242 268.914V269.459H107.884V268.914H113.242ZM112.354 266.536H109.255V267.293H112.61V267.831H108.573V264.733H112.554V265.277H109.255V265.997H112.354V266.536Z" fill="#1A1A1A"/>
<path d="M118.638 267.894H117.987V266.342H117.411V267.838H116.766V264.382H117.411V265.772H117.987V264.276H118.638V267.894ZM116.447 266.974L116.522 267.512C115.959 267.625 115.082 267.687 114.369 267.694H113.905V265.897H115.458V265.24H113.887V264.689H116.146V266.429H114.588V267.149C115.082 267.149 115.959 267.099 116.447 266.974ZM118.638 270.21H117.955V268.758H114.581V268.207H118.638V270.21Z" fill="#1A1A1A"/>
<path d="M67.6743 313.508L67.2675 314.015C66.7605 313.695 66.0907 312.938 65.8779 312.287C65.6713 312.988 65.083 313.733 64.4382 314.121L64.0126 313.627C64.9327 313.032 65.5149 312.049 65.5149 310.916V309.94H66.2159V310.879C66.2159 312.018 66.8043 312.963 67.6743 313.508ZM68.9575 315.367H68.2752V312.049H67.1173V311.48H68.2752V309.433H68.9575V315.367Z" fill="#1A1A1A"/>
<path d="M72.5186 310.04C71.6611 310.04 71.1478 310.228 71.1478 310.547C71.1478 310.866 71.6611 311.06 72.5186 311.06C73.3761 311.06 73.8957 310.866 73.8957 310.547C73.8957 310.228 73.3761 310.04 72.5186 310.04ZM72.5186 309.495C73.8268 309.495 74.6092 309.934 74.6092 310.547C74.6092 311.16 73.8268 311.599 72.5186 311.599C71.2104 311.599 70.4405 311.16 70.4405 310.547C70.4405 309.934 71.2104 309.495 72.5186 309.495ZM74.7031 315.329H70.5156V313.858H73.8018V313.476H70.4843V312.932H72.1556V312.475H69.8271V311.924H75.1851V312.475H72.8378V312.932H74.484V314.353H71.1979V314.778H74.7031V315.329Z" fill="#1A1A1A"/>
<path d="M78.2705 313.201L78.3581 313.752C77.8636 313.864 77.0937 313.915 76.3739 313.915H75.7792V310.153H78.0138V310.703C77.5006 310.703 76.9748 310.697 76.4678 310.697V313.351C77.2126 313.351 77.8198 313.301 78.2705 313.201ZM80.5864 315.367H79.9292V312.362H79.3283V315.079H78.6836V309.552H79.3283V311.793H79.9292V309.433H80.5864V315.367Z" fill="#1A1A1A"/>
<path d="M86.7156 313.483L86.3087 313.996C85.8017 313.67 85.1695 312.938 84.9504 312.287C84.7501 312.988 84.1555 313.733 83.5045 314.127L83.0851 313.627C84.0053 313.032 84.5874 312.049 84.5874 310.916V309.946H85.2947V310.879C85.2947 312.018 85.8455 312.938 86.7156 313.483ZM87.9862 315.367H87.3039V309.433H87.9862V315.367Z" fill="#1A1A1A"/>
<path d="M91.2656 312.112C91.2656 311.811 90.9214 311.636 90.5395 311.636C90.1452 311.636 89.8009 311.811 89.8009 312.112C89.8009 312.4 90.1515 312.575 90.5395 312.575C90.9214 312.575 91.2656 312.4 91.2656 312.112ZM91.9291 312.112C91.9291 312.694 91.3282 313.082 90.5395 313.082C89.7446 313.082 89.1374 312.694 89.1374 312.112C89.1374 311.517 89.7383 311.123 90.5395 311.123C91.3282 311.123 91.9291 311.517 91.9291 312.112ZM92.2546 310.91H88.8245V310.372H92.2546V310.91ZM91.4158 310.034H89.682V309.489H91.4158V310.034ZM93.0621 314.747V313.915H90.5521V314.747H93.0621ZM93.7443 315.285H89.8698V313.382H93.7443V315.285ZM93.0621 311.937H92.1545V311.367H93.0621V309.433H93.7443V313.082H93.0621V311.937Z" fill="#1A1A1A"/>
<path d="M99.7466 311.536L99.4336 312.093C98.5573 311.943 97.5933 311.367 97.2992 310.703C97.0363 311.367 96.0723 311.937 95.171 312.099L94.8705 311.536C95.9221 311.417 96.9424 310.722 96.9424 309.865V309.57H97.6622V309.865C97.6622 310.722 98.7889 311.448 99.7466 311.536ZM97.6246 315.373H96.9424V313.22H94.6139V312.675H99.9719V313.22H97.6246V315.373Z" fill="#1A1A1A"/>
<path d="M105.73 314.616H100.372V314.071H102.7V312.706H103.383V314.071H105.73V314.616ZM105.561 312.331L105.204 312.869C104.34 312.65 103.377 312.037 103.057 311.304C102.769 312.055 101.762 312.663 100.885 312.869L100.554 312.312C101.492 312.181 102.663 311.448 102.694 310.453H100.848V309.909H105.254V310.453H103.414C103.452 311.436 104.685 312.187 105.561 312.331Z" fill="#1A1A1A"/>
<path d="M281.601 265.346V269.177H278.816V265.346H281.601ZM280.913 268.626V265.891H279.498V268.626H280.913ZM283.404 270.704H282.722V264.77H283.404V270.704Z" fill="#1A1A1A"/>
<path d="M287.022 268.557L287.109 269.083C286.533 269.208 285.713 269.258 285 269.265H284.499V266.986H286.033V265.991H284.48V265.44H286.715V267.531H285.181V268.714C285.851 268.714 286.465 268.676 287.022 268.557ZM289.281 270.704H288.624V267.7H288.023V270.416H287.378V264.889H288.023V267.13H288.624V264.77H289.281V270.704Z" fill="#1A1A1A"/>
<path d="M294.057 267.5V265.785H291.384V267.5H294.057ZM295.396 269.953H290.038V269.409H292.367V268.044H290.702V265.24H294.739V268.044H293.049V269.409H295.396V269.953Z" fill="#1A1A1A"/>
<path d="M298.169 267.03V266.323H296.766V267.03H298.169ZM298.851 267.581H296.078V265.015H296.766V265.785H298.169V265.008H298.851V267.581ZM300.679 267.769H299.996V264.77H300.679V267.769ZM300.879 270.661H296.823V269.121H300.003V268.639H296.791V268.094H300.685V269.621H297.505V270.122H300.879V270.661Z" fill="#1A1A1A"/>
<path d="M306.437 270.704H305.754V264.77H306.437V270.704ZM305.21 268.576L305.285 269.133C304.628 269.252 303.701 269.315 302.625 269.321L301.892 269.327V266.93H303.902V265.841H301.867V265.29H304.584V267.475H302.575V268.758C303.276 268.758 304.446 268.72 305.21 268.576Z" fill="#1A1A1A"/>
<path d="M312.163 264.77V270.704H311.481V264.77H312.163ZM310.843 268.589L310.937 269.127C310.298 269.258 309.403 269.321 308.283 269.327L307.657 269.334V265.303H310.373V265.847H308.333V266.999H310.248V267.537H308.333V268.77C309.215 268.77 310.148 268.733 310.843 268.589Z" fill="#1A1A1A"/>
<path d="M317.108 269.634C317.108 269.296 316.588 269.096 315.75 269.096C314.917 269.096 314.398 269.296 314.398 269.634C314.398 269.972 314.917 270.16 315.75 270.16C316.588 270.16 317.108 269.972 317.108 269.634ZM317.809 269.628C317.809 270.291 317.058 270.711 315.756 270.711C314.441 270.711 313.697 270.291 313.697 269.628C313.697 268.977 314.441 268.545 315.75 268.545C317.058 268.545 317.809 268.977 317.809 269.628ZM317.79 266.961H316.081V267.581H318.429V268.132H313.071V267.581H315.399V266.961H313.778V264.933H317.746V265.49H314.46V266.41H317.79V266.961Z" fill="#1A1A1A"/>
<path d="M20.2203 48.8477L19.8635 49.3797C18.9872 49.1481 17.9857 48.4721 17.679 47.7523C17.4036 48.4846 16.3833 49.1607 15.4882 49.3797L15.1502 48.8227C16.1204 48.6662 17.3285 47.8587 17.3285 46.8384V46.4441H18.042V46.8384C18.042 47.8525 19.3252 48.6849 20.2203 48.8477ZM20.358 51.2325H15V50.6817H20.358V51.2325Z" fill="#1A1A1A"/>
<path d="M25.5966 47.1076H21.2526V46.563H25.5966V47.1076ZM25.5903 49.4298H23.7689V50.7192H26.1161V51.2638H20.7581V50.7192H23.0866V49.4298H21.2589V48.879H22.179L22.0225 47.4706L22.7048 47.4018L22.8237 48.879H24.0568L24.2759 47.4143L24.9456 47.5144L24.7015 48.879H25.5903V49.4298Z" fill="#1A1A1A"/>
<path d="M28.2125 46.8697V46.3189H30.1717V46.8697H28.2125ZM31.8743 51.2701H26.5162V50.7192H31.8743V51.2701ZM31.6677 49.2984L31.3923 49.8554C30.4847 49.7052 29.502 49.1294 29.1953 48.5159C28.8885 49.1419 27.9434 49.6864 26.9982 49.8492L26.7103 49.3171C27.6492 49.217 28.707 48.6224 28.8447 47.89H27.017V47.3392H31.3735V47.89H29.5583C29.7023 48.6161 30.7976 49.2358 31.6677 49.2984Z" fill="#1A1A1A"/>
<path d="M34.6734 46.2626H38.6857C38.6857 47.1201 38.6106 47.865 38.4854 48.4221H39.3867V48.9729H34.0287V48.4221H37.8281C37.8782 48.2468 37.9158 48.0027 37.9471 47.7398L34.5733 47.915L34.4794 47.3955L37.9846 47.2453C37.9971 47.0888 38.0034 46.9386 38.0034 46.8071H34.6734V46.2626ZM38.9298 51.9398H34.6859V50.4438H38.0284V49.9932H34.6546V49.4486H38.7107V50.9321H35.3745V51.3953H38.9298V51.9398Z" fill="#1A1A1A"/>
<path d="M43.0542 49.918L43.1231 50.4689C42.4909 50.5941 41.6709 50.6504 40.6694 50.6566H40.0122V48.228H41.94V47.1514H40.0122V46.6006H42.6223V48.7788H40.6944V50.0933C41.3078 50.0933 42.3031 50.0557 43.0542 49.918ZM43.9869 48.8978H43.0229V48.3282H43.9869V46.0811H44.6691V52.0149H43.9869V48.8978Z" fill="#1A1A1A"/>
<path d="M50.7653 48.8477L50.4085 49.3797C49.5322 49.1481 48.5307 48.4721 48.2239 47.7523C47.9485 48.4846 46.9283 49.1607 46.0332 49.3797L45.6952 48.8227C46.6654 48.6662 47.8734 47.8587 47.8734 46.8384V46.4441H48.587V46.8384C48.587 47.8525 49.8702 48.6849 50.7653 48.8477ZM50.903 51.2325H45.5449V50.6817H50.903V51.2325Z" fill="#1A1A1A"/>
<path d="M56.1854 52.0149H55.5031V48.8164H54.4328V48.2531H55.5031V46.0811H56.1854V52.0149ZM53.9696 48.2405V48.7914H52.2232V50.0996C53.0119 50.0996 53.8381 50.0808 54.6393 49.918L54.7395 50.4563C54.1198 50.5941 53.2873 50.6504 52.1669 50.6566H51.5472V46.6131H54.2637V47.1577H52.2232V48.2405H53.9696Z" fill="#1A1A1A"/>
<path d="M212.639 275.486C212.639 276.134 213.17 276.709 214.002 276.941L213.733 277.4C213.091 277.216 212.608 276.828 212.357 276.324C212.119 276.874 211.642 277.299 210.988 277.503L210.707 277.045C211.545 276.8 212.064 276.177 212.064 275.486V275.401H210.872V274.936H212.064V274.3H212.645V274.936H213.831V275.401H212.639V275.486ZM215.285 274.325V277.558H214.705V276.305H213.678V275.829H214.705V274.325H215.285ZM215.285 277.821V279.735H211.673V277.821H215.285ZM212.247 278.292V279.264H214.717V278.292H212.247ZM220.432 274.319V275.908H221.233V276.391H220.432V278.286H219.852V274.319H220.432ZM218.819 274.789V275.26H216.948V276.856C218.015 276.859 218.617 276.825 219.301 276.684L219.369 277.155C218.629 277.302 217.981 277.338 216.808 277.338H216.374V274.789H218.819ZM220.665 279.215V279.686H216.96V277.876H217.541V279.215H220.665ZM227.492 275.804V276.275H225.854V276.935H228.067V277.412H223.067V276.935H225.28V276.275H223.733V274.423H224.308V275.804H227.492ZM225.561 277.785C226.741 277.785 227.45 278.151 227.45 278.793C227.45 279.429 226.741 279.796 225.561 279.79C224.375 279.796 223.66 279.429 223.66 278.793C223.66 278.151 224.375 277.785 225.561 277.785ZM225.561 278.237C224.723 278.237 224.247 278.433 224.247 278.793C224.247 279.136 224.723 279.343 225.561 279.343C226.386 279.343 226.869 279.136 226.869 278.793C226.869 278.433 226.386 278.237 225.561 278.237ZM229.993 274.575C230.714 274.569 231.27 274.988 231.392 275.602H232.462V274.325H233.043V277.265H232.462V276.079H231.398C231.279 276.709 230.72 277.131 229.993 277.131C229.155 277.131 228.556 276.605 228.556 275.847C228.556 275.101 229.155 274.569 229.993 274.575ZM229.993 275.058C229.473 275.058 229.112 275.376 229.112 275.847C229.112 276.318 229.473 276.642 229.993 276.642C230.5 276.642 230.86 276.318 230.86 275.847C230.86 275.376 230.5 275.058 229.993 275.058ZM230.048 277.528V278.164H232.462V277.528H233.043V279.735H229.473V277.528H230.048ZM230.048 279.258H232.462V278.622H230.048V279.258ZM239.981 274.331V278.365H239.4V276.941H238.043C237.783 277.25 237.386 277.436 236.93 277.436C236.105 277.436 235.494 276.862 235.494 276.055C235.494 275.242 236.105 274.667 236.93 274.661C237.383 274.664 237.777 274.851 238.037 275.156H239.4V274.331H239.981ZM240.127 279.215V279.686H236.423V277.944H237.004V279.215H240.127ZM236.93 275.181C236.417 275.181 236.05 275.535 236.05 276.055C236.05 276.574 236.417 276.923 236.93 276.923C237.425 276.923 237.798 276.574 237.798 276.055C237.798 275.535 237.425 275.181 236.93 275.181ZM238.293 275.627C238.33 275.758 238.355 275.902 238.355 276.055C238.355 276.201 238.333 276.342 238.293 276.47H239.4V275.627H238.293ZM245.182 274.667V275.15C245.182 275.67 245.182 276.232 245.03 277.014H245.818V277.491H243.599V279.808H243.012V277.491H240.824V277.014H244.443C244.608 276.235 244.608 275.66 244.608 275.15V275.144H241.435V274.667H245.182Z" fill="#1A1A1A"/>
</g>
</svg>
