<svg width="304" height="349" viewBox="0 0 304 349" fill="none" xmlns="http://www.w3.org/2000/svg">
<path d="M123.85 300.959H279.179V320.407H246.095V317.256H228.925V310.48H222.466V319.303H179.145V310.64H123.85V300.959Z" fill="#FEDF73"/>
<path d="M221.416 329.387H191.402V335.164H221.416V329.387Z" fill="#FEDF73"/>
<path d="M274.139 341.019H257.986V349H274.139V341.019Z" fill="white"/>
<path d="M249.876 338.707H240.844V346.161H249.876V338.707Z" fill="white"/>
<path d="M249.877 338.707H235.174V342.434H249.877V338.707Z" fill="white"/>
<path d="M278.462 252.546H247.691V283.317H278.462V252.546Z" fill="#FEDF73"/>
<path d="M86.0045 215.911H47.7285V228.37H86.0045V215.911Z" fill="white"/>
<path d="M86.0045 200.822H47.7285V213.282H86.0045V200.822Z" fill="white"/>
<path d="M68.3079 61.6206H51.0195V91.1585H68.3079V61.6206Z" fill="#FEDF73"/>
<path d="M68.3079 28.7773H51.0195V58.3153H68.3079V28.7773Z" fill="#FEDF73"/>
<path d="M70.3145 91.1613V28.7773H81.1744V40.1287L76.3892 46.3098H73.3002V64.0301L76.4455 70.3896L73.3002 76.5707V91.1613H70.3145Z" fill="#FEDF73"/>
<path d="M72.367 105.477H64.6586V111.401H55.5293V162.963H72.367V105.477Z" fill="#FEDF73"/>
<path d="M54.5893 163.901V138.253H40.3242V167.794H57.6157V163.901H54.5893Z" fill="#FEDF73"/>
<path d="M229.416 7.21078V68.612H286.705M193.731 181.249V242.65M95.3218 0V242.65M34.5215 242.65H286.702M34.5215 292.719H286.702M95.8288 181.249H286.702" stroke="#DCDDDD" stroke-width="0.447097" stroke-miterlimit="10"/>
<path d="M38.5781 93.5245V29.92L50.6743 17.8081H95.3224" stroke="#DCDDDD" stroke-width="0.447097" stroke-miterlimit="10"/>
<path d="M264.491 204.456H224.168V223.957H264.491V204.456Z" fill="white"/>
<path d="M266.912 18.8062H249.201V57.0821H266.912V18.8062Z" fill="#FEDF73"/>
<path d="M143.84 211.707H169.578V196.75H133.155V210.903H122.633V225.882H143.84V211.707Z" fill="white"/>
<path d="M173.606 213.084H145.217V229.224H173.606V213.084Z" fill="white"/>
<path d="M131.776 195.674H117.924V209.526H131.776V195.674Z" fill="white"/>
<path d="M264.491 204.456H224.168V223.957H264.491V204.456Z" stroke="#FEDF73" stroke-width="0.312968" stroke-miterlimit="10"/>
<path d="M143.84 211.707H169.578V196.75H133.155V210.903H122.633V225.882H143.84V211.707Z" stroke="#FEDF73" stroke-width="0.312968" stroke-miterlimit="10"/>
<path d="M173.606 213.084H145.217V229.224H173.606V213.084Z" stroke="#FEDF73" stroke-width="0.312968" stroke-miterlimit="10"/>
<path d="M131.776 195.674H117.924V209.526H131.776V195.674Z" stroke="#FEDF73" stroke-width="0.312968" stroke-miterlimit="10"/>
<path d="M142.379 269.19L140.291 271.256V278.779L142.379 280.842H185.089L187.177 278.779V271.256L185.089 269.19H142.379Z" fill="#FEDF73"/>
<path d="M142.379 255.022L140.291 257.084V264.608L142.379 266.674H185.089L187.177 264.608V257.084L185.089 255.022H142.379Z" fill="#FEDF73"/>
<path d="M191.683 269.19L189.596 271.256V278.779L191.683 280.842H234.394L236.481 278.779V271.256L234.394 269.19H191.683Z" fill="#FEDF73"/>
<path d="M234.985 252.546H119.931C118.548 253.914 117.772 254.681 116.389 256.048V279.815C117.772 281.183 118.548 281.95 119.931 283.317H234.985C236.368 281.95 237.144 281.183 238.528 279.815V256.048C237.144 254.681 236.368 253.914 234.985 252.546ZM137.855 277.794L134.453 281.155H121.941L118.539 277.794V258.07L121.941 254.709H134.453L134.5 254.753C135.79 256.03 136.516 256.746 137.808 258.023L137.855 258.07V277.794ZM187.492 278.908L185.22 281.152H142.252L139.98 278.908V271.121L142.252 268.874H185.22L187.492 271.121V278.908ZM187.492 264.74L185.22 266.987H142.252L139.98 264.74V256.956L142.252 254.709H185.22L187.492 256.956V264.74ZM236.794 278.908L234.522 281.152H191.554L189.282 278.908V271.121L191.554 268.874H234.522L236.794 271.121V278.908ZM236.794 264.74L234.522 266.987H191.554L189.282 264.74V256.956L191.554 254.709H234.522L236.794 256.956V264.74Z" fill="#FEDF73"/>
<path d="M122.071 255.022L118.854 258.202V277.662L122.071 280.842H134.327L137.544 277.662V258.202C136.295 256.969 135.575 256.258 134.327 255.022H122.071Z" fill="#FEDF73"/>
<path d="M191.683 255.022L189.596 257.084V264.608L191.683 266.674H234.394L236.481 264.608V257.084L234.394 255.022H191.683Z" fill="#FEDF73"/>
<path d="M245.763 199.965H220.25V207.141H245.763V199.965Z" fill="white"/>
<path d="M245.763 199.965H220.25V207.141H245.763V199.965Z" stroke="#FEDF73" stroke-width="0.312968" stroke-miterlimit="10"/>
<path d="M63.7205 100.457H39.3027V110.462H63.7205V100.457Z" fill="#FEDF73"/>
<path d="M180.058 51.5794H179.376V45.6455H180.058V51.5794ZM178.875 49.6515L178.481 50.146C177.924 49.8393 177.204 49.0819 177.016 48.4685C176.86 49.1069 176.259 49.8956 175.558 50.2712L175.12 49.7704C176.071 49.2384 176.66 48.2995 176.66 47.0977V46.8035H175.42V46.2652H178.575V46.8035H177.367V47.0914C177.367 48.2932 178.005 49.1758 178.875 49.6515Z" fill="#1A1A1A"/>
<path d="M184.972 50.4903C184.972 50.1335 184.452 49.9269 183.607 49.9269C182.775 49.9269 182.249 50.1335 182.249 50.4903C182.249 50.8408 182.775 51.0411 183.607 51.0411C184.452 51.0411 184.972 50.8408 184.972 50.4903ZM185.673 50.484C185.673 51.1475 184.934 51.5856 183.613 51.5856C182.293 51.5856 181.554 51.1475 181.554 50.484C181.554 49.8142 182.293 49.3761 183.607 49.3761C184.934 49.3761 185.673 49.8142 185.673 50.484ZM185.629 47.7299H181.654V45.7582H182.336V47.1791H185.629V47.7299ZM186.286 48.8816H180.928V48.3308H186.286V48.8816Z" fill="#1A1A1A"/>
<path d="M189.603 50.0145C188.783 50.0145 188.307 50.2336 188.307 50.5466C188.307 50.8658 188.783 51.0786 189.603 51.0786C190.435 51.0786 190.899 50.8658 190.899 50.5466C190.899 50.2274 190.435 50.0145 189.603 50.0145ZM191.606 50.5403C191.606 51.185 190.88 51.5982 189.603 51.5982C188.326 51.5982 187.606 51.185 187.606 50.5403C187.606 49.9081 188.326 49.4888 189.603 49.4888C190.88 49.4888 191.606 49.9081 191.606 50.5403ZM189.09 48.312C189.09 48.0178 188.752 47.8425 188.37 47.8425C187.976 47.8425 187.638 48.0178 187.638 48.312C187.638 48.6062 187.982 48.7877 188.37 48.7877C188.752 48.7877 189.09 48.6062 189.09 48.312ZM189.753 48.3183C189.753 48.8941 189.159 49.2885 188.37 49.2885C187.575 49.2885 186.974 48.8941 186.974 48.312C186.974 47.7299 187.569 47.3355 188.37 47.3355C189.159 47.3355 189.753 47.7299 189.753 48.3183ZM189.897 47.1227H186.699V46.5844H189.897V47.1227ZM189.246 46.2464H187.512V45.7018H189.246V46.2464ZM190.029 47.5922V47.0351H190.886V45.6455H191.575V49.4262H190.886V48.7063H190.029V48.1555H190.886V47.5922H190.029Z" fill="#1A1A1A"/>
<path d="M196.431 47.6861V46.4467H193.815V47.6861H196.431ZM195.455 51.5856H194.773V49.5889H192.444V49.0381H197.802V49.5889H195.455V51.5856ZM197.114 45.8959V48.2369H193.133V45.8959H197.114Z" fill="#1A1A1A"/>
<path d="M200.737 47.5358C200.737 47.0163 200.418 46.6533 199.899 46.6533C199.392 46.6533 199.054 47.0351 199.054 47.5358C199.054 48.0241 199.392 48.4121 199.899 48.4121C200.418 48.4121 200.737 48.0241 200.737 47.5358ZM201.42 47.5358C201.42 48.3808 200.806 48.988 199.899 48.988C198.991 48.988 198.371 48.3871 198.371 47.5421C198.371 46.6971 198.985 46.0837 199.899 46.0837C200.806 46.0837 201.42 46.6908 201.42 47.5358ZM203.222 51.4104H199.16V49.5451H199.842V50.8596H203.222V51.4104ZM203.085 49.9519H202.402V45.6455H203.085V49.9519Z" fill="#1A1A1A"/>
<path d="M206.508 48.1868C206.508 47.2354 206.158 46.6658 205.651 46.6658C205.15 46.6658 204.805 47.2354 204.805 48.1868C204.805 49.1382 205.15 49.7078 205.651 49.7078C206.158 49.7078 206.508 49.1382 206.508 48.1868ZM204.136 48.1868C204.136 46.9349 204.699 46.1087 205.651 46.1087C206.602 46.1087 207.159 46.9349 207.159 48.1931C207.159 49.4387 206.602 50.2587 205.651 50.2587C204.699 50.2587 204.136 49.4387 204.136 48.1868ZM208.843 51.5794H208.161V45.6455H208.843V51.5794Z" fill="#1A1A1A"/>
<path d="M213.756 50.509C213.756 50.171 213.236 49.9707 212.398 49.9707C211.565 49.9707 211.046 50.171 211.046 50.509C211.046 50.847 211.565 51.0348 212.398 51.0348C213.236 51.0348 213.756 50.847 213.756 50.509ZM214.457 50.5028C214.457 51.1663 213.706 51.5856 212.404 51.5856C211.089 51.5856 210.345 51.1663 210.345 50.5028C210.345 49.8518 211.089 49.4199 212.398 49.4199C213.706 49.4199 214.457 49.8518 214.457 50.5028ZM214.438 47.8363H212.729V48.456H215.077V49.0068H209.719V48.456H212.047V47.8363H210.426V45.8083H214.394V46.3653H211.108V47.2855H214.438V47.8363Z" fill="#1A1A1A"/>
<path d="M217.711 46.6783H216.159V46.1275H217.711V46.6783ZM220.478 51.5794H219.827V45.6455H220.478V51.5794ZM219.314 51.2977H218.669V48.8065H217.912V48.2369H218.669V45.7644H219.314V51.2977ZM218.412 49.8393L218.018 50.3212C217.599 50.0709 217.079 49.495 216.929 48.9504C216.791 49.5263 216.284 50.171 215.783 50.4652L215.358 50.0083C216.121 49.5138 216.591 48.8065 216.603 47.6673H215.571V47.1165H218.262V47.6673H217.267C217.286 48.7752 217.768 49.4762 218.412 49.8393Z" fill="#1A1A1A"/>
<path d="M223.701 47.5484C223.701 47.0288 223.382 46.6658 222.862 46.6658C222.355 46.6658 222.017 47.0476 222.017 47.5484C222.017 48.0366 222.355 48.4247 222.862 48.4247C223.382 48.4247 223.701 48.0366 223.701 47.5484ZM224.383 47.5484C224.383 48.3934 223.77 49.0005 222.862 49.0005C221.955 49.0005 221.335 48.3996 221.335 47.5546C221.335 46.7096 221.948 46.0962 222.862 46.0962C223.77 46.0962 224.383 46.7033 224.383 47.5484ZM226.236 51.4104H222.211V49.5576H222.894V50.8596H226.236V51.4104ZM224.502 48.5123L224.515 47.9552H225.435V47.0288H224.515L224.502 46.4717H225.435V45.6455H226.117V49.9519H225.435V48.5123H224.502Z" fill="#1A1A1A"/>
<path d="M227.669 45.9898H231.644C231.644 46.9788 231.587 47.8112 231.443 48.5186H232.351V49.0694H230.004V51.5794H229.321V49.0694H226.993V48.5186H230.786C230.899 47.9928 230.949 47.2354 230.955 46.5469H227.669V45.9898Z" fill="#1A1A1A"/>
<path d="M236.788 50.509C236.788 50.171 236.269 49.9707 235.43 49.9707C234.598 49.9707 234.078 50.171 234.078 50.509C234.078 50.847 234.598 51.0348 235.43 51.0348C236.269 51.0348 236.788 50.847 236.788 50.509ZM237.489 50.5028C237.489 51.1663 236.738 51.5856 235.436 51.5856C234.122 51.5856 233.377 51.1663 233.377 50.5028C233.377 49.8518 234.122 49.4199 235.43 49.4199C236.738 49.4199 237.489 49.8518 237.489 50.5028ZM237.471 47.8363H235.762V48.456H238.109V49.0068H232.751V48.456H235.08V47.8363H233.458V45.8083H237.427V46.3653H234.141V47.2855H237.471V47.8363Z" fill="#1A1A1A"/>
<path d="M167.374 172.001L167.393 171.257L166.779 171.645L166.623 171.369L167.261 171.031L166.623 170.687L166.779 170.412L167.393 170.793L167.374 170.055H167.699L167.687 170.793L168.307 170.412L168.457 170.687L167.818 171.031L168.457 171.369L168.307 171.645L167.687 171.257L167.699 172.001H167.374Z" fill="#1A1A1A"/>
<path d="M170.917 174.618V174.336L172.019 173.197C172.651 172.54 173.064 172.07 173.064 171.419C173.064 170.812 172.783 170.505 172.144 170.505C171.75 170.505 171.387 170.699 171.13 170.887L170.974 170.505C171.243 170.324 171.7 170.086 172.194 170.086C173.077 170.086 173.559 170.593 173.559 171.382C173.559 172.145 173.133 172.64 172.326 173.466L171.587 174.205H173.671V174.618H170.917Z" fill="#1A1A1A"/>
<path d="M176.109 174.299C176.817 174.299 177.199 173.829 177.199 172.665V172.145C177.199 171.012 176.823 170.493 176.116 170.493C175.402 170.493 175.008 170.987 175.008 172.114V172.634C175.008 173.76 175.402 174.299 176.109 174.299ZM176.109 174.699C175.208 174.699 174.507 174.073 174.507 172.577V172.183C174.507 170.612 175.252 170.092 176.116 170.092C176.979 170.092 177.68 170.612 177.68 172.158V172.584C177.68 174.073 177.011 174.699 176.109 174.699Z" fill="#1A1A1A"/>
<path d="M178.497 174.618V174.336L179.599 173.197C180.231 172.54 180.644 172.07 180.644 171.419C180.644 170.812 180.362 170.505 179.724 170.505C179.329 170.505 178.966 170.699 178.71 170.887L178.553 170.505C178.822 170.324 179.279 170.086 179.774 170.086C180.656 170.086 181.138 170.593 181.138 171.382C181.138 172.145 180.713 172.64 179.905 173.466L179.167 174.205H181.251V174.618H178.497Z" fill="#1A1A1A"/>
<path d="M183.388 170.499C182.787 170.499 182.43 170.956 182.43 171.588C182.43 172.308 182.85 172.615 183.4 172.615C183.845 172.615 184.233 172.302 184.427 172.026V171.901C184.427 171.05 184.12 170.499 183.388 170.499ZM183.382 170.092C184.358 170.092 184.903 170.768 184.903 172.033V172.321C184.903 173.835 184.314 174.699 183.238 174.699C182.781 174.699 182.368 174.561 182.161 174.424L182.305 174.08C182.499 174.192 182.856 174.299 183.219 174.299C183.964 174.299 184.377 173.785 184.427 172.515C184.183 172.803 183.82 173.028 183.319 173.028C182.574 173.028 181.955 172.483 181.955 171.638C181.955 170.812 182.499 170.092 183.382 170.092Z" fill="#1A1A1A"/>
<path d="M187.963 170.687V170.336H189.847V169.548H190.273V173.76H189.847V171.77H187.963V171.419H189.847V170.687H187.963ZM188.746 172.402L188.808 172.765C187.932 172.915 186.799 172.978 185.867 172.978V169.98H186.292V172.602C186.993 172.602 187.988 172.54 188.746 172.402ZM190.461 175.194H186.555V173.51H186.981V174.831H190.461V175.194Z" fill="#1A1A1A"/>
<path d="M197.942 175.369H197.516V172.271H196.665V175.062H196.246V169.698H196.665V171.908H197.516V169.548H197.942V175.369ZM193.266 170.286H195.507C195.457 172.014 194.65 173.247 193.31 174.123L193.016 173.792C194.236 173.097 195 171.851 195.05 170.649H193.266V170.286Z" fill="#1A1A1A"/>
<path d="M200.827 173.71H200.401V172.665C199.869 172.69 199.375 172.696 198.837 172.709L198.749 172.327C199.444 172.327 200.051 172.308 200.683 172.289C201.365 172.258 201.935 172.227 202.517 172.164L202.555 172.502C202.192 172.552 201.478 172.596 200.827 172.64V173.71ZM203.669 175.225H199.6V173.56H200.026V174.862H203.669V175.225ZM203.544 173.992H203.118V173.341H201.948V172.984H203.118V169.548H203.544V173.992ZM201.666 170.9C201.666 170.48 201.234 170.205 200.621 170.205C200.013 170.205 199.575 170.468 199.575 170.9C199.575 171.332 200.013 171.582 200.621 171.582C201.234 171.582 201.666 171.332 201.666 170.9ZM202.098 170.9C202.098 171.57 201.478 171.945 200.621 171.945C199.769 171.945 199.143 171.576 199.143 170.9C199.143 170.23 199.769 169.836 200.621 169.836C201.478 169.836 202.098 170.23 202.098 170.9Z" fill="#1A1A1A"/>
<path d="M209.66 171.325H208.84C208.884 171.544 208.903 171.782 208.903 172.039C208.903 172.314 208.878 172.559 208.834 172.784H209.66V171.325ZM211.213 175.369H210.787V169.548H211.213V175.369ZM208.465 172.039C208.465 171.012 208.158 170.399 207.651 170.399C207.144 170.399 206.837 171.012 206.837 172.039C206.837 173.066 207.144 173.679 207.651 173.679C208.158 173.679 208.465 173.066 208.465 172.039ZM207.651 170.042C208.177 170.042 208.552 170.38 208.746 170.962H209.66V169.66H210.08V175.062H209.66V173.147H208.74C208.54 173.71 208.171 174.036 207.651 174.036C206.85 174.036 206.399 173.266 206.399 172.039C206.399 170.812 206.85 170.042 207.651 170.042Z" fill="#1A1A1A"/>
<path d="M216.389 171.407H215.224V171.044H216.389V169.548H216.814V173.166H216.389V171.407ZM212.276 170.361V169.998H215.337V170.361H214.016V170.712C214.016 171.482 214.767 172.177 215.468 172.408L215.231 172.759C214.636 172.515 214.023 171.964 213.791 171.438C213.641 171.976 212.958 172.634 212.314 172.922L212.07 172.596C212.808 172.302 213.591 171.501 213.591 170.712V170.361H212.276ZM214.918 173.554C213.973 173.554 213.409 173.817 213.409 174.28C213.409 174.737 213.973 175 214.918 175C215.869 175 216.426 174.737 216.426 174.28C216.426 173.817 215.869 173.554 214.918 173.554ZM216.858 174.28C216.858 174.95 216.163 175.369 214.918 175.369C213.672 175.369 212.977 174.95 212.977 174.28C212.977 173.604 213.672 173.184 214.918 173.184C216.163 173.184 216.858 173.604 216.858 174.28Z" fill="#1A1A1A"/>
<path d="M122.474 235.688L122.067 236.201C121.56 235.875 120.928 235.143 120.708 234.492C120.508 235.193 119.914 235.938 119.263 236.332L118.843 235.832C119.763 235.237 120.345 234.254 120.345 233.121V232.151H121.053V233.084C121.053 234.223 121.604 235.143 122.474 235.688ZM123.744 237.572H123.062V231.638H123.744V237.572Z" fill="#1A1A1A"/>
<path d="M128.445 233.891C128.445 233.672 128.038 233.56 127.299 233.56C126.561 233.56 126.147 233.672 126.147 233.891C126.147 234.104 126.561 234.223 127.299 234.223C128.038 234.223 128.445 234.104 128.445 233.891ZM129.139 233.891C129.139 234.367 128.526 234.699 127.299 234.699C126.066 234.699 125.453 234.367 125.453 233.891C125.453 233.403 126.066 233.065 127.299 233.065C128.526 233.065 129.139 233.403 129.139 233.891ZM128.651 236.708C128.651 236.451 128.138 236.314 127.293 236.314C126.454 236.314 125.941 236.451 125.941 236.708C125.941 236.958 126.454 237.102 127.293 237.102C128.138 237.102 128.651 236.958 128.651 236.708ZM129.352 236.708C129.352 237.246 128.67 237.622 127.299 237.622C125.928 237.622 125.24 237.24 125.24 236.708C125.24 236.17 125.928 235.794 127.268 235.794C128.67 235.794 129.352 236.163 129.352 236.708ZM129.64 232.909H124.946V232.383H129.64V232.909ZM126.26 232.139V231.613H128.338V232.139H126.26ZM129.972 235.531H124.614V234.98H129.972V235.531Z" fill="#1A1A1A"/>
<path d="M132.193 235.487V234.192H131.223V235.487H132.193ZM132.876 236.032H130.535V232.264H131.223V233.653H132.193V232.251H132.876V236.032ZM135.373 237.572H134.722V234.567H134.146V237.29H133.502V231.757H134.146V233.998H134.722V231.638H135.373V237.572Z" fill="#1A1A1A"/>
<path d="M140.837 237.49H136.787V235.387H140.781V235.938H137.47V236.94H140.837V237.49ZM141.488 234.786H136.13V234.242H138.189V233.203H138.872V234.242H141.488V234.786ZM136.756 231.851H140.793C140.8 232.495 140.756 233.322 140.618 233.879L139.955 233.791C140.061 233.347 140.105 232.89 140.105 232.395H136.756V231.851Z" fill="#1A1A1A"/>
<path d="M145.494 235.713L145.087 236.22C144.58 235.901 143.91 235.143 143.697 234.492C143.491 235.193 142.902 235.938 142.258 236.326L141.832 235.832C142.752 235.237 143.334 234.254 143.334 233.121V232.145H144.035V233.084C144.035 234.223 144.624 235.168 145.494 235.713ZM146.777 237.572H146.094V234.254H144.937V233.685H146.094V231.638H146.777V237.572Z" fill="#1A1A1A"/>
<path d="M150.338 232.245C149.48 232.245 148.967 232.433 148.967 232.752C148.967 233.071 149.48 233.265 150.338 233.265C151.195 233.265 151.715 233.071 151.715 232.752C151.715 232.433 151.195 232.245 150.338 232.245ZM150.338 231.701C151.646 231.701 152.428 232.139 152.428 232.752C152.428 233.365 151.646 233.804 150.338 233.804C149.03 233.804 148.26 233.365 148.26 232.752C148.26 232.139 149.03 231.701 150.338 231.701ZM152.522 237.534H148.335V236.063H151.621V235.681H148.304V235.137H149.975V234.68H147.646V234.129H153.004V234.68H150.657V235.137H152.303V236.558H149.017V236.983H152.522V237.534Z" fill="#1A1A1A"/>
<path d="M156.09 235.406L156.177 235.957C155.683 236.07 154.913 236.12 154.193 236.12H153.598V232.358H155.833V232.909C155.32 232.909 154.794 232.902 154.287 232.902V235.556C155.032 235.556 155.639 235.506 156.09 235.406ZM158.406 237.572H157.748V234.567H157.148V237.284H156.503V231.757H157.148V233.998H157.748V231.638H158.406V237.572Z" fill="#1A1A1A"/>
<path d="M164.045 231.638V235.156H163.363V234.267H162.424V233.716H163.363V233.021H162.424V232.47H163.363V231.638H164.045ZM163.388 236.401C163.388 236.007 162.906 235.769 162.061 235.769C161.234 235.769 160.746 236.007 160.746 236.401C160.746 236.789 161.234 237.027 162.061 237.027C162.906 237.027 163.388 236.789 163.388 236.401ZM164.089 236.401C164.089 237.109 163.35 237.572 162.061 237.572C160.777 237.572 160.045 237.109 160.045 236.401C160.045 235.681 160.777 235.218 162.061 235.218C163.35 235.218 164.089 235.681 164.089 236.401ZM161.441 234.248V233.422H160.064V234.248H161.441ZM162.123 234.793H159.382V231.976H160.064V232.89H161.441V231.963H162.123V234.793Z" fill="#1A1A1A"/>
<path d="M167.556 232.877C167.556 232.564 167.249 232.301 166.761 232.301C166.266 232.301 165.953 232.564 165.953 232.877C165.953 233.184 166.266 233.441 166.761 233.441C167.249 233.441 167.556 233.184 167.556 232.877ZM167.287 235.913H166.598V234.836C166.047 234.861 165.497 234.874 164.946 234.88L164.852 234.317C165.528 234.317 166.173 234.311 166.824 234.286C167.625 234.254 168.251 234.211 168.776 234.148L168.82 234.655C168.313 234.718 167.8 234.761 167.287 234.799V235.913ZM169.991 237.422H165.691V235.675H166.373V236.871H169.991V237.422ZM168.044 235.581V235.081H169.202V231.638H169.884V236.214H169.202V235.581H168.044ZM168.232 232.877C168.232 233.522 167.618 233.96 166.761 233.96C165.903 233.96 165.271 233.528 165.271 232.865C165.271 232.233 165.903 231.776 166.761 231.776C167.618 231.776 168.232 232.233 168.232 232.877Z" fill="#1A1A1A"/>
<path d="M219.941 235.688L219.534 236.201C219.027 235.875 218.395 235.143 218.176 234.492C217.975 235.193 217.381 235.938 216.73 236.332L216.31 235.832C217.23 235.237 217.813 234.254 217.813 233.121V232.151H218.52V233.084C218.52 234.223 219.071 235.143 219.941 235.688ZM221.211 237.572H220.529V231.638H221.211V237.572Z" fill="#1A1A1A"/>
<path d="M225.912 233.891C225.912 233.672 225.505 233.56 224.766 233.56C224.028 233.56 223.615 233.672 223.615 233.891C223.615 234.104 224.028 234.223 224.766 234.223C225.505 234.223 225.912 234.104 225.912 233.891ZM226.607 233.891C226.607 234.367 225.993 234.699 224.766 234.699C223.533 234.699 222.92 234.367 222.92 233.891C222.92 233.403 223.533 233.065 224.766 233.065C225.993 233.065 226.607 233.403 226.607 233.891ZM226.118 236.708C226.118 236.451 225.605 236.314 224.76 236.314C223.921 236.314 223.408 236.451 223.408 236.708C223.408 236.958 223.921 237.102 224.76 237.102C225.605 237.102 226.118 236.958 226.118 236.708ZM226.819 236.708C226.819 237.246 226.137 237.622 224.766 237.622C223.395 237.622 222.707 237.24 222.707 236.708C222.707 236.17 223.395 235.794 224.735 235.794C226.137 235.794 226.819 236.163 226.819 236.708ZM227.107 232.909H222.413V232.383H227.107V232.909ZM223.727 232.139V231.613H225.805V232.139H223.727ZM227.439 235.531H222.081V234.98H227.439V235.531Z" fill="#1A1A1A"/>
<path d="M231.445 235.713L231.038 236.22C230.531 235.901 229.861 235.143 229.648 234.492C229.442 235.193 228.853 235.938 228.208 236.326L227.783 235.832C228.703 235.237 229.285 234.254 229.285 233.121V232.145H229.986V233.084C229.986 234.223 230.574 235.168 231.445 235.713ZM232.728 237.572H232.045V234.254H230.887V233.685H232.045V231.638H232.728V237.572Z" fill="#1A1A1A"/>
<path d="M236.289 232.245C235.431 232.245 234.918 232.433 234.918 232.752C234.918 233.071 235.431 233.265 236.289 233.265C237.146 233.265 237.666 233.071 237.666 232.752C237.666 232.433 237.146 232.245 236.289 232.245ZM236.289 231.701C237.597 231.701 238.379 232.139 238.379 232.752C238.379 233.365 237.597 233.804 236.289 233.804C234.981 233.804 234.211 233.365 234.211 232.752C234.211 232.139 234.981 231.701 236.289 231.701ZM238.473 237.534H234.286V236.063H237.572V235.681H234.255V235.137H235.926V234.68H233.597V234.129H238.955V234.68H236.608V235.137H238.254V236.558H234.968V236.983H238.473V237.534Z" fill="#1A1A1A"/>
<path d="M242.041 235.406L242.128 235.957C241.634 236.07 240.864 236.12 240.144 236.12H239.549V232.358H241.784V232.909C241.271 232.909 240.745 232.902 240.238 232.902V235.556C240.983 235.556 241.59 235.506 242.041 235.406ZM244.357 237.572H243.699V234.567H243.098V237.284H242.454V231.757H243.098V233.998H243.699V231.638H244.357V237.572Z" fill="#1A1A1A"/>
<path d="M246.059 232.52V231.976H247.83V232.52H246.059ZM250.002 237.572H249.32V231.638H250.002V237.572ZM248.8 235.913L248.437 236.42C247.849 236.138 247.154 235.462 246.966 234.88C246.816 235.487 246.19 236.22 245.508 236.564L245.076 236.07C245.977 235.594 246.603 234.78 246.603 233.585V233.56H245.37V233.015H248.525V233.56H247.311V233.585C247.311 234.78 247.974 235.512 248.8 235.913Z" fill="#1A1A1A"/>
<path d="M256.355 234.674H255.529V237.572H254.846V231.638H255.529V234.104H256.355V234.674ZM254.502 235.613L254.552 236.151C253.35 236.314 252.117 236.364 250.884 236.37L250.79 235.788C251.178 235.788 251.585 235.794 252.005 235.782V234.098H252.687V235.757C253.457 235.719 254.026 235.669 254.502 235.613ZM251.116 232.301H254.177C254.183 233.347 254.114 234.292 253.97 234.893L253.319 234.818C253.413 234.329 253.482 233.509 253.488 232.852H251.116V232.301Z" fill="#1A1A1A"/>
<path d="M261.512 231.638V235.156H260.83V234.267H259.891V233.716H260.83V233.021H259.891V232.47H260.83V231.638H261.512ZM260.855 236.401C260.855 236.007 260.373 235.769 259.528 235.769C258.702 235.769 258.213 236.007 258.213 236.401C258.213 236.789 258.702 237.027 259.528 237.027C260.373 237.027 260.855 236.789 260.855 236.401ZM261.556 236.401C261.556 237.109 260.817 237.572 259.528 237.572C258.245 237.572 257.512 237.109 257.512 236.401C257.512 235.681 258.245 235.218 259.528 235.218C260.817 235.218 261.556 235.681 261.556 236.401ZM258.908 234.248V233.422H257.531V234.248H258.908ZM259.59 234.793H256.849V231.976H257.531V232.89H258.908V231.963H259.59V234.793Z" fill="#1A1A1A"/>
<path d="M265.023 232.877C265.023 232.564 264.716 232.301 264.228 232.301C263.734 232.301 263.421 232.564 263.421 232.877C263.421 233.184 263.734 233.441 264.228 233.441C264.716 233.441 265.023 233.184 265.023 232.877ZM264.754 235.913H264.065V234.836C263.515 234.861 262.964 234.874 262.413 234.88L262.319 234.317C262.995 234.317 263.64 234.311 264.291 234.286C265.092 234.254 265.718 234.211 266.244 234.148L266.287 234.655C265.78 234.718 265.267 234.761 264.754 234.799V235.913ZM267.458 237.422H263.158V235.675H263.84V236.871H267.458V237.422ZM265.511 235.581V235.081H266.669V231.638H267.352V236.214H266.669V235.581H265.511ZM265.699 232.877C265.699 233.522 265.086 233.96 264.228 233.96C263.371 233.96 262.738 233.528 262.738 232.865C262.738 232.233 263.371 231.776 264.228 231.776C265.086 231.776 265.699 232.233 265.699 232.877Z" fill="#1A1A1A"/>
<path d="M53.6954 264.276V266.604H54.5967V267.174H53.6954V270.21H53.0131V264.276H53.6954ZM52.6939 268.32L52.3058 268.814C51.7487 268.507 51.0351 267.75 50.8474 267.137C50.6909 267.769 50.1025 268.551 49.3827 268.945L48.957 268.438C49.9022 267.913 50.4906 266.955 50.4906 265.766V265.453H49.2512V264.896H52.4059V265.453H51.1979V265.766C51.1979 266.968 51.8301 267.838 52.6939 268.32Z" fill="#1A1A1A"/>
<path d="M56.9184 267.287V267.838H58.1077V267.287H56.9184ZM57.5381 264.864C56.6806 264.864 56.1673 265.071 56.1673 265.39C56.1673 265.709 56.6806 265.922 57.5381 265.922C58.3957 265.922 58.9152 265.709 58.9152 265.39C58.9152 265.071 58.3957 264.864 57.5381 264.864ZM57.5381 264.339C58.8463 264.339 59.6162 264.733 59.6162 265.39C59.6162 266.047 58.8463 266.442 57.5381 266.442C56.2299 266.442 55.4725 266.047 55.4725 265.39C55.4725 264.733 56.2299 264.339 57.5381 264.339ZM59.7226 270.172H55.5289V268.758H58.8213V268.388H55.5164V267.838H56.2362V267.287H54.8466V266.736H60.2046V267.287H58.79V267.838H59.5036V269.252H56.2111V269.621H59.7226V270.172Z" fill="#1A1A1A"/>
<path d="M63.6155 270.204H62.9332V268.094H60.6047V267.55H65.9627V268.094H63.6155V270.204ZM65.462 265.071H63.6593C63.7782 265.803 64.8235 266.342 65.7124 266.435L65.4057 266.974C64.5732 266.855 63.5904 266.298 63.29 265.747C63.0021 266.329 62.0444 266.867 61.1681 266.999L60.8426 266.461C61.7564 266.367 62.808 265.81 62.9269 265.071H61.0992V264.52H65.462V265.071Z" fill="#1A1A1A"/>
<path d="M68.4722 266.993C68.4722 266.755 68.1968 266.592 67.8275 266.592C67.4582 266.592 67.1953 266.755 67.1953 266.993C67.1953 267.224 67.4582 267.393 67.8275 267.393C68.2031 267.393 68.4722 267.224 68.4722 266.993ZM67.0201 265.002V264.458H68.6037V265.002H67.0201ZM66.3253 265.853V265.315H69.2171V265.853H66.3253ZM69.3736 268.645C68.5411 268.645 68.0341 268.845 68.0341 269.177C68.0341 269.503 68.5411 269.703 69.3736 269.703C70.1936 269.703 70.7068 269.503 70.7068 269.177C70.7068 268.845 70.1936 268.645 69.3736 268.645ZM69.0669 266.993C69.0669 267.487 68.5724 267.9 67.8275 267.9C67.0889 267.9 66.5944 267.487 66.5944 266.993C66.5944 266.504 67.0889 266.079 67.8275 266.079C68.5724 266.079 69.0669 266.498 69.0669 266.993ZM71.3641 268.063H70.7131V266.473H70.1372V267.856H69.4925V264.382H70.1372V265.903H70.7131V264.276H71.3641V268.063ZM71.4079 269.171C71.4079 269.828 70.638 270.222 69.3799 270.222C68.1092 270.222 67.333 269.828 67.333 269.171C67.333 268.52 68.1092 268.126 69.3799 268.126C70.638 268.126 71.4079 268.52 71.4079 269.171Z" fill="#1A1A1A"/>
<path d="M74.7266 267.093V268.232C75.4339 268.232 76.0223 268.207 76.5418 268.094L76.6419 268.626C76.041 268.758 75.4652 268.795 74.0443 268.789V264.977H76.3415V265.522H74.7266V266.536H75.9033V267.093H74.7266ZM77.0425 267.099H76.2601V266.529H77.0425V264.395H77.6873V269.928H77.0425V267.099ZM78.8765 270.21H78.2256V264.276H78.8765V270.21Z" fill="#1A1A1A"/>
<path d="M84.8537 267.043L84.4969 267.575C83.6206 267.343 82.6191 266.667 82.3124 265.947C82.037 266.68 81.0167 267.356 80.1217 267.575L79.7836 267.018C80.7538 266.861 81.9619 266.054 81.9619 265.033V264.639H82.6755V265.033C82.6755 266.047 83.9586 266.88 84.8537 267.043ZM84.9914 269.427H79.6334V268.877H84.9914V269.427Z" fill="#1A1A1A"/>
<path d="M90.7496 268.914V269.459H85.3915V268.914H90.7496ZM89.8607 266.536H86.7623V267.293H90.1174V267.831H86.0801V264.733H90.061V265.277H86.7623V265.997H89.8607V266.536Z" fill="#1A1A1A"/>
<path d="M98.262 268.914V269.459H92.904V268.914H98.262ZM97.3732 266.536H94.2748V267.293H97.6298V267.831H93.5925V264.733H97.5735V265.277H94.2748V265.997H97.3732V266.536Z" fill="#1A1A1A"/>
<path d="M103.657 267.894H103.006V266.342H102.43V267.838H101.786V264.382H102.43V265.772H103.006V264.276H103.657V267.894ZM101.466 266.974L101.541 267.512C100.978 267.625 100.102 267.687 99.3882 267.694H98.925V265.897H100.477V265.24H98.9062V264.689H101.166V266.429H99.6073V267.149C100.102 267.149 100.978 267.099 101.466 266.974ZM103.657 270.21H102.975V268.758H99.601V268.207H103.657V270.21Z" fill="#1A1A1A"/>
<path d="M52.6939 313.508L52.287 314.015C51.78 313.695 51.1103 312.938 50.8974 312.287C50.6909 312.988 50.1025 313.733 49.4578 314.121L49.0321 313.627C49.9523 313.032 50.5344 312.049 50.5344 310.916V309.94H51.2354V310.879C51.2354 312.018 51.8238 312.963 52.6939 313.508ZM53.977 315.367H53.2948V312.049H52.1368V311.48H53.2948V309.433H53.977V315.367Z" fill="#1A1A1A"/>
<path d="M57.5381 310.04C56.6806 310.04 56.1673 310.228 56.1673 310.547C56.1673 310.866 56.6806 311.06 57.5381 311.06C58.3957 311.06 58.9152 310.866 58.9152 310.547C58.9152 310.228 58.3957 310.04 57.5381 310.04ZM57.5381 309.495C58.8463 309.495 59.6288 309.934 59.6288 310.547C59.6288 311.16 58.8463 311.599 57.5381 311.599C56.2299 311.599 55.46 311.16 55.46 310.547C55.46 309.934 56.2299 309.495 57.5381 309.495ZM59.7226 315.329H55.5351V313.858H58.8213V313.476H55.5038V312.932H57.1751V312.475H54.8466V311.924H60.2046V312.475H57.8574V312.932H59.5036V314.353H56.2174V314.778H59.7226V315.329Z" fill="#1A1A1A"/>
<path d="M63.29 313.201L63.3776 313.752C62.8831 313.864 62.1132 313.915 61.3934 313.915H60.7988V310.153H63.0334V310.703C62.5201 310.703 61.9943 310.697 61.4873 310.697V313.351C62.2322 313.351 62.8393 313.301 63.29 313.201ZM65.606 315.367H64.9487V312.362H64.3478V315.079H63.7031V309.552H64.3478V311.793H64.9487V309.433H65.606V315.367Z" fill="#1A1A1A"/>
<path d="M71.7351 313.483L71.3282 313.996C70.8212 313.67 70.189 312.938 69.9699 312.287C69.7696 312.988 69.175 313.733 68.524 314.127L68.1047 313.627C69.0248 313.032 69.6069 312.049 69.6069 310.916V309.946H70.3142V310.879C70.3142 312.018 70.865 312.938 71.7351 313.483ZM73.0057 315.367H72.3235V309.433H73.0057V315.367Z" fill="#1A1A1A"/>
<path d="M76.2852 312.112C76.2852 311.811 75.9409 311.636 75.5591 311.636C75.1647 311.636 74.8205 311.811 74.8205 312.112C74.8205 312.4 75.171 312.575 75.5591 312.575C75.9409 312.575 76.2852 312.4 76.2852 312.112ZM76.9486 312.112C76.9486 312.694 76.3477 313.082 75.5591 313.082C74.7641 313.082 74.157 312.694 74.157 312.112C74.157 311.517 74.7579 311.123 75.5591 311.123C76.3477 311.123 76.9486 311.517 76.9486 312.112ZM77.2741 310.91H73.844V310.372H77.2741V310.91ZM76.4354 310.034H74.7015V309.489H76.4354V310.034ZM78.0816 314.747V313.915H75.5716V314.747H78.0816ZM78.7639 315.285H74.8893V313.382H78.7639V315.285ZM78.0816 311.937H77.174V311.367H78.0816V309.433H78.7639V313.082H78.0816V311.937Z" fill="#1A1A1A"/>
<path d="M84.7661 311.536L84.4531 312.093C83.5768 311.943 82.6129 311.367 82.3187 310.703C82.0558 311.367 81.0919 311.937 80.1905 312.099L79.8901 311.536C80.9416 311.417 81.9619 310.722 81.9619 309.865V309.57H82.6817V309.865C82.6817 310.722 83.8084 311.448 84.7661 311.536ZM82.6442 315.373H81.9619V313.22H79.6334V312.675H84.9914V313.22H82.6442V315.373Z" fill="#1A1A1A"/>
<path d="M90.7496 314.616H85.3915V314.071H87.72V312.706H88.4023V314.071H90.7496V314.616ZM90.5806 312.331L90.2238 312.869C89.36 312.65 88.396 312.037 88.0768 311.304C87.7889 312.055 86.7811 312.663 85.9048 312.869L85.5731 312.312C86.512 312.181 87.6825 311.448 87.7138 310.453H85.8673V309.909H90.2738V310.453H88.4336C88.4711 311.436 89.7042 312.187 90.5806 312.331Z" fill="#1A1A1A"/>
<path d="M266.621 265.346V269.177H263.836V265.346H266.621ZM265.932 268.626V265.891H264.518V268.626H265.932ZM268.424 270.704H267.741V264.77H268.424V270.704Z" fill="#1A1A1A"/>
<path d="M272.041 268.557L272.129 269.083C271.553 269.208 270.733 269.258 270.019 269.265H269.519V266.986H271.052V265.991H269.5V265.44H271.734V267.531H270.201V268.714C270.871 268.714 271.484 268.676 272.041 268.557ZM274.301 270.704H273.644V267.7H273.043V270.416H272.398V264.889H273.043V267.13H273.644V264.77H274.301V270.704Z" fill="#1A1A1A"/>
<path d="M279.076 267.5V265.785H276.403V267.5H279.076ZM280.416 269.953H275.058V269.409H277.386V268.044H275.721V265.24H279.758V268.044H278.068V269.409H280.416V269.953Z" fill="#1A1A1A"/>
<path d="M283.188 267.03V266.323H281.786V267.03H283.188ZM283.87 267.581H281.097V265.015H281.786V265.785H283.188V265.008H283.87V267.581ZM285.698 267.769H285.016V264.77H285.698V267.769ZM285.898 270.661H281.842V269.121H285.022V268.639H281.811V268.094H285.704V269.621H282.525V270.122H285.898V270.661Z" fill="#1A1A1A"/>
<path d="M291.456 270.704H290.774V264.77H291.456V270.704ZM290.229 268.576L290.304 269.133C289.647 269.252 288.721 269.315 287.644 269.321L286.912 269.327V266.93H288.921V265.841H286.887V265.29H289.603V267.475H287.594V268.758C288.295 268.758 289.466 268.72 290.229 268.576Z" fill="#1A1A1A"/>
<path d="M297.183 264.77V270.704H296.501V264.77H297.183ZM295.862 268.589L295.956 269.127C295.318 269.258 294.423 269.321 293.302 269.327L292.676 269.334V265.303H295.393V265.847H293.352V266.999H295.268V267.537H293.352V268.77C294.235 268.77 295.168 268.733 295.862 268.589Z" fill="#1A1A1A"/>
<path d="M302.127 269.634C302.127 269.296 301.608 269.096 300.769 269.096C299.937 269.096 299.417 269.296 299.417 269.634C299.417 269.972 299.937 270.16 300.769 270.16C301.608 270.16 302.127 269.972 302.127 269.634ZM302.828 269.628C302.828 270.291 302.077 270.711 300.775 270.711C299.461 270.711 298.716 270.291 298.716 269.628C298.716 268.977 299.461 268.545 300.769 268.545C302.077 268.545 302.828 268.977 302.828 269.628ZM302.81 266.961H301.101V267.581H303.448V268.132H298.09V267.581H300.419V266.961H298.797V264.933H302.766V265.49H299.48V266.41H302.81V266.961Z" fill="#1A1A1A"/>
<path d="M5.23984 48.8477L4.88305 49.3797C4.00674 49.1481 3.00525 48.4721 2.69854 47.7523C2.42313 48.4846 1.40285 49.1607 0.507761 49.3797L0.169756 48.8227C1.13996 48.6662 2.34801 47.8587 2.34801 46.8384V46.4441H3.06158V46.8384C3.06158 47.8525 4.34475 48.6849 5.23984 48.8477ZM5.37754 51.2325H0.0195312V50.6817H5.37754V51.2325Z" fill="#1A1A1A"/>
<path d="M10.6161 47.1076H6.27214V46.563H10.6161V47.1076ZM10.6099 49.4298H8.78841V50.7192H11.1357V51.2638H5.77765V50.7192H8.10614V49.4298H6.2784V48.879H7.19853L7.04204 47.4706L7.72432 47.4018L7.84324 48.879H9.07634L9.29541 47.4143L9.96517 47.5144L9.72105 48.879H10.6099V49.4298Z" fill="#1A1A1A"/>
<path d="M13.2321 46.8697V46.3189H15.1912V46.8697H13.2321ZM16.8938 51.2701H11.5358V50.7192H16.8938V51.2701ZM16.6872 49.2984L16.4118 49.8554C15.5042 49.7052 14.5215 49.1294 14.2148 48.5159C13.9081 49.1419 12.9629 49.6864 12.0177 49.8492L11.7298 49.3171C12.6687 49.217 13.7266 48.6224 13.8643 47.89H12.0365V47.3392H16.393V47.89H14.5778C14.7218 48.6161 15.8172 49.2358 16.6872 49.2984Z" fill="#1A1A1A"/>
<path d="M19.6929 46.2626H23.7052C23.7052 47.1201 23.6301 47.865 23.5049 48.4221H24.4062V48.9729H19.0482V48.4221H22.8477C22.8977 48.2468 22.9353 48.0027 22.9666 47.7398L19.5928 47.915L19.4989 47.3955L23.0041 47.2453C23.0167 47.0888 23.0229 46.9386 23.0229 46.8071H19.6929V46.2626ZM23.9493 51.9398H19.7055V50.4438H23.048V49.9932H19.6742V49.4486H23.7302V50.9321H20.394V51.3953H23.9493V51.9398Z" fill="#1A1A1A"/>
<path d="M28.0737 49.918L28.1426 50.4689C27.5104 50.5941 26.6904 50.6504 25.6889 50.6566H25.0317V48.228H26.9596V47.1514H25.0317V46.6006H27.6418V48.7788H25.714V50.0933C26.3274 50.0933 27.3226 50.0557 28.0737 49.918ZM29.0064 48.8978H28.0424V48.3282H29.0064V46.0811H29.6887V52.0149H29.0064V48.8978Z" fill="#1A1A1A"/>
<path d="M35.7848 48.8477L35.428 49.3797C34.5517 49.1481 33.5502 48.4721 33.2435 47.7523C32.9681 48.4846 31.9478 49.1607 31.0527 49.3797L30.7147 48.8227C31.6849 48.6662 32.893 47.8587 32.893 46.8384V46.4441H33.6065V46.8384C33.6065 47.8525 34.8897 48.6849 35.7848 48.8477ZM35.9225 51.2325H30.5645V50.6817H35.9225V51.2325Z" fill="#1A1A1A"/>
<path d="M41.2049 52.0149H40.5226V48.8164H39.4523V48.2531H40.5226V46.0811H41.2049V52.0149ZM38.9891 48.2405V48.7914H37.2427V50.0996C38.0314 50.0996 38.8576 50.0808 39.6588 49.918L39.759 50.4563C39.1393 50.5941 38.3068 50.6504 37.1864 50.6566H36.5667V46.6131H39.2833V47.1577H37.2427V48.2405H38.9891Z" fill="#1A1A1A"/>
<path d="M197.658 275.486C197.658 276.134 198.19 276.709 199.021 276.941L198.752 277.4C198.111 277.216 197.628 276.828 197.377 276.324C197.139 276.874 196.662 277.299 196.008 277.503L195.727 277.045C196.564 276.8 197.084 276.177 197.084 275.486V275.401H195.892V274.936H197.084V274.3H197.664V274.936H198.85V275.401H197.658V275.486ZM200.305 274.325V277.558H199.724V276.305H198.697V275.829H199.724V274.325H200.305ZM200.305 277.821V279.735H196.692V277.821H200.305ZM197.267 278.292V279.264H199.737V278.292H197.267ZM205.452 274.319V275.908H206.253V276.391H205.452V278.286H204.871V274.319H205.452ZM203.838 274.789V275.26H201.968V276.856C203.034 276.859 203.636 276.825 204.321 276.684L204.388 277.155C203.649 277.302 203.001 277.338 201.827 277.338H201.393V274.789H203.838ZM205.684 279.215V279.686H201.98V277.876H202.561V279.215H205.684ZM212.512 275.804V276.275H210.874V276.935H213.087V277.412H208.086V276.935H210.299V276.275H208.753V274.423H209.327V275.804H212.512ZM210.58 277.785C211.76 277.785 212.469 278.151 212.469 278.793C212.469 279.429 211.76 279.796 210.58 279.79C209.395 279.796 208.679 279.429 208.679 278.793C208.679 278.151 209.395 277.785 210.58 277.785ZM210.58 278.237C209.743 278.237 209.266 278.433 209.266 278.793C209.266 279.136 209.743 279.343 210.58 279.343C211.406 279.343 211.888 279.136 211.888 278.793C211.888 278.433 211.406 278.237 210.58 278.237ZM215.012 274.575C215.733 274.569 216.29 274.988 216.412 275.602H217.482V274.325H218.062V277.265H217.482V276.079H216.418C216.299 276.709 215.739 277.131 215.012 277.131C214.175 277.131 213.576 276.605 213.576 275.847C213.576 275.101 214.175 274.569 215.012 274.575ZM215.012 275.058C214.492 275.058 214.132 275.376 214.132 275.847C214.132 276.318 214.492 276.642 215.012 276.642C215.519 276.642 215.88 276.318 215.88 275.847C215.88 275.376 215.519 275.058 215.012 275.058ZM215.067 277.528V278.164H217.482V277.528H218.062V279.735H214.492V277.528H215.067ZM215.067 279.258H217.482V278.622H215.067V279.258ZM225 274.331V278.365H224.419V276.941H223.062C222.803 277.25 222.405 277.436 221.95 277.436C221.125 277.436 220.513 276.862 220.513 276.055C220.513 275.242 221.125 274.667 221.95 274.661C222.402 274.664 222.797 274.851 223.056 275.156H224.419V274.331H225ZM225.147 279.215V279.686H221.443V277.944H222.023V279.215H225.147ZM221.95 275.181C221.436 275.181 221.07 275.535 221.07 276.055C221.07 276.574 221.436 276.923 221.95 276.923C222.445 276.923 222.818 276.574 222.818 276.055C222.818 275.535 222.445 275.181 221.95 275.181ZM223.313 275.627C223.35 275.758 223.374 275.902 223.374 276.055C223.374 276.201 223.353 276.342 223.313 276.47H224.419V275.627H223.313ZM230.202 274.667V275.15C230.202 275.67 230.202 276.232 230.049 277.014H230.838V277.491H228.619V279.808H228.032V277.491H225.844V277.014H229.462C229.627 276.235 229.627 275.66 229.627 275.15V275.144H226.455V274.667H230.202Z" fill="#1A1A1A"/>
</svg>
