<svg width="1000" height="1000" viewBox="0 0 1000 1000" fill="none" xmlns="http://www.w3.org/2000/svg">
<mask id="mask0_1038_599" style="mask-type:alpha" maskUnits="userSpaceOnUse" x="0" y="0" width="1000" height="1000">
<rect width="1000" height="1000" fill="#D9D9D9"/>
</mask>
<g mask="url(#mask0_1038_599)">
<path d="M456.008 761.141H803.425V804.639H729.428V797.59H691.026V782.435H676.578V802.168H579.684V782.792H456.008V761.141Z" fill="#FEDF73"/>
<path d="M674.235 824.722H607.105V837.644H674.235V824.722Z" fill="#FEDF73"/>
<path d="M792.154 850.741H756.027V868.591H792.154V850.741Z" fill="white"/>
<path d="M737.886 845.568H717.684V862.242H737.886V845.568Z" fill="white"/>
<path d="M737.886 845.568H705V853.905H737.886V845.568Z" fill="white"/>
<path d="M801.824 652.858H733V721.682H801.824V652.858Z" fill="#FEDF73"/>
<path d="M371.364 570.916H285.754V598.783H371.364V570.916Z" fill="white"/>
<path d="M371.364 537.169H285.754V565.036H371.364V537.169Z" fill="white"/>
<path d="M331.781 225.823H293.113V291.889H331.781V225.823Z" fill="#FEDF73"/>
<path d="M331.781 152.365H293.113V218.431H331.781V152.365Z" fill="#FEDF73"/>
<path d="M336.273 291.896V152.365H360.563V177.754L349.86 191.579H342.951V231.213L349.986 245.437L342.951 259.262V291.896H336.273Z" fill="#FEDF73"/>
<path d="M340.857 323.914H323.616V337.165H303.197V452.49H340.857V323.914Z" fill="#FEDF73"/>
<path d="M301.097 454.59V397.225H269.191V463.298H307.866V454.59H301.097Z" fill="#FEDF73"/>
<path d="M692.126 104.128V241.461H820.261M612.312 493.391V630.724M392.204 88V630.724M256.215 630.724H820.254M256.215 742.71H820.254M393.338 493.391H820.254" stroke="#DCDDDD" stroke-miterlimit="10"/>
<path d="M265.285 297.181V154.92L292.34 127.83H392.202" stroke="#DCDDDD" stroke-miterlimit="10"/>
<path d="M770.575 545.296H680.387V588.913H770.575V545.296Z" fill="white"/>
<path d="M775.992 130.062H736.379V215.673H775.992V130.062Z" fill="#FEDF73"/>
<path d="M500.717 561.515H558.285V528.062H476.819V559.716H453.285V593.218H500.717V561.515Z" fill="white"/>
<path d="M567.294 564.595H503.797V600.694H567.294V564.595Z" fill="white"/>
<path d="M473.74 525.654H442.758V556.636H473.74V525.654Z" fill="white"/>
<path d="M770.575 545.296H680.387V588.913H770.575V545.296Z" stroke="#FEDF73" stroke-width="0.7" stroke-miterlimit="10"/>
<path d="M500.717 561.515H558.285V528.062H476.819V559.716H453.285V593.218H500.717V561.515Z" stroke="#FEDF73" stroke-width="0.7" stroke-miterlimit="10"/>
<path d="M567.294 564.595H503.797V600.694H567.294V564.595Z" stroke="#FEDF73" stroke-width="0.7" stroke-miterlimit="10"/>
<path d="M473.74 525.654H442.758V556.636H473.74V525.654Z" stroke="#FEDF73" stroke-width="0.7" stroke-miterlimit="10"/>
<path d="M497.454 690.084L492.785 694.704V711.532L497.454 716.145H592.983L597.652 711.532V694.704L592.983 690.084H497.454Z" fill="#FEDF73"/>
<path d="M497.454 658.395L492.785 663.008V679.836L497.454 684.456H592.983L597.652 679.836V663.008L592.983 658.395H497.454Z" fill="#FEDF73"/>
<path d="M607.728 690.084L603.059 694.704V711.532L607.728 716.145H703.257L707.926 711.532V694.704L703.257 690.084H607.728Z" fill="#FEDF73"/>
<path d="M704.578 652.858H447.244C444.15 655.917 442.414 657.632 439.32 660.691V713.849C442.414 716.908 444.15 718.623 447.244 721.682H704.578C707.672 718.623 709.408 716.908 712.502 713.849V660.691C709.408 657.632 707.672 655.917 704.578 652.858ZM487.333 709.327L479.724 716.845H451.738L444.129 709.327V665.213L451.738 657.695H479.724L479.829 657.793C482.713 660.649 484.337 662.252 487.228 665.108L487.333 665.213V709.327ZM598.353 711.819L593.271 716.838H497.168L492.086 711.819V694.403L497.168 689.377H593.271L598.353 694.403V711.819ZM598.353 680.13L593.271 685.156H497.168L492.086 680.13V662.721L497.168 657.695H593.271L598.353 662.721V680.13ZM708.624 711.819L703.542 716.838H607.439L602.357 711.819V694.403L607.439 689.377H703.542L708.624 694.403V711.819ZM708.624 680.13L703.542 685.156H607.439L602.357 680.13V662.721L607.439 657.695H703.542L708.624 662.721V680.13Z" fill="#FEDF73"/>
<path d="M452.032 658.395L444.836 665.507V709.033L452.032 716.145H479.444L486.64 709.033V665.507C483.847 662.749 482.237 661.16 479.444 658.395H452.032Z" fill="#FEDF73"/>
<path d="M607.728 658.395L603.059 663.008V679.836L607.728 684.456H703.257L707.926 679.836V663.008L703.257 658.395H607.728Z" fill="#FEDF73"/>
<path d="M728.689 535.251H671.625V551.302H728.689V535.251Z" fill="white"/>
<path d="M728.689 535.251H671.625V551.302H728.689V535.251Z" stroke="#FEDF73" stroke-width="0.7" stroke-miterlimit="10"/>
<path d="M321.516 312.686H266.902V335.065H321.516V312.686Z" fill="#FEDF73"/>
<path d="M575.42 193.371C575.42 195.395 576.609 197.527 578.605 198.361L577.771 199.564C576.309 198.936 575.242 197.637 574.682 196.064C574.107 197.76 573.027 199.182 571.578 199.865L570.703 198.676C572.658 197.773 573.875 195.477 573.875 193.371V192.332H571.154V191.074H578.127V192.332H575.42V193.371ZM581.039 189.857V202.217H579.508V189.857H581.039Z" fill="#1A1A1A"/>
<path d="M592.852 193.07V194.301H584.32V190.076H585.838V193.07H592.852ZM594.137 195.49V196.721H582.857V195.49H594.137ZM588.477 197.609C591.143 197.623 592.742 198.443 592.756 199.893C592.742 201.342 591.143 202.162 588.477 202.162C585.783 202.162 584.17 201.342 584.17 199.893C584.17 198.443 585.783 197.623 588.477 197.609ZM588.477 198.799C586.672 198.812 585.701 199.154 585.715 199.893C585.701 200.604 586.672 201 588.477 201C590.24 201 591.225 200.604 591.238 199.893C591.225 199.154 590.24 198.812 588.477 198.799Z" fill="#1A1A1A"/>
<path d="M601.889 191.088V192.291H594.984V191.088H597.746V189.748H599.264V191.088H601.889ZM598.484 192.783C600.166 192.783 601.369 193.713 601.383 195.094C601.369 196.461 600.166 197.377 598.484 197.377C596.803 197.377 595.613 196.461 595.627 195.094C595.613 193.713 596.803 192.783 598.484 192.783ZM598.484 193.918C597.609 193.918 597.035 194.355 597.049 195.094C597.035 195.818 597.609 196.242 598.484 196.242C599.359 196.242 599.961 195.818 599.961 195.094C599.961 194.355 599.359 193.918 598.484 193.918ZM605.307 189.857V197.773H603.789V196.324H601.957V195.107H603.789V193.891H601.971V192.66H603.789V189.857H605.307ZM601.15 197.91C603.762 197.91 605.375 198.703 605.375 200.057C605.375 201.396 603.762 202.203 601.15 202.203C598.539 202.203 596.926 201.396 596.926 200.057C596.926 198.703 598.539 197.91 601.15 197.91ZM601.15 199.072C599.482 199.072 598.525 199.4 598.525 200.057C598.525 200.699 599.482 201.041 601.15 201.041C602.805 201.041 603.748 200.699 603.748 200.057C603.748 199.4 602.805 199.072 601.15 199.072Z" fill="#1A1A1A"/>
<path d="M618.336 196.857V198.088H613.414V202.203H611.91V198.088H607.043V196.857H618.336ZM616.955 190.486V195.408H608.424V190.486H616.955ZM609.914 191.703V194.219H615.438V191.703H609.914Z" fill="#1A1A1A"/>
<path d="M629.451 189.871V198.799H627.92V189.871H629.451ZM629.793 200.74V201.971H621.275V197.896H622.807V200.74H629.793ZM622.711 190.678C624.584 190.678 626.033 191.977 626.033 193.768C626.033 195.6 624.584 196.871 622.711 196.871C620.824 196.871 619.375 195.6 619.375 193.768C619.375 191.977 620.824 190.678 622.711 190.678ZM622.711 192.004C621.658 192.004 620.852 192.701 620.865 193.768C620.852 194.861 621.658 195.545 622.711 195.545C623.736 195.545 624.543 194.861 624.543 193.768C624.543 192.701 623.736 192.004 622.711 192.004Z" fill="#1A1A1A"/>
<path d="M641.537 189.857V202.23H640.006V189.857H641.537ZM634.879 190.76C636.738 190.76 638.092 192.455 638.105 195.121C638.092 197.814 636.738 199.496 634.879 199.496C633.006 199.496 631.652 197.814 631.652 195.121C631.652 192.455 633.006 190.76 634.879 190.76ZM634.879 192.127C633.826 192.127 633.115 193.234 633.115 195.121C633.115 197.021 633.826 198.129 634.879 198.129C635.918 198.129 636.629 197.021 636.629 195.121C636.629 193.234 635.918 192.127 634.879 192.127Z" fill="#1A1A1A"/>
<path d="M654.635 195.777V196.994H643.355V195.777H648.25V194.602H644.736V190.418H653.268V191.607H646.254V193.398H653.336V194.602H649.74V195.777H654.635ZM648.975 197.705C651.641 197.705 653.24 198.512 653.254 199.961C653.24 201.396 651.641 202.217 648.975 202.217C646.281 202.217 644.668 201.396 644.668 199.961C644.668 198.512 646.281 197.705 648.975 197.705ZM648.975 198.867C647.17 198.867 646.199 199.25 646.213 199.961C646.199 200.672 647.17 201.041 648.975 201.041C650.738 201.041 651.723 200.672 651.736 199.961C651.723 199.25 650.738 198.867 648.975 198.867Z" fill="#1A1A1A"/>
<path d="M659.229 193.631C659.229 195.545 660.021 197.473 661.744 198.402L660.896 199.523C659.748 198.915 658.969 197.828 658.531 196.529C658.094 197.931 657.314 199.127 656.152 199.811L655.264 198.662C657.014 197.65 657.793 195.586 657.793 193.631V193.248H655.688V192.018H657.793V190.295H659.229V192.018H661.293V193.248H659.229V193.631ZM666.092 189.857V202.217H664.643V189.857H666.092ZM663.576 190.09V201.615H662.141V195.859H660.527V194.602H662.141V190.09H663.576Z" fill="#1A1A1A"/>
<path d="M677.904 189.871V198.936H676.387V195.873H673.447C672.853 196.536 671.978 196.939 670.986 196.939C669.127 196.939 667.719 195.6 667.719 193.781C667.719 191.936 669.127 190.609 670.986 190.609C671.971 190.609 672.839 191.006 673.434 191.662H676.387V189.871H677.904ZM678.219 200.74V201.971H669.797V198.006H671.314V200.74H678.219ZM670.986 191.963C669.92 191.963 669.168 192.674 669.168 193.781C669.168 194.875 669.92 195.586 670.986 195.586C671.998 195.586 672.764 194.875 672.777 193.781C672.764 192.674 671.998 191.963 670.986 191.963ZM674.104 192.893C674.179 193.173 674.227 193.467 674.227 193.781C674.227 194.082 674.186 194.369 674.117 194.643H676.387V192.893H674.104Z" fill="#1A1A1A"/>
<path d="M689.539 190.609V191.717C689.539 192.872 689.539 194.137 689.211 195.887H690.92V197.117H686.012V202.23H684.48V197.117H679.654V195.887H687.666C688.008 194.205 688.021 192.947 688.021 191.84H680.98V190.609H689.539Z" fill="#1A1A1A"/>
<path d="M703.033 195.777V196.994H691.754V195.777H696.648V194.602H693.135V190.418H701.666V191.607H694.652V193.398H701.734V194.602H698.139V195.777H703.033ZM697.373 197.705C700.039 197.705 701.639 198.512 701.652 199.961C701.639 201.396 700.039 202.217 697.373 202.217C694.68 202.217 693.066 201.396 693.066 199.961C693.066 198.512 694.68 197.705 697.373 197.705ZM697.373 198.867C695.568 198.867 694.598 199.25 694.611 199.961C694.598 200.672 695.568 201.041 697.373 201.041C699.137 201.041 700.121 200.672 700.135 199.961C700.121 199.25 699.137 198.867 697.373 198.867Z" fill="#1A1A1A"/>
<path d="M556.894 473.666H556.142L556.196 471.438L554.282 472.6L553.913 471.943L555.868 470.891L553.913 469.824L554.282 469.168L556.196 470.33L556.142 468.102H556.894L556.839 470.33L558.739 469.168L559.122 469.824L557.153 470.891L559.122 471.943L558.739 472.6L556.839 471.438L556.894 473.666Z" fill="#1A1A1A"/>
<path d="M564.14 478V477.289L567.489 473.666C568.761 472.285 569.28 471.588 569.294 470.658C569.28 469.564 568.392 468.826 567.216 468.826C565.958 468.826 565.151 469.646 565.151 470.809H564.222C564.222 469.141 565.507 467.965 567.243 467.965C568.966 467.965 570.196 469.141 570.196 470.658C570.196 471.766 569.69 472.6 567.981 474.404L565.521 477.057V477.125H570.497V478H564.14Z" fill="#1A1A1A"/>
<path d="M575.501 478.137C573.382 478.137 572.151 476.264 572.151 473.051C572.151 469.852 573.396 467.965 575.501 467.965C577.593 467.965 578.837 469.852 578.837 473.051C578.837 476.264 577.606 478.137 575.501 478.137ZM575.501 477.262C577.005 477.262 577.894 475.73 577.894 473.051C577.894 470.371 576.991 468.826 575.501 468.826C573.997 468.826 573.108 470.371 573.108 473.051C573.108 475.73 573.997 477.262 575.501 477.262Z" fill="#1A1A1A"/>
<path d="M580.546 478V477.289L583.896 473.666C585.167 472.285 585.687 471.588 585.7 470.658C585.687 469.564 584.798 468.826 583.622 468.826C582.364 468.826 581.558 469.646 581.558 470.809H580.628C580.628 469.141 581.913 467.965 583.649 467.965C585.372 467.965 586.603 469.141 586.603 470.658C586.603 471.766 586.097 472.6 584.388 474.404L581.927 477.057V477.125H586.903V478H580.546Z" fill="#1A1A1A"/>
<path d="M591.935 467.965C593.657 467.979 595.394 469.127 595.394 472.627C595.394 475.908 594.163 478.137 591.798 478.137C590.116 478.137 588.954 477.07 588.735 475.498H589.706C589.897 476.523 590.622 477.262 591.798 477.262C593.493 477.262 594.478 475.73 594.478 473.01H594.368C593.862 473.885 592.892 474.432 591.798 474.432C590.062 474.432 588.64 473.078 588.64 471.219C588.64 469.428 589.938 467.951 591.935 467.965ZM591.935 468.826C590.581 468.826 589.569 469.906 589.583 471.205C589.583 472.531 590.581 473.57 591.935 473.57C593.315 473.57 594.382 472.422 594.3 471.15C594.204 469.852 593.247 468.826 591.935 468.826Z" fill="#1A1A1A"/>
<path d="M606.687 467.008V475.963H605.825V471.711H602.188V470.986H605.825V469.387H602.188V468.676H605.825V467.008H606.687ZM607.028 478.055V478.779H599.003V475.211H599.864V478.055H607.028ZM598.347 467.924V473.338H598.374C600.083 473.338 601.737 473.242 603.692 472.887L603.802 473.625C601.778 473.994 600.124 474.076 598.374 474.076H597.472V467.924H598.347Z" fill="#1A1A1A"/>
<path d="M622.491 467.008V479.066H621.644V472.695H619.771V478.438H618.95V467.336H619.771V471.971H621.644V467.008H622.491ZM617.392 468.594C617.392 471.574 616.284 474.514 612.798 476.441L612.278 475.812C615.225 474.213 616.4 471.848 616.558 469.318H612.702V468.594H617.392Z" fill="#1A1A1A"/>
<path d="M634.167 467.008V476.195H633.306V474.842H630.763V474.186H633.306V467.008H634.167ZM634.481 478.055V478.779H626.046V475.279H626.907V478.055H634.481ZM624.255 472.668C626.497 472.668 629.532 472.654 632.13 472.312L632.198 472.955C631.084 473.133 629.908 473.242 628.753 473.311V475.73H627.892V473.352C626.627 473.399 625.417 473.406 624.378 473.406L624.255 472.668ZM628.22 467.527C629.997 467.527 631.187 468.348 631.2 469.605C631.187 470.891 629.997 471.697 628.22 471.684C626.442 471.697 625.239 470.891 625.239 469.605C625.239 468.348 626.442 467.527 628.22 467.527ZM628.22 468.197C626.935 468.184 626.06 468.771 626.073 469.605C626.06 470.467 626.935 471.027 628.22 471.027C629.478 471.027 630.366 470.467 630.366 469.605C630.366 468.771 629.478 468.184 628.22 468.197Z" fill="#1A1A1A"/>
<path d="M650.095 467.008V479.066H649.261V467.008H650.095ZM647.716 467.281V478.438H646.882V474.391H644.804C644.373 475.614 643.573 476.332 642.534 476.332C640.976 476.332 639.964 474.719 639.964 472.203C639.964 469.674 640.976 468.074 642.534 468.074C643.573 468.074 644.38 468.785 644.804 470.016H646.882V467.281H647.716ZM642.534 468.881C641.454 468.881 640.771 470.207 640.771 472.203C640.771 474.186 641.454 475.525 642.534 475.525C643.614 475.525 644.312 474.186 644.312 472.203C644.312 470.207 643.614 468.881 642.534 468.881ZM644.995 470.74C645.084 471.185 645.132 471.67 645.132 472.203C645.132 472.729 645.084 473.215 644.995 473.652H646.882V470.74H644.995Z" fill="#1A1A1A"/>
<path d="M661.839 467.008V474.199H660.978V470.945H658.366V470.221H660.978V467.008H661.839ZM657.874 474.609C660.362 474.609 661.88 475.416 661.88 476.824C661.88 478.232 660.362 479.039 657.874 479.053C655.386 479.039 653.868 478.232 653.882 476.824C653.868 475.416 655.386 474.609 657.874 474.609ZM657.874 475.293C655.946 475.293 654.716 475.881 654.729 476.824C654.716 477.768 655.946 478.342 657.874 478.342C659.802 478.342 661.032 477.768 661.032 476.824C661.032 475.881 659.802 475.293 657.874 475.293ZM655.974 469.277C655.974 470.904 657.3 472.408 659.009 472.996L658.558 473.693C657.197 473.188 656.083 472.142 655.577 470.85C655.058 472.319 653.868 473.488 652.433 474.049L651.981 473.352C653.718 472.709 655.112 471.082 655.112 469.291V468.662H652.282V467.938H658.763V468.662H655.974V469.277Z" fill="#1A1A1A"/>
<path d="M452.985 608.824C452.972 611.094 454.161 613.363 456.171 614.225L455.269 615.441C453.847 614.785 452.801 613.473 452.233 611.859C451.666 613.603 450.606 615.024 449.103 615.729L448.173 614.457C450.237 613.568 451.44 611.203 451.44 608.824V606.855H452.985V608.824ZM458.591 605.857V618.23H457.06V605.857H458.591Z" fill="#1A1A1A"/>
<path d="M466.028 614.375C468.749 614.375 470.294 615.031 470.308 616.289C470.294 617.561 468.749 618.217 466.028 618.217C463.267 618.217 461.722 617.561 461.722 616.289C461.722 615.031 463.267 614.375 466.028 614.375ZM466.028 615.469C464.196 615.469 463.28 615.756 463.28 616.289C463.28 616.836 464.196 617.109 466.028 617.096C467.847 617.109 468.763 616.836 468.776 616.289C468.763 615.756 467.847 615.469 466.028 615.469ZM471.06 606.828V607.977H460.97V606.828H465.276V605.721H466.794V606.828H471.06ZM466.028 608.359C468.667 608.359 470.144 608.988 470.144 610.15C470.144 611.312 468.667 611.914 466.028 611.914C463.417 611.914 461.927 611.312 461.927 610.15C461.927 608.988 463.417 608.359 466.028 608.359ZM466.028 609.385C464.388 609.385 463.554 609.645 463.554 610.15C463.554 610.643 464.388 610.861 466.028 610.875C467.683 610.861 468.517 610.643 468.517 610.15C468.517 609.645 467.683 609.385 466.028 609.385ZM471.675 612.557V613.719H460.409V612.557H471.675Z" fill="#1A1A1A"/>
<path d="M474.327 606.992V609.85H476.337V606.992H477.745V615.223H472.892V606.992H474.327ZM474.327 613.992H476.337V611.053H474.327V613.992ZM483.173 605.857V618.217H481.71V611.887H480.397V617.615H478.962V606.076H480.397V610.629H481.71V605.857H483.173Z" fill="#1A1A1A"/>
<path d="M494.479 606.418V607.443C494.479 608.414 494.479 609.453 494.151 610.738L492.634 610.561C492.941 609.378 492.962 608.517 492.962 607.621H485.921V606.418H494.479ZM495.847 611.285V612.516H484.636V611.285H488.983V609.139H490.487V611.285H495.847ZM494.452 613.623V614.84H487.493V616.836H494.616V618.053H485.962V613.623H494.452Z" fill="#1A1A1A"/>
<path d="M501.274 608.824C501.274 611.121 502.368 613.377 504.337 614.238L503.421 615.455C502.02 614.771 501.035 613.459 500.509 611.846C499.969 613.548 498.964 614.963 497.542 615.688L496.585 614.457C498.595 613.514 499.716 611.135 499.729 608.824V606.855H501.274V608.824ZM507.071 605.857V618.23H505.567V611.08H502.97V609.85H505.567V605.857H507.071Z" fill="#1A1A1A"/>
<path d="M514.427 605.98C517.243 605.98 518.87 606.732 518.884 608.1C518.87 609.48 517.243 610.219 514.427 610.232C511.61 610.219 509.97 609.48 509.97 608.1C509.97 606.732 511.61 605.98 514.427 605.98ZM514.427 607.115C512.54 607.115 511.556 607.457 511.569 608.1C511.556 608.783 512.54 609.098 514.427 609.111C516.341 609.098 517.312 608.783 517.312 608.1C517.312 607.457 516.341 607.115 514.427 607.115ZM520.073 610.875V612.064H515.179V613.008H518.665V616.029H511.638V616.945H519.007V618.107H510.147V614.949H517.175V614.129H510.134V613.008H513.661V612.064H508.808V610.875H520.073Z" fill="#1A1A1A"/>
<path d="M531.544 605.857V618.217H530.095V611.914H528.7V617.588H527.306V606.09H528.7V610.697H530.095V605.857H531.544ZM525.911 607.32V608.551H522.821V614.047C524.168 614.033 525.275 613.965 526.526 613.732L526.636 614.977C525.146 615.277 523.847 615.318 522.124 615.332H521.29V607.32H525.911Z" fill="#1A1A1A"/>
<path d="M535.085 606.609V608.387H537.847V606.609H539.351V607.758H541.839V605.857H543.356V613.281H541.839V611.504H539.351V612.488H533.567V606.609H535.085ZM535.085 611.299H537.847V609.576H535.085V611.299ZM539.173 613.5C541.798 613.5 543.397 614.361 543.397 615.865C543.397 617.342 541.798 618.203 539.173 618.203C536.562 618.203 534.962 617.342 534.976 615.865C534.962 614.361 536.562 613.5 539.173 613.5ZM539.173 614.662C537.45 614.662 536.479 615.072 536.479 615.865C536.479 616.617 537.45 617.027 539.173 617.027C540.896 617.027 541.88 616.617 541.88 615.865C541.88 615.072 540.896 614.662 539.173 614.662ZM539.351 610.273H541.839V608.961H539.351V610.273Z" fill="#1A1A1A"/>
<path d="M555.47 605.871V615.223H553.938V614.143H551.519V613.076H553.938V605.871H555.47ZM555.757 616.74V617.971H546.692V614.32H548.21V616.74H555.757ZM545.052 611.422C547.335 611.408 550.397 611.381 553.022 611.053L553.104 612.146C552.086 612.317 551.033 612.434 549.987 612.502V614.881H548.47V612.584C547.314 612.632 546.214 612.639 545.243 612.639L545.052 611.422ZM549.085 606.322C550.89 606.322 552.147 607.211 552.161 608.51C552.147 609.836 550.89 610.684 549.085 610.684C547.253 610.684 545.995 609.836 545.995 608.51C545.995 607.211 547.253 606.322 549.085 606.322ZM549.085 607.443C548.101 607.443 547.431 607.84 547.431 608.51C547.431 609.18 548.101 609.576 549.085 609.576C550.028 609.576 550.698 609.18 550.712 608.51C550.698 607.84 550.028 607.443 549.085 607.443Z" fill="#1A1A1A"/>
<path d="M670.985 608.824C670.972 611.094 672.161 613.363 674.171 614.225L673.269 615.441C671.847 614.785 670.801 613.473 670.233 611.859C669.666 613.603 668.606 615.024 667.103 615.729L666.173 614.457C668.237 613.568 669.44 611.203 669.44 608.824V606.855H670.985V608.824ZM676.591 605.857V618.23H675.06V605.857H676.591Z" fill="#1A1A1A"/>
<path d="M684.028 614.375C686.749 614.375 688.294 615.031 688.308 616.289C688.294 617.561 686.749 618.217 684.028 618.217C681.267 618.217 679.722 617.561 679.722 616.289C679.722 615.031 681.267 614.375 684.028 614.375ZM684.028 615.469C682.196 615.469 681.28 615.756 681.28 616.289C681.28 616.836 682.196 617.109 684.028 617.096C685.847 617.109 686.763 616.836 686.776 616.289C686.763 615.756 685.847 615.469 684.028 615.469ZM689.06 606.828V607.977H678.97V606.828H683.276V605.721H684.794V606.828H689.06ZM684.028 608.359C686.667 608.359 688.144 608.988 688.144 610.15C688.144 611.312 686.667 611.914 684.028 611.914C681.417 611.914 679.927 611.312 679.927 610.15C679.927 608.988 681.417 608.359 684.028 608.359ZM684.028 609.385C682.388 609.385 681.554 609.645 681.554 610.15C681.554 610.643 682.388 610.861 684.028 610.875C685.683 610.861 686.517 610.643 686.517 610.15C686.517 609.645 685.683 609.385 684.028 609.385ZM689.675 612.557V613.719H678.409V612.557H689.675Z" fill="#1A1A1A"/>
<path d="M695.075 608.824C695.075 611.121 696.169 613.377 698.138 614.238L697.222 615.455C695.82 614.771 694.836 613.459 694.31 611.846C693.77 613.548 692.765 614.963 691.343 615.688L690.386 614.457C692.396 613.514 693.517 611.135 693.53 608.824V606.855H695.075V608.824ZM700.872 605.857V618.23H699.368V611.08H696.771V609.85H699.368V605.857H700.872Z" fill="#1A1A1A"/>
<path d="M708.228 605.98C711.044 605.98 712.671 606.732 712.685 608.1C712.671 609.48 711.044 610.219 708.228 610.232C705.411 610.219 703.771 609.48 703.771 608.1C703.771 606.732 705.411 605.98 708.228 605.98ZM708.228 607.115C706.341 607.115 705.356 607.457 705.37 608.1C705.356 608.783 706.341 609.098 708.228 609.111C710.142 609.098 711.112 608.783 711.112 608.1C711.112 607.457 710.142 607.115 708.228 607.115ZM713.874 610.875V612.064H708.979V613.008H712.466V616.029H705.438V616.945H712.808V618.107H703.948V614.949H710.976V614.129H703.935V613.008H707.462V612.064H702.608V610.875H713.874Z" fill="#1A1A1A"/>
<path d="M725.345 605.857V618.217H723.896V611.914H722.501V617.588H721.106V606.09H722.501V610.697H723.896V605.857H725.345ZM719.712 607.32V608.551H716.622V614.047C717.969 614.033 719.076 613.965 720.327 613.732L720.437 614.977C718.946 615.277 717.647 615.318 715.925 615.332H715.091V607.32H719.712Z" fill="#1A1A1A"/>
<path d="M737.075 605.857V618.217H735.558V605.857H737.075ZM731.552 609.781C731.552 611.668 732.7 613.678 734.696 614.512L733.862 615.674C732.44 615.079 731.381 613.842 730.813 612.352C730.26 613.931 729.193 615.25 727.751 615.879L726.931 614.703C728.899 613.828 730.034 611.75 730.034 609.781V609.139H727.313V607.922H730.034V606.117H731.538V607.922H734.204V609.139H731.552V609.781Z" fill="#1A1A1A"/>
<path d="M745.812 607.143V608.018C745.812 609.125 745.812 610.67 745.47 612.803L743.966 612.68C744.26 610.807 744.294 609.426 744.308 608.359H739.454V607.143H745.812ZM742.694 610.67V614.32C743.952 614.272 745.244 614.184 746.427 614.033L746.509 615.168C743.952 615.578 741.122 615.633 738.948 615.619L738.798 614.402C739.529 614.396 740.343 614.389 741.19 614.361V610.67H742.694ZM748.601 605.857V610.889H750.392V612.174H748.601V618.217H747.069V605.857H748.601Z" fill="#1A1A1A"/>
<path d="M753.085 606.609V608.387H755.847V606.609H757.351V607.758H759.839V605.857H761.356V613.281H759.839V611.504H757.351V612.488H751.567V606.609H753.085ZM753.085 611.299H755.847V609.576H753.085V611.299ZM757.173 613.5C759.798 613.5 761.397 614.361 761.397 615.865C761.397 617.342 759.798 618.203 757.173 618.203C754.562 618.203 752.962 617.342 752.976 615.865C752.962 614.361 754.562 613.5 757.173 613.5ZM757.173 614.662C755.45 614.662 754.479 615.072 754.479 615.865C754.479 616.617 755.45 617.027 757.173 617.027C758.896 617.027 759.88 616.617 759.88 615.865C759.88 615.072 758.896 614.662 757.173 614.662ZM757.351 610.273H759.839V608.961H757.351V610.273Z" fill="#1A1A1A"/>
<path d="M773.47 605.871V615.223H771.938V614.143H769.519V613.076H771.938V605.871H773.47ZM773.757 616.74V617.971H764.692V614.32H766.21V616.74H773.757ZM763.052 611.422C765.335 611.408 768.397 611.381 771.022 611.053L771.104 612.146C770.086 612.317 769.033 612.434 767.987 612.502V614.881H766.47V612.584C765.314 612.632 764.214 612.639 763.243 612.639L763.052 611.422ZM767.085 606.322C768.89 606.322 770.147 607.211 770.161 608.51C770.147 609.836 768.89 610.684 767.085 610.684C765.253 610.684 763.995 609.836 763.995 608.51C763.995 607.211 765.253 606.322 767.085 606.322ZM767.085 607.443C766.101 607.443 765.431 607.84 765.431 608.51C765.431 609.18 766.101 609.576 767.085 609.576C768.028 609.576 768.698 609.18 768.712 608.51C768.698 607.84 768.028 607.443 767.085 607.443Z" fill="#1A1A1A"/>
<path d="M293.188 682.371C293.188 684.285 294.322 686.459 296.277 687.361L295.43 688.564C294.035 687.908 293.003 686.582 292.449 685.037C291.889 686.732 290.809 688.182 289.387 688.865L288.498 687.676C290.467 686.746 291.656 684.422 291.67 682.371V681.332H288.977V680.074H295.771V681.332H293.188V682.371ZM298.438 678.857V683.67H300.338V684.941H298.438V691.217H296.92V678.857H298.438Z" fill="#1A1A1A"/>
<path d="M306.477 678.98C309.293 678.98 310.92 679.732 310.934 681.1C310.92 682.48 309.293 683.219 306.477 683.232C303.66 683.219 302.02 682.48 302.02 681.1C302.02 679.732 303.66 678.98 306.477 678.98ZM306.477 680.115C304.59 680.115 303.605 680.457 303.619 681.1C303.605 681.783 304.59 682.098 306.477 682.111C308.391 682.098 309.361 681.783 309.361 681.1C309.361 680.457 308.391 680.115 306.477 680.115ZM312.123 683.82V685.023H309.197V686.008H310.715V689.029H303.688V689.945H311.057V691.107H302.197V687.949H309.225V687.129H302.184V686.008H303.77V685.023H300.857V683.82H312.123ZM305.273 686.008H307.68V685.023H305.273V686.008Z" fill="#1A1A1A"/>
<path d="M324.223 685.748V686.979H319.314V691.203H317.811V686.979H312.957V685.748H324.223ZM323.184 679.555V680.758H319.479C319.567 682.111 321.194 683.41 323.635 683.725L323.088 684.914C320.982 684.62 319.342 683.656 318.59 682.316C317.838 683.656 316.197 684.62 314.119 684.914L313.545 683.725C315.972 683.41 317.599 682.111 317.715 680.758H313.996V679.555H323.184Z" fill="#1A1A1A"/>
<path d="M335.625 678.857V686.623H334.176V683.26H332.973V686.213H331.551V679.104H332.973V682.029H334.176V678.857H335.625ZM331.141 680.197V681.387H324.988V680.197H327.326V678.967H328.83V680.197H331.141ZM328.078 681.893C329.65 681.893 330.758 682.74 330.771 684.025C330.758 685.311 329.65 686.158 328.078 686.158C326.533 686.158 325.412 685.311 325.426 684.025C325.412 682.74 326.533 681.893 328.078 681.893ZM328.078 682.986C327.312 682.986 326.779 683.383 326.779 684.025C326.779 684.668 327.299 685.064 328.078 685.064C328.857 685.064 329.391 684.668 329.391 684.025C329.391 683.383 328.857 682.986 328.078 682.986ZM331.455 686.773C334.094 686.773 335.68 687.58 335.693 689.002C335.68 690.396 334.094 691.203 331.455 691.203C328.816 691.203 327.217 690.396 327.217 689.002C327.217 687.58 328.816 686.773 331.455 686.773ZM331.455 687.936C329.691 687.922 328.734 688.277 328.734 689.002C328.734 689.686 329.691 690.041 331.455 690.041C333.205 690.041 334.162 689.686 334.162 689.002C334.162 688.277 333.205 687.922 331.455 687.936Z" fill="#1A1A1A"/>
<path d="M345.51 680.279V681.482H342.338V683.602H344.99V684.777H342.338V687.17C343.808 687.156 344.819 687.088 346.029 686.883L346.166 688.1C344.744 688.373 343.568 688.4 341.695 688.4H340.889V680.279H345.51ZM351.143 678.857V691.217H349.666V678.857H351.143ZM348.545 679.104V690.615H347.123V684.654H345.592V683.424H347.123V679.104H348.545Z" fill="#1A1A1A"/>
<path d="M358.963 680.553C358.963 682.467 360.836 684.381 363.42 684.832L362.736 686.104C360.665 685.666 358.97 684.415 358.17 682.754C357.35 684.401 355.654 685.659 353.59 686.104L352.92 684.832C355.477 684.367 357.336 682.453 357.35 680.553V679.637H358.963V680.553ZM363.871 688.387V689.645H352.578V688.387H363.871Z" fill="#1A1A1A"/>
<path d="M374.727 685.338V686.541H366.059V679.828H374.617V681.059H367.604V682.549H374.33V683.738H367.604V685.338H374.727ZM375.971 688.469V689.713H364.678V688.469H375.971Z" fill="#1A1A1A"/>
<path d="M390.148 685.338V686.541H381.48V679.828H390.039V681.059H383.025V682.549H389.752V683.738H383.025V685.338H390.148ZM391.393 688.469V689.713H380.1V688.469H391.393Z" fill="#1A1A1A"/>
<path d="M402.768 678.871V686.568H401.318V683.273H400.033V686.473H398.611V679.104H400.033V682.043H401.318V678.871H402.768ZM402.768 687.115V691.217H401.25V688.332H394.305V687.115H402.768ZM397.408 679.719V683.396H394.195V684.805C395.631 684.791 396.725 684.729 397.982 684.477L398.119 685.707C396.629 685.967 395.371 686.008 393.566 686.008H392.719V682.262H395.945V680.922H392.705V679.719H397.408Z" fill="#1A1A1A"/>
<path d="M293.324 782.824C293.324 785.121 294.418 787.377 296.387 788.238L295.471 789.455C294.069 788.771 293.085 787.459 292.559 785.846C292.019 787.548 291.014 788.963 289.592 789.688L288.635 788.457C290.645 787.514 291.766 785.135 291.779 782.824V780.855H293.324V782.824ZM299.121 779.857V792.23H297.617V785.08H295.02V783.85H297.617V779.857H299.121Z" fill="#1A1A1A"/>
<path d="M306.477 779.98C309.293 779.98 310.92 780.732 310.934 782.1C310.92 783.48 309.293 784.219 306.477 784.232C303.66 784.219 302.02 783.48 302.02 782.1C302.02 780.732 303.66 779.98 306.477 779.98ZM306.477 781.115C304.59 781.115 303.605 781.457 303.619 782.1C303.605 782.783 304.59 783.098 306.477 783.111C308.391 783.098 309.361 782.783 309.361 782.1C309.361 781.457 308.391 781.115 306.477 781.115ZM312.123 784.875V786.064H307.229V787.008H310.715V790.029H303.688V790.945H311.057V792.107H302.197V788.949H309.225V788.129H302.184V787.008H305.711V786.064H300.857V784.875H312.123Z" fill="#1A1A1A"/>
<path d="M323.594 779.857V792.217H322.145V785.914H320.75V791.588H319.355V780.09H320.75V784.697H322.145V779.857H323.594ZM317.961 781.32V782.551H314.871V788.047C316.218 788.033 317.325 787.965 318.576 787.732L318.686 788.977C317.195 789.277 315.896 789.318 314.174 789.332H313.34V781.32H317.961Z" fill="#1A1A1A"/>
<path d="M333.055 782.824C333.041 785.094 334.23 787.363 336.24 788.225L335.338 789.441C333.916 788.785 332.87 787.473 332.303 785.859C331.735 787.603 330.676 789.024 329.172 789.729L328.242 788.457C330.307 787.568 331.51 785.203 331.51 782.824V780.855H333.055V782.824ZM338.66 779.857V792.23H337.129V779.857H338.66Z" fill="#1A1A1A"/>
<path d="M350.828 779.857V787.336H349.311V784.779H347.547V783.521H349.311V779.857H350.828ZM350.828 787.896V792.066H342.611V787.896H350.828ZM344.129 789.1V790.836H349.338V789.1H344.129ZM347.752 781.006V782.236H340.506V781.006H343.377V779.762H344.881V781.006H347.752ZM344.129 782.715C345.852 782.715 347.055 783.631 347.068 784.93C347.055 786.27 345.852 787.145 344.129 787.145C342.42 787.145 341.203 786.27 341.203 784.93C341.203 783.631 342.42 782.715 344.129 782.715ZM344.129 783.863C343.24 783.863 342.652 784.273 342.652 784.93C342.652 785.613 343.24 786.01 344.129 786.01C345.018 786.01 345.605 785.613 345.605 784.93C345.605 784.273 345.018 783.863 344.129 783.863Z" fill="#1A1A1A"/>
<path d="M359.018 780.883C359.018 782.441 360.754 784.014 363.393 784.355L362.791 785.586C360.692 785.271 359.024 784.239 358.225 782.838C357.411 784.239 355.75 785.271 353.672 785.586L353.07 784.355C355.682 784.014 357.418 782.441 357.418 780.883V780.254H359.018V780.883ZM363.844 786.652V787.91H358.936V792.217H357.432V787.91H352.578V786.652H363.844Z" fill="#1A1A1A"/>
<path d="M375.971 789.482V790.727H364.678V789.482H369.559V786.639H371.076V789.482H375.971ZM375 780.855V782.1H371.104C371.151 783.877 372.983 785.511 375.52 785.887L374.918 787.09C372.826 786.707 371.117 785.606 370.324 784.068C369.524 785.627 367.829 786.769 365.771 787.158L365.17 785.955C367.638 785.538 369.456 783.877 369.504 782.1H365.621V780.855H375Z" fill="#1A1A1A"/>
<path d="M774.949 681.124V689.313H769.07V681.124H774.949ZM770.574 682.313V688.097H773.473V682.313H770.574ZM778.695 679.962V692.335H777.164V679.962H778.695Z" fill="#1A1A1A"/>
<path d="M785.545 681.22V685.827H782.346V688.233C783.604 688.22 784.8 688.172 786.174 687.946L786.283 689.177C784.615 689.45 783.262 689.505 781.73 689.505H780.883V684.597H784.082V682.45H780.869V681.22H785.545ZM791.15 679.962V692.321H789.701V685.937H788.307V691.692H786.912V680.194H788.307V684.706H789.701V679.962H791.15Z" fill="#1A1A1A"/>
<path d="M803.906 689.573V690.817H792.613V689.573H797.48V686.88H793.857V680.919H802.607V686.88H798.984V689.573H803.906ZM795.348 682.136V685.69H801.104V682.136H795.348Z" fill="#1A1A1A"/>
<path d="M814.98 679.962V686.347H813.477V679.962H814.98ZM815.008 686.907V690.065H808.322V691.036H815.377V692.212H806.832V688.972H813.49V688.083H806.805V686.907H815.008ZM806.846 680.481V682.026H809.785V680.481H811.303V685.909H805.342V680.481H806.846ZM806.846 684.706H809.785V683.202H806.846V684.706Z" fill="#1A1A1A"/>
<path d="M827.107 679.962V692.335H825.604V679.962H827.107ZM823.307 681.042V685.677H819.055V688.165C821.003 688.151 822.685 688.056 824.605 687.728L824.742 688.972C822.637 689.341 820.791 689.409 818.576 689.409H817.496V684.474H821.762V682.272H817.482V681.042H823.307Z" fill="#1A1A1A"/>
<path d="M835.816 681.028V682.272H831.127V684.474H835.324V685.677H831.127V688.22C833.15 688.213 834.695 688.145 836.473 687.851L836.623 689.081C834.682 689.382 832.945 689.45 830.662 689.45H829.623V681.028H835.816ZM839.234 679.962V692.321H837.703V679.962H839.234Z" fill="#1A1A1A"/>
<path d="M852.291 685.882V687.099H841.012V685.882H845.906V684.706H842.393V680.522H850.924V681.712H843.91V683.503H850.992V684.706H847.396V685.882H852.291ZM846.631 687.81C849.297 687.81 850.896 688.616 850.91 690.065C850.896 691.501 849.297 692.321 846.631 692.321C843.938 692.321 842.324 691.501 842.324 690.065C842.324 688.616 843.938 687.81 846.631 687.81ZM846.631 688.972C844.826 688.972 843.855 689.354 843.869 690.065C843.855 690.776 844.826 691.146 846.631 691.146C848.395 691.146 849.379 690.776 849.393 690.065C849.379 689.354 848.395 688.972 846.631 688.972Z" fill="#1A1A1A"/>
<path d="M185.393 192.525C185.393 194.439 187.266 196.354 189.85 196.805L189.166 198.076C187.095 197.639 185.399 196.388 184.6 194.727C183.779 196.374 182.084 197.632 180.02 198.076L179.35 196.805C181.906 196.34 183.766 194.426 183.779 192.525V191.609H185.393V192.525ZM190.301 200.359V201.617H179.008V200.359H190.301Z" fill="#1A1A1A"/>
<path d="M202.4 200.482V201.754H191.107V200.482H195.961V198.049H192.078V196.846H193.814V193.154H192.037V191.924H201.416V193.154H199.611V196.846H201.375V198.049H197.465V200.482H202.4ZM195.332 196.846H198.107V193.154H195.332V196.846Z" fill="#1A1A1A"/>
<path d="M214.5 200.455V201.699H203.207V200.455H214.5ZM213.488 192.648V193.879H209.633C209.722 195.54 211.321 197.064 213.994 197.461L213.406 198.678C211.28 198.322 209.653 197.304 208.84 195.875C208.02 197.304 206.399 198.322 204.273 198.678L203.699 197.461C206.358 197.064 207.958 195.54 208.074 193.879H204.205V192.648H208.088V191.062H209.592V192.648H213.488Z" fill="#1A1A1A"/>
<path d="M228.541 191.336V192.361C228.541 193.325 228.541 194.378 228.281 195.697H229.867V196.914H218.656V195.697H226.777C226.853 195.26 226.907 194.856 226.955 194.467L219.887 194.768L219.709 193.592L227.01 193.414C227.023 193.113 227.023 192.826 227.023 192.539H220.023V191.336H228.541ZM228.609 197.803V200.92H221.432V201.85H229.047V203.039H219.928V199.812H227.092V198.965H219.9V197.803H228.609Z" fill="#1A1A1A"/>
<path d="M241.078 190.83V203.203H239.561V196.627H237.441V195.383H239.561V190.83H241.078ZM236.73 191.91V196.436H232.684V199.033C234.516 199.026 235.999 198.965 237.66 198.664L237.783 199.908C235.938 200.236 234.297 200.305 232.164 200.305H231.18V195.205H235.24V193.141H231.139V191.91H236.73Z" fill="#1A1A1A"/>
<path d="M249.213 192.525C249.213 194.439 251.086 196.354 253.67 196.805L252.986 198.076C250.915 197.639 249.22 196.388 248.42 194.727C247.6 196.374 245.904 197.632 243.84 198.076L243.17 196.805C245.727 196.34 247.586 194.426 247.6 192.525V191.609H249.213V192.525ZM254.121 200.359V201.617H242.828V200.359H254.121Z" fill="#1A1A1A"/>
<path d="M265.291 190.83V203.203H263.787V196.531H261.463V195.301H263.787V190.83H265.291ZM261.271 191.896V193.141H257.02V195.355H260.779V196.559H257.02V199.102C258.899 199.095 260.308 199.033 261.9 198.773L262.051 200.004C260.246 200.277 258.674 200.346 256.459 200.359H255.488V191.896H261.271Z" fill="#1A1A1A"/>
<path d="M177.131 360.011V361.269C177.131 362.8 177.131 364.468 176.68 366.888L175.189 366.737C175.613 364.454 175.613 362.759 175.613 361.269V361.228H168.135V360.011H177.131ZM178.266 368.392V369.636H167V368.392H169.529V364.454H171.047V368.392H172.619V364.454H174.109V368.392H178.266Z" fill="#1A1A1A"/>
<path d="M190.365 364.714V365.931H187.549V367.216H188.984V371.235H187.467V368.405H180.344V367.216H181.875V365.931H179.1V364.714H190.365ZM184.719 359.136C187.426 359.136 189.162 360.052 189.176 361.542C189.162 363.046 187.426 363.962 184.719 363.962C182.012 363.962 180.262 363.046 180.262 361.542C180.262 360.052 182.012 359.136 184.719 359.136ZM184.719 360.325C182.914 360.325 181.834 360.763 181.848 361.542C181.834 362.349 182.914 362.786 184.719 362.786C186.523 362.786 187.604 362.349 187.604 361.542C187.604 360.763 186.523 360.325 184.719 360.325ZM183.393 367.216H186.045V365.931H183.393V367.216Z" fill="#1A1A1A"/>
<path d="M198.131 360.011V361.214H191.227V360.011H193.988V358.78H195.506V360.011H198.131ZM194.727 361.651C196.408 361.651 197.611 362.567 197.625 363.894C197.611 365.233 196.408 366.122 194.727 366.122C193.045 366.122 191.855 365.233 191.869 363.894C191.855 362.567 193.045 361.651 194.727 361.651ZM194.727 362.8C193.852 362.8 193.277 363.21 193.291 363.894C193.277 364.577 193.852 365.015 194.727 365.015C195.602 365.015 196.203 364.577 196.203 363.894C196.203 363.21 195.602 362.8 194.727 362.8ZM201.549 358.876V366.218H200.031V365.247H198.199V364.03H200.031V362.827H198.213V361.597H200.031V358.876H201.549ZM194.836 366.696V367.735H200.045V366.696H201.549V371.085H193.318V366.696H194.836ZM194.836 369.896H200.045V368.884H194.836V369.896Z" fill="#1A1A1A"/>
<path d="M209.205 359.614V363.333H205.309V364.851C207.291 364.857 208.433 364.796 209.738 364.55L209.889 365.78C208.412 366.026 207.127 366.067 204.707 366.067H203.805V362.198H207.688V360.817H203.777V359.614H209.205ZM213.648 358.89V366.491H212.131V364.454H209.943V363.237H212.131V361.856H209.943V360.64H212.131V358.89H213.648ZM213.648 367.079V371.235H212.131V368.296H205.199V367.079H213.648Z" fill="#1A1A1A"/>
<path d="M226.678 364.796V366.013H215.398V364.796H220.293V363.62H216.779V359.437H225.311V360.626H218.297V362.417H225.379V363.62H221.783V364.796H226.678ZM221.018 366.724C223.684 366.724 225.283 367.53 225.297 368.979C225.283 370.415 223.684 371.235 221.018 371.235C218.324 371.235 216.711 370.415 216.711 368.979C216.711 367.53 218.324 366.724 221.018 366.724ZM221.018 367.886C219.213 367.886 218.242 368.269 218.256 368.979C218.242 369.69 219.213 370.06 221.018 370.06C222.781 370.06 223.766 369.69 223.779 368.979C223.766 368.269 222.781 367.886 221.018 367.886Z" fill="#1A1A1A"/>
<path d="M230.889 370.155C228.865 370.155 227.621 368.966 227.621 367.394C227.621 366.231 228.38 365.507 229.48 364.741C228.906 364.044 228.469 363.326 228.469 362.444C228.469 361.036 229.494 359.997 231.053 359.997C232.611 359.997 233.568 361.036 233.568 362.239C233.568 363.183 233.076 363.894 232.256 364.495L231.627 364.96L233.445 367.079C233.698 366.594 233.855 366.013 233.855 365.356H235.359C235.359 366.717 234.983 367.681 234.498 368.323L235.947 370.019H234.061L233.432 369.294C232.721 369.882 231.764 370.155 230.889 370.155ZM229.33 367.312C229.33 368.104 229.959 368.733 230.943 368.733C231.47 368.733 232.01 368.549 232.488 368.2L230.424 365.835L230.26 365.958C229.59 366.45 229.33 366.97 229.33 367.312ZM230.014 362.472C230.014 362.923 230.321 363.381 230.738 363.894L231.299 363.511C231.818 363.169 232.092 362.827 232.092 362.321C232.092 361.884 231.709 361.419 231.08 361.433C230.451 361.433 230.014 361.925 230.014 362.472Z" fill="#1A1A1A"/>
<path d="M250.057 358.89V367.954H248.539V364.892H245.6C245.005 365.555 244.13 365.958 243.139 365.958C241.279 365.958 239.871 364.618 239.871 362.8C239.871 360.954 241.279 359.628 243.139 359.628C244.123 359.628 244.991 360.024 245.586 360.681H248.539V358.89H250.057ZM250.371 369.759V370.989H241.949V367.024H243.467V369.759H250.371ZM243.139 360.981C242.072 360.981 241.32 361.692 241.32 362.8C241.32 363.894 242.072 364.604 243.139 364.604C244.15 364.604 244.916 363.894 244.93 362.8C244.916 361.692 244.15 360.981 243.139 360.981ZM246.256 361.911C246.331 362.191 246.379 362.485 246.379 362.8C246.379 363.101 246.338 363.388 246.27 363.661H248.539V361.911H246.256Z" fill="#1A1A1A"/>
<path d="M258.246 359.901C258.246 361.46 259.982 363.032 262.621 363.374L262.02 364.604C259.921 364.29 258.253 363.258 257.453 361.856C256.64 363.258 254.979 364.29 252.9 364.604L252.299 363.374C254.91 363.032 256.646 361.46 256.646 359.901V359.272H258.246V359.901ZM263.072 365.671V366.929H258.164V371.235H256.66V366.929H251.807V365.671H263.072Z" fill="#1A1A1A"/>
<path d="M274.27 358.89V368.241H272.738V367.161H270.318V366.095H272.738V358.89H274.27ZM274.557 369.759V370.989H265.492V367.339H267.01V369.759H274.557ZM263.852 364.44C266.135 364.427 269.197 364.399 271.822 364.071L271.904 365.165C270.886 365.336 269.833 365.452 268.787 365.521V367.899H267.27V365.603C266.114 365.65 265.014 365.657 264.043 365.657L263.852 364.44ZM267.885 359.341C269.689 359.341 270.947 360.229 270.961 361.528C270.947 362.854 269.689 363.702 267.885 363.702C266.053 363.702 264.795 362.854 264.795 361.528C264.795 360.229 266.053 359.341 267.885 359.341ZM267.885 360.462C266.9 360.462 266.23 360.858 266.23 361.528C266.23 362.198 266.9 362.595 267.885 362.595C268.828 362.595 269.498 362.198 269.512 361.528C269.498 360.858 268.828 360.462 267.885 360.462Z" fill="#1A1A1A"/>
</g>
</svg>
