<svg width="1000" height="1000" viewBox="0 0 1000 1000" fill="none" xmlns="http://www.w3.org/2000/svg">
<mask id="mask0_1038_600" style="mask-type:alpha" maskUnits="userSpaceOnUse" x="0" y="0" width="1000" height="1000">
<rect width="1000" height="1000" fill="#D9D9D9"/>
</mask>
<g mask="url(#mask0_1038_600)">
<path d="M440.667 675.818H410.375V687.485H440.667V675.818Z" fill="#FEFDFD"/>
<path d="M426.891 658.967L424.855 672.029L431.968 673.138L434.003 660.076L426.891 658.967Z" fill="#FEFDFD"/>
<path d="M439.212 656.637L437.699 666.333L443.998 667.317L445.511 657.621L439.212 656.637Z" fill="#FEFDFD"/>
<path d="M592.389 699.299V501.295H440.668V699.299H503.998V728.896H577.84V699.299H592.389Z" stroke="#E5C2DB" stroke-miterlimit="10"/>
<path d="M583.057 182.258H545.97V169H488.078V212.401H525.16V241.305H583.057V182.258Z" stroke="#E5C2DB" stroke-miterlimit="10"/>
<path d="M698.44 315.104V258.549H489.824V315.104H512.929V398.52H671.848V315.104H698.44Z" stroke="#E5C2DB" stroke-miterlimit="10"/>
<path d="M383.487 707.105V736.037H268.875V830.924H578.289V736.037H497.462V707.105H383.487Z" fill="#E5C2DB"/>
<path d="M746.281 619.416H611.469V488.941H718.343L727.498 511.549L749.997 520.387L746.281 619.416Z" fill="#E5C2DB"/>
<path d="M550.004 682.661V666.84H536.272V655.784H452.922V688.003H466.654H533.586L529.128 704.113L540.49 710.742H553.05L560.058 685.447L550.004 682.661Z" fill="#C878AE"/>
<path d="M475.02 597.762H451.027V629.981H475.02V597.762Z" fill="#C878AE"/>
<path d="M566.956 594.601H482.598V619.417H566.956V594.601Z" fill="#C878AE"/>
<path d="M419.596 519.673H371.703V570.771H419.596V519.673Z" fill="#FEFDFD"/>
<path d="M419.595 597.762H393.488V616.259H419.595V597.762Z" fill="#FEFDFD"/>
<path d="M482.511 274.932H452.219V286.598H482.511V274.932Z" fill="#FEFDFD"/>
<path d="M489.667 187.329H459.375V198.996H489.667V187.329Z" fill="#FEFDFD"/>
<path d="M289.989 202.217L285.102 218.702L327.783 231.367L332.67 214.882L289.989 202.217Z" fill="#FEFDFD"/>
<path d="M512.927 229.568H463.23V253.049H512.927V229.568Z" fill="#FEFDFD"/>
<path d="M450.807 185.742H343.176V199.001H450.807V185.742Z" fill="#FEFDFD"/>
<path d="M367.223 192.371H343.176V245.198H367.223V192.371Z" fill="#FEFDFD"/>
<path d="M419.59 683.402H410.375V695.069H419.59V683.402Z" fill="#FEFDFD"/>
<path d="M398.805 655.807L396.77 668.869L403.882 669.978L405.917 656.916L398.805 655.807Z" fill="#FEFDFD"/>
<path d="M659.227 330.2H583.059V340.624H659.227V330.2Z" fill="#C878AE"/>
<path d="M619.367 371.66V363.488H634.123V354.367H580.689V363.488H592.644V371.66H541.738V391.084H662.541V371.66H619.367Z" fill="#C878AE"/>
<path d="M685.554 283.61H580.102V302.446H685.554V283.61Z" fill="#C878AE"/>
<path d="M546.318 277.172H527.415V283.61H517.312H499.945V302.446V311.048H517.312V302.446H573.787V283.61H546.318V277.172Z" fill="#C878AE"/>
<path d="M523.742 182.253H494.027V201.088H523.742V182.253Z" fill="#C878AE"/>
<path d="M551.049 189.58H533.328V235.085H551.049V189.58Z" fill="#C878AE"/>
<path d="M577.572 189.58H559.852V235.085H577.572V189.58Z" fill="#C878AE"/>
<path d="M579.861 536.584L571.617 537.985L569.737 519.673L565.459 521.875H550.343V546.43H496.887V527.322H467.363V559.541H480.234H496.887H558.451V554.095H579.861V536.584Z" fill="#C878AE"/>
<path d="M600.96 398.526V408.268M281.661 385.927L300.167 398.526H660.846M746.246 477.58H171M617.537 424.77C617.537 415.627 610.115 408.219 600.96 408.219C591.806 408.219 584.384 415.633 584.384 424.77C584.384 433.907 591.806 441.326 600.96 441.326C610.115 441.326 617.537 433.912 617.537 424.77Z" stroke="#DCDDDD" stroke-miterlimit="10"/>
<path d="M746.247 265.713H244.543" stroke="#DCDDDD" stroke-miterlimit="10"/>
<path d="M601.559 642.88H244.547" stroke="#DCDDDD" stroke-miterlimit="10"/>
<path d="M601.559 582.688H244.547" stroke="#DCDDDD" stroke-miterlimit="10"/>
<path d="M601.559 507.761H244.547" stroke="#DCDDDD" stroke-miterlimit="10"/>
<path d="M600.957 441.321V643.48" stroke="#DCDDDD" stroke-miterlimit="10"/>
<path d="M489.659 360.01H475.453V317.214H482.319V304.888H428.808V317.214H435.99V360.01H405.649V318.948H420.084V298.635H405.649H316.98V318.948V387.344H405.649V372.33H489.659V360.01Z" fill="#C878AE"/>
<path d="M627.854 224.42C627.854 225.773 628.852 227.072 630.793 227.605L630.096 228.809C628.681 228.419 627.676 227.578 627.115 226.525C626.575 227.722 625.55 228.665 624.094 229.109L623.355 227.92C625.297 227.359 626.336 225.938 626.336 224.42V224.365H623.752V223.162H626.336V221.727H627.867V223.162H630.438V224.365H627.854V224.42ZM633.158 221.781V224.803H634.881V226.047H633.158V229.273H631.641V221.781H633.158ZM629.139 229.533C631.709 229.533 633.268 230.367 633.281 231.83C633.268 233.279 631.709 234.113 629.139 234.113C626.541 234.113 624.955 233.279 624.955 231.83C624.955 230.367 626.541 229.533 629.139 229.533ZM629.139 230.709C627.43 230.709 626.473 231.078 626.473 231.83C626.473 232.568 627.43 232.951 629.139 232.951C630.834 232.951 631.777 232.568 631.777 231.83C631.777 231.078 630.834 230.709 629.139 230.709Z" fill="#1A1A1A"/>
<path d="M638.941 222.328C640.541 222.314 641.799 223.237 642.113 224.598H644.342V221.781H645.859V228.412H644.342V225.828H642.127C641.819 227.216 640.548 228.152 638.941 228.152C637.041 228.152 635.674 226.936 635.674 225.227C635.674 223.545 637.041 222.314 638.941 222.328ZM638.941 223.6C637.875 223.6 637.123 224.229 637.123 225.227C637.123 226.211 637.875 226.867 638.941 226.867C639.98 226.867 640.719 226.211 640.732 225.227C640.719 224.229 639.98 223.6 638.941 223.6ZM639.215 228.986V230.299H644.342V228.986H645.859V233.99H637.711V228.986H639.215ZM639.215 232.76H644.342V231.475H639.215V232.76Z" fill="#1A1A1A"/>
<path d="M658.902 231.406V232.65H647.609V231.406H652.477V229H648.854V222.602H650.371V224.625H656.1V222.602H657.617V229H653.98V231.406H658.902ZM650.371 227.77H656.1V225.842H650.371V227.77Z" fill="#1A1A1A"/>
<path d="M670.975 227.619V228.836H668.158V230.121H669.594V234.141H668.076V231.311H660.953V230.121H662.484V228.836H659.709V227.619H670.975ZM665.328 222.041C668.035 222.041 669.771 222.957 669.785 224.447C669.771 225.951 668.035 226.867 665.328 226.867C662.621 226.867 660.871 225.951 660.871 224.447C660.871 222.957 662.621 222.041 665.328 222.041ZM665.328 223.23C663.523 223.23 662.443 223.668 662.457 224.447C662.443 225.254 663.523 225.691 665.328 225.691C667.133 225.691 668.213 225.254 668.213 224.447C668.213 223.668 667.133 223.23 665.328 223.23ZM664.002 230.121H666.654V228.836H664.002V230.121Z" fill="#1A1A1A"/>
<path d="M682.377 221.781V231.037H680.928V221.781H682.377ZM679.902 222V230.668H678.453V225.965H676.799V224.721H678.453V222H679.902ZM682.719 232.664V233.895H674.105V229.93H675.623V232.664H682.719ZM675.623 224.311C675.623 225.746 676.334 227.195 677.906 227.893L677.059 229.068C676.02 228.59 675.309 227.756 674.898 226.744C674.461 227.879 673.688 228.836 672.561 229.369L671.727 228.221C673.367 227.428 674.146 225.773 674.146 224.311V222.629H675.623V224.311Z" fill="#1A1A1A"/>
<path d="M694.271 221.781V234.154H692.768V227.482H690.443V226.252H692.768V221.781H694.271ZM690.252 222.848V224.092H686V226.307H689.76V227.51H686V230.053C687.88 230.046 689.288 229.984 690.881 229.725L691.031 230.955C689.227 231.229 687.654 231.297 685.439 231.311H684.469V222.848H690.252Z" fill="#1A1A1A"/>
<path d="M350.781 342.197V343.77H355.676V345H344.41V343.77H349.277V342.197H350.781ZM350.029 345.793C352.709 345.793 354.295 346.559 354.309 347.953C354.295 349.348 352.709 350.127 350.029 350.127C347.336 350.127 345.723 349.348 345.723 347.953C345.723 346.559 347.336 345.793 350.029 345.793ZM350.029 346.955C348.211 346.955 347.254 347.297 347.268 347.953C347.254 348.637 348.211 348.979 350.029 348.979C351.807 348.979 352.777 348.637 352.791 347.953C352.777 347.297 351.807 346.955 350.029 346.955ZM354.664 338.328V339.545H351.109C351.355 340.55 352.839 341.452 355.143 341.678L354.596 342.867C352.354 342.642 350.699 341.767 350.029 340.516C349.359 341.767 347.719 342.642 345.477 342.867L344.943 341.678C347.227 341.452 348.71 340.557 348.963 339.545H345.436V338.328H354.664Z" fill="#1A1A1A"/>
<path d="M366.258 337.781V340.83H367.98V342.088H366.258V345H364.74V337.781H366.258ZM359.777 345.492V346.559H364.74V345.492H366.258V349.99H358.273V345.492H359.777ZM359.777 348.787H364.74V347.734H359.777V348.787ZM363.852 338.93V340.146H356.523V338.93H359.436V337.686H360.953V338.93H363.852ZM360.188 340.57C361.979 340.57 363.195 341.432 363.209 342.744C363.195 344.057 361.979 344.918 360.188 344.918C358.383 344.918 357.152 344.057 357.152 342.744C357.152 341.432 358.383 340.57 360.188 340.57ZM360.188 341.691C359.244 341.691 358.629 342.088 358.629 342.744C358.629 343.414 359.244 343.797 360.188 343.797C361.131 343.797 361.76 343.414 361.76 342.744C361.76 342.088 361.131 341.691 360.188 341.691Z" fill="#1A1A1A"/>
<path d="M375.514 338.697V339.436C375.5 340.283 375.5 341.5 375.213 343.072L373.709 342.936C373.948 341.657 373.996 340.714 374.023 339.955H369.211V338.697H375.514ZM372.396 341.514V343.975C373.675 343.927 374.987 343.831 376.184 343.66L376.266 344.754C373.695 345.219 370.783 345.26 368.609 345.273L368.473 344.057C369.204 344.05 370.024 344.043 370.893 344.029V341.514H372.396ZM378.467 337.781V341.637H380.066V342.908H378.467V347.037H376.908V337.781H378.467ZM378.863 348.664V349.895H370.318V346.217H371.85V348.664H378.863Z" fill="#1A1A1A"/>
<path d="M504.85 492.807C504.85 494.365 506.586 495.938 509.225 496.279L508.623 497.51C506.524 497.195 504.856 496.163 504.057 494.762C503.243 496.163 501.582 497.195 499.504 497.51L498.902 496.279C501.514 495.938 503.25 494.365 503.25 492.807V492.178H504.85V492.807ZM509.676 498.576V499.834H504.768V504.141H503.264V499.834H498.41V498.576H509.676Z" fill="#1A1A1A"/>
<path d="M514.516 492.643C516.471 492.629 517.906 493.873 517.92 495.623C517.906 497.387 516.471 498.617 514.516 498.617C512.574 498.617 511.125 497.387 511.125 495.623C511.125 493.873 512.574 492.629 514.516 492.643ZM514.516 493.955C513.436 493.955 512.629 494.598 512.629 495.623C512.629 496.662 513.436 497.291 514.516 497.291C515.609 497.291 516.43 496.662 516.43 495.623C516.43 494.598 515.609 493.955 514.516 493.955ZM520.805 491.781V504.154H519.287V491.781H520.805ZM510.564 500.326C512.793 500.326 515.883 500.299 518.549 499.916L518.672 501.023C515.896 501.557 512.93 501.57 510.756 501.57L510.564 500.326Z" fill="#1A1A1A"/>
<path d="M533.246 491.781V504.141H531.797V497.838H530.402V503.512H529.008V492.014H530.402V496.621H531.797V491.781H533.246ZM527.613 493.244V494.475H524.523V499.971C525.87 499.957 526.978 499.889 528.229 499.656L528.338 500.9C526.848 501.201 525.549 501.242 523.826 501.256H522.992V493.244H527.613Z" fill="#1A1A1A"/>
<path d="M653.404 555.994V557.225H649.795V558.578H654.689V559.822H643.41V558.578H648.291V557.225H644.873V553H646.391V555.994H653.404ZM649.029 560.561C651.695 560.574 653.295 561.395 653.309 562.844C653.295 564.293 651.695 565.127 649.029 565.127C646.336 565.127 644.723 564.293 644.723 562.844C644.723 561.395 646.336 560.574 649.029 560.561ZM649.029 561.736C647.225 561.736 646.254 562.119 646.268 562.844C646.254 563.555 647.225 563.951 649.029 563.951C650.793 563.951 651.777 563.555 651.791 562.844C651.777 562.119 650.793 561.736 649.029 561.736Z" fill="#1A1A1A"/>
<path d="M659.939 555.01C659.939 556.527 660.924 557.949 662.852 558.537L662.127 559.727C660.739 559.296 659.755 558.414 659.215 557.293C658.668 558.592 657.622 559.624 656.139 560.123L655.373 558.92C657.369 558.264 658.408 556.664 658.408 555.023V554.873H655.797V553.643H662.51V554.873H659.939V555.01ZM665.258 552.781V555.748H666.98V556.992H665.258V560.15H663.74V552.781H665.258ZM661.238 560.424C663.795 560.424 665.367 561.285 665.381 562.762C665.367 564.252 663.795 565.127 661.238 565.127C658.654 565.127 657.055 564.252 657.055 562.762C657.055 561.285 658.654 560.424 661.238 560.424ZM661.238 561.613C659.543 561.613 658.572 562.01 658.572 562.762C658.572 563.527 659.543 563.938 661.238 563.938C662.934 563.938 663.877 563.527 663.877 562.762C663.877 562.01 662.934 561.613 661.238 561.613Z" fill="#1A1A1A"/>
<path d="M681.281 552.795V561.859H679.764V558.797H676.824C676.229 559.46 675.354 559.863 674.363 559.863C672.504 559.863 671.096 558.523 671.096 556.705C671.096 554.859 672.504 553.533 674.363 553.533C675.348 553.533 676.216 553.93 676.811 554.586H679.764V552.795H681.281ZM681.596 563.664V564.895H673.174V560.93H674.691V563.664H681.596ZM674.363 554.887C673.297 554.887 672.545 555.598 672.545 556.705C672.545 557.799 673.297 558.51 674.363 558.51C675.375 558.51 676.141 557.799 676.154 556.705C676.141 555.598 675.375 554.887 674.363 554.887ZM677.48 555.816C677.556 556.097 677.604 556.391 677.604 556.705C677.604 557.006 677.562 557.293 677.494 557.566H679.764V555.816H677.48Z" fill="#1A1A1A"/>
<path d="M692.916 553.533V554.641C692.916 555.796 692.916 557.061 692.588 558.811H694.297V560.041H689.389V565.154H687.857V560.041H683.031V558.811H691.043C691.385 557.129 691.398 555.871 691.398 554.764H684.357V553.533H692.916Z" fill="#1A1A1A"/>
<path d="M706.424 562.434V563.705H695.131V562.434H699.984V560H696.102V558.797H697.838V555.105H696.061V553.875H705.439V555.105H703.635V558.797H705.398V560H701.488V562.434H706.424ZM699.355 558.797H702.131V555.105H699.355V558.797Z" fill="#1A1A1A"/>
<path d="M711.66 555.01C711.66 556.527 712.645 557.949 714.572 558.537L713.848 559.727C712.46 559.296 711.476 558.414 710.936 557.293C710.389 558.592 709.343 559.624 707.859 560.123L707.094 558.92C709.09 558.264 710.129 556.664 710.129 555.023V554.873H707.518V553.643H714.23V554.873H711.66V555.01ZM716.979 552.781V555.748H718.701V556.992H716.979V560.15H715.461V552.781H716.979ZM712.959 560.424C715.516 560.424 717.088 561.285 717.102 562.762C717.088 564.252 715.516 565.127 712.959 565.127C710.375 565.127 708.775 564.252 708.775 562.762C708.775 561.285 710.375 560.424 712.959 560.424ZM712.959 561.613C711.264 561.613 710.293 562.01 710.293 562.762C710.293 563.527 711.264 563.938 712.959 563.938C714.654 563.938 715.598 563.527 715.598 562.762C715.598 562.01 714.654 561.613 712.959 561.613Z" fill="#1A1A1A"/>
<path d="M390.404 779.994V781.225H386.795V782.578H391.689V783.822H380.41V782.578H385.291V781.225H381.873V777H383.391V779.994H390.404ZM386.029 784.561C388.695 784.574 390.295 785.395 390.309 786.844C390.295 788.293 388.695 789.127 386.029 789.127C383.336 789.127 381.723 788.293 381.723 786.844C381.723 785.395 383.336 784.574 386.029 784.561ZM386.029 785.736C384.225 785.736 383.254 786.119 383.268 786.844C383.254 787.555 384.225 787.951 386.029 787.951C387.793 787.951 388.777 787.555 388.791 786.844C388.777 786.119 387.793 785.736 386.029 785.736Z" fill="#1A1A1A"/>
<path d="M396.939 779.01C396.939 780.527 397.924 781.949 399.852 782.537L399.127 783.727C397.739 783.296 396.755 782.414 396.215 781.293C395.668 782.592 394.622 783.624 393.139 784.123L392.373 782.92C394.369 782.264 395.408 780.664 395.408 779.023V778.873H392.797V777.643H399.51V778.873H396.939V779.01ZM402.258 776.781V779.748H403.98V780.992H402.258V784.15H400.74V776.781H402.258ZM398.238 784.424C400.795 784.424 402.367 785.285 402.381 786.762C402.367 788.252 400.795 789.127 398.238 789.127C395.654 789.127 394.055 788.252 394.055 786.762C394.055 785.285 395.654 784.424 398.238 784.424ZM398.238 785.613C396.543 785.613 395.572 786.01 395.572 786.762C395.572 787.527 396.543 787.938 398.238 787.938C399.934 787.938 400.877 787.527 400.877 786.762C400.877 786.01 399.934 785.613 398.238 785.613Z" fill="#1A1A1A"/>
<path d="M418.281 776.795V785.859H416.764V782.797H413.824C413.229 783.46 412.354 783.863 411.363 783.863C409.504 783.863 408.096 782.523 408.096 780.705C408.096 778.859 409.504 777.533 411.363 777.533C412.348 777.533 413.216 777.93 413.811 778.586H416.764V776.795H418.281ZM418.596 787.664V788.895H410.174V784.93H411.691V787.664H418.596ZM411.363 778.887C410.297 778.887 409.545 779.598 409.545 780.705C409.545 781.799 410.297 782.51 411.363 782.51C412.375 782.51 413.141 781.799 413.154 780.705C413.141 779.598 412.375 778.887 411.363 778.887ZM414.48 779.816C414.556 780.097 414.604 780.391 414.604 780.705C414.604 781.006 414.562 781.293 414.494 781.566H416.764V779.816H414.48Z" fill="#1A1A1A"/>
<path d="M429.916 777.533V778.641C429.916 779.796 429.916 781.061 429.588 782.811H431.297V784.041H426.389V789.154H424.857V784.041H420.031V782.811H428.043C428.385 781.129 428.398 779.871 428.398 778.764H421.357V777.533H429.916Z" fill="#1A1A1A"/>
<path d="M443.424 786.434V787.705H432.131V786.434H436.984V784H433.102V782.797H434.838V779.105H433.061V777.875H442.439V779.105H440.635V782.797H442.398V784H438.488V786.434H443.424ZM436.355 782.797H439.131V779.105H436.355V782.797Z" fill="#1A1A1A"/>
<path d="M448.66 779.01C448.66 780.527 449.645 781.949 451.572 782.537L450.848 783.727C449.46 783.296 448.476 782.414 447.936 781.293C447.389 782.592 446.343 783.624 444.859 784.123L444.094 782.92C446.09 782.264 447.129 780.664 447.129 779.023V778.873H444.518V777.643H451.23V778.873H448.66V779.01ZM453.979 776.781V779.748H455.701V780.992H453.979V784.15H452.461V776.781H453.979ZM449.959 784.424C452.516 784.424 454.088 785.285 454.102 786.762C454.088 788.252 452.516 789.127 449.959 789.127C447.375 789.127 445.775 788.252 445.775 786.762C445.775 785.285 447.375 784.424 449.959 784.424ZM449.959 785.613C448.264 785.613 447.293 786.01 447.293 786.762C447.293 787.527 448.264 787.938 449.959 787.938C451.654 787.938 452.598 787.527 452.598 786.762C452.598 786.01 451.654 785.613 449.959 785.613Z" fill="#1A1A1A"/>
</g>
</svg>
