<svg width="332" height="345" viewBox="0 0 332 345" fill="none" xmlns="http://www.w3.org/2000/svg">
<mask id="mask0_814_2705" style="mask-type:alpha" maskUnits="userSpaceOnUse" x="0" y="0" width="332" height="345">
<rect width="332" height="345" fill="#D9D9D9"/>
</mask>
<g mask="url(#mask0_814_2705)">
<path d="M155.191 263.477H139.443V269.542H155.191V263.477Z" fill="#FEFDFD"/>
<path d="M148.029 254.716L146.971 261.507L150.668 262.083L151.726 255.293L148.029 254.716Z" fill="#FEFDFD"/>
<path d="M154.435 253.505L153.648 258.545L156.923 259.057L157.709 254.016L154.435 253.505Z" fill="#FEFDFD"/>
<path d="M234.064 275.684V172.749H155.189V275.684H188.113V291.07H226.5V275.684H234.064Z" stroke="#E5C2DB" stroke-width="0.519864" stroke-miterlimit="10"/>
<path d="M229.214 6.89258H209.934V0H179.838V22.5624H199.115V37.589H229.214V6.89258Z" stroke="#E5C2DB" stroke-width="0.519864" stroke-miterlimit="10"/>
<path d="M289.198 75.9544V46.5532H180.746V75.9544H192.757V119.319H275.374V75.9544H289.198Z" stroke="#E5C2DB" stroke-width="0.519864" stroke-miterlimit="10"/>
<path d="M125.464 279.742V294.782H65.8809V344.11H226.734V294.782H184.715V279.742H125.464Z" fill="#E5C2DB"/>
<path d="M314.068 234.155H243.984V166.326H299.545L304.304 178.079L316 182.673L314.068 234.155Z" fill="#E5C2DB"/>
<path d="M212.03 267.034V258.809H204.891V253.062H161.561V269.811H168.699H203.495L201.178 278.186L207.084 281.632H213.614L217.257 268.482L212.03 267.034Z" fill="#C878AE"/>
<path d="M173.051 222.897H160.578V239.647H173.051V222.897Z" fill="#C878AE"/>
<path d="M220.843 221.254H176.988V234.155H220.843V221.254Z" fill="#C878AE"/>
<path d="M144.236 182.302H119.338V208.866H144.236V182.302Z" fill="#FEFDFD"/>
<path d="M144.236 222.897H130.664V232.514H144.236V222.897Z" fill="#FEFDFD"/>
<path d="M176.943 55.0703H161.195V61.1353H176.943V55.0703Z" fill="#FEFDFD"/>
<path d="M180.664 9.52881H164.916V15.5938H180.664V9.52881Z" fill="#FEFDFD"/>
<path d="M76.8589 17.2681L74.3184 25.8379L96.5071 32.422L99.0477 23.8521L76.8589 17.2681Z" fill="#FEFDFD"/>
<path d="M192.755 31.4868H166.92V43.6934H192.755V31.4868Z" fill="#FEFDFD"/>
<path d="M160.462 8.70361H104.508V15.5962H160.462V8.70361Z" fill="#FEFDFD"/>
<path d="M117.009 12.1494H104.508V39.6121H117.009V12.1494Z" fill="#FEFDFD"/>
<path d="M144.234 267.419H139.443V273.484H144.234V267.419Z" fill="#FEFDFD"/>
<path d="M133.427 253.074L132.369 259.864L136.067 260.441L137.125 253.65L133.427 253.074Z" fill="#FEFDFD"/>
<path d="M268.812 83.8018H229.215V89.2206H268.812V83.8018Z" fill="#C878AE"/>
<path d="M248.091 105.355V101.107H255.762V96.3652H227.983V101.107H234.199V105.355H207.734V115.453H270.535V105.355H248.091Z" fill="#C878AE"/>
<path d="M282.499 59.5815H227.678V69.3734H282.499V59.5815Z" fill="#C878AE"/>
<path d="M210.115 56.2344H200.288V59.5815H195.036H186.008V69.3734V73.8456H195.036V69.3734H224.395V59.5815H210.115V56.2344Z" fill="#C878AE"/>
<path d="M198.379 6.88965H182.932V16.6815H198.379V6.88965Z" fill="#C878AE"/>
<path d="M212.574 10.6987H203.361V34.3551H212.574V10.6987Z" fill="#C878AE"/>
<path d="M226.363 10.6987H217.15V34.3551H226.363V10.6987Z" fill="#C878AE"/>
<path d="M227.552 191.094L223.266 191.822L222.289 182.302L220.065 183.447H212.207V196.212H184.417V186.279H169.068V203.028H175.759H184.417H216.422V200.197H227.552V191.094Z" fill="#C878AE"/>
<path d="M238.521 119.322V124.386M72.5289 112.772L82.1492 119.322H269.654M314.05 160.419H15M247.138 132.965C247.138 128.212 243.28 124.361 238.521 124.361C233.762 124.361 229.904 128.215 229.904 132.965C229.904 137.715 233.762 141.572 238.521 141.572C243.28 141.572 247.138 137.718 247.138 132.965Z" stroke="#DCDDDD" stroke-width="0.519864" stroke-miterlimit="10"/>
<path d="M314.052 50.2773H53.2344" stroke="#DCDDDD" stroke-width="0.519864" stroke-miterlimit="10"/>
<path d="M238.832 246.353H53.2344" stroke="#DCDDDD" stroke-width="0.519864" stroke-miterlimit="10"/>
<path d="M238.832 215.061H53.2344" stroke="#DCDDDD" stroke-width="0.519864" stroke-miterlimit="10"/>
<path d="M238.832 176.109H53.2344" stroke="#DCDDDD" stroke-width="0.519864" stroke-miterlimit="10"/>
<path d="M238.52 141.57V246.665" stroke="#DCDDDD" stroke-width="0.519864" stroke-miterlimit="10"/>
<path d="M180.66 99.2991H173.275V77.0513H176.844V70.6433H149.026V77.0513H152.759V99.2991H136.986V77.9525H144.49V67.3926H136.986H90.8906V77.9525V113.509H136.986V105.704H180.66V99.2991Z" fill="#C878AE"/>
<path d="M251.781 28.3553H249.824V27.7221H251.781V28.3553ZM255.217 29.9638H254.198V31.7324H253.404V27.562H254.198V29.3015H255.217V29.9638ZM252.778 30.9463L252.371 31.5722C251.825 31.3903 251.104 30.8954 250.806 30.284C250.566 30.9172 249.86 31.5213 249.147 31.7615L248.703 31.1501C249.503 30.8881 250.209 30.3131 250.362 29.4325H248.987V28.7993H252.611V29.4325H251.243C251.359 30.204 252.022 30.7207 252.778 30.9463ZM251.941 32.4747C250.981 32.4747 250.42 32.744 250.42 33.1516C250.42 33.5664 250.981 33.8285 251.941 33.8285C252.909 33.8285 253.47 33.5664 253.47 33.1516C253.47 32.744 252.909 32.4747 251.941 32.4747ZM254.285 33.1516C254.285 33.9376 253.419 34.4617 251.941 34.4617C250.464 34.4617 249.605 33.9376 249.605 33.1516C249.605 32.3728 250.464 31.8343 251.941 31.8343C253.419 31.8343 254.285 32.3728 254.285 33.1516Z" fill="#1A1A1A"/>
<path d="M260.427 33.7338V32.9915H257.53V33.7338H260.427ZM261.228 34.3743H256.73V31.6305H257.53V32.3728H260.427V31.6086H261.228V34.3743ZM258.331 29.4907C258.331 28.8866 257.924 28.53 257.363 28.53C256.81 28.53 256.395 28.9012 256.395 29.4907C256.395 30.073 256.825 30.415 257.363 30.415C257.909 30.415 258.331 30.073 258.331 29.4907ZM259.132 29.5053C259.132 30.4733 258.367 31.0701 257.363 31.0701C256.351 31.0701 255.595 30.4733 255.595 29.5053C255.595 28.5591 256.351 27.875 257.363 27.875C258.367 27.875 259.132 28.5373 259.132 29.5053ZM261.22 31.252H260.42V29.8182H259.408V29.1559H260.42V27.562H261.22V31.252Z" fill="#1A1A1A"/>
<path d="M266.89 30.9027V29.7964H263.804V30.9027H266.89ZM267.683 31.5359H265.732V32.9551H268.462V33.5883H262.232V32.9551H264.939V31.5359H263.01V28.0569H263.804V29.1705H266.89V28.0496H267.683V31.5359Z" fill="#1A1A1A"/>
<path d="M271.336 31.3612V32.1982H272.726V31.3612H271.336ZM273.621 28.9521C273.621 28.5154 273.032 28.2534 272.042 28.2534C271.059 28.2534 270.47 28.5154 270.47 28.9521C270.47 29.3743 271.059 29.6435 272.042 29.6435C273.01 29.6435 273.621 29.3743 273.621 28.9521ZM274.429 28.9521C274.429 29.7236 273.57 30.2622 272.049 30.2622C270.521 30.2622 269.662 29.7236 269.662 28.9521C269.662 28.1734 270.521 27.6421 272.042 27.6421C273.57 27.6421 274.429 28.1734 274.429 28.9521ZM269.655 32.1982H270.543V31.3612H268.927V30.7207H275.157V31.3612H273.519V32.1982H274.356V34.4835H273.563V32.8314H269.655V32.1982Z" fill="#1A1A1A"/>
<path d="M279.087 30.9973L278.686 31.5795C278.191 31.3466 277.58 30.7353 277.391 30.2404C277.209 30.8008 276.656 31.4776 276.03 31.7979C275.884 31.6086 275.724 31.4267 275.578 31.2447C276.415 30.7862 276.983 29.9492 276.983 28.974V28.1079H277.755V28.9521C277.755 29.9274 278.395 30.6625 279.087 30.9973ZM280.12 32.4893H279.37V29.9347H278.504V29.2796H279.37V27.6857H280.12V32.4893ZM281.437 32.6858H280.68V27.562H281.437V32.6858ZM281.634 34.2724H276.859V32.0744H277.653V33.6319H281.634V34.2724Z" fill="#1A1A1A"/>
<path d="M287.994 34.4617H287.201V30.7425H285.956V30.0875H287.201V27.562H287.994V34.4617ZM285.418 30.073V30.7134H283.387V32.2346C284.304 32.2346 285.265 32.2127 286.197 32.0235L286.313 32.6494C285.593 32.8095 284.625 32.875 283.322 32.8823H282.601V28.1807H285.76V28.8138H283.387V30.073H285.418Z" fill="#1A1A1A"/>
<path d="M109.439 93.5141C109.439 93.1211 108.834 92.8809 107.859 92.8809C106.891 92.8809 106.287 93.1211 106.287 93.5141C106.287 93.9144 106.891 94.1327 107.859 94.1327C108.834 94.1327 109.439 93.9144 109.439 93.5141ZM110.974 91.862H104.744V91.2215H107.452V90.3117H108.245V91.2215H110.974V91.862ZM110.705 90.0352L110.356 90.6684C109.3 90.5373 108.238 89.9697 107.866 89.3146C107.546 89.9915 106.513 90.5592 105.37 90.6829L105.028 90.057C106.134 89.9842 107.211 89.482 107.422 88.696H105.326V88.0555H110.407V88.696H108.318C108.551 89.482 109.759 89.9842 110.705 90.0352ZM110.254 93.5141C110.254 94.2856 109.38 94.7732 107.866 94.7732C106.338 94.7732 105.472 94.2856 105.472 93.5141C105.472 92.7426 106.338 92.2404 107.859 92.2404C109.38 92.2404 110.254 92.7426 110.254 93.5141Z" fill="#1A1A1A"/>
<path d="M116.003 94.0745V93.4631H113.172V94.0745H116.003ZM116.796 94.7077H112.378V92.1968H113.172V92.8299H116.003V92.1822H116.796V94.7077ZM117.808 90.2681H116.796V91.8328H116.003V87.8663H116.796V89.6057H117.808V90.2681ZM112.386 88.514V87.8954H114.402V88.514H112.386ZM114.249 90.8576C114.249 90.5301 113.834 90.3263 113.39 90.3263C112.939 90.3263 112.517 90.5301 112.517 90.8576C112.517 91.1851 112.946 91.3743 113.39 91.3743C113.834 91.3743 114.249 91.1851 114.249 90.8576ZM114.991 90.8576C114.991 91.4908 114.373 91.9566 113.39 91.9566C112.4 91.9566 111.774 91.4908 111.774 90.8576C111.774 90.2171 112.393 89.7513 113.39 89.7513C114.373 89.7513 114.991 90.2171 114.991 90.8576ZM115.377 89.5111H111.388V88.907H115.377V89.5111Z" fill="#1A1A1A"/>
<path d="M124.539 90.6247H123.55V93.0119H122.756V87.8663H123.55V89.9697H124.539V90.6247ZM123.761 94.5912H119.081V92.5679H119.874V93.9508H123.761V94.5912ZM122.349 91.2215L122.414 91.8183C121.104 91.993 119.561 92.0585 118.069 92.073L117.953 91.418C118.36 91.418 118.877 91.4253 119.379 91.4107V89.9697H120.165V91.3816H120.18C120.871 91.3598 121.861 91.287 122.349 91.2215ZM118.433 88.3685H121.897C121.89 89.4092 121.854 90.2244 121.694 90.8066L120.937 90.6975C121.039 90.2753 121.104 89.6057 121.097 89.0162H118.433V88.3685Z" fill="#1A1A1A"/>
<path d="M190.771 170.371L190.407 171.019C189.388 170.844 188.268 170.174 187.926 169.403C187.62 170.174 186.499 170.837 185.451 171.026L185.102 170.371C186.324 170.233 187.511 169.425 187.511 168.428V168.086H188.348V168.428C188.348 169.425 189.658 170.269 190.771 170.371ZM188.304 174.832H187.511V172.329H184.803V171.695H191.033V172.329H188.304V174.832Z" fill="#1A1A1A"/>
<path d="M196.091 172.423L196.149 173.064C194.672 173.224 193.187 173.297 191.564 173.304L191.448 172.62C192.175 172.627 192.932 172.627 193.733 172.583C194.723 172.54 195.494 172.489 196.091 172.423ZM197.27 167.925V174.825H196.477V167.925H197.27ZM194.679 170.109C194.679 169.512 194.228 169.148 193.675 169.148C193.136 169.148 192.685 169.541 192.685 170.109C192.685 170.662 193.143 171.019 193.675 171.019C194.213 171.019 194.679 170.662 194.679 170.109ZM195.48 170.116C195.48 171.07 194.686 171.688 193.675 171.688C192.67 171.688 191.906 171.055 191.906 170.116C191.906 169.17 192.678 168.471 193.675 168.471C194.694 168.471 195.48 169.148 195.48 170.116Z" fill="#1A1A1A"/>
<path d="M201.316 172.307L201.418 172.947C200.843 173.078 199.948 173.137 199.111 173.137H198.419V168.762H201.018V169.403C200.421 169.403 199.81 169.396 199.22 169.396V172.481C200.086 172.481 200.792 172.423 201.316 172.307ZM204.009 174.825H203.245V171.332H202.546V174.49H201.796V168.064H202.546V170.669H203.245V167.925H204.009V174.825Z" fill="#1A1A1A"/>
<path d="M263.96 205.27C263.96 204.863 263.356 204.623 262.373 204.623C261.405 204.623 260.794 204.863 260.794 205.27C260.794 205.678 261.405 205.904 262.373 205.904C263.356 205.904 263.96 205.678 263.96 205.27ZM264.724 202.053H262.759V202.854H265.488V203.495H259.258V202.854H261.966V202.053H260.102V199.768H260.896V201.413H264.724V202.053ZM264.775 205.263C264.775 206.035 263.916 206.537 262.38 206.537C260.845 206.537 259.986 206.035 259.986 205.263C259.986 204.492 260.845 203.982 262.373 203.982C263.916 203.982 264.775 204.492 264.775 205.263Z" fill="#1A1A1A"/>
<path d="M270.59 205.176C270.59 204.71 270.022 204.448 269.054 204.448C268.1 204.448 267.54 204.71 267.54 205.176C267.54 205.627 268.1 205.896 269.054 205.896C270.022 205.896 270.59 205.627 270.59 205.176ZM272.329 202.003H271.31V203.72H270.517V199.637H271.31V201.34H272.329V202.003ZM266.041 200.736V200.081H269.672V200.736H268.29V200.758C268.29 201.777 269.054 202.541 269.854 202.796L269.418 203.422C268.843 203.196 268.18 202.65 267.882 202.01C267.678 202.679 266.943 203.356 266.244 203.618L265.779 203C266.747 202.643 267.474 201.813 267.474 200.794V200.736H266.041ZM271.405 205.176C271.405 205.998 270.539 206.537 269.054 206.537C267.584 206.537 266.725 205.998 266.725 205.176C266.725 204.339 267.584 203.807 269.054 203.807C270.539 203.807 271.405 204.339 271.405 205.176Z" fill="#1A1A1A"/>
<path d="M277.556 201.85C277.556 201.246 277.185 200.823 276.581 200.823C275.991 200.823 275.598 201.267 275.598 201.85C275.598 202.417 275.991 202.869 276.581 202.869C277.185 202.869 277.556 202.417 277.556 201.85ZM278.349 201.85C278.349 202.832 277.636 203.538 276.581 203.538C275.526 203.538 274.805 202.839 274.805 201.857C274.805 200.874 275.518 200.161 276.581 200.161C277.636 200.161 278.349 200.867 278.349 201.85ZM280.504 206.34H275.824V204.186H276.617V205.7H280.504V206.34ZM278.488 202.97L278.502 202.323H279.572V201.246H278.502L278.488 200.598H279.572V199.637H280.365V204.644H279.572V202.97H278.488Z" fill="#1A1A1A"/>
<path d="M282.17 200.037H286.791C286.791 201.187 286.726 202.155 286.559 202.978H287.614V203.618H284.885V206.537H284.091V203.618H281.384V202.978H285.794C285.925 202.366 285.984 201.486 285.991 200.685H282.17V200.037Z" fill="#1A1A1A"/>
<path d="M293.705 200.831H288.654V200.198H293.705V200.831ZM293.698 203.531H291.58V205.03H294.309V205.663H288.079V205.03H290.787V203.531H288.661V202.89H289.731L289.549 201.253L290.343 201.173L290.481 202.89H291.915L292.169 201.187L292.948 201.304L292.664 202.89H293.698V203.531Z" fill="#1A1A1A"/>
<path d="M299.411 205.176C299.411 204.71 298.843 204.448 297.875 204.448C296.921 204.448 296.361 204.71 296.361 205.176C296.361 205.627 296.921 205.896 297.875 205.896C298.843 205.896 299.411 205.627 299.411 205.176ZM301.15 202.003H300.131V203.72H299.338V199.637H300.131V201.34H301.15V202.003ZM294.862 200.736V200.081H298.493V200.736H297.111V200.758C297.111 201.777 297.875 202.541 298.675 202.796L298.239 203.422C297.664 203.196 297.001 202.65 296.703 202.01C296.499 202.679 295.764 203.356 295.065 203.618L294.6 203C295.568 202.643 296.295 201.813 296.295 200.794V200.736H294.862ZM300.226 205.176C300.226 205.998 299.36 206.537 297.875 206.537C296.405 206.537 295.546 205.998 295.546 205.176C295.546 204.339 296.405 203.807 297.875 203.807C299.36 203.807 300.226 204.339 300.226 205.176Z" fill="#1A1A1A"/>
<path d="M127.235 321.72C127.235 321.312 126.631 321.072 125.649 321.072C124.681 321.072 124.069 321.312 124.069 321.72C124.069 322.128 124.681 322.353 125.649 322.353C126.631 322.353 127.235 322.128 127.235 321.72ZM128 318.503H126.035V319.304H128.764V319.944H122.534V319.304H125.241V318.503H123.378V316.218H124.171V317.863H128V318.503ZM128.051 321.713C128.051 322.484 127.192 322.986 125.656 322.986C124.12 322.986 123.262 322.484 123.262 321.713C123.262 320.941 124.12 320.432 125.649 320.432C127.192 320.432 128.051 320.941 128.051 321.713Z" fill="#1A1A1A"/>
<path d="M133.865 321.625C133.865 321.16 133.298 320.898 132.33 320.898C131.376 320.898 130.816 321.16 130.816 321.625C130.816 322.077 131.376 322.346 132.33 322.346C133.298 322.346 133.865 322.077 133.865 321.625ZM135.605 318.452H134.586V320.17H133.792V316.087H134.586V317.79H135.605V318.452ZM129.316 317.186V316.531H132.948V317.186H131.565V317.208C131.565 318.227 132.33 318.991 133.13 319.245L132.693 319.871C132.118 319.646 131.456 319.1 131.158 318.459C130.954 319.129 130.219 319.806 129.52 320.068L129.054 319.449C130.022 319.093 130.75 318.263 130.75 317.244V317.186H129.316ZM134.68 321.625C134.68 322.448 133.814 322.986 132.33 322.986C130.859 322.986 130.001 322.448 130.001 321.625C130.001 320.788 130.859 320.257 132.33 320.257C133.814 320.257 134.68 320.788 134.68 321.625Z" fill="#1A1A1A"/>
<path d="M140.832 318.299C140.832 317.695 140.461 317.273 139.856 317.273C139.267 317.273 138.874 317.717 138.874 318.299C138.874 318.867 139.267 319.318 139.856 319.318C140.461 319.318 140.832 318.867 140.832 318.299ZM141.625 318.299C141.625 319.282 140.912 319.988 139.856 319.988C138.801 319.988 138.081 319.289 138.081 318.307C138.081 317.324 138.794 316.611 139.856 316.611C140.912 316.611 141.625 317.317 141.625 318.299ZM143.779 322.79H139.1V320.636H139.893V322.149H143.779V322.79ZM141.763 319.42L141.778 318.772H142.848V317.695H141.778L141.763 317.047H142.848V316.087H143.641V321.094H142.848V319.42H141.763Z" fill="#1A1A1A"/>
<path d="M145.446 316.487H150.067C150.067 317.637 150.002 318.605 149.834 319.427H150.89V320.068H148.16V322.986H147.367V320.068H144.659V319.427H149.07C149.201 318.816 149.259 317.935 149.267 317.135H145.446V316.487Z" fill="#1A1A1A"/>
<path d="M156.981 317.28H151.93V316.647H156.981V317.28ZM156.973 319.981H154.856V321.48H157.585V322.113H151.355V321.48H154.062V319.981H151.937V319.34H153.007L152.825 317.702L153.618 317.622L153.757 319.34H155.19L155.445 317.637L156.224 317.753L155.94 319.34H156.973V319.981Z" fill="#1A1A1A"/>
<path d="M162.686 321.625C162.686 321.16 162.118 320.898 161.151 320.898C160.197 320.898 159.637 321.16 159.637 321.625C159.637 322.077 160.197 322.346 161.151 322.346C162.118 322.346 162.686 322.077 162.686 321.625ZM164.426 318.452H163.407V320.17H162.613V316.087H163.407V317.79H164.426V318.452ZM158.137 317.186V316.531H161.769V317.186H160.386V317.208C160.386 318.227 161.151 318.991 161.951 319.245L161.514 319.871C160.939 319.646 160.277 319.1 159.979 318.459C159.775 319.129 159.04 319.806 158.341 320.068L157.875 319.449C158.843 319.093 159.571 318.263 159.571 317.244V317.186H158.137ZM163.501 321.625C163.501 322.448 162.635 322.986 161.151 322.986C159.68 322.986 158.822 322.448 158.822 321.625C158.822 320.788 159.68 320.257 161.151 320.257C162.635 320.257 163.501 320.788 163.501 321.625Z" fill="#1A1A1A"/>
</g>
</svg>
