<svg width="20" height="21" viewBox="0 0 20 21" fill="none" xmlns="http://www.w3.org/2000/svg">
<g clip-path="url(#clip0_821_18548)">
<path d="M12.5316 16.0063C10.7957 16.0063 10.1085 13.519 10.1085 10.481C10.1085 7.44304 10.7957 4.99367 12.5316 4.99367C14.2676 4.99367 14.9729 7.46202 14.9729 10.481C14.9729 13.5 14.2676 16.0063 12.5316 16.0063ZM12.5316 4.06329C10.0904 4.06329 9.05967 6.58861 9.05967 10.5C9.05967 14.4114 10.0904 16.9367 12.5316 16.9367C14.9729 16.9367 16.0036 14.3924 16.0036 10.481C16.0036 6.56962 14.9729 4.06329 12.5316 4.06329ZM7.50452 16.8038V4.27215H6.67269C6.4557 5.8481 5.73237 6.58861 4.01447 6.68354V7.40506H6.43761V16.8038H7.5226H7.50452ZM10 21C4.46655 21 0 16.3101 0 10.5C0 4.68987 4.46655 0 10 0C15.5335 0 20 4.68987 20 10.5C20 16.3101 15.5335 21 10 21Z" fill="#7F738D"/>
</g>
<defs>
<clipPath id="clip0_821_18548">
<rect width="20" height="21" fill="white"/>
</clipPath>
</defs>
</svg>
