<svg width="21" height="21" viewBox="0 0 21 21" fill="none" xmlns="http://www.w3.org/2000/svg">
<g clip-path="url(#clip0_821_18552)">
<path d="M16.3101 16.7468V15.7025H10.2911C10.481 14.4304 11.8291 13.1962 13.538 11.8861C14.981 10.8038 16.2911 9.58861 16.2911 7.53797C16.2911 5.29747 14.8481 4.02532 12.8354 4.02532C10.481 4.02532 9.22785 5.88608 9.26582 8.44937H10.3101C10.3101 6.58861 11.0316 4.99367 12.7595 4.99367C14.2975 4.99367 15.2089 5.92405 15.2089 7.53797C15.2089 9.03797 14.4684 9.94937 13.1013 10.9747C10.8038 12.7405 9.26582 13.9557 8.98101 16.7848H16.2911L16.3101 16.7468ZM7.27215 16.8418V4.31013H6.4557C6.24684 5.86709 5.44937 6.60759 3.83544 6.70253V7.44304H6.20886V16.8608H7.27215V16.8418ZM10.5 21C4.68987 21 0 16.3101 0 10.5C0 4.68987 4.68987 0 10.5 0C16.3101 0 21 4.68987 21 10.5C21 16.3101 16.3101 21 10.5 21Z" fill="#B7DCBE"/>
</g>
<defs>
<clipPath id="clip0_821_18552">
<rect width="21" height="21" fill="white"/>
</clipPath>
</defs>
</svg>
