<svg width="20" height="21" viewBox="0 0 20 21" fill="none" xmlns="http://www.w3.org/2000/svg">
<g clip-path="url(#clip0_821_18554)">
<path d="M13.5081 10.0823C14.5027 9.72152 15.2984 8.71519 15.2984 7.32911C15.2984 5.31646 14.0325 4.06329 12.0434 4.06329C10.0542 4.06329 8.64376 5.79114 8.67993 8.16456H9.65642C9.71067 6.37975 10.5787 5.05063 12.0796 5.05063C13.5805 5.05063 14.34 5.98101 14.34 7.32911C14.34 8.77215 13.255 9.60759 12.2242 9.60759H11.4105V10.6519H12.2242C13.6347 10.6519 14.7016 11.5633 14.7016 13.2532C14.7016 15.019 13.5805 16.0063 12.0434 16.0063C10.5063 16.0063 9.42134 14.8291 9.43942 12.7595H8.44485C8.3906 15.5316 9.96383 16.9747 12.0615 16.9747C13.9964 16.9747 15.7143 15.7405 15.7143 13.2342C15.7143 11.4494 14.9005 10.3671 13.5262 10.0633M6.88969 16.8987V4.36709H6.09403C5.89512 5.94304 5.28029 6.68354 3.72514 6.77848V7.5H5.87703V16.8987H6.88969ZM10 21C4.46655 21 0 16.3101 0 10.5C0 4.68987 4.46655 0 10 0C15.5335 0 20 4.68987 20 10.5C20 16.3101 15.5335 21 10 21Z" fill="#CB5957"/>
</g>
<defs>
<clipPath id="clip0_821_18554">
<rect width="20" height="21" fill="white"/>
</clipPath>
</defs>
</svg>
