<svg width="21" height="21" viewBox="0 0 21 21" fill="none" xmlns="http://www.w3.org/2000/svg">
<g clip-path="url(#clip0_821_18556)">
<path d="M14.0127 12.6456H9.96835L14.0127 6.01899V12.6456ZM16.557 13.7089V12.6456H15V4.17722H13.9937L8.8481 12.6456V13.7089H13.9937V16.7089H15V13.7089H16.557ZM7.51899 16.7468V4.1962H6.68354C6.47468 5.77215 5.82911 6.51266 4.1962 6.60759V7.32911H6.4557V16.7278H7.51899V16.7468ZM10.5 21C4.68987 21 0 16.3101 0 10.5C0 4.68987 4.68987 0 10.5 0C16.3101 0 21 4.68987 21 10.5C21 16.3101 16.3101 21 10.5 21Z" fill="#9FD1CA"/>
</g>
<defs>
<clipPath id="clip0_821_18556">
<rect width="21" height="21" fill="white"/>
</clipPath>
</defs>
</svg>
