<svg width="21" height="22" viewBox="0 0 21 22" fill="none" xmlns="http://www.w3.org/2000/svg">
<g clip-path="url(#clip0_821_18532)">
<path d="M14.4684 17.0148V15.9512H7.74683C7.9557 14.6407 9.49367 13.3682 11.3924 12.0387C12.9873 10.9372 14.3924 9.68367 14.3924 7.5945C14.3924 5.3154 12.8165 4.02392 10.5949 4.02392C7.99367 4.02392 6.60759 5.90417 6.64557 8.50613H7.74683C7.74683 6.62588 8.60127 4.95455 10.519 4.95455C12.2278 4.95455 13.2722 5.94215 13.2722 7.55651C13.2722 9.0949 12.3987 10.0445 10.8797 11.0891C8.31646 12.8744 6.64557 14.1279 6.34177 16.9768H14.4494L14.4684 17.0148ZM10.5 21.6299C4.68987 21.6299 0 16.9388 0 11.1271C0 5.3154 4.68987 0.624268 10.5 0.624268C16.3101 0.624268 21 5.3154 21 11.1271C21 16.9388 16.3101 21.6299 10.5 21.6299Z" fill="#9E69A4"/>
</g>
<defs>
<clipPath id="clip0_821_18532">
<rect width="21" height="21.0056" fill="white" transform="translate(0 0.624268)"/>
</clipPath>
</defs>
</svg>
