<svg width="20" height="21" viewBox="0 0 20 21" fill="none" xmlns="http://www.w3.org/2000/svg">
<g clip-path="url(#clip0_821_18534)">
<path d="M11.7179 9.93038C12.821 9.56962 13.689 8.5443 13.689 7.12025C13.689 5.06962 12.3146 3.81646 10.0904 3.81646C7.86618 3.81646 6.32911 5.56329 6.36528 7.97468H7.39602C7.45027 6.1519 8.42676 4.76582 10.0904 4.76582C11.7541 4.76582 12.604 5.75316 12.604 7.12025C12.604 8.62025 11.4105 9.49367 10.2532 9.49367H9.33092V10.519H10.2532C11.8083 10.519 13.038 11.4684 13.038 13.1772C13.038 15 11.7541 16.0063 10.0542 16.0063C8.35443 16.0063 7.10669 14.7911 7.12477 12.6835H6.07595C6.0217 15.4937 7.7396 16.9747 10.0723 16.9747C12.2061 16.9747 14.1049 15.7405 14.1049 13.1772C14.1049 11.3354 13.2188 10.2532 11.6817 9.93038M10 21C4.46655 21 0 16.3101 0 10.5C0 4.68987 4.46655 0 10 0C15.5335 0 20 4.68987 20 10.5C20 16.3101 15.5335 21 10 21Z" fill="#AECFD8"/>
</g>
<defs>
<clipPath id="clip0_821_18534">
<rect width="20" height="21" fill="white"/>
</clipPath>
</defs>
</svg>
