<svg width="21" height="21" viewBox="0 0 21 21" fill="none" xmlns="http://www.w3.org/2000/svg">
<g clip-path="url(#clip0_821_18538)">
<path d="M10.6139 8.35443C9.58861 8.35443 8.5443 8.82911 8.01266 9.53165L8.77215 5.18354H14.1266V4.13924H7.91772L6.75949 10.8418H7.76582C8.31646 9.77848 9.32278 9.3038 10.481 9.3038C12.3608 9.3038 13.5949 10.7278 13.5949 12.6835C13.5949 14.6392 12.4177 16.1772 10.5 16.1772C8.86709 16.1772 7.57595 15.0759 7.51899 13.2342H6.41772C6.47468 15.6456 8.16456 17.1456 10.5 17.1456C12.8354 17.1456 14.7152 15.3038 14.7152 12.8165C14.7152 10.1013 13.1772 8.37342 10.6139 8.37342M10.5 21C4.68987 21 0 16.3101 0 10.5C0 4.68987 4.68987 0 10.5 0C16.3101 0 21 4.68987 21 10.5C21 16.3101 16.3101 21 10.5 21Z" fill="#CAD0A9"/>
</g>
<defs>
<clipPath id="clip0_821_18538">
<rect width="21" height="21" fill="white"/>
</clipPath>
</defs>
</svg>
