<svg width="20" height="21" viewBox="0 0 20 21" fill="none" xmlns="http://www.w3.org/2000/svg">
<g clip-path="url(#clip0_821_18540)">
<path d="M10.0362 16.1582C8.24593 16.1582 7.23327 14.5823 7.23327 12.8165C7.23327 10.8038 8.35443 9.51266 10.0362 9.51266C11.7179 9.51266 12.8391 10.7658 12.8391 12.7975C12.8391 14.5443 11.8083 16.1772 10.0362 16.1772M10.0362 8.56329C8.58951 8.56329 7.43219 9.49367 6.99819 10.6899C6.99819 7.44304 8.02893 4.91772 10.1085 4.91772C11.5732 4.91772 12.4774 5.94304 12.6221 7.27215H13.6528C13.4358 5.33544 12.3327 3.96835 10.0904 3.96835C7.66727 3.96835 5.9132 6.49367 5.9132 10.3861C5.9132 15.3608 7.4141 17.1266 10.0362 17.1266C12.387 17.1266 13.8879 15.3608 13.8879 12.7975C13.8879 10.2342 12.3508 8.58228 10.0362 8.58228M10 21C4.46655 21 0 16.3101 0 10.5C0 4.68987 4.46655 0 10 0C15.5335 0 20 4.68987 20 10.5C20 16.3101 15.5335 21 10 21Z" fill="#8282BE"/>
</g>
<defs>
<clipPath id="clip0_821_18540">
<rect width="20" height="21" fill="white"/>
</clipPath>
</defs>
</svg>
