<svg width="21" height="21" viewBox="0 0 21 21" fill="none" xmlns="http://www.w3.org/2000/svg">
<g clip-path="url(#clip0_821_18544)">
<path d="M10.5 9.56962C9.11392 9.56962 7.89873 8.73418 7.89873 7.23418C7.89873 5.96202 8.88608 4.9557 10.5 4.9557C12.1139 4.9557 13.1013 5.96202 13.1013 7.23418C13.1013 8.73418 11.8861 9.56962 10.5 9.56962ZM10.5 16.2722C8.75316 16.2722 7.38608 15.2278 7.38608 13.3861C7.38608 11.5443 8.81013 10.6139 10.5 10.6139C12.1899 10.6139 13.6139 11.5443 13.6139 13.3861C13.6139 15.2278 12.2468 16.2722 10.5 16.2722ZM12.2468 10.0443C13.3861 9.62658 14.2215 8.62025 14.2215 7.25316C14.2215 5.44937 12.8354 4.02532 10.481 4.02532C8.12658 4.02532 6.74051 5.43038 6.74051 7.25316C6.74051 8.62025 7.61392 9.70253 8.73418 10.0443C7.27215 10.4051 6.22785 11.7911 6.22785 13.3861C6.22785 15.8544 8.03165 17.2215 10.481 17.2215C12.9304 17.2215 14.7342 15.8544 14.7342 13.3861C14.7342 11.7911 13.6899 10.4051 12.2278 10.0443M10.5 21C4.68987 21 0 16.3101 0 10.5C0 4.68987 4.68987 0 10.5 0C16.3101 0 21 4.68987 21 10.5C21 16.3101 16.3101 21 10.5 21Z" fill="#9A7E9C"/>
</g>
<defs>
<clipPath id="clip0_821_18544">
<rect width="21" height="21" fill="white"/>
</clipPath>
</defs>
</svg>
