<svg width="21" height="21" viewBox="0 0 21 21" fill="none" xmlns="http://www.w3.org/2000/svg">
<g clip-path="url(#clip0_821_18546)">
<path d="M10.538 11.5823C8.79114 11.5823 7.63291 10.2152 7.63291 8.22152C7.63291 6.41772 8.6962 4.86076 10.538 4.86076C12.3797 4.86076 13.519 6.41772 13.519 8.18354C13.519 10.1772 12.3228 11.6013 10.538 11.6013M10.538 3.8924C8.10759 3.8924 6.53165 5.67721 6.53165 8.22152C6.53165 10.8987 8.10759 12.5316 10.538 12.5316C12.1709 12.5316 13.3671 11.5253 13.7658 10.3101C13.7658 13.8228 12.8165 16.0823 10.5759 16.0823C9.07595 16.0823 8.01266 15.0949 7.87975 13.7848H6.77848C6.98734 15.7595 8.33544 17.0506 10.5759 17.0506C13.4051 17.0506 14.9241 14.5823 14.9241 10.481C14.9241 5.62025 13.3101 3.8924 10.557 3.8924M10.5 21C4.68987 21 0 16.3101 0 10.5C0 4.68987 4.68987 0 10.5 0C16.3101 0 21 4.68987 21 10.5C21 16.3101 16.3101 21 10.5 21Z" fill="#C1BB46"/>
</g>
<defs>
<clipPath id="clip0_821_18546">
<rect width="21" height="21" fill="white"/>
</clipPath>
</defs>
</svg>
