<svg width="64" height="64" viewBox="0 0 64 64" fill="none" xmlns="http://www.w3.org/2000/svg">
<mask id="mask0_792_130" style="mask-type:alpha" maskUnits="userSpaceOnUse" x="0" y="0" width="64" height="64">
<rect width="64" height="64" fill="#D9D9D9"/>
</mask>
<g mask="url(#mask0_792_130)">
<path d="M32.3438 4.99823C32.3438 4.68404 32.5831 4.42969 32.8973 4.42969C33.2115 4.42969 33.4659 4.68404 33.4659 4.99823C33.4659 5.31243 33.2115 5.55182 32.8973 5.55182C32.5831 5.55182 32.3438 5.31243 32.3438 4.99823Z" fill="#00A5A9"/>
<path d="M32.3438 2.78339C32.3438 2.46919 32.5831 2.21484 32.8973 2.21484C33.2115 2.21484 33.4659 2.46919 33.4659 2.78339C33.4659 3.08263 33.2115 3.33698 32.8973 3.33698C32.5831 3.33698 32.3438 3.08263 32.3438 2.78339Z" fill="#00A5A9"/>
<path d="M32.3438 0.553586C32.3438 0.239388 32.5831 0 32.8973 0C33.2115 0 33.4659 0.239388 33.4659 0.553586C33.4659 0.867783 33.2115 1.12213 32.8973 1.12213C32.5831 1.12213 32.3438 0.867783 32.3438 0.553586Z" fill="#00A5A9"/>
<path d="M32.3438 62.0614C32.3438 61.7472 32.5831 61.5078 32.8973 61.5078C33.2115 61.5078 33.4659 61.7472 33.4659 62.0614C33.4659 62.3756 33.2115 62.6299 32.8973 62.6299C32.5831 62.6299 32.3438 62.3756 32.3438 62.0614Z" fill="#00A5A9"/>
<path d="M32.3438 59.8464C32.3438 59.5322 32.5831 59.2778 32.8973 59.2778C33.2115 59.2778 33.4659 59.5322 33.4659 59.8464C33.4659 60.1456 33.2115 60.4 32.8973 60.4C32.5831 60.4 32.3438 60.1456 32.3438 59.8464Z" fill="#00A5A9"/>
<path d="M32.3438 57.6166C32.3438 57.3173 32.5831 57.063 32.8973 57.063C33.2115 57.063 33.4659 57.3173 33.4659 57.6166C33.4659 57.9308 33.2115 58.1851 32.8973 58.1851C32.5831 58.1851 32.3438 57.9308 32.3438 57.6166Z" fill="#00A5A9"/>
<path d="M29.3929 53.4113C30.1714 54.0099 31.0099 54.2943 32.1028 54.3392C32.4023 54.3392 32.7167 54.3392 33.0161 54.3392C33.076 54.3392 33.1509 54.3392 33.2108 54.3392C33.5851 54.3392 33.9743 54.2943 34.3786 54.2494C35.2919 54.1446 36.0555 53.7855 36.7741 53.112C37.8821 52.0794 38.6756 50.0591 39.1697 47.1408C39.3044 46.3476 39.4092 45.5096 39.4991 44.5967H26.3086C26.623 47.6496 27.1321 49.8795 27.8507 51.391C28.2849 52.2889 28.764 52.9324 29.3929 53.4113Z" fill="#00A5A9"/>
<path d="M36.6693 9.27833C35.8309 8.53006 34.9176 8.18585 33.7048 8.15592C32.9113 8.12599 32.0429 8.18585 30.9799 8.33551C30.3361 8.4253 29.6773 8.78447 29.0335 9.38309C27.9256 10.4157 27.1321 12.436 26.638 15.3842C26.5182 16.1325 26.4134 16.9556 26.3086 17.8386H39.4841C39.3194 16.327 39.1248 15.04 38.8702 13.9176C38.3612 11.6728 37.6425 10.1613 36.6544 9.29329L36.6693 9.27833Z" fill="#00A5A9"/>
<path d="M17.7115 15.5184C17.442 16.2367 17.2174 17.0149 17.0078 17.838H24.8083C24.9131 16.8653 25.0179 15.9674 25.1676 15.1293C25.7066 11.8818 26.605 9.68188 27.9225 8.37988C26.3355 8.52954 24.7634 8.90367 23.2662 9.51726C20.646 10.5948 18.8344 12.5552 17.7115 15.5034V15.5184Z" fill="#00A5A9"/>
<path d="M26.0071 21.9245C25.8724 24.738 25.8275 27.5814 25.8125 30.3051H39.9762C39.9762 26.5787 39.9013 23.3462 39.6917 20.1137C39.6767 19.8293 39.6468 19.5899 39.6318 19.3354H26.1868C26.1269 20.1436 26.067 20.9816 26.0221 21.9245H26.0071Z" fill="#00A5A9"/>
<path d="M41.4765 30.3051H49.9508C49.9208 26.5937 49.801 23.3612 49.292 20.1885C49.2471 19.8892 49.1872 19.6198 49.1273 19.3354H41.1172C41.1322 19.5599 41.1621 19.7844 41.1771 20.0239C41.4017 23.2863 41.4615 26.5488 41.4765 30.3051Z" fill="#00A5A9"/>
<path d="M50.7721 19.949C51.2812 23.2115 51.4159 26.5189 51.4459 30.3051H56.8059C56.776 26.878 56.6262 23.4509 55.9076 20.0688C55.8627 19.8143 55.7878 19.5749 55.7279 19.3354H50.6523C50.6823 19.545 50.7272 19.7395 50.7721 19.949Z" fill="#00A5A9"/>
<path d="M48.8268 13.4082C49.4855 14.6803 49.9796 16.117 50.3689 17.838H55.3247C54.8755 16.4013 54.2766 15.0245 53.3933 13.7524C51.5667 11.1036 48.9465 9.60702 45.9222 8.72405C44.919 8.43971 43.9009 8.21523 42.8828 8.03564C45.5479 9.08323 47.4942 10.8342 48.8118 13.4082H48.8268Z" fill="#00A5A9"/>
<path d="M51.4622 31.8011C51.4622 35.3629 51.3274 38.1315 51.0429 40.6756C50.9381 41.5436 50.8183 42.3368 50.6836 43.1H55.7592C55.9538 42.2769 56.1335 41.4388 56.2532 40.5858C56.6874 37.6676 56.8072 34.7343 56.8222 31.7861H51.4622V31.8011Z" fill="#00A5A9"/>
<path d="M42.3282 9.42778C40.9658 8.90399 39.5135 8.55979 37.8516 8.36523C38.9745 9.45771 39.7979 11.1488 40.3519 13.5882C40.6214 14.8153 40.846 16.2071 41.0107 17.8384H48.8262C48.4818 16.4017 48.0476 15.1595 47.4936 14.097C46.3408 11.8671 44.6489 10.3407 42.3282 9.42778Z" fill="#00A5A9"/>
<path d="M39.7965 40.5565C39.9163 38.0124 39.9762 35.2887 39.9762 31.8018H25.8125V33.1337C25.8424 34.5704 25.8724 36.007 25.9023 37.4288C25.9473 39.509 26.0371 41.3647 26.1718 43.1007H39.6318C39.6917 42.3075 39.7516 41.4694 39.7965 40.5565Z" fill="#00A5A9"/>
<path d="M10.1229 19.3354C9.9133 20.1735 9.74861 21.0265 9.61386 21.8796C9.19464 24.6631 9.05989 27.4766 9 30.3051H14.36C14.405 27.5664 14.4948 24.6781 14.8242 21.8047C14.929 20.9218 15.0488 20.1137 15.1835 19.3354H10.1229Z" fill="#00A5A9"/>
<path d="M15.4682 17.8385C15.7077 16.8059 15.9772 15.863 16.3066 14.995C17.5792 11.6278 19.6604 9.39796 22.6847 8.14087C22.8195 8.081 22.9542 8.05107 23.089 7.99121C21.9062 8.20073 20.7234 8.4701 19.5705 8.82928C16.0521 9.90679 13.2523 11.8972 11.5604 15.2494C11.1412 16.0875 10.8118 16.9555 10.5273 17.8235H15.4532L15.4682 17.8385Z" fill="#00A5A9"/>
<path d="M14.5547 37.473C14.4798 36.0214 14.4499 34.5847 14.405 33.133L14.36 31.7861H9C9.07486 33.6718 9.13475 35.5574 9.25453 37.4281C9.3743 39.3437 9.6438 41.2293 10.093 43.085H15.1536C14.8391 41.364 14.6445 39.5083 14.5397 37.458L14.5547 37.473Z" fill="#00A5A9"/>
<path d="M16.3046 21.9694C15.9902 24.7679 15.9004 27.6113 15.8555 30.3051H24.3297C24.3447 27.5664 24.3896 24.6931 24.5244 21.8496C24.5693 20.9368 24.6292 20.1286 24.689 19.3354H16.7089C16.5592 20.1585 16.4244 21.0116 16.3046 21.9694Z" fill="#00A5A9"/>
<path d="M50.3819 44.5967C50.1424 45.6443 49.8579 46.617 49.5135 47.5299C48.2559 50.8672 46.1747 53.097 43.1504 54.3541C43.0455 54.399 42.9407 54.429 42.8359 54.4589C43.9888 54.2494 45.1417 54.0099 46.2795 53.6508C49.783 52.5733 52.5678 50.5978 54.2597 47.2605C54.6939 46.3925 55.0383 45.5096 55.3227 44.5967H50.3669H50.3819Z" fill="#00A5A9"/>
<path d="M19.4045 52.274C17.548 50.5529 16.2754 48.1136 15.4968 44.7912C15.4968 44.7314 15.4669 44.6715 15.4519 44.5967H10.4961C10.4961 44.5967 10.4961 44.5967 10.4961 44.6116C11.3944 47.5 12.9066 49.9693 15.4369 51.7202C17.0689 52.8426 18.8955 53.531 20.8119 54.0099C21.5456 54.1895 22.2792 54.3392 23.0128 54.4739C21.6054 53.9202 20.4077 53.2018 19.3896 52.274H19.4045Z" fill="#00A5A9"/>
<path d="M24.1495 53.3067C25.3024 53.6958 26.5601 53.9502 27.9375 54.1298C27.3835 53.5761 26.9044 52.9027 26.5151 52.0496C25.7066 50.3585 25.1527 47.9641 24.8233 44.7016C24.8233 44.6717 24.8233 44.6417 24.8233 44.6118H17.0078C17.7115 47.545 18.8194 49.715 20.4215 51.1816C21.4396 52.1245 22.6224 52.7979 24.1495 53.3067Z" fill="#00A5A9"/>
<path d="M16.0508 37.4138C16.1556 39.494 16.3652 41.3647 16.6946 43.1007H24.6897C24.5549 41.3796 24.4651 39.509 24.4202 37.4587C24.3903 36.022 24.3753 34.5853 24.3603 33.1486V31.8018H15.8711L15.916 33.1038C15.9609 34.5404 16.0058 35.9771 16.0657 37.4138H16.0508Z" fill="#00A5A9"/>
<path d="M48.1238 46.9912C48.4082 46.2429 48.6328 45.4497 48.8424 44.5967H41.012C40.9072 45.5994 40.7874 46.5123 40.6527 47.3803C40.1137 50.6278 39.2004 52.8277 37.8828 54.1297C39.6196 53.9351 41.1767 53.561 42.599 52.9624C45.2192 51.8848 47.0158 49.9244 48.1238 46.9912Z" fill="#00A5A9"/>
<path d="M49.5439 40.5116C49.8284 38.0124 49.9482 35.3037 49.9631 31.8018H41.4889C41.4889 35.3186 41.429 38.0573 41.3092 40.6314C41.2643 41.5143 41.2044 42.3225 41.1445 43.1007H49.1546C49.3044 42.2925 49.4391 41.4545 49.5439 40.5116Z" fill="#00A5A9"/>
</g>
</svg>
