<svg width="64" height="64" viewBox="0 0 64 64" fill="none" xmlns="http://www.w3.org/2000/svg">
<mask id="mask0_792_211" style="mask-type:alpha" maskUnits="userSpaceOnUse" x="0" y="0" width="64" height="64">
<rect width="64" height="64" fill="#D9D9D9"/>
</mask>
<g mask="url(#mask0_792_211)">
<path d="M31.8732 32.438C31.559 32.438 31.3047 32.6774 31.3047 32.9916C31.3047 33.3058 31.559 33.5601 31.8732 33.5601C32.1874 33.5601 32.4268 33.3058 32.4268 32.9916C32.4268 32.6774 32.1725 32.438 31.8732 32.438Z" fill="#00A5A9"/>
<path d="M31.8732 30.1631C31.559 30.1631 31.3047 30.4025 31.3047 30.7167C31.3047 31.0309 31.559 31.2852 31.8732 31.2852C32.1874 31.2852 32.4268 31.0309 32.4268 30.7167C32.4268 30.4025 32.1725 30.1631 31.8732 30.1631Z" fill="#00A5A9"/>
<path d="M31.8732 27.8887C31.559 27.8887 31.3047 28.143 31.3047 28.4572C31.3047 28.7714 31.559 29.0108 31.8732 29.0108C32.1874 29.0108 32.4268 28.7565 32.4268 28.4572C32.4268 28.143 32.1725 27.8887 31.8732 27.8887Z" fill="#00A5A9"/>
<path d="M31.8732 34.6978C31.559 34.6978 31.3047 34.9521 31.3047 35.2663C31.3047 35.5805 31.559 35.8199 31.8732 35.8199C32.1874 35.8199 32.4268 35.5805 32.4268 35.2663C32.4268 34.9521 32.1725 34.6978 31.8732 34.6978Z" fill="#00A5A9"/>
<path d="M57.1584 17.5327C56.8442 17.5327 56.5898 17.7871 56.5898 18.1013C56.5898 18.4155 56.8442 18.6548 57.1584 18.6548C57.4726 18.6548 57.7269 18.4005 57.7269 18.1013C57.7269 17.7871 57.4726 17.5327 57.1584 17.5327Z" fill="#00A5A9"/>
<path d="M57.1584 26.2725C56.8442 26.2725 56.5898 26.5268 56.5898 26.826C56.5898 27.1402 56.8442 27.3946 57.1584 27.3946C57.4726 27.3946 57.7269 27.1402 57.7269 26.826C57.7269 26.5118 57.4726 26.2725 57.1584 26.2725Z" fill="#00A5A9"/>
<path d="M57.1584 24.0869C56.8442 24.0869 56.5898 24.3413 56.5898 24.6555C56.5898 24.9697 56.8442 25.209 57.1584 25.209C57.4726 25.209 57.7269 24.9547 57.7269 24.6555C57.7269 24.3413 57.4726 24.0869 57.1584 24.0869Z" fill="#00A5A9"/>
<path d="M57.1584 28.457C56.8442 28.457 56.5898 28.6964 56.5898 29.0106C56.5898 29.3248 56.8442 29.5792 57.1584 29.5792C57.4726 29.5792 57.7269 29.3248 57.7269 29.0106C57.7269 28.6964 57.4726 28.457 57.1584 28.457Z" fill="#00A5A9"/>
<path d="M57.1584 32.8276C56.8442 32.8276 56.5898 33.067 56.5898 33.3812C56.5898 33.6954 56.8442 33.9348 57.1584 33.9348C57.4726 33.9348 57.7269 33.6954 57.7269 33.3812C57.7269 33.067 57.4726 32.8276 57.1584 32.8276Z" fill="#00A5A9"/>
<path d="M57.1584 30.6416C56.8442 30.6416 56.5898 30.881 56.5898 31.1952C56.5898 31.5094 56.8442 31.7637 57.1584 31.7637C57.4726 31.7637 57.7269 31.5094 57.7269 31.1952C57.7269 30.881 57.4726 30.6416 57.1584 30.6416Z" fill="#00A5A9"/>
<path d="M57.1584 21.9023C56.8442 21.9023 56.5898 22.1567 56.5898 22.4559C56.5898 22.7701 56.8442 23.0245 57.1584 23.0245C57.4726 23.0245 57.7269 22.7701 57.7269 22.4559C57.7269 22.1417 57.4726 21.9023 57.1584 21.9023Z" fill="#00A5A9"/>
<path d="M57.1584 19.7173C56.8442 19.7173 56.5898 19.9716 56.5898 20.2858C56.5898 20.6 56.8442 20.8394 57.1584 20.8394C57.4726 20.8394 57.7269 20.5851 57.7269 20.2858C57.7269 19.9716 57.4726 19.7173 57.1584 19.7173Z" fill="#00A5A9"/>
<path d="M57.1584 41.5518C56.8442 41.5518 56.5898 41.8061 56.5898 42.1203C56.5898 42.4345 56.8442 42.6739 57.1584 42.6739C57.4726 42.6739 57.7269 42.4195 57.7269 42.1203C57.7269 41.8211 57.4726 41.5518 57.1584 41.5518Z" fill="#00A5A9"/>
<path d="M57.1584 43.7368C56.8442 43.7368 56.5898 43.9912 56.5898 44.3054C56.5898 44.6196 56.8442 44.8589 57.1584 44.8589C57.4726 44.8589 57.7269 44.6046 57.7269 44.3054C57.7269 44.0061 57.4726 43.7368 57.1584 43.7368Z" fill="#00A5A9"/>
<path d="M57.1584 39.3667C56.8442 39.3667 56.5898 39.621 56.5898 39.9352C56.5898 40.2494 56.8442 40.4888 57.1584 40.4888C57.4726 40.4888 57.7269 40.2345 57.7269 39.9352C57.7269 39.621 57.4726 39.3667 57.1584 39.3667Z" fill="#00A5A9"/>
<path d="M57.1584 34.9971C56.8442 34.9971 56.5898 35.2514 56.5898 35.5656C56.5898 35.8798 56.8442 36.1192 57.1584 36.1192C57.4726 36.1192 57.7269 35.8798 57.7269 35.5656C57.7269 35.2514 57.4726 34.9971 57.1584 34.9971Z" fill="#00A5A9"/>
<path d="M57.1584 37.1816C56.8442 37.1816 56.5898 37.436 56.5898 37.7502C56.5898 38.0644 56.8442 38.3038 57.1584 38.3038C57.4726 38.3038 57.7269 38.0644 57.7269 37.7502C57.7269 37.436 57.4726 37.1816 57.1584 37.1816Z" fill="#00A5A9"/>
<path d="M6.5692 37.1816C6.26997 37.1816 6.01562 37.436 6.01562 37.7502C6.01562 38.0644 6.26997 38.3038 6.5692 38.3038C6.8834 38.3038 7.13776 38.0644 7.13776 37.7502C7.13776 37.436 6.8834 37.1816 6.5692 37.1816Z" fill="#00A5A9"/>
<path d="M6.5692 43.7368C6.26997 43.7368 6.01562 43.9912 6.01562 44.3054C6.01562 44.6196 6.26997 44.8589 6.5692 44.8589C6.8834 44.8589 7.13776 44.6046 7.13776 44.3054C7.13776 44.0061 6.8834 43.7368 6.5692 43.7368Z" fill="#00A5A9"/>
<path d="M6.5692 39.3667C6.26997 39.3667 6.01562 39.621 6.01562 39.9352C6.01562 40.2494 6.26997 40.4888 6.5692 40.4888C6.8834 40.4888 7.13776 40.2345 7.13776 39.9352C7.13776 39.621 6.8834 39.3667 6.5692 39.3667Z" fill="#00A5A9"/>
<path d="M6.5692 41.5518C6.26997 41.5518 6.01562 41.8061 6.01562 42.1203C6.01562 42.4345 6.26997 42.6739 6.5692 42.6739C6.8834 42.6739 7.13776 42.4195 7.13776 42.1203C7.13776 41.8211 6.8834 41.5518 6.5692 41.5518Z" fill="#00A5A9"/>
<path d="M6.5692 34.9971C6.26997 34.9971 6.01562 35.2514 6.01562 35.5656C6.01562 35.8798 6.26997 36.1192 6.5692 36.1192C6.8834 36.1192 7.13776 35.8798 7.13776 35.5656C7.13776 35.2514 6.8834 34.9971 6.5692 34.9971Z" fill="#00A5A9"/>
<path d="M6.5692 24.0869C6.26997 24.0869 6.01562 24.3413 6.01562 24.6555C6.01562 24.9697 6.26997 25.209 6.5692 25.209C6.8834 25.209 7.13776 24.9547 7.13776 24.6555C7.13776 24.3413 6.8834 24.0869 6.5692 24.0869Z" fill="#00A5A9"/>
<path d="M6.5692 26.2725C6.26997 26.2725 6.01562 26.5268 6.01562 26.826C6.01562 27.1402 6.26997 27.3946 6.5692 27.3946C6.8834 27.3946 7.13776 27.1402 7.13776 26.826C7.13776 26.5118 6.8834 26.2725 6.5692 26.2725Z" fill="#00A5A9"/>
<path d="M6.5692 21.9023C6.26997 21.9023 6.01562 22.1567 6.01562 22.4559C6.01562 22.7701 6.26997 23.0245 6.5692 23.0245C6.8834 23.0245 7.13776 22.7701 7.13776 22.4559C7.13776 22.1417 6.8834 21.9023 6.5692 21.9023Z" fill="#00A5A9"/>
<path d="M6.5692 17.5327C6.26997 17.5327 6.01562 17.7871 6.01562 18.1013C6.01562 18.4155 6.26997 18.6548 6.5692 18.6548C6.8834 18.6548 7.13776 18.4005 7.13776 18.1013C7.13776 17.7871 6.8834 17.5327 6.5692 17.5327Z" fill="#00A5A9"/>
<path d="M6.50931 16.4101C6.91356 16.9937 7.54239 17.5475 8.27603 18.0713C9.86308 19.1937 11.8544 20.1814 13.9954 21.1242C15.6124 21.8276 17.2893 22.516 18.9961 23.1894C21.0473 23.9976 23.2482 24.7159 25.7186 25.2696C27.6201 25.6887 29.5665 25.9131 31.5727 25.9431C31.3931 26.0478 31.2733 26.2125 31.2733 26.4369C31.2733 26.7362 31.5278 26.9907 31.8422 26.9907C32.1566 26.9907 32.3962 26.7362 32.3962 26.4369C32.3962 26.2274 32.2764 26.0478 32.1117 25.9431C33.2047 25.9431 34.3126 25.8832 35.4355 25.7186C37.5766 25.4193 39.478 24.9404 41.2897 24.3717C43.6553 23.6384 45.7963 22.7854 47.8624 21.9024C50.4377 20.8099 52.938 19.6726 54.9443 18.3706C55.9025 17.742 56.696 17.0985 57.1751 16.3802C57.4446 16.3502 57.6692 16.1407 57.6842 15.8713V15.0183C57.6992 14.0456 57.0104 13.1177 55.8576 12.2347C54.2106 10.9627 52.0397 9.87019 49.6741 8.85254C47.7427 8.01448 45.7214 7.20635 43.6702 6.41318C41.9484 5.73973 40.047 5.17105 37.9808 4.70712C34.8666 4.00374 31.6326 3.77926 28.219 4.24319C26.0929 4.5425 24.2064 5.02139 22.4098 5.59008C19.9992 6.33835 17.8133 7.20635 15.6573 8.08931C14.3098 8.71786 12.9473 9.33144 11.6448 9.95999C10.1026 10.7083 8.72519 11.5014 7.6472 12.3844C6.61412 13.2225 5.98529 14.0904 6.00026 15.0183V15.8713C6.01523 16.1407 6.22485 16.3502 6.49435 16.3802L6.50931 16.4101Z" fill="#00A5A9"/>
<path d="M6.5692 19.7173C6.26997 19.7173 6.01562 19.9716 6.01562 20.2858C6.01562 20.6 6.26997 20.8394 6.5692 20.8394C6.8834 20.8394 7.13776 20.5851 7.13776 20.2858C7.13776 19.9716 6.8834 19.7173 6.5692 19.7173Z" fill="#00A5A9"/>
<path d="M6.5692 32.8276C6.26997 32.8276 6.01562 33.067 6.01562 33.3812C6.01562 33.6954 6.26997 33.9348 6.5692 33.9348C6.8834 33.9348 7.13776 33.6954 7.13776 33.3812C7.13776 33.067 6.8834 32.8276 6.5692 32.8276Z" fill="#00A5A9"/>
<path d="M6.5692 30.6416C6.26997 30.6416 6.01562 30.881 6.01562 31.1952C6.01562 31.5094 6.26997 31.7637 6.5692 31.7637C6.8834 31.7637 7.13776 31.5094 7.13776 31.1952C7.13776 30.881 6.8834 30.6416 6.5692 30.6416Z" fill="#00A5A9"/>
<path d="M6.5692 28.457C6.26997 28.457 6.01562 28.6964 6.01562 29.0106C6.01562 29.3248 6.26997 29.5792 6.5692 29.5792C6.8834 29.5792 7.13776 29.3248 7.13776 29.0106C7.13776 28.6964 6.8834 28.457 6.5692 28.457Z" fill="#00A5A9"/>
<path d="M55.8886 44.6497C54.2416 43.3777 52.0707 42.2852 49.7051 41.2675C47.7736 40.4295 45.7524 39.6213 43.7012 38.8282C41.9794 38.1547 40.078 37.586 38.0118 37.1221C34.8976 36.4187 31.6636 36.1943 28.25 36.6732C26.1239 36.9725 24.2374 37.4514 22.4408 38.02C20.0302 38.7683 17.8443 39.6363 15.6883 40.5193C14.3408 41.1478 12.9783 41.7614 11.6758 42.39C10.1336 43.1382 8.75619 43.9314 7.6782 44.8144C6.94456 45.413 6.42054 46.0116 6.18098 46.6551H6.03125V47.5081C6.03125 47.7625 6.09114 48.017 6.21092 48.2863C6.55528 49.0795 7.31886 49.7978 8.29205 50.4863C9.8791 51.6087 11.8704 52.6113 14.0114 53.5392C15.6284 54.2426 17.3053 54.931 19.0121 55.6044C21.0633 56.4126 23.2642 57.1309 25.7346 57.6846C27.666 58.1186 29.6573 58.3431 31.7085 58.3581C31.469 58.2982 31.2893 58.0887 31.2893 57.8343C31.2893 57.52 31.5438 57.2656 31.8582 57.2656C32.1727 57.2656 32.4122 57.52 32.4122 57.8343C32.4122 58.1037 32.2325 58.2982 31.993 58.3581C33.1309 58.3581 34.2688 58.2982 35.4516 58.1336C37.5926 57.8343 39.494 57.3554 41.3057 56.7867C43.6713 56.0534 45.8123 55.2004 47.8785 54.3174C50.4537 53.2249 52.954 52.1025 54.9603 50.7856C56.1581 50.0074 57.1313 49.1693 57.5205 48.2414C57.6253 47.987 57.6703 47.7326 57.6852 47.4932H57.7002V46.6401H57.5355C57.281 45.9517 56.6821 45.2932 55.8586 44.6647L55.8886 44.6497ZM31.8732 56.1731C31.5588 56.1731 31.3043 55.9337 31.3043 55.6194C31.3043 55.3051 31.5588 55.0507 31.8732 55.0507C32.1876 55.0507 32.4272 55.3051 32.4272 55.6194C32.4272 55.9337 32.1727 56.1731 31.8732 56.1731ZM31.8732 53.9882C31.5588 53.9882 31.3043 53.7338 31.3043 53.4344C31.3043 53.1202 31.5588 52.8658 31.8732 52.8658C32.1876 52.8658 32.4272 53.1202 32.4272 53.4344C32.4272 53.7487 32.1727 53.9882 31.8732 53.9882ZM31.8732 51.8032C31.5588 51.8032 31.3043 51.5488 31.3043 51.2345C31.3043 50.9203 31.5588 50.6808 31.8732 50.6808C32.1876 50.6808 32.4272 50.9352 32.4272 51.2345C32.4272 51.5488 32.1727 51.8032 31.8732 51.8032ZM31.8732 49.6033C31.5588 49.6033 31.3043 49.3638 31.3043 49.0496C31.3043 48.7353 31.5588 48.4809 31.8732 48.4809C32.1876 48.4809 32.4272 48.7353 32.4272 49.0496C32.4272 49.3638 32.1727 49.6033 31.8732 49.6033ZM31.8732 47.4183C31.5588 47.4183 31.3043 47.1639 31.3043 46.8646C31.3043 46.5653 31.5588 46.2959 31.8732 46.2959C32.1876 46.2959 32.4272 46.5503 32.4272 46.8646C32.4272 47.1789 32.1727 47.4183 31.8732 47.4183ZM31.8732 45.2334C31.5588 45.2334 31.3043 44.979 31.3043 44.6647C31.3043 44.3504 31.5588 44.111 31.8732 44.111C32.1876 44.111 32.4272 44.3654 32.4272 44.6647C32.4272 44.964 32.1727 45.2334 31.8732 45.2334ZM31.8732 43.0484C31.5588 43.0484 31.3043 42.794 31.3043 42.4797C31.3043 42.1655 31.5588 41.9111 31.8732 41.9111C32.1876 41.9111 32.4272 42.1655 32.4272 42.4797C32.4272 42.794 32.1727 43.0484 31.8732 43.0484ZM31.8732 40.8485C31.5588 40.8485 31.3043 40.5941 31.3043 40.2948C31.3043 39.9955 31.5588 39.7261 31.8732 39.7261C32.1876 39.7261 32.4272 39.9805 32.4272 40.2948C32.4272 40.6091 32.1727 40.8485 31.8732 40.8485ZM31.8732 38.6636C31.5588 38.6636 31.3043 38.4091 31.3043 38.1098C31.3043 37.8105 31.5588 37.5412 31.8732 37.5412C32.1876 37.5412 32.4272 37.7956 32.4272 38.1098C32.4272 38.4241 32.1727 38.6636 31.8732 38.6636Z" fill="#00A5A9"/>
</g>
</svg>
