<svg width="64" height="64" viewBox="0 0 64 64" fill="none" xmlns="http://www.w3.org/2000/svg">
<mask id="mask0_792_213" style="mask-type:alpha" maskUnits="userSpaceOnUse" x="0" y="0" width="64" height="64">
<rect width="64" height="64" fill="#D9D9D9"/>
</mask>
<g mask="url(#mask0_792_213)">
<path d="M56.037 19.5046C55.5279 17.0952 54.7494 14.8054 53.342 12.7701C51.3956 9.94168 48.6108 8.35534 45.3768 7.41252C41.7386 6.34997 37.9806 6.05066 34.2225 6.00577C31.1383 5.97584 28.039 6.06563 24.9548 6.20032C22.3496 6.32004 19.7894 6.75404 17.304 7.51728C13.546 8.66962 10.5665 10.7947 8.7549 14.3714C7.63198 16.6013 7.0331 18.9958 6.67377 21.4351C6.16471 24.7425 6.04492 28.0648 6 31.4021C6.10481 33.617 6.14974 35.8319 6.29946 38.0318C6.46416 40.6208 6.85343 43.1949 7.63198 45.6791C8.5902 48.762 10.1922 51.3959 12.9022 53.2517C14.6539 54.4489 16.6003 55.1822 18.6365 55.691C21.9753 56.5291 25.4039 56.7985 28.8176 56.8434C31.4227 56.8733 34.0129 56.8434 36.6181 56.7386C39.7323 56.6189 42.8016 56.2298 45.796 55.3019C49.5241 54.1496 52.5036 52.0395 54.3152 48.4777C55.4531 46.2329 56.052 43.8384 56.4263 41.3691C56.9204 38.1366 57.0401 34.8741 57.0251 31.5967C57.0251 27.5261 56.9054 23.4704 56.052 19.4747L56.037 19.5046ZM39.2682 42.5663C37.9356 43.7037 36.1989 44.422 34.0578 44.7064V45.3499C34.0578 46.3526 33.2494 47.1757 32.2312 47.1757H30.764C29.7608 47.1757 28.9374 46.3676 28.9374 45.3499V44.6465C26.9161 44.3323 25.2243 43.6438 23.9067 42.5963C22.0053 41.0848 21.062 39.0046 21.062 36.3557H26.1376C26.3023 37.523 26.6167 38.391 27.0808 38.9597C27.9492 40.0072 29.4165 40.531 31.5126 40.531C32.7702 40.531 33.7883 40.3963 34.5669 40.112C36.0491 39.5882 36.7978 38.6005 36.7978 37.1638C36.7978 36.3257 36.4234 35.6822 35.6898 35.2183C34.9562 34.7693 33.7884 34.3653 32.2163 34.0211L29.5213 33.4075C26.8712 32.8089 25.0446 32.1654 24.0265 31.462C22.3047 30.2797 21.4513 28.4539 21.4513 25.9547C21.4513 23.6799 22.2748 21.7793 23.9367 20.2828C25.1644 19.1604 26.8263 18.457 28.9224 18.1727V17.3196C28.9224 16.317 29.7309 15.4939 30.749 15.4939H32.2163C33.2194 15.4939 34.0429 16.302 34.0429 17.3196V18.3074C35.5551 18.6366 36.9175 19.2502 38.1153 20.1481C40.0168 21.5698 41.0049 23.6351 41.0948 26.3288H35.9892C35.8994 24.8024 35.2257 23.7099 33.983 23.0664C33.1595 22.6473 32.1264 22.4229 30.8987 22.4229C29.5213 22.4229 28.4283 22.7072 27.6198 23.246C26.8113 23.7997 26.3921 24.5779 26.3921 25.5656C26.3921 26.4785 26.7964 27.1519 27.6048 27.6009C28.1289 27.9002 29.2218 28.2594 30.9287 28.6485L35.3155 29.6961C37.2319 30.16 38.6842 30.7736 39.6724 31.5518C41.1996 32.749 41.9482 34.485 41.9482 36.7448C41.9482 39.0046 41.0648 40.995 39.2682 42.5364V42.5663Z" fill="#00A5A9"/>
</g>
</svg>
