<svg width="64" height="64" viewBox="0 0 64 64" fill="none" xmlns="http://www.w3.org/2000/svg">
<mask id="mask0_792_215" style="mask-type:alpha" maskUnits="userSpaceOnUse" x="0" y="0" width="64" height="64">
<rect width="64" height="64" fill="#D9D9D9"/>
</mask>
<g mask="url(#mask0_792_215)">
<path d="M56.037 19.5046C55.5279 17.0952 54.7644 14.8055 53.342 12.7702C51.3956 9.94168 48.6108 8.35534 45.3768 7.41252C41.7386 6.34998 37.9806 6.05066 34.2225 6.00577C31.1383 5.97584 28.039 6.06564 24.9548 6.20033C22.3496 6.32005 19.7894 6.75404 17.304 7.51728C13.546 8.66962 10.5665 10.7947 8.7549 14.3715C7.63198 16.6013 7.0331 18.9958 6.67377 21.4351C6.16471 24.7425 6.04492 28.0648 6 31.4021C6.10481 33.617 6.14974 35.8319 6.29946 38.0318C6.46416 40.6208 6.85343 43.1949 7.63198 45.6791C8.5902 48.762 10.1922 51.3959 12.9022 53.2517C14.6539 54.4489 16.6003 55.1822 18.6365 55.691C21.9753 56.5291 25.4039 56.7985 28.8176 56.8434C31.4078 56.8733 34.0129 56.8434 36.6181 56.7386C39.7323 56.6189 42.8166 56.2298 45.796 55.3019C49.5241 54.1496 52.5036 52.0395 54.3152 48.4777C55.4531 46.2329 56.052 43.8384 56.4263 41.3691C56.9203 38.1366 57.0251 34.8741 57.0251 31.5967C57.0251 27.5261 56.9054 23.4704 56.052 19.4747L56.037 19.5046ZM34.5519 14.0721C34.7466 13.8327 35.1059 13.8028 35.3455 13.9823C35.585 14.1769 35.6299 14.5361 35.4353 14.7755C35.3155 14.9252 35.1658 14.985 34.9861 14.985C34.8663 14.985 34.7466 14.9551 34.6418 14.8653C34.4022 14.6708 34.3573 14.3266 34.5519 14.0721ZM33.0847 12.8899C33.2793 12.6504 33.6236 12.6205 33.8632 12.815C34.1177 12.9946 34.1477 13.3538 33.9531 13.5932C33.8482 13.7429 33.6835 13.8028 33.5188 13.8028C33.3991 13.8028 33.2643 13.7728 33.1745 13.683C32.92 13.4885 32.89 13.1443 33.0847 12.8899ZM32.0516 11.5579C32.351 11.5579 32.6055 11.8124 32.6055 12.1117C32.6055 12.411 32.351 12.6804 32.0516 12.6804C31.7372 12.6804 31.4826 12.4259 31.4826 12.1117C31.4826 11.7974 31.7372 11.5579 32.0516 11.5579ZM32.0516 13.698C32.351 13.698 32.6055 13.9524 32.6055 14.2517C32.6055 14.551 32.351 14.8204 32.0516 14.8204C31.7372 14.8204 31.4826 14.566 31.4826 14.2517C31.4826 13.9375 31.7372 13.698 32.0516 13.698ZM32.0516 15.883C32.351 15.883 32.6055 16.1374 32.6055 16.4516C32.6055 16.7659 32.351 17.0054 32.0516 17.0054C31.7372 17.0054 31.4826 16.7659 31.4826 16.4516C31.4826 16.1374 31.7372 15.883 32.0516 15.883ZM32.0516 18.0829C32.351 18.0829 32.6055 18.3223 32.6055 18.6366C32.6055 18.9509 32.351 19.2053 32.0516 19.2053C31.7372 19.2053 31.4826 18.9509 31.4826 18.6366C31.4826 18.3223 31.7372 18.0829 32.0516 18.0829ZM32.0516 20.2678C32.351 20.2678 32.6055 20.5222 32.6055 20.8216C32.6055 21.1209 32.351 21.3902 32.0516 21.3902C31.7372 21.3902 31.4826 21.1358 31.4826 20.8216C31.4826 20.5073 31.7372 20.2678 32.0516 20.2678ZM30.225 12.815C30.4645 12.6205 30.8089 12.6504 31.0035 12.8899C31.1982 13.1443 31.1682 13.4885 30.9287 13.683C30.8239 13.7728 30.7041 13.8028 30.5693 13.8028C30.4046 13.8028 30.24 13.7429 30.1351 13.5932C29.9405 13.3538 29.9854 12.9946 30.225 12.815ZM28.7427 13.9823C28.9823 13.8028 29.3416 13.8327 29.5362 14.0721C29.7309 14.3266 29.686 14.6708 29.4464 14.8653C29.3416 14.9551 29.2218 14.985 29.1021 14.985C28.9374 14.985 28.7727 14.9252 28.6529 14.7755C28.4732 14.5361 28.5032 14.1769 28.7427 13.9823ZM39.6724 51.9048C36.139 49.2709 33.0847 48.4328 32.0965 48.1035C29.9106 47.3702 30.5843 45.4696 32.3211 45.4547C32.89 45.4547 33.7434 45.6193 34.2375 45.7989L29.671 39.3937C28.6829 38.0019 30.7789 36.5802 31.7372 37.927L34.8364 42.2521C35.1957 42.7459 35.9443 42.2221 35.6 41.7133L34.8364 40.6508C35.3005 40.531 35.8096 40.3365 36.2288 40.3365C36.4983 40.3365 36.7379 40.4263 36.9175 40.6657L37.5464 41.5487C37.9057 42.0575 38.6543 41.5038 38.3099 41.0099L37.5913 40.0072C38.0404 39.9025 38.5196 39.7229 38.9238 39.7229C39.2083 39.7229 39.4478 39.8127 39.6275 40.0521L40.1515 40.8004C40.5109 41.3092 41.2744 40.7555 40.9151 40.2617L40.3162 39.4236C40.6306 39.3637 40.9151 39.3188 41.1696 39.3188C41.9033 39.3188 42.4872 39.6481 43.3256 40.8303C45.0175 43.1949 44.5533 44.856 46.2452 47.2355L39.7024 51.9048H39.6724ZM27.9192 39.9175C26.1825 38.6753 26.1675 36.0713 27.9192 34.8292C29.671 33.5721 32.1264 34.4401 32.7403 36.4904C31.6623 35.6673 30.21 35.6972 29.1021 36.4904C27.9792 37.2835 27.4851 38.6454 27.9192 39.9324V39.9175ZM46.2152 43.0901C45.4966 41.5337 44.733 39.2739 42.6968 38.5556V28.4839H21.601V44.886H30.195C29.0422 45.5445 29.147 46.4274 29.2817 47.2355H20.4332C19.1456 47.2355 18.0825 46.188 18.0825 44.886V28.4839C18.0825 27.1968 19.1306 26.1343 20.4332 26.1343H43.8796C45.1672 26.1343 46.2302 27.1819 46.2302 28.4839V43.1051L46.2152 43.0901Z" fill="#00A5A9"/>
</g>
</svg>
