<svg width="64" height="64" viewBox="0 0 64 64" fill="none" xmlns="http://www.w3.org/2000/svg">
<mask id="mask0_792_217" style="mask-type:alpha" maskUnits="userSpaceOnUse" x="0" y="0" width="64" height="64">
<rect width="64" height="64" fill="#D9D9D9"/>
</mask>
<g mask="url(#mask0_792_217)">
<path d="M7.16783 9H6V55.6622H57.8486V54.4949H7.16783V9Z" fill="#00A5A9"/>
<path d="M44.9291 15.7948C45.0788 15.7948 45.2286 15.7349 45.3334 15.6152L49.0764 11.1555L49.1513 12.6071C49.1513 12.8915 49.4357 13.116 49.7052 13.101C49.9897 13.101 50.2143 12.8466 50.1993 12.5473L50.0795 10.1678C50.0795 9.92833 49.9598 9.68887 49.7651 9.53922C49.5705 9.3746 49.316 9.29977 49.0914 9.3297L46.7108 9.62902C46.4263 9.65895 46.2167 9.92832 46.2616 10.2127C46.2916 10.497 46.5611 10.7065 46.8456 10.6616L48.2829 10.482L44.5399 14.9417C44.3602 15.1662 44.3901 15.4955 44.5997 15.6751C44.7045 15.7648 44.8243 15.7948 44.9441 15.7948H44.9291Z" fill="#00A5A9"/>
<path d="M42.6067 26.0307C41.9778 26.734 41.0046 27.0483 40.0764 26.8238L26.9907 23.741C25.9726 23.5015 24.9096 23.9056 24.2957 24.7586L9.03906 43.1062V52.8787H41.5736H57.8483V9L42.6067 26.0307ZM26.0325 51.8909C25.733 51.8909 25.4785 51.6365 25.4785 51.3372C25.4785 51.0379 25.733 50.7685 26.0325 50.7685C26.3469 50.7685 26.6014 51.023 26.6014 51.3372C26.6014 51.6515 26.3469 51.8909 26.0325 51.8909ZM26.0325 49.706C25.733 49.706 25.4785 49.4516 25.4785 49.1523C25.4785 48.853 25.733 48.5836 26.0325 48.5836C26.3469 48.5836 26.6014 48.838 26.6014 49.1523C26.6014 49.4665 26.3469 49.706 26.0325 49.706ZM26.0325 47.521C25.733 47.521 25.4785 47.2666 25.4785 46.9673C25.4785 46.653 25.733 46.3986 26.0325 46.3986C26.3469 46.3986 26.6014 46.653 26.6014 46.9673C26.6014 47.2816 26.3469 47.521 26.0325 47.521ZM26.0325 45.3361C25.733 45.3361 25.4785 45.0966 25.4785 44.7824C25.4785 44.4681 25.733 44.2137 26.0325 44.2137C26.3469 44.2137 26.6014 44.4681 26.6014 44.7824C26.6014 45.0966 26.3469 45.3361 26.0325 45.3361ZM26.0325 43.1511C25.733 43.1511 25.4785 42.9117 25.4785 42.5974C25.4785 42.2831 25.733 42.0287 26.0325 42.0287C26.3469 42.0287 26.6014 42.2831 26.6014 42.5974C26.6014 42.9117 26.3469 43.1511 26.0325 43.1511ZM26.0325 40.9662C25.733 40.9662 25.4785 40.7267 25.4785 40.4125C25.4785 40.0982 25.733 39.8587 26.0325 39.8587C26.3469 39.8587 26.6014 40.0982 26.6014 40.4125C26.6014 40.7267 26.3469 40.9662 26.0325 40.9662ZM26.0325 38.7962C25.733 38.7962 25.4785 38.5418 25.4785 38.2275C25.4785 37.9132 25.733 37.6738 26.0325 37.6738C26.3469 37.6738 26.6014 37.9132 26.6014 38.2275C26.6014 38.5418 26.3469 38.7962 26.0325 38.7962ZM26.0325 36.6112C25.733 36.6112 25.4785 36.3568 25.4785 36.0425C25.4785 35.7283 25.733 35.4888 26.0325 35.4888C26.3469 35.4888 26.6014 35.7283 26.6014 36.0425C26.6014 36.3568 26.3469 36.6112 26.0325 36.6112ZM26.0325 34.4263C25.733 34.4263 25.4785 34.1719 25.4785 33.8576C25.4785 33.5433 25.733 33.3039 26.0325 33.3039C26.3469 33.3039 26.6014 33.5583 26.6014 33.8576C26.6014 34.1719 26.3469 34.4263 26.0325 34.4263ZM26.0325 32.2413C25.733 32.2413 25.4785 31.9869 25.4785 31.6876C25.4785 31.3733 25.733 31.1189 26.0325 31.1189C26.3469 31.1189 26.6014 31.3733 26.6014 31.6876C26.6014 32.0019 26.3469 32.2413 26.0325 32.2413ZM26.0325 30.0564C25.733 30.0564 25.4785 29.802 25.4785 29.4877C25.4785 29.1734 25.733 28.934 26.0325 28.934C26.3469 28.934 26.6014 29.1884 26.6014 29.4877C26.6014 29.802 26.3469 30.0564 26.0325 30.0564ZM26.0325 27.8714C25.733 27.8714 25.4785 27.617 25.4785 27.3177C25.4785 27.0034 25.733 26.749 26.0325 26.749C26.3469 26.749 26.6014 27.0034 26.6014 27.3177C26.6014 27.632 26.3469 27.8714 26.0325 27.8714ZM26.0325 25.6865C25.733 25.6865 25.4785 25.432 25.4785 25.1327C25.4785 24.8185 25.733 24.564 26.0325 24.564C26.3469 24.564 26.6014 24.8185 26.6014 25.1327C26.6014 25.447 26.3469 25.6865 26.0325 25.6865ZM41.4089 51.8909C41.1094 51.8909 40.8549 51.6365 40.8549 51.3372C40.8549 51.0379 41.1094 50.7685 41.4089 50.7685C41.7233 50.7685 41.9778 51.023 41.9778 51.3372C41.9778 51.6515 41.7233 51.8909 41.4089 51.8909ZM41.4089 49.7658C41.1094 49.7658 40.8549 49.5114 40.8549 49.2121C40.8549 48.9128 41.1094 48.6434 41.4089 48.6434C41.7233 48.6434 41.9778 48.8979 41.9778 49.2121C41.9778 49.5264 41.7233 49.7658 41.4089 49.7658ZM41.4089 47.6258C41.1094 47.6258 40.8549 47.3714 40.8549 47.0721C40.8549 46.7578 41.1094 46.5034 41.4089 46.5034C41.7233 46.5034 41.9778 46.7578 41.9778 47.0721C41.9778 47.3863 41.7233 47.6258 41.4089 47.6258ZM41.4089 45.5007C41.1094 45.5007 40.8549 45.2613 40.8549 44.947C40.8549 44.6327 41.1094 44.3783 41.4089 44.3783C41.7233 44.3783 41.9778 44.6327 41.9778 44.947C41.9778 45.2613 41.7233 45.5007 41.4089 45.5007ZM41.4089 43.3606C41.1094 43.3606 40.8549 43.1212 40.8549 42.8069C40.8549 42.4926 41.1094 42.2382 41.4089 42.2382C41.7233 42.2382 41.9778 42.4926 41.9778 42.8069C41.9778 43.1212 41.7233 43.3606 41.4089 43.3606ZM41.4089 41.2206C41.1094 41.2206 40.8549 40.9811 40.8549 40.6669C40.8549 40.3526 41.1094 40.1131 41.4089 40.1131C41.7233 40.1131 41.9778 40.3526 41.9778 40.6669C41.9778 40.9811 41.7233 41.2206 41.4089 41.2206ZM41.4089 39.1105C41.1094 39.1105 40.8549 38.856 40.8549 38.5418C40.8549 38.2275 41.1094 37.988 41.4089 37.988C41.7233 37.988 41.9778 38.2275 41.9778 38.5418C41.9778 38.856 41.7233 39.1105 41.4089 39.1105ZM41.4089 36.9704C41.1094 36.9704 40.8549 36.716 40.8549 36.4017C40.8549 36.0874 41.1094 35.848 41.4089 35.848C41.7233 35.848 41.9778 36.0874 41.9778 36.4017C41.9778 36.716 41.7233 36.9704 41.4089 36.9704ZM41.4089 34.8453C41.1094 34.8453 40.8549 34.5909 40.8549 34.2766C40.8549 33.9623 41.1094 33.7229 41.4089 33.7229C41.7233 33.7229 41.9778 33.9773 41.9778 34.2766C41.9778 34.5909 41.7233 34.8453 41.4089 34.8453ZM41.4089 32.7052C41.1094 32.7052 40.8549 32.4508 40.8549 32.1515C40.8549 31.8372 41.1094 31.5828 41.4089 31.5828C41.7233 31.5828 41.9778 31.8372 41.9778 32.1515C41.9778 32.4658 41.7233 32.7052 41.4089 32.7052ZM41.4089 30.5652C41.1094 30.5652 40.8549 30.3108 40.8549 29.9965C40.8549 29.6822 41.1094 29.4428 41.4089 29.4428C41.7233 29.4428 41.9778 29.6972 41.9778 29.9965C41.9778 30.3108 41.7233 30.5652 41.4089 30.5652ZM41.4089 28.4401C41.1094 28.4401 40.8549 28.1857 40.8549 27.8864C40.8549 27.5721 41.1094 27.3177 41.4089 27.3177C41.7233 27.3177 41.9778 27.5721 41.9778 27.8864C41.9778 28.2006 41.7233 28.4401 41.4089 28.4401Z" fill="#00A5A9"/>
</g>
</svg>
