<svg width="64" height="64" viewBox="0 0 64 64" fill="none" xmlns="http://www.w3.org/2000/svg">
<mask id="mask0_792_219" style="mask-type:alpha" maskUnits="userSpaceOnUse" x="0" y="0" width="64" height="64">
<rect width="64" height="64" fill="#D9D9D9"/>
</mask>
<g mask="url(#mask0_792_219)">
<path d="M60.9086 21.4159L33.5994 11.1796C32.9705 10.9401 32.2818 10.9401 31.668 11.1796L3.46039 21.8649C2.84654 22.1044 2.84654 22.9723 3.46039 23.1968L6.36499 24.2594L7.21841 24.5736L31.4134 33.4332C32.0423 33.6577 32.731 33.6577 33.3448 33.4182L60.8936 22.7479C61.5075 22.5084 61.5075 21.6404 60.8936 21.4159H60.9086Z" fill="#00A5A9"/>
<path d="M49.0193 29.168C32.2804 37.8779 31.8912 37.8779 14.7031 29.1979V44.5075C14.7031 44.5075 14.7031 44.5225 14.7031 44.5375C14.7031 44.5375 14.7031 44.5524 14.7031 44.5674V44.6273C14.8079 49.1917 22.4288 52.8882 31.8463 52.8882C41.2638 52.8882 48.4953 49.3563 48.9295 44.9415C48.9594 44.9415 48.9744 44.9416 49.0044 44.9266V44.5824C49.0044 44.5824 49.0044 44.5674 49.0044 44.5524C49.0044 44.5524 49.0044 44.5375 49.0044 44.5225V29.1829L49.0193 29.168Z" fill="#00A5A9"/>
<path d="M8.68506 37.5187C8.68506 36.5609 7.84662 35.7827 6.81354 35.7827C5.78046 35.7827 4.94202 36.5609 4.94202 37.5187C4.94202 38.2819 5.46604 38.9105 6.19968 39.1499L4.59766 51.9155C6.15476 51.1073 7.77176 51.2719 9.02942 51.9155L7.59209 39.105C8.23589 38.8357 8.68506 38.237 8.68506 37.5337V37.5187Z" fill="#00A5A9"/>
<path d="M6.84589 32.9537C7.14513 32.9537 7.39948 32.6993 7.39948 32.3851C7.39948 32.0709 7.14513 31.8315 6.84589 31.8315C6.54666 31.8315 6.27734 32.0709 6.27734 32.3851C6.27734 32.6993 6.53169 32.9537 6.84589 32.9537Z" fill="#00A5A9"/>
<path d="M6.84589 30.919C7.14513 30.919 7.39948 30.6647 7.39948 30.3505C7.39948 30.0363 7.14513 29.7969 6.84589 29.7969C6.54666 29.7969 6.27734 30.0363 6.27734 30.3505C6.27734 30.6647 6.53169 30.919 6.84589 30.919Z" fill="#00A5A9"/>
<path d="M6.84589 28.8839C7.14513 28.8839 7.39948 28.6295 7.39948 28.3303C7.39948 28.0161 7.14513 27.7617 6.84589 27.7617C6.54666 27.7617 6.27734 28.0161 6.27734 28.3303C6.27734 28.6445 6.53169 28.8839 6.84589 28.8839Z" fill="#00A5A9"/>
<path d="M6.84589 26.8482C7.14513 26.8482 7.39948 26.5939 7.39948 26.2946C7.39948 25.9804 7.14513 25.7261 6.84589 25.7261C6.54666 25.7261 6.27734 25.9804 6.27734 26.2946C6.27734 26.6088 6.53169 26.8482 6.84589 26.8482Z" fill="#00A5A9"/>
<path d="M6.84589 34.9742C7.14513 34.9742 7.39948 34.7348 7.39948 34.4206C7.39948 34.1064 7.14513 33.8521 6.84589 33.8521C6.54666 33.8521 6.27734 34.1064 6.27734 34.4206C6.27734 34.7348 6.53169 34.9742 6.84589 34.9742Z" fill="#00A5A9"/>
</g>
</svg>
