<svg width="157" height="76" viewBox="0 0 157 76" fill="none" xmlns="http://www.w3.org/2000/svg">
<path d="M131.174 1L131.414 16.96H130.814C130.274 6.16 127.214 1.72 120.614 1.72H113.714C109.334 1.72 109.334 2.62 109.334 7.12V20.5H113.594C121.574 20.5 122.474 18.64 122.834 11.5H123.434V30.28H122.834C122.474 23.08 121.574 21.22 113.594 21.22H109.334V36.58C109.334 41.02 109.334 42.22 115.934 42.4V43H98.1143V42.4C102.974 42.22 102.974 41.02 102.974 36.58V7.42C102.974 2.98 102.974 1.78 98.1143 1.6V1H131.174Z" fill="#795CA5"/>
<path d="M80.3573 1C89.5973 1 96.6173 3.58 96.6173 12.94C96.6173 22.36 89.5973 25 80.3573 25H72.9173V36.58C72.9173 40.96 72.9173 42.22 79.5173 42.4V43H61.6973V42.4C66.5573 42.22 66.5573 40.96 66.5573 36.58V7.42C66.5573 2.98 66.5573 1.78 61.6973 1.6V1H80.3573ZM80.3573 24.28C87.3773 24.28 89.7173 21.76 89.7173 12.94C89.7173 4.18 87.3773 1.72 80.3573 1.72H77.2973C72.9173 1.72 72.9173 2.8 72.9173 7.12V24.28H80.3573Z" fill="#795CA5"/>
<path d="M43.267 43.54C38.827 43.54 35.827 41.98 33.847 40.66C31.927 39.52 30.607 38.44 29.647 38.44C28.747 38.44 28.147 39.22 27.967 43.54H27.367L27.127 26.02H27.727C28.267 32.86 32.527 42.82 43.267 42.82C46.447 42.82 50.107 42.28 52.507 39.64C53.827 38.14 54.187 36.22 54.187 34.3C54.187 28.9 48.607 26.5 41.467 24.04C35.347 21.88 27.787 19.72 27.787 12.04C27.787 8.67996 29.107 5.97996 31.327 3.99996C33.907 1.53996 37.747 0.459961 41.707 0.459961C46.027 0.459961 48.907 2.13996 50.587 3.33996C52.627 4.71996 53.527 5.61996 54.427 5.61996C55.327 5.61996 55.987 4.77996 56.047 0.459961H56.647L56.887 17.14H56.287C55.747 10.72 51.727 1.17996 41.707 1.17996C38.947 1.17996 36.247 1.83996 34.447 3.27996C33.007 4.47996 32.167 6.27996 32.167 8.31996C32.167 13.42 37.027 15.16 43.747 17.56C51.547 20.26 58.447 22.66 58.447 30.58C58.447 34.36 57.067 37.48 54.367 39.82C51.667 42.1 48.307 43.54 43.267 43.54Z" fill="#795CA5"/>
<path d="M153.627 65.8882C155.363 65.8882 156.497 67.3162 156.497 69.3042C156.497 71.3342 155.363 73.1402 153.179 73.1402C152.059 73.1402 151.233 72.5242 150.897 71.6002L150.911 74.4002C150.911 75.3382 150.911 75.5762 152.073 75.5762V75.7162H149.049V75.5762C149.917 75.5762 149.917 75.3242 149.917 74.3862V67.3582C149.917 66.7282 149.917 66.2522 148.937 66.1682V66.0282H150.911L150.883 67.9602C151.499 66.5182 152.493 65.8882 153.627 65.8882ZM153.081 72.9582C154.257 72.9582 155.419 72.3282 155.419 69.3182C155.419 67.9042 155.209 66.0982 153.445 66.0982C152.381 66.0982 151.471 66.7982 150.897 68.2682V70.6482C150.897 71.8242 151.667 72.9582 153.081 72.9582Z" fill="#795CA5"/>
<path d="M147.202 64.5301C146.768 64.5301 146.432 64.1941 146.432 63.7601C146.432 63.3121 146.768 62.9761 147.202 62.9761C147.664 62.9761 148 63.3121 148 63.7601C148 64.1941 147.664 64.5301 147.202 64.5301ZM148.546 73.0001H145.872V72.8601C146.726 72.8601 146.726 72.6361 146.726 71.6701V67.3581C146.726 66.7281 146.726 66.2521 145.746 66.1681V66.0281H147.706V71.6701C147.706 72.6361 147.706 72.8601 148.546 72.8601V73.0001Z" fill="#795CA5"/>
<path d="M144.535 71.6702C144.535 72.6222 144.535 72.8602 145.389 72.8602V73.0002H142.561V72.8602C143.569 72.8602 143.569 72.6222 143.569 71.6702V67.9042C143.569 66.6582 142.883 66.2102 142.001 66.2102C140.825 66.2102 139.971 66.9942 139.439 68.0582V71.6702C139.439 72.6222 139.439 72.8602 140.433 72.8602V73.0002H137.605V72.8602C138.473 72.8602 138.473 72.6222 138.473 71.6702V64.4042C138.473 63.7742 138.473 63.3682 137.479 63.3402V63.2002H139.439V66.0282L139.411 67.7922C140.069 66.5742 141.091 65.8882 142.351 65.8882C143.541 65.8882 144.535 66.5462 144.535 67.9742V71.6702Z" fill="#795CA5"/>
<path d="M134.299 73.1399C133.445 73.1399 132.829 72.8599 132.451 72.6219C131.961 72.2999 131.807 72.0899 131.653 72.0899C131.429 72.0899 131.359 72.5659 131.317 73.1399H131.191L131.247 69.8779H131.373C131.401 72.1039 132.885 72.9719 134.299 72.9719C134.943 72.9719 135.531 72.8319 135.881 72.5239C136.091 72.3279 136.245 72.0479 136.245 71.6419C136.245 70.4659 135.181 70.1999 133.739 69.8219C132.325 69.4719 131.331 69.1359 131.331 67.9179C131.331 67.2879 131.611 66.7699 132.101 66.4199C132.647 66.0559 133.291 65.9019 133.893 65.9019C134.831 65.9019 135.405 66.2659 135.755 66.5179C136.021 66.7279 136.175 66.9099 136.287 66.9099C136.469 66.9099 136.483 66.6859 136.497 65.9019H136.637L136.693 68.7299H136.553C136.469 67.7639 135.839 66.0559 133.893 66.0559C133.375 66.0559 132.857 66.1819 132.423 66.4479C132.129 66.6439 131.863 66.9379 131.863 67.3999C131.863 68.3239 132.885 68.6319 134.089 68.9259C135.629 69.2899 136.959 69.6399 136.959 71.1239C136.959 71.8799 136.595 72.3839 136.063 72.7059C135.685 72.9439 135.083 73.1399 134.299 73.1399Z" fill="#795CA5"/>
<path d="M128.489 66.0283H131.261V66.1683C130.337 66.1683 130.057 66.7983 129.665 67.7923L127.537 73.1263H127.397L125.563 68.0303L123.533 73.1263H123.393L121.223 67.8203C120.691 66.5183 120.537 66.1683 119.613 66.1683V66.0283H122.847V66.1683C121.629 66.1683 121.755 66.5603 122.217 67.7223L123.883 71.8803L125.493 67.8203L125.451 67.7223C125.017 66.5043 124.807 66.1683 123.925 66.1683V66.0283H127.327V66.1683C125.871 66.1683 126.067 66.5323 126.515 67.8203L127.901 71.8803L129.511 67.7923C129.889 66.8403 130.127 66.1683 128.489 66.1683V66.0283Z" fill="#795CA5"/>
<path d="M116.61 73.1402C115 73.1402 113.25 71.7262 113.25 69.5142C113.25 67.3022 115 65.8882 116.61 65.8882C118.234 65.8882 119.984 67.3022 119.984 69.5142C119.984 71.7262 118.234 73.1402 116.61 73.1402ZM116.61 72.9722C118.038 72.9722 118.906 71.7262 118.906 69.5142C118.906 67.3022 118.038 66.0562 116.61 66.0562C115.196 66.0562 114.328 67.3022 114.328 69.5142C114.328 71.7262 115.196 72.9722 116.61 72.9722Z" fill="#795CA5"/>
<path d="M112.647 73.0002H109.959V72.8602C110.813 72.8602 110.813 72.6362 110.813 71.6702V64.4042C110.813 63.7742 110.813 63.3682 109.833 63.3402V63.2002H111.793V71.6702C111.793 72.6362 111.807 72.8602 112.647 72.8602V73.0002Z" fill="#795CA5"/>
<path d="M109.455 73.0002H106.767V72.8602C107.621 72.8602 107.621 72.6362 107.621 71.6702V64.4042C107.621 63.7742 107.621 63.3682 106.641 63.3402V63.2002H108.601V71.6702C108.601 72.6362 108.615 72.8602 109.455 72.8602V73.0002Z" fill="#795CA5"/>
<path d="M106 70.6762H106.14C106.126 71.9362 105.286 73.1402 103.354 73.1402C101.66 73.1402 100.05 71.7122 100.05 69.5142C100.05 67.3022 101.436 65.8882 103.186 65.8882C105.006 65.8882 106.126 67.1762 106.126 69.2762H101.128V69.5142C101.128 71.6702 101.968 72.9442 103.564 72.9442C105.132 72.9442 105.986 71.9082 106 70.6762ZM103.186 66.0562C101.786 66.0562 101.198 67.1062 101.128 69.1362H105.062C105.048 67.3582 104.642 66.0562 103.186 66.0562Z" fill="#795CA5"/>
<path d="M99.753 63.2002L99.809 66.8402H99.669C99.557 64.3902 99.067 63.3682 97.485 63.3682H95.595C94.461 63.3682 94.461 63.5782 94.461 64.7262V67.7502H95.595C97.499 67.7502 97.639 67.3162 97.723 65.6782H97.863V70.0042H97.723C97.639 68.3522 97.499 67.9182 95.595 67.9182H94.461V71.4462C94.461 72.5942 94.461 72.8322 96.113 72.8602V73.0002H92.207V72.8602C93.411 72.8322 93.411 72.5942 93.411 71.4462V64.7542C93.411 63.6062 93.411 63.3682 92.207 63.3402V63.2002H99.753Z" fill="#795CA5"/>
<path d="M88.5527 66.182L86.8727 66.168V70.942C86.8727 71.53 86.9147 72.048 87.0127 72.342C87.0967 72.566 87.2647 72.734 87.6007 72.734C87.9087 72.734 88.1327 72.594 88.2587 72.342C88.3987 72.048 88.4128 71.544 88.4128 70.914V70.158H88.5527V70.914C88.5527 71.628 88.5387 72.216 88.3147 72.58C88.0767 72.972 87.7267 73.14 87.2087 73.14C86.6907 73.14 86.3407 72.93 86.1727 72.58C85.9907 72.23 85.9067 71.712 85.9067 70.648V66.168H85.0107V66.028H85.4167C86.3687 66.028 86.5927 65.216 86.7047 63.48H86.8727V66.028L88.5527 66.014V66.182Z" fill="#795CA5"/>
<path d="M83.8714 71.6702C83.8714 72.6222 83.8714 72.8602 84.7254 72.8602V73.0002H81.8974V72.8602C82.9054 72.8602 82.9054 72.6222 82.9054 71.6702V67.9042C82.9054 66.6582 82.2194 66.2102 81.3374 66.2102C80.1474 66.2102 79.3074 66.9942 78.7754 68.0582V71.6702C78.7754 72.6222 78.7754 72.8602 79.7694 72.8602V73.0002H76.9414V72.8602C77.7954 72.8602 77.7954 72.6222 77.7954 71.6702V67.3582C77.7954 66.7282 77.7954 66.2522 76.8154 66.1682V66.0282H78.7754L78.7614 67.7642C79.4194 66.5742 80.4414 65.8882 81.6874 65.8882C82.8774 65.8882 83.8714 66.5462 83.8714 67.9742V71.6702Z" fill="#795CA5"/>
<path d="M76.118 70.6762H76.258C76.244 71.9362 75.404 73.1402 73.472 73.1402C71.778 73.1402 70.168 71.7122 70.168 69.5142C70.168 67.3022 71.554 65.8882 73.304 65.8882C75.124 65.8882 76.244 67.1762 76.244 69.2762H71.246V69.5142C71.246 71.6702 72.086 72.9442 73.682 72.9442C75.25 72.9442 76.104 71.9082 76.118 70.6762ZM73.304 66.0562C71.904 66.0562 71.316 67.1062 71.246 69.1362H75.18C75.166 67.3582 74.76 66.0562 73.304 66.0562Z" fill="#795CA5"/>
<path d="M68.7157 71.6702C68.7157 72.6362 68.7157 72.8602 69.5557 72.8602V73.0002H67.7497V71.1242C67.1477 72.5242 66.1677 73.1402 65.0197 73.1402C63.2697 73.1402 62.1357 71.6142 62.1357 69.6122C62.1357 67.5822 63.3257 65.8882 65.3697 65.8882C66.6577 65.8882 67.4417 66.5462 67.7637 67.4842L67.7497 64.3902C67.7497 63.7602 67.7497 63.3682 66.2657 63.3402V63.2002H68.7157V71.6702ZM65.2157 72.9302C66.3077 72.9302 67.1757 72.2582 67.7497 70.7182V68.3802C67.7497 67.2042 67.0077 66.0702 65.4537 66.0702C64.3897 66.0702 63.2137 66.6442 63.2137 69.5982C63.2137 71.0402 63.4657 72.9302 65.2157 72.9302Z" fill="#795CA5"/>
<path d="M60.1494 64.5301C59.7154 64.5301 59.3794 64.1941 59.3794 63.7601C59.3794 63.3121 59.7154 62.9761 60.1494 62.9761C60.6114 62.9761 60.9474 63.3121 60.9474 63.7601C60.9474 64.1941 60.6114 64.5301 60.1494 64.5301ZM61.4934 73.0001H58.8194V72.8601C59.6734 72.8601 59.6734 72.6361 59.6734 71.6701V67.3581C59.6734 66.7281 59.6734 66.2521 58.6934 66.1681V66.0281H60.6534V71.6701C60.6534 72.6361 60.6534 72.8601 61.4934 72.8601V73.0001Z" fill="#795CA5"/>
<path d="M55.4029 73.1399C54.5489 73.1399 53.9329 72.8599 53.5549 72.6219C53.0649 72.2999 52.9109 72.0899 52.7569 72.0899C52.5329 72.0899 52.4629 72.5659 52.4209 73.1399H52.2949L52.3509 69.8779H52.4769C52.5049 72.1039 53.9889 72.9719 55.4029 72.9719C56.0469 72.9719 56.6349 72.8319 56.9849 72.5239C57.1949 72.3279 57.3489 72.0479 57.3489 71.6419C57.3489 70.4659 56.2849 70.1999 54.8429 69.8219C53.4289 69.4719 52.4349 69.1359 52.4349 67.9179C52.4349 67.2879 52.7149 66.7699 53.2049 66.4199C53.7509 66.0559 54.3949 65.9019 54.9969 65.9019C55.9349 65.9019 56.5089 66.2659 56.8589 66.5179C57.1249 66.7279 57.2789 66.9099 57.3909 66.9099C57.5729 66.9099 57.5869 66.6859 57.6009 65.9019H57.7409L57.7969 68.7299H57.6569C57.5729 67.7639 56.9429 66.0559 54.9969 66.0559C54.4789 66.0559 53.9609 66.1819 53.5269 66.4479C53.2329 66.6439 52.9669 66.9379 52.9669 67.3999C52.9669 68.3239 53.9889 68.6319 55.1929 68.9259C56.7329 69.2899 58.0629 69.6399 58.0629 71.1239C58.0629 71.8799 57.6989 72.3839 57.1669 72.7059C56.7889 72.9439 56.1869 73.1399 55.4029 73.1399Z" fill="#795CA5"/>
<path d="M51.2752 70.6762H51.4152C51.4012 71.9362 50.5612 73.1402 48.6292 73.1402C46.9352 73.1402 45.3252 71.7122 45.3252 69.5142C45.3252 67.3022 46.7112 65.8882 48.4612 65.8882C50.2812 65.8882 51.4012 67.1762 51.4012 69.2762H46.4032V69.5142C46.4032 71.6702 47.2432 72.9442 48.8392 72.9442C50.4072 72.9442 51.2612 71.9082 51.2752 70.6762ZM48.4612 66.0562C47.0612 66.0562 46.4732 67.1062 46.4032 69.1362H50.3372C50.3232 67.3582 49.9172 66.0562 48.4612 66.0562Z" fill="#795CA5"/>
<path d="M43.5034 65.8882C44.6094 65.8882 45.0714 66.6022 45.0714 67.3302C45.0714 67.9462 44.7214 68.4502 44.2874 68.4502C44.0214 68.4502 43.6854 68.2542 43.6014 68.0442C44.0634 67.5402 44.3014 67.1202 44.3014 66.7562C44.3014 66.2102 43.7974 66.0982 43.4054 66.0982C42.2574 66.0982 41.3894 67.1202 41.0254 68.7442V71.6702C41.0254 72.6362 41.0254 72.8602 42.2574 72.8602V73.0002H39.1914V72.8602C40.0454 72.8602 40.0454 72.6362 40.0454 71.6702V67.3582C40.0454 66.7282 40.0454 66.2522 39.0654 66.1682V66.0282H41.0254L41.0114 68.2682C41.4594 66.6582 42.4534 65.8882 43.5034 65.8882Z" fill="#795CA5"/>
<path d="M35.1694 63.2002C37.1714 63.2002 38.7954 63.7882 38.7954 65.9302C38.7954 68.0862 37.1714 68.7022 35.1694 68.7022H33.1534V71.4462C33.1534 72.5942 33.1534 72.8322 34.8054 72.8602V73.0002H30.8994V72.8602C32.1034 72.8322 32.1034 72.5942 32.1034 71.4462V64.7542C32.1034 63.6062 32.1034 63.3682 30.8994 63.3402V63.2002H35.1694ZM35.1694 68.5342C37.0734 68.5342 37.6194 67.8342 37.6194 65.9302C37.6194 64.0402 37.0734 63.3682 35.1694 63.3682H34.2874C33.1534 63.3682 33.1534 63.5922 33.1534 64.7262V68.5342H35.1694Z" fill="#795CA5"/>
<path d="M22.8414 73.1402C20.3354 73.1402 19.3554 72.0062 19.3554 69.3322V64.7542C19.3554 63.6062 19.3554 63.3682 18.1514 63.3402V63.2002H21.9314V63.3402C20.4054 63.3682 20.4054 63.6062 20.4054 64.7542V69.4022C20.4054 71.0402 20.4754 72.9582 22.9814 72.9582C24.8994 72.9582 25.8374 71.9502 25.8374 69.3882V65.4822C25.8374 64.1242 25.8514 63.3682 23.9894 63.3402V63.2002H27.6994V63.3402C26.0054 63.3682 26.0054 64.1242 26.0054 65.4822V69.3882C26.0054 71.7822 25.1934 73.1402 22.8414 73.1402Z" fill="#795CA5"/>
<path d="M14.2609 63.2002H18.1389V63.3402C16.4309 63.3682 16.4309 64.1242 16.4309 65.4822V73.0142H16.2629L10.3129 64.0962L10.3269 70.7182C10.3269 72.0762 10.3269 72.8322 12.3429 72.8602V73.0002H8.46485V72.8602C10.1589 72.8322 10.1589 72.0762 10.1589 70.7182V64.5722C10.1589 63.8862 10.0749 63.3682 8.42285 63.3402V63.2002H10.9849L16.2629 71.1802V65.4822C16.2629 64.1242 16.2769 63.3682 14.2609 63.3402V63.2002Z" fill="#795CA5"/>
<path d="M4.42744 73.1262C3.29344 73.1262 2.56544 72.6922 2.10344 72.3702C1.71144 72.0902 1.45944 71.8522 1.26344 71.8522C1.06744 71.8522 0.955445 72.0622 0.927444 73.1262H0.787445L0.731445 69.0802H0.871445C0.997445 70.6062 1.85144 72.9582 4.42744 72.9582C5.09944 72.9582 6.00945 72.8322 6.59745 72.2022C6.94745 71.8102 7.03144 71.3202 7.03144 70.8302C7.03144 69.4582 5.82745 68.8842 4.11945 68.3242C2.74745 67.8482 0.899445 67.4002 0.899445 65.6362C0.899445 64.9502 1.16545 64.3762 1.62745 63.9422C2.22945 63.3402 3.11145 63.0742 4.03545 63.0742C5.11345 63.0742 5.82744 63.5362 6.20544 63.8302C6.63944 64.1802 6.80744 64.3482 6.98944 64.3482C7.18544 64.3482 7.31145 64.1382 7.32545 63.0742H7.46545L7.52145 66.9662H7.38144C7.25544 65.5102 6.40145 63.2422 4.03545 63.2422C3.32145 63.2422 2.70545 63.4102 2.31345 63.7462C1.94945 64.0542 1.73944 64.4882 1.73944 65.0202C1.73944 66.2802 2.83144 66.6582 4.45544 67.2182C6.31744 67.8482 7.84344 68.4222 7.84344 70.2142C7.84344 71.0262 7.57745 71.7262 6.98944 72.2442C6.40145 72.7762 5.63144 73.1262 4.42744 73.1262Z" fill="#795CA5"/>
</svg>
