<svg width="272" height="86" viewBox="0 0 272 86" fill="none" xmlns="http://www.w3.org/2000/svg">
<path d="M82.427 23.7622V24.7142H82.455C82.973 24.0282 83.701 23.5942 84.751 23.5942C86.263 23.5942 87.187 24.4202 87.187 25.9182V31.0002H86.053V26.0162C86.053 25.0782 85.437 24.5462 84.415 24.5462C83.267 24.5462 82.427 25.3582 82.427 26.5482V31.0002H81.293V23.7622H82.427Z" fill="#1A1A1A"/>
<path d="M76.6758 31.1961C74.5198 31.1961 73.1758 29.4881 73.1758 27.3881C73.1758 25.2881 74.5198 23.5801 76.6758 23.5801C78.8458 23.5801 80.1618 25.2881 80.1618 27.3881C80.1618 29.4881 78.8458 31.1961 76.6758 31.1961ZM76.6758 30.2441C78.2158 30.2441 78.9998 28.9841 78.9998 27.3881C78.9998 25.7921 78.2158 24.5181 76.6758 24.5181C75.1358 24.5181 74.3378 25.7921 74.3378 27.3881C74.3378 28.9841 75.1358 30.2441 76.6758 30.2441Z" fill="#1A1A1A"/>
<path d="M70.9023 31.0002V23.7622H72.0363V31.0002H70.9023ZM70.9023 22.3902V20.9902H72.0363V22.3902H70.9023Z" fill="#1A1A1A"/>
<path d="M66.1484 24.6865V23.7625H67.1984V21.4805H68.3324V23.7625H69.7324V24.6865H68.3324V29.3905C68.3324 29.8945 68.5984 30.0625 69.0604 30.0625C69.2844 30.0625 69.5364 30.0065 69.6624 29.9645H69.7044V30.9445C69.4384 31.0005 69.1304 31.0425 68.7944 31.0425C67.8704 31.0425 67.1984 30.6645 67.1984 29.6425V24.6865H66.1484Z" fill="#1A1A1A"/>
<path d="M59.0898 33.3242V23.7622H60.2238V24.7842H60.2518C60.7978 24.0422 61.5258 23.5942 62.5758 23.5942C64.4098 23.5942 65.6838 24.9942 65.6838 27.4022C65.6838 29.7262 64.4938 31.2102 62.5338 31.2102C61.5538 31.2102 60.8538 30.9162 60.2518 30.1462H60.2238V33.3242H59.0898ZM62.4498 30.2582C63.8358 30.2582 64.5218 29.0542 64.5218 27.4162C64.5218 25.7922 63.8358 24.5602 62.4638 24.5602C60.8818 24.5602 60.1538 25.8482 60.1538 27.4162C60.1538 28.9842 60.7838 30.2582 62.4498 30.2582Z" fill="#1A1A1A"/>
<path d="M47.9727 31.0002V23.7622H49.1067V24.7982H49.1347C49.5827 24.0982 50.3527 23.5942 51.2627 23.5942C52.1447 23.5942 52.8447 24.0422 53.1527 24.8822H53.1807C53.6427 24.0562 54.5107 23.5942 55.3927 23.5942C56.6807 23.5942 57.5907 24.4202 57.5907 25.9182V31.0002H56.4567V25.9742C56.4567 25.0782 55.8547 24.5462 55.1267 24.5462C54.1887 24.5462 53.3487 25.3582 53.3487 26.4922V31.0002H52.2147V25.9742C52.2147 25.0782 51.7107 24.5462 50.9687 24.5462C50.0867 24.5462 49.1067 25.3582 49.1067 26.4922V31.0002H47.9727Z" fill="#1A1A1A"/>
<path d="M43.6016 31.1961C41.3896 31.1961 40.1016 29.4881 40.1016 27.3881C40.1016 25.2881 41.4736 23.5801 43.5316 23.5801C45.7016 23.5801 46.8636 25.2601 46.8636 27.6541H41.2636C41.3476 29.1241 42.1456 30.2441 43.6016 30.2441C44.6516 30.2441 45.3516 29.7401 45.6036 28.7601H46.7096C46.3736 30.3141 45.2396 31.1961 43.6016 31.1961ZM43.5316 24.4761C42.1876 24.4761 41.4596 25.4841 41.2916 26.8001H45.6456C45.5756 25.3581 44.8336 24.4761 43.5316 24.4761Z" fill="#1A1A1A"/>
<path d="M33.2734 31.0002L36.0034 27.2062L33.5954 23.7622H34.9114L36.6334 26.3942H36.6614L38.4534 23.7622H39.6994L37.3194 27.0802L40.1474 31.0002H38.8174L36.6754 27.8922H36.6474L34.5474 31.0002H33.2734Z" fill="#1A1A1A"/>
<path d="M29.9453 31.1961C27.7333 31.1961 26.4453 29.4881 26.4453 27.3881C26.4453 25.2881 27.8173 23.5801 29.8753 23.5801C32.0453 23.5801 33.2073 25.2601 33.2073 27.6541H27.6073C27.6913 29.1241 28.4893 30.2441 29.9453 30.2441C30.9953 30.2441 31.6953 29.7401 31.9473 28.7601H33.0533C32.7173 30.3141 31.5833 31.1961 29.9453 31.1961ZM29.8753 24.4761C28.5313 24.4761 27.8033 25.4841 27.6353 26.8001H31.9893C31.9193 25.3581 31.1773 24.4761 29.8753 24.4761Z" fill="#1A1A1A"/>
<path d="M70.1223 7.76224V8.71424H70.1503C70.6683 8.02824 71.3963 7.59424 72.4463 7.59424C73.9583 7.59424 74.8823 8.42024 74.8823 9.91824V15.0002H73.7483V10.0162C73.7483 9.07824 73.1323 8.54624 72.1103 8.54624C70.9623 8.54624 70.1223 9.35824 70.1223 10.5482V15.0002H68.9883V7.76224H70.1223Z" fill="#1A1A1A"/>
<path d="M64.3711 15.1961C62.2151 15.1961 60.8711 13.4881 60.8711 11.3881C60.8711 9.28808 62.2151 7.58008 64.3711 7.58008C66.5411 7.58008 67.8571 9.28808 67.8571 11.3881C67.8571 13.4881 66.5411 15.1961 64.3711 15.1961ZM64.3711 14.2441C65.9111 14.2441 66.6951 12.9841 66.6951 11.3881C66.6951 9.79208 65.9111 8.51808 64.3711 8.51808C62.8311 8.51808 62.0331 9.79208 62.0331 11.3881C62.0331 12.9841 62.8311 14.2441 64.3711 14.2441Z" fill="#1A1A1A"/>
<path d="M58.5977 15.0002V7.76223H59.7317V15.0002H58.5977ZM58.5977 6.39023V4.99023H59.7317V6.39023H58.5977Z" fill="#1A1A1A"/>
<path d="M53.8438 8.68647V7.76247H54.8937V5.48047H56.0278V7.76247H57.4277V8.68647H56.0278V13.3905C56.0278 13.8945 56.2937 14.0625 56.7557 14.0625C56.9797 14.0625 57.2317 14.0065 57.3577 13.9645H57.3997V14.9445C57.1337 15.0005 56.8257 15.0425 56.4897 15.0425C55.5657 15.0425 54.8937 14.6645 54.8937 13.6425V8.68647H53.8438Z" fill="#1A1A1A"/>
<path d="M51.625 15.0002V7.76223H52.759V15.0002H51.625ZM51.625 6.39023V4.99023H52.759V6.39023H51.625Z" fill="#1A1A1A"/>
<path d="M50.0906 15.0002H48.9566V14.0062H48.9286C48.4106 14.7062 47.7946 15.1682 46.7446 15.1682C45.2606 15.1682 44.3086 14.2722 44.3086 12.7742V7.76221H45.4426V12.7462C45.4426 13.6842 46.0446 14.2302 47.0666 14.2302C48.2146 14.2302 48.9566 13.3622 48.9566 12.2142V7.76221H50.0906V15.0002Z" fill="#1A1A1A"/>
<path d="M36.4648 6.09623V4.99023H44.3888V6.09623H41.0568V15.0002H39.7968V6.09623H36.4648Z" fill="#1A1A1A"/>
<path d="M263.746 24.6865V23.7625H264.796V21.4805H265.93V23.7625H267.33V24.6865H265.93V29.3905C265.93 29.8945 266.196 30.0625 266.658 30.0625C266.882 30.0625 267.134 30.0065 267.26 29.9645H267.302V30.9445C267.036 31.0005 266.728 31.0425 266.392 31.0425C265.468 31.0425 264.796 30.6645 264.796 29.6425V24.6865H263.746Z" fill="#1A1A1A"/>
<path d="M260.54 23.7622V24.9662H260.568C261.002 24.2662 261.758 23.6782 262.724 23.6782C262.934 23.6782 263.046 23.7062 263.186 23.7622V24.8542H263.144C262.976 24.7982 262.864 24.7842 262.64 24.7842C261.52 24.7842 260.54 25.6242 260.54 26.9822V31.0002H259.406V23.7622H260.54Z" fill="#1A1A1A"/>
<path d="M254.789 31.1961C252.633 31.1961 251.289 29.4881 251.289 27.3881C251.289 25.2881 252.633 23.5801 254.789 23.5801C256.959 23.5801 258.275 25.2881 258.275 27.3881C258.275 29.4881 256.959 31.1961 254.789 31.1961ZM254.789 30.2441C256.329 30.2441 257.113 28.9841 257.113 27.3881C257.113 25.7921 256.329 24.5181 254.789 24.5181C253.249 24.5181 252.451 25.7921 252.451 27.3881C252.451 28.9841 253.249 30.2441 254.789 30.2441Z" fill="#1A1A1A"/>
<path d="M243.973 33.3242V23.7622H245.107V24.7842H245.135C245.681 24.0422 246.409 23.5942 247.459 23.5942C249.293 23.5942 250.567 24.9942 250.567 27.4022C250.567 29.7262 249.377 31.2102 247.417 31.2102C246.437 31.2102 245.737 30.9162 245.135 30.1462H245.107V33.3242H243.973ZM247.333 30.2582C248.719 30.2582 249.405 29.0542 249.405 27.4162C249.405 25.7922 248.719 24.5602 247.347 24.5602C245.765 24.5602 245.037 25.8482 245.037 27.4162C245.037 28.9842 245.667 30.2582 247.333 30.2582Z" fill="#1A1A1A"/>
<path d="M236.246 33.3242V23.7622H237.38V24.7842H237.408C237.954 24.0422 238.682 23.5942 239.732 23.5942C241.566 23.5942 242.84 24.9942 242.84 27.4022C242.84 29.7262 241.65 31.2102 239.69 31.2102C238.71 31.2102 238.01 30.9162 237.408 30.1462H237.38V33.3242H236.246ZM239.606 30.2582C240.992 30.2582 241.678 29.0542 241.678 27.4162C241.678 25.7922 240.992 24.5602 239.62 24.5602C238.038 24.5602 237.31 25.8482 237.31 27.4162C237.31 28.9842 237.94 30.2582 239.606 30.2582Z" fill="#1A1A1A"/>
<path d="M234.716 31.0002H233.582V30.0062H233.554C233.036 30.7062 232.42 31.1682 231.37 31.1682C229.886 31.1682 228.934 30.2722 228.934 28.7742V23.7622H230.068V28.7462C230.068 29.6842 230.67 30.2302 231.692 30.2302C232.84 30.2302 233.582 29.3622 233.582 28.2142V23.7622H234.716V31.0002Z" fill="#1A1A1A"/>
<path d="M225.034 31.2104C223.046 31.2104 221.94 30.2724 221.828 28.6484H222.99C223.144 29.9084 223.984 30.2584 225.062 30.2584C226.252 30.2584 226.742 29.7404 226.742 29.0684C226.742 28.2564 226.182 28.0464 224.852 27.7664C223.424 27.4724 222.15 27.1784 222.15 25.5964C222.15 24.3924 223.074 23.6084 224.754 23.6084C226.546 23.6084 227.428 24.4624 227.596 25.8764H226.434C226.322 24.9244 225.804 24.5044 224.726 24.5044C223.69 24.5044 223.27 24.9664 223.27 25.5404C223.27 26.3244 223.97 26.4784 225.216 26.7304C226.672 27.0244 227.89 27.3464 227.89 29.0124C227.89 30.4684 226.7 31.2104 225.034 31.2104Z" fill="#1A1A1A"/>
<path d="M215.688 31.1961C213.475 31.1961 212.188 29.4881 212.188 27.3881C212.188 25.2881 213.559 23.5801 215.618 23.5801C217.788 23.5801 218.95 25.2601 218.95 27.6541H213.35C213.434 29.1241 214.231 30.2441 215.688 30.2441C216.737 30.2441 217.437 29.7401 217.689 28.7601H218.796C218.46 30.3141 217.325 31.1961 215.688 31.1961ZM215.618 24.4761C214.274 24.4761 213.546 25.4841 213.378 26.8001H217.731C217.661 25.3581 216.92 24.4761 215.618 24.4761Z" fill="#1A1A1A"/>
<path d="M208.227 31.1961C206.015 31.1961 204.727 29.4881 204.727 27.3881C204.727 25.2881 206.099 23.5801 208.157 23.5801C210.327 23.5801 211.489 25.2601 211.489 27.6541H205.889C205.973 29.1241 206.771 30.2441 208.227 30.2441C209.277 30.2441 209.977 29.7401 210.229 28.7601H211.335C210.999 30.3141 209.865 31.1961 208.227 31.1961ZM208.157 24.4761C206.813 24.4761 206.085 25.4841 205.917 26.8001H210.271C210.201 25.3581 209.459 24.4761 208.157 24.4761Z" fill="#1A1A1A"/>
<path d="M200.758 24.6862V23.7622H201.752V22.6003C201.752 21.3543 202.466 20.9062 203.67 20.9062C203.908 20.9062 204.09 20.9203 204.244 20.9342V21.9002C204.048 21.8862 203.992 21.8862 203.88 21.8862C203.152 21.8862 202.886 22.0683 202.886 22.6562V23.7622H204.23V24.6862H202.886V31.0002H201.752V24.6862H200.758Z" fill="#1A1A1A"/>
<path d="M192.728 23.7622V24.7142H192.756C193.274 24.0282 194.002 23.5942 195.052 23.5942C196.564 23.5942 197.488 24.4202 197.488 25.9182V31.0002H196.354V26.0162C196.354 25.0782 195.738 24.5462 194.716 24.5462C193.568 24.5462 192.728 25.3582 192.728 26.5482V31.0002H191.594V23.7622H192.728Z" fill="#1A1A1A"/>
<path d="M186.977 31.1961C184.821 31.1961 183.477 29.4881 183.477 27.3881C183.477 25.2881 184.821 23.5801 186.977 23.5801C189.147 23.5801 190.463 25.2881 190.463 27.3881C190.463 29.4881 189.147 31.1961 186.977 31.1961ZM186.977 30.2441C188.517 30.2441 189.301 28.9841 189.301 27.3881C189.301 25.7921 188.517 24.5181 186.977 24.5181C185.437 24.5181 184.639 25.7921 184.639 27.3881C184.639 28.9841 185.437 30.2441 186.977 30.2441Z" fill="#1A1A1A"/>
<path d="M181.203 31.0002V23.7622H182.337V31.0002H181.203ZM181.203 22.3902V20.9902H182.337V22.3902H181.203Z" fill="#1A1A1A"/>
<path d="M176.449 24.6865V23.7625H177.499V21.4805H178.633V23.7625H180.033V24.6865H178.633V29.3905C178.633 29.8945 178.899 30.0625 179.361 30.0625C179.585 30.0625 179.837 30.0065 179.963 29.9645H180.005V30.9445C179.739 31.0005 179.431 31.0425 179.095 31.0425C178.171 31.0425 177.499 30.6645 177.499 29.6425V24.6865H176.449Z" fill="#1A1A1A"/>
<path d="M175.595 31.0701C174.853 31.0701 174.461 30.7341 174.349 29.9921H174.335C173.901 30.5521 173.159 31.1401 171.927 31.1401C170.555 31.1401 169.477 30.4961 169.477 29.1241C169.477 27.4161 170.821 27.0661 172.627 26.7861C173.649 26.6321 174.363 26.5341 174.363 25.7501C174.363 24.9381 173.775 24.4761 172.739 24.4761C171.563 24.4761 170.975 24.9801 170.933 26.0721H169.841C169.883 24.6721 170.807 23.6221 172.725 23.6221C174.265 23.6221 175.399 24.1961 175.399 25.9181V29.3621C175.399 29.9501 175.539 30.2721 176.169 30.1321H176.211V30.9581C176.071 31.0141 175.889 31.0701 175.595 31.0701ZM172.179 30.2721C173.691 30.2721 174.377 29.1661 174.377 28.3261V27.0941C173.999 27.3321 173.341 27.5141 172.725 27.6261C171.591 27.8361 170.681 28.0321 170.681 29.0961C170.681 30.0621 171.437 30.2721 172.179 30.2721Z" fill="#1A1A1A"/>
<path d="M165.609 31.1961C163.453 31.1961 162.109 29.4881 162.109 27.3881C162.109 25.2881 163.453 23.5801 165.609 23.5801C167.317 23.5801 168.451 24.5601 168.703 26.1001H167.555C167.387 25.1201 166.701 24.5181 165.609 24.5181C164.069 24.5181 163.271 25.7921 163.271 27.3881C163.271 28.9841 164.069 30.2441 165.609 30.2441C166.785 30.2441 167.485 29.5721 167.583 28.4521H168.703C168.549 30.1881 167.415 31.1961 165.609 31.1961Z" fill="#1A1A1A"/>
<path d="M160.981 31.0002H159.847V30.0062H159.819C159.301 30.7062 158.685 31.1682 157.635 31.1682C156.151 31.1682 155.199 30.2722 155.199 28.7742V23.7622H156.333V28.7462C156.333 29.6842 156.935 30.2302 157.957 30.2302C159.105 30.2302 159.847 29.3622 159.847 28.2142V23.7622H160.981V31.0002Z" fill="#1A1A1A"/>
<path d="M150.304 31.2102C148.33 31.2102 147.098 29.7262 147.098 27.4022C147.098 24.9942 148.484 23.5942 150.276 23.5942C151.298 23.5942 152.082 24.0982 152.544 24.7842H152.572V20.9902H153.706V31.0002H152.572V30.1182H152.544C151.998 30.8182 151.326 31.2102 150.304 31.2102ZM150.346 30.2582C151.956 30.2582 152.642 29.0542 152.642 27.4162C152.642 25.7362 151.83 24.5602 150.332 24.5602C148.96 24.5602 148.26 25.7922 148.26 27.4162C148.26 29.0542 148.96 30.2582 150.346 30.2582Z" fill="#1A1A1A"/>
<path d="M143.133 31.1961C140.921 31.1961 139.633 29.4881 139.633 27.3881C139.633 25.2881 141.005 23.5801 143.063 23.5801C145.233 23.5801 146.395 25.2601 146.395 27.6541H140.795C140.879 29.1241 141.677 30.2441 143.133 30.2441C144.183 30.2441 144.883 29.7401 145.135 28.7601H146.241C145.905 30.3141 144.771 31.1961 143.133 31.1961ZM143.063 24.4761C141.719 24.4761 140.991 25.4841 140.823 26.8001H145.177C145.107 25.3581 144.365 24.4761 143.063 24.4761Z" fill="#1A1A1A"/>
<path d="M248.426 15.1961C246.214 15.1961 244.926 13.4881 244.926 11.3881C244.926 9.28808 246.298 7.58008 248.356 7.58008C250.526 7.58008 251.688 9.26008 251.688 11.6541H246.088C246.172 13.1241 246.97 14.2441 248.426 14.2441C249.476 14.2441 250.176 13.7401 250.428 12.7601H251.534C251.198 14.3141 250.064 15.1961 248.426 15.1961ZM248.356 8.47608C247.012 8.47608 246.284 9.48408 246.116 10.8001H250.47C250.4 9.35808 249.658 8.47608 248.356 8.47608Z" fill="#1A1A1A"/>
<path d="M240.614 17.4082C238.738 17.4082 237.674 16.6522 237.548 15.4062H238.598C238.71 16.2042 239.466 16.5122 240.586 16.5122C241.916 16.5122 242.658 15.9102 242.658 14.6502V13.6282H242.63C242.098 14.3142 241.524 14.7482 240.488 14.7482C238.612 14.7482 237.324 13.2502 237.324 11.1642C237.324 8.91024 238.738 7.59424 240.418 7.59424C241.468 7.59424 242.14 8.00024 242.63 8.68624H242.658V7.76224H243.792V14.6082C243.792 16.5122 242.532 17.4082 240.614 17.4082ZM240.544 13.7962C242.21 13.7962 242.742 12.6342 242.742 11.1082C242.742 9.52624 242.07 8.54624 240.53 8.54624C239.172 8.54624 238.486 9.61024 238.486 11.1782C238.486 12.7602 239.2 13.7962 240.544 13.7962Z" fill="#1A1A1A"/>
<path d="M236.278 15.0701C235.536 15.0701 235.144 14.7341 235.032 13.9921H235.018C234.584 14.5521 233.842 15.1401 232.61 15.1401C231.238 15.1401 230.16 14.4961 230.16 13.1241C230.16 11.4161 231.504 11.0661 233.31 10.7861C234.332 10.6321 235.046 10.5341 235.046 9.75007C235.046 8.93807 234.458 8.47607 233.422 8.47607C232.246 8.47607 231.658 8.98007 231.616 10.0721H230.524C230.566 8.67207 231.49 7.62207 233.408 7.62207C234.948 7.62207 236.082 8.19607 236.082 9.91807V13.3621C236.082 13.9501 236.222 14.2721 236.852 14.1321H236.894V14.9581C236.754 15.0141 236.572 15.0701 236.278 15.0701ZM232.862 14.2721C234.374 14.2721 235.06 13.1661 235.06 12.3261V11.0941C234.682 11.3321 234.024 11.5141 233.408 11.6261C232.274 11.8361 231.364 12.0321 231.364 13.0961C231.364 14.0621 232.12 14.2721 232.862 14.2721Z" fill="#1A1A1A"/>
<path d="M229.059 15.0002H227.925V14.0062H227.897C227.379 14.7062 226.763 15.1682 225.713 15.1682C224.229 15.1682 223.277 14.2722 223.277 12.7742V7.76221H224.411V12.7462C224.411 13.6842 225.013 14.2302 226.035 14.2302C227.183 14.2302 227.925 13.3622 227.925 12.2142V7.76221H229.059V15.0002Z" fill="#1A1A1A"/>
<path d="M218.603 17.4082C216.727 17.4082 215.662 16.6522 215.536 15.4062H216.587C216.699 16.2042 217.455 16.5122 218.575 16.5122C219.905 16.5122 220.646 15.9102 220.646 14.6502V13.6282H220.618C220.086 14.3142 219.513 14.7482 218.477 14.7482C216.601 14.7482 215.312 13.2502 215.312 11.1642C215.312 8.91024 216.727 7.59424 218.407 7.59424C219.457 7.59424 220.128 8.00024 220.618 8.68624H220.646V7.76224H221.781V14.6082C221.781 16.5122 220.521 17.4082 218.603 17.4082ZM218.533 13.7962C220.199 13.7962 220.73 12.6342 220.73 11.1082C220.73 9.52624 220.059 8.54624 218.519 8.54624C217.161 8.54624 216.475 9.61024 216.475 11.1782C216.475 12.7602 217.189 13.7962 218.533 13.7962Z" fill="#1A1A1A"/>
<path d="M209.458 7.76224V8.71424H209.486C210.004 8.02824 210.732 7.59424 211.782 7.59424C213.294 7.59424 214.218 8.42024 214.218 9.91824V15.0002H213.084V10.0162C213.084 9.07824 212.468 8.54624 211.446 8.54624C210.298 8.54624 209.458 9.35824 209.458 10.5482V15.0002H208.324V7.76224H209.458Z" fill="#1A1A1A"/>
<path d="M206.872 15.0701C206.13 15.0701 205.738 14.7341 205.626 13.9921H205.612C205.178 14.5521 204.436 15.1401 203.204 15.1401C201.832 15.1401 200.754 14.4961 200.754 13.1241C200.754 11.4161 202.098 11.0661 203.904 10.7861C204.926 10.6321 205.64 10.5341 205.64 9.75007C205.64 8.93807 205.052 8.47607 204.016 8.47607C202.84 8.47607 202.252 8.98007 202.21 10.0721H201.118C201.16 8.67207 202.084 7.62207 204.002 7.62207C205.542 7.62207 206.676 8.19607 206.676 9.91807V13.3621C206.676 13.9501 206.816 14.2721 207.446 14.1321H207.488V14.9581C207.348 15.0141 207.166 15.0701 206.872 15.0701ZM203.456 14.2721C204.968 14.2721 205.654 13.1661 205.654 12.3261V11.0941C205.276 11.3321 204.618 11.5141 204.002 11.6261C202.868 11.8361 201.958 12.0321 201.958 13.0961C201.958 14.0621 202.714 14.2721 203.456 14.2721Z" fill="#1A1A1A"/>
<path d="M198.465 15.0002V4.99023H199.599V15.0002H198.465Z" fill="#1A1A1A"/>
<path d="M189.935 7.76224V8.71424H189.963C190.481 8.02824 191.209 7.59424 192.259 7.59424C193.771 7.59424 194.695 8.42024 194.695 9.91824V15.0002H193.561V10.0162C193.561 9.07824 192.945 8.54624 191.923 8.54624C190.775 8.54624 189.935 9.35824 189.935 10.5482V15.0002H188.801V7.76224H189.935Z" fill="#1A1A1A"/>
<path d="M187.348 15.0701C186.606 15.0701 186.214 14.7341 186.102 13.9921H186.088C185.654 14.5521 184.912 15.1401 183.68 15.1401C182.308 15.1401 181.23 14.4961 181.23 13.1241C181.23 11.4161 182.574 11.0661 184.38 10.7861C185.402 10.6321 186.116 10.5341 186.116 9.75007C186.116 8.93807 185.528 8.47607 184.492 8.47607C183.316 8.47607 182.728 8.98007 182.686 10.0721H181.594C181.636 8.67207 182.56 7.62207 184.478 7.62207C186.018 7.62207 187.152 8.19607 187.152 9.91807V13.3621C187.152 13.9501 187.292 14.2721 187.922 14.1321H187.964V14.9581C187.824 15.0141 187.642 15.0701 187.348 15.0701ZM183.932 14.2721C185.444 14.2721 186.13 13.1661 186.13 12.3261V11.0941C185.752 11.3321 185.094 11.5141 184.478 11.6261C183.344 11.8361 182.434 12.0321 182.434 13.0961C182.434 14.0621 183.19 14.2721 183.932 14.2721Z" fill="#1A1A1A"/>
<path d="M177.293 15.1961C175.081 15.1961 173.793 13.4881 173.793 11.3881C173.793 9.28808 175.165 7.58008 177.223 7.58008C179.393 7.58008 180.555 9.26008 180.555 11.6541H174.955C175.039 13.1241 175.837 14.2441 177.293 14.2441C178.343 14.2441 179.043 13.7401 179.295 12.7601H180.401C180.065 14.3141 178.931 15.1961 177.293 15.1961ZM177.223 8.47608C175.879 8.47608 175.151 9.48408 174.983 10.8001H179.337C179.267 9.35808 178.525 8.47608 177.223 8.47608Z" fill="#1A1A1A"/>
<path d="M170.806 7.76222V8.96622H170.834C171.268 8.26622 172.024 7.67822 172.99 7.67822C173.2 7.67822 173.312 7.70622 173.452 7.76222V8.85422H173.41C173.242 8.79822 173.13 8.78422 172.906 8.78422C171.786 8.78422 170.806 9.62422 170.806 10.9822V15.0002H169.672V7.76222H170.806Z" fill="#1A1A1A"/>
<path d="M165.055 15.1961C162.899 15.1961 161.555 13.4881 161.555 11.3881C161.555 9.28808 162.899 7.58008 165.055 7.58008C167.225 7.58008 168.541 9.28808 168.541 11.3881C168.541 13.4881 167.225 15.1961 165.055 15.1961ZM165.055 14.2441C166.595 14.2441 167.379 12.9841 167.379 11.3881C167.379 9.79208 166.595 8.51808 165.055 8.51808C163.515 8.51808 162.717 9.79208 162.717 11.3881C162.717 12.9841 163.515 14.2441 165.055 14.2441Z" fill="#1A1A1A"/>
<path d="M153.68 15.0002V4.99023H154.94V9.96023L159.868 4.99023H161.45L157.404 8.99423L161.786 15.0002H160.316L156.55 9.84823L154.94 11.4582V15.0002H153.68Z" fill="#1A1A1A"/>
<path d="M81.1211 72.2641V71.3401H82.1711V69.0581H83.3051V71.3401H84.7051V72.2641H83.3051V76.9681C83.3051 77.4721 83.5711 77.6401 84.0331 77.6401C84.2571 77.6401 84.5091 77.5841 84.6351 77.5421H84.6771V78.5221C84.4111 78.5781 84.1031 78.6201 83.7671 78.6201C82.8431 78.6201 82.1711 78.2421 82.1711 77.2201V72.2641H81.1211Z" fill="#1A1A1A"/>
<path d="M77.9192 71.3399V72.5439H77.9472C78.3812 71.8439 79.1372 71.2559 80.1032 71.2559C80.3132 71.2559 80.4252 71.2839 80.5652 71.3399V72.4319H80.5232C80.3552 72.3759 80.2432 72.3619 80.0192 72.3619C78.8992 72.3619 77.9192 73.2019 77.9192 74.5599V78.5779H76.7852V71.3399H77.9192Z" fill="#1A1A1A"/>
<path d="M72.168 78.7737C70.012 78.7737 68.668 77.0657 68.668 74.9657C68.668 72.8657 70.012 71.1577 72.168 71.1577C74.338 71.1577 75.654 72.8657 75.654 74.9657C75.654 77.0657 74.338 78.7737 72.168 78.7737ZM72.168 77.8217C73.708 77.8217 74.492 76.5617 74.492 74.9657C74.492 73.3697 73.708 72.0957 72.168 72.0957C70.628 72.0957 69.83 73.3697 69.83 74.9657C69.83 76.5617 70.628 77.8217 72.168 77.8217Z" fill="#1A1A1A"/>
<path d="M61.3477 80.9019V71.3399H62.4817V72.3619H62.5097C63.0557 71.6199 63.7837 71.1719 64.8337 71.1719C66.6677 71.1719 67.9417 72.5719 67.9417 74.9799C67.9417 77.3039 66.7517 78.7879 64.7917 78.7879C63.8117 78.7879 63.1117 78.4939 62.5097 77.7239H62.4817V80.9019H61.3477ZM64.7077 77.8359C66.0937 77.8359 66.7797 76.6319 66.7797 74.9939C66.7797 73.3699 66.0937 72.1379 64.7217 72.1379C63.1397 72.1379 62.4117 73.4259 62.4117 74.9939C62.4117 76.5619 63.0417 77.8359 64.7077 77.8359Z" fill="#1A1A1A"/>
<path d="M53.625 80.9019V71.3399H54.759V72.3619H54.787C55.333 71.6199 56.061 71.1719 57.111 71.1719C58.945 71.1719 60.219 72.5719 60.219 74.9799C60.219 77.3039 59.029 78.7879 57.069 78.7879C56.089 78.7879 55.389 78.4939 54.787 77.7239H54.759V80.9019H53.625ZM56.985 77.8359C58.371 77.8359 59.057 76.6319 59.057 74.9939C59.057 73.3699 58.371 72.1379 56.999 72.1379C55.417 72.1379 54.689 73.4259 54.689 74.9939C54.689 76.5619 55.319 77.8359 56.985 77.8359Z" fill="#1A1A1A"/>
<path d="M52.0906 78.5778H50.9566V77.5838H50.9286C50.4106 78.2838 49.7946 78.7458 48.7446 78.7458C47.2606 78.7458 46.3086 77.8498 46.3086 76.3518V71.3398H47.4426V76.3238C47.4426 77.2618 48.0446 77.8078 49.0666 77.8078C50.2146 77.8078 50.9566 76.9398 50.9566 75.7918V71.3398H52.0906V78.5778Z" fill="#1A1A1A"/>
<path d="M42.4091 78.788C40.4211 78.788 39.3151 77.85 39.2031 76.226H40.3651C40.5191 77.486 41.3591 77.836 42.4371 77.836C43.6271 77.836 44.1171 77.318 44.1171 76.646C44.1171 75.834 43.5571 75.624 42.2271 75.344C40.7991 75.05 39.5251 74.756 39.5251 73.174C39.5251 71.97 40.4491 71.186 42.1291 71.186C43.9211 71.186 44.8031 72.04 44.9711 73.454H43.8091C43.6971 72.502 43.1791 72.082 42.1011 72.082C41.0651 72.082 40.6451 72.544 40.6451 73.118C40.6451 73.902 41.3451 74.056 42.5911 74.308C44.0471 74.602 45.2651 74.924 45.2651 76.59C45.2651 78.046 44.0751 78.788 42.4091 78.788Z" fill="#1A1A1A"/>
<path d="M112.054 62.788C110.066 62.788 108.96 61.85 108.848 60.226H110.01C110.164 61.486 111.004 61.836 112.082 61.836C113.272 61.836 113.762 61.318 113.762 60.646C113.762 59.834 113.202 59.624 111.872 59.344C110.444 59.05 109.17 58.756 109.17 57.174C109.17 55.97 110.094 55.186 111.774 55.186C113.566 55.186 114.448 56.04 114.616 57.454H113.454C113.342 56.502 112.824 56.082 111.746 56.082C110.71 56.082 110.29 56.544 110.29 57.118C110.29 57.902 110.99 58.056 112.236 58.308C113.692 58.602 114.91 58.924 114.91 60.59C114.91 62.046 113.72 62.788 112.054 62.788Z" fill="#1A1A1A"/>
<path d="M104.941 62.7737C102.729 62.7737 101.441 61.0657 101.441 58.9657C101.441 56.8657 102.813 55.1577 104.871 55.1577C107.041 55.1577 108.203 56.8377 108.203 59.2317H102.603C102.687 60.7017 103.485 61.8217 104.941 61.8217C105.991 61.8217 106.691 61.3177 106.943 60.3377H108.049C107.713 61.8917 106.579 62.7737 104.941 62.7737ZM104.871 56.0537C103.527 56.0537 102.799 57.0617 102.631 58.3777H106.985C106.915 56.9357 106.173 56.0537 104.871 56.0537Z" fill="#1A1A1A"/>
<path d="M98.4543 55.3399V56.5439H98.4823C98.9163 55.8439 99.6723 55.2559 100.638 55.2559C100.848 55.2559 100.96 55.2839 101.1 55.3399V56.4319H101.058C100.89 56.3759 100.778 56.3619 100.554 56.3619C99.4343 56.3619 98.4543 57.2019 98.4543 58.5599V62.5779H97.3203V55.3399H98.4543Z" fill="#1A1A1A"/>
<path d="M95.868 62.6477C95.126 62.6477 94.734 62.3117 94.622 61.5697H94.608C94.174 62.1297 93.432 62.7177 92.2 62.7177C90.828 62.7177 89.75 62.0737 89.75 60.7017C89.75 58.9937 91.094 58.6437 92.9 58.3637C93.922 58.2097 94.636 58.1117 94.636 57.3277C94.636 56.5157 94.048 56.0537 93.012 56.0537C91.836 56.0537 91.248 56.5577 91.206 57.6497H90.114C90.156 56.2497 91.08 55.1997 92.998 55.1997C94.538 55.1997 95.672 55.7737 95.672 57.4957V60.9397C95.672 61.5277 95.812 61.8497 96.442 61.7097H96.484V62.5357C96.344 62.5917 96.162 62.6477 95.868 62.6477ZM92.452 61.8497C93.964 61.8497 94.65 60.7437 94.65 59.9037V58.6717C94.272 58.9097 93.614 59.0917 92.998 59.2037C91.864 59.4137 90.954 59.6097 90.954 60.6737C90.954 61.6397 91.71 61.8497 92.452 61.8497Z" fill="#1A1A1A"/>
<path d="M85.8125 56.2639V55.3399H86.8065V54.1779C86.8065 52.9319 87.5205 52.4839 88.7245 52.4839C88.9625 52.4839 89.1445 52.4979 89.2985 52.5119V53.4779C89.1025 53.4639 89.0465 53.4639 88.9345 53.4639C88.2065 53.4639 87.9405 53.6459 87.9405 54.2339V55.3399H89.2845V56.2639H87.9405V62.5779H86.8065V56.2639H85.8125Z" fill="#1A1A1A"/>
<path d="M82.6067 55.3399V56.5439H82.6347C83.0687 55.8439 83.8247 55.2559 84.7907 55.2559C85.0007 55.2559 85.1127 55.2839 85.2527 55.3399V56.4319H85.2107C85.0427 56.3759 84.9307 56.3619 84.7067 56.3619C83.5867 56.3619 82.6067 57.2019 82.6067 58.5599V62.5779H81.4727V55.3399H82.6067Z" fill="#1A1A1A"/>
<path d="M78.793 62.5779V55.3399H79.927V62.5779H78.793ZM78.793 53.9679V52.5679H79.927V53.9679H78.793Z" fill="#1A1A1A"/>
<path d="M77.3407 62.6477C76.5987 62.6477 76.2067 62.3117 76.0947 61.5697H76.0807C75.6467 62.1297 74.9047 62.7177 73.6727 62.7177C72.3007 62.7177 71.2227 62.0737 71.2227 60.7017C71.2227 58.9937 72.5667 58.6437 74.3727 58.3637C75.3947 58.2097 76.1087 58.1117 76.1087 57.3277C76.1087 56.5157 75.5207 56.0537 74.4847 56.0537C73.3087 56.0537 72.7207 56.5577 72.6787 57.6497H71.5867C71.6287 56.2497 72.5527 55.1997 74.4707 55.1997C76.0107 55.1997 77.1447 55.7737 77.1447 57.4957V60.9397C77.1447 61.5277 77.2847 61.8497 77.9147 61.7097H77.9567V62.5357C77.8167 62.5917 77.6347 62.6477 77.3407 62.6477ZM73.9247 61.8497C75.4367 61.8497 76.1227 60.7437 76.1227 59.9037V58.6717C75.7447 58.9097 75.0867 59.0917 74.4707 59.2037C73.3367 59.4137 72.4267 59.6097 72.4267 60.6737C72.4267 61.6397 73.1827 61.8497 73.9247 61.8497Z" fill="#1A1A1A"/>
<path d="M61.7031 64.9019V55.3399H62.8371V56.3619H62.8651C63.4111 55.6199 64.1391 55.1719 65.1891 55.1719C67.0231 55.1719 68.2971 56.5719 68.2971 58.9799C68.2971 61.3039 67.1071 62.7879 65.1471 62.7879C64.1671 62.7879 63.4671 62.4939 62.8651 61.7239H62.8371V64.9019H61.7031ZM65.0631 61.8359C66.4491 61.8359 67.1351 60.6319 67.1351 58.9939C67.1351 57.3699 66.4491 56.1379 65.0771 56.1379C63.4951 56.1379 62.7671 57.4259 62.7671 58.9939C62.7671 60.5619 63.3971 61.8359 65.0631 61.8359Z" fill="#1A1A1A"/>
<path d="M59.0234 62.5779V55.3399H60.1574V62.5779H59.0234ZM59.0234 53.9679V52.5679H60.1574V53.9679H59.0234Z" fill="#1A1A1A"/>
<path d="M55.3606 55.3399V56.5439H55.3886C55.8226 55.8439 56.5786 55.2559 57.5446 55.2559C57.7546 55.2559 57.8666 55.2839 58.0066 55.3399V56.4319H57.9646C57.7966 56.3759 57.6846 56.3619 57.4606 56.3619C56.3406 56.3619 55.3606 57.2019 55.3606 58.5599V62.5779H54.2266V55.3399H55.3606Z" fill="#1A1A1A"/>
<path d="M49.4727 56.2641V55.3401H50.5227V53.0581H51.6567V55.3401H53.0567V56.2641H51.6567V60.9681C51.6567 61.4721 51.9227 61.6401 52.3847 61.6401C52.6087 61.6401 52.8607 61.5841 52.9867 61.5421H53.0287V62.5221C52.7627 62.5781 52.4547 62.6201 52.1187 62.6201C51.1947 62.6201 50.5227 62.2421 50.5227 61.2201V56.2641H49.4727Z" fill="#1A1A1A"/>
<path d="M44.8828 59.2318V58.1958H48.6348V59.2318H44.8828Z" fill="#1A1A1A"/>
<path d="M40.1826 62.7879C38.2086 62.7879 36.9766 61.3039 36.9766 58.9799C36.9766 56.5719 38.3626 55.1719 40.1546 55.1719C41.1766 55.1719 41.9606 55.6759 42.4226 56.3619H42.4506V52.5679H43.5846V62.5779H42.4506V61.6959H42.4226C41.8766 62.3959 41.2046 62.7879 40.1826 62.7879ZM40.2246 61.8359C41.8346 61.8359 42.5206 60.6319 42.5206 58.9939C42.5206 57.3139 41.7086 56.1379 40.2106 56.1379C38.8386 56.1379 38.1386 57.3699 38.1386 58.9939C38.1386 60.6319 38.8386 61.8359 40.2246 61.8359Z" fill="#1A1A1A"/>
<path d="M31.1184 55.3399V56.2919H31.1464C31.6644 55.6059 32.3924 55.1719 33.4424 55.1719C34.9544 55.1719 35.8784 55.9979 35.8784 57.4959V62.5779H34.7444V57.5939C34.7444 56.6559 34.1284 56.1239 33.1064 56.1239C31.9584 56.1239 31.1184 56.9359 31.1184 58.1259V62.5779H29.9844V55.3399H31.1184Z" fill="#1A1A1A"/>
<path d="M28.4539 62.5778H27.3199V61.5838H27.2919C26.7739 62.2838 26.1579 62.7458 25.1079 62.7458C23.6239 62.7458 22.6719 61.8498 22.6719 60.3518V55.3398H23.8059V60.3238C23.8059 61.2618 24.4079 61.8078 25.4299 61.8078C26.5779 61.8078 27.3199 60.9398 27.3199 59.7918V55.3398H28.4539V62.5778Z" fill="#1A1A1A"/>
<path d="M18.0977 62.7737C15.9417 62.7737 14.5977 61.0657 14.5977 58.9657C14.5977 56.8657 15.9417 55.1577 18.0977 55.1577C20.2677 55.1577 21.5837 56.8657 21.5837 58.9657C21.5837 61.0657 20.2677 62.7737 18.0977 62.7737ZM18.0977 61.8217C19.6377 61.8217 20.4217 60.5617 20.4217 58.9657C20.4217 57.3697 19.6377 56.0957 18.0977 56.0957C16.5577 56.0957 15.7597 57.3697 15.7597 58.9657C15.7597 60.5617 16.5577 61.8217 18.0977 61.8217Z" fill="#1A1A1A"/>
<path d="M6.07812 62.5779V52.5679H10.7541C12.5181 52.5679 13.7081 53.6739 13.7081 55.3119C13.7081 56.5299 13.1761 57.3979 11.9721 57.7899V57.8319C12.9941 58.1959 13.3161 58.8959 13.4141 60.3799C13.5261 61.9899 13.6941 62.3959 13.8761 62.5219V62.5779H12.5181C12.3081 62.3959 12.2661 62.0179 12.1541 60.3379C12.0561 58.8679 11.4681 58.3499 10.1241 58.3499H7.33812V62.5779H6.07812ZM7.33812 53.6599V57.3279H10.3061C11.7061 57.3279 12.4061 56.6279 12.4061 55.4939C12.4061 54.2759 11.8461 53.6599 10.3761 53.6599H7.33812Z" fill="#1A1A1A"/>
<path d="M222.621 72.2646V71.3406H223.671V69.0586H224.805V71.3406H226.205V72.2646H224.805V76.9686C224.805 77.4726 225.071 77.6406 225.533 77.6406C225.757 77.6406 226.009 77.5846 226.135 77.5426H226.177V78.5226C225.911 78.5786 225.603 78.6206 225.267 78.6206C224.343 78.6206 223.671 78.2426 223.671 77.2206V72.2646H222.621Z" fill="#1A1A1A"/>
<path d="M219.419 71.3403V72.5443H219.447C219.881 71.8443 220.637 71.2563 221.603 71.2563C221.813 71.2563 221.925 71.2843 222.065 71.3403V72.4323H222.023C221.855 72.3763 221.743 72.3623 221.519 72.3623C220.399 72.3623 219.419 73.2023 219.419 74.5603V78.5783H218.285V71.3403H219.419Z" fill="#1A1A1A"/>
<path d="M213.668 78.7742C211.512 78.7742 210.168 77.0662 210.168 74.9662C210.168 72.8662 211.512 71.1582 213.668 71.1582C215.838 71.1582 217.154 72.8662 217.154 74.9662C217.154 77.0662 215.838 78.7742 213.668 78.7742ZM213.668 77.8222C215.208 77.8222 215.992 76.5622 215.992 74.9662C215.992 73.3702 215.208 72.0962 213.668 72.0962C212.128 72.0962 211.33 73.3702 211.33 74.9662C211.33 76.5622 212.128 77.8222 213.668 77.8222Z" fill="#1A1A1A"/>
<path d="M202.848 80.9024V71.3404H203.982V72.3624H204.01C204.556 71.6204 205.284 71.1724 206.334 71.1724C208.168 71.1724 209.442 72.5724 209.442 74.9804C209.442 77.3044 208.252 78.7884 206.292 78.7884C205.312 78.7884 204.612 78.4944 204.01 77.7244H203.982V80.9024H202.848ZM206.208 77.8364C207.594 77.8364 208.28 76.6324 208.28 74.9944C208.28 73.3704 207.594 72.1384 206.222 72.1384C204.64 72.1384 203.912 73.4264 203.912 74.9944C203.912 76.5624 204.542 77.8364 206.208 77.8364Z" fill="#1A1A1A"/>
<path d="M195.125 80.9024V71.3404H196.259V72.3624H196.287C196.833 71.6204 197.561 71.1724 198.611 71.1724C200.445 71.1724 201.719 72.5724 201.719 74.9804C201.719 77.3044 200.529 78.7884 198.569 78.7884C197.589 78.7884 196.889 78.4944 196.287 77.7244H196.259V80.9024H195.125ZM198.485 77.8364C199.871 77.8364 200.557 76.6324 200.557 74.9944C200.557 73.3704 199.871 72.1384 198.499 72.1384C196.917 72.1384 196.189 73.4264 196.189 74.9944C196.189 76.5624 196.819 77.8364 198.485 77.8364Z" fill="#1A1A1A"/>
<path d="M193.591 78.5783H192.457V77.5843H192.429C191.911 78.2843 191.295 78.7463 190.245 78.7463C188.761 78.7463 187.809 77.8503 187.809 76.3523V71.3403H188.943V76.3243C188.943 77.2623 189.545 77.8083 190.567 77.8083C191.715 77.8083 192.457 76.9403 192.457 75.7923V71.3403H193.591V78.5783Z" fill="#1A1A1A"/>
<path d="M183.909 78.7885C181.921 78.7885 180.815 77.8505 180.703 76.2265H181.865C182.019 77.4865 182.859 77.8365 183.937 77.8365C185.127 77.8365 185.617 77.3185 185.617 76.6465C185.617 75.8345 185.057 75.6245 183.727 75.3445C182.299 75.0505 181.025 74.7565 181.025 73.1745C181.025 71.9705 181.949 71.1865 183.629 71.1865C185.421 71.1865 186.303 72.0405 186.471 73.4545H185.309C185.197 72.5025 184.679 72.0825 183.601 72.0825C182.565 72.0825 182.145 72.5445 182.145 73.1185C182.145 73.9025 182.845 74.0565 184.091 74.3085C185.547 74.6025 186.765 74.9245 186.765 76.5905C186.765 78.0465 185.575 78.7885 183.909 78.7885Z" fill="#1A1A1A"/>
<path d="M245.761 62.7885C243.773 62.7885 242.667 61.8505 242.555 60.2265H243.717C243.871 61.4865 244.711 61.8365 245.789 61.8365C246.979 61.8365 247.469 61.3185 247.469 60.6465C247.469 59.8345 246.909 59.6245 245.579 59.3445C244.151 59.0505 242.877 58.7565 242.877 57.1745C242.877 55.9705 243.801 55.1865 245.481 55.1865C247.273 55.1865 248.155 56.0405 248.323 57.4545H247.161C247.049 56.5025 246.531 56.0825 245.453 56.0825C244.417 56.0825 243.997 56.5445 243.997 57.1185C243.997 57.9025 244.697 58.0565 245.943 58.3085C247.399 58.6025 248.617 58.9245 248.617 60.5905C248.617 62.0465 247.427 62.7885 245.761 62.7885Z" fill="#1A1A1A"/>
<path d="M238.648 62.7742C236.436 62.7742 235.148 61.0662 235.148 58.9662C235.148 56.8662 236.52 55.1582 238.578 55.1582C240.748 55.1582 241.91 56.8382 241.91 59.2322H236.31C236.394 60.7022 237.192 61.8222 238.648 61.8222C239.698 61.8222 240.398 61.3182 240.65 60.3382H241.756C241.42 61.8922 240.286 62.7742 238.648 62.7742ZM238.578 56.0542C237.234 56.0542 236.506 57.0622 236.338 58.3782H240.692C240.622 56.9362 239.88 56.0542 238.578 56.0542Z" fill="#1A1A1A"/>
<path d="M231.476 62.7885C229.488 62.7885 228.382 61.8505 228.27 60.2265H229.432C229.586 61.4865 230.426 61.8365 231.504 61.8365C232.694 61.8365 233.184 61.3185 233.184 60.6465C233.184 59.8345 232.624 59.6245 231.294 59.3445C229.866 59.0505 228.592 58.7565 228.592 57.1745C228.592 55.9705 229.516 55.1865 231.196 55.1865C232.988 55.1865 233.87 56.0405 234.038 57.4545H232.876C232.764 56.5025 232.246 56.0825 231.168 56.0825C230.132 56.0825 229.712 56.5445 229.712 57.1185C229.712 57.9025 230.412 58.0565 231.658 58.3085C233.114 58.6025 234.332 58.9245 234.332 60.5905C234.332 62.0465 233.142 62.7885 231.476 62.7885Z" fill="#1A1A1A"/>
<path d="M222.466 55.3404V56.2924H222.494C223.012 55.6064 223.74 55.1724 224.79 55.1724C226.302 55.1724 227.226 55.9984 227.226 57.4964V62.5784H226.092V57.5944C226.092 56.6564 225.476 56.1244 224.454 56.1244C223.306 56.1244 222.466 56.9364 222.466 58.1264V62.5784H221.332V55.3404H222.466Z" fill="#1A1A1A"/>
<path d="M216.965 62.7742C214.753 62.7742 213.465 61.0662 213.465 58.9662C213.465 56.8662 214.837 55.1582 216.895 55.1582C219.065 55.1582 220.227 56.8382 220.227 59.2322H214.627C214.711 60.7022 215.509 61.8222 216.965 61.8222C218.015 61.8222 218.715 61.3182 218.967 60.3382H220.073C219.737 61.8922 218.603 62.7742 216.965 62.7742ZM216.895 56.0542C215.551 56.0542 214.823 57.0622 214.655 58.3782H219.009C218.939 56.9362 218.197 56.0542 216.895 56.0542Z" fill="#1A1A1A"/>
<path d="M206.145 64.9024V55.3404H207.279V56.3624H207.307C207.853 55.6204 208.581 55.1724 209.631 55.1724C211.465 55.1724 212.739 56.5724 212.739 58.9804C212.739 61.3044 211.549 62.7884 209.589 62.7884C208.609 62.7884 207.909 62.4944 207.307 61.7244H207.279V64.9024H206.145ZM209.505 61.8364C210.891 61.8364 211.577 60.6324 211.577 58.9944C211.577 57.3704 210.891 56.1384 209.519 56.1384C207.937 56.1384 207.209 57.4264 207.209 58.9944C207.209 60.5624 207.839 61.8364 209.505 61.8364Z" fill="#1A1A1A"/>
<path d="M198.418 62.5783L201.148 58.7843L198.74 55.3403H200.056L201.778 57.9723H201.806L203.598 55.3403H204.844L202.464 58.6583L205.292 62.5783H203.962L201.82 59.4703H201.792L199.692 62.5783H198.418Z" fill="#1A1A1A"/>
<path d="M195.09 62.7742C192.878 62.7742 191.59 61.0662 191.59 58.9662C191.59 56.8662 192.962 55.1582 195.02 55.1582C197.19 55.1582 198.352 56.8382 198.352 59.2322H192.752C192.836 60.7022 193.634 61.8222 195.09 61.8222C196.14 61.8222 196.84 61.3182 197.092 60.3382H198.198C197.862 61.8922 196.728 62.7742 195.09 62.7742ZM195.02 56.0542C193.676 56.0542 192.948 57.0622 192.78 58.3782H197.134C197.064 56.9362 196.322 56.0542 195.02 56.0542Z" fill="#1A1A1A"/>
<path d="M185.048 64.9864C183.172 64.9864 182.108 64.2304 181.982 62.9844H183.032C183.144 63.7824 183.9 64.0904 185.02 64.0904C186.35 64.0904 187.092 63.4884 187.092 62.2284V61.2064H187.064C186.532 61.8924 185.958 62.3264 184.922 62.3264C183.046 62.3264 181.758 60.8284 181.758 58.7424C181.758 56.4884 183.172 55.1724 184.852 55.1724C185.902 55.1724 186.574 55.5784 187.064 56.2644H187.092V55.3404H188.226V62.1864C188.226 64.0904 186.966 64.9864 185.048 64.9864ZM184.978 61.3744C186.644 61.3744 187.176 60.2124 187.176 58.6864C187.176 57.1044 186.504 56.1244 184.964 56.1244C183.606 56.1244 182.92 57.1884 182.92 58.7564C182.92 60.3384 183.634 61.3744 184.978 61.3744Z" fill="#1A1A1A"/>
<path d="M175.9 55.3404V56.2924H175.928C176.446 55.6064 177.174 55.1724 178.224 55.1724C179.736 55.1724 180.66 55.9984 180.66 57.4964V62.5784H179.526V57.5944C179.526 56.6564 178.91 56.1244 177.888 56.1244C176.74 56.1244 175.9 56.9364 175.9 58.1264V62.5784H174.766V55.3404H175.9Z" fill="#1A1A1A"/>
<path d="M172.086 62.5784V55.3404H173.22V62.5784H172.086ZM172.086 53.9684V52.5684H173.22V53.9684H172.086Z" fill="#1A1A1A"/>
<path d="M167.429 62.5783L164.895 55.3403H166.113L167.611 59.9323C167.821 60.5763 168.087 61.4583 168.087 61.4583H168.115C168.115 61.4583 168.381 60.5623 168.591 59.9323L170.117 55.3403H171.293L168.689 62.5783H167.429Z" fill="#1A1A1A"/>
<path d="M162.953 62.5784V55.3404H164.087V62.5784H162.953ZM162.953 53.9684V52.5684H164.087V53.9684H162.953Z" fill="#1A1A1A"/>
<path d="M155.371 62.5784V52.5684H156.631V61.4164H161.881V62.5784H155.371Z" fill="#1A1A1A"/>
<path fill-rule="evenodd" clip-rule="evenodd" d="M0.5 43H0V42.5H0.5V43ZM2.5 43H1.5V42.5H2.5V43ZM4.5 43H3.5V42.5H4.5V43ZM6.5 43H5.5V42.5H6.5V43ZM8.5 43H7.5V42.5H8.5V43ZM10.5 43H9.5V42.5H10.5V43ZM12.5 43H11.5V42.5H12.5V43ZM14.5 43H13.5V42.5H14.5V43ZM16.5 43H15.5V42.5H16.5V43ZM18.5 43H17.5V42.5H18.5V43ZM20.5 43H19.5V42.5H20.5V43ZM22.5 43H21.5V42.5H22.5V43ZM24.5 43H23.5V42.5H24.5V43ZM26.5 43H25.5V42.5H26.5V43ZM28.5 43H27.5V42.5H28.5V43ZM30.5 43H29.5V42.5H30.5V43ZM32.5 43H31.5V42.5H32.5V43ZM34.5 43H33.5V42.5H34.5V43ZM36.5 43H35.5V42.5H36.5V43ZM38.5 43H37.5V42.5H38.5V43ZM40.5 43H39.5V42.5H40.5V43ZM42.5 43H41.5V42.5H42.5V43ZM44.5 43H43.5V42.5H44.5V43ZM46.5 43H45.5V42.5H46.5V43ZM48.5 43H47.5V42.5H48.5V43ZM50.5 43H49.5V42.5H50.5V43ZM52.5 43H51.5V42.5H52.5V43ZM54.5 43H53.5V42.5H54.5V43ZM56.5 43H55.5V42.5H56.5V43ZM58.5 43H57.5V42.5H58.5V43ZM60.5 43H59.5V42.5H60.5V43ZM62.5 43H61.5V42.5H62.5V43ZM64.5 43H63.5V42.5H64.5V43ZM66.5 43H65.5V42.5H66.5V43ZM68.5 43H67.5V42.5H68.5V43ZM70.5 43H69.5V42.5H70.5V43ZM72.5 43H71.5V42.5H72.5V43ZM74.5 43H73.5V42.5H74.5V43ZM76.5 43H75.5V42.5H76.5V43ZM78.5 43H77.5V42.5H78.5V43ZM80.5 43H79.5V42.5H80.5V43ZM82.5 43H81.5V42.5H82.5V43ZM84.5 43H83.5V42.5H84.5V43ZM86.5 43H85.5V42.5H86.5V43ZM88.5 43H87.5V42.5H88.5V43ZM90.5 43H89.5V42.5H90.5V43ZM92.5 43H91.5V42.5H92.5V43ZM94.5 43H93.5V42.5H94.5V43ZM96.5 43H95.5V42.5H96.5V43ZM98.5 43H97.5V42.5H98.5V43ZM100.5 43H99.5V42.5H100.5V43ZM102.5 43H101.5V42.5H102.5V43ZM104.5 43H103.5V42.5H104.5V43ZM106.5 43H105.5V42.5H106.5V43ZM108.5 43H107.5V42.5H108.5V43ZM110.5 43H109.5V42.5H110.5V43ZM112.5 43H111.5V42.5H112.5V43ZM114.5 43H113.5V42.5H114.5V43ZM116.5 43H115.5V42.5H116.5V43ZM118.5 43H117.5V42.5H118.5V43ZM120.5 43H119.5V42.5H120.5V43ZM122.5 43H121.5V42.5H122.5V43ZM124.5 43H123.5V42.5H124.5V43ZM126.5 43H125.5V42.5H126.5V43ZM128.5 43H127.5V42.5H128.5V43ZM130.5 43H129.5V42.5H130.5V43ZM132.5 43H131.5V42.5H132.5V43ZM134.5 43H133.5V42.5H134.5V43ZM136.5 43H135.5V42.5H136.5V43ZM138.5 43H137.5V42.5H138.5V43ZM140.5 43H139.5V42.5H140.5V43ZM142.5 43H141.5V42.5H142.5V43ZM144.5 43H143.5V42.5H144.5V43ZM146.5 43H145.5V42.5H146.5V43ZM148.5 43H147.5V42.5H148.5V43ZM150.5 43H149.5V42.5H150.5V43ZM152.5 43H151.5V42.5H152.5V43ZM154.5 43H153.5V42.5H154.5V43ZM156.5 43H155.5V42.5H156.5V43ZM158.5 43H157.5V42.5H158.5V43ZM160.5 43H159.5V42.5H160.5V43ZM162.5 43H161.5V42.5H162.5V43ZM164.5 43H163.5V42.5H164.5V43ZM166.5 43H165.5V42.5H166.5V43ZM168.5 43H167.5V42.5H168.5V43ZM170.5 43H169.5V42.5H170.5V43ZM172.5 43H171.5V42.5H172.5V43ZM174.5 43H173.5V42.5H174.5V43ZM176.5 43H175.5V42.5H176.5V43ZM178.5 43H177.5V42.5H178.5V43ZM180.5 43H179.5V42.5H180.5V43ZM182.5 43H181.5V42.5H182.5V43ZM184.5 43H183.5V42.5H184.5V43ZM186.5 43H185.5V42.5H186.5V43ZM188.5 43H187.5V42.5H188.5V43ZM190.5 43H189.5V42.5H190.5V43ZM192.5 43H191.5V42.5H192.5V43ZM194.5 43H193.5V42.5H194.5V43ZM196.5 43H195.5V42.5H196.5V43ZM198.5 43H197.5V42.5H198.5V43ZM200.5 43H199.5V42.5H200.5V43ZM202.5 43H201.5V42.5H202.5V43ZM204.5 43H203.5V42.5H204.5V43ZM206.5 43H205.5V42.5H206.5V43ZM208.5 43H207.5V42.5H208.5V43ZM210.5 43H209.5V42.5H210.5V43ZM212.5 43H211.5V42.5H212.5V43ZM214.5 43H213.5V42.5H214.5V43ZM216.5 43H215.5V42.5H216.5V43ZM218.5 43H217.5V42.5H218.5V43ZM220.5 43H219.5V42.5H220.5V43ZM222.5 43H221.5V42.5H222.5V43ZM224.5 43H223.5V42.5H224.5V43ZM226.5 43H225.5V42.5H226.5V43ZM228.5 43H227.5V42.5H228.5V43ZM230.5 43H229.5V42.5H230.5V43ZM232.5 43H231.5V42.5H232.5V43ZM234.5 43H233.5V42.5H234.5V43ZM236.5 43H235.5V42.5H236.5V43ZM238.5 43H237.5V42.5H238.5V43ZM240.5 43H239.5V42.5H240.5V43ZM242.5 43H241.5V42.5H242.5V43ZM244.5 43H243.5V42.5H244.5V43ZM246.5 43H245.5V42.5H246.5V43ZM248.5 43H247.5V42.5H248.5V43ZM250.5 43H249.5V42.5H250.5V43ZM252.5 43H251.5V42.5H252.5V43ZM254.5 43H253.5V42.5H254.5V43ZM256.5 43H255.5V42.5H256.5V43ZM258.5 43H257.5V42.5H258.5V43ZM260.5 43H259.5V42.5H260.5V43ZM262.5 43H261.5V42.5H262.5V43ZM264.5 43H263.5V42.5H264.5V43ZM266.5 43H265.5V42.5H266.5V43ZM268.5 43H267.5V42.5H268.5V43ZM270.5 43H269.5V42.5H270.5V43ZM272 43H271.5V42.5H272V43Z" fill="black"/>
<path fill-rule="evenodd" clip-rule="evenodd" d="M130 0.5L130 -2.18557e-08L130.5 0L130.5 0.5L130 0.5ZM130 2.5L130 1.5L130.5 1.5L130.5 2.5L130 2.5ZM130 4.5L130 3.5L130.5 3.5L130.5 4.5L130 4.5ZM130 6.5L130 5.5L130.5 5.5L130.5 6.5L130 6.5ZM130 8.5L130 7.5L130.5 7.5L130.5 8.5L130 8.5ZM130 10.5L130 9.5L130.5 9.5L130.5 10.5L130 10.5ZM130 12.5L130 11.5L130.5 11.5L130.5 12.5L130 12.5ZM130 14.5L130 13.5L130.5 13.5L130.5 14.5L130 14.5ZM130 16.5L130 15.5L130.5 15.5L130.5 16.5L130 16.5ZM130 18.5L130 17.5L130.5 17.5L130.5 18.5L130 18.5ZM130 20.5L130 19.5L130.5 19.5L130.5 20.5L130 20.5ZM130 22.5L130 21.5L130.5 21.5L130.5 22.5L130 22.5ZM130 24.5L130 23.5L130.5 23.5L130.5 24.5L130 24.5ZM130 26.5L130 25.5L130.5 25.5L130.5 26.5L130 26.5ZM130 28.5L130 27.5L130.5 27.5L130.5 28.5L130 28.5ZM130 30.5L130 29.5L130.5 29.5L130.5 30.5L130 30.5ZM130 32.5L130 31.5L130.5 31.5L130.5 32.5L130 32.5ZM130 34.5L130 33.5L130.5 33.5L130.5 34.5L130 34.5ZM130 36.5L130 35.5L130.5 35.5L130.5 36.5L130 36.5ZM130 38.5L130 37.5L130.5 37.5L130.5 38.5L130 38.5ZM130 40.5L130 39.5L130.5 39.5L130.5 40.5L130 40.5ZM130 42.5L130 41.5L130.5 41.5L130.5 42.5L130 42.5ZM130 44.5L130 43.5L130.5 43.5L130.5 44.5L130 44.5ZM130 46.5L130 45.5L130.5 45.5L130.5 46.5L130 46.5ZM130 48.5L130 47.5L130.5 47.5L130.5 48.5L130 48.5ZM130 50.5L130 49.5L130.5 49.5L130.5 50.5L130 50.5ZM130 52.5L130 51.5L130.5 51.5L130.5 52.5L130 52.5ZM130 54.5L130 53.5L130.5 53.5L130.5 54.5L130 54.5ZM130 56.5L130 55.5L130.5 55.5L130.5 56.5L130 56.5ZM130 58.5L130 57.5L130.5 57.5L130.5 58.5L130 58.5ZM130 60.5L130 59.5L130.5 59.5L130.5 60.5L130 60.5ZM130 62.5L130 61.5L130.5 61.5L130.5 62.5L130 62.5ZM130 64.5L130 63.5L130.5 63.5L130.5 64.5L130 64.5ZM130 66.5L130 65.5L130.5 65.5L130.5 66.5L130 66.5ZM130 68.5L130 67.5L130.5 67.5L130.5 68.5L130 68.5ZM130 70.5L130 69.5L130.5 69.5L130.5 70.5L130 70.5ZM130 72.5L130 71.5L130.5 71.5L130.5 72.5L130 72.5ZM130 74.5L130 73.5L130.5 73.5L130.5 74.5L130 74.5ZM130 76.5L130 75.5L130.5 75.5L130.5 76.5L130 76.5ZM130 78.5L130 77.5L130.5 77.5L130.5 78.5L130 78.5ZM130 80.5L130 79.5L130.5 79.5L130.5 80.5L130 80.5ZM130 82.5L130 81.5L130.5 81.5L130.5 82.5L130 82.5ZM130 84.5L130 83.5L130.5 83.5L130.5 84.5L130 84.5ZM130 86L130 85.5L130.5 85.5L130.5 86L130 86Z" fill="black"/>
</svg>
