<svg width="224" height="46" viewBox="0 0 224 46" fill="none" xmlns="http://www.w3.org/2000/svg">
<path d="M90.6455 0.953125V13.1074H89.6201V0.953125H90.6455ZM88.1846 1.25391V12.4785H87.1729V6.2168H85.1221V5.3418H87.1729V1.25391H88.1846ZM83.8232 4.42578C83.8232 6.53125 84.7666 8.62305 86.4482 9.59375L85.792 10.3867C84.5957 9.66895 83.748 8.35645 83.3311 6.80469C82.8867 8.47949 82.0049 9.9082 80.7881 10.6738L80.1045 9.86719C81.7998 8.85547 82.7842 6.64062 82.7842 4.42578V3.27734H80.4463V2.38867H86.0518V3.27734H83.8232V4.42578Z" fill="#1A1A1A"/>
<path d="M74.3076 2.01953V3.09961H77.1514V0.966797H78.2314V9.83984H77.1514V6.59961H74.3076V7.69336H68.7295V2.01953H74.3076ZM69.7959 2.9082V6.83203H73.2549V2.9082H69.7959ZM78.5049 11.9453V12.8477H70.3701V9.04688H71.4502V11.9453H78.5049ZM74.3076 5.71094H77.1514V4.00195H74.3076V5.71094Z" fill="#1A1A1A"/>
<path d="M55.4542 1.71875C57.0538 1.71875 58.2433 2.9082 58.2433 4.58984C58.2433 6.28516 57.0538 7.43359 55.4542 7.43359C53.8273 7.43359 52.6652 6.28516 52.6788 4.58984C52.6652 2.9082 53.8273 1.71875 55.4542 1.71875ZM55.4542 2.64844C54.4152 2.64844 53.6359 3.46875 53.6495 4.58984C53.6359 5.71094 54.4152 6.53125 55.4542 6.53125C56.4933 6.53125 57.2452 5.71094 57.2589 4.58984C57.2452 3.46875 56.4933 2.64844 55.4542 2.64844ZM62.8644 0.966797V8.19922H61.839V4.98633H60.2257V8.11719H59.214V1.19922H60.2257V4.09766H61.839V0.966797H62.8644ZM62.8644 8.88281V13.1074H61.8116V9.74414H54.6749V8.88281H62.8644Z" fill="#1A1A1A"/>
<path d="M50.5186 0.966797V9.88086H49.4385V5.21875H46.9365V4.33008H49.4385V0.966797H50.5186ZM50.8604 11.9453V12.8477H42.7119V9.07422H43.792V11.9453H50.8604ZM44.667 3.46875C44.667 5.04102 45.8838 6.57227 47.6611 7.17383L47.1006 8.03516C45.7266 7.54297 44.667 6.51758 44.1475 5.25977C43.6211 6.66113 42.5 7.78223 41.0576 8.32227L40.4971 7.44727C42.2881 6.81836 43.5869 5.21875 43.5869 3.46875V2.83984H40.8389V1.95117H47.3877V2.83984H44.667V3.46875Z" fill="#1A1A1A"/>
<path d="M34.4951 1.60938V2.51172C34.4951 3.45508 34.4951 4.5625 34.1807 6.08008H35.958V6.96875H24.8291V6.08008H33.1006C33.4287 4.55566 33.4287 3.45508 33.4287 2.51172V2.49805H26.2373V1.60938H34.4951ZM34.5498 8.65039V12.9434H26.1963V8.65039H34.5498ZM27.2627 9.49805V12.0684H33.4834V9.49805H27.2627Z" fill="#1A1A1A"/>
<path d="M23.8447 7.65234V8.54102H12.7158V7.65234H17.7471V6.36719H14.165V3.40039H21.3291V2.14258H14.124V1.26758H22.4092V4.20703H15.2314V5.50586H22.6689V6.36719H18.7998V7.65234H23.8447ZM22.4775 9.4707V12.998H21.3975V10.3457H13.96V9.4707H22.4775Z" fill="#1A1A1A"/>
<path d="M11.7178 6.73633V7.63867H0.629883V6.73633H11.7178ZM10.4189 4.69922V5.57422H2.03809V1.44531H10.3369V2.34766H3.09082V4.69922H10.4189ZM6.16699 8.70508C8.77832 8.70508 10.3369 9.49805 10.3506 10.8926C10.3369 12.3008 8.77832 13.0801 6.16699 13.0801C3.54199 13.0801 1.96973 12.3008 1.96973 10.8926C1.96973 9.49805 3.54199 8.70508 6.16699 8.70508ZM6.16699 9.53906C4.21191 9.55273 3.0498 10.0449 3.06348 10.8926C3.0498 11.7539 4.21191 12.2324 6.16699 12.2324C8.09473 12.2324 9.27051 11.7539 9.27051 10.8926C9.27051 10.0449 8.09473 9.55273 6.16699 9.53906Z" fill="#1A1A1A"/>
<path d="M218.326 0.966797V10.1953H217.246V8.9375H214.73V8.1582H217.246V0.966797H218.326ZM218.627 11.9453V12.8477H209.986V9.29297H211.066V11.9453H218.627ZM208.236 6.59961C210.506 6.58594 213.541 6.57227 216.152 6.24414L216.221 7.02344C215.134 7.19434 213.999 7.30371 212.885 7.36523V9.77148H211.805V7.41992C210.574 7.47461 209.405 7.48145 208.387 7.47461L208.236 6.59961ZM212.229 1.45898C214.006 1.45898 215.223 2.30664 215.236 3.57812C215.223 4.87695 214.006 5.68359 212.229 5.68359C210.438 5.68359 209.221 4.87695 209.221 3.57812C209.221 2.30664 210.438 1.45898 212.229 1.45898ZM212.229 2.2793C211.039 2.26562 210.232 2.79883 210.246 3.57812C210.232 4.37109 211.039 4.89062 212.229 4.89062C213.377 4.89062 214.197 4.37109 214.211 3.57812C214.197 2.79883 213.377 2.26562 212.229 2.2793Z" fill="#1A1A1A"/>
<path d="M200.553 4.68555C200.553 6.75 202.057 8.8418 203.848 9.62109L203.246 10.4688C201.824 9.81934 200.594 8.41797 200.033 6.73633C199.459 8.52051 198.235 10.0723 196.848 10.7695L196.205 9.92188C197.941 9.08789 199.459 6.79102 199.473 4.68555V3.09961H196.602V2.21094H203.451V3.09961H200.553V4.68555ZM206.227 0.953125V13.1074H205.146V0.953125H206.227Z" fill="#1A1A1A"/>
<path d="M190.613 0.953125V13.1348H189.533V0.953125H190.613ZM182.369 1.99219V5.20508H185.992V1.99219H187.045V10.1953H181.303V1.99219H182.369ZM182.369 9.29297H185.992V6.06641H182.369V9.29297Z" fill="#1A1A1A"/>
<path d="M179.566 6.81852V7.69352H176.613V9.23844H178.199V13.1076H177.119V10.0998H169.723V9.23844H171.432V7.69352H168.492V6.81852H179.566ZM174.029 1.25406C176.668 1.24039 178.322 2.11539 178.322 3.56461C178.322 5.0275 176.668 5.9025 174.029 5.88883C171.391 5.9025 169.723 5.0275 169.723 3.56461C169.723 2.11539 171.391 1.24039 174.029 1.25406ZM174.029 2.11539C172.061 2.10172 170.816 2.66227 170.83 3.56461C170.816 4.4943 172.061 5.05485 174.029 5.05485C175.971 5.05485 177.229 4.4943 177.229 3.56461C177.229 2.66227 175.971 2.10172 174.029 2.11539ZM172.512 9.23844H175.561V7.69352H172.512V9.23844Z" fill="#1A1A1A"/>
<path d="M166.154 2.18359V3.53711C166.154 5.0957 166.154 6.66797 165.717 8.92383L164.664 8.80078C165.102 6.6543 165.102 5.05469 165.102 3.53711V3.07227H157.555V2.18359H166.154ZM167.467 10.4961V11.3848H156.393V10.4961H159.141V6.49023H160.207V10.4961H162.176V6.49023H163.229V10.4961H167.467Z" fill="#1A1A1A"/>
<path d="M144.047 1.89648C145.701 1.91016 146.891 3.3252 147.068 5.60156H149.789V0.953125H150.855V13.1348H149.789V6.49023H147.082C146.952 8.86914 145.742 10.3594 144.047 10.3594C142.256 10.3594 140.998 8.71875 140.998 6.13477C140.998 3.55078 142.256 1.91016 144.047 1.89648ZM144.047 2.85352C142.844 2.86719 142.023 4.15234 142.023 6.13477C142.023 8.11719 142.844 9.40234 144.047 9.40234C145.236 9.40234 146.07 8.11719 146.07 6.13477C146.07 4.15234 145.236 2.86719 144.047 2.85352Z" fill="#1A1A1A"/>
<path d="M138.346 1.55469V2.42969C138.346 3.33887 138.346 4.42578 138.045 5.88867H139.809V6.76367H134.75V9.00586H138.428V13.1074H137.348V9.89453H129.828V9.00586H133.684V6.76367H128.68V5.88867H136.965C137.279 4.39844 137.279 3.33887 137.279 2.42969H130.088V1.55469H138.346Z" fill="#1A1A1A"/>
<path d="M126.082 0.966797V4.97266H127.914V5.875H126.082V10.0723H125.016V0.966797H126.082ZM123.854 2.45703V3.33203H116.607V2.45703H119.697V0.966797H120.764V2.45703H123.854ZM120.23 4.00195C121.967 4.00195 123.143 4.89062 123.156 6.27148C123.143 7.63867 121.967 8.51367 120.23 8.51367C118.48 8.51367 117.291 7.63867 117.305 6.27148C117.291 4.89062 118.48 4.00195 120.23 4.00195ZM120.23 4.84961C119.082 4.84961 118.316 5.41016 118.33 6.27148C118.316 7.13281 119.082 7.67969 120.23 7.66602C121.365 7.67969 122.131 7.13281 122.145 6.27148C122.131 5.41016 121.365 4.84961 120.23 4.84961ZM126.643 11.9453V12.8477H118.48V9.34766H119.533V11.9453H126.643Z" fill="#1A1A1A"/>
<path d="M90.2764 32.9668V42.1953H89.1963V40.9375H86.6807V40.1582H89.1963V32.9668H90.2764ZM90.5771 43.9453V44.8477H81.9365V41.293H83.0166V43.9453H90.5771ZM80.1865 38.5996C82.4561 38.5859 85.4912 38.5723 88.1025 38.2441L88.1709 39.0234C87.084 39.1943 85.9492 39.3037 84.835 39.3652V41.7715H83.7549V39.4199C82.5244 39.4746 81.3555 39.4814 80.3369 39.4746L80.1865 38.5996ZM84.1787 33.459C85.9561 33.459 87.1729 34.3066 87.1865 35.5781C87.1729 36.877 85.9561 37.6836 84.1787 37.6836C82.3877 37.6836 81.1709 36.877 81.1709 35.5781C81.1709 34.3066 82.3877 33.459 84.1787 33.459ZM84.1787 34.2793C82.9893 34.2656 82.1826 34.7988 82.1963 35.5781C82.1826 36.3711 82.9893 36.8906 84.1787 36.8906C85.3271 36.8906 86.1475 36.3711 86.1611 35.5781C86.1475 34.7988 85.3271 34.2656 84.1787 34.2793Z" fill="#1A1A1A"/>
<path d="M72.5029 36.6855C72.5029 38.75 74.0068 40.8418 75.7979 41.6211L75.1963 42.4688C73.7744 41.8193 72.5439 40.418 71.9834 38.7363C71.4092 40.5205 70.1855 42.0723 68.7979 42.7695L68.1553 41.9219C69.8916 41.0879 71.4092 38.791 71.4229 36.6855V35.0996H68.5518V34.2109H75.4014V35.0996H72.5029V36.6855ZM78.1768 32.9531V45.1074H77.0967V32.9531H78.1768Z" fill="#1A1A1A"/>
<path d="M63.6709 42.7012V43.6035H52.542V42.7012H55.6729V40.3906H53.9365V36.6445H61.21V34.7441H53.9092V33.8555H62.2627V37.5332H55.0029V39.502H62.5498V40.3906H60.6494V42.7012H63.6709ZM56.7256 42.7012H59.5967V40.3906H56.7256V42.7012Z" fill="#1A1A1A"/>
<path d="M45.9385 40.6367C48.5498 40.6367 50.2041 41.457 50.2041 42.8652C50.2041 44.2598 48.5498 45.0801 45.9385 45.0801C43.3408 45.0801 41.6865 44.2598 41.6865 42.8652C41.6865 41.457 43.3408 40.6367 45.9385 40.6367ZM45.9385 41.457C43.9971 41.4707 42.7393 42.0039 42.7529 42.8652C42.7393 43.7129 43.9971 44.2324 45.9385 44.2324C47.8799 44.2324 49.124 43.7129 49.1377 42.8652C49.124 42.0039 47.8799 41.4707 45.9385 41.457ZM50.1084 33.582V34.6074C50.1084 35.5918 50.1084 36.5762 49.7666 37.834L48.7139 37.7109C49.042 36.4531 49.042 35.5645 49.042 34.6074V34.457H41.7686V33.582H50.1084ZM51.5166 38.627V39.502H40.4561V38.627H45.0361V36.2754H46.0889V38.627H51.5166Z" fill="#1A1A1A"/>
<path d="M37.8447 32.9531V36.3438H39.6768V37.2598H37.8447V40.8008H36.7783V32.9531H37.8447ZM34.0029 40.8828C36.4775 40.8828 37.9814 41.6621 37.9814 42.9883C37.9814 44.3145 36.4775 45.0801 34.0029 45.0801C31.5283 45.0801 30.0107 44.3145 30.0244 42.9883C30.0107 41.6621 31.5283 40.8828 34.0029 40.8828ZM34.0029 41.7305C32.1846 41.7305 31.0771 42.1816 31.0908 42.9883C31.0771 43.7812 32.1846 44.2461 34.0029 44.2461C35.8213 44.2461 36.915 43.7812 36.915 42.9883C36.915 42.1816 35.8213 41.7305 34.0029 41.7305ZM35.6162 34.3477V35.1953H28.3701V34.3477H31.46V32.8574H32.5264V34.3477H35.6162ZM31.9932 35.8242C33.7432 35.8242 34.9053 36.6719 34.9189 37.9707C34.9053 39.2832 33.7432 40.1172 31.9932 40.1172C30.2295 40.1172 29.0537 39.2832 29.0674 37.9707C29.0537 36.6719 30.2295 35.8242 31.9932 35.8242ZM31.9932 36.6309C30.8447 36.6445 30.0791 37.1777 30.0928 37.9707C30.0791 38.7637 30.8447 39.2832 31.9932 39.2832C33.1279 39.2832 33.8936 38.7637 33.9072 37.9707C33.8936 37.1777 33.1279 36.6445 31.9932 36.6309Z" fill="#1A1A1A"/>
<path d="M23.8037 39.2422V40.1309H12.7295V39.2422H17.7334V37.7793H14.2061V33.2402H15.2725V34.6484H21.2881V33.2402H22.3545V37.7793H18.7998V39.2422H23.8037ZM22.4365 41.334V45.1074H21.3564V42.1953H13.96V41.334H22.4365ZM15.2725 36.918H21.2881V35.4688H15.2725V36.918Z" fill="#1A1A1A"/>
<path d="M10.1182 32.9668V36.3711H11.9365V37.2871H10.1182V40.7324H9.03809V32.9668H10.1182ZM6.19434 40.8418C8.68262 40.8418 10.1865 41.6074 10.2002 42.9609C10.1865 44.3008 8.68262 45.0801 6.19434 45.0801C3.70605 45.0801 2.20215 44.3008 2.20215 42.9609C2.20215 41.6074 3.70605 40.8418 6.19434 40.8418ZM6.19434 41.6758C4.3623 41.6758 3.24121 42.1543 3.25488 42.9609C3.24121 43.7539 4.3623 44.2324 6.19434 44.2324C8.0127 44.2324 9.13379 43.7539 9.13379 42.9609C9.13379 42.1543 8.0127 41.6758 6.19434 41.6758ZM0.616211 39.0371C1.56641 39.0371 2.67383 39.0303 3.8291 38.9824V37.8477C2.30469 37.6973 1.31348 36.8564 1.32715 35.6328C1.31348 34.3066 2.53027 33.418 4.33496 33.418C6.12598 33.418 7.35645 34.3066 7.35645 35.6328C7.35645 36.8359 6.38574 37.6699 4.90918 37.834V38.9414C6.05078 38.8867 7.19922 38.791 8.25879 38.6406L8.34082 39.4199C5.77051 39.8574 2.8584 39.8984 0.75293 39.8984L0.616211 39.0371ZM4.33496 34.2383C3.13184 34.2383 2.3252 34.7988 2.33887 35.6328C2.3252 36.4941 3.13184 37.082 4.33496 37.082C5.52441 37.082 6.33105 36.4941 6.34473 35.6328C6.33105 34.7988 5.52441 34.2383 4.33496 34.2383Z" fill="#1A1A1A"/>
<path d="M206.276 32.9668V42.1953H205.196V40.9375H202.681V40.1582H205.196V32.9668H206.276ZM206.577 43.9453V44.8477H197.937V41.293H199.017V43.9453H206.577ZM196.187 38.5996C198.456 38.5859 201.491 38.5723 204.103 38.2441L204.171 39.0234C203.084 39.1943 201.949 39.3037 200.835 39.3652V41.7715H199.755V39.4199C198.524 39.4746 197.355 39.4814 196.337 39.4746L196.187 38.5996ZM200.179 33.459C201.956 33.459 203.173 34.3066 203.187 35.5781C203.173 36.877 201.956 37.6836 200.179 37.6836C198.388 37.6836 197.171 36.877 197.171 35.5781C197.171 34.3066 198.388 33.459 200.179 33.459ZM200.179 34.2793C198.989 34.2656 198.183 34.7988 198.196 35.5781C198.183 36.3711 198.989 36.8906 200.179 36.8906C201.327 36.8906 202.147 36.3711 202.161 35.5781C202.147 34.7988 201.327 34.2656 200.179 34.2793Z" fill="#1A1A1A"/>
<path d="M188.503 36.6855C188.503 38.75 190.007 40.8418 191.798 41.6211L191.196 42.4688C189.774 41.8193 188.544 40.418 187.983 38.7363C187.409 40.5205 186.186 42.0723 184.798 42.7695L184.155 41.9219C185.892 41.0879 187.409 38.791 187.423 36.6855V35.0996H184.552V34.2109H191.401V35.0996H188.503V36.6855ZM194.177 32.9531V45.1074H193.097V32.9531H194.177Z" fill="#1A1A1A"/>
<path d="M178.563 32.9531V45.1348H177.483V32.9531H178.563ZM170.319 33.9922V37.2051H173.942V33.9922H174.995V42.1953H169.253V33.9922H170.319ZM170.319 41.293H173.942V38.0664H170.319V41.293Z" fill="#1A1A1A"/>
<path d="M165.931 32.9531V36.0703H167.749V36.9863H165.931V40.1309H164.851V32.9531H165.931ZM165.931 40.6777V43.125H159.108V44.2051H166.396V44.9707H158.042V42.4004H164.864V41.4434H158.015V40.6777H165.931ZM156.388 39.0371C157.358 39.0371 158.493 39.0371 159.683 38.9961V38.2441C158.261 38.1416 157.358 37.5742 157.358 36.6445C157.358 35.6465 158.479 35.0723 160.202 35.0723C161.938 35.0723 163.046 35.6465 163.06 36.6445C163.046 37.5674 162.171 38.1348 160.749 38.2441V38.9688C161.884 38.9141 163.032 38.8252 164.099 38.668L164.194 39.3926C161.569 39.8164 158.644 39.8438 156.511 39.8438L156.388 39.0371ZM163.729 33.8828V34.6621H156.688V33.8828H159.683V32.8438H160.749V33.8828H163.729ZM160.202 35.7832C159.081 35.7969 158.384 36.1113 158.384 36.6445C158.384 37.1914 159.081 37.5469 160.202 37.5469C161.323 37.5469 162.034 37.1914 162.034 36.6445C162.034 36.1113 161.323 35.7969 160.202 35.7832Z" fill="#1A1A1A"/>
<path d="M147.966 35.373C147.966 36.7129 148.909 38.0801 150.468 38.668L149.907 39.4883C148.738 39.0371 147.897 38.1689 147.46 37.123C147.009 38.2852 146.141 39.3174 144.944 39.8301L144.356 38.9961C145.956 38.2988 146.94 36.7266 146.94 35.373V33.7188H147.966V35.373ZM154.665 32.9668V40.4727H153.64V37.123H152.026V40.0898H151.015V33.1992H152.026V36.2344H153.64V32.9668H154.665ZM150.646 40.7461C153.161 40.7461 154.733 41.5391 154.733 42.9199C154.733 44.2871 153.161 45.0801 150.646 45.0801C148.116 45.0801 146.558 44.2871 146.571 42.9199C146.558 41.5391 148.116 40.7461 150.646 40.7461ZM150.646 41.5664C148.786 41.5664 147.624 42.0723 147.638 42.9199C147.624 43.7539 148.786 44.2461 150.646 44.2461C152.491 44.2461 153.653 43.7539 153.667 42.9199C153.653 42.0723 152.491 41.5664 150.646 41.5664Z" fill="#1A1A1A"/>
<path d="M138.231 32.9668V36.6445H140.063V37.5469H138.231V41.8945H137.165V32.9668H138.231ZM138.792 43.9453V44.8477H130.63V41.0195H131.683V43.9453H138.792ZM130.302 33.8418V35.8926H133.843V33.8418H134.909V39.8438H129.249V33.8418H130.302ZM130.302 38.9688H133.843V36.7402H130.302V38.9688Z" fill="#1A1A1A"/>
<path d="M127.021 32.9531V45.1074H125.995V32.9531H127.021ZM124.56 33.2539V44.4785H123.548V38.2168H121.497V37.3418H123.548V33.2539H124.56ZM120.198 36.4258C120.198 38.5312 121.142 40.623 122.823 41.5938L122.167 42.3867C120.971 41.6689 120.123 40.3564 119.706 38.8047C119.262 40.4795 118.38 41.9082 117.163 42.6738L116.479 41.8672C118.175 40.8555 119.159 38.6406 119.159 36.4258V35.2773H116.821V34.3887H122.427V35.2773H120.198V36.4258Z" fill="#1A1A1A"/>
<path fill-rule="evenodd" clip-rule="evenodd" d="M0.5 23H0V22.5H0.5V23ZM2.5 23H1.5V22.5H2.5V23ZM4.5 23H3.5V22.5H4.5V23ZM6.5 23H5.5V22.5H6.5V23ZM8.5 23H7.5V22.5H8.5V23ZM10.5 23H9.5V22.5H10.5V23ZM12.5 23H11.5V22.5H12.5V23ZM14.5 23H13.5V22.5H14.5V23ZM16.5 23H15.5V22.5H16.5V23ZM18.5 23H17.5V22.5H18.5V23ZM20.5 23H19.5V22.5H20.5V23ZM22.5 23H21.5V22.5H22.5V23ZM24.5 23H23.5V22.5H24.5V23ZM26.5 23H25.5V22.5H26.5V23ZM28.5 23H27.5V22.5H28.5V23ZM30.5 23H29.5V22.5H30.5V23ZM32.5 23H31.5V22.5H32.5V23ZM34.5 23H33.5V22.5H34.5V23ZM36.5 23H35.5V22.5H36.5V23ZM38.5 23H37.5V22.5H38.5V23ZM40.5 23H39.5V22.5H40.5V23ZM42.5 23H41.5V22.5H42.5V23ZM44.5 23H43.5V22.5H44.5V23ZM46.5 23H45.5V22.5H46.5V23ZM48.5 23H47.5V22.5H48.5V23ZM50.5 23H49.5V22.5H50.5V23ZM52.5 23H51.5V22.5H52.5V23ZM54.5 23H53.5V22.5H54.5V23ZM56.5 23H55.5V22.5H56.5V23ZM58.5 23H57.5V22.5H58.5V23ZM60.5 23H59.5V22.5H60.5V23ZM62.5 23H61.5V22.5H62.5V23ZM64.5 23H63.5V22.5H64.5V23ZM66.5 23H65.5V22.5H66.5V23ZM68.5 23H67.5V22.5H68.5V23ZM70.5 23H69.5V22.5H70.5V23ZM72.5 23H71.5V22.5H72.5V23ZM74.5 23H73.5V22.5H74.5V23ZM76.5 23H75.5V22.5H76.5V23ZM78.5 23H77.5V22.5H78.5V23ZM80.5 23H79.5V22.5H80.5V23ZM82.5 23H81.5V22.5H82.5V23ZM84.5 23H83.5V22.5H84.5V23ZM86.5 23H85.5V22.5H86.5V23ZM88.5 23H87.5V22.5H88.5V23ZM90.5 23H89.5V22.5H90.5V23ZM92.5 23H91.5V22.5H92.5V23ZM94.5 23H93.5V22.5H94.5V23ZM96.5 23H95.5V22.5H96.5V23ZM98.5 23H97.5V22.5H98.5V23ZM100.5 23H99.5V22.5H100.5V23ZM102.5 23H101.5V22.5H102.5V23ZM104.5 23H103.5V22.5H104.5V23ZM106.5 23H105.5V22.5H106.5V23ZM108.5 23H107.5V22.5H108.5V23ZM110.5 23H109.5V22.5H110.5V23ZM112.5 23H111.5V22.5H112.5V23ZM114.5 23H113.5V22.5H114.5V23ZM116.5 23H115.5V22.5H116.5V23ZM118.5 23H117.5V22.5H118.5V23ZM120.5 23H119.5V22.5H120.5V23ZM122.5 23H121.5V22.5H122.5V23ZM124.5 23H123.5V22.5H124.5V23ZM126.5 23H125.5V22.5H126.5V23ZM128.5 23H127.5V22.5H128.5V23ZM130.5 23H129.5V22.5H130.5V23ZM132.5 23H131.5V22.5H132.5V23ZM134.5 23H133.5V22.5H134.5V23ZM136.5 23H135.5V22.5H136.5V23ZM138.5 23H137.5V22.5H138.5V23ZM140.5 23H139.5V22.5H140.5V23ZM142.5 23H141.5V22.5H142.5V23ZM144.5 23H143.5V22.5H144.5V23ZM146.5 23H145.5V22.5H146.5V23ZM148.5 23H147.5V22.5H148.5V23ZM150.5 23H149.5V22.5H150.5V23ZM152.5 23H151.5V22.5H152.5V23ZM154.5 23H153.5V22.5H154.5V23ZM156.5 23H155.5V22.5H156.5V23ZM158.5 23H157.5V22.5H158.5V23ZM160.5 23H159.5V22.5H160.5V23ZM162.5 23H161.5V22.5H162.5V23ZM164.5 23H163.5V22.5H164.5V23ZM166.5 23H165.5V22.5H166.5V23ZM168.5 23H167.5V22.5H168.5V23ZM170.5 23H169.5V22.5H170.5V23ZM172.5 23H171.5V22.5H172.5V23ZM174.5 23H173.5V22.5H174.5V23ZM176.5 23H175.5V22.5H176.5V23ZM178.5 23H177.5V22.5H178.5V23ZM180.5 23H179.5V22.5H180.5V23ZM182.5 23H181.5V22.5H182.5V23ZM184.5 23H183.5V22.5H184.5V23ZM186.5 23H185.5V22.5H186.5V23ZM188.5 23H187.5V22.5H188.5V23ZM190.5 23H189.5V22.5H190.5V23ZM192.5 23H191.5V22.5H192.5V23ZM194.5 23H193.5V22.5H194.5V23ZM196.5 23H195.5V22.5H196.5V23ZM198.5 23H197.5V22.5H198.5V23ZM200.5 23H199.5V22.5H200.5V23ZM202.5 23H201.5V22.5H202.5V23ZM204.5 23H203.5V22.5H204.5V23ZM206.5 23H205.5V22.5H206.5V23ZM208.5 23H207.5V22.5H208.5V23ZM210.5 23H209.5V22.5H210.5V23ZM212.5 23H211.5V22.5H212.5V23ZM214.5 23H213.5V22.5H214.5V23ZM216.5 23H215.5V22.5H216.5V23ZM218.5 23H217.5V22.5H218.5V23ZM220.5 23H219.5V22.5H220.5V23ZM222.5 23H221.5V22.5H222.5V23ZM224 23H223.5V22.5H224V23Z" fill="black"/>
<path fill-rule="evenodd" clip-rule="evenodd" d="M106 2.5L106 2L106.5 2L106.5 2.5L106 2.5ZM106 4.5L106 3.5L106.5 3.5L106.5 4.5L106 4.5ZM106 6.5L106 5.5L106.5 5.5L106.5 6.5L106 6.5ZM106 8.5L106 7.5L106.5 7.5L106.5 8.5L106 8.5ZM106 10.5L106 9.5L106.5 9.5L106.5 10.5L106 10.5ZM106 12.5L106 11.5L106.5 11.5L106.5 12.5L106 12.5ZM106 14.5L106 13.5L106.5 13.5L106.5 14.5L106 14.5ZM106 16.5L106 15.5L106.5 15.5L106.5 16.5L106 16.5ZM106 18.5L106 17.5L106.5 17.5L106.5 18.5L106 18.5ZM106 20.5L106 19.5L106.5 19.5L106.5 20.5L106 20.5ZM106 22.5L106 21.5L106.5 21.5L106.5 22.5L106 22.5ZM106 24.5L106 23.5L106.5 23.5L106.5 24.5L106 24.5ZM106 26.5L106 25.5L106.5 25.5L106.5 26.5L106 26.5ZM106 28.5L106 27.5L106.5 27.5L106.5 28.5L106 28.5ZM106 30.5L106 29.5L106.5 29.5L106.5 30.5L106 30.5ZM106 32.5L106 31.5L106.5 31.5L106.5 32.5L106 32.5ZM106 34.5L106 33.5L106.5 33.5L106.5 34.5L106 34.5ZM106 36.5L106 35.5L106.5 35.5L106.5 36.5L106 36.5ZM106 38.5L106 37.5L106.5 37.5L106.5 38.5L106 38.5ZM106 40.5L106 39.5L106.5 39.5L106.5 40.5L106 40.5ZM106 42.5L106 41.5L106.5 41.5L106.5 42.5L106 42.5ZM106 44L106 43.5L106.5 43.5L106.5 44L106 44Z" fill="black"/>
</svg>
