<svg width="89" height="92" viewBox="0 0 89 92" fill="none" xmlns="http://www.w3.org/2000/svg">
<path d="M49.1748 0.861532C56.9397 0.950624 62.8262 1.69306 68.2838 3.28186C74.3922 5.0637 78.8292 8.06313 81.8464 12.4435C83.9614 15.532 85.4257 19.2145 86.4314 24.0106C87.8069 30.5292 88.0879 37.0923 88.0879 44.9175C88.0879 49.5354 87.9696 55.6234 87.0526 61.7707C86.9343 62.528 86.816 63.2556 86.6828 63.9683H87.1413C87.2745 63.2853 87.3928 62.5726 87.4963 61.845C88.4281 55.6679 88.5464 49.5651 88.5316 44.9323C88.5316 37.0774 88.2358 30.4846 86.8603 23.9363C85.8398 19.066 84.3608 15.339 82.2014 12.2059C79.125 7.72161 74.614 4.67764 68.4021 2.8661C62.9149 1.26245 56.984 0.520013 49.1748 0.430921C44.649 0.386375 39.7978 0.490316 34 0.742743V1.1882C39.7978 0.920927 44.6342 0.831835 49.16 0.876381L49.1748 0.861532Z" fill="#795CA5"/>
<path d="M49.9429 88.2606C46.4968 88.3497 43.1099 88.3794 39.8856 88.32C32.9785 88.2161 27.4322 87.5925 22.4331 86.3303C18.4545 85.3206 15.3486 83.9991 12.6715 82.143C8.42674 79.203 5.49827 74.9711 3.70865 69.1653C2.48106 65.2155 1.74155 60.9094 1.43095 55.9945C1.25347 53.3366 1.14994 50.6193 1.06119 47.9911C1.01682 46.8329 0.972453 45.6895 0.928082 44.5313C1.00203 39.7055 1.19431 34.5827 1.8155 29.46H1.37179C0.735809 34.5827 0.558326 39.7055 0.484375 44.5313C0.528746 45.7044 0.573116 46.8477 0.617487 48.0059C0.721019 50.6342 0.824551 53.3515 0.987243 56.0242C1.29784 60.9688 2.05214 65.3195 3.29452 69.2989C5.11372 75.1938 8.11614 79.5148 12.4349 82.5142C15.1563 84.4 18.3066 85.7512 22.3444 86.7609C27.373 88.0231 32.949 88.6616 39.9004 88.7655C41.0096 88.7804 42.1337 88.7952 43.2726 88.7952C45.4467 88.7952 47.6948 88.7507 49.9577 88.6913V88.2606H49.9429Z" fill="#795CA5"/>
<path d="M3.42596 12.7253C4.1359 13.0074 4.1359 13.8686 3.42596 14.1508L4.15069 20.6693C3.51471 20.3427 2.71603 20.2684 1.93215 20.6693L2.74561 14.1805C1.93215 13.9429 1.93215 12.948 2.74561 12.6956C2.74561 9.90405 2.77519 7.98858 2.81956 6.77099L0.453125 5.89492L15.9681 0L31.0098 5.65734L15.8498 11.5523L3.24848 6.91947C3.35201 8.44889 3.42596 10.6613 3.42596 12.7253Z" fill="#795CA5"/>
<path d="M24.1785 16.9726V9.26611C15.7924 13.6465 15.6001 13.6465 6.99219 9.28096V16.9726V17.0023C7.03656 19.3038 10.8672 21.1599 15.5705 21.1599C20.2738 21.1599 23.9122 19.3929 24.1193 17.1656C24.1193 17.1656 24.1489 17.1656 24.1637 17.1656V16.9874L24.1785 16.9726Z" fill="#795CA5"/>
<path d="M59.6135 82.5879C60.3234 82.87 60.3234 83.7312 59.6135 84.0134L60.3382 90.5319C59.7022 90.2053 58.9035 90.131 58.1196 90.5319L58.9331 84.0431C58.1196 83.8055 58.1196 82.7958 58.9331 82.5582C58.9331 79.7666 58.9627 77.8512 59.0071 76.6336L56.6406 75.7724L72.1408 69.8774L87.1825 75.5348L72.0225 81.4297L59.4212 76.7969C59.5247 78.3263 59.5987 80.5388 59.5987 82.6027" fill="#795CA5"/>
<path d="M80.3659 86.8356V79.1143C71.9799 83.4946 71.7876 83.4946 63.1797 79.1291V86.8356V86.8653C63.2241 89.1668 67.0547 91.0229 71.758 91.0229C76.4613 91.0229 80.0997 89.2559 80.3068 87.0286C80.3068 87.0286 80.3364 87.0286 80.3512 87.0286V86.8504L80.3659 86.8356Z" fill="#795CA5"/>
<path d="M47.7823 50.3217C47.871 48.3617 47.9006 46.4462 47.9006 44.9316H39.2188V45.7186C39.2335 46.6095 39.2483 47.5005 39.2631 48.3914C39.2927 49.6684 39.3519 50.8117 39.4406 51.8808H47.6788C47.7231 51.3908 47.7527 50.886 47.7823 50.3069V50.3217Z" fill="#795CA5"/>
<path d="M34.2492 34.9233C34.0865 35.3688 33.9386 35.8439 33.8203 36.3488H38.5976C38.6567 35.7548 38.7307 35.2054 38.8194 34.6857C39.1448 32.696 39.7068 31.3448 40.5055 30.543C39.5441 30.6321 38.5828 30.8548 37.651 31.226C36.0388 31.8942 34.9296 33.0969 34.2492 34.9085V34.9233Z" fill="#795CA5"/>
<path d="M44.4556 58.7554C45.0176 58.696 45.4909 58.4584 45.9198 58.0575C46.5854 57.419 47.0882 56.1866 47.384 54.375C47.458 53.8999 47.5319 53.3653 47.5911 52.8159H39.5156C39.7079 54.7017 40.0185 56.0678 40.4622 57.0032C40.7284 57.5526 41.0242 57.9536 41.4088 58.2357C41.8673 58.592 42.3701 58.7554 43.0061 58.7999C43.1984 58.7999 43.4055 58.7999 43.6125 58.7999C43.8935 58.7999 44.1746 58.7999 44.4556 58.7702V58.7554Z" fill="#795CA5"/>
<path d="M39.3371 38.8585C39.2483 40.6255 39.2335 42.3628 39.2188 44.011H47.9006C47.9006 42.0658 47.871 39.8831 47.7231 37.7449C47.7231 37.5816 47.6936 37.4182 47.6788 37.2549H39.4406C39.3962 37.7449 39.3667 38.2646 39.3371 38.8437V38.8585Z" fill="#795CA5"/>
<path d="M45.8576 31.0775C45.3399 30.6172 44.7779 30.4093 44.0532 30.3796C43.5651 30.3648 43.0326 30.3945 42.3819 30.4836C41.9825 30.543 41.5832 30.7508 41.1839 31.1221C40.5035 31.7605 40.0154 32.993 39.7196 34.8045C39.6457 35.2648 39.5717 35.7697 39.5273 36.3191H47.588C47.4845 35.3836 47.3662 34.5966 47.2183 33.8988C46.9077 32.5178 46.464 31.5824 45.8576 31.0478V31.0775Z" fill="#795CA5"/>
<path d="M49.3213 31.167C48.493 30.8403 47.5908 30.6325 46.5703 30.5137C47.2655 31.1819 47.7683 32.2361 48.0937 33.721C48.2564 34.4634 48.3895 35.3246 48.493 36.3343H53.2851C53.078 35.4434 52.8118 34.6861 52.4716 34.0328C51.7617 32.6519 50.7264 31.7164 49.3065 31.167H49.3213Z" fill="#795CA5"/>
<path d="M54.4967 37.6407C54.8073 39.6602 54.896 41.6796 54.9108 44.0108H58.1942C58.1794 41.9023 58.0907 39.7938 57.647 37.715C57.6174 37.5665 57.573 37.418 57.5434 37.2695H54.4375C54.4671 37.4032 54.4819 37.522 54.5115 37.6556L54.4967 37.6407Z" fill="#795CA5"/>
<path d="M53.2986 33.617C53.6979 34.404 54.0085 35.2801 54.2451 36.3492H57.2771C56.9961 35.4582 56.6264 34.6119 56.0939 33.8397C54.9699 32.2064 53.3725 31.2858 51.5237 30.7512C50.9025 30.573 50.2961 30.4394 49.6602 30.3354C51.2871 30.9739 52.4851 32.0579 53.2986 33.6319V33.617Z" fill="#795CA5"/>
<path d="M48.8039 44.0108H53.9953C53.9953 41.7241 53.8917 39.7344 53.5959 37.7892C53.5663 37.6111 53.5368 37.4477 53.4924 37.2695H48.582C48.582 37.418 48.6116 37.5368 48.6116 37.6853C48.7595 39.8532 48.7891 42.0508 48.7891 44.0108H48.8039Z" fill="#795CA5"/>
<path d="M54.91 44.9316C54.91 46.4611 54.8656 48.4062 54.6437 50.3959C54.5846 50.9305 54.5106 51.4205 54.4219 51.8957H57.5278C57.6461 51.3908 57.7497 50.8711 57.8384 50.3514C58.1046 48.5547 58.1786 46.7432 58.1786 44.9465H54.8952L54.91 44.9316Z" fill="#795CA5"/>
<path d="M53.7438 50.292C53.9657 48.3468 53.9953 46.4314 53.9953 44.9316H48.8039C48.8039 46.4462 48.7891 48.3914 48.6856 50.3662C48.656 50.9156 48.6264 51.4057 48.582 51.8808H53.4924C53.5811 51.3908 53.6699 50.8563 53.729 50.292H53.7438Z" fill="#795CA5"/>
<path d="M33.3756 38.888C33.1833 40.6253 33.1242 42.3626 33.1094 44.0108H38.286C38.286 42.3478 38.3155 40.5956 38.4043 38.8138C38.4339 38.2644 38.4634 37.7595 38.5078 37.2695H33.6122C33.5235 37.7744 33.4348 38.3089 33.3756 38.888Z" fill="#795CA5"/>
<path d="M32.3119 48.4357C32.2675 47.5448 32.238 46.639 32.2232 45.7481L32.1936 44.9463H28.9102C28.9545 46.1045 28.9989 47.2627 29.0728 48.4209C29.1468 49.5939 29.3391 50.7521 29.6201 51.8955H32.7112C32.519 50.8264 32.3711 49.6979 32.3119 48.4357Z" fill="#795CA5"/>
<path d="M35.2827 57.5231C34.1438 56.4689 33.3599 54.9692 32.8866 52.9201C32.8866 52.8904 32.8866 52.8458 32.8718 52.8013H29.8398C30.3871 54.5831 31.3041 56.0977 32.8718 57.1668C33.8776 57.8647 34.9868 58.2804 36.1553 58.5774C36.599 58.6962 37.0427 58.7853 37.5012 58.8595C36.6286 58.518 35.9038 58.0874 35.2827 57.5083V57.5231Z" fill="#795CA5"/>
<path d="M54.2588 52.8159C54.1109 53.4693 53.9334 54.0632 53.7264 54.6126C52.9573 56.6469 51.6557 58.0575 49.8365 58.8148C49.7478 58.8445 49.6591 58.8593 49.5703 58.9039C50.3098 58.7851 51.0345 58.6217 51.7593 58.399C53.9039 57.7308 55.6047 56.5132 56.6548 54.4641C56.9211 53.9296 57.1281 53.3802 57.3056 52.8308H54.2736L54.2588 52.8159Z" fill="#795CA5"/>
<path d="M32.1944 44.0108C32.224 42.3181 32.2684 40.5511 32.4754 38.7841C32.5346 38.2347 32.6086 37.7447 32.6973 37.2695H29.6061C29.4878 37.7892 29.3695 38.3089 29.2955 38.8435C29.0293 40.5659 28.9554 42.2884 28.9258 44.0257H32.2092L32.1944 44.0108Z" fill="#795CA5"/>
<path d="M32.8718 36.349C33.0197 35.7253 33.1824 35.1314 33.3895 34.5968C34.1734 32.5329 35.4453 31.1519 37.2941 30.3798C37.3977 30.3353 37.5012 30.3204 37.6047 30.2759C36.8504 30.4095 36.1109 30.5729 35.3862 30.7956C33.2268 31.4638 31.5111 32.6814 30.4758 34.7453C30.2096 35.265 30.0173 35.7996 29.8398 36.3341H32.8571L32.8718 36.349Z" fill="#795CA5"/>
<path d="M38.1826 58.1616C38.9073 58.3992 39.6912 58.5625 40.549 58.6665C40.1941 58.325 39.8835 57.9092 39.6173 57.3895C39.1292 56.3501 38.789 54.8652 38.5819 52.8607C38.5819 52.8458 38.5819 52.8161 38.5819 52.8013H33.8047C34.2336 54.6128 34.914 55.9343 35.9049 56.8401C36.5261 57.4192 37.2508 57.835 38.1826 58.1468V58.1616Z" fill="#795CA5"/>
<path d="M33.1233 45.7035C33.1529 46.5944 33.1677 47.4853 33.2121 48.3762C33.2712 49.6681 33.4191 50.7966 33.6262 51.8805H38.507C38.4182 50.8114 38.3591 49.6829 38.3295 48.4059C38.3147 47.515 38.2999 46.6241 38.2851 45.7183V44.9165H33.0938L33.1233 45.6886V45.7035Z" fill="#795CA5"/>
<path d="M52.8704 54.2859C53.0479 53.8256 53.181 53.3356 53.3141 52.8159H48.5221C48.4629 53.4247 48.3889 54.0038 48.3002 54.5235C47.9748 56.4984 47.4276 57.8348 46.6289 58.6366C47.679 58.5178 48.6404 58.3099 49.4834 57.9536C51.0808 57.2854 52.19 56.0826 52.8704 54.2859Z" fill="#795CA5"/>
</svg>
