<svg width="272" height="83" viewBox="0 0 272 83" fill="none" xmlns="http://www.w3.org/2000/svg">
<path d="M91.004 48V47.4C96.164 47.22 96.164 45.96 96.164 41.58V12.42C96.164 8.04 96.164 6.78 91.004 6.6V6H107.624V6.6C102.524 6.78 102.524 8.04 102.524 12.42V41.58C102.524 45.96 102.524 47.22 107.624 47.4V48H91.004ZM127.251 48.54C122.811 48.54 119.811 46.98 117.831 45.66C115.911 44.52 114.591 43.44 113.631 43.44C112.731 43.44 112.131 44.22 111.951 48.54H111.351L111.111 31.02H111.711C112.251 37.86 116.511 47.82 127.251 47.82C130.431 47.82 134.091 47.28 136.491 44.64C137.811 43.14 138.171 41.22 138.171 39.3C138.171 33.9 132.591 31.5 125.451 29.04C119.331 26.88 111.771 24.72 111.771 17.04C111.771 13.68 113.091 10.98 115.311 9C117.891 6.54 121.731 5.46 125.691 5.46C130.011 5.46 132.891 7.14 134.571 8.34C136.611 9.72 137.511 10.62 138.411 10.62C139.311 10.62 139.971 9.78 140.031 5.46H140.631L140.871 22.14H140.271C139.731 15.72 135.711 6.18 125.691 6.18C122.931 6.18 120.231 6.84 118.431 8.28C116.991 9.48 116.151 11.28 116.151 13.32C116.151 18.42 121.011 20.16 127.731 22.56C135.531 25.26 142.431 27.66 142.431 35.58C142.431 39.36 141.051 42.48 138.351 44.82C135.651 47.1 132.291 48.54 127.251 48.54ZM164.341 6C173.581 6 180.601 8.58 180.601 17.94C180.601 27.36 173.581 30 164.341 30H156.901V41.58C156.901 45.96 156.901 47.22 163.501 47.4V48H145.681V47.4C150.541 47.22 150.541 45.96 150.541 41.58V12.42C150.541 7.98 150.541 6.78 145.681 6.6V6H164.341ZM164.341 29.28C171.361 29.28 173.701 26.76 173.701 17.94C173.701 9.18 171.361 6.72 164.341 6.72H161.281C156.901 6.72 156.901 7.8 156.901 12.12V29.28H164.341Z" fill="#795CA5"/>
<path d="M41.0325 78V77.86C42.3065 77.832 42.3065 77.594 42.3065 76.446V69.754C42.3065 68.606 42.3065 68.368 41.0325 68.34V68.2H44.6305V68.34C43.3565 68.368 43.3565 68.606 43.3565 69.754V76.446C43.3565 77.594 43.3565 77.832 44.6305 77.86V78H41.0325ZM52.0868 76.67C52.0868 77.622 52.0868 77.86 52.9408 77.86V78H50.1128V77.86C51.1208 77.86 51.1208 77.622 51.1208 76.67V72.904C51.1208 71.658 50.4348 71.21 49.5528 71.21C48.3628 71.21 47.5228 71.994 46.9908 73.058V76.67C46.9908 77.622 46.9908 77.86 47.9848 77.86V78H45.1568V77.86C46.0108 77.86 46.0108 77.622 46.0108 76.67V72.358C46.0108 71.728 46.0108 71.252 45.0308 71.168V71.028H46.9908L46.9768 72.764C47.6348 71.574 48.6568 70.888 49.9028 70.888C51.0928 70.888 52.0868 71.546 52.0868 72.974V76.67ZM56.7683 71.182L55.0883 71.168V75.942C55.0883 76.53 55.1303 77.048 55.2283 77.342C55.3123 77.566 55.4803 77.734 55.8163 77.734C56.1243 77.734 56.3483 77.594 56.4743 77.342C56.6143 77.048 56.6283 76.544 56.6283 75.914V75.158H56.7683V75.914C56.7683 76.628 56.7543 77.216 56.5303 77.58C56.2923 77.972 55.9423 78.14 55.4243 78.14C54.9063 78.14 54.5563 77.93 54.3883 77.58C54.2063 77.23 54.1223 76.712 54.1223 75.648V71.168H53.2263V71.028H53.6323C54.5843 71.028 54.8083 70.216 54.9203 68.48H55.0883V71.028L56.7683 71.014V71.182ZM63.3179 75.676H63.4579C63.4439 76.936 62.6039 78.14 60.6719 78.14C58.9779 78.14 57.3679 76.712 57.3679 74.514C57.3679 72.302 58.7539 70.888 60.5039 70.888C62.3239 70.888 63.4439 72.176 63.4439 74.276H58.4459V74.514C58.4459 76.67 59.2859 77.944 60.8819 77.944C62.4499 77.944 63.3039 76.908 63.3179 75.676ZM60.5039 71.056C59.1039 71.056 58.5159 72.106 58.4459 74.136H62.3799C62.3659 72.358 61.9599 71.056 60.5039 71.056ZM68.453 70.888C69.559 70.888 70.021 71.602 70.021 72.33C70.021 72.946 69.671 73.45 69.237 73.45C68.971 73.45 68.635 73.254 68.551 73.044C69.013 72.54 69.251 72.12 69.251 71.756C69.251 71.21 68.747 71.098 68.355 71.098C67.207 71.098 66.339 72.12 65.975 73.744V76.67C65.975 77.636 65.975 77.86 67.207 77.86V78H64.141V77.86C64.995 77.86 64.995 77.636 64.995 76.67V72.358C64.995 71.728 64.995 71.252 64.015 71.168V71.028H65.975L65.961 73.268C66.409 71.658 67.403 70.888 68.453 70.888ZM77.2715 76.67C77.2715 77.622 77.2715 77.86 78.1255 77.86V78H75.2975V77.86C76.3055 77.86 76.3055 77.622 76.3055 76.67V72.904C76.3055 71.658 75.6195 71.21 74.7375 71.21C73.5475 71.21 72.7075 71.994 72.1755 73.058V76.67C72.1755 77.622 72.1755 77.86 73.1695 77.86V78H70.3415V77.86C71.1955 77.86 71.1955 77.622 71.1955 76.67V72.358C71.1955 71.728 71.1955 71.252 70.2155 71.168V71.028H72.1755L72.1615 72.764C72.8195 71.574 73.8415 70.888 75.0875 70.888C76.2775 70.888 77.2715 71.546 77.2715 72.974V76.67ZM85.271 75.438H85.411V76.768C85.411 77.272 85.355 77.51 85.243 77.706C85.145 77.86 84.907 78.126 84.417 78.126C83.955 78.126 83.717 77.93 83.605 77.762C83.479 77.594 83.395 77.356 83.395 76.782V76.082C83.185 76.642 82.429 78.14 80.665 78.14C79.965 78.14 79.461 77.972 79.083 77.622C78.733 77.3 78.579 76.824 78.579 76.334C78.579 75.788 78.747 75.438 79.083 75.144C79.867 74.458 81.799 74.024 83.395 73.744V72.862C83.395 71.28 82.443 71.042 81.631 71.042C80.903 71.042 80.343 71.238 79.993 71.602C79.881 71.7 79.825 71.798 79.825 71.966C79.825 72.302 80.063 72.736 80.553 73.254C80.455 73.492 80.147 73.674 79.839 73.674C79.405 73.674 79.069 73.17 79.069 72.638C79.069 71.812 79.923 70.888 81.673 70.888C83.143 70.888 84.347 71.448 84.347 72.988V76.782C84.347 77.09 84.375 77.314 84.431 77.468C84.501 77.594 84.613 77.72 84.795 77.72C85.033 77.72 85.145 77.552 85.187 77.468C85.257 77.342 85.271 77.132 85.271 76.768V75.438ZM81.015 77.776C82.317 77.776 83.269 76.614 83.395 75.382V73.87C81.799 74.22 80.343 74.598 79.839 75.354C79.671 75.592 79.629 75.9 79.629 76.25C79.629 76.614 79.671 76.922 79.839 77.216C80.021 77.524 80.385 77.776 81.015 77.776ZM89.3566 71.182L87.6766 71.168V75.942C87.6766 76.53 87.7186 77.048 87.8166 77.342C87.9006 77.566 88.0686 77.734 88.4046 77.734C88.7126 77.734 88.9366 77.594 89.0626 77.342C89.2026 77.048 89.2166 76.544 89.2166 75.914V75.158H89.3566V75.914C89.3566 76.628 89.3426 77.216 89.1186 77.58C88.8806 77.972 88.5306 78.14 88.0126 78.14C87.4946 78.14 87.1446 77.93 86.9766 77.58C86.7946 77.23 86.7106 76.712 86.7106 75.648V71.168H85.8146V71.028H86.2206C87.1726 71.028 87.3966 70.216 87.5086 68.48H87.6766V71.028L89.3566 71.014V71.182ZM91.2442 69.53C90.8102 69.53 90.4742 69.194 90.4742 68.76C90.4742 68.312 90.8102 67.976 91.2442 67.976C91.7062 67.976 92.0422 68.312 92.0422 68.76C92.0422 69.194 91.7062 69.53 91.2442 69.53ZM92.5882 78H89.9142V77.86C90.7682 77.86 90.7682 77.636 90.7682 76.67V72.358C90.7682 71.728 90.7682 71.252 89.7882 71.168V71.028H91.7482V76.67C91.7482 77.636 91.7482 77.86 92.5882 77.86V78ZM96.5629 78.14C94.9529 78.14 93.2029 76.726 93.2029 74.514C93.2029 72.302 94.9529 70.888 96.5629 70.888C98.1869 70.888 99.9369 72.302 99.9369 74.514C99.9369 76.726 98.1869 78.14 96.5629 78.14ZM96.5629 77.972C97.9909 77.972 98.8589 76.726 98.8589 74.514C98.8589 72.302 97.9909 71.056 96.5629 71.056C95.1489 71.056 94.2809 72.302 94.2809 74.514C94.2809 76.726 95.1489 77.972 96.5629 77.972ZM107.522 76.67C107.522 77.622 107.522 77.86 108.376 77.86V78H105.548V77.86C106.556 77.86 106.556 77.622 106.556 76.67V72.904C106.556 71.658 105.87 71.21 104.988 71.21C103.798 71.21 102.958 71.994 102.426 73.058V76.67C102.426 77.622 102.426 77.86 103.42 77.86V78H100.592V77.86C101.446 77.86 101.446 77.622 101.446 76.67V72.358C101.446 71.728 101.446 71.252 100.466 71.168V71.028H102.426L102.412 72.764C103.07 71.574 104.092 70.888 105.338 70.888C106.528 70.888 107.522 71.546 107.522 72.974V76.67ZM115.521 75.438H115.661V76.768C115.661 77.272 115.605 77.51 115.493 77.706C115.395 77.86 115.157 78.126 114.667 78.126C114.205 78.126 113.967 77.93 113.855 77.762C113.729 77.594 113.645 77.356 113.645 76.782V76.082C113.435 76.642 112.679 78.14 110.915 78.14C110.215 78.14 109.711 77.972 109.333 77.622C108.983 77.3 108.829 76.824 108.829 76.334C108.829 75.788 108.997 75.438 109.333 75.144C110.117 74.458 112.049 74.024 113.645 73.744V72.862C113.645 71.28 112.693 71.042 111.881 71.042C111.153 71.042 110.593 71.238 110.243 71.602C110.131 71.7 110.075 71.798 110.075 71.966C110.075 72.302 110.313 72.736 110.803 73.254C110.705 73.492 110.397 73.674 110.089 73.674C109.655 73.674 109.319 73.17 109.319 72.638C109.319 71.812 110.173 70.888 111.923 70.888C113.393 70.888 114.597 71.448 114.597 72.988V76.782C114.597 77.09 114.625 77.314 114.681 77.468C114.751 77.594 114.863 77.72 115.045 77.72C115.283 77.72 115.395 77.552 115.437 77.468C115.507 77.342 115.521 77.132 115.521 76.768V75.438ZM111.265 77.776C112.567 77.776 113.519 76.614 113.645 75.382V73.87C112.049 74.22 110.593 74.598 110.089 75.354C109.921 75.592 109.879 75.9 109.879 76.25C109.879 76.614 109.921 76.922 110.089 77.216C110.271 77.524 110.635 77.776 111.265 77.776ZM118.865 78H116.177V77.86C117.031 77.86 117.031 77.636 117.031 76.67V69.404C117.031 68.774 117.031 68.368 116.051 68.34V68.2H118.011V76.67C118.011 77.636 118.025 77.86 118.865 77.86V78ZM126.554 78.126C125.42 78.126 124.692 77.692 124.23 77.37C123.838 77.09 123.586 76.852 123.39 76.852C123.194 76.852 123.082 77.062 123.054 78.126H122.914L122.858 74.08H122.998C123.124 75.606 123.978 77.958 126.554 77.958C127.226 77.958 128.136 77.832 128.724 77.202C129.074 76.81 129.158 76.32 129.158 75.83C129.158 74.458 127.954 73.884 126.246 73.324C124.874 72.848 123.026 72.4 123.026 70.636C123.026 69.95 123.292 69.376 123.754 68.942C124.356 68.34 125.238 68.074 126.162 68.074C127.24 68.074 127.954 68.536 128.332 68.83C128.766 69.18 128.934 69.348 129.116 69.348C129.312 69.348 129.438 69.138 129.452 68.074H129.592L129.648 71.966H129.508C129.382 70.51 128.528 68.242 126.162 68.242C125.448 68.242 124.832 68.41 124.44 68.746C124.076 69.054 123.866 69.488 123.866 70.02C123.866 71.28 124.958 71.658 126.582 72.218C128.444 72.848 129.97 73.422 129.97 75.214C129.97 76.026 129.704 76.726 129.116 77.244C128.528 77.776 127.758 78.126 126.554 78.126ZM137.563 76.67C137.563 77.636 137.563 77.86 138.403 77.86V78H136.625V76.25C135.967 77.44 134.889 78.14 133.657 78.14C132.467 78.14 131.501 77.496 131.501 76.082V72.358C131.501 71.392 131.501 71.168 130.647 71.168V71.028H132.467V76.152C132.467 77.398 133.111 77.846 133.993 77.846C135.183 77.846 136.079 77.034 136.611 75.984V72.344C136.611 71.42 136.611 71.168 135.211 71.168V71.028H137.563V76.67ZM150.381 76.67C150.381 77.636 150.381 77.86 151.235 77.86V78H148.421V77.86C149.429 77.86 149.429 77.636 149.429 76.67V72.904C149.429 71.658 148.771 71.224 147.959 71.224C146.853 71.224 146.097 72.008 145.579 73.058V76.67C145.579 77.636 145.579 77.86 146.573 77.86V78H143.633V77.86C144.613 77.86 144.613 77.636 144.613 76.67V72.904C144.613 71.658 143.969 71.224 143.171 71.224C142.065 71.224 141.295 72.008 140.791 73.058V76.67C140.791 77.636 140.791 77.86 141.785 77.86V78H138.957V77.86C139.811 77.86 139.811 77.636 139.811 76.67V72.358C139.811 71.728 139.811 71.252 138.831 71.168V71.028H140.791L140.777 72.764C141.407 71.574 142.373 70.888 143.521 70.888C144.571 70.888 145.495 71.49 145.579 72.75C146.209 71.574 147.161 70.888 148.309 70.888C149.429 70.888 150.381 71.546 150.381 72.946V76.67ZM163.116 76.67C163.116 77.636 163.116 77.86 163.97 77.86V78H161.156V77.86C162.164 77.86 162.164 77.636 162.164 76.67V72.904C162.164 71.658 161.506 71.224 160.694 71.224C159.588 71.224 158.832 72.008 158.314 73.058V76.67C158.314 77.636 158.314 77.86 159.308 77.86V78H156.368V77.86C157.348 77.86 157.348 77.636 157.348 76.67V72.904C157.348 71.658 156.704 71.224 155.906 71.224C154.8 71.224 154.03 72.008 153.526 73.058V76.67C153.526 77.636 153.526 77.86 154.52 77.86V78H151.692V77.86C152.546 77.86 152.546 77.636 152.546 76.67V72.358C152.546 71.728 152.546 71.252 151.566 71.168V71.028H153.526L153.512 72.764C154.142 71.574 155.108 70.888 156.256 70.888C157.306 70.888 158.23 71.49 158.314 72.75C158.944 71.574 159.896 70.888 161.044 70.888C162.164 70.888 163.116 71.546 163.116 72.946V76.67ZM170.448 75.676H170.588C170.574 76.936 169.734 78.14 167.802 78.14C166.108 78.14 164.498 76.712 164.498 74.514C164.498 72.302 165.884 70.888 167.634 70.888C169.454 70.888 170.574 72.176 170.574 74.276H165.576V74.514C165.576 76.67 166.416 77.944 168.012 77.944C169.58 77.944 170.434 76.908 170.448 75.676ZM167.634 71.056C166.234 71.056 165.646 72.106 165.576 74.136H169.51C169.496 72.358 169.09 71.056 167.634 71.056ZM175.583 70.888C176.689 70.888 177.151 71.602 177.151 72.33C177.151 72.946 176.801 73.45 176.367 73.45C176.101 73.45 175.765 73.254 175.681 73.044C176.143 72.54 176.381 72.12 176.381 71.756C176.381 71.21 175.877 71.098 175.485 71.098C174.337 71.098 173.469 72.12 173.105 73.744V76.67C173.105 77.636 173.105 77.86 174.337 77.86V78H171.271V77.86C172.125 77.86 172.125 77.636 172.125 76.67V72.358C172.125 71.728 172.125 71.252 171.145 71.168V71.028H173.105L173.091 73.268C173.539 71.658 174.533 70.888 175.583 70.888ZM184.483 68.2C186.485 68.2 188.109 68.788 188.109 70.93C188.109 73.086 186.485 73.702 184.483 73.702H182.467V76.446C182.467 77.594 182.467 77.832 184.119 77.86V78H180.213V77.86C181.417 77.832 181.417 77.594 181.417 76.446V69.754C181.417 68.606 181.417 68.368 180.213 68.34V68.2H184.483ZM184.483 73.534C186.387 73.534 186.933 72.834 186.933 70.93C186.933 69.04 186.387 68.368 184.483 68.368H183.601C182.467 68.368 182.467 68.592 182.467 69.726V73.534H184.483ZM192.817 70.888C193.923 70.888 194.385 71.602 194.385 72.33C194.385 72.946 194.035 73.45 193.601 73.45C193.335 73.45 192.999 73.254 192.915 73.044C193.377 72.54 193.615 72.12 193.615 71.756C193.615 71.21 193.111 71.098 192.719 71.098C191.571 71.098 190.703 72.12 190.339 73.744V76.67C190.339 77.636 190.339 77.86 191.571 77.86V78H188.505V77.86C189.359 77.86 189.359 77.636 189.359 76.67V72.358C189.359 71.728 189.359 71.252 188.379 71.168V71.028H190.339L190.325 73.268C190.773 71.658 191.767 70.888 192.817 70.888ZM197.971 78.14C196.361 78.14 194.611 76.726 194.611 74.514C194.611 72.302 196.361 70.888 197.971 70.888C199.595 70.888 201.345 72.302 201.345 74.514C201.345 76.726 199.595 78.14 197.971 78.14ZM197.971 77.972C199.399 77.972 200.267 76.726 200.267 74.514C200.267 72.302 199.399 71.056 197.971 71.056C196.557 71.056 195.689 72.302 195.689 74.514C195.689 76.726 196.557 77.972 197.971 77.972ZM207.894 72.792C207.684 72.792 207.474 72.652 207.404 72.512C207.726 72.134 207.852 71.84 207.852 71.546C207.852 71.14 207.614 71.056 207.418 71.056C206.97 71.056 206.704 71.63 206.9 72.26C207.04 72.568 207.124 72.918 207.124 73.296C207.124 74.71 206.004 75.718 204.66 75.718H203.708C203.162 75.718 202.784 76.012 202.784 76.404C202.784 76.81 203.008 77.118 203.862 77.118H206.13C207.194 77.118 208.174 77.37 208.174 78.532C208.174 79.946 206.662 80.786 204.352 80.786C202.098 80.786 201.496 79.96 201.496 79.19C201.496 78.616 201.86 78.07 203.162 77.93C202.518 77.762 202.196 77.314 202.196 76.796C202.196 76.138 202.77 75.578 203.722 75.578H203.806C202.854 75.256 202.182 74.402 202.182 73.296C202.182 71.896 203.288 70.888 204.66 70.888C205.5 70.888 206.242 71.28 206.69 71.91C206.662 71.378 206.942 70.888 207.516 70.888C208.174 70.888 208.468 71.434 208.468 71.966C208.454 72.428 208.202 72.792 207.894 72.792ZM204.66 75.55C205.612 75.55 206.172 74.64 206.172 73.296C206.172 71.966 205.612 71.056 204.66 71.056C203.68 71.056 203.134 71.966 203.134 73.296C203.134 74.64 203.68 75.55 204.66 75.55ZM206.186 78.014H203.82C202.644 78.014 201.958 78.336 201.958 79.19C201.958 80.156 202.938 80.618 204.352 80.618C206.2 80.618 207.544 80.016 207.544 79.05C207.544 78.168 206.97 78.014 206.186 78.014ZM212.841 70.888C213.947 70.888 214.409 71.602 214.409 72.33C214.409 72.946 214.059 73.45 213.625 73.45C213.359 73.45 213.023 73.254 212.939 73.044C213.401 72.54 213.639 72.12 213.639 71.756C213.639 71.21 213.135 71.098 212.743 71.098C211.595 71.098 210.727 72.12 210.363 73.744V76.67C210.363 77.636 210.363 77.86 211.595 77.86V78H208.529V77.86C209.383 77.86 209.383 77.636 209.383 76.67V72.358C209.383 71.728 209.383 71.252 208.403 71.168V71.028H210.363L210.349 73.268C210.797 71.658 211.791 70.888 212.841 70.888ZM221.284 75.438H221.424V76.768C221.424 77.272 221.368 77.51 221.256 77.706C221.158 77.86 220.92 78.126 220.43 78.126C219.968 78.126 219.73 77.93 219.618 77.762C219.492 77.594 219.408 77.356 219.408 76.782V76.082C219.198 76.642 218.442 78.14 216.678 78.14C215.978 78.14 215.474 77.972 215.096 77.622C214.746 77.3 214.592 76.824 214.592 76.334C214.592 75.788 214.76 75.438 215.096 75.144C215.88 74.458 217.812 74.024 219.408 73.744V72.862C219.408 71.28 218.456 71.042 217.644 71.042C216.916 71.042 216.356 71.238 216.006 71.602C215.894 71.7 215.838 71.798 215.838 71.966C215.838 72.302 216.076 72.736 216.566 73.254C216.468 73.492 216.16 73.674 215.852 73.674C215.418 73.674 215.082 73.17 215.082 72.638C215.082 71.812 215.936 70.888 217.686 70.888C219.156 70.888 220.36 71.448 220.36 72.988V76.782C220.36 77.09 220.388 77.314 220.444 77.468C220.514 77.594 220.626 77.72 220.808 77.72C221.046 77.72 221.158 77.552 221.2 77.468C221.27 77.342 221.284 77.132 221.284 76.768V75.438ZM217.028 77.776C218.33 77.776 219.282 76.614 219.408 75.382V73.87C217.812 74.22 216.356 74.598 215.852 75.354C215.684 75.592 215.642 75.9 215.642 76.25C215.642 76.614 215.684 76.922 215.852 77.216C216.034 77.524 216.398 77.776 217.028 77.776ZM233.42 76.67C233.42 77.636 233.42 77.86 234.274 77.86V78H231.46V77.86C232.468 77.86 232.468 77.636 232.468 76.67V72.904C232.468 71.658 231.81 71.224 230.998 71.224C229.892 71.224 229.136 72.008 228.618 73.058V76.67C228.618 77.636 228.618 77.86 229.612 77.86V78H226.672V77.86C227.652 77.86 227.652 77.636 227.652 76.67V72.904C227.652 71.658 227.008 71.224 226.21 71.224C225.104 71.224 224.334 72.008 223.83 73.058V76.67C223.83 77.636 223.83 77.86 224.824 77.86V78H221.996V77.86C222.85 77.86 222.85 77.636 222.85 76.67V72.358C222.85 71.728 222.85 71.252 221.87 71.168V71.028H223.83L223.816 72.764C224.446 71.574 225.412 70.888 226.56 70.888C227.61 70.888 228.534 71.49 228.618 72.75C229.248 71.574 230.2 70.888 231.348 70.888C232.468 70.888 233.42 71.546 233.42 72.946V76.67Z" fill="#795CA5"/>
</svg>
