<svg width="249" height="84" viewBox="0 0 249 84" fill="none" xmlns="http://www.w3.org/2000/svg">
<path d="M77.6358 49.1181C73.1958 49.1181 70.1958 47.5581 68.2158 46.2381C66.2958 45.0981 64.9758 44.0181 64.0158 44.0181C63.1158 44.0181 62.5158 44.7981 62.3358 49.1181H61.7358L61.4958 31.5981H62.0958C62.6358 38.4381 66.8958 48.3981 77.6358 48.3981C80.8158 48.3981 84.4758 47.8581 86.8758 45.2181C88.1958 43.7181 88.5558 41.7981 88.5558 39.8781C88.5558 34.4781 82.9758 32.0781 75.8358 29.6181C69.7158 27.4581 62.1558 25.2981 62.1558 17.6181C62.1558 14.2581 63.4758 11.5581 65.6958 9.57812C68.2758 7.11812 72.1158 6.03812 76.0758 6.03812C80.3958 6.03812 83.2758 7.71812 84.9558 8.91812C86.9958 10.2981 87.8958 11.1981 88.7958 11.1981C89.6958 11.1981 90.3558 10.3581 90.4158 6.03812H91.0158L91.2558 22.7181H90.6558C90.1158 16.2981 86.0958 6.75812 76.0758 6.75812C73.3158 6.75812 70.6158 7.41812 68.8158 8.85812C67.3758 10.0581 66.5358 11.8581 66.5358 13.8981C66.5358 18.9981 71.3958 20.7381 78.1158 23.1381C85.9158 25.8381 92.8158 28.2381 92.8158 36.1581C92.8158 39.9381 91.4358 43.0581 88.7358 45.3981C86.0358 47.6781 82.6758 49.1181 77.6358 49.1181ZM141.551 6.57812H155.471V7.17812C150.131 7.35812 149.231 9.21812 146.471 16.7181L134.411 49.1181H133.691L124.211 23.5581L114.731 49.1181H114.011L100.391 14.3781C98.4712 9.45812 97.0912 7.35812 92.9512 7.17812V6.57812H110.231V7.17812C104.591 7.35812 105.131 9.63812 106.991 14.3781L117.251 40.5981L123.911 22.5981L120.851 14.3781C119.051 9.39812 117.611 7.35812 113.771 7.17812V6.57812H131.471V7.17812C124.991 7.35812 125.771 9.57812 127.511 14.3781L136.991 40.5381L145.691 16.7181C148.391 9.51812 148.991 7.35812 141.551 7.17812V6.57812ZM173.467 6.57812C182.707 6.57812 189.727 9.15812 189.727 18.5181C189.727 27.9381 182.707 30.5781 173.467 30.5781H166.027V42.1581C166.027 46.5381 166.027 47.7981 172.627 47.9781V48.5781H154.807V47.9781C159.667 47.7981 159.667 46.5381 159.667 42.1581V12.9981C159.667 8.55812 159.667 7.35812 154.807 7.17812V6.57812H173.467ZM173.467 29.8581C180.487 29.8581 182.827 27.3381 182.827 18.5181C182.827 9.75812 180.487 7.29812 173.467 7.29812H170.407C166.027 7.29812 166.027 8.37812 166.027 12.6981V29.8581H173.467Z" fill="#795CA5"/>
<path d="M48.0281 78.7041C46.8941 78.7041 46.1661 78.2701 45.7041 77.9481C45.3121 77.6681 45.0601 77.4301 44.8641 77.4301C44.6681 77.4301 44.5561 77.6401 44.5281 78.7041H44.3881L44.3321 74.6581H44.4721C44.5981 76.1841 45.4521 78.5361 48.0281 78.5361C48.7001 78.5361 49.6101 78.4101 50.1981 77.7801C50.5481 77.3881 50.6321 76.8981 50.6321 76.4081C50.6321 75.0361 49.4281 74.4621 47.7201 73.9021C46.3481 73.4261 44.5001 72.9781 44.5001 71.2141C44.5001 70.5281 44.7661 69.9541 45.2281 69.5201C45.8301 68.9181 46.7121 68.6521 47.6361 68.6521C48.7141 68.6521 49.4281 69.1141 49.8061 69.4081C50.2401 69.7581 50.4081 69.9261 50.5901 69.9261C50.7861 69.9261 50.9121 69.7161 50.9261 68.6521H51.0661L51.1221 72.5441H50.9821C50.8561 71.0881 50.0021 68.8201 47.6361 68.8201C46.9221 68.8201 46.3061 68.9881 45.9141 69.3241C45.5501 69.6321 45.3401 70.0661 45.3401 70.5981C45.3401 71.8581 46.4321 72.2361 48.0561 72.7961C49.9181 73.4261 51.4441 74.0001 51.4441 75.7921C51.4441 76.6041 51.1781 77.3041 50.5901 77.8221C50.0021 78.3541 49.2321 78.7041 48.0281 78.7041ZM57.8617 68.7781H61.7397V68.9181C60.0317 68.9461 60.0317 69.7021 60.0317 71.0601V78.5921H59.8637L53.9137 69.6741L53.9277 76.2961C53.9277 77.6541 53.9277 78.4101 55.9437 78.4381V78.5781H52.0657V78.4381C53.7597 78.4101 53.7597 77.6541 53.7597 76.2961V70.1501C53.7597 69.4641 53.6757 68.9461 52.0237 68.9181V68.7781H54.5857L59.8637 76.7581V71.0601C59.8637 69.7021 59.8777 68.9461 57.8617 68.9181V68.7781ZM66.4422 78.7181C63.9362 78.7181 62.9562 77.5841 62.9562 74.9101V70.3321C62.9562 69.1841 62.9562 68.9461 61.7522 68.9181V68.7781H65.5322V68.9181C64.0062 68.9461 64.0062 69.1841 64.0062 70.3321V74.9801C64.0062 76.6181 64.0762 78.5361 66.5822 78.5361C68.5002 78.5361 69.4382 77.5281 69.4382 74.9661V71.0601C69.4382 69.7021 69.4522 68.9461 67.5902 68.9181V68.7781H71.3002V68.9181C69.6062 68.9461 69.6062 69.7021 69.6062 71.0601V74.9661C69.6062 77.3601 68.7942 78.7181 66.4422 78.7181ZM75.8718 70.1081C75.4378 70.1081 75.1018 69.7721 75.1018 69.3381C75.1018 68.8901 75.4378 68.5541 75.8718 68.5541C76.3338 68.5541 76.6698 68.8901 76.6698 69.3381C76.6698 69.7721 76.3338 70.1081 75.8718 70.1081ZM77.2158 78.5781H74.5418V78.4381C75.3958 78.4381 75.3958 78.2141 75.3958 77.2481V72.9361C75.3958 72.3061 75.3958 71.8301 74.4158 71.7461V71.6061H76.3758V77.2481C76.3758 78.2141 76.3758 78.4381 77.2158 78.4381V78.5781ZM84.7185 77.2481C84.7185 78.2001 84.7185 78.4381 85.5725 78.4381V78.5781H82.7445V78.4381C83.7525 78.4381 83.7525 78.2001 83.7525 77.2481V73.4821C83.7525 72.2361 83.0665 71.7881 82.1845 71.7881C80.9945 71.7881 80.1545 72.5721 79.6225 73.6361V77.2481C79.6225 78.2001 79.6225 78.4381 80.6165 78.4381V78.5781H77.7885V78.4381C78.6425 78.4381 78.6425 78.2001 78.6425 77.2481V72.9361C78.6425 72.3061 78.6425 71.8301 77.6625 71.7461V71.6061H79.6225L79.6085 73.3421C80.2665 72.1521 81.2885 71.4661 82.5345 71.4661C83.7245 71.4661 84.7185 72.1241 84.7185 73.5521V77.2481ZM92.5381 71.7601L90.8581 71.7461V76.5201C90.8581 77.1081 90.9001 77.6261 90.9981 77.9201C91.0821 78.1441 91.2501 78.3121 91.5861 78.3121C91.8941 78.3121 92.1181 78.1721 92.2441 77.9201C92.3841 77.6261 92.3981 77.1221 92.3981 76.4921V75.7361H92.5381V76.4921C92.5381 77.2061 92.5241 77.7941 92.3001 78.1581C92.0621 78.5501 91.7121 78.7181 91.1941 78.7181C90.6761 78.7181 90.3261 78.5081 90.1581 78.1581C89.9761 77.8081 89.8921 77.2901 89.8921 76.2261V71.7461H88.9961V71.6061H89.4021C90.3541 71.6061 90.5781 70.7941 90.6901 69.0581H90.8581V71.6061L92.5381 71.5921V71.7601ZM99.9136 77.2481C99.9136 78.2001 99.9136 78.4381 100.768 78.4381V78.5781H97.9396V78.4381C98.9476 78.4381 98.9476 78.2001 98.9476 77.2481V73.4821C98.9476 72.2361 98.2616 71.7881 97.3796 71.7881C96.2036 71.7881 95.3496 72.5721 94.8176 73.6361V77.2481C94.8176 78.2001 94.8176 78.4381 95.8116 78.4381V78.5781H92.9836V78.4381C93.8516 78.4381 93.8516 78.2001 93.8516 77.2481V69.9821C93.8516 69.3521 93.8516 68.9461 92.8576 68.9181V68.7781H94.8176V71.6061L94.7896 73.3701C95.4476 72.1521 96.4696 71.4661 97.7296 71.4661C98.9196 71.4661 99.9136 72.1241 99.9136 73.5521V77.2481ZM107.243 76.2541H107.383C107.369 77.5141 106.529 78.7181 104.597 78.7181C102.903 78.7181 101.293 77.2901 101.293 75.0921C101.293 72.8801 102.679 71.4661 104.429 71.4661C106.249 71.4661 107.369 72.7541 107.369 74.8541H102.371V75.0921C102.371 77.2481 103.211 78.5221 104.807 78.5221C106.375 78.5221 107.229 77.4861 107.243 76.2541ZM104.429 71.6341C103.029 71.6341 102.441 72.6841 102.371 74.7141H106.305C106.291 72.9361 105.885 71.6341 104.429 71.6341ZM121.074 68.7781H124.322V68.9181C123.076 68.9461 122.908 69.3101 122.222 71.1581L119.45 78.7041H119.282L117.168 72.8941L115.04 78.7041H114.872L111.68 70.5981C111.232 69.4501 110.91 68.9461 109.916 68.9181V68.7781H113.668V68.9181C112.226 68.9461 112.324 69.4501 112.772 70.5981L115.404 77.2901L117.084 72.6701L116.328 70.5981C115.908 69.4221 115.544 68.9461 114.592 68.9181V68.7781H118.386V68.9181C116.86 68.9461 117.028 69.4361 117.434 70.5981L119.814 77.2761L122.04 71.1581C122.698 69.3801 122.796 68.9461 121.074 68.9181V68.7781ZM126.535 78.7181C124.925 78.7181 123.175 77.3041 123.175 75.0921C123.175 72.8801 124.925 71.4661 126.535 71.4661C128.159 71.4661 129.909 72.8801 129.909 75.0921C129.909 77.3041 128.159 78.7181 126.535 78.7181ZM126.535 78.5501C127.963 78.5501 128.831 77.3041 128.831 75.0921C128.831 72.8801 127.963 71.6341 126.535 71.6341C125.121 71.6341 124.253 72.8801 124.253 75.0921C124.253 77.3041 125.121 78.5501 126.535 78.5501ZM134.876 71.4661C135.982 71.4661 136.444 72.1801 136.444 72.9081C136.444 73.5241 136.094 74.0281 135.66 74.0281C135.394 74.0281 135.058 73.8321 134.974 73.6221C135.436 73.1181 135.674 72.6981 135.674 72.3341C135.674 71.7881 135.17 71.6761 134.778 71.6761C133.63 71.6761 132.762 72.6981 132.398 74.3221V77.2481C132.398 78.2141 132.398 78.4381 133.63 78.4381V78.5781H130.564V78.4381C131.418 78.4381 131.418 78.2141 131.418 77.2481V72.9361C131.418 72.3061 131.418 71.8301 130.438 71.7461V71.6061H132.398L132.384 73.8461C132.832 72.2361 133.826 71.4661 134.876 71.4661ZM139.342 78.5781H136.654V78.4381C137.508 78.4381 137.508 78.2141 137.508 77.2481V69.9821C137.508 69.3521 137.508 68.9461 136.528 68.9181V68.7781H138.488V77.2481C138.488 78.2141 138.502 78.4381 139.342 78.4381V78.5781ZM146.553 77.2481C146.553 78.2141 146.553 78.4381 147.393 78.4381V78.5781H145.587V76.7021C144.985 78.1021 144.005 78.7181 142.857 78.7181C141.107 78.7181 139.973 77.1921 139.973 75.1901C139.973 73.1601 141.163 71.4661 143.207 71.4661C144.495 71.4661 145.279 72.1241 145.601 73.0621L145.587 69.9681C145.587 69.3381 145.587 68.9461 144.103 68.9181V68.7781H146.553V77.2481ZM143.053 78.5081C144.145 78.5081 145.013 77.8361 145.587 76.2961V73.9581C145.587 72.7821 144.845 71.6481 143.291 71.6481C142.227 71.6481 141.051 72.2221 141.051 75.1761C141.051 76.6181 141.303 78.5081 143.053 78.5081ZM155.329 68.7781C157.331 68.7781 158.955 69.3661 158.955 71.5081C158.955 73.6641 157.331 74.2801 155.329 74.2801H153.313V77.0241C153.313 78.1721 153.313 78.4101 154.965 78.4381V78.5781H151.059V78.4381C152.263 78.4101 152.263 78.1721 152.263 77.0241V70.3321C152.263 69.1841 152.263 68.9461 151.059 68.9181V68.7781H155.329ZM155.329 74.1121C157.233 74.1121 157.779 73.4121 157.779 71.5081C157.779 69.6181 157.233 68.9461 155.329 68.9461H154.447C153.313 68.9461 153.313 69.1701 153.313 70.3041V74.1121H155.329ZM163.664 71.4661C164.77 71.4661 165.232 72.1801 165.232 72.9081C165.232 73.5241 164.882 74.0281 164.448 74.0281C164.182 74.0281 163.846 73.8321 163.762 73.6221C164.224 73.1181 164.462 72.6981 164.462 72.3341C164.462 71.7881 163.958 71.6761 163.566 71.6761C162.418 71.6761 161.55 72.6981 161.186 74.3221V77.2481C161.186 78.2141 161.186 78.4381 162.418 78.4381V78.5781H159.352V78.4381C160.206 78.4381 160.206 78.2141 160.206 77.2481V72.9361C160.206 72.3061 160.206 71.8301 159.226 71.7461V71.6061H161.186L161.172 73.8461C161.62 72.2361 162.614 71.4661 163.664 71.4661ZM168.817 78.7181C167.207 78.7181 165.457 77.3041 165.457 75.0921C165.457 72.8801 167.207 71.4661 168.817 71.4661C170.441 71.4661 172.191 72.8801 172.191 75.0921C172.191 77.3041 170.441 78.7181 168.817 78.7181ZM168.817 78.5501C170.245 78.5501 171.113 77.3041 171.113 75.0921C171.113 72.8801 170.245 71.6341 168.817 71.6341C167.403 71.6341 166.535 72.8801 166.535 75.0921C166.535 77.3041 167.403 78.5501 168.817 78.5501ZM178.74 73.3701C178.53 73.3701 178.32 73.2301 178.25 73.0901C178.572 72.7121 178.698 72.4181 178.698 72.1241C178.698 71.7181 178.46 71.6341 178.264 71.6341C177.816 71.6341 177.55 72.2081 177.746 72.8381C177.886 73.1461 177.97 73.4961 177.97 73.8741C177.97 75.2881 176.85 76.2961 175.506 76.2961H174.554C174.008 76.2961 173.63 76.5901 173.63 76.9821C173.63 77.3881 173.854 77.6961 174.708 77.6961H176.976C178.04 77.6961 179.02 77.9481 179.02 79.1101C179.02 80.5241 177.508 81.3641 175.198 81.3641C172.944 81.3641 172.342 80.5381 172.342 79.7681C172.342 79.1941 172.706 78.6481 174.008 78.5081C173.364 78.3401 173.042 77.8921 173.042 77.3741C173.042 76.7161 173.616 76.1561 174.568 76.1561H174.652C173.7 75.8341 173.028 74.9801 173.028 73.8741C173.028 72.4741 174.134 71.4661 175.506 71.4661C176.346 71.4661 177.088 71.8581 177.536 72.4881C177.508 71.9561 177.788 71.4661 178.362 71.4661C179.02 71.4661 179.314 72.0121 179.314 72.5441C179.3 73.0061 179.048 73.3701 178.74 73.3701ZM175.506 76.1281C176.458 76.1281 177.018 75.2181 177.018 73.8741C177.018 72.5441 176.458 71.6341 175.506 71.6341C174.526 71.6341 173.98 72.5441 173.98 73.8741C173.98 75.2181 174.526 76.1281 175.506 76.1281ZM177.032 78.5921H174.666C173.49 78.5921 172.804 78.9141 172.804 79.7681C172.804 80.7341 173.784 81.1961 175.198 81.1961C177.046 81.1961 178.39 80.5941 178.39 79.6281C178.39 78.7461 177.816 78.5921 177.032 78.5921ZM183.687 71.4661C184.793 71.4661 185.255 72.1801 185.255 72.9081C185.255 73.5241 184.905 74.0281 184.471 74.0281C184.205 74.0281 183.869 73.8321 183.785 73.6221C184.247 73.1181 184.485 72.6981 184.485 72.3341C184.485 71.7881 183.981 71.6761 183.589 71.6761C182.441 71.6761 181.573 72.6981 181.209 74.3221V77.2481C181.209 78.2141 181.209 78.4381 182.441 78.4381V78.5781H179.375V78.4381C180.229 78.4381 180.229 78.2141 180.229 77.2481V72.9361C180.229 72.3061 180.229 71.8301 179.249 71.7461V71.6061H181.209L181.195 73.8461C181.643 72.2361 182.637 71.4661 183.687 71.4661ZM192.131 76.0161H192.271V77.3461C192.271 77.8501 192.215 78.0881 192.103 78.2841C192.005 78.4381 191.767 78.7041 191.277 78.7041C190.815 78.7041 190.577 78.5081 190.465 78.3401C190.339 78.1721 190.255 77.9341 190.255 77.3601V76.6601C190.045 77.2201 189.289 78.7181 187.525 78.7181C186.825 78.7181 186.321 78.5501 185.943 78.2001C185.593 77.8781 185.439 77.4021 185.439 76.9121C185.439 76.3661 185.607 76.0161 185.943 75.7221C186.727 75.0361 188.659 74.6021 190.255 74.3221V73.4401C190.255 71.8581 189.303 71.6201 188.491 71.6201C187.763 71.6201 187.203 71.8161 186.853 72.1801C186.741 72.2781 186.685 72.3761 186.685 72.5441C186.685 72.8801 186.923 73.3141 187.413 73.8321C187.315 74.0701 187.007 74.2521 186.699 74.2521C186.265 74.2521 185.929 73.7481 185.929 73.2161C185.929 72.3901 186.783 71.4661 188.533 71.4661C190.003 71.4661 191.207 72.0261 191.207 73.5661V77.3601C191.207 77.6681 191.235 77.8921 191.291 78.0461C191.361 78.1721 191.473 78.2981 191.655 78.2981C191.893 78.2981 192.005 78.1301 192.047 78.0461C192.117 77.9201 192.131 77.7101 192.131 77.3461V76.0161ZM187.875 78.3541C189.177 78.3541 190.129 77.1921 190.255 75.9601V74.4481C188.659 74.7981 187.203 75.1761 186.699 75.9321C186.531 76.1701 186.489 76.4781 186.489 76.8281C186.489 77.1921 186.531 77.5001 186.699 77.7941C186.881 78.1021 187.245 78.3541 187.875 78.3541ZM204.266 77.2481C204.266 78.2141 204.266 78.4381 205.12 78.4381V78.5781H202.306V78.4381C203.314 78.4381 203.314 78.2141 203.314 77.2481V73.4821C203.314 72.2361 202.656 71.8021 201.844 71.8021C200.738 71.8021 199.982 72.5861 199.464 73.6361V77.2481C199.464 78.2141 199.464 78.4381 200.458 78.4381V78.5781H197.518V78.4381C198.498 78.4381 198.498 78.2141 198.498 77.2481V73.4821C198.498 72.2361 197.854 71.8021 197.056 71.8021C195.95 71.8021 195.18 72.5861 194.676 73.6361V77.2481C194.676 78.2141 194.676 78.4381 195.67 78.4381V78.5781H192.842V78.4381C193.696 78.4381 193.696 78.2141 193.696 77.2481V72.9361C193.696 72.3061 193.696 71.8301 192.716 71.7461V71.6061H194.676L194.662 73.3421C195.292 72.1521 196.258 71.4661 197.406 71.4661C198.456 71.4661 199.38 72.0681 199.464 73.3281C200.094 72.1521 201.046 71.4661 202.194 71.4661C203.314 71.4661 204.266 72.1241 204.266 73.5241V77.2481Z" fill="#795CA5"/>
</svg>
