<svg width="272" height="84" viewBox="0 0 272 84" fill="none" xmlns="http://www.w3.org/2000/svg">
<path d="M98.9515 49.1181C94.5115 49.1181 91.5115 47.5581 89.5315 46.2381C87.6115 45.0981 86.2915 44.0181 85.3315 44.0181C84.4315 44.0181 83.8315 44.7981 83.6515 49.1181H83.0515L82.8115 31.5981H83.4115C83.9515 38.4381 88.2115 48.3981 98.9515 48.3981C102.132 48.3981 105.792 47.8581 108.192 45.2181C109.512 43.7181 109.872 41.7981 109.872 39.8781C109.872 34.4781 104.292 32.0781 97.1515 29.6181C91.0315 27.4581 83.4715 25.2981 83.4715 17.6181C83.4715 14.2581 84.7915 11.5581 87.0115 9.57812C89.5915 7.11812 93.4315 6.03812 97.3915 6.03812C101.712 6.03812 104.592 7.71812 106.272 8.91812C108.312 10.2981 109.212 11.1981 110.112 11.1981C111.012 11.1981 111.672 10.3581 111.732 6.03812H112.332L112.572 22.7181H111.972C111.432 16.2981 107.412 6.75812 97.3915 6.75812C94.6315 6.75812 91.9315 7.41812 90.1315 8.85812C88.6915 10.0581 87.8515 11.8581 87.8515 13.8981C87.8515 18.9981 92.7115 20.7381 99.4315 23.1381C107.232 25.8381 114.132 28.2381 114.132 36.1581C114.132 39.9381 112.752 43.0581 110.052 45.3981C107.352 47.6781 103.992 49.1181 98.9515 49.1181ZM148.565 40.7781C150.545 45.6981 151.925 47.6181 156.065 47.9781V48.5781H137.945V47.9781C144.425 47.6181 143.825 45.4581 141.905 40.7781L139.265 34.0581H123.905L122.285 38.4381C119.585 45.5781 118.985 47.6181 126.305 47.9781V48.5781H112.505V47.9781C117.785 47.6181 118.625 45.8781 121.505 38.4381L133.925 5.97812H134.525L148.565 40.7781ZM124.145 33.3981H138.965L131.345 14.1381L124.145 33.3981ZM174.158 6.57812C183.398 6.57812 190.418 9.15812 190.418 18.5181C190.418 27.9381 183.398 30.5781 174.158 30.5781H166.718V42.1581C166.718 46.5381 166.718 47.7981 173.318 47.9781V48.5781H155.498V47.9781C160.358 47.7981 160.358 46.5381 160.358 42.1581V12.9981C160.358 8.55812 160.358 7.35812 155.498 7.17812V6.57812H174.158ZM174.158 29.8581C181.178 29.8581 183.518 27.3381 183.518 18.5181C183.518 9.75812 181.178 7.29812 174.158 7.29812H171.098C166.718 7.29812 166.718 8.37812 166.718 12.6981V29.8581H174.158Z" fill="#795CA5"/>
<path d="M68.1376 78.7041C67.0036 78.7041 66.2756 78.2701 65.8136 77.9481C65.4216 77.6681 65.1696 77.4301 64.9736 77.4301C64.7776 77.4301 64.6656 77.6401 64.6376 78.7041H64.4976L64.4416 74.6581H64.5816C64.7076 76.1841 65.5616 78.5361 68.1376 78.5361C68.8096 78.5361 69.7196 78.4101 70.3076 77.7801C70.6576 77.3881 70.7416 76.8981 70.7416 76.4081C70.7416 75.0361 69.5376 74.4621 67.8296 73.9021C66.4576 73.4261 64.6096 72.9781 64.6096 71.2141C64.6096 70.5281 64.8756 69.9541 65.3376 69.5201C65.9396 68.9181 66.8216 68.6521 67.7456 68.6521C68.8236 68.6521 69.5376 69.1141 69.9156 69.4081C70.3496 69.7581 70.5176 69.9261 70.6996 69.9261C70.8956 69.9261 71.0216 69.7161 71.0356 68.6521H71.1756L71.2316 72.5441H71.0916C70.9656 71.0881 70.1116 68.8201 67.7456 68.8201C67.0316 68.8201 66.4156 68.9881 66.0236 69.3241C65.6596 69.6321 65.4496 70.0661 65.4496 70.5981C65.4496 71.8581 66.5416 72.2361 68.1656 72.7961C70.0276 73.4261 71.5536 74.0001 71.5536 75.7921C71.5536 76.6041 71.2876 77.3041 70.6996 77.8221C70.1116 78.3541 69.3416 78.7041 68.1376 78.7041ZM75.7591 71.7601L74.0791 71.7461V76.5201C74.0791 77.1081 74.1211 77.6261 74.2191 77.9201C74.3031 78.1441 74.4711 78.3121 74.8071 78.3121C75.1151 78.3121 75.3391 78.1721 75.4651 77.9201C75.6051 77.6261 75.6191 77.1221 75.6191 76.4921V75.7361H75.7591V76.4921C75.7591 77.2061 75.7451 77.7941 75.5211 78.1581C75.2831 78.5501 74.9331 78.7181 74.4151 78.7181C73.8971 78.7181 73.5471 78.5081 73.3791 78.1581C73.1971 77.8081 73.1131 77.2901 73.1131 76.2261V71.7461H72.2171V71.6061H72.6231C73.5751 71.6061 73.7991 70.7941 73.9111 69.0581H74.0791V71.6061L75.7591 71.5921V71.7601ZM83.0507 77.2481C83.0507 78.2141 83.0507 78.4381 83.8907 78.4381V78.5781H82.1127V76.8281C81.4547 78.0181 80.3767 78.7181 79.1447 78.7181C77.9547 78.7181 76.9887 78.0741 76.9887 76.6601V72.9361C76.9887 71.9701 76.9887 71.7461 76.1347 71.7461V71.6061H77.9547V76.7301C77.9547 77.9761 78.5987 78.4241 79.4807 78.4241C80.6707 78.4241 81.5667 77.6121 82.0987 76.5621V72.9221C82.0987 71.9981 82.0987 71.7461 80.6987 71.7461V71.6061H83.0507V77.2481ZM91.0943 77.2481C91.0943 78.2141 91.0943 78.4381 91.9343 78.4381V78.5781H90.1283V76.7021C89.5263 78.1021 88.5463 78.7181 87.3983 78.7181C85.6483 78.7181 84.5143 77.1921 84.5143 75.1901C84.5143 73.1601 85.7043 71.4661 87.7483 71.4661C89.0363 71.4661 89.8203 72.1241 90.1423 73.0621L90.1283 69.9681C90.1283 69.3381 90.1283 68.9461 88.6443 68.9181V68.7781H91.0943V77.2481ZM87.5943 78.5081C88.6863 78.5081 89.5543 77.8361 90.1283 76.2961V73.9581C90.1283 72.7821 89.3863 71.6481 87.8323 71.6481C86.7683 71.6481 85.5923 72.2221 85.5923 75.1761C85.5923 76.6181 85.8443 78.5081 87.5943 78.5081ZM95.3204 79.7681C94.7884 81.0981 94.1724 81.3781 93.6684 81.3781C92.9264 81.3781 92.3804 80.8321 92.3804 80.0481C92.3804 79.4181 92.7444 78.8861 93.1784 78.9001C93.4724 78.9141 93.7804 79.0961 93.8644 79.3341C93.3324 79.8521 93.0104 80.3281 93.0244 80.7061C93.0384 81.0421 93.3044 81.2241 93.6964 81.2241C94.1024 81.2241 94.6624 81.0141 95.1664 79.7541L95.6144 78.6621L93.4444 73.3981C92.9124 72.0961 92.7584 71.7461 91.8344 71.7461V71.6061H95.1804V71.7461C93.8504 71.7461 93.9764 72.1381 94.4804 73.3981L96.0904 77.4441L97.7004 73.3701C98.0924 72.4181 98.3444 71.7461 96.7064 71.7461V71.6061H99.4784V71.7461C98.5264 71.7461 98.2744 72.3761 97.8684 73.3701L95.3204 79.7681ZM109.306 76.7581C109.768 77.9201 110.104 78.3541 111.084 78.4381V78.5781H107.248V78.4381C108.774 78.3541 108.648 77.9061 108.2 76.7581L107.528 75.0361H103.734L103.3 76.1981C102.656 77.9761 102.558 78.3541 104.252 78.4381V78.5781H101.018V78.4381C102.278 78.3541 102.432 78.0461 103.118 76.1981L105.932 68.6381H106.086L109.306 76.7581ZM103.79 74.8821H107.458L105.568 70.0521L103.79 74.8821ZM115.295 71.4661C117.031 71.4661 118.165 72.8941 118.165 74.8821C118.165 76.9121 116.989 78.7181 114.763 78.7181C113.377 78.7181 112.425 77.7941 112.271 76.5621L111.725 78.7041H111.585V69.9821C111.585 69.3521 111.585 68.9461 110.605 68.9181V68.7781H112.565V71.6061L112.537 73.5101C113.097 72.0961 114.161 71.4661 115.295 71.4661ZM114.735 78.5641C115.911 78.5641 117.087 77.9341 117.087 74.8961C117.087 73.4821 116.863 71.6621 115.113 71.6621C114.021 71.6621 113.069 72.4041 112.537 73.8881V76.1981C112.537 77.4441 113.321 78.5641 114.735 78.5641ZM123.163 71.4661C124.269 71.4661 124.731 72.1801 124.731 72.9081C124.731 73.5241 124.381 74.0281 123.947 74.0281C123.681 74.0281 123.345 73.8321 123.261 73.6221C123.723 73.1181 123.961 72.6981 123.961 72.3341C123.961 71.7881 123.457 71.6761 123.065 71.6761C121.917 71.6761 121.049 72.6981 120.685 74.3221V77.2481C120.685 78.2141 120.685 78.4381 121.917 78.4381V78.5781H118.851V78.4381C119.705 78.4381 119.705 78.2141 119.705 77.2481V72.9361C119.705 72.3061 119.705 71.8301 118.725 71.7461V71.6061H120.685L120.671 73.8461C121.119 72.2361 122.113 71.4661 123.163 71.4661ZM128.317 78.7181C126.707 78.7181 124.957 77.3041 124.957 75.0921C124.957 72.8801 126.707 71.4661 128.317 71.4661C129.941 71.4661 131.691 72.8801 131.691 75.0921C131.691 77.3041 129.941 78.7181 128.317 78.7181ZM128.317 78.5501C129.745 78.5501 130.613 77.3041 130.613 75.0921C130.613 72.8801 129.745 71.6341 128.317 71.6341C126.903 71.6341 126.035 72.8801 126.035 75.0921C126.035 77.3041 126.903 78.5501 128.317 78.5501ZM139.038 76.0161H139.178V77.3461C139.178 77.8501 139.122 78.0881 139.01 78.2841C138.912 78.4381 138.674 78.7041 138.184 78.7041C137.722 78.7041 137.484 78.5081 137.372 78.3401C137.246 78.1721 137.162 77.9341 137.162 77.3601V76.6601C136.952 77.2201 136.196 78.7181 134.432 78.7181C133.732 78.7181 133.228 78.5501 132.85 78.2001C132.5 77.8781 132.346 77.4021 132.346 76.9121C132.346 76.3661 132.514 76.0161 132.85 75.7221C133.634 75.0361 135.566 74.6021 137.162 74.3221V73.4401C137.162 71.8581 136.21 71.6201 135.398 71.6201C134.67 71.6201 134.11 71.8161 133.76 72.1801C133.648 72.2781 133.592 72.3761 133.592 72.5441C133.592 72.8801 133.83 73.3141 134.32 73.8321C134.222 74.0701 133.914 74.2521 133.606 74.2521C133.172 74.2521 132.836 73.7481 132.836 73.2161C132.836 72.3901 133.69 71.4661 135.44 71.4661C136.91 71.4661 138.114 72.0261 138.114 73.5661V77.3601C138.114 77.6681 138.142 77.8921 138.198 78.0461C138.268 78.1721 138.38 78.2981 138.562 78.2981C138.8 78.2981 138.912 78.1301 138.954 78.0461C139.024 77.9201 139.038 77.7101 139.038 77.3461V76.0161ZM134.782 78.3541C136.084 78.3541 137.036 77.1921 137.162 75.9601V74.4481C135.566 74.7981 134.11 75.1761 133.606 75.9321C133.438 76.1701 133.396 76.4781 133.396 76.8281C133.396 77.1921 133.438 77.5001 133.606 77.7941C133.788 78.1021 134.152 78.3541 134.782 78.3541ZM146.399 77.2481C146.399 78.2141 146.399 78.4381 147.239 78.4381V78.5781H145.433V76.7021C144.831 78.1021 143.851 78.7181 142.703 78.7181C140.953 78.7181 139.819 77.1921 139.819 75.1901C139.819 73.1601 141.009 71.4661 143.053 71.4661C144.341 71.4661 145.125 72.1241 145.447 73.0621L145.433 69.9681C145.433 69.3381 145.433 68.9461 143.949 68.9181V68.7781H146.399V77.2481ZM142.899 78.5081C143.991 78.5081 144.859 77.8361 145.433 76.2961V73.9581C145.433 72.7821 144.691 71.6481 143.137 71.6481C142.073 71.6481 140.897 72.2221 140.897 75.1761C140.897 76.6181 141.149 78.5081 142.899 78.5081ZM158.314 68.7781C160.316 68.7781 161.94 69.3661 161.94 71.5081C161.94 73.6641 160.316 74.2801 158.314 74.2801H156.298V77.0241C156.298 78.1721 156.298 78.4101 157.95 78.4381V78.5781H154.044V78.4381C155.248 78.4101 155.248 78.1721 155.248 77.0241V70.3321C155.248 69.1841 155.248 68.9461 154.044 68.9181V68.7781H158.314ZM158.314 74.1121C160.218 74.1121 160.764 73.4121 160.764 71.5081C160.764 69.6181 160.218 68.9461 158.314 68.9461H157.432C156.298 68.9461 156.298 69.1701 156.298 70.3041V74.1121H158.314ZM166.648 71.4661C167.754 71.4661 168.216 72.1801 168.216 72.9081C168.216 73.5241 167.866 74.0281 167.432 74.0281C167.166 74.0281 166.83 73.8321 166.746 73.6221C167.208 73.1181 167.446 72.6981 167.446 72.3341C167.446 71.7881 166.942 71.6761 166.55 71.6761C165.402 71.6761 164.534 72.6981 164.17 74.3221V77.2481C164.17 78.2141 164.17 78.4381 165.402 78.4381V78.5781H162.336V78.4381C163.19 78.4381 163.19 78.2141 163.19 77.2481V72.9361C163.19 72.3061 163.19 71.8301 162.21 71.7461V71.6061H164.17L164.156 73.8461C164.604 72.2361 165.598 71.4661 166.648 71.4661ZM171.802 78.7181C170.192 78.7181 168.442 77.3041 168.442 75.0921C168.442 72.8801 170.192 71.4661 171.802 71.4661C173.426 71.4661 175.176 72.8801 175.176 75.0921C175.176 77.3041 173.426 78.7181 171.802 78.7181ZM171.802 78.5501C173.23 78.5501 174.098 77.3041 174.098 75.0921C174.098 72.8801 173.23 71.6341 171.802 71.6341C170.388 71.6341 169.52 72.8801 169.52 75.0921C169.52 77.3041 170.388 78.5501 171.802 78.5501ZM181.725 73.3701C181.515 73.3701 181.305 73.2301 181.235 73.0901C181.557 72.7121 181.683 72.4181 181.683 72.1241C181.683 71.7181 181.445 71.6341 181.249 71.6341C180.801 71.6341 180.535 72.2081 180.731 72.8381C180.871 73.1461 180.955 73.4961 180.955 73.8741C180.955 75.2881 179.835 76.2961 178.491 76.2961H177.539C176.993 76.2961 176.615 76.5901 176.615 76.9821C176.615 77.3881 176.839 77.6961 177.693 77.6961H179.961C181.025 77.6961 182.005 77.9481 182.005 79.1101C182.005 80.5241 180.493 81.3641 178.183 81.3641C175.929 81.3641 175.327 80.5381 175.327 79.7681C175.327 79.1941 175.691 78.6481 176.993 78.5081C176.349 78.3401 176.027 77.8921 176.027 77.3741C176.027 76.7161 176.601 76.1561 177.553 76.1561H177.637C176.685 75.8341 176.013 74.9801 176.013 73.8741C176.013 72.4741 177.119 71.4661 178.491 71.4661C179.331 71.4661 180.073 71.8581 180.521 72.4881C180.493 71.9561 180.773 71.4661 181.347 71.4661C182.005 71.4661 182.299 72.0121 182.299 72.5441C182.285 73.0061 182.033 73.3701 181.725 73.3701ZM178.491 76.1281C179.443 76.1281 180.003 75.2181 180.003 73.8741C180.003 72.5441 179.443 71.6341 178.491 71.6341C177.511 71.6341 176.965 72.5441 176.965 73.8741C176.965 75.2181 177.511 76.1281 178.491 76.1281ZM180.017 78.5921H177.651C176.475 78.5921 175.789 78.9141 175.789 79.7681C175.789 80.7341 176.769 81.1961 178.183 81.1961C180.031 81.1961 181.375 80.5941 181.375 79.6281C181.375 78.7461 180.801 78.5921 180.017 78.5921ZM186.671 71.4661C187.777 71.4661 188.239 72.1801 188.239 72.9081C188.239 73.5241 187.889 74.0281 187.455 74.0281C187.189 74.0281 186.853 73.8321 186.769 73.6221C187.231 73.1181 187.469 72.6981 187.469 72.3341C187.469 71.7881 186.965 71.6761 186.573 71.6761C185.425 71.6761 184.557 72.6981 184.193 74.3221V77.2481C184.193 78.2141 184.193 78.4381 185.425 78.4381V78.5781H182.359V78.4381C183.213 78.4381 183.213 78.2141 183.213 77.2481V72.9361C183.213 72.3061 183.213 71.8301 182.233 71.7461V71.6061H184.193L184.179 73.8461C184.627 72.2361 185.621 71.4661 186.671 71.4661ZM195.115 76.0161H195.255V77.3461C195.255 77.8501 195.199 78.0881 195.087 78.2841C194.989 78.4381 194.751 78.7041 194.261 78.7041C193.799 78.7041 193.561 78.5081 193.449 78.3401C193.323 78.1721 193.239 77.9341 193.239 77.3601V76.6601C193.029 77.2201 192.273 78.7181 190.509 78.7181C189.809 78.7181 189.305 78.5501 188.927 78.2001C188.577 77.8781 188.423 77.4021 188.423 76.9121C188.423 76.3661 188.591 76.0161 188.927 75.7221C189.711 75.0361 191.643 74.6021 193.239 74.3221V73.4401C193.239 71.8581 192.287 71.6201 191.475 71.6201C190.747 71.6201 190.187 71.8161 189.837 72.1801C189.725 72.2781 189.669 72.3761 189.669 72.5441C189.669 72.8801 189.907 73.3141 190.397 73.8321C190.299 74.0701 189.991 74.2521 189.683 74.2521C189.249 74.2521 188.913 73.7481 188.913 73.2161C188.913 72.3901 189.767 71.4661 191.517 71.4661C192.987 71.4661 194.191 72.0261 194.191 73.5661V77.3601C194.191 77.6681 194.219 77.8921 194.275 78.0461C194.345 78.1721 194.457 78.2981 194.639 78.2981C194.877 78.2981 194.989 78.1301 195.031 78.0461C195.101 77.9201 195.115 77.7101 195.115 77.3461V76.0161ZM190.859 78.3541C192.161 78.3541 193.113 77.1921 193.239 75.9601V74.4481C191.643 74.7981 190.187 75.1761 189.683 75.9321C189.515 76.1701 189.473 76.4781 189.473 76.8281C189.473 77.1921 189.515 77.5001 189.683 77.7941C189.865 78.1021 190.229 78.3541 190.859 78.3541ZM207.251 77.2481C207.251 78.2141 207.251 78.4381 208.105 78.4381V78.5781H205.291V78.4381C206.299 78.4381 206.299 78.2141 206.299 77.2481V73.4821C206.299 72.2361 205.641 71.8021 204.829 71.8021C203.723 71.8021 202.967 72.5861 202.449 73.6361V77.2481C202.449 78.2141 202.449 78.4381 203.443 78.4381V78.5781H200.503V78.4381C201.483 78.4381 201.483 78.2141 201.483 77.2481V73.4821C201.483 72.2361 200.839 71.8021 200.041 71.8021C198.935 71.8021 198.165 72.5861 197.661 73.6361V77.2481C197.661 78.2141 197.661 78.4381 198.655 78.4381V78.5781H195.827V78.4381C196.681 78.4381 196.681 78.2141 196.681 77.2481V72.9361C196.681 72.3061 196.681 71.8301 195.701 71.7461V71.6061H197.661L197.647 73.3421C198.277 72.1521 199.243 71.4661 200.391 71.4661C201.441 71.4661 202.365 72.0681 202.449 73.3281C203.079 72.1521 204.031 71.4661 205.179 71.4661C206.299 71.4661 207.251 72.1241 207.251 73.5241V77.2481Z" fill="#795CA5"/>
</svg>
