<svg width="20" height="20" viewBox="0 0 20 20" fill="none" xmlns="http://www.w3.org/2000/svg">
<g clip-path="url(#clip0_821_19247)">
<path fill-rule="evenodd" clip-rule="evenodd" d="M10.0167 0C15.525 0.00833333 20 4.48333 20 10C20 15.5167 15.5167 20 10 20C4.48333 20 0 15.5167 0 10C0 4.48333 4.475 0.00833333 9.98333 0H10.0167ZM13.0917 13.3333H6.9C7.43333 16.8917 8.76667 19.1667 9.99167 19.1667C11.2167 19.1667 12.55 16.8917 13.0833 13.3333M18.5417 13.3333H13.9417C13.5833 15.825 12.8417 17.8333 11.875 18.975C14.9333 18.3417 17.4333 16.1833 18.55 13.3333M6.06667 13.3333H1.45833C2.575 16.1833 5.075 18.3417 8.13333 18.975C7.16667 17.8333 6.41667 15.8167 6.06667 13.3333ZM5.95833 7.5H1.18333C0.908333 8.475 0.566667 10.325 1.18333 12.5H5.96667C5.80833 10.9917 5.78333 9.225 5.96667 7.5M13.2 7.5H6.8C6.63333 9 6.61667 10.775 6.8 12.5H13.2C13.3667 10.9917 13.3833 9.225 13.2 7.5ZM18.825 7.5H14.0417C14.0917 7.99167 14.3 10.0167 14.0417 12.5H18.825C19.4417 10.325 19.1 8.46667 18.825 7.5ZM8.13333 1.025C5.075 1.65833 2.575 3.81667 1.45833 6.66667H6.05833C6.41667 4.18333 7.15833 2.16667 8.125 1.025M13.0917 6.66667C12.5583 3.10833 11.225 0.833333 10 0.833333C8.775 0.833333 7.44167 3.10833 6.90833 6.66667H13.1H13.0917ZM11.8667 1.025C12.8333 2.16667 13.5833 4.18333 13.9417 6.66667H18.5417C17.425 3.81667 14.925 1.65833 11.8667 1.025Z" fill="white"/>
</g>
<defs>
<clipPath id="clip0_821_19247">
<rect width="20" height="20" fill="white"/>
</clipPath>
</defs>
</svg>
